<svg xmlns="http://www.w3.org/2000/svg" id="Layer_1" viewBox="0 0 70.37 70.37">
    <defs>
        <style>.st0{fill:#fff}</style>
    </defs>
    <path d="M70.37 70.37H0V0h70.37zM3 67.37h64.37V3H3z" class="st0"/>
    <path d="M11.95 21.82h15.67v3.92H11.95zM49.15 33.57c-6.48 0-11.75-5.27-11.75-11.75s5.27-11.75 11.75-11.75S60.9 15.34 60.9 21.82s-5.27 11.75-11.75 11.75m0-19.58c-4.32 0-7.83 3.51-7.83 7.83s3.51 7.83 7.83 7.83 7.83-3.51 7.83-7.83-3.51-7.83-7.83-7.83M11.95 10.07H23.7v3.92H11.95zM57.86 60.66 41.43 49.7l-8.67 6.94c-.72.57-1.73.57-2.45 0L10.73 40.97l2.45-3.06L31.54 52.6l8.57-6.86c.67-.53 1.6-.57 2.31-.1l17.62 11.75-2.17 3.26Z" class="st0"/>
</svg>