<svg width="197" height="49" viewBox="0 0 197 49" fill="none" xmlns="http://www.w3.org/2000/svg">
<g clip-path="url(#clip0_532_868)">
<path d="M24.1657 39.9493C24.1657 40.3207 23.8659 40.622 23.4998 40.622H19.4083C19.0332 40.622 18.7407 40.326 18.7407 39.9493V37.212C18.7407 36.8406 19.0402 36.5392 19.4083 36.5392H23.4963C23.8659 36.5392 24.1657 36.8406 24.1657 37.212V39.9493ZM26.8449 36.5831L24.1149 33.7929C24.0501 33.7317 23.9676 33.6983 23.8818 33.6983H19.0316C18.9439 33.6983 18.8614 33.7317 18.8004 33.7929L16.0668 36.5865C16.0088 36.6567 15.9668 36.7599 15.9598 36.8632C15.9598 36.8632 15.9563 46.006 15.9512 48.3812C15.9563 48.6317 16.156 48.8296 16.4084 48.8296H18.2869C18.5374 48.8296 18.7407 48.628 18.7407 48.3812V43.7222C18.7407 43.363 19.0316 43.0636 19.3908 43.0565H23.5067C23.8713 43.0619 24.1657 43.3613 24.1657 43.7222V48.3812C24.1657 48.628 24.3706 48.8296 24.6231 48.8296H26.4979C26.7501 48.8296 26.9552 48.628 26.9552 48.3812V36.8545C26.9447 36.7599 26.9062 36.6584 26.8449 36.5831Z" fill="white"/>
<path d="M58.8935 39.9512C58.8935 40.3277 58.5972 40.622 58.2207 40.622H54.1325C53.7629 40.622 53.4631 40.3207 53.4631 39.9512V37.212C53.4631 36.8406 53.7629 36.5392 54.1325 36.5392H58.2207C58.5972 36.5392 58.8935 36.8352 58.8935 37.212V39.9512ZM61.5726 36.5831L58.8357 33.7929C58.776 33.7317 58.6937 33.6983 58.6062 33.6983H53.7541C53.6702 33.6983 53.5841 33.7351 53.5265 33.7929L50.7858 36.5865C50.7331 36.6601 50.6894 36.767 50.6807 36.865V48.3812C50.6807 48.628 50.8822 48.8296 51.1275 48.8296H53.0111C53.2601 48.8296 53.4631 48.628 53.4631 48.3812V43.7239C53.4631 43.3578 53.7505 43.0636 54.1169 43.0565H58.2364C58.5991 43.0636 58.8935 43.3613 58.8935 43.7239V48.3812C58.8935 48.628 59.0968 48.8296 59.3456 48.8296H61.2203C61.4728 48.8296 61.676 48.628 61.676 48.3812V36.8545C61.6672 36.7565 61.6304 36.6548 61.5726 36.5831Z" fill="white"/>
<path d="M93.6181 39.9493C93.6181 40.3207 93.3185 40.622 92.9507 40.622H88.8556C88.4928 40.622 88.1933 40.3207 88.1879 39.9512V37.212C88.1879 36.8406 88.4875 36.5392 88.8556 36.5392H92.9507C93.3185 36.5392 93.6181 36.8406 93.6181 37.212V39.9493ZM96.2956 36.5848L93.5622 33.7929C93.5044 33.7334 93.4185 33.6983 93.3327 33.6983H88.4753C88.3946 33.6983 88.3158 33.7317 88.2493 33.7965L85.5121 36.5865C85.4579 36.6513 85.4194 36.7547 85.4106 36.8616C85.4106 36.8616 85.4053 46.006 85.4053 48.3812C85.4053 48.6229 85.6104 48.8296 85.8504 48.8296H87.7376C87.9864 48.8296 88.1879 48.628 88.1879 48.3812V43.7222C88.1879 43.363 88.4841 43.0636 88.8468 43.0565H92.9646C93.3256 43.0619 93.6181 43.3613 93.6181 43.7222V48.3812C93.6181 48.6229 93.8231 48.8296 94.0685 48.8296H95.9556C96.2027 48.8296 96.4042 48.628 96.4042 48.3812V36.8545C96.3972 36.7828 96.3727 36.6706 96.2956 36.5848Z" fill="white"/>
<path d="M76.1567 45.1724C76.1567 45.5472 75.8642 45.8415 75.4891 45.8415H71.5922C71.2225 45.8415 70.9229 45.5402 70.9229 45.1724V37.0823C70.9229 36.711 71.2225 36.4096 71.5922 36.4096H75.4891C75.8642 36.4096 76.1567 36.7056 76.1567 37.0823V45.1724ZM78.8291 36.4535L76.0957 33.6632C76.0359 33.6037 75.9537 33.5686 75.8659 33.5686H68.5871C68.3436 33.5686 68.1387 33.7737 68.1387 34.0171V48.2516C68.1387 48.4984 68.3436 48.7 68.5942 48.7H75.8659C75.9501 48.7 76.0341 48.6649 76.0938 48.6018L78.8343 45.8117C78.9026 45.7137 78.9413 45.6208 78.9446 45.5297V36.7266C78.9413 36.6461 78.8991 36.5445 78.8291 36.4535Z" fill="white"/>
<path d="M44.5952 34.1449V48.3793C44.5952 48.6263 44.3954 48.8296 44.1502 48.8296H42.4173C42.2595 48.8225 41.9828 48.6526 41.8774 48.4985L41.8162 48.4127L35.8252 39.1419V48.3793C35.8252 48.6263 35.6202 48.8296 35.3697 48.8296H33.4913C33.244 48.8296 33.0356 48.6229 33.0356 48.3793V34.1449C33.0356 33.9033 33.244 33.6983 33.4913 33.6983H34.9789C35.1401 33.7036 35.4029 33.863 35.5082 34.0172L41.8145 43.7414V34.1449C41.8145 33.898 42.0179 33.6983 42.2684 33.6983H44.1502C44.3954 33.6983 44.5952 33.898 44.5952 34.1449Z" fill="white"/>
<path d="M2.79985 37.2433V45.3071C2.79985 45.6785 3.09945 45.9798 3.46921 45.9798H10.0296C10.2768 45.9798 10.4782 46.1847 10.4782 46.4351V48.4109C10.4782 48.6491 10.282 48.8347 10.0296 48.8347H3.09078C3.00842 48.833 2.92421 48.7962 2.86472 48.7331L0.129508 45.9518C0.0593999 45.8625 0.0136921 45.7555 0.00844915 45.6733L0.00683594 36.8686C0.0136921 36.7791 0.0575179 36.6759 0.122383 36.5935L2.8664 33.7999C2.92421 33.7369 3.01004 33.6982 3.08888 33.6982H10.0296C10.2697 33.6982 10.4782 33.9225 10.4782 34.1783V36.1224C10.4782 36.3692 10.2768 36.5708 10.0296 36.5708H3.46921C3.09945 36.5708 2.79985 36.872 2.79985 37.2433Z" fill="white"/>
<path d="M84.5103 6.88167V9.45654C84.5103 10.0671 85.0059 10.5642 85.6186 10.5642H93.7785C94.2705 10.5642 94.6697 10.9633 94.6697 11.4535V15.4508C94.6697 15.941 94.2705 16.3418 93.7785 16.3418H85.6236C85.0095 16.3418 84.5103 16.8406 84.5103 17.4546V20.2548C84.5103 20.8654 85.0059 21.3625 85.6186 21.3625H95.5077C96 21.3625 96.399 21.7615 96.399 22.2517V26.2491C96.399 26.7393 96 27.1366 95.5111 27.1366H78.8784C78.3826 27.1366 77.98 26.7341 77.98 26.2387V7.17579C77.98 6.68043 78.1727 6.2143 78.5237 5.86514L83.8461 0.545126C84.1954 0.194241 84.6617 0.00159836 85.1573 0.00159836H95.5215C96.005 0.00675774 96.399 0.402363 96.399 0.883968V4.88301C96.399 5.37665 95.9981 5.77742 95.5042 5.77742H85.6133C85.0041 5.77742 84.5103 6.27278 84.5103 6.88167Z" fill="white"/>
<path d="M137.051 0.883968V26.2645C137.051 26.7462 136.658 27.1366 136.176 27.1366H131.401C130.921 27.1366 130.529 26.7462 130.529 26.2645V0.875368C130.529 0.393763 130.921 0.00159836 131.401 0.00159836H136.156C136.65 0.00159836 137.051 0.397203 137.051 0.883968Z" fill="white"/>
<path d="M164.36 22.2345V26.2645C164.36 26.7462 163.968 27.1366 163.486 27.1366H147.199C146.717 27.1366 146.325 26.7462 146.325 26.2645V0.87365C146.325 0.393764 146.717 0.00159836 147.199 0.00159836H151.978C152.46 0.00159836 152.852 0.393764 152.852 0.87365V20.2548C152.852 20.8654 153.347 21.3625 153.958 21.3625H163.486C163.968 21.3625 164.36 21.7529 164.36 22.2345Z" fill="white"/>
<path d="M70.9714 22.2345V26.2645C70.9714 26.7462 70.579 27.1366 70.0972 27.1366H53.8102C53.3284 27.1366 52.936 26.7462 52.936 26.2645V0.87365C52.936 0.393764 53.3284 0.00159836 53.8102 0.00159836H58.5887C59.0706 0.00159836 59.4631 0.393764 59.4631 0.87365V20.3924C59.4631 20.9273 59.8982 21.3625 60.4334 21.3625H70.0972C70.579 21.3625 70.9714 21.7529 70.9714 22.2345Z" fill="white"/>
<path d="M123.182 0.877089V4.89849C123.174 5.38354 122.773 5.77742 122.289 5.77742H112.376C111.775 5.77742 111.287 6.2659 111.287 6.86619V9.47546C111.287 10.0757 111.775 10.5642 112.376 10.5642H120.558C121.042 10.5642 121.443 10.9581 121.453 11.4414V15.4628C121.443 15.9479 121.042 16.3418 120.558 16.3418H112.376C111.775 16.3418 111.287 16.8285 111.287 17.4288V26.2439C111.287 26.7358 110.887 27.1366 110.397 27.1366H105.636C105.154 27.1366 104.762 26.7462 104.762 26.2645V0.883968C104.762 0.397203 105.164 0.00159836 105.658 0.00159836H122.307C122.78 0.00675774 123.172 0.400644 123.182 0.877089Z" fill="white"/>
<path d="M20.0056 0.883968V4.90537C20.0056 5.38697 19.615 5.77742 19.1332 5.77742H14.3667C13.7558 5.77742 13.2584 6.27622 13.2584 6.88855V26.2645C13.2584 26.7462 12.8662 27.1366 12.3843 27.1366H7.61607C7.13432 27.1366 6.7419 26.7462 6.7419 26.2645V6.89199C6.7419 6.27794 6.24126 5.77742 5.62697 5.77742H0.874162C0.392348 5.77742 0 5.38697 0 4.90537V0.883968C0 0.404083 0.387172 0.00847816 0.862063 0.00159836H19.1179C19.6029 0.00675774 20.0022 0.402363 20.0056 0.883968Z" fill="white"/>
<path d="M32.6843 6.88167V9.45654C32.6843 10.0671 33.1816 10.5642 33.7925 10.5642H41.9543C42.4445 10.5642 42.8437 10.9633 42.8437 11.4535V15.4508C42.8437 15.941 42.4445 16.3418 41.9543 16.3418H33.7977C33.1834 16.3418 32.6843 16.8406 32.6843 17.4546V20.2548C32.6843 20.8654 33.1816 21.3625 33.7925 21.3625H43.6835C44.1756 21.3625 44.5748 21.7615 44.5748 22.2517V26.2491C44.5748 26.7393 44.1756 27.1366 43.6869 27.1366H27.054C26.5584 27.1366 26.1558 26.7341 26.1558 26.2387V7.17579C26.1558 6.68043 26.3485 6.2143 26.6978 5.86514L32.0218 0.545126C32.3712 0.194241 32.8375 0.00159836 33.3314 0.00159836H43.6972C44.1808 0.00675774 44.5748 0.402363 44.5748 0.883968V4.88301C44.5748 5.37665 44.1722 5.77742 43.6783 5.77742H33.7891C33.1799 5.77742 32.6843 6.27278 32.6843 6.88167Z" fill="white"/>
<path d="M197 0.675861V26.4572C197 26.8304 196.695 27.1349 196.322 27.1349H191.175C190.802 27.1349 190.497 26.8304 190.497 26.4572V16.0477C190.497 15.6263 190.232 15.2857 189.823 15.1825C189.743 15.1636 189.666 15.1532 189.59 15.1532C189.268 15.1532 188.979 15.3252 188.818 15.628L186.491 19.971C186.372 20.1929 186.144 20.3288 185.894 20.3288H182.337C182.088 20.3288 181.859 20.1912 181.74 19.971L179.412 15.628C179.212 15.2547 178.818 15.0793 178.409 15.1825C177.999 15.2857 177.734 15.6263 177.734 16.0477V26.4572C177.734 26.8304 177.43 27.1349 177.056 27.1349H171.908C171.534 27.1349 171.231 26.8304 171.231 26.4572V0.675861C171.231 0.302618 171.534 -0.000106812 171.908 -0.000106812H177.197C177.452 -0.000106812 177.684 0.140934 177.8 0.367975L183.328 11.1714C183.482 11.4707 183.784 11.6565 184.122 11.6582C184.122 11.6582 184.122 11.6582 184.123 11.6582C184.457 11.6582 184.762 11.4724 184.915 11.1748L190.494 0.366259C190.611 0.139215 190.841 -0.000106812 191.096 -0.000106812H196.322C196.695 -0.000106812 197 0.302618 197 0.675861Z" fill="white"/>
</g>
<defs>
<clipPath id="clip0_532_868">
<rect width="197" height="48.8347" fill="white"/>
</clipPath>
</defs>
</svg>
