<svg width="424" height="326" viewBox="0 0 424 326" fill="none" xmlns="http://www.w3.org/2000/svg">
<rect x="1.41022" y="1.41022" width="420.247" height="322.471" rx="6.92902" stroke="#48D36E" stroke-width="2.82045"/>
<path d="M55.1089 62.4259C53.3332 62.4259 51.7567 62.0442 50.3793 61.2808C49.0185 60.5009 47.9481 59.4388 47.1681 58.0946C46.3882 56.7338 45.9982 55.1739 45.9982 53.4148C45.9982 51.6557 46.3882 50.1041 47.1681 48.7599C47.9481 47.3991 49.0185 46.337 50.3793 45.5736C51.7567 44.7936 53.3332 44.4036 55.1089 44.4036C56.171 44.4036 57.1501 44.5613 58.0462 44.8766C58.9424 45.1919 59.7306 45.6317 60.411 46.1959C61.108 46.7435 61.6889 47.3742 62.1535 48.0878L59.3655 49.8302C59.0834 49.3822 58.71 48.9839 58.2454 48.6354C57.7973 48.2869 57.2995 48.0131 56.7518 47.8139C56.2042 47.6148 55.6565 47.5152 55.1089 47.5152C54.0136 47.5152 53.0428 47.7724 52.1965 48.2869C51.3501 48.7847 50.6863 49.4734 50.2051 50.353C49.7238 51.2325 49.4832 52.2531 49.4832 53.4148C49.4832 54.5598 49.7155 55.5804 50.1802 56.4766C50.6614 57.3727 51.3335 58.078 52.1965 58.5924C53.0594 59.0903 54.0551 59.3392 55.1836 59.3392C56.0299 59.3392 56.785 59.1816 57.4488 58.8663C58.1126 58.5344 58.6437 58.078 59.0419 57.4972C59.4402 56.9163 59.6643 56.2359 59.714 55.456H55.6814V52.7925H62.9999V54.9083C62.9667 56.5015 62.6099 57.8623 61.9295 58.9907C61.2491 60.1026 60.3198 60.9572 59.1415 61.5547C57.9633 62.1355 56.6191 62.4259 55.1089 62.4259ZM69.7887 62.4259C68.5606 62.4259 67.4737 62.1521 66.5277 61.6045C65.5818 61.0402 64.835 60.2685 64.2874 59.2894C63.7564 58.3103 63.4908 57.1819 63.4908 55.904C63.4908 54.6262 63.7647 53.4978 64.3123 52.5186C64.8765 51.5395 65.6399 50.7762 66.6024 50.2285C67.5815 49.6643 68.7017 49.3822 69.9629 49.3822C71.0582 49.3822 72.0622 49.6726 72.9749 50.2534C73.9043 50.8176 74.6427 51.6557 75.1904 52.7676C75.7546 53.8628 76.0367 55.1987 76.0367 56.7753H66.926C67.009 57.605 67.3658 58.2688 67.9964 58.7667C68.627 59.2479 69.3406 59.4886 70.1372 59.4886C70.8176 59.4886 71.3735 59.3475 71.805 59.0654C72.2364 58.7667 72.5683 58.385 72.8007 57.9203L75.738 59.0654C75.3895 59.7624 74.9331 60.3681 74.3689 60.8826C73.8213 61.3804 73.1658 61.7621 72.4024 62.0276C71.639 62.2931 70.7678 62.4259 69.7887 62.4259ZM67.1003 54.3358H72.4771C72.4273 53.8214 72.2613 53.4065 71.9792 53.0912C71.6971 52.7759 71.3652 52.5435 70.9835 52.3942C70.6018 52.2448 70.2284 52.1701 69.8633 52.1701C69.5149 52.1701 69.1332 52.2448 68.7183 52.3942C68.32 52.5269 67.9632 52.751 67.6479 53.0663C67.3492 53.3816 67.1666 53.8048 67.1003 54.3358ZM77.0641 62.1272V49.6809H80.1507L80.3001 51.3736C80.6984 50.7264 81.2045 50.2368 81.8185 49.9049C82.4492 49.5564 83.1627 49.3822 83.9593 49.3822C84.9384 49.3822 85.7765 49.5813 86.4735 49.9796C87.1705 50.3779 87.7015 51.0002 88.0666 51.8465C88.4317 52.6763 88.6059 53.755 88.5893 55.0826V62.1272H85.3035V55.7547C85.3035 54.9083 85.2039 54.2528 85.0048 53.7882C84.8223 53.3235 84.5567 52.9916 84.2082 52.7925C83.8597 52.5767 83.4532 52.4689 82.9885 52.4689C82.1421 52.4523 81.4866 52.7095 81.022 53.2405C80.5739 53.7716 80.3499 54.5598 80.3499 55.6053V62.1272H77.0641ZM95.9555 62.4259C94.7275 62.4259 93.6405 62.1521 92.6946 61.6045C91.7487 61.0402 91.0019 60.2685 90.4543 59.2894C89.9232 58.3103 89.6577 57.1819 89.6577 55.904C89.6577 54.6262 89.9315 53.4978 90.4792 52.5186C91.0434 51.5395 91.8068 50.7762 92.7693 50.2285C93.7484 49.6643 94.8686 49.3822 96.1298 49.3822C97.2251 49.3822 98.2291 49.6726 99.1418 50.2534C100.071 50.8176 100.81 51.6557 101.357 52.7676C101.921 53.8628 102.204 55.1987 102.204 56.7753H93.0929C93.1759 57.605 93.5327 58.2688 94.1633 58.7667C94.7939 59.2479 95.5075 59.4886 96.304 59.4886C96.9844 59.4886 97.5404 59.3475 97.9718 59.0654C98.4033 58.7667 98.7352 58.385 98.9675 57.9203L101.905 59.0654C101.556 59.7624 101.1 60.3681 100.536 60.8826C99.9881 61.3804 99.3326 61.7621 98.5693 62.0276C97.8059 62.2931 96.9346 62.4259 95.9555 62.4259ZM93.2671 54.3358H98.6439C98.5942 53.8214 98.4282 53.4065 98.1461 53.0912C97.864 52.7759 97.5321 52.5435 97.1504 52.3942C96.7687 52.2448 96.3953 52.1701 96.0302 52.1701C95.6817 52.1701 95.3 52.2448 94.8852 52.3942C94.4869 52.5269 94.1301 52.751 93.8148 53.0663C93.5161 53.3816 93.3335 53.8048 93.2671 54.3358ZM103.231 62.1272V49.6809H106.517V51.971C107.031 51.191 107.678 50.6102 108.458 50.2285C109.255 49.8302 110.076 49.6311 110.923 49.6311V52.8174C110.159 52.8174 109.437 52.9086 108.757 53.0912C108.093 53.2737 107.554 53.5724 107.139 53.9873C106.724 54.4022 106.517 54.9332 106.517 55.5804V62.1272H103.231ZM115.813 62.4259C114.32 62.4259 113.158 62.094 112.328 61.4302C111.515 60.7664 111.109 59.8288 111.109 58.6173C111.109 57.2897 111.548 56.294 112.428 55.6302C113.324 54.9498 114.577 54.6096 116.187 54.6096H119.124C119.008 53.8462 118.767 53.2654 118.402 52.8671C118.037 52.4523 117.514 52.2448 116.834 52.2448C116.303 52.2448 115.822 52.361 115.39 52.5933C114.959 52.8256 114.594 53.1824 114.295 53.6637L111.407 52.668C111.64 52.137 111.98 51.6225 112.428 51.1247C112.876 50.6102 113.457 50.1953 114.17 49.88C114.901 49.5481 115.788 49.3822 116.834 49.3822C118.095 49.3822 119.141 49.6228 119.97 50.1041C120.817 50.5853 121.439 51.2657 121.837 52.1453C122.252 53.0082 122.451 54.0371 122.435 55.2319L122.36 62.1272H119.298L119.248 60.6834C118.933 61.2477 118.485 61.6791 117.904 61.9778C117.34 62.2766 116.643 62.4259 115.813 62.4259ZM116.361 59.6877C116.892 59.6877 117.373 59.5633 117.805 59.3143C118.236 59.0654 118.576 58.7418 118.825 58.3435C119.074 57.9452 119.199 57.5304 119.199 57.0989V57.0491H117.332C116.253 57.0491 115.506 57.1819 115.091 57.4474C114.677 57.6963 114.469 58.0531 114.469 58.5178C114.469 58.8829 114.635 59.1733 114.967 59.389C115.299 59.5881 115.764 59.6877 116.361 59.6877ZM129.299 62.4259C127.922 62.4259 126.876 62.0857 126.163 61.4053C125.466 60.7249 125.117 59.7541 125.117 58.4929V52.4689H123.101V49.6809H125.117V45.7976H128.403V49.6809H131.515V52.4689H128.403V57.771C128.403 58.302 128.519 58.7086 128.752 58.9907C128.984 59.2562 129.324 59.389 129.772 59.389C129.938 59.389 130.121 59.3558 130.32 59.2894C130.519 59.2065 130.726 59.0903 130.942 58.9409L132.087 61.4053C131.689 61.704 131.241 61.9447 130.743 62.1272C130.262 62.3263 129.78 62.4259 129.299 62.4259ZM138.711 62.4259C137.483 62.4259 136.396 62.1521 135.451 61.6045C134.505 61.0402 133.758 60.2685 133.21 59.2894C132.679 58.3103 132.414 57.1819 132.414 55.904C132.414 54.6262 132.687 53.4978 133.235 52.5186C133.799 51.5395 134.563 50.7762 135.525 50.2285C136.504 49.6643 137.624 49.3822 138.886 49.3822C139.981 49.3822 140.985 49.6726 141.898 50.2534C142.827 50.8176 143.566 51.6557 144.113 52.7676C144.677 53.8628 144.959 55.1987 144.959 56.7753H135.849C135.932 57.605 136.289 58.2688 136.919 58.7667C137.55 59.2479 138.263 59.4886 139.06 59.4886C139.74 59.4886 140.296 59.3475 140.728 59.0654C141.159 58.7667 141.491 58.385 141.723 57.9203L144.661 59.0654C144.312 59.7624 143.856 60.3681 143.292 60.8826C142.744 61.3804 142.089 61.7621 141.325 62.0276C140.562 62.2931 139.691 62.4259 138.711 62.4259ZM136.023 54.3358H141.4C141.35 53.8214 141.184 53.4065 140.902 53.0912C140.62 52.7759 140.288 52.5435 139.906 52.3942C139.525 52.2448 139.151 52.1701 138.786 52.1701C138.438 52.1701 138.056 52.2448 137.641 52.3942C137.243 52.5269 136.886 52.751 136.571 53.0663C136.272 53.3816 136.089 53.8048 136.023 54.3358ZM155.069 62.4259C153.575 62.4259 152.413 62.094 151.584 61.4302C150.771 60.7664 150.364 59.8288 150.364 58.6173C150.364 57.2897 150.804 56.294 151.683 55.6302C152.579 54.9498 153.832 54.6096 155.442 54.6096H158.379C158.263 53.8462 158.023 53.2654 157.658 52.8671C157.292 52.4523 156.77 52.2448 156.089 52.2448C155.558 52.2448 155.077 52.361 154.645 52.5933C154.214 52.8256 153.849 53.1824 153.55 53.6637L150.663 52.668C150.895 52.137 151.235 51.6225 151.683 51.1247C152.131 50.6102 152.712 50.1953 153.426 49.88C154.156 49.5481 155.044 49.3822 156.089 49.3822C157.35 49.3822 158.396 49.6228 159.226 50.1041C160.072 50.5853 160.694 51.2657 161.093 52.1453C161.508 53.0082 161.707 54.0371 161.69 55.2319L161.615 62.1272H158.554L158.504 60.6834C158.189 61.2477 157.74 61.6791 157.16 61.9778C156.595 62.2766 155.898 62.4259 155.069 62.4259ZM155.616 59.6877C156.147 59.6877 156.629 59.5633 157.06 59.3143C157.492 59.0654 157.832 58.7418 158.081 58.3435C158.33 57.9452 158.454 57.5304 158.454 57.0989V57.0491H156.587C155.508 57.0491 154.762 57.1819 154.347 57.4474C153.932 57.6963 153.724 58.0531 153.724 58.5178C153.724 58.8829 153.89 59.1733 154.222 59.389C154.554 59.5881 155.019 59.6877 155.616 59.6877ZM163.427 62.1272V49.6809H166.513L166.663 51.3736C167.061 50.7264 167.567 50.2368 168.181 49.9049C168.812 49.5564 169.525 49.3822 170.322 49.3822C171.301 49.3822 172.139 49.5813 172.836 49.9796C173.533 50.3779 174.064 51.0002 174.429 51.8465C174.794 52.6763 174.969 53.755 174.952 55.0826V62.1272H171.666V55.7547C171.666 54.9083 171.567 54.2528 171.367 53.7882C171.185 53.3235 170.919 52.9916 170.571 52.7925C170.222 52.5767 169.816 52.4689 169.351 52.4689C168.505 52.4523 167.849 52.7095 167.385 53.2405C166.937 53.7716 166.713 54.5598 166.713 55.6053V62.1272H163.427ZM185.774 62.4259C184.281 62.4259 183.119 62.094 182.289 61.4302C181.476 60.7664 181.07 59.8288 181.07 58.6173C181.07 57.2897 181.509 56.294 182.389 55.6302C183.285 54.9498 184.538 54.6096 186.148 54.6096H189.085C188.969 53.8462 188.728 53.2654 188.363 52.8671C187.998 52.4523 187.475 52.2448 186.795 52.2448C186.264 52.2448 185.783 52.361 185.351 52.5933C184.92 52.8256 184.555 53.1824 184.256 53.6637L181.368 52.668C181.601 52.137 181.941 51.6225 182.389 51.1247C182.837 50.6102 183.418 50.1953 184.131 49.88C184.862 49.5481 185.749 49.3822 186.795 49.3822C188.056 49.3822 189.102 49.6228 189.931 50.1041C190.778 50.5853 191.4 51.2657 191.798 52.1453C192.213 53.0082 192.412 54.0371 192.396 55.2319L192.321 62.1272H189.259L189.209 60.6834C188.894 61.2477 188.446 61.6791 187.865 61.9778C187.301 62.2766 186.604 62.4259 185.774 62.4259ZM186.322 59.6877C186.853 59.6877 187.334 59.5633 187.766 59.3143C188.197 59.0654 188.537 58.7418 188.786 58.3435C189.035 57.9452 189.16 57.5304 189.16 57.0989V57.0491H187.293C186.214 57.0491 185.467 57.1819 185.052 57.4474C184.638 57.6963 184.43 58.0531 184.43 58.5178C184.43 58.8829 184.596 59.1733 184.928 59.389C185.26 59.5881 185.725 59.6877 186.322 59.6877ZM198.563 62.4259C197.567 62.4259 196.721 62.2268 196.024 61.8285C195.344 61.4302 194.821 60.8162 194.456 59.9864C194.091 59.1401 193.908 58.0531 193.908 56.7255V49.6809H197.194V56.0534C197.194 56.8831 197.285 57.5387 197.468 58.0199C197.667 58.4846 197.941 58.8248 198.289 59.0405C198.654 59.2397 199.061 59.3392 199.509 59.3392C200.372 59.3558 201.028 59.0986 201.476 58.5676C201.924 58.0199 202.148 57.2316 202.148 56.2028V49.6809H205.434V62.1272H202.347L202.222 60.4345C201.808 61.0651 201.285 61.5547 200.654 61.9032C200.04 62.2517 199.343 62.4259 198.563 62.4259ZM212.352 62.4259C211.207 62.4259 210.211 62.1604 209.365 61.6293C208.535 61.0983 207.888 60.3432 207.423 59.3641C206.958 58.385 206.726 57.2316 206.726 55.904C206.726 54.5598 206.958 53.4065 207.423 52.444C207.888 51.4649 208.535 50.7098 209.365 50.1787C210.211 49.6477 211.207 49.3822 212.352 49.3822C213.165 49.3822 213.887 49.5564 214.517 49.9049C215.165 50.2368 215.687 50.7181 216.086 51.3487V44.7024H219.371V62.1272H216.26L216.16 60.3847C215.745 61.0319 215.214 61.5381 214.567 61.9032C213.92 62.2517 213.181 62.4259 212.352 62.4259ZM213.198 59.4139C213.746 59.4139 214.227 59.2811 214.642 59.0156C215.073 58.7335 215.413 58.3435 215.662 57.8457C215.911 57.3478 216.052 56.7836 216.086 56.153V55.6551C216.052 55.0245 215.911 54.4686 215.662 53.9873C215.413 53.4895 215.073 53.1078 214.642 52.8422C214.21 52.5601 213.721 52.4191 213.173 52.4191C212.576 52.4191 212.045 52.5684 211.58 52.8671C211.132 53.1493 210.775 53.5558 210.51 54.0869C210.261 54.6179 210.136 55.2236 210.136 55.904C210.136 56.5844 210.269 57.1902 210.535 57.7212C210.8 58.2522 211.157 58.6671 211.605 58.9658C212.07 59.2645 212.601 59.4139 213.198 59.4139ZM221.519 62.1272V49.6809H224.805V62.1272H221.519ZM223.162 47.6646C222.664 47.6646 222.225 47.482 221.843 47.1169C221.461 46.7353 221.27 46.2872 221.27 45.7727C221.27 45.2583 221.461 44.8185 221.843 44.4534C222.225 44.0717 222.664 43.8809 223.162 43.8809C223.677 43.8809 224.116 44.0717 224.482 44.4534C224.863 44.8185 225.054 45.2583 225.054 45.7727C225.054 46.2872 224.863 46.7353 224.482 47.1169C224.116 47.482 223.677 47.6646 223.162 47.6646ZM232.803 62.4259C231.541 62.4259 230.413 62.1521 229.417 61.6045C228.438 61.0402 227.666 60.2685 227.102 59.2894C226.555 58.3103 226.281 57.1819 226.281 55.904C226.281 54.6262 226.555 53.4978 227.102 52.5186C227.65 51.5395 228.413 50.7762 229.392 50.2285C230.371 49.6643 231.492 49.3822 232.753 49.3822C234.031 49.3822 235.159 49.6643 236.138 50.2285C237.117 50.7762 237.881 51.5395 238.428 52.5186C238.976 53.4978 239.25 54.6262 239.25 55.904C239.25 57.1819 238.976 58.3103 238.428 59.2894C237.881 60.2685 237.117 61.0402 236.138 61.6045C235.176 62.1521 234.064 62.4259 232.803 62.4259ZM232.803 59.389C233.417 59.389 233.956 59.2397 234.421 58.9409C234.885 58.6422 235.242 58.2356 235.491 57.7212C235.756 57.1902 235.889 56.5844 235.889 55.904C235.889 55.2236 235.756 54.6262 235.491 54.1118C235.225 53.5807 234.852 53.1658 234.371 52.8671C233.906 52.5684 233.367 52.4191 232.753 52.4191C232.155 52.4191 231.616 52.5684 231.135 52.8671C230.67 53.1658 230.305 53.5807 230.039 54.1118C229.774 54.6262 229.641 55.2236 229.641 55.904C229.641 56.5844 229.774 57.1902 230.039 57.7212C230.305 58.2356 230.678 58.6422 231.16 58.9409C231.641 59.2397 232.189 59.389 232.803 59.389Z" fill="#48D36E"/>
<path d="M105.391 151.581L103.084 118.715L70.6381 126.997L72.9444 159.862" stroke="#48D36E" stroke-width="5.93843" stroke-linecap="round" stroke-linejoin="round"/>
<path d="M97.4731 167.15L100.461 166.941C103.761 166.709 106.249 163.846 106.017 160.546L105.388 151.582L96.4248 152.211C93.1245 152.443 90.637 155.306 90.8685 158.606L91.0782 161.594C91.3098 164.894 94.1728 167.382 97.4731 167.15Z" fill="#48D36E" stroke="#48D36E" stroke-width="5.93843" stroke-linecap="round" stroke-linejoin="round"/>
<path d="M65.0278 175.429L68.0156 175.22C71.3158 174.988 73.8034 172.125 73.5718 168.825L72.9429 159.861L63.9795 160.49C60.6793 160.722 58.1916 163.585 58.4232 166.885L58.6329 169.873C58.8645 173.173 61.7276 175.661 65.0278 175.429Z" fill="#48D36E" stroke="#48D36E" stroke-width="5.93843" stroke-linecap="round" stroke-linejoin="round"/>
<path d="M54.4612 252.599V249.032C54.4612 248.35 54.6731 247.596 55.0969 246.772C55.5207 245.948 56.1093 245.124 56.8627 244.3C57.6162 243.476 58.4991 242.711 59.5115 242.004L63.2551 239.32C63.773 238.967 64.2557 238.567 64.703 238.12C65.1739 237.672 65.5506 237.19 65.8332 236.672C66.1393 236.13 66.2923 235.612 66.2923 235.118C66.2923 234.505 66.1393 233.952 65.8332 233.458C65.5506 232.963 65.1268 232.575 64.5618 232.292C63.9967 232.01 63.3021 231.868 62.4781 231.868C61.7718 231.868 61.1361 232.01 60.571 232.292C60.0295 232.575 59.5821 232.952 59.229 233.422C58.8758 233.893 58.6286 234.4 58.4873 234.941L53.5076 234.093C53.7431 232.916 54.2493 231.821 55.0263 230.809C55.8032 229.797 56.8156 228.984 58.0635 228.372C59.3349 227.736 60.7711 227.419 62.3721 227.419C64.2086 227.419 65.7861 227.748 67.1046 228.407C68.4231 229.067 69.4355 229.973 70.1418 231.127C70.8717 232.257 71.2366 233.575 71.2366 235.082C71.2366 236.613 70.8128 237.978 69.9652 239.179C69.1412 240.356 67.9993 241.463 66.5395 242.499L63.1844 244.936C62.5016 245.407 61.913 245.925 61.4186 246.49C60.9242 247.055 60.5474 247.679 60.2885 248.361H71.5545V252.599H54.4612ZM73.254 256.625L75.4083 248.291H80.2467L76.7856 256.625H73.254ZM87.3049 252.599V233.952C86.4809 234.517 85.6333 234.965 84.7621 235.294C83.891 235.6 82.9963 235.73 82.0781 235.683V231.303C82.6667 231.35 83.3024 231.209 83.9852 230.88C84.6679 230.526 85.339 230.079 85.9982 229.538C86.681 228.973 87.2932 228.419 87.8347 227.878H91.9314V252.599H87.3049ZM98.9472 256.007C98.3392 256.007 97.8005 255.965 97.3312 255.879C96.8619 255.794 96.4672 255.682 96.1472 255.543C95.8272 255.405 95.5659 255.266 95.3632 255.127L96.1952 253.431C96.3445 253.517 96.5419 253.613 96.7872 253.719C97.0325 253.837 97.3259 253.933 97.6672 254.007C98.0085 254.093 98.4032 254.135 98.8512 254.135C99.2779 254.135 99.6512 254.05 99.9712 253.879C100.302 253.719 100.558 253.463 100.739 253.111C100.931 252.77 101.027 252.333 101.027 251.799V251.031C100.761 251.447 100.414 251.778 99.9872 252.023C99.5605 252.258 99.0752 252.375 98.5312 252.375C97.7952 252.375 97.1552 252.215 96.6112 251.895C96.0779 251.575 95.6619 251.127 95.3632 250.551C95.0645 249.975 94.9152 249.293 94.9152 248.503C94.9152 247.671 95.0645 246.951 95.3632 246.343C95.6619 245.725 96.0779 245.25 96.6112 244.919C97.1552 244.578 97.7952 244.407 98.5312 244.407C99.0752 244.407 99.5605 244.535 99.9872 244.791C100.414 245.037 100.761 245.389 101.027 245.847V244.599H103.139V251.735C103.139 252.631 102.969 253.399 102.627 254.039C102.286 254.69 101.801 255.181 101.171 255.511C100.553 255.842 99.8112 256.007 98.9472 256.007ZM99.1392 250.599C99.5019 250.599 99.8165 250.509 100.083 250.327C100.361 250.135 100.574 249.879 100.723 249.559C100.873 249.229 100.947 248.855 100.947 248.439C100.947 248.013 100.867 247.639 100.707 247.319C100.558 246.999 100.345 246.749 100.067 246.567C99.8005 246.386 99.4859 246.295 99.1232 246.295C98.7499 246.295 98.4192 246.386 98.1312 246.567C97.8432 246.749 97.6192 246.999 97.4592 247.319C97.2992 247.639 97.2139 248.013 97.2032 248.439C97.2139 248.855 97.2992 249.229 97.4592 249.559C97.6192 249.879 97.8432 250.135 98.1312 250.327C98.4299 250.509 98.7659 250.599 99.1392 250.599ZM112.253 252.791C111.165 252.791 110.199 252.546 109.357 252.055C108.514 251.554 107.853 250.871 107.373 250.007C106.893 249.133 106.653 248.13 106.653 246.999C106.653 245.869 106.893 244.871 107.373 244.007C107.853 243.133 108.509 242.45 109.341 241.959C110.183 241.458 111.149 241.207 112.237 241.207C113.005 241.207 113.719 241.346 114.381 241.623C115.042 241.89 115.618 242.269 116.109 242.759C116.61 243.239 116.994 243.794 117.261 244.423L115.229 245.175C115.047 244.781 114.807 244.439 114.509 244.151C114.21 243.853 113.869 243.623 113.485 243.463C113.101 243.293 112.685 243.207 112.237 243.207C111.586 243.207 111.005 243.373 110.493 243.703C109.991 244.023 109.597 244.466 109.309 245.031C109.031 245.597 108.893 246.253 108.893 246.999C108.893 247.746 109.037 248.407 109.325 248.983C109.613 249.549 110.013 249.997 110.525 250.327C111.037 250.647 111.623 250.807 112.285 250.807C112.743 250.807 113.159 250.722 113.533 250.551C113.917 250.37 114.253 250.125 114.541 249.815C114.839 249.506 115.079 249.149 115.261 248.743L117.293 249.479C117.026 250.13 116.642 250.706 116.141 251.207C115.65 251.709 115.074 252.098 114.413 252.375C113.751 252.653 113.031 252.791 112.253 252.791ZM123.14 252.791C122.01 252.791 121.007 252.546 120.132 252.055C119.268 251.554 118.591 250.871 118.1 250.007C117.61 249.133 117.364 248.135 117.364 247.015C117.364 245.874 117.61 244.871 118.1 244.007C118.591 243.133 119.263 242.45 120.116 241.959C120.98 241.469 121.972 241.223 123.092 241.223C124.223 241.223 125.215 241.474 126.068 241.975C126.932 242.466 127.61 243.149 128.1 244.023C128.591 244.887 128.836 245.885 128.836 247.015C128.836 248.135 128.591 249.133 128.1 250.007C127.62 250.871 126.948 251.554 126.084 252.055C125.231 252.546 124.25 252.791 123.14 252.791ZM123.14 250.791C123.823 250.791 124.42 250.631 124.932 250.311C125.455 249.981 125.86 249.533 126.148 248.967C126.447 248.402 126.596 247.751 126.596 247.015C126.596 246.269 126.447 245.613 126.148 245.047C125.85 244.482 125.439 244.039 124.916 243.719C124.394 243.389 123.786 243.223 123.092 243.223C122.42 243.223 121.818 243.389 121.284 243.719C120.762 244.039 120.351 244.482 120.052 245.047C119.754 245.613 119.604 246.269 119.604 247.015C119.604 247.751 119.754 248.402 120.052 248.967C120.351 249.533 120.767 249.981 121.3 250.311C121.834 250.631 122.447 250.791 123.14 250.791ZM130.596 253.303L129.044 253.063C129.044 252.893 129.108 252.695 129.236 252.471C129.364 252.237 129.54 252.002 129.764 251.767C129.998 251.533 130.26 251.314 130.548 251.111L131.364 250.551C131.556 250.423 131.742 250.269 131.924 250.087C132.105 249.906 132.196 249.719 132.196 249.527C132.196 249.314 132.121 249.143 131.972 249.015C131.822 248.877 131.598 248.807 131.3 248.807C131.076 248.807 130.884 248.882 130.724 249.031C130.574 249.17 130.473 249.335 130.42 249.527L128.788 249.255C128.852 248.914 128.99 248.605 129.204 248.327C129.428 248.039 129.716 247.805 130.068 247.623C130.43 247.442 130.841 247.351 131.3 247.351C132.078 247.351 132.692 247.554 133.14 247.959C133.588 248.354 133.812 248.871 133.812 249.511C133.812 249.97 133.684 250.359 133.428 250.679C133.182 250.999 132.857 251.298 132.452 251.575L131.636 252.135C131.486 252.242 131.337 252.37 131.188 252.519C131.038 252.658 130.905 252.797 130.788 252.935C130.681 253.085 130.617 253.207 130.596 253.303ZM129.044 254.199V253.063L130.212 252.807H133.892V254.199H129.044ZM138.037 252.791C137.247 252.791 136.549 252.615 135.941 252.263C135.333 251.901 134.853 251.405 134.501 250.775C134.159 250.146 133.989 249.421 133.989 248.599C133.989 247.778 134.165 247.053 134.517 246.423C134.879 245.794 135.37 245.303 135.989 244.951C136.618 244.589 137.338 244.407 138.149 244.407C138.853 244.407 139.498 244.594 140.085 244.967C140.682 245.33 141.157 245.869 141.509 246.583C141.871 247.287 142.053 248.146 142.053 249.159H136.197C136.25 249.693 136.479 250.119 136.885 250.439C137.29 250.749 137.749 250.903 138.261 250.903C138.698 250.903 139.055 250.813 139.333 250.631C139.61 250.439 139.823 250.194 139.973 249.895L141.861 250.631C141.637 251.079 141.343 251.469 140.981 251.799C140.629 252.119 140.207 252.365 139.717 252.535C139.226 252.706 138.666 252.791 138.037 252.791ZM136.309 247.591H139.765C139.733 247.261 139.626 246.994 139.445 246.791C139.263 246.589 139.05 246.439 138.805 246.343C138.559 246.247 138.319 246.199 138.085 246.199C137.861 246.199 137.615 246.247 137.349 246.343C137.093 246.429 136.863 246.573 136.661 246.775C136.469 246.978 136.351 247.25 136.309 247.591Z" fill="#48D36E"/>
<path d="M158.289 241.366V236.817H180.755V241.366H158.289ZM158.289 252.599V248.05H180.755V252.599H158.289Z" fill="#48D36E"/>
<path d="M207.199 176.234L206.877 172.751C205.635 159.287 215.542 147.365 229.006 146.122C242.47 144.879 254.392 154.786 255.635 168.25L255.957 171.733" stroke="#48D36E" stroke-width="7.01539" stroke-linecap="round"/>
<path d="M247.063 151.483C246.175 141.866 253.251 133.35 262.869 132.462C272.486 131.574 281.002 138.651 281.89 148.268L282.05 150.01" stroke="#48D36E" stroke-width="7.01539" stroke-linecap="round"/>
<path d="M229.005 146.124C236.698 145.414 242.36 138.601 241.65 130.907C240.939 123.213 234.126 117.552 226.433 118.262C218.739 118.973 213.078 125.785 213.788 133.479C214.498 141.173 221.311 146.834 229.005 146.124Z" stroke="#48D36E" stroke-width="7.01539" stroke-linecap="round" stroke-linejoin="round"/>
<path d="M262.869 132.46C268.64 131.927 272.886 126.818 272.353 121.047C271.82 115.277 266.711 111.031 260.94 111.564C255.17 112.097 250.924 117.206 251.457 122.976C251.989 128.747 257.099 132.993 262.869 132.46Z" stroke="#48D36E" stroke-width="7.01539" stroke-linecap="round" stroke-linejoin="round"/>
<path d="M201.51 225.898C200.116 225.898 198.93 225.699 197.951 225.301C196.971 224.886 196.225 224.322 195.71 223.608C195.212 222.878 194.963 222.031 194.963 221.069C194.963 220.023 195.221 219.111 195.735 218.331C196.266 217.534 197.021 216.92 198 216.489C197.204 216.107 196.59 215.584 196.158 214.92C195.743 214.24 195.536 213.468 195.536 212.605C195.536 211.676 195.768 210.855 196.233 210.141C196.714 209.427 197.403 208.872 198.299 208.473C199.195 208.075 200.266 207.876 201.51 207.876C202.771 207.876 203.85 208.075 204.746 208.473C205.642 208.872 206.331 209.427 206.812 210.141C207.294 210.855 207.534 211.676 207.534 212.605C207.534 213.468 207.319 214.24 206.887 214.92C206.456 215.584 205.842 216.107 205.045 216.489C206.024 216.92 206.779 217.534 207.31 218.331C207.841 219.111 208.107 220.023 208.107 221.069C208.107 222.031 207.85 222.878 207.335 223.608C206.821 224.322 206.074 224.886 205.095 225.301C204.116 225.699 202.921 225.898 201.51 225.898ZM201.51 223.06C202.423 223.06 203.17 222.836 203.751 222.388C204.331 221.924 204.622 221.334 204.622 220.621C204.622 219.841 204.331 219.21 203.751 218.729C203.17 218.248 202.423 218.007 201.51 218.007C200.913 218.007 200.382 218.115 199.917 218.331C199.469 218.546 199.112 218.853 198.847 219.252C198.581 219.65 198.448 220.106 198.448 220.621C198.448 221.102 198.581 221.525 198.847 221.89C199.112 222.255 199.469 222.546 199.917 222.762C200.382 222.961 200.913 223.06 201.51 223.06ZM201.51 215.294C202.307 215.294 202.954 215.078 203.452 214.647C203.966 214.215 204.224 213.667 204.224 213.004C204.224 212.29 203.966 211.718 203.452 211.286C202.954 210.838 202.307 210.614 201.51 210.614C200.73 210.614 200.091 210.838 199.593 211.286C199.096 211.718 198.847 212.29 198.847 213.004C198.847 213.667 199.096 214.215 199.593 214.647C200.091 215.078 200.73 215.294 201.51 215.294ZM214.746 225.599V213.153H217.832L217.982 214.771C218.363 214.14 218.853 213.667 219.45 213.352C220.048 213.02 220.712 212.854 221.442 212.854C222.454 212.854 223.301 213.07 223.981 213.502C224.678 213.933 225.184 214.597 225.499 215.493C225.864 214.647 226.379 213.999 227.043 213.551C227.707 213.087 228.478 212.854 229.358 212.854C230.818 212.854 231.93 213.319 232.693 214.248C233.457 215.161 233.838 216.572 233.838 218.48V225.599H230.553V219.227C230.553 218.381 230.461 217.725 230.279 217.26C230.096 216.796 229.847 216.464 229.532 216.265C229.217 216.049 228.843 215.941 228.412 215.941C227.615 215.924 227.001 216.182 226.57 216.713C226.138 217.244 225.923 218.032 225.923 219.077V225.599H222.637V219.227C222.637 218.381 222.545 217.725 222.363 217.26C222.197 216.796 221.948 216.464 221.616 216.265C221.301 216.049 220.927 215.941 220.496 215.941C219.699 215.924 219.085 216.182 218.654 216.713C218.239 217.244 218.032 218.032 218.032 219.077V225.599H214.746ZM235.771 225.599V213.153H239.057V225.599H235.771ZM237.414 211.137C236.916 211.137 236.476 210.954 236.094 210.589C235.713 210.207 235.522 209.759 235.522 209.245C235.522 208.73 235.713 208.291 236.094 207.926C236.476 207.544 236.916 207.353 237.414 207.353C237.928 207.353 238.368 207.544 238.733 207.926C239.115 208.291 239.306 208.73 239.306 209.245C239.306 209.759 239.115 210.207 238.733 210.589C238.368 210.954 237.928 211.137 237.414 211.137ZM241.204 225.599V213.153H244.291L244.44 214.846C244.839 214.199 245.345 213.709 245.959 213.377C246.589 213.029 247.303 212.854 248.1 212.854C249.079 212.854 249.917 213.053 250.614 213.452C251.311 213.85 251.842 214.472 252.207 215.319C252.572 216.148 252.746 217.227 252.73 218.555V225.599H249.444V219.227C249.444 218.381 249.344 217.725 249.145 217.26C248.963 216.796 248.697 216.464 248.349 216.265C248 216.049 247.593 215.941 247.129 215.941C246.282 215.924 245.627 216.182 245.162 216.713C244.714 217.244 244.49 218.032 244.49 219.077V225.599H241.204ZM258.901 225.898C257.905 225.898 257.059 225.699 256.362 225.301C255.682 224.902 255.159 224.288 254.794 223.459C254.429 222.612 254.246 221.525 254.246 220.198V213.153H257.532V219.526C257.532 220.355 257.623 221.011 257.806 221.492C258.005 221.957 258.279 222.297 258.627 222.513C258.992 222.712 259.399 222.811 259.847 222.811C260.71 222.828 261.365 222.571 261.813 222.04C262.261 221.492 262.486 220.704 262.486 219.675V213.153H265.771V225.599H262.685L262.56 223.907C262.145 224.537 261.623 225.027 260.992 225.375C260.378 225.724 259.681 225.898 258.901 225.898ZM272.864 225.898C271.486 225.898 270.441 225.558 269.727 224.877C269.03 224.197 268.682 223.226 268.682 221.965V215.941H266.665V213.153H268.682V209.27H271.968V213.153H275.079V215.941H271.968V221.243C271.968 221.774 272.084 222.181 272.316 222.463C272.548 222.728 272.889 222.861 273.337 222.861C273.503 222.861 273.685 222.828 273.884 222.762C274.083 222.679 274.291 222.562 274.507 222.413L275.652 224.877C275.253 225.176 274.805 225.417 274.307 225.599C273.826 225.799 273.345 225.898 272.864 225.898ZM282.276 225.898C281.048 225.898 279.961 225.624 279.015 225.077C278.069 224.512 277.322 223.741 276.775 222.762C276.244 221.782 275.978 220.654 275.978 219.376C275.978 218.098 276.252 216.97 276.8 215.991C277.364 215.012 278.127 214.248 279.09 213.701C280.069 213.136 281.189 212.854 282.45 212.854C283.546 212.854 284.55 213.145 285.462 213.726C286.392 214.29 287.13 215.128 287.678 216.24C288.242 217.335 288.524 218.671 288.524 220.247H279.413C279.496 221.077 279.853 221.741 280.484 222.239C281.114 222.72 281.828 222.961 282.624 222.961C283.305 222.961 283.861 222.82 284.292 222.538C284.724 222.239 285.056 221.857 285.288 221.393L288.225 222.538C287.877 223.235 287.42 223.84 286.856 224.355C286.309 224.853 285.653 225.234 284.89 225.5C284.126 225.765 283.255 225.898 282.276 225.898ZM279.588 217.808H284.964C284.915 217.294 284.749 216.879 284.467 216.563C284.184 216.248 283.853 216.016 283.471 215.866C283.089 215.717 282.716 215.642 282.351 215.642C282.002 215.642 281.62 215.717 281.206 215.866C280.807 215.999 280.451 216.223 280.135 216.538C279.836 216.854 279.654 217.277 279.588 217.808ZM294.206 225.898C293.41 225.898 292.663 225.782 291.966 225.55C291.269 225.301 290.655 224.952 290.124 224.504C289.593 224.039 289.178 223.475 288.879 222.811L291.692 221.517C291.941 221.915 292.281 222.264 292.713 222.562C293.144 222.845 293.642 222.986 294.206 222.986C294.754 222.986 295.177 222.911 295.476 222.762C295.775 222.596 295.924 222.363 295.924 222.065C295.924 221.766 295.799 221.55 295.55 221.417C295.318 221.268 294.995 221.144 294.58 221.044L293.435 220.745C292.24 220.43 291.294 219.932 290.597 219.252C289.916 218.555 289.576 217.758 289.576 216.862C289.576 215.584 289.983 214.597 290.796 213.9C291.626 213.203 292.796 212.854 294.306 212.854C295.086 212.854 295.808 212.971 296.472 213.203C297.152 213.435 297.733 213.759 298.214 214.174C298.695 214.589 299.027 215.07 299.21 215.617L296.496 216.862C296.38 216.53 296.098 216.265 295.65 216.065C295.202 215.85 294.754 215.742 294.306 215.742C293.858 215.742 293.509 215.841 293.26 216.041C293.028 216.223 292.912 216.48 292.912 216.812C292.912 217.028 293.028 217.211 293.26 217.36C293.493 217.493 293.825 217.609 294.256 217.708L295.874 218.107C296.687 218.306 297.334 218.629 297.816 219.077C298.314 219.509 298.67 219.999 298.886 220.546C299.118 221.077 299.235 221.6 299.235 222.114C299.235 222.861 299.011 223.525 298.562 224.106C298.131 224.67 297.534 225.11 296.77 225.425C296.023 225.74 295.169 225.898 294.206 225.898ZM311.164 225.898C309.902 225.898 308.774 225.624 307.778 225.077C306.799 224.512 306.027 223.741 305.463 222.762C304.916 221.782 304.642 220.654 304.642 219.376C304.642 218.098 304.916 216.97 305.463 215.991C306.011 215.012 306.774 214.248 307.753 213.701C308.732 213.136 309.853 212.854 311.114 212.854C312.392 212.854 313.52 213.136 314.499 213.701C315.478 214.248 316.242 215.012 316.789 215.991C317.337 216.97 317.611 218.098 317.611 219.376C317.611 220.654 317.337 221.782 316.789 222.762C316.242 223.741 315.478 224.512 314.499 225.077C313.537 225.624 312.425 225.898 311.164 225.898ZM311.164 222.861C311.778 222.861 312.317 222.712 312.782 222.413C313.246 222.114 313.603 221.708 313.852 221.193C314.118 220.662 314.25 220.057 314.25 219.376C314.25 218.696 314.118 218.098 313.852 217.584C313.587 217.053 313.213 216.638 312.732 216.339C312.267 216.041 311.728 215.891 311.114 215.891C310.516 215.891 309.977 216.041 309.496 216.339C309.031 216.638 308.666 217.053 308.401 217.584C308.135 218.098 308.002 218.696 308.002 219.376C308.002 220.057 308.135 220.662 308.401 221.193C308.666 221.708 309.039 222.114 309.521 222.413C310.002 222.712 310.55 222.861 311.164 222.861ZM320.14 225.599V215.792H318.074V213.153H320.14V211.908C320.14 210.581 320.48 209.552 321.161 208.822C321.841 208.075 322.878 207.702 324.272 207.702C324.754 207.702 325.26 207.785 325.791 207.95C326.339 208.116 326.836 208.316 327.284 208.548L326.065 210.913C325.799 210.78 325.559 210.68 325.343 210.614C325.127 210.548 324.928 210.514 324.745 210.514C324.297 210.514 323.965 210.672 323.75 210.987C323.534 211.286 323.426 211.776 323.426 212.456V213.153H326.488V215.792H323.426V225.599H320.14ZM199.195 252.599L194.092 240.153H197.478L200.838 248.841L204.199 240.153H207.584L202.481 252.599H199.195ZM208.486 252.599V240.153H211.772V252.599H208.486ZM210.129 238.137C209.631 238.137 209.191 237.954 208.809 237.589C208.428 237.207 208.237 236.759 208.237 236.245C208.237 235.73 208.428 235.291 208.809 234.926C209.191 234.544 209.631 234.353 210.129 234.353C210.643 234.353 211.083 234.544 211.448 234.926C211.83 235.291 212.02 235.73 212.02 236.245C212.02 236.759 211.83 237.207 211.448 237.589C211.083 237.954 210.643 238.137 210.129 238.137ZM218.873 252.898C217.728 252.898 216.732 252.633 215.886 252.102C215.056 251.57 214.409 250.815 213.944 249.836C213.479 248.857 213.247 247.704 213.247 246.376C213.247 245.032 213.479 243.879 213.944 242.916C214.409 241.937 215.056 241.182 215.886 240.651C216.732 240.12 217.728 239.854 218.873 239.854C219.686 239.854 220.408 240.029 221.039 240.377C221.686 240.709 222.208 241.19 222.607 241.821V235.175H225.893V252.599H222.781L222.681 250.857C222.267 251.504 221.736 252.01 221.088 252.375C220.441 252.724 219.703 252.898 218.873 252.898ZM219.719 249.886C220.267 249.886 220.748 249.753 221.163 249.488C221.594 249.206 221.935 248.816 222.184 248.318C222.433 247.82 222.574 247.256 222.607 246.625V246.127C222.574 245.497 222.433 244.941 222.184 244.459C221.935 243.962 221.594 243.58 221.163 243.314C220.732 243.032 220.242 242.891 219.694 242.891C219.097 242.891 218.566 243.041 218.101 243.339C217.653 243.621 217.296 244.028 217.031 244.559C216.782 245.09 216.657 245.696 216.657 246.376C216.657 247.057 216.79 247.662 217.056 248.193C217.321 248.724 217.678 249.139 218.126 249.438C218.591 249.737 219.122 249.886 219.719 249.886ZM233.467 252.898C232.239 252.898 231.152 252.624 230.206 252.077C229.26 251.512 228.513 250.741 227.966 249.762C227.435 248.782 227.169 247.654 227.169 246.376C227.169 245.098 227.443 243.97 227.991 242.991C228.555 242.012 229.318 241.248 230.281 240.701C231.26 240.136 232.38 239.854 233.641 239.854C234.737 239.854 235.741 240.145 236.653 240.726C237.583 241.29 238.321 242.128 238.869 243.24C239.433 244.335 239.715 245.671 239.715 247.247H230.604C230.687 248.077 231.044 248.741 231.675 249.239C232.305 249.72 233.019 249.961 233.816 249.961C234.496 249.961 235.052 249.82 235.483 249.538C235.915 249.239 236.247 248.857 236.479 248.393L239.416 249.538C239.068 250.235 238.612 250.84 238.047 251.355C237.5 251.853 236.844 252.234 236.081 252.5C235.317 252.765 234.446 252.898 233.467 252.898ZM230.779 244.808H236.155C236.106 244.294 235.94 243.879 235.658 243.563C235.376 243.248 235.044 243.016 234.662 242.866C234.28 242.717 233.907 242.642 233.542 242.642C233.193 242.642 232.812 242.717 232.397 242.866C231.998 242.999 231.642 243.223 231.326 243.538C231.028 243.854 230.845 244.277 230.779 244.808ZM246.592 252.898C245.331 252.898 244.203 252.624 243.207 252.077C242.228 251.512 241.456 250.741 240.892 249.762C240.344 248.782 240.07 247.654 240.07 246.376C240.07 245.098 240.344 243.97 240.892 242.991C241.439 242.012 242.203 241.248 243.182 240.701C244.161 240.136 245.281 239.854 246.542 239.854C247.82 239.854 248.949 240.136 249.928 240.701C250.907 241.248 251.67 242.012 252.218 242.991C252.766 243.97 253.039 245.098 253.039 246.376C253.039 247.654 252.766 248.782 252.218 249.762C251.67 250.741 250.907 251.512 249.928 252.077C248.965 252.624 247.853 252.898 246.592 252.898ZM246.592 249.861C247.206 249.861 247.746 249.712 248.21 249.413C248.675 249.114 249.032 248.708 249.281 248.193C249.546 247.662 249.679 247.057 249.679 246.376C249.679 245.696 249.546 245.098 249.281 244.584C249.015 244.053 248.642 243.638 248.16 243.339C247.696 243.041 247.156 242.891 246.542 242.891C245.945 242.891 245.406 243.041 244.924 243.339C244.46 243.638 244.095 244.053 243.829 244.584C243.564 245.098 243.431 245.696 243.431 246.376C243.431 247.057 243.564 247.662 243.829 248.193C244.095 248.708 244.468 249.114 244.949 249.413C245.431 249.712 245.978 249.861 246.592 249.861ZM265.373 252.898C264.078 252.898 262.925 252.624 261.913 252.077C260.9 251.512 260.112 250.741 259.548 249.762C258.983 248.766 258.701 247.637 258.701 246.376C258.701 245.098 258.983 243.97 259.548 242.991C260.112 242.012 260.892 241.248 261.888 240.701C262.883 240.136 264.028 239.854 265.323 239.854C266.567 239.854 267.704 240.161 268.733 240.775C269.762 241.389 270.509 242.277 270.973 243.439L267.887 244.534C267.654 244.053 267.289 243.671 266.791 243.389C266.31 243.09 265.771 242.941 265.173 242.941C264.559 242.941 264.02 243.09 263.555 243.389C263.091 243.671 262.726 244.069 262.46 244.584C262.195 245.098 262.062 245.696 262.062 246.376C262.062 247.057 262.195 247.654 262.46 248.168C262.726 248.666 263.099 249.065 263.58 249.363C264.062 249.662 264.609 249.811 265.223 249.811C265.821 249.811 266.36 249.654 266.841 249.338C267.339 249.023 267.704 248.608 267.937 248.094L271.048 249.189C270.567 250.367 269.812 251.28 268.783 251.927C267.771 252.574 266.634 252.898 265.373 252.898ZM276.113 252.898C274.619 252.898 273.458 252.566 272.628 251.902C271.815 251.239 271.408 250.301 271.408 249.09C271.408 247.762 271.848 246.766 272.727 246.102C273.623 245.422 274.876 245.082 276.486 245.082H279.423C279.307 244.318 279.067 243.738 278.702 243.339C278.336 242.924 277.814 242.717 277.133 242.717C276.602 242.717 276.121 242.833 275.69 243.065C275.258 243.298 274.893 243.655 274.594 244.136L271.707 243.14C271.939 242.609 272.279 242.095 272.727 241.597C273.175 241.082 273.756 240.667 274.47 240.352C275.2 240.02 276.088 239.854 277.133 239.854C278.395 239.854 279.44 240.095 280.27 240.576C281.116 241.057 281.738 241.738 282.137 242.617C282.552 243.48 282.751 244.509 282.734 245.704L282.659 252.599H279.598L279.548 251.156C279.233 251.72 278.785 252.151 278.204 252.45C277.639 252.749 276.942 252.898 276.113 252.898ZM276.66 250.16C277.191 250.16 277.673 250.035 278.104 249.786C278.536 249.538 278.876 249.214 279.125 248.816C279.374 248.417 279.498 248.003 279.498 247.571V247.521H277.631C276.552 247.521 275.806 247.654 275.391 247.92C274.976 248.168 274.769 248.525 274.769 248.99C274.769 249.355 274.934 249.645 275.266 249.861C275.598 250.06 276.063 250.16 276.66 250.16ZM284.471 252.599V235.175H287.757V252.599H284.471ZM289.714 252.599V235.175H293V252.599H289.714Z" fill="#48D36E"/>
</svg>
