<svg xmlns="http://www.w3.org/2000/svg" width="600" height="375" fill="none" viewBox="0 0 600 375"><rect width="596.995" height="371.359" x="1.41" y="1.41" stroke="#8fce79" stroke-width="2.82" rx="6.111"/><path fill="#8fce79" d="M483.133 45.127 278.562 75.264l18.979 129.766 204.571-30.137zM399.146 185.31l-91.483-48.007 73.878-72.368 91.483 48.007z"/><path fill="#8fce79" d="M358.46 101.25c25.568 3.646 50.131 14.113 70.449 30.09.614-3.841.636-7.857.043-11.912-3.159-21.6-23.2-36.571-44.808-33.388-10.613 1.564-19.663 7.258-25.684 15.21m-4.992 8.678a39.57 39.57 0 0 0-2.63 21.015c3.159 21.601 23.2 36.572 44.808 33.388 14.023-2.066 25.217-11.259 30.492-23.418-20.7-17.099-46.013-27.934-72.67-30.985m-214.834 74.648v-29.289h-2.911v32.212h20.574a10 10 0 0 1-.111-1.476c0-.503.044-.972.111-1.458h-17.663zm-29.208 5.996v-35.285h-2.928v35.285a8.3 8.3 0 0 1 2.928 0"/><path fill="#8fce79" stroke="#000" stroke-width="8.502" d="M94.425 74.893c12.939 0 24.887 6.582 31.504 17.389h.064c14.438 0 26.977 10.223 29.43 23.963 10.803.612 19.606 9.3 19.606 20.183v10.853l-2.026-2.19a20.1 20.1 0 0 1-4.099 5.613l-.033.031a21.4 21.4 0 0 1-8.659 4.997l-.026.008-.028.008c-.606.17-1.251.329-1.927.457-1.33.252-2.694.377-4.049.377H68.457c-7.553 0-14.445-2.938-19.438-7.754-5.025-4.83-8.143-11.746-8.143-18.933 0-7.154 2.898-13.905 8.11-18.929a27 27 0 0 1 9.195-5.853c2.627-17.469 18.02-30.22 36.244-30.22Z"/><path fill="#8fce79" d="M110.282 193.831a5.9 5.9 0 0 0-2.325-.469c-.798 0-1.601.173-2.343.469a5.9 5.9 0 0 0-3.497 5.383c0 .816.173 1.587.458 2.275a5.87 5.87 0 0 0 3.112 3.135 6 6 0 0 0 2.27.442 6.4 6.4 0 0 0 2.27-.442 5.86 5.86 0 0 0 3.112-3.135 5.7 5.7 0 0 0 .457-2.275q.001-.426-.056-.861a5.9 5.9 0 0 0-3.458-4.522M51.83 180.239a9 9 0 0 0-.86-.056 5.9 5.9 0 0 0-2.27.458 5.98 5.98 0 0 0-3.129 3.119 6.1 6.1 0 0 0-.44 2.275c0 .799.173 1.587.44 2.275a5.94 5.94 0 0 0 3.13 3.135 6 6 0 0 0 2.27.442 5.88 5.88 0 0 0 5.37-3.521 6 6 0 0 0 .469-2.331c0-.799-.173-1.604-.469-2.348a5.92 5.92 0 0 0-4.512-3.448m115.384.402a5.7 5.7 0 0 0-2.27-.458c-2.315 0-4.428 1.386-5.371 3.521a6 6 0 0 0-.468 2.331c0 .799.172 1.604.468 2.358.825 1.845 2.543 3.147 4.512 3.432a6.25 6.25 0 0 0 3.129-.385 5.95 5.95 0 0 0 3.129-3.136 6 6 0 0 0 .441-2.275c0-.799-.173-1.576-.441-2.275a5.95 5.95 0 0 0-3.129-3.118zm-89.938 3.935H59.61a9.6 9.6 0 0 1 0 2.934h20.575v-32.211h-2.911v29.288zm136.314-47.588v-7.597h37.513v7.597zm0 18.756v-7.596h37.513v7.596zM47.925 256.149V235.09h6.649q2.166 0 3.7.662t2.377 1.955q.842 1.264.842 3.099 0 1.534-.692 2.708-.692 1.142-1.955 1.865 1.565.752 2.406 2.015.873 1.264.873 3.009 0 1.835-.812 3.129-.813 1.263-2.317 1.955-1.474.662-3.55.662zm2.527-2.286h4.874q1.985 0 3.098-.933 1.144-.963 1.144-2.617 0-1.775-1.294-2.768-1.294-1.023-3.61-1.023h-4.212zm0-9.537h4.753q1.746 0 2.738-.933.993-.933.993-2.587 0-1.715-1.173-2.617-1.144-.933-3.25-.933h-4.061zm15.69 18.201q-.57 0-1.323-.241-.752-.21-1.595-.571l.903-2.016q.692.301 1.203.451.541.151.843.151.812 0 1.323-.451.542-.421.903-1.234l1.023-2.527-6.468-14.982h2.557l5.114 12.184 5.055-12.184h2.587l-7.22 17.148a15 15 0 0 1-1.204 2.287q-.601.962-1.474 1.474-.873.511-2.226.511m19.853-6.378v-2.106q0-.992.391-1.955a8.7 8.7 0 0 1 1.173-1.956 11 11 0 0 1 1.896-1.805l4.362-3.279a6.6 6.6 0 0 0 1.354-1.234q.601-.721.932-1.474.331-.782.331-1.504 0-1.053-.511-1.895a3.7 3.7 0 0 0-1.444-1.384q-.933-.512-2.196-.512-1.234 0-2.166.482a4.2 4.2 0 0 0-1.535 1.233 4.9 4.9 0 0 0-.872 1.625l-2.587-.512a6.9 6.9 0 0 1 1.293-2.527q.963-1.173 2.437-1.895 1.474-.723 3.28-.722 2.105 0 3.64.812 1.534.783 2.376 2.166.873 1.354.873 3.099 0 1.655-.903 3.129t-2.617 2.858l-4.122 3.129q-1.203.902-1.865 1.895-.632.993-.722 2.076h10.53v2.256zm23.882.361q-2.408 0-4.272-1.384-1.866-1.413-2.919-3.851-1.053-2.466-1.053-5.656 0-3.188 1.053-5.625 1.053-2.468 2.889-3.851 1.865-1.414 4.302-1.414t4.272 1.414q1.865 1.383 2.918 3.851 1.083 2.437 1.083 5.625 0 3.19-1.053 5.656-1.053 2.438-2.918 3.851-1.866 1.384-4.302 1.384m0-2.286q1.685 0 2.978-1.113 1.324-1.113 2.046-3.039.752-1.926.752-4.453 0-2.526-.752-4.452-.722-1.956-2.046-3.039-1.293-1.113-2.978-1.113-1.684 0-2.979 1.113-1.293 1.083-2.045 3.039-.723 1.926-.723 4.452 0 2.527.723 4.453.752 1.926 2.045 3.039 1.325 1.113 2.979 1.113m16.903 2.286q-1.535 0-2.798-.451a7.6 7.6 0 0 1-2.136-1.234q-.873-.751-1.384-1.594l2.106-1.173q.33.42.812.962.511.512 1.294.873.782.36 1.925.361 2.046 0 3.279-1.173t1.234-2.949q0-1.353-.752-2.286-.723-.933-2.106-1.414-1.385-.482-3.309-.482h-.572v-2.166h.572q2.586 0 4.091-.872 1.534-.903 1.534-2.557 0-.903-.481-1.655-.481-.782-1.414-1.233-.903-.482-2.106-.482-.812 0-1.534.241-.693.21-1.294.662a5 5 0 0 0-1.053 1.083l-1.985-1.143a6.2 6.2 0 0 1 1.444-1.625 7.1 7.1 0 0 1 2.045-1.083 7.7 7.7 0 0 1 2.497-.391q1.836 0 3.28.722 1.474.722 2.316 1.985.843 1.234.843 2.798 0 1.595-.903 2.768-.903 1.143-2.467 1.835 1.805.783 2.828 2.166 1.053 1.354 1.053 3.31 0 1.864-.933 3.279-.902 1.385-2.467 2.166-1.564.752-3.459.752m17.063 0q-2.407 0-4.272-1.384-1.866-1.413-2.919-3.851-1.052-2.466-1.052-5.656 0-3.188 1.052-5.625 1.053-2.468 2.889-3.851 1.865-1.414 4.302-1.414t4.272 1.414q1.865 1.383 2.918 3.851 1.083 2.437 1.083 5.625 0 3.19-1.053 5.656-1.053 2.438-2.918 3.851-1.866 1.384-4.302 1.384m0-2.286q1.685 0 2.978-1.113 1.325-1.113 2.046-3.039.752-1.926.752-4.453 0-2.526-.752-4.452-.721-1.956-2.046-3.039-1.293-1.113-2.978-1.113-1.684 0-2.979 1.113-1.293 1.083-2.045 3.039-.722 1.926-.722 4.452 0 2.527.722 4.453.752 1.926 2.045 3.039 1.325 1.113 2.979 1.113m10.013 5.385 1.715-6.348h2.708l-2.347 6.348zm11.616-3.46 8.574-21.059h2.648l8.574 21.059h-2.678l-2.437-5.987h-9.536l-2.437 5.987zm6.017-8.273h7.762l-3.881-9.597zm16.035 8.273V235.09h2.557v21.059zm19.946.361q-2.227 0-3.941-.993a7.2 7.2 0 0 1-2.678-2.797q-.963-1.776-.963-4.092t.933-4.092a7 7 0 0 1 2.677-2.767q1.716-1.023 3.911-1.023 2.167 0 3.881.993a6.53 6.53 0 0 1 2.618 2.797l-2.196.993a4.36 4.36 0 0 0-1.745-1.865q-1.144-.692-2.618-.692t-2.617.722q-1.113.722-1.775 2.016-.632 1.263-.632 2.918t.632 2.948q.662 1.264 1.805 1.986 1.173.722 2.647.722 1.475 0 2.618-.752 1.173-.753 1.775-2.106l2.196.993q-.903 1.925-2.617 3.008-1.715 1.083-3.911 1.083m15.38 0q-2.196 0-3.911-.993a7.25 7.25 0 0 1-2.647-2.797q-.963-1.776-.963-4.092t.932-4.092q.963-1.774 2.648-2.767 1.715-1.023 3.881-1.023 2.226 0 3.911 1.023a6.77 6.77 0 0 1 2.647 2.767q.963 1.776.963 4.092t-.963 4.092a7.03 7.03 0 0 1-2.617 2.797q-1.685.993-3.881.993m0-2.226q1.504 0 2.617-.722 1.114-.721 1.745-1.986.662-1.263.662-2.948t-.662-2.948a4.87 4.87 0 0 0-1.775-1.986q-1.143-.722-2.647-.722-1.474 0-2.617.722-1.114.722-1.775 1.986-.632 1.263-.632 2.948 0 1.655.632 2.948.661 1.264 1.805 1.986 1.173.722 2.647.722m15.412 2.226q-1.745 0-3.068-.692-1.294-.721-2.046-2.256-.722-1.565-.722-4.031v-8.424h2.407v7.701q0 2.227.511 3.4.512 1.173 1.414 1.625.933.42 2.076.421 1.956 0 3.039-1.414 1.113-1.415 1.113-3.941v-7.792h2.407v15.042h-2.257l-.12-2.256q-.752 1.263-1.956 1.955-1.203.663-2.798.662m10.495-.361V235.09h2.407v21.059zm11.702.361q-2.017 0-3.55-.993-1.535-.992-2.407-2.767-.843-1.806-.843-4.122 0-2.346.843-4.122.872-1.775 2.407-2.767 1.534-.993 3.55-.993 1.654 0 2.948.782a5.8 5.8 0 0 1 2.136 2.106v-8.544h2.407v21.059h-2.287l-.12-2.557a6.05 6.05 0 0 1-2.136 2.136q-1.294.782-2.948.782m.541-2.196q1.324 0 2.317-.692 1.023-.722 1.594-1.986.602-1.293.632-2.888v-.21q-.03-1.625-.632-2.888-.571-1.294-1.594-1.986-1.024-.722-2.347-.722-1.414 0-2.527.722-1.113.721-1.745 2.016-.602 1.293-.602 2.948t.632 2.948 1.745 2.016 2.527.722m24.412 2.196q-1.655 0-2.948-.782a6.4 6.4 0 0 1-2.136-2.136l-.12 2.557h-2.287V235.09h2.407v8.544q.843-1.355 2.136-2.106 1.293-.782 2.948-.782 2.016 0 3.55.993 1.534.992 2.377 2.767.873 1.776.873 4.122 0 2.316-.873 4.122-.843 1.775-2.377 2.767-1.534.993-3.55.993m-.541-2.196q1.413 0 2.497-.722 1.113-.721 1.745-2.016.662-1.293.662-2.948t-.632-2.948q-.602-1.294-1.715-2.016t-2.527-.722q-1.324 0-2.377.722-1.023.721-1.624 2.016-.572 1.293-.572 2.948t.572 2.948q.601 1.294 1.624 2.016t2.347.722m16.431 2.196q-2.196 0-3.881-.993a7.26 7.26 0 0 1-2.648-2.797q-.932-1.776-.932-4.092t.932-4.092q.963-1.774 2.618-2.767 1.685-1.023 3.851-1.023 2.106 0 3.64 1.053 1.534 1.023 2.377 2.888t.842 4.392h-11.823q.15 2.467 1.564 3.851t3.58 1.384q1.595 0 2.678-.752a5 5 0 0 0 1.715-1.986l2.075 1.053a6.7 6.7 0 0 1-1.534 2.046 6.6 6.6 0 0 1-2.226 1.354q-1.264.481-2.828.481m-4.844-9.446h9.056q-.09-1.294-.692-2.227a4 4 0 0 0-1.504-1.444q-.933-.511-2.106-.511-1.144 0-2.197.511a4.34 4.34 0 0 0-1.744 1.444q-.693.933-.813 2.227m25.885 9.446q-1.745 0-3.068-.692-1.295-.721-2.046-2.256-.722-1.565-.722-4.031v-8.424h2.407v7.701q0 2.227.511 3.4.512 1.173 1.414 1.625.933.42 2.076.421 1.956 0 3.039-1.414 1.113-1.415 1.113-3.941v-7.792h2.407v15.042h-2.257l-.12-2.256q-.752 1.263-1.956 1.955-1.203.663-2.798.662m15.76 0q-1.655 0-2.888-.481-1.233-.511-2.076-1.324-.812-.812-1.173-1.775l2.106-.872a4.05 4.05 0 0 0 1.534 1.654 4.2 4.2 0 0 0 2.256.632q1.414 0 2.377-.541.963-.573.963-1.595 0-.933-.722-1.504-.693-.571-2.076-.933l-1.444-.391q-2.046-.541-3.189-1.624-1.143-1.114-1.143-2.498 0-2.136 1.384-3.309 1.413-1.203 4.181-1.203 1.324 0 2.407.391a5.4 5.4 0 0 1 1.865 1.113 4.1 4.1 0 0 1 1.144 1.655l-2.106.932q-.391-1.023-1.294-1.474t-2.196-.451q-1.384 0-2.166.602-.783.571-.783 1.624 0 .602.632 1.143.662.512 1.926.843l1.504.391q1.474.362 2.467 1.083.993.692 1.504 1.594.512.903.512 1.926 0 1.354-.722 2.346-.723.993-1.956 1.535-1.233.511-2.828.511m8.064-.361v-15.042h2.407v15.042zm1.233-18.532q-.601 0-1.053-.451a1.45 1.45 0 0 1-.451-1.053q0-.631.451-1.053a1.44 1.44 0 0 1 1.053-.452q.633 0 1.053.452.452.422.452 1.053 0 .602-.452 1.053-.42.451-1.053.451m4.773 18.532v-15.042h2.257l.12 2.256q.752-1.263 1.955-1.925 1.204-.692 2.798-.692 1.776 0 3.069.722 1.323.692 2.046 2.226.752 1.535.722 4.031v8.424h-2.407v-7.702q0-2.226-.511-3.399-.512-1.173-1.414-1.595-.903-.45-2.046-.451-1.986 0-3.099 1.414-1.083 1.384-1.083 3.941v7.792zm21.957 6.378q-1.443 0-2.647-.301a12 12 0 0 1-2.016-.631q-.812-.332-1.173-.572l.902-1.956q.392.211 1.113.512.723.33 1.685.541a9 9 0 0 0 2.106.241q1.444 0 2.587-.602 1.174-.571 1.806-1.835.661-1.233.661-3.189v-1.594a6.05 6.05 0 0 1-2.136 2.136q-1.323.752-2.978.752-2.016 0-3.55-.963t-2.407-2.677q-.842-1.745-.842-3.972 0-2.286.842-4.001.873-1.745 2.407-2.708 1.534-.962 3.55-.962 1.655 0 2.978.752 1.325.751 2.136 2.136v-2.527h2.407v13.598q0 2.588-.963 4.332-.962 1.745-2.647 2.618t-3.821.872m.482-8.574q1.323 0 2.346-.722 1.023-.721 1.595-1.956.571-1.263.571-2.918 0-1.594-.601-2.828-.572-1.263-1.595-1.955-.993-.722-2.347-.722-1.414 0-2.527.722-1.083.692-1.714 1.955-.603 1.234-.602 2.828 0 1.655.632 2.918.631 1.235 1.714 1.956 1.114.722 2.528.722m-327.38 38.196v-15.042h2.257l.12 2.106q.693-1.204 1.776-1.835 1.083-.632 2.527-.632 1.805 0 3.068.842 1.294.843 1.866 2.557.631-1.654 1.835-2.527 1.233-.872 2.918-.872 2.528 0 3.971 1.685 1.474 1.684 1.444 5.114v8.604h-2.406v-7.702q0-2.226-.482-3.399-.45-1.173-1.233-1.595-.782-.45-1.805-.451-1.776 0-2.768 1.414-.993 1.384-.993 3.941v7.792H56.92v-7.702q0-2.226-.481-3.399-.451-1.173-1.264-1.595-.782-.45-1.805-.451-1.745 0-2.737 1.414-.993 1.384-.993 3.941v7.792zm31.404.361q-2.197 0-3.911-.993a7.25 7.25 0 0 1-2.648-2.797q-.963-1.776-.963-4.092t.933-4.092q.963-1.774 2.648-2.767 1.714-1.023 3.88-1.023 2.227 0 3.911 1.023a6.77 6.77 0 0 1 2.648 2.767q.963 1.776.963 4.092t-.963 4.092a7.04 7.04 0 0 1-2.618 2.797q-1.684.993-3.88.993m0-2.226q1.503 0 2.617-.722 1.113-.721 1.745-1.986.662-1.263.662-2.948t-.662-2.948a4.87 4.87 0 0 0-1.775-1.986q-1.143-.722-2.648-.722-1.474 0-2.617.722-1.113.721-1.775 1.986-.632 1.263-.632 2.948 0 1.655.632 2.948.662 1.264 1.805 1.986 1.173.722 2.648.722m9.967 1.865v-15.042h2.406v2.677q.903-1.413 2.317-2.076a7.15 7.15 0 0 1 3.008-.661v2.256q-1.323 0-2.557.451a4.3 4.3 0 0 0-1.985 1.414q-.783.993-.783 2.708v8.273zm15.918.361q-2.196 0-3.881-.993a7.25 7.25 0 0 1-2.648-2.797q-.932-1.776-.932-4.092t.932-4.092q.963-1.774 2.618-2.767 1.685-1.023 3.851-1.023 2.106 0 3.64 1.053 1.534 1.023 2.377 2.888t.842 4.392H99.497q.15 2.467 1.564 3.851t3.58 1.384q1.595 0 2.678-.752a5 5 0 0 0 1.715-1.986l2.075 1.053a6.7 6.7 0 0 1-1.534 2.046 6.6 6.6 0 0 1-2.226 1.354q-1.264.481-2.828.481m-4.844-9.446h9.056q-.09-1.294-.692-2.227a4 4 0 0 0-1.504-1.444q-.933-.511-2.106-.511-1.144 0-2.197.511a4.35 4.35 0 0 0-1.745 1.444q-.692.933-.812 2.227m27.029 9.446q-2.196 0-3.881-.993a7.26 7.26 0 0 1-2.648-2.797q-.932-1.776-.932-4.092t.932-4.092q.963-1.774 2.618-2.767 1.684-1.023 3.85-1.023 2.106 0 3.641 1.053 1.534 1.023 2.376 2.888.843 1.865.843 4.392h-11.823q.15 2.467 1.564 3.851t3.58 1.384q1.595 0 2.678-.752a5 5 0 0 0 1.714-1.986l2.076 1.053a6.7 6.7 0 0 1-1.534 2.046 6.6 6.6 0 0 1-2.226 1.354q-1.264.481-2.828.481m-4.844-9.446h9.056q-.091-1.294-.692-2.227a4 4 0 0 0-1.505-1.444q-.932-.511-2.106-.511-1.143 0-2.196.511a4.35 4.35 0 0 0-1.745 1.444q-.692.933-.812 2.227m13.843 9.085v-15.042h2.256l.12 2.256q.753-1.263 1.956-1.925 1.203-.692 2.798-.692 1.775 0 3.068.722 1.325.691 2.046 2.226.752 1.535.722 4.031v8.424h-2.407v-7.702q0-2.226-.511-3.399t-1.414-1.595q-.903-.45-2.046-.451-1.985 0-3.099 1.414-1.083 1.384-1.083 3.941v7.792zm22.528.361q-2.196 0-3.881-.993a7.26 7.26 0 0 1-2.647-2.797q-.933-1.776-.933-4.092t.933-4.092q.963-1.774 2.617-2.767 1.685-1.023 3.851-1.023 2.106 0 3.64 1.053 1.534 1.023 2.377 2.888t.842 4.392h-11.823q.15 2.467 1.564 3.851t3.581 1.384q1.594 0 2.677-.752a5 5 0 0 0 1.715-1.986l2.076 1.053a6.7 6.7 0 0 1-1.535 2.046 6.6 6.6 0 0 1-2.226 1.354q-1.263.481-2.828.481m-4.843-9.446h9.055q-.09-1.294-.692-2.227a4 4 0 0 0-1.504-1.444q-.933-.511-2.106-.511-1.143 0-2.196.511a4.34 4.34 0 0 0-1.745 1.444q-.692.933-.812 2.227m13.842 9.085v-15.042h2.407v2.677q.903-1.413 2.316-2.076a7.15 7.15 0 0 1 3.009-.661v2.256q-1.324 0-2.557.451a4.27 4.27 0 0 0-1.986 1.414q-.782.993-.782 2.708v8.273zm15.347 6.378q-1.444 0-2.648-.301a12 12 0 0 1-2.015-.631q-.813-.332-1.174-.572l.903-1.956q.392.211 1.113.512.722.33 1.685.541a9 9 0 0 0 2.106.241q1.444 0 2.587-.602 1.173-.571 1.805-1.835.662-1.233.662-3.189v-1.594a6.1 6.1 0 0 1-2.136 2.136q-1.324.752-2.979.752-2.015 0-3.55-.963t-2.406-2.677q-.843-1.745-.843-3.972 0-2.286.843-4.001.872-1.745 2.406-2.708 1.535-.962 3.55-.962 1.655 0 2.979.752 1.323.751 2.136 2.136v-2.527h2.407v13.598q0 2.587-.963 4.332t-2.647 2.618q-1.686.872-3.821.872m.481-8.574q1.324 0 2.347-.722 1.023-.721 1.594-1.956.572-1.263.572-2.918 0-1.594-.602-2.828-.571-1.263-1.594-1.955-.993-.723-2.347-.722-1.414 0-2.527.722-1.083.692-1.715 1.955-.602 1.234-.602 2.828 0 1.655.632 2.918.632 1.235 1.715 1.956 1.113.722 2.527.722m11.677 8.574q-.571 0-1.324-.241a13 13 0 0 1-1.594-.571l.902-2.016q.693.301 1.204.451.542.151.842.151.813 0 1.324-.451.542-.421.902-1.234l1.023-2.527-6.468-14.982h2.557l5.115 12.184 5.054-12.184h2.587l-7.22 17.148a15 15 0 0 1-1.204 2.287q-.601.962-1.474 1.474-.871.511-2.226.511m24.846-3.369a30.5 30.5 0 0 1-2.527-3.972 22.6 22.6 0 0 1-1.805-4.572 18.8 18.8 0 0 1-.662-4.995q0-2.616.662-4.994a22 22 0 0 1 1.805-4.542 29.6 29.6 0 0 1 2.527-4.002h2.467a34 34 0 0 0-2.527 4.122 23.6 23.6 0 0 0-1.805 4.573 17.8 17.8 0 0 0-.662 4.843q0 2.468.662 4.844a23.6 23.6 0 0 0 1.805 4.573 37 37 0 0 0 2.527 4.122zm5.499-3.009 9.989-18.743h-11.192v-2.316h13.989v2.106l-9.988 18.953zm15.324 0 9.988-18.743h-11.192v-2.316h13.99v2.106l-9.989 18.953zm23.867 0v-5.114h-9.718v-1.956l9.597-13.989h2.588v13.688h4.302v2.257h-4.302v5.114zm-6.799-7.371h6.799v-9.988zm20.677 7.371v-18.743h-6.709v-2.316h15.945v2.316h-6.709v18.743zm15.433 0-6.438-21.059h2.557l5.265 17.178 5.084-17.178h2.527l4.994 17.118 5.326-17.118h2.557l-6.529 21.059h-2.737l-4.874-16.938-5.024 16.938zm23.442 0V271.09h2.406v8.213a5.2 5.2 0 0 1 1.956-1.895q1.203-.663 2.798-.662 1.745 0 3.068.722 1.325.691 2.046 2.226.752 1.535.722 4.031v8.424h-2.407v-7.702q0-2.226-.541-3.399-.511-1.173-1.414-1.595-.903-.45-2.046-.451-1.985 0-3.099 1.414-1.083 1.384-1.083 3.941v7.792zm17.715 3.009h-2.467a32 32 0 0 0 2.527-4.122 23.6 23.6 0 0 0 1.805-4.573 18 18 0 0 0 .662-4.844q0-2.496-.662-4.843a23.6 23.6 0 0 0-1.805-4.573 29.5 29.5 0 0 0-2.527-4.122h2.467a26 26 0 0 1 2.527 4.002 22 22 0 0 1 1.805 4.542 18.6 18.6 0 0 1 .662 4.994q0 2.587-.662 4.995a22.6 22.6 0 0 1-1.805 4.572 27 27 0 0 1-2.527 3.972M52.889 328.51q-2.196 0-3.4-1.143t-1.203-3.219v-8.905h-2.617v-2.136h2.617v-4.693h2.407v4.693h4.512v2.136h-4.512v8.664q0 1.143.601 1.775.633.602 1.745.602.361 0 .692-.09.36-.121.933-.542l.932 1.956q-.782.511-1.413.692-.633.21-1.294.21m4.878-.361V307.09h2.407v8.213a5.2 5.2 0 0 1 1.955-1.895q1.204-.663 2.798-.662 1.745 0 3.069.722 1.323.691 2.046 2.226.752 1.535.722 4.031v8.424h-2.407v-7.702q0-2.226-.542-3.399-.51-1.173-1.414-1.595-.902-.45-2.045-.451-1.986 0-3.1 1.414-1.082 1.384-1.082 3.941v7.792zm20.693.361q-2.646 0-4.151-1.203-1.474-1.234-1.474-3.4 0-2.286 1.504-3.49 1.535-1.233 4.272-1.233h4.182q-.15-2.136-1.053-3.189-.903-1.083-2.708-1.083-1.233 0-2.136.511-.873.482-1.444 1.565l-2.166-.843a7 7 0 0 1 1.384-1.805 5.3 5.3 0 0 1 1.895-1.173q1.083-.421 2.467-.421 2.106 0 3.46.842 1.383.813 2.076 2.437.692 1.595.662 3.971l-.03 8.153h-2.227l-.12-2.016a4.7 4.7 0 0 1-1.775 1.775q-1.113.602-2.618.602m.12-2.106q1.294 0 2.257-.541a3.8 3.8 0 0 0 1.474-1.595q.542-1.023.542-2.467v-.601h-3.7q-2.106 0-3.009.692-.872.692-.872 1.985 0 1.173.872 1.865.873.663 2.437.662m9.628 1.745v-15.042h2.256l.12 2.256q.752-1.263 1.956-1.925 1.203-.692 2.798-.692 1.775 0 3.068.722 1.324.691 2.046 2.226.752 1.535.722 4.031v8.424h-2.407v-7.702q0-2.226-.511-3.399t-1.414-1.595q-.903-.45-2.046-.451-1.986 0-3.099 1.414-1.083 1.384-1.083 3.941v7.792zm23.229 0V307.09h6.649q2.166 0 3.7.662t2.377 1.955q.842 1.264.842 3.099 0 1.534-.692 2.708-.692 1.142-1.955 1.865 1.565.752 2.406 2.015.873 1.264.873 3.009 0 1.835-.812 3.129-.813 1.263-2.317 1.955-1.474.662-3.55.662zm2.527-2.286h4.874q1.985 0 3.099-.933 1.143-.963 1.143-2.617 0-1.775-1.294-2.768-1.293-1.023-3.61-1.023h-4.212zm0-9.537h4.753q1.746 0 2.738-.933.993-.933.993-2.587 0-1.715-1.173-2.617-1.144-.933-3.25-.933h-4.061zm14.337 11.823v-15.042h2.407v2.677q.902-1.413 2.316-2.076a7.15 7.15 0 0 1 3.009-.661v2.256q-1.324 0-2.557.451a4.27 4.27 0 0 0-1.986 1.414q-.782.993-.782 2.708v8.273zm14.083.361q-2.648 0-4.152-1.203-1.474-1.234-1.474-3.4 0-2.286 1.504-3.49 1.535-1.233 4.272-1.233h4.182q-.15-2.136-1.053-3.189-.903-1.083-2.707-1.083-1.234 0-2.136.511-.873.482-1.445 1.565l-2.166-.843a7 7 0 0 1 1.384-1.805 5.3 5.3 0 0 1 1.896-1.173q1.083-.421 2.467-.421 2.106 0 3.459.842 1.385.813 2.076 2.437.692 1.595.662 3.971l-.03 8.153h-2.226l-.121-2.016a4.7 4.7 0 0 1-1.775 1.775q-1.113.602-2.617.602m.12-2.106q1.294 0 2.257-.541a3.8 3.8 0 0 0 1.474-1.595q.541-1.023.541-2.467v-.601h-3.7q-2.106 0-3.009.692-.872.692-.872 1.985 0 1.173.872 1.865.873.663 2.437.662m8.875 1.745v-1.925l8.875-11.011h-8.875v-2.106h12.004v1.865l-8.905 11.071h8.965v2.106zm14.845 0v-15.042h2.406v15.042zm1.233-18.532q-.602 0-1.053-.451a1.44 1.44 0 0 1-.451-1.053q0-.632.451-1.053a1.44 1.44 0 0 1 1.053-.452q.631 0 1.053.452.451.421.451 1.053 0 .602-.451 1.053a1.38 1.38 0 0 1-1.053.451m4.773 18.532V307.09h2.407v21.059zm18.299.361q-2.016 0-3.55-.993-1.535-.992-2.407-2.767-.843-1.806-.843-4.122 0-2.346.843-4.122.872-1.775 2.407-2.767 1.534-.993 3.55-.993 1.654 0 2.948.782a5.8 5.8 0 0 1 2.136 2.106v-8.544h2.407v21.059h-2.287l-.12-2.557a6.05 6.05 0 0 1-2.136 2.136q-1.294.782-2.948.782m.541-2.196q1.324 0 2.317-.692 1.023-.721 1.594-1.986.602-1.293.632-2.888v-.21q-.03-1.625-.632-2.888-.571-1.294-1.594-1.986-1.023-.722-2.347-.722-1.414 0-2.527.722-1.113.721-1.745 2.016-.602 1.293-.602 2.948t.632 2.948 1.745 2.016 2.527.722m16.973 2.196q-2.196 0-3.911-.993a7.26 7.26 0 0 1-2.648-2.797q-.963-1.776-.962-4.092 0-2.316.932-4.092.962-1.774 2.648-2.767 1.714-1.023 3.881-1.023 2.226 0 3.911 1.023a6.77 6.77 0 0 1 2.647 2.767q.963 1.776.963 4.092t-.963 4.092a7.04 7.04 0 0 1-2.617 2.797q-1.685.993-3.881.993m0-2.226q1.504 0 2.617-.722 1.113-.721 1.745-1.986.662-1.263.662-2.948t-.662-2.948a4.87 4.87 0 0 0-1.775-1.986q-1.144-.722-2.647-.722-1.475 0-2.618.722-1.113.721-1.775 1.986-.632 1.263-.632 2.948 0 1.655.632 2.948.662 1.264 1.805 1.986 1.173.722 2.648.722m16.555 2.226q-2.195 0-3.881-.993a7.26 7.26 0 0 1-2.647-2.797q-.933-1.776-.933-4.092t.933-4.092q.963-1.774 2.617-2.767 1.685-1.023 3.851-1.023 2.107 0 3.64 1.053 1.535 1.023 2.377 2.888.843 1.865.842 4.392h-11.823q.15 2.467 1.565 3.851 1.413 1.384 3.58 1.384 1.594 0 2.677-.752a5 5 0 0 0 1.715-1.986l2.076 1.053a6.7 6.7 0 0 1-1.534 2.046 6.6 6.6 0 0 1-2.227 1.354q-1.263.481-2.828.481m-4.843-9.446h9.055q-.09-1.294-.692-2.227a4 4 0 0 0-1.504-1.444q-.933-.511-2.106-.511-1.143 0-2.196.511a4.34 4.34 0 0 0-1.745 1.444q-.692.933-.812 2.227m19.107 9.446q-1.655 0-2.888-.481-1.233-.511-2.076-1.324-.812-.812-1.173-1.775l2.106-.872a4.05 4.05 0 0 0 1.534 1.654 4.2 4.2 0 0 0 2.256.632q1.414 0 2.377-.541.963-.572.963-1.595 0-.933-.722-1.504-.692-.571-2.076-.933l-1.444-.391q-2.046-.541-3.189-1.624-1.143-1.114-1.143-2.498 0-2.136 1.384-3.309 1.413-1.203 4.181-1.203 1.324 0 2.407.391a5.4 5.4 0 0 1 1.865 1.113 4.1 4.1 0 0 1 1.144 1.655l-2.106.932q-.391-1.023-1.294-1.474t-2.196-.451q-1.385 0-2.166.602-.782.571-.782 1.624 0 .602.631 1.143.662.512 1.926.843l1.504.391q1.474.361 2.467 1.083.993.692 1.504 1.594.512.903.512 1.926 0 1.354-.722 2.346-.723.993-1.956 1.535-1.233.511-2.828.511m20.167 0q-2.196 0-3.4-1.143t-1.203-3.219v-8.905h-2.617v-2.136h2.617v-4.693h2.407v4.693h4.512v2.136h-4.512v8.664q0 1.143.601 1.775.633.602 1.745.602.362 0 .692-.09.361-.121.933-.542l.933 1.956q-.783.511-1.414.692-.633.21-1.294.21m11.439 0q-2.196 0-3.911-.993a7.26 7.26 0 0 1-2.648-2.797q-.962-1.776-.962-4.092t.932-4.092q.962-1.774 2.648-2.767 1.715-1.023 3.881-1.023 2.226 0 3.911 1.023a6.77 6.77 0 0 1 2.647 2.767q.963 1.776.963 4.092t-.963 4.092a7.04 7.04 0 0 1-2.617 2.797q-1.685.993-3.881.993m0-2.226q1.504 0 2.617-.722 1.113-.721 1.745-1.986.662-1.263.662-2.948t-.662-2.948a4.87 4.87 0 0 0-1.775-1.986q-1.143-.722-2.647-.722-1.475 0-2.618.722-1.113.721-1.775 1.986-.632 1.263-.632 2.948 0 1.655.632 2.948.662 1.264 1.805 1.986 1.173.722 2.648.722m15.893 2.226q-2.015 0-3.55-.993-1.534-.992-2.406-2.767-.843-1.806-.843-4.122 0-2.346.843-4.122.872-1.775 2.406-2.767 1.535-.993 3.55-.993 1.655 0 2.949.782a5.8 5.8 0 0 1 2.136 2.106v-8.544h2.407v21.059h-2.287l-.12-2.557a6.05 6.05 0 0 1-2.136 2.136q-1.294.782-2.949.782m.542-2.196q1.324 0 2.317-.692 1.022-.721 1.594-1.986.602-1.293.632-2.888v-.21q-.03-1.625-.632-2.888-.572-1.294-1.594-1.986-1.024-.722-2.347-.722-1.414 0-2.527.722-1.113.721-1.745 2.016-.602 1.293-.602 2.948t.632 2.948 1.745 2.016 2.527.722m15.077 2.196q-2.648 0-4.151-1.203-1.475-1.234-1.475-3.4 0-2.286 1.505-3.49 1.535-1.233 4.272-1.233h4.181q-.15-2.136-1.053-3.189-.902-1.083-2.707-1.083-1.233 0-2.136.511-.873.482-1.444 1.565l-2.166-.843a7 7 0 0 1 1.384-1.805 5.3 5.3 0 0 1 1.895-1.173q1.083-.421 2.467-.421 2.106 0 3.46.842 1.383.813 2.075 2.437.692 1.595.662 3.971l-.03 8.153h-2.226l-.12-2.016a4.7 4.7 0 0 1-1.775 1.775q-1.113.602-2.618.602m.121-2.106q1.293 0 2.256-.541a3.8 3.8 0 0 0 1.474-1.595q.542-1.023.542-2.467v-.601h-3.701q-2.106 0-3.008.692-.873.692-.873 1.985 0 1.173.873 1.865.872.663 2.437.662m10.745 8.123q-.571 0-1.324-.241a13 13 0 0 1-1.594-.571l.902-2.016q.693.301 1.204.451.542.151.842.151.813 0 1.324-.451.542-.421.902-1.234l1.023-2.527-6.468-14.982h2.557l5.115 12.184 5.054-12.184h2.587l-7.22 17.148a15 15 0 0 1-1.203 2.287q-.602.962-1.475 1.474-.871.511-2.226.511m24.846-3.369a30.6 30.6 0 0 1-2.527-3.972 22.7 22.7 0 0 1-1.805-4.572 18.8 18.8 0 0 1-.662-4.995q0-2.616.662-4.994a22 22 0 0 1 1.805-4.542 30 30 0 0 1 2.527-4.002h2.467a34 34 0 0 0-2.527 4.122 23.6 23.6 0 0 0-1.805 4.573 17.8 17.8 0 0 0-.662 4.843q0 2.468.662 4.844a23.6 23.6 0 0 0 1.805 4.573 37 37 0 0 0 2.527 4.122zm11.998-2.648q-2.167 0-3.64-.812a6.5 6.5 0 0 1-2.347-2.256q-.873-1.414-1.264-3.25a21 21 0 0 1-.361-3.941q0-2.707.542-4.843.571-2.136 1.624-3.611 1.053-1.504 2.558-2.286t3.399-.782q1.565 0 3.099.511 1.564.481 2.768 1.354l-1.414 1.805a8 8 0 0 0-2.076-1.023q-1.113-.39-2.136-.391-3.069 0-4.663 2.587t-1.414 7.853l-.542-.542q.723-1.835 2.317-2.888 1.594-1.083 3.76-1.083 2.016 0 3.58.872a6.14 6.14 0 0 1 2.467 2.437q.903 1.534.903 3.52 0 1.956-.903 3.52-.902 1.534-2.527 2.407-1.594.842-3.73.842m0-2.226q1.354 0 2.376-.572a4.2 4.2 0 0 0 1.625-1.624q.602-1.053.602-2.407t-.602-2.377a3.96 3.96 0 0 0-1.625-1.624q-1.022-.572-2.376-.572-1.324 0-2.377.572a4.16 4.16 0 0 0-1.655 1.624q-.601 1.023-.601 2.377t.601 2.407a4.44 4.44 0 0 0 1.655 1.624q1.053.572 2.377.572m15.964 2.226q-1.264 0-2.588-.361a9.3 9.3 0 0 1-2.467-1.173 6.5 6.5 0 0 1-1.895-2.016l2.046-1.173q1.053 1.323 2.286 1.925a5.8 5.8 0 0 0 2.557.602q2.076 0 3.37-1.264 1.324-1.293 1.324-3.369 0-2.046-1.264-3.339-1.263-1.294-3.309-1.294-1.113 0-2.196.511-1.083.481-1.685 1.204l-2.287-.542 1.023-11.131h11.222v2.286h-8.965l-.632 6.709a7.8 7.8 0 0 1 1.865-.812 7.3 7.3 0 0 1 2.076-.301q1.926 0 3.43.842a6.2 6.2 0 0 1 2.376 2.347q.873 1.504.873 3.46 0 2.046-.933 3.61-.903 1.534-2.527 2.407-1.594.872-3.7.872m17.371 0q-2.408 0-4.272-1.384-1.866-1.413-2.918-3.851-1.053-2.466-1.053-5.656 0-3.188 1.053-5.625 1.052-2.468 2.888-3.851 1.865-1.414 4.302-1.414t4.272 1.414q1.865 1.383 2.918 3.851 1.083 2.437 1.083 5.625 0 3.19-1.053 5.656-1.053 2.438-2.918 3.851-1.865 1.384-4.302 1.384m0-2.286q1.685 0 2.978-1.113 1.325-1.113 2.046-3.039.753-1.926.752-4.453 0-2.526-.752-4.452-.721-1.956-2.046-3.039-1.293-1.113-2.978-1.113t-2.978 1.113q-1.294 1.083-2.046 3.039-.722 1.926-.722 4.452 0 2.527.722 4.453.751 1.926 2.046 3.039 1.323 1.113 2.978 1.113m15.85 1.925v-18.743h-6.709v-2.316h15.945v2.316h-6.709v18.743zm15.433 0-6.438-21.059h2.557l5.265 17.178 5.084-17.178h2.527l4.994 17.118 5.325-17.118h2.558l-6.529 21.059h-2.738l-4.873-16.938-5.024 16.938zm23.441 0V307.09h2.407v8.213q.752-1.233 1.956-1.895 1.203-.663 2.798-.662 1.745 0 3.068.722 1.325.691 2.046 2.226.752 1.535.722 4.031v8.424h-2.407v-7.702q0-2.226-.541-3.399-.512-1.173-1.414-1.595-.903-.45-2.046-.451-1.986 0-3.099 1.414-1.083 1.384-1.083 3.941v7.792zm17.715 3.009h-2.466a32 32 0 0 0 2.527-4.122 23.6 23.6 0 0 0 1.805-4.573 18 18 0 0 0 .662-4.844q0-2.496-.662-4.843a23.6 23.6 0 0 0-1.805-4.573 29.5 29.5 0 0 0-2.527-4.122h2.466a26 26 0 0 1 2.528 4.002 22 22 0 0 1 1.805 4.542 18.6 18.6 0 0 1 .662 4.994q0 2.587-.662 4.995a22.7 22.7 0 0 1-1.805 4.572 27 27 0 0 1-2.528 3.972m8.989-2.588q-.692 0-1.203-.481a1.66 1.66 0 0 1-.481-1.173q0-.693.481-1.174a1.65 1.65 0 0 1 1.203-.511q.693 0 1.174.511.481.481.481 1.174 0 .661-.481 1.173a1.6 1.6 0 0 1-1.174.481"/></svg>