<svg width="600" height="375" viewBox="0 0 600 375" fill="none" xmlns="http://www.w3.org/2000/svg">
<rect x="1.41022" y="1.41022" width="596.995" height="371.359" rx="6.11097" stroke="#8FCE79" stroke-width="2.82045"/>
<path d="M483.133 45.1274L278.562 75.2645L297.541 205.03L502.112 174.893L483.133 45.1274ZM399.146 185.309L307.663 137.302L381.541 64.9341L473.024 112.941L399.146 185.309Z" fill="#8FCE79"/>
<path d="M358.46 101.25C384.028 104.896 408.591 115.363 428.909 131.34C429.523 127.499 429.545 123.483 428.952 119.428C425.793 97.8276 405.752 82.857 384.144 86.0404C373.531 87.6038 364.481 93.298 358.46 101.25Z" fill="#8FCE79"/>
<path d="M353.468 109.928C350.792 116.341 349.758 123.558 350.838 130.943C353.997 152.544 374.038 167.515 395.646 164.331C409.669 162.265 420.863 153.072 426.138 140.913C405.438 123.814 380.125 112.979 353.468 109.928Z" fill="#8FCE79"/>
<path d="M138.634 184.576V155.287H135.723V187.499H156.297C156.225 187.029 156.186 186.526 156.186 186.023C156.186 185.52 156.23 185.051 156.297 184.565H138.634L138.634 184.576Z" fill="#8FCE79"/>
<path d="M109.426 190.572V155.287H106.498V190.572C107.469 190.399 108.456 190.399 109.426 190.572Z" fill="#8FCE79"/>
<path d="M94.4248 74.8933C107.364 74.8933 119.312 81.4745 125.929 92.282C125.95 92.2819 125.972 92.282 125.993 92.282C140.431 92.2822 152.97 102.505 155.423 116.245C166.226 116.857 175.029 125.545 175.029 136.428V147.281L173.003 145.091C171.991 147.153 170.614 149.052 168.904 150.704L168.871 150.735C166.406 153.067 163.448 154.779 160.212 155.732L160.186 155.74L160.158 155.748C159.552 155.918 158.907 156.077 158.231 156.205C156.901 156.457 155.537 156.582 154.182 156.582H68.457C60.9042 156.582 54.0123 153.644 49.0186 148.828C43.9939 143.998 40.8761 137.082 40.876 129.895C40.876 122.741 43.7741 115.99 48.9863 110.966C51.6004 108.419 54.7538 106.42 58.1807 105.113C60.8082 87.6441 76.2014 74.8935 94.4248 74.8933Z" fill="#8FCE79" stroke="black" stroke-width="8.50214"/>
<path d="M110.282 193.831C109.552 193.518 108.754 193.362 107.957 193.362C107.159 193.362 106.356 193.535 105.614 193.831C103.489 194.776 102.117 196.894 102.117 199.214C102.117 200.03 102.29 200.801 102.575 201.489C103.16 202.892 104.276 204.021 105.687 204.624C106.384 204.909 107.159 205.066 107.957 205.066C108.754 205.066 109.53 204.892 110.227 204.624C111.627 204.021 112.753 202.908 113.339 201.489C113.64 200.801 113.796 200.013 113.796 199.214C113.796 198.929 113.779 198.644 113.74 198.353C113.439 196.38 112.156 194.647 110.282 193.831Z" fill="#8FCE79"/>
<path d="M51.8292 180.239C51.5448 180.211 51.2603 180.183 50.9703 180.183C50.156 180.183 49.3863 180.356 48.7004 180.641C47.3004 181.245 46.1739 182.357 45.5715 183.76C45.287 184.459 45.1309 185.236 45.1309 186.035C45.1309 186.834 45.3038 187.622 45.5715 188.31C46.1738 189.713 47.2837 190.842 48.7004 191.445C49.3864 191.73 50.1727 191.887 50.9703 191.887C53.2849 191.887 55.3988 190.512 56.3413 188.366C56.6536 187.633 56.8098 186.834 56.8098 186.035C56.8098 185.236 56.6369 184.431 56.3413 183.687C55.5158 181.826 53.7982 180.541 51.8292 180.239Z" fill="#8FCE79"/>
<path d="M167.213 180.641C166.527 180.339 165.741 180.183 164.943 180.183C162.628 180.183 160.515 181.569 159.572 183.704C159.26 184.436 159.104 185.236 159.104 186.035C159.104 186.834 159.276 187.639 159.572 188.393C160.397 190.238 162.115 191.54 164.084 191.825C164.369 191.87 164.653 191.881 164.943 191.881C165.757 191.881 166.527 191.708 167.213 191.44C168.613 190.836 169.74 189.724 170.342 188.304C170.626 187.616 170.783 186.828 170.783 186.029C170.783 185.23 170.61 184.453 170.342 183.754C169.74 182.368 168.63 181.234 167.213 180.636L167.213 180.641Z" fill="#8FCE79"/>
<path d="M77.2747 184.576H59.6113C59.6838 185.046 59.7229 185.538 59.7229 186.035C59.7229 186.538 59.6783 187.024 59.6113 187.51H80.1861V155.299H77.2746V184.587L77.2747 184.576Z" fill="#8FCE79"/>
<path d="M213.589 136.988V129.391H251.102V136.988H213.589ZM213.589 155.744V148.148H251.102V155.744H213.589Z" fill="#8FCE79"/>
<path d="M47.9248 256.149V235.09H54.5736C56.0176 235.09 57.2511 235.31 58.274 235.752C59.2969 236.193 60.0891 236.845 60.6507 237.707C61.2123 238.55 61.4931 239.582 61.4931 240.806C61.4931 241.829 61.2624 242.731 60.8011 243.514C60.3398 244.276 59.688 244.897 58.8456 245.379C59.8886 245.88 60.6908 246.552 61.2524 247.394C61.834 248.237 62.1249 249.24 62.1249 250.403C62.1249 251.626 61.8541 252.669 61.3126 253.532C60.771 254.374 59.9989 255.026 58.996 255.487C58.0133 255.929 56.8299 256.149 55.446 256.149H47.9248ZM50.452 253.863H55.3257C56.6494 253.863 57.6823 253.552 58.4244 252.93C59.1866 252.288 59.5676 251.416 59.5676 250.313C59.5676 249.129 59.1364 248.207 58.274 247.545C57.4116 246.863 56.2082 246.522 54.6638 246.522H50.452V253.863ZM50.452 244.326H55.2054C56.3686 244.326 57.2812 244.015 57.9431 243.393C58.6049 242.771 58.9359 241.909 58.9359 240.806C58.9359 239.663 58.5448 238.79 57.7626 238.189C57.0004 237.567 55.9174 237.256 54.5134 237.256H50.452V244.326ZM66.1426 262.527C65.7616 262.527 65.3203 262.447 64.8189 262.286C64.3175 262.146 63.786 261.956 63.2244 261.715L64.127 259.699C64.5883 259.9 64.9894 260.05 65.3304 260.15C65.6914 260.251 65.9722 260.301 66.1727 260.301C66.7143 260.301 67.1555 260.15 67.4965 259.85C67.8575 259.569 68.1583 259.158 68.399 258.616L69.4219 256.089L62.9537 241.107H65.5109L70.6253 253.291L75.6795 241.107H78.2668L71.0465 258.255C70.6654 259.138 70.2643 259.9 69.8431 260.542C69.4419 261.183 68.9506 261.675 68.3689 262.016C67.7873 262.357 67.0452 262.527 66.1426 262.527ZM85.995 256.149V254.043C85.995 253.381 86.1253 252.73 86.3861 252.088C86.6669 251.426 87.058 250.774 87.5594 250.132C88.0808 249.49 88.7126 248.889 89.4547 248.327L93.817 245.048C94.3385 244.687 94.7897 244.276 95.1708 243.814C95.5719 243.333 95.8828 242.842 96.1034 242.34C96.3241 241.819 96.4344 241.317 96.4344 240.836C96.4344 240.134 96.2639 239.502 95.9229 238.941C95.582 238.359 95.1006 237.898 94.4789 237.557C93.8571 237.216 93.125 237.045 92.2827 237.045C91.4604 237.045 90.7383 237.206 90.1166 237.527C89.4948 237.828 88.9834 238.239 88.5822 238.76C88.1811 239.262 87.8903 239.803 87.7098 240.385L85.1225 239.873C85.3632 238.971 85.7944 238.128 86.4161 237.346C87.058 236.564 87.8702 235.932 88.853 235.451C89.8358 234.969 90.9289 234.729 92.1323 234.729C93.5362 234.729 94.7496 235 95.7725 235.541C96.7954 236.063 97.5876 236.785 98.1492 237.707C98.7308 238.61 99.0217 239.643 99.0217 240.806C99.0217 241.909 98.7208 242.952 98.1191 243.935C97.5174 244.918 96.645 245.87 95.5017 246.793L91.3801 249.922C90.5779 250.523 89.9561 251.155 89.5149 251.817C89.0937 252.479 88.853 253.171 88.7928 253.893H99.3225V256.149H85.995ZM109.877 256.51C108.272 256.51 106.848 256.049 105.605 255.126C104.361 254.184 103.388 252.9 102.686 251.275C101.984 249.631 101.633 247.745 101.633 245.619C101.633 243.494 101.984 241.618 102.686 239.994C103.388 238.349 104.351 237.065 105.575 236.143C106.818 235.2 108.252 234.729 109.877 234.729C111.501 234.729 112.925 235.2 114.149 236.143C115.392 237.065 116.365 238.349 117.067 239.994C117.789 241.618 118.15 243.494 118.15 245.619C118.15 247.745 117.799 249.631 117.097 251.275C116.395 252.9 115.422 254.184 114.179 255.126C112.935 256.049 111.501 256.51 109.877 256.51ZM109.877 254.224C111 254.224 111.993 253.853 112.855 253.111C113.738 252.369 114.419 251.356 114.901 250.072C115.402 248.788 115.653 247.304 115.653 245.619C115.653 243.935 115.402 242.451 114.901 241.167C114.419 239.863 113.738 238.85 112.855 238.128C111.993 237.386 111 237.015 109.877 237.015C108.754 237.015 107.761 237.386 106.898 238.128C106.036 238.85 105.354 239.863 104.853 241.167C104.371 242.451 104.13 243.935 104.13 245.619C104.13 247.304 104.371 248.788 104.853 250.072C105.354 251.356 106.036 252.369 106.898 253.111C107.781 253.853 108.774 254.224 109.877 254.224ZM126.78 256.51C125.757 256.51 124.824 256.36 123.982 256.059C123.159 255.738 122.447 255.327 121.846 254.825C121.264 254.324 120.803 253.793 120.462 253.231L122.568 252.058C122.788 252.338 123.059 252.659 123.38 253.02C123.721 253.361 124.152 253.652 124.674 253.893C125.195 254.133 125.837 254.254 126.599 254.254C127.963 254.254 129.056 253.863 129.878 253.081C130.701 252.298 131.112 251.316 131.112 250.132C131.112 249.23 130.861 248.468 130.36 247.846C129.878 247.224 129.176 246.753 128.254 246.432C127.331 246.111 126.228 245.95 124.945 245.95H124.373V243.784H124.945C126.669 243.784 128.033 243.494 129.036 242.912C130.059 242.31 130.57 241.458 130.57 240.355C130.57 239.753 130.41 239.201 130.089 238.7C129.768 238.179 129.297 237.767 128.675 237.467C128.073 237.146 127.371 236.985 126.569 236.985C126.028 236.985 125.516 237.065 125.035 237.226C124.573 237.366 124.142 237.587 123.741 237.888C123.36 238.169 123.009 238.53 122.688 238.971L120.703 237.828C121.084 237.206 121.565 236.664 122.147 236.203C122.748 235.742 123.43 235.381 124.192 235.12C124.955 234.859 125.787 234.729 126.689 234.729C127.913 234.729 129.006 234.969 129.969 235.451C130.951 235.932 131.724 236.594 132.285 237.436C132.847 238.259 133.128 239.191 133.128 240.234C133.128 241.297 132.827 242.22 132.225 243.002C131.623 243.764 130.801 244.376 129.758 244.837C130.961 245.359 131.904 246.081 132.586 247.003C133.288 247.906 133.639 249.009 133.639 250.313C133.639 251.556 133.328 252.649 132.706 253.592C132.105 254.515 131.282 255.237 130.239 255.758C129.197 256.259 128.043 256.51 126.78 256.51ZM143.843 256.51C142.238 256.51 140.814 256.049 139.571 255.126C138.327 254.184 137.354 252.9 136.652 251.275C135.951 249.631 135.6 247.745 135.6 245.619C135.6 243.494 135.951 241.618 136.652 239.994C137.354 238.349 138.317 237.065 139.541 236.143C140.784 235.2 142.218 234.729 143.843 234.729C145.467 234.729 146.891 235.2 148.115 236.143C149.358 237.065 150.331 238.349 151.033 239.994C151.755 241.618 152.116 243.494 152.116 245.619C152.116 247.745 151.765 249.631 151.063 251.275C150.361 252.9 149.388 254.184 148.145 255.126C146.901 256.049 145.467 256.51 143.843 256.51ZM143.843 254.224C144.966 254.224 145.959 253.853 146.821 253.111C147.704 252.369 148.386 251.356 148.867 250.072C149.368 248.788 149.619 247.304 149.619 245.619C149.619 243.935 149.368 242.451 148.867 241.167C148.386 239.863 147.704 238.85 146.821 238.128C145.959 237.386 144.966 237.015 143.843 237.015C142.72 237.015 141.727 237.386 140.864 238.128C140.002 238.85 139.32 239.863 138.819 241.167C138.337 242.451 138.097 243.935 138.097 245.619C138.097 247.304 138.337 248.788 138.819 250.072C139.32 251.356 140.002 252.369 140.864 253.111C141.747 253.853 142.74 254.224 143.843 254.224ZM153.856 259.609L155.571 253.261H158.279L155.932 259.609H153.856ZM165.472 256.149L174.046 235.09H176.694L185.268 256.149H182.59L180.153 250.162H170.617L168.18 256.149H165.472ZM171.489 247.876H179.251L175.37 238.279L171.489 247.876ZM187.524 256.149V235.09H190.081V256.149H187.524ZM207.47 256.51C205.985 256.51 204.672 256.179 203.529 255.517C202.385 254.835 201.493 253.903 200.851 252.72C200.209 251.536 199.888 250.172 199.888 248.628C199.888 247.084 200.199 245.72 200.821 244.536C201.463 243.353 202.355 242.431 203.498 241.769C204.642 241.087 205.945 240.746 207.409 240.746C208.854 240.746 210.147 241.077 211.29 241.739C212.434 242.4 213.306 243.333 213.908 244.536L211.712 245.529C211.31 244.727 210.729 244.105 209.967 243.664C209.204 243.203 208.332 242.972 207.349 242.972C206.367 242.972 205.494 243.213 204.732 243.694C203.99 244.175 203.398 244.847 202.957 245.71C202.536 246.552 202.325 247.525 202.325 248.628C202.325 249.731 202.536 250.714 202.957 251.576C203.398 252.419 204 253.081 204.762 253.562C205.544 254.043 206.427 254.284 207.409 254.284C208.392 254.284 209.265 254.033 210.027 253.532C210.809 253.03 211.401 252.328 211.802 251.426L213.998 252.419C213.396 253.702 212.524 254.705 211.381 255.427C210.237 256.149 208.934 256.51 207.47 256.51ZM222.85 256.51C221.386 256.51 220.082 256.179 218.939 255.517C217.816 254.835 216.933 253.903 216.292 252.72C215.65 251.536 215.329 250.172 215.329 248.628C215.329 247.084 215.64 245.72 216.261 244.536C216.903 243.353 217.786 242.431 218.909 241.769C220.052 241.087 221.346 240.746 222.79 240.746C224.274 240.746 225.578 241.087 226.701 241.769C227.844 242.431 228.727 243.353 229.348 244.536C229.99 245.72 230.311 247.084 230.311 248.628C230.311 250.172 229.99 251.536 229.348 252.72C228.727 253.903 227.854 254.835 226.731 255.517C225.608 256.179 224.314 256.51 222.85 256.51ZM222.85 254.284C223.853 254.284 224.725 254.043 225.467 253.562C226.21 253.081 226.791 252.419 227.212 251.576C227.654 250.734 227.874 249.751 227.874 248.628C227.874 247.505 227.654 246.522 227.212 245.68C226.791 244.837 226.199 244.175 225.437 243.694C224.675 243.213 223.793 242.972 222.79 242.972C221.807 242.972 220.935 243.213 220.173 243.694C219.43 244.175 218.839 244.837 218.398 245.68C217.976 246.522 217.766 247.505 217.766 248.628C217.766 249.731 217.976 250.714 218.398 251.576C218.839 252.419 219.44 253.081 220.203 253.562C220.985 254.043 221.867 254.284 222.85 254.284ZM238.262 256.51C237.099 256.51 236.076 256.28 235.194 255.818C234.331 255.337 233.649 254.585 233.148 253.562C232.667 252.519 232.426 251.175 232.426 249.531V241.107H234.833V248.808C234.833 250.293 235.003 251.426 235.344 252.208C235.685 252.99 236.157 253.532 236.758 253.833C237.38 254.113 238.072 254.254 238.834 254.254C240.138 254.254 241.151 253.783 241.873 252.84C242.615 251.897 242.986 250.583 242.986 248.899V241.107H245.393V256.149H243.136L243.016 253.893C242.514 254.735 241.863 255.387 241.06 255.848C240.258 256.29 239.325 256.51 238.262 256.51ZM248.757 256.149V235.09H251.164V256.149H248.757ZM260.459 256.51C259.115 256.51 257.931 256.179 256.909 255.517C255.886 254.856 255.083 253.933 254.502 252.75C253.94 251.546 253.659 250.172 253.659 248.628C253.659 247.064 253.94 245.69 254.502 244.506C255.083 243.323 255.886 242.4 256.909 241.739C257.931 241.077 259.115 240.746 260.459 240.746C261.562 240.746 262.544 241.006 263.407 241.528C264.289 242.029 265.001 242.731 265.543 243.634V235.09H267.95V256.149H265.663L265.543 253.592C265.001 254.495 264.289 255.207 263.407 255.728C262.544 256.249 261.562 256.51 260.459 256.51ZM261 254.314C261.883 254.314 262.655 254.083 263.317 253.622C263.999 253.141 264.53 252.479 264.911 251.636C265.312 250.774 265.523 249.811 265.543 248.748V248.538C265.523 247.455 265.312 246.492 264.911 245.65C264.53 244.787 263.999 244.125 263.317 243.664C262.635 243.183 261.852 242.942 260.97 242.942C260.027 242.942 259.185 243.183 258.443 243.664C257.701 244.145 257.119 244.817 256.698 245.68C256.297 246.542 256.096 247.525 256.096 248.628C256.096 249.731 256.307 250.714 256.728 251.576C257.149 252.439 257.731 253.111 258.473 253.592C259.215 254.073 260.057 254.314 261 254.314ZM285.412 256.51C284.309 256.51 283.326 256.249 282.464 255.728C281.602 255.207 280.89 254.495 280.328 253.592L280.208 256.149H277.921V235.09H280.328V243.634C280.89 242.731 281.602 242.029 282.464 241.528C283.326 241.006 284.309 240.746 285.412 240.746C286.756 240.746 287.939 241.077 288.962 241.739C289.985 242.4 290.777 243.323 291.339 244.506C291.921 245.69 292.212 247.064 292.212 248.628C292.212 250.172 291.921 251.546 291.339 252.75C290.777 253.933 289.985 254.856 288.962 255.517C287.939 256.179 286.756 256.51 285.412 256.51ZM284.871 254.314C285.813 254.314 286.646 254.073 287.368 253.592C288.11 253.111 288.692 252.439 289.113 251.576C289.554 250.714 289.775 249.731 289.775 248.628C289.775 247.525 289.564 246.542 289.143 245.68C288.742 244.817 288.17 244.145 287.428 243.664C286.686 243.183 285.844 242.942 284.901 242.942C284.018 242.942 283.226 243.183 282.524 243.664C281.842 244.145 281.301 244.817 280.9 245.68C280.519 246.542 280.328 247.525 280.328 248.628C280.328 249.731 280.519 250.714 280.9 251.576C281.301 252.439 281.842 253.111 282.524 253.592C283.206 254.073 283.988 254.314 284.871 254.314ZM301.302 256.51C299.838 256.51 298.544 256.179 297.421 255.517C296.298 254.835 295.415 253.903 294.773 252.72C294.152 251.536 293.841 250.172 293.841 248.628C293.841 247.084 294.152 245.72 294.773 244.536C295.415 243.353 296.288 242.431 297.391 241.769C298.514 241.087 299.798 240.746 301.242 240.746C302.646 240.746 303.859 241.097 304.882 241.799C305.905 242.481 306.697 243.443 307.259 244.687C307.82 245.93 308.101 247.394 308.101 249.079H296.278C296.378 250.724 296.899 252.007 297.842 252.93C298.785 253.853 299.978 254.314 301.422 254.314C302.485 254.314 303.378 254.063 304.1 253.562C304.842 253.06 305.413 252.399 305.815 251.576L307.89 252.629C307.509 253.411 306.998 254.093 306.356 254.675C305.734 255.257 304.992 255.708 304.13 256.029C303.287 256.35 302.345 256.51 301.302 256.51ZM296.458 247.064H305.514C305.454 246.201 305.223 245.459 304.822 244.837C304.441 244.216 303.939 243.734 303.318 243.393C302.696 243.052 301.994 242.882 301.212 242.882C300.449 242.882 299.717 243.052 299.015 243.393C298.313 243.714 297.732 244.195 297.271 244.837C296.809 245.459 296.538 246.201 296.458 247.064ZM322.343 256.51C321.18 256.51 320.157 256.28 319.275 255.818C318.412 255.337 317.73 254.585 317.229 253.562C316.748 252.519 316.507 251.175 316.507 249.531V241.107H318.914V248.808C318.914 250.293 319.084 251.426 319.425 252.208C319.766 252.99 320.238 253.532 320.839 253.833C321.461 254.113 322.153 254.254 322.915 254.254C324.219 254.254 325.232 253.783 325.954 252.84C326.696 251.897 327.067 250.583 327.067 248.899V241.107H329.474V256.149H327.217L327.097 253.893C326.595 254.735 325.944 255.387 325.141 255.848C324.339 256.29 323.406 256.51 322.343 256.51ZM338.103 256.51C337 256.51 336.037 256.35 335.215 256.029C334.393 255.688 333.701 255.247 333.139 254.705C332.598 254.164 332.206 253.572 331.966 252.93L334.072 252.058C334.413 252.74 334.924 253.291 335.606 253.712C336.288 254.133 337.04 254.344 337.862 254.344C338.805 254.344 339.597 254.164 340.239 253.803C340.881 253.421 341.202 252.89 341.202 252.208C341.202 251.586 340.961 251.085 340.48 250.704C340.018 250.323 339.326 250.012 338.404 249.771L336.96 249.38C335.596 249.019 334.533 248.478 333.771 247.756C333.009 247.013 332.628 246.181 332.628 245.258C332.628 243.834 333.089 242.731 334.012 241.949C334.954 241.147 336.348 240.746 338.193 240.746C339.076 240.746 339.878 240.876 340.6 241.137C341.322 241.398 341.944 241.769 342.465 242.25C342.987 242.711 343.368 243.263 343.609 243.905L341.503 244.837C341.242 244.155 340.811 243.664 340.209 243.363C339.607 243.062 338.875 242.912 338.013 242.912C337.09 242.912 336.368 243.112 335.847 243.514C335.325 243.895 335.064 244.436 335.064 245.138C335.064 245.539 335.275 245.92 335.696 246.281C336.138 246.622 336.779 246.903 337.622 247.124L339.126 247.515C340.109 247.756 340.931 248.117 341.593 248.598C342.255 249.059 342.756 249.591 343.097 250.192C343.438 250.794 343.609 251.436 343.609 252.118C343.609 253.02 343.368 253.803 342.887 254.464C342.405 255.126 341.753 255.638 340.931 255.999C340.109 256.34 339.166 256.51 338.103 256.51ZM346.167 256.149V241.107H348.574V256.149H346.167ZM347.4 237.617C346.999 237.617 346.648 237.467 346.347 237.166C346.047 236.865 345.896 236.514 345.896 236.113C345.896 235.692 346.047 235.341 346.347 235.06C346.648 234.759 346.999 234.608 347.4 234.608C347.822 234.608 348.173 234.759 348.453 235.06C348.754 235.341 348.905 235.692 348.905 236.113C348.905 236.514 348.754 236.865 348.453 237.166C348.173 237.467 347.822 237.617 347.4 237.617ZM352.173 256.149V241.107H354.43L354.55 243.363C355.051 242.521 355.703 241.879 356.505 241.438C357.308 240.976 358.24 240.746 359.303 240.746C360.487 240.746 361.51 240.986 362.372 241.468C363.254 241.929 363.936 242.671 364.418 243.694C364.919 244.717 365.16 246.061 365.14 247.725V256.149H362.733V248.447C362.733 246.963 362.562 245.83 362.222 245.048C361.881 244.266 361.409 243.734 360.808 243.453C360.206 243.153 359.524 243.002 358.762 243.002C357.438 243.002 356.405 243.473 355.663 244.416C354.941 245.339 354.58 246.652 354.58 248.357V256.149H352.173ZM374.13 262.527C373.168 262.527 372.285 262.427 371.483 262.226C370.701 262.046 370.029 261.835 369.467 261.595C368.926 261.374 368.534 261.183 368.294 261.023L369.196 259.067C369.457 259.208 369.828 259.378 370.309 259.579C370.791 259.799 371.352 259.98 371.994 260.12C372.656 260.281 373.358 260.361 374.1 260.361C375.063 260.361 375.925 260.16 376.687 259.759C377.47 259.378 378.071 258.767 378.493 257.924C378.934 257.102 379.154 256.039 379.154 254.735V253.141C378.613 254.043 377.901 254.755 377.018 255.277C376.136 255.778 375.143 256.029 374.04 256.029C372.696 256.029 371.513 255.708 370.49 255.066C369.467 254.424 368.665 253.532 368.083 252.389C367.522 251.225 367.241 249.902 367.241 248.417C367.241 246.893 367.522 245.559 368.083 244.416C368.665 243.253 369.467 242.35 370.49 241.708C371.513 241.067 372.696 240.746 374.04 240.746C375.143 240.746 376.136 240.996 377.018 241.498C377.901 241.999 378.613 242.711 379.154 243.634V241.107H381.561V254.705C381.561 256.43 381.24 257.874 380.598 259.037C379.957 260.201 379.074 261.073 377.951 261.655C376.828 262.236 375.554 262.527 374.13 262.527ZM374.612 253.953C375.494 253.953 376.276 253.712 376.958 253.231C377.64 252.75 378.172 252.098 378.553 251.275C378.934 250.433 379.124 249.46 379.124 248.357C379.124 247.294 378.924 246.352 378.523 245.529C378.142 244.687 377.61 244.035 376.928 243.574C376.266 243.092 375.484 242.852 374.581 242.852C373.639 242.852 372.796 243.092 372.054 243.574C371.332 244.035 370.761 244.687 370.34 245.529C369.938 246.352 369.738 247.294 369.738 248.357C369.738 249.46 369.948 250.433 370.37 251.275C370.791 252.098 371.362 252.75 372.084 253.231C372.827 253.712 373.669 253.953 374.612 253.953ZM47.2329 292.149V277.107H49.4892L49.6096 279.213C50.0709 278.41 50.6626 277.799 51.3846 277.378C52.1066 276.956 52.949 276.746 53.9117 276.746C55.1151 276.746 56.138 277.027 56.9804 277.588C57.8428 278.15 58.4645 279.002 58.8456 280.145C59.2668 279.042 59.8785 278.2 60.6808 277.618C61.5031 277.037 62.4758 276.746 63.599 276.746C65.2838 276.746 66.6075 277.307 67.5702 278.431C68.553 279.554 69.0343 281.258 69.0143 283.545V292.149H66.6075V284.447C66.6075 282.963 66.447 281.83 66.1261 281.048C65.8253 280.266 65.4141 279.734 64.8927 279.453C64.3712 279.153 63.7695 279.002 63.0876 279.002C61.9042 279.002 60.9816 279.473 60.3198 280.416C59.6579 281.339 59.327 282.652 59.327 284.357V292.149H56.9202V284.447C56.9202 282.963 56.7597 281.83 56.4388 281.048C56.138 280.266 55.7168 279.734 55.1753 279.453C54.6538 279.153 54.0521 279.002 53.3702 279.002C52.2069 279.002 51.2943 279.473 50.6325 280.416C49.9706 281.339 49.6397 282.652 49.6397 284.357V292.149H47.2329ZM78.6356 292.51C77.1715 292.51 75.8678 292.179 74.7246 291.517C73.6014 290.835 72.7189 289.903 72.0771 288.72C71.4353 287.536 71.1144 286.172 71.1144 284.628C71.1144 283.084 71.4253 281.72 72.047 280.536C72.6888 279.353 73.5713 278.431 74.6945 277.769C75.8377 277.087 77.1313 276.746 78.5754 276.746C80.0596 276.746 81.3633 277.087 82.4864 277.769C83.6297 278.431 84.5121 279.353 85.1339 280.536C85.7757 281.72 86.0966 283.084 86.0966 284.628C86.0966 286.172 85.7757 287.536 85.1339 288.72C84.5121 289.903 83.6397 290.835 82.5165 291.517C81.3934 292.179 80.0997 292.51 78.6356 292.51ZM78.6356 290.284C79.6384 290.284 80.5109 290.043 81.253 289.562C81.995 289.081 82.5767 288.419 82.9979 287.576C83.4391 286.734 83.6597 285.751 83.6597 284.628C83.6597 283.505 83.4391 282.522 82.9979 281.68C82.5767 280.837 81.985 280.175 81.2229 279.694C80.4607 279.213 79.5782 278.972 78.5754 278.972C77.5926 278.972 76.7202 279.213 75.958 279.694C75.2159 280.175 74.6243 280.837 74.183 281.68C73.7618 282.522 73.5513 283.505 73.5513 284.628C73.5513 285.731 73.7618 286.714 74.183 287.576C74.6243 288.419 75.226 289.081 75.9881 289.562C76.7703 290.043 77.6528 290.284 78.6356 290.284ZM88.6026 292.149V277.107H91.0094V279.784C91.6111 278.842 92.3833 278.15 93.3259 277.708C94.2887 277.267 95.2915 277.047 96.3344 277.047V279.303C95.4519 279.303 94.5995 279.453 93.7772 279.754C92.975 280.035 92.3131 280.506 91.7916 281.168C91.2702 281.83 91.0094 282.733 91.0094 283.876V292.149H88.6026ZM104.521 292.51C103.057 292.51 101.763 292.179 100.64 291.517C99.5167 290.835 98.6342 289.903 97.9924 288.72C97.3707 287.536 97.0598 286.172 97.0598 284.628C97.0598 283.084 97.3707 281.72 97.9924 280.536C98.6342 279.353 99.5067 278.431 100.61 277.769C101.733 277.087 103.017 276.746 104.461 276.746C105.865 276.746 107.078 277.097 108.101 277.799C109.124 278.481 109.916 279.443 110.478 280.687C111.039 281.93 111.32 283.394 111.32 285.079H99.4967C99.597 286.724 100.118 288.007 101.061 288.93C102.004 289.853 103.197 290.314 104.641 290.314C105.704 290.314 106.597 290.063 107.319 289.562C108.061 289.06 108.632 288.399 109.034 287.576L111.109 288.629C110.728 289.411 110.217 290.093 109.575 290.675C108.953 291.257 108.211 291.708 107.349 292.029C106.506 292.35 105.564 292.51 104.521 292.51ZM99.6772 283.064H108.733C108.673 282.201 108.442 281.459 108.041 280.837C107.66 280.216 107.158 279.734 106.537 279.393C105.915 279.052 105.213 278.882 104.431 278.882C103.668 278.882 102.936 279.052 102.234 279.393C101.532 279.714 100.951 280.195 100.489 280.837C100.028 281.459 99.7574 282.201 99.6772 283.064ZM126.706 292.51C125.242 292.51 123.948 292.179 122.825 291.517C121.702 290.835 120.819 289.903 120.177 288.72C119.556 287.536 119.245 286.172 119.245 284.628C119.245 283.084 119.556 281.72 120.177 280.536C120.819 279.353 121.692 278.431 122.795 277.769C123.918 277.087 125.201 276.746 126.645 276.746C128.049 276.746 129.263 277.097 130.286 277.799C131.309 278.481 132.101 279.443 132.662 280.687C133.224 281.93 133.505 283.394 133.505 285.079H121.682C121.782 286.724 122.303 288.007 123.246 288.93C124.189 289.853 125.382 290.314 126.826 290.314C127.889 290.314 128.782 290.063 129.504 289.562C130.246 289.06 130.817 288.399 131.218 287.576L133.294 288.629C132.913 289.411 132.402 290.093 131.76 290.675C131.138 291.257 130.396 291.708 129.534 292.029C128.691 292.35 127.749 292.51 126.706 292.51ZM121.862 283.064H130.918C130.857 282.201 130.627 281.459 130.226 280.837C129.845 280.216 129.343 279.734 128.721 279.393C128.1 279.052 127.398 278.882 126.615 278.882C125.853 278.882 125.121 279.052 124.419 279.393C123.717 279.714 123.136 280.195 122.674 280.837C122.213 281.459 121.942 282.201 121.862 283.064ZM135.705 292.149V277.107H137.961L138.081 279.363C138.583 278.521 139.235 277.879 140.037 277.438C140.839 276.976 141.772 276.746 142.835 276.746C144.018 276.746 145.041 276.986 145.903 277.468C146.786 277.929 147.468 278.671 147.949 279.694C148.451 280.717 148.691 282.061 148.671 283.725V292.149H146.264V284.447C146.264 282.963 146.094 281.83 145.753 281.048C145.412 280.266 144.941 279.734 144.339 279.453C143.737 279.153 143.055 279.002 142.293 279.002C140.969 279.002 139.937 279.473 139.194 280.416C138.472 281.339 138.111 282.652 138.111 284.357V292.149H135.705ZM158.233 292.51C156.769 292.51 155.475 292.179 154.352 291.517C153.229 290.835 152.347 289.903 151.705 288.72C151.083 287.536 150.772 286.172 150.772 284.628C150.772 283.084 151.083 281.72 151.705 280.536C152.347 279.353 153.219 278.431 154.322 277.769C155.445 277.087 156.729 276.746 158.173 276.746C159.577 276.746 160.79 277.097 161.813 277.799C162.836 278.481 163.628 279.443 164.19 280.687C164.752 281.93 165.032 283.394 165.032 285.079H153.209C153.309 286.724 153.831 288.007 154.773 288.93C155.716 289.853 156.909 290.314 158.354 290.314C159.417 290.314 160.309 290.063 161.031 289.562C161.773 289.06 162.345 288.399 162.746 287.576L164.822 288.629C164.441 289.411 163.929 290.093 163.287 290.675C162.666 291.257 161.924 291.708 161.061 292.029C160.219 292.35 159.276 292.51 158.233 292.51ZM153.39 283.064H162.445C162.385 282.201 162.154 281.459 161.753 280.837C161.372 280.216 160.871 279.734 160.249 279.393C159.627 279.052 158.925 278.882 158.143 278.882C157.381 278.882 156.649 279.052 155.947 279.393C155.245 279.714 154.663 280.195 154.202 280.837C153.741 281.459 153.47 282.201 153.39 283.064ZM167.232 292.149V277.107H169.639V279.784C170.241 278.842 171.013 278.15 171.955 277.708C172.918 277.267 173.921 277.047 174.964 277.047V279.303C174.081 279.303 173.229 279.453 172.407 279.754C171.604 280.035 170.943 280.506 170.421 281.168C169.9 281.83 169.639 282.733 169.639 283.876V292.149H167.232ZM182.579 298.527C181.616 298.527 180.734 298.427 179.931 298.226C179.149 298.046 178.477 297.835 177.916 297.595C177.374 297.374 176.983 297.183 176.742 297.023L177.645 295.067C177.906 295.208 178.277 295.378 178.758 295.579C179.239 295.799 179.801 295.98 180.443 296.12C181.105 296.281 181.807 296.361 182.549 296.361C183.511 296.361 184.374 296.16 185.136 295.759C185.918 295.378 186.52 294.767 186.941 293.924C187.382 293.102 187.603 292.039 187.603 290.735V289.141C187.061 290.043 186.349 290.755 185.467 291.277C184.584 291.778 183.592 292.029 182.488 292.029C181.145 292.029 179.961 291.708 178.938 291.066C177.916 290.424 177.113 289.532 176.532 288.389C175.97 287.225 175.689 285.902 175.689 284.417C175.689 282.893 175.97 281.559 176.532 280.416C177.113 279.253 177.916 278.35 178.938 277.708C179.961 277.067 181.145 276.746 182.488 276.746C183.592 276.746 184.584 276.996 185.467 277.498C186.349 277.999 187.061 278.711 187.603 279.634V277.107H190.01V290.705C190.01 292.43 189.689 293.874 189.047 295.037C188.405 296.201 187.523 297.073 186.4 297.655C185.276 298.236 184.003 298.527 182.579 298.527ZM183.06 289.953C183.943 289.953 184.725 289.712 185.407 289.231C186.089 288.75 186.62 288.098 187.001 287.275C187.382 286.433 187.573 285.46 187.573 284.357C187.573 283.294 187.372 282.352 186.971 281.529C186.59 280.687 186.059 280.035 185.377 279.574C184.715 279.092 183.933 278.852 183.03 278.852C182.087 278.852 181.245 279.092 180.503 279.574C179.781 280.035 179.209 280.687 178.788 281.529C178.387 282.352 178.186 283.294 178.186 284.357C178.186 285.46 178.397 286.433 178.818 287.275C179.239 288.098 179.811 288.75 180.533 289.231C181.275 289.712 182.117 289.953 183.06 289.953ZM194.737 298.527C194.356 298.527 193.915 298.447 193.413 298.286C192.912 298.146 192.38 297.956 191.819 297.715L192.721 295.699C193.183 295.9 193.584 296.05 193.925 296.15C194.286 296.251 194.567 296.301 194.767 296.301C195.309 296.301 195.75 296.15 196.091 295.85C196.452 295.569 196.753 295.158 196.993 294.616L198.016 292.089L191.548 277.107H194.105L199.22 289.291L204.274 277.107H206.861L199.641 294.255C199.26 295.138 198.859 295.9 198.437 296.542C198.036 297.183 197.545 297.675 196.963 298.016C196.382 298.357 195.64 298.527 194.737 298.527ZM219.583 295.158C218.661 293.934 217.818 292.61 217.056 291.186C216.294 289.742 215.692 288.218 215.251 286.614C214.81 285.009 214.589 283.344 214.589 281.619C214.589 279.875 214.81 278.21 215.251 276.625C215.692 275.021 216.294 273.507 217.056 272.083C217.818 270.639 218.661 269.305 219.583 268.081H222.05C221.128 269.365 220.285 270.739 219.523 272.203C218.761 273.667 218.159 275.191 217.718 276.776C217.277 278.34 217.056 279.955 217.056 281.619C217.056 283.264 217.277 284.879 217.718 286.463C218.159 288.048 218.761 289.572 219.523 291.036C220.285 292.48 221.128 293.854 222.05 295.158H219.583ZM225.082 292.149L235.071 273.406H223.879V271.09H237.868V273.196L227.88 292.149H225.082ZM240.406 292.149L250.394 273.406H239.202V271.09H253.192V273.196L243.203 292.149H240.406ZM264.273 292.149V287.035H254.555V285.079L264.152 271.09H266.74V284.778H271.042V287.035H266.74V292.149H264.273ZM257.474 284.778H264.273V274.79L257.474 284.778ZM278.151 292.149V273.406H271.442V271.09H287.387V273.406H280.678V292.149H278.151ZM293.584 292.149L287.146 271.09H289.703L294.968 288.268L300.052 271.09H302.579L307.573 288.208L312.899 271.09H315.456L308.927 292.149H306.19L301.316 275.211L296.292 292.149H293.584ZM317.026 292.149V271.09H319.432V279.303C319.934 278.481 320.586 277.849 321.388 277.408C322.19 276.966 323.123 276.746 324.186 276.746C325.349 276.746 326.372 276.986 327.254 277.468C328.137 277.929 328.819 278.671 329.3 279.694C329.802 280.717 330.042 282.061 330.022 283.725V292.149H327.615V284.447C327.615 282.963 327.435 281.83 327.074 281.048C326.733 280.266 326.262 279.734 325.66 279.453C325.058 279.153 324.376 279.002 323.614 279.002C322.29 279.002 321.258 279.473 320.515 280.416C319.793 281.339 319.432 282.652 319.432 284.357V292.149H317.026ZM334.741 295.158H332.274C333.216 293.854 334.059 292.48 334.801 291.036C335.563 289.572 336.165 288.048 336.606 286.463C337.047 284.879 337.268 283.264 337.268 281.619C337.268 279.955 337.047 278.34 336.606 276.776C336.165 275.191 335.563 273.667 334.801 272.203C334.059 270.739 333.216 269.365 332.274 268.081H334.741C335.683 269.305 336.526 270.639 337.268 272.083C338.03 273.507 338.632 275.021 339.073 276.625C339.514 278.21 339.735 279.875 339.735 281.619C339.735 283.344 339.514 285.009 339.073 286.614C338.632 288.218 338.03 289.742 337.268 291.186C336.526 292.61 335.683 293.934 334.741 295.158ZM52.8888 328.51C51.4247 328.51 50.2915 328.129 49.4892 327.367C48.687 326.605 48.2859 325.532 48.2859 324.148V315.243H45.6685V313.107H48.2859V308.414H50.6926V313.107H55.2054V315.243H50.6926V323.907C50.6926 324.669 50.8932 325.261 51.2943 325.682C51.7155 326.083 52.2972 326.284 53.0392 326.284C53.2799 326.284 53.5106 326.254 53.7312 326.194C53.9719 326.113 54.2828 325.933 54.6638 325.652L55.5965 327.608C55.075 327.949 54.6037 328.179 54.1825 328.3C53.7613 328.44 53.3301 328.51 52.8888 328.51ZM57.7671 328.149V307.09H60.1739V315.303C60.6753 314.481 61.3271 313.849 62.1294 313.408C62.9316 312.966 63.8643 312.746 64.9273 312.746C66.0905 312.746 67.1134 312.986 67.9959 313.468C68.8784 313.929 69.5603 314.671 70.0417 315.694C70.5431 316.717 70.7838 318.061 70.7637 319.725V328.149H68.3569V320.447C68.3569 318.963 68.1764 317.83 67.8154 317.048C67.4744 316.266 67.0031 315.734 66.4014 315.453C65.7997 315.153 65.1178 315.002 64.3557 315.002C63.0319 315.002 61.999 315.473 61.2569 316.416C60.5349 317.339 60.1739 318.652 60.1739 320.357V328.149H57.7671ZM78.4605 328.51C76.6956 328.51 75.3117 328.109 74.3088 327.307C73.3261 326.484 72.8347 325.351 72.8347 323.907C72.8347 322.383 73.3361 321.22 74.3389 320.417C75.3618 319.595 76.7858 319.184 78.611 319.184H82.7927C82.6925 317.76 82.3415 316.697 81.7398 315.995C81.1381 315.273 80.2355 314.912 79.0321 314.912C78.2098 314.912 77.4978 315.082 76.8961 315.423C76.3145 315.744 75.8331 316.266 75.4521 316.988L73.286 316.145C73.667 315.443 74.1283 314.842 74.6699 314.34C75.2114 313.819 75.8432 313.428 76.5652 313.167C77.2872 312.886 78.1095 312.746 79.0321 312.746C80.4361 312.746 81.5894 313.027 82.4919 313.588C83.4145 314.13 84.1064 314.942 84.5677 316.025C85.029 317.088 85.2497 318.412 85.2296 319.996L85.1995 328.149H82.9733L82.8529 326.133C82.4117 326.896 81.82 327.487 81.0779 327.908C80.3358 328.31 79.4634 328.51 78.4605 328.51ZM78.5809 326.404C79.4433 326.404 80.1954 326.224 80.8372 325.863C81.479 325.482 81.9704 324.95 82.3114 324.268C82.6724 323.586 82.8529 322.764 82.8529 321.801V321.2H79.1525C77.7485 321.2 76.7457 321.43 76.144 321.892C75.5624 322.353 75.2716 323.015 75.2716 323.877C75.2716 324.659 75.5624 325.281 76.144 325.742C76.7257 326.184 77.5379 326.404 78.5809 326.404ZM88.2076 328.149V313.107H90.464L90.5843 315.363C91.0857 314.521 91.7375 313.879 92.5398 313.438C93.3421 312.976 94.2747 312.746 95.3377 312.746C96.521 312.746 97.5439 312.986 98.4063 313.468C99.2888 313.929 99.9707 314.671 100.452 315.694C100.954 316.717 101.194 318.061 101.174 319.725V328.149H98.7674V320.447C98.7674 318.963 98.5969 317.83 98.2559 317.048C97.915 316.266 97.4436 315.734 96.8419 315.453C96.2402 315.153 95.5583 315.002 94.7962 315.002C93.4724 315.002 92.4395 315.473 91.6974 316.416C90.9754 317.339 90.6144 318.652 90.6144 320.357V328.149H88.2076ZM111.437 328.149V307.09H118.086C119.53 307.09 120.763 307.31 121.786 307.752C122.809 308.193 123.601 308.845 124.163 309.707C124.724 310.55 125.005 311.582 125.005 312.806C125.005 313.829 124.775 314.731 124.313 315.514C123.852 316.276 123.2 316.897 122.358 317.379C123.401 317.88 124.203 318.552 124.764 319.394C125.346 320.237 125.637 321.24 125.637 322.403C125.637 323.626 125.366 324.669 124.825 325.532C124.283 326.374 123.511 327.026 122.508 327.487C121.525 327.929 120.342 328.149 118.958 328.149H111.437ZM113.964 325.863H118.838C120.162 325.863 121.194 325.552 121.937 324.93C122.699 324.288 123.08 323.416 123.08 322.313C123.08 321.129 122.649 320.207 121.786 319.545C120.924 318.863 119.72 318.522 118.176 318.522H113.964V325.863ZM113.964 316.326H118.717C119.881 316.326 120.793 316.015 121.455 315.393C122.117 314.771 122.448 313.909 122.448 312.806C122.448 311.663 122.057 310.79 121.275 310.189C120.513 309.567 119.429 309.256 118.025 309.256H113.964V316.326ZM128.301 328.149V313.107H130.708V315.784C131.309 314.842 132.082 314.15 133.024 313.708C133.987 313.267 134.99 313.047 136.033 313.047V315.303C135.15 315.303 134.298 315.453 133.476 315.754C132.673 316.035 132.011 316.506 131.49 317.168C130.968 317.83 130.708 318.733 130.708 319.876V328.149H128.301ZM142.384 328.51C140.619 328.51 139.235 328.109 138.232 327.307C137.249 326.484 136.758 325.351 136.758 323.907C136.758 322.383 137.26 321.22 138.262 320.417C139.285 319.595 140.709 319.184 142.534 319.184H146.716C146.616 317.76 146.265 316.697 145.663 315.995C145.061 315.273 144.159 314.912 142.956 314.912C142.133 314.912 141.421 315.082 140.82 315.423C140.238 315.744 139.757 316.266 139.375 316.988L137.209 316.145C137.59 315.443 138.052 314.842 138.593 314.34C139.135 313.819 139.767 313.428 140.489 313.167C141.211 312.886 142.033 312.746 142.956 312.746C144.36 312.746 145.513 313.027 146.415 313.588C147.338 314.13 148.03 314.942 148.491 316.025C148.952 317.088 149.173 318.412 149.153 319.996L149.123 328.149H146.897L146.776 326.133C146.335 326.896 145.743 327.487 145.001 327.908C144.259 328.31 143.387 328.51 142.384 328.51ZM142.504 326.404C143.367 326.404 144.119 326.224 144.761 325.863C145.402 325.482 145.894 324.95 146.235 324.268C146.596 323.586 146.776 322.764 146.776 321.801V321.2H143.076C141.672 321.2 140.669 321.43 140.067 321.892C139.486 322.353 139.195 323.015 139.195 323.877C139.195 324.659 139.486 325.281 140.067 325.742C140.649 326.184 141.461 326.404 142.504 326.404ZM151.379 328.149V326.224L160.254 315.213H151.379V313.107H163.383V314.972L154.478 326.043H163.443V328.149H151.379ZM166.224 328.149V313.107H168.63V328.149H166.224ZM167.457 309.617C167.056 309.617 166.705 309.467 166.404 309.166C166.103 308.865 165.953 308.514 165.953 308.113C165.953 307.692 166.103 307.341 166.404 307.06C166.705 306.759 167.056 306.608 167.457 306.608C167.878 306.608 168.229 306.759 168.51 307.06C168.811 307.341 168.961 307.692 168.961 308.113C168.961 308.514 168.811 308.865 168.51 309.166C168.229 309.467 167.878 309.617 167.457 309.617ZM172.23 328.149V307.09H174.637V328.149H172.23ZM190.529 328.51C189.185 328.51 188.001 328.179 186.979 327.517C185.956 326.856 185.153 325.933 184.572 324.75C184.01 323.546 183.729 322.172 183.729 320.628C183.729 319.064 184.01 317.69 184.572 316.506C185.153 315.323 185.956 314.4 186.979 313.739C188.001 313.077 189.185 312.746 190.529 312.746C191.632 312.746 192.614 313.006 193.477 313.528C194.359 314.029 195.071 314.731 195.613 315.634V307.09H198.02V328.149H195.733L195.613 325.592C195.071 326.495 194.359 327.207 193.477 327.728C192.614 328.249 191.632 328.51 190.529 328.51ZM191.07 326.314C191.953 326.314 192.725 326.083 193.387 325.622C194.069 325.141 194.6 324.479 194.981 323.636C195.382 322.774 195.593 321.811 195.613 320.748V320.538C195.593 319.455 195.382 318.492 194.981 317.65C194.6 316.787 194.069 316.125 193.387 315.664C192.705 315.183 191.923 314.942 191.04 314.942C190.097 314.942 189.255 315.183 188.513 315.664C187.771 316.145 187.189 316.817 186.768 317.68C186.367 318.542 186.166 319.525 186.166 320.628C186.166 321.731 186.377 322.714 186.798 323.576C187.219 324.439 187.801 325.111 188.543 325.592C189.285 326.073 190.127 326.314 191.07 326.314ZM208.043 328.51C206.579 328.51 205.275 328.179 204.132 327.517C203.009 326.835 202.126 325.903 201.484 324.72C200.842 323.536 200.522 322.172 200.522 320.628C200.522 319.084 200.832 317.72 201.454 316.536C202.096 315.353 202.978 314.431 204.102 313.769C205.245 313.087 206.538 312.746 207.983 312.746C209.467 312.746 210.77 313.087 211.894 313.769C213.037 314.431 213.919 315.353 214.541 316.536C215.183 317.72 215.504 319.084 215.504 320.628C215.504 322.172 215.183 323.536 214.541 324.72C213.919 325.903 213.047 326.835 211.924 327.517C210.8 328.179 209.507 328.51 208.043 328.51ZM208.043 326.284C209.046 326.284 209.918 326.043 210.66 325.562C211.402 325.081 211.984 324.419 212.405 323.576C212.846 322.734 213.067 321.751 213.067 320.628C213.067 319.505 212.846 318.522 212.405 317.68C211.984 316.837 211.392 316.175 210.63 315.694C209.868 315.213 208.985 314.972 207.983 314.972C207 314.972 206.127 315.213 205.365 315.694C204.623 316.175 204.031 316.837 203.59 317.68C203.169 318.522 202.958 319.505 202.958 320.628C202.958 321.731 203.169 322.714 203.59 323.576C204.031 324.419 204.633 325.081 205.395 325.562C206.177 326.043 207.06 326.284 208.043 326.284ZM224.598 328.51C223.134 328.51 221.841 328.179 220.717 327.517C219.594 326.835 218.712 325.903 218.07 324.72C217.448 323.536 217.137 322.172 217.137 320.628C217.137 319.084 217.448 317.72 218.07 316.536C218.712 315.353 219.584 314.431 220.687 313.769C221.81 313.087 223.094 312.746 224.538 312.746C225.942 312.746 227.156 313.097 228.178 313.799C229.201 314.481 229.994 315.443 230.555 316.687C231.117 317.93 231.397 319.394 231.397 321.079H219.574C219.674 322.724 220.196 324.007 221.139 324.93C222.081 325.853 223.275 326.314 224.719 326.314C225.782 326.314 226.674 326.063 227.396 325.562C228.138 325.06 228.71 324.399 229.111 323.576L231.187 324.629C230.806 325.411 230.294 326.093 229.653 326.675C229.031 327.257 228.289 327.708 227.426 328.029C226.584 328.35 225.641 328.51 224.598 328.51ZM219.755 319.064H228.81C228.75 318.201 228.519 317.459 228.118 316.837C227.737 316.216 227.236 315.734 226.614 315.393C225.992 315.052 225.29 314.882 224.508 314.882C223.746 314.882 223.014 315.052 222.312 315.393C221.61 315.714 221.028 316.195 220.567 316.837C220.106 317.459 219.835 318.201 219.755 319.064ZM238.862 328.51C237.759 328.51 236.796 328.35 235.974 328.029C235.152 327.688 234.46 327.247 233.898 326.705C233.357 326.164 232.965 325.572 232.725 324.93L234.831 324.058C235.172 324.74 235.683 325.291 236.365 325.712C237.047 326.133 237.799 326.344 238.621 326.344C239.564 326.344 240.356 326.164 240.998 325.803C241.64 325.421 241.961 324.89 241.961 324.208C241.961 323.586 241.72 323.085 241.239 322.704C240.777 322.323 240.086 322.012 239.163 321.771L237.719 321.38C236.355 321.019 235.292 320.478 234.53 319.756C233.768 319.013 233.387 318.181 233.387 317.258C233.387 315.834 233.848 314.731 234.771 313.949C235.713 313.147 237.107 312.746 238.952 312.746C239.835 312.746 240.637 312.876 241.359 313.137C242.081 313.398 242.703 313.769 243.224 314.25C243.746 314.711 244.127 315.263 244.368 315.905L242.262 316.837C242.001 316.155 241.57 315.664 240.968 315.363C240.366 315.062 239.634 314.912 238.772 314.912C237.849 314.912 237.127 315.112 236.606 315.514C236.084 315.895 235.824 316.436 235.824 317.138C235.824 317.539 236.034 317.92 236.455 318.281C236.897 318.622 237.538 318.903 238.381 319.124L239.885 319.515C240.868 319.756 241.69 320.117 242.352 320.598C243.014 321.059 243.515 321.591 243.856 322.192C244.197 322.794 244.368 323.436 244.368 324.118C244.368 325.02 244.127 325.803 243.646 326.464C243.164 327.126 242.512 327.638 241.69 327.999C240.868 328.34 239.925 328.51 238.862 328.51ZM259.029 328.51C257.565 328.51 256.432 328.129 255.629 327.367C254.827 326.605 254.426 325.532 254.426 324.148V315.243H251.809V313.107H254.426V308.414H256.833V313.107H261.345V315.243H256.833V323.907C256.833 324.669 257.033 325.261 257.434 325.682C257.856 326.083 258.437 326.284 259.179 326.284C259.42 326.284 259.651 326.254 259.871 326.194C260.112 326.113 260.423 325.933 260.804 325.652L261.737 327.608C261.215 327.949 260.744 328.179 260.323 328.3C259.901 328.44 259.47 328.51 259.029 328.51ZM270.468 328.51C269.004 328.51 267.7 328.179 266.557 327.517C265.434 326.835 264.551 325.903 263.909 324.72C263.267 323.536 262.947 322.172 262.947 320.628C262.947 319.084 263.257 317.72 263.879 316.536C264.521 315.353 265.403 314.431 266.527 313.769C267.67 313.087 268.964 312.746 270.408 312.746C271.892 312.746 273.195 313.087 274.319 313.769C275.462 314.431 276.344 315.353 276.966 316.536C277.608 317.72 277.929 319.084 277.929 320.628C277.929 322.172 277.608 323.536 276.966 324.72C276.344 325.903 275.472 326.835 274.349 327.517C273.226 328.179 271.932 328.51 270.468 328.51ZM270.468 326.284C271.471 326.284 272.343 326.043 273.085 325.562C273.827 325.081 274.409 324.419 274.83 323.576C275.271 322.734 275.492 321.751 275.492 320.628C275.492 319.505 275.271 318.522 274.83 317.68C274.409 316.837 273.817 316.175 273.055 315.694C272.293 315.213 271.41 314.972 270.408 314.972C269.425 314.972 268.552 315.213 267.79 315.694C267.048 316.175 266.456 316.837 266.015 317.68C265.594 318.522 265.383 319.505 265.383 320.628C265.383 321.731 265.594 322.714 266.015 323.576C266.456 324.419 267.058 325.081 267.82 325.562C268.602 326.043 269.485 326.284 270.468 326.284ZM286.361 328.51C285.018 328.51 283.834 328.179 282.811 327.517C281.789 326.856 280.986 325.933 280.405 324.75C279.843 323.546 279.562 322.172 279.562 320.628C279.562 319.064 279.843 317.69 280.405 316.506C280.986 315.323 281.789 314.4 282.811 313.739C283.834 313.077 285.018 312.746 286.361 312.746C287.465 312.746 288.447 313.006 289.31 313.528C290.192 314.029 290.904 314.731 291.446 315.634V307.09H293.853V328.149H291.566L291.446 325.592C290.904 326.495 290.192 327.207 289.31 327.728C288.447 328.249 287.465 328.51 286.361 328.51ZM286.903 326.314C287.786 326.314 288.558 326.083 289.22 325.622C289.901 325.141 290.433 324.479 290.814 323.636C291.215 322.774 291.426 321.811 291.446 320.748V320.538C291.426 319.455 291.215 318.492 290.814 317.65C290.433 316.787 289.901 316.125 289.22 315.664C288.538 315.183 287.755 314.942 286.873 314.942C285.93 314.942 285.088 315.183 284.346 315.664C283.604 316.145 283.022 316.817 282.601 317.68C282.2 318.542 281.999 319.525 281.999 320.628C281.999 321.731 282.21 322.714 282.631 323.576C283.052 324.439 283.634 325.111 284.376 325.592C285.118 326.073 285.96 326.314 286.903 326.314ZM301.98 328.51C300.215 328.51 298.831 328.109 297.829 327.307C296.846 326.484 296.354 325.351 296.354 323.907C296.354 322.383 296.856 321.22 297.859 320.417C298.882 319.595 300.306 319.184 302.131 319.184H306.312C306.212 317.76 305.861 316.697 305.259 315.995C304.658 315.273 303.755 314.912 302.552 314.912C301.73 314.912 301.018 315.082 300.416 315.423C299.834 315.744 299.353 316.266 298.972 316.988L296.806 316.145C297.187 315.443 297.648 314.842 298.19 314.34C298.731 313.819 299.363 313.428 300.085 313.167C300.807 312.886 301.629 312.746 302.552 312.746C303.956 312.746 305.109 313.027 306.012 313.588C306.934 314.13 307.626 314.942 308.087 316.025C308.549 317.088 308.769 318.412 308.749 319.996L308.719 328.149H306.493L306.373 326.133C305.931 326.896 305.34 327.487 304.598 327.908C303.856 328.31 302.983 328.51 301.98 328.51ZM302.101 326.404C302.963 326.404 303.715 326.224 304.357 325.863C304.999 325.482 305.49 324.95 305.831 324.268C306.192 323.586 306.373 322.764 306.373 321.801V321.2H302.672C301.268 321.2 300.265 321.43 299.664 321.892C299.082 322.353 298.791 323.015 298.791 323.877C298.791 324.659 299.082 325.281 299.664 325.742C300.245 326.184 301.058 326.404 302.101 326.404ZM312.846 334.527C312.465 334.527 312.024 334.447 311.522 334.286C311.021 334.146 310.489 333.956 309.928 333.715L310.83 331.699C311.292 331.9 311.693 332.05 312.034 332.15C312.395 332.251 312.676 332.301 312.876 332.301C313.418 332.301 313.859 332.15 314.2 331.85C314.561 331.569 314.862 331.158 315.102 330.616L316.125 328.089L309.657 313.107H312.214L317.329 325.291L322.383 313.107H324.97L317.75 330.255C317.369 331.138 316.968 331.9 316.547 332.542C316.145 333.183 315.654 333.675 315.072 334.016C314.491 334.357 313.749 334.527 312.846 334.527ZM337.692 331.158C336.77 329.934 335.928 328.61 335.165 327.186C334.403 325.742 333.802 324.218 333.36 322.614C332.919 321.009 332.698 319.344 332.698 317.619C332.698 315.875 332.919 314.21 333.36 312.625C333.802 311.021 334.403 309.507 335.165 308.083C335.928 306.639 336.77 305.305 337.692 304.081H340.159C339.237 305.365 338.394 306.739 337.632 308.203C336.87 309.667 336.268 311.191 335.827 312.776C335.386 314.34 335.165 315.955 335.165 317.619C335.165 319.264 335.386 320.879 335.827 322.463C336.268 324.048 336.87 325.572 337.632 327.036C338.394 328.48 339.237 329.854 340.159 331.158H337.692ZM349.69 328.51C348.246 328.51 347.032 328.239 346.05 327.698C345.067 327.136 344.285 326.384 343.703 325.442C343.121 324.499 342.7 323.416 342.439 322.192C342.199 320.949 342.078 319.635 342.078 318.251C342.078 316.446 342.259 314.832 342.62 313.408C343.001 311.984 343.542 310.78 344.244 309.797C344.946 308.795 345.799 308.032 346.802 307.511C347.804 306.99 348.938 306.729 350.201 306.729C351.244 306.729 352.277 306.899 353.3 307.24C354.343 307.561 355.265 308.012 356.068 308.594L354.654 310.399C354.012 309.958 353.32 309.617 352.578 309.376C351.836 309.116 351.124 308.985 350.442 308.985C348.396 308.985 346.842 309.848 345.779 311.572C344.716 313.297 344.244 315.915 344.365 319.425L343.823 318.883C344.305 317.66 345.077 316.697 346.14 315.995C347.203 315.273 348.456 314.912 349.9 314.912C351.244 314.912 352.438 315.203 353.48 315.784C354.543 316.366 355.366 317.178 355.947 318.221C356.549 319.244 356.85 320.417 356.85 321.741C356.85 323.045 356.549 324.218 355.947 325.261C355.346 326.284 354.503 327.086 353.42 327.668C352.357 328.229 351.114 328.51 349.69 328.51ZM349.69 326.284C350.592 326.284 351.385 326.093 352.066 325.712C352.768 325.311 353.31 324.77 353.691 324.088C354.092 323.386 354.293 322.583 354.293 321.681C354.293 320.778 354.092 319.986 353.691 319.304C353.31 318.602 352.768 318.061 352.066 317.68C351.385 317.299 350.592 317.108 349.69 317.108C348.807 317.108 348.015 317.299 347.313 317.68C346.611 318.061 346.06 318.602 345.658 319.304C345.257 319.986 345.057 320.778 345.057 321.681C345.057 322.583 345.257 323.386 345.658 324.088C346.06 324.77 346.611 325.311 347.313 325.712C348.015 326.093 348.807 326.284 349.69 326.284ZM365.654 328.51C364.811 328.51 363.949 328.39 363.066 328.149C362.204 327.888 361.382 327.497 360.599 326.976C359.837 326.454 359.205 325.783 358.704 324.96L360.75 323.787C361.452 324.669 362.214 325.311 363.036 325.712C363.859 326.113 364.711 326.314 365.593 326.314C366.977 326.314 368.1 325.893 368.963 325.05C369.845 324.188 370.287 323.065 370.287 321.681C370.287 320.317 369.865 319.204 369.023 318.342C368.181 317.479 367.078 317.048 365.714 317.048C364.972 317.048 364.24 317.218 363.518 317.559C362.796 317.88 362.234 318.281 361.833 318.763L359.546 318.221L360.569 307.09H371.791V309.376H362.826L362.194 316.085C362.755 315.744 363.377 315.473 364.059 315.273C364.741 315.072 365.433 314.972 366.135 314.972C367.419 314.972 368.562 315.253 369.565 315.814C370.567 316.376 371.36 317.158 371.941 318.161C372.523 319.164 372.814 320.317 372.814 321.621C372.814 322.985 372.503 324.188 371.881 325.231C371.279 326.254 370.437 327.056 369.354 327.638C368.291 328.219 367.058 328.51 365.654 328.51ZM383.025 328.51C381.42 328.51 379.996 328.049 378.753 327.126C377.509 326.184 376.537 324.9 375.835 323.275C375.133 321.631 374.782 319.745 374.782 317.619C374.782 315.494 375.133 313.618 375.835 311.994C376.537 310.349 377.499 309.065 378.723 308.143C379.966 307.2 381.4 306.729 383.025 306.729C384.65 306.729 386.074 307.2 387.297 308.143C388.541 309.065 389.513 310.349 390.215 311.994C390.937 313.618 391.298 315.494 391.298 317.619C391.298 319.745 390.947 321.631 390.245 323.275C389.543 324.9 388.571 326.184 387.327 327.126C386.084 328.049 384.65 328.51 383.025 328.51ZM383.025 326.224C384.148 326.224 385.141 325.853 386.003 325.111C386.886 324.369 387.568 323.356 388.049 322.072C388.551 320.788 388.801 319.304 388.801 317.619C388.801 315.935 388.551 314.451 388.049 313.167C387.568 311.863 386.886 310.85 386.003 310.128C385.141 309.386 384.148 309.015 383.025 309.015C381.902 309.015 380.909 309.386 380.047 310.128C379.184 310.85 378.502 311.863 378.001 313.167C377.52 314.451 377.279 315.935 377.279 317.619C377.279 319.304 377.52 320.788 378.001 322.072C378.502 323.356 379.184 324.369 380.047 325.111C380.929 325.853 381.922 326.224 383.025 326.224ZM398.875 328.149V309.406H392.166V307.09H408.111V309.406H401.402V328.149H398.875ZM414.308 328.149L407.87 307.09H410.427L415.692 324.268L420.776 307.09H423.303L428.297 324.208L433.622 307.09H436.18L429.651 328.149H426.913L422.04 311.211L417.016 328.149H414.308ZM437.749 328.149V307.09H440.156V315.303C440.658 314.481 441.309 313.849 442.112 313.408C442.914 312.966 443.847 312.746 444.91 312.746C446.073 312.746 447.096 312.986 447.978 313.468C448.861 313.929 449.543 314.671 450.024 315.694C450.525 316.717 450.766 318.061 450.746 319.725V328.149H448.339V320.447C448.339 318.963 448.159 317.83 447.798 317.048C447.457 316.266 446.985 315.734 446.384 315.453C445.782 315.153 445.1 315.002 444.338 315.002C443.014 315.002 441.981 315.473 441.239 316.416C440.517 317.339 440.156 318.652 440.156 320.357V328.149H437.749ZM455.464 331.158H452.998C453.94 329.854 454.783 328.48 455.525 327.036C456.287 325.572 456.888 324.048 457.33 322.463C457.771 320.879 457.992 319.264 457.992 317.619C457.992 315.955 457.771 314.34 457.33 312.776C456.888 311.191 456.287 309.667 455.525 308.203C454.783 306.739 453.94 305.365 452.998 304.081H455.464C456.407 305.305 457.249 306.639 457.992 308.083C458.754 309.507 459.355 311.021 459.797 312.625C460.238 314.21 460.459 315.875 460.459 317.619C460.459 319.344 460.238 321.009 459.797 322.614C459.355 324.218 458.754 325.742 457.992 327.186C457.249 328.61 456.407 329.934 455.464 331.158ZM464.453 328.57C463.992 328.57 463.591 328.41 463.25 328.089C462.929 327.748 462.769 327.357 462.769 326.916C462.769 326.454 462.929 326.063 463.25 325.742C463.591 325.401 463.992 325.231 464.453 325.231C464.915 325.231 465.306 325.401 465.627 325.742C465.948 326.063 466.108 326.454 466.108 326.916C466.108 327.357 465.948 327.748 465.627 328.089C465.306 328.41 464.915 328.57 464.453 328.57Z" fill="#8FCE79"/>
</svg>
