<svg xmlns="http://www.w3.org/2000/svg" width="643" height="780" fill="none" viewBox="0 0 643 780"><rect width="639.302" height="776.563" x="1.41" y="1.41" stroke="#90ce79" stroke-width="2.82" rx="6.111"/><path fill="#90ce79" d="m45.398 66.127 8.393-21.06h3.7l8.424 21.06h-3.7l-2.076-5.174h-8.995l-2.046 5.174zm6.92-8.273h6.648l-3.31-8.424zm21.245 8.634q-2.377 0-3.64-1.173-1.233-1.204-1.233-3.43v-7.912h-2.498v-2.888h2.498v-4.693h3.339v4.693h4.061v2.888h-4.06v7.28q0 1.053.481 1.595.512.541 1.474.541.302 0 .662-.12.362-.12.813-.451l1.233 2.557a6.5 6.5 0 0 1-1.564.812q-.783.3-1.565.301m18.646 6.047q-1.595 0-2.888-.27-1.265-.272-2.136-.632-.873-.362-1.354-.692l1.293-2.708q.421.21 1.114.512.722.33 1.684.571a9 9 0 0 0 2.166.24q1.294 0 2.317-.54 1.023-.512 1.594-1.595t.572-2.768v-1.504a5.7 5.7 0 0 1-2.046 1.985q-1.233.692-2.828.692-2.045 0-3.58-.932-1.504-.933-2.376-2.588-.843-1.684-.843-3.88 0-2.347.843-4.062.872-1.715 2.376-2.677 1.535-.963 3.58-.963 1.595 0 2.828.722 1.265.721 2.046 2.076v-2.437h3.37v13.478q0 2.558-.963 4.332-.963 1.805-2.708 2.708-1.745.932-4.061.932m.421-9.567q1.143 0 1.986-.601a4 4 0 0 0 1.353-1.625q.482-1.053.482-2.407 0-1.383-.481-2.407-.483-1.052-1.354-1.624-.873-.602-2.016-.602-1.203 0-2.136.602-.903.571-1.444 1.624-.512 1.023-.512 2.407 0 1.354.512 2.407a4.3 4.3 0 0 0 1.474 1.625q.933.6 2.136.601m10.581 3.16v-21.06h3.369v21.06zm13.577.36q-2.256 0-4.031-.993a7.34 7.34 0 0 1-2.738-2.798q-.992-1.775-.992-4.091t.962-4.092a7.1 7.1 0 0 1 2.738-2.767q1.745-1.023 4.001-1.023t4.001 1.023a6.9 6.9 0 0 1 2.708 2.767q.993 1.776.993 4.092t-.963 4.091a7.1 7.1 0 0 1-2.707 2.798q-1.745.993-3.972.993m0-3.099q1.234 0 2.197-.601a4.37 4.37 0 0 0 1.504-1.685q.541-1.083.541-2.497t-.571-2.467q-.542-1.083-1.505-1.685-.962-.631-2.226-.632-1.263 0-2.226.602t-1.504 1.685-.542 2.497.542 2.497a4.6 4.6 0 0 0 1.534 1.685q.993.601 2.256.602m18.233 3.1q-1.595 0-2.798-.693-1.203-.692-2.015-1.955l-.121 2.286h-3.189v-21.06h3.37v8.244q.782-1.233 1.985-1.895 1.204-.693 2.768-.692 2.046 0 3.55.993 1.534.962 2.377 2.737.872 1.745.872 4.152 0 2.376-.872 4.152-.843 1.775-2.377 2.767-1.504.963-3.55.963m-.842-3.07q1.203 0 2.136-.601.932-.632 1.474-1.715.571-1.083.571-2.497t-.541-2.497q-.511-1.083-1.444-1.685-.933-.601-2.166-.602-1.143 0-2.046.602t-1.414 1.685q-.481 1.083-.481 2.497t.481 2.497q.511 1.083 1.384 1.715a3.6 3.6 0 0 0 2.046.602m14.915 3.07q-2.708 0-4.212-1.204-1.474-1.204-1.474-3.4 0-2.347 1.565-3.58 1.595-1.233 4.422-1.233h3.821q-.18-1.655-.933-2.527-.751-.873-2.226-.873-1.083 0-1.895.451-.813.452-1.384 1.414l-2.949-1.083a7.5 7.5 0 0 1 1.264-1.835q.812-.872 2.016-1.384 1.233-.51 2.948-.511 2.196 0 3.67.872 1.475.843 2.166 2.437.722 1.595.722 3.851l-.09 8.243h-3.098l-.091-1.835a4.1 4.1 0 0 1-1.684 1.625q-1.053.57-2.558.571m.421-2.829q1.114 0 1.956-.481a3.43 3.43 0 0 0 1.324-1.354 3.7 3.7 0 0 0 .481-1.865v-.301h-2.798q-2.015 0-2.828.572-.812.54-.812 1.564 0 .873.692 1.384.722.48 1.985.481m10.061 2.467v-21.06h3.369v21.06zm18.939.361q-1.505 0-2.768-.451-1.263-.45-2.166-1.264a5.8 5.8 0 0 1-1.384-1.955l2.918-1.294a3.9 3.9 0 0 0 1.324 1.414 3.64 3.64 0 0 0 1.986.572q1.173 0 1.865-.391.722-.421.722-1.144 0-.69-.542-1.053-.541-.39-1.534-.631l-1.414-.391q-2.136-.542-3.339-1.715-1.204-1.203-1.204-2.738 0-2.256 1.444-3.49 1.475-1.233 4.212-1.233 1.384 0 2.527.421 1.173.39 2.016 1.143a3.8 3.8 0 0 1 1.173 1.715l-2.798 1.264q-.3-.753-1.143-1.144a4.1 4.1 0 0 0-1.865-.42q-1.023 0-1.595.45-.571.421-.571 1.204 0 .45.511.842.512.361 1.474.602l1.775.421q1.474.36 2.407 1.143.933.753 1.384 1.715.451.933.451 1.895 0 1.354-.782 2.377-.752 1.023-2.076 1.595-1.323.54-3.008.541m15.127 0q-2.317 0-4.092-.993a7.5 7.5 0 0 1-2.798-2.798q-.993-1.775-.993-4.091t.993-4.092a7.34 7.34 0 0 1 2.768-2.767q1.775-1.023 4.062-1.023 2.226 0 4.031 1.083 1.805 1.053 2.677 3.038l-3.128 1.204a3.76 3.76 0 0 0-1.475-1.595q-.992-.6-2.256-.601-1.233 0-2.196.631-.963.602-1.504 1.685-.542 1.053-.542 2.437t.542 2.467a4.6 4.6 0 0 0 1.534 1.685 4.2 4.2 0 0 0 2.226.601q1.264 0 2.257-.631a4 4 0 0 0 1.474-1.775l3.129 1.203q-.873 2.046-2.678 3.189-1.775 1.143-4.031 1.143m13.716 0q-2.708 0-4.211-1.203-1.475-1.204-1.475-3.4 0-2.347 1.565-3.58 1.595-1.233 4.422-1.233h3.821q-.18-1.655-.933-2.527-.752-.873-2.226-.873-1.083 0-1.895.451-.813.452-1.384 1.414l-2.948-1.083a7.5 7.5 0 0 1 1.263-1.835q.813-.872 2.016-1.384 1.233-.51 2.948-.511 2.196 0 3.67.872 1.474.843 2.167 2.437.722 1.595.722 3.851l-.091 8.243h-3.098l-.091-1.835a4.1 4.1 0 0 1-1.684 1.625q-1.053.57-2.558.571m.422-2.828q1.113 0 1.955-.481a3.43 3.43 0 0 0 1.324-1.354 3.7 3.7 0 0 0 .481-1.865v-.301h-2.798q-2.016 0-2.828.572-.812.54-.812 1.564 0 .873.692 1.384.722.48 1.986.481m10.06 2.467v-21.06h3.369v21.06zm13.367.361q-2.196 0-3.911-.993a7.5 7.5 0 0 1-2.677-2.798q-.963-1.775-.963-4.091t.993-4.092a7.2 7.2 0 0 1 2.707-2.767q1.745-1.023 3.972-1.023 2.015 0 3.64 1.053 1.624 1.023 2.557 2.978.963 1.956.963 4.663h-11.342q.15 1.896 1.384 2.979 1.263 1.083 2.978 1.083 1.385 0 2.286-.602a4.4 4.4 0 0 0 1.414-1.624l2.979 1.263a7.6 7.6 0 0 1-1.625 2.106q-.963.903-2.316 1.384-1.325.48-3.039.481m-3.851-9.657h7.491q-.09-1.083-.631-1.775a3.45 3.45 0 0 0-1.324-1.083 3.9 3.9 0 0 0-1.655-.361 4.5 4.5 0 0 0-1.715.36 3.55 3.55 0 0 0-1.444 1.054q-.601.722-.722 1.805m12.388 12.756 1.805-6.83h3.55l-2.707 6.83zm13.006-3.46 8.394-21.06h3.7l8.424 21.06h-3.7l-2.076-5.174h-8.996l-2.045 5.174zm6.92-8.273h6.648l-3.309-8.424zm15.891 8.273v-21.06h3.49v21.06zm19.597.361q-1.775 0-3.068-.722-1.265-.721-1.956-2.256t-.692-3.941v-8.484h3.37v7.701q0 1.776.421 2.768.421.993 1.143 1.384.752.39 1.715.391 1.715.03 2.647-1.113.933-1.143.933-3.28v-7.851h3.339v15.042h-3.158l-.151-2.136a5.1 5.1 0 0 1-1.895 1.865q-1.143.632-2.648.632m16.62 0q-1.504 0-2.767-.451-1.265-.45-2.166-1.264a5.8 5.8 0 0 1-1.384-1.955l2.918-1.294a3.9 3.9 0 0 0 1.324 1.414 3.63 3.63 0 0 0 1.985.572q1.173 0 1.865-.391.722-.421.722-1.144 0-.69-.541-1.053-.542-.39-1.534-.631l-1.414-.391q-2.137-.542-3.34-1.715-1.203-1.203-1.203-2.738 0-2.256 1.444-3.49 1.474-1.233 4.212-1.233 1.384 0 2.527.421 1.173.39 2.016 1.143a3.83 3.83 0 0 1 1.173 1.715l-2.798 1.264q-.302-.753-1.143-1.144a4.1 4.1 0 0 0-1.865-.42q-1.023 0-1.595.45-.572.421-.572 1.204 0 .45.512.842.511.361 1.474.602l1.775.421q1.474.36 2.407 1.143.933.753 1.384 1.715.451.933.451 1.895 0 1.354-.782 2.377-.753 1.023-2.076 1.595-1.324.54-3.009.541m14.796 0q-2.195 0-3.911-.993a7.5 7.5 0 0 1-2.677-2.798q-.963-1.775-.963-4.091t.993-4.092a7.2 7.2 0 0 1 2.708-2.767q1.745-1.023 3.971-1.023 2.016 0 3.64 1.053 1.624 1.023 2.557 2.978.963 1.956.963 4.663h-11.342q.15 1.896 1.384 2.979 1.263 1.083 2.978 1.083 1.384 0 2.287-.602a4.4 4.4 0 0 0 1.414-1.624l2.978 1.263a7.6 7.6 0 0 1-1.625 2.106q-.962.903-2.316 1.384-1.324.48-3.039.481m-3.85-9.657h7.491q-.091-1.083-.632-1.775a3.44 3.44 0 0 0-1.324-1.083 3.9 3.9 0 0 0-1.655-.361 4.5 4.5 0 0 0-1.714.36 3.54 3.54 0 0 0-1.444 1.054q-.603.722-.722 1.805m27.105 9.657q-2.316 0-4.091-.993a7.5 7.5 0 0 1-2.798-2.798q-.993-1.775-.993-4.091t.993-4.092a7.34 7.34 0 0 1 2.767-2.767q1.776-1.023 4.062-1.023 2.226 0 4.031 1.083 1.806 1.053 2.678 3.038l-3.129 1.204a3.76 3.76 0 0 0-1.474-1.595q-.993-.6-2.257-.601-1.233 0-2.196.631-.963.602-1.504 1.685-.542 1.053-.542 2.437t.542 2.467a4.6 4.6 0 0 0 1.534 1.685q.993.6 2.227.601 1.263 0 2.256-.631a4 4 0 0 0 1.474-1.775l3.129 1.203q-.873 2.046-2.678 3.189-1.775 1.143-4.031 1.143m15.793 0q-2.257 0-4.032-.993a7.33 7.33 0 0 1-2.737-2.798q-.993-1.775-.993-4.091t.962-4.092a7.1 7.1 0 0 1 2.738-2.767q1.745-1.023 4.001-1.023t4.002 1.023a6.9 6.9 0 0 1 2.707 2.767q.993 1.776.993 4.092t-.963 4.091a7.1 7.1 0 0 1-2.707 2.798q-1.746.993-3.971.993m0-3.099q1.233 0 2.196-.601a4.36 4.36 0 0 0 1.504-1.685q.542-1.083.542-2.497t-.572-2.467q-.542-1.083-1.504-1.685-.963-.631-2.227-.632-1.263 0-2.226.602t-1.504 1.685-.542 2.497.542 2.497a4.6 4.6 0 0 0 1.534 1.685q.993.601 2.257.602m15.495 3.1q-1.776 0-3.069-.723-1.264-.721-1.956-2.256t-.692-3.941v-8.484h3.37v7.701q0 1.776.421 2.768.421.993 1.143 1.384.752.39 1.715.391 1.715.03 2.648-1.113.932-1.143.932-3.28v-7.851h3.34v15.042h-3.159l-.151-2.136a5.1 5.1 0 0 1-1.895 1.865q-1.144.632-2.647.632m11.144-.362v-21.06h3.37v21.06zm12.615.361q-2.046 0-3.58-.963-1.504-.992-2.377-2.767-.842-1.776-.842-4.152 0-2.407.842-4.152.873-1.775 2.377-2.737 1.534-.993 3.58-.993 1.565 0 2.768.692 1.203.662 1.986 1.895v-8.243h3.339v21.06h-3.189l-.12-2.287a5.3 5.3 0 0 1-1.986 1.955q-1.203.692-2.798.692m.843-3.068q1.113 0 1.985-.572a4 4 0 0 0 1.354-1.625q.512-1.053.572-2.406v-.422q-.06-1.353-.572-2.376-.481-1.053-1.354-1.625-.872-.571-2.015-.572-1.204 0-2.167.602-.932.602-1.474 1.685-.511 1.083-.511 2.497t.541 2.497 1.475 1.715q.962.602 2.166.602m23.286 3.068q-2.046 0-3.581-.963-1.504-.992-2.376-2.767-.843-1.776-.843-4.152 0-2.407.843-4.152.872-1.775 2.376-2.737 1.535-.993 3.581-.993 1.563 0 2.767.692 1.204.662 1.986 1.895v-8.243h3.339v21.06h-3.189l-.12-2.287a5.3 5.3 0 0 1-1.986 1.955q-1.203.692-2.797.692m.842-3.068q1.113 0 1.985-.572a4 4 0 0 0 1.354-1.625q.512-1.053.572-2.406v-.422q-.06-1.353-.572-2.376-.481-1.053-1.354-1.625-.872-.571-2.015-.572-1.203 0-2.166.602-.933.602-1.474 1.685-.512 1.083-.512 2.497t.542 2.497 1.474 1.715a4 4 0 0 0 2.166.602m10.524 2.707V51.085h3.369v2.737q.903-1.413 2.347-2.105a6.8 6.8 0 0 1 2.978-.692v3.219a8.6 8.6 0 0 0-2.617.39q-1.203.363-1.956 1.204-.752.843-.752 2.227v8.062zm15.321.361q-2.707 0-4.212-1.203-1.474-1.204-1.474-3.4 0-2.347 1.564-3.58 1.595-1.233 4.423-1.233h3.821q-.182-1.655-.933-2.527t-2.226-.873q-1.083 0-1.896.451-.812.452-1.383 1.414l-2.949-1.083a7.5 7.5 0 0 1 1.264-1.835q.812-.872 2.015-1.384 1.235-.51 2.949-.511 2.196 0 3.67.872 1.474.843 2.166 2.437.723 1.595.722 3.851l-.09 8.243h-3.099l-.09-1.835a4.1 4.1 0 0 1-1.685 1.625q-1.053.57-2.557.571m.421-2.828q1.113 0 1.956-.481a3.44 3.44 0 0 0 1.324-1.354q.48-.842.481-1.865v-.301h-2.798q-2.015 0-2.828.572-.812.54-.812 1.564 0 .873.692 1.384.722.48 1.985.481m10.271 2.467V51.085h3.34v15.042zm1.685-17.9q-.812 0-1.414-.572a2 2 0 0 1-.572-1.414q0-.812.572-1.384a2 2 0 0 1 1.414-.571q.813 0 1.384.571.602.572.602 1.384 0 .813-.602 1.414a1.88 1.88 0 0 1-1.384.572m5.174 17.9V51.085h3.159l.151 2.136q.722-1.203 1.865-1.835 1.173-.663 2.677-.662 1.806 0 3.069.722 1.294.721 1.956 2.256.692 1.505.692 3.941v8.484h-3.37v-7.701q0-1.805-.421-2.768-.392-.993-1.143-1.384-.723-.39-1.715-.391-1.685-.03-2.618 1.113t-.932 3.28v7.851zm28.72.361q-1.775 0-3.068-.722-1.264-.721-1.956-2.256t-.692-3.941v-8.484h3.37v7.701q0 1.776.421 2.768.421.993 1.143 1.384.752.39 1.715.391 1.715.03 2.648-1.113.932-1.143.932-3.28v-7.851h3.34v15.042h-3.159l-.151-2.136a5.1 5.1 0 0 1-1.895 1.865q-1.143.632-2.648.632m11.296 5.656v-21.06h3.158l.151 2.287q.782-1.263 1.985-1.955 1.234-.693 2.828-.692 2.047 0 3.55.993 1.535.962 2.377 2.737.873 1.745.873 4.152 0 2.376-.873 4.152-.842 1.775-2.377 2.767-1.504.963-3.55.963-1.563 0-2.767-.692a5.8 5.8 0 0 1-1.986-1.895v8.243zm7.28-8.724q1.203 0 2.136-.602.933-.632 1.474-1.715.572-1.083.572-2.497t-.542-2.497q-.511-1.083-1.444-1.685-.932-.601-2.166-.602-1.143 0-2.046.602t-1.414 1.685q-.48 1.083-.481 2.497 0 1.414.481 2.497.512 1.083 1.384 1.715a3.6 3.6 0 0 0 2.046.602M51.087 144.687l18.008-36.849H47.242v-8.01h31.594v6.472l-18.008 38.387zm47.207.769q-3.975 0-7.178-1.153-3.204-1.218-5.383-3.397a12.3 12.3 0 0 1-2.948-5.255l8.075-2.371q.449.769 1.217 1.922.77 1.09 2.115 1.859 1.346.77 3.525.769 3.204 0 5.063-1.73 1.922-1.796 1.922-4.614 0-1.923-.961-3.397-.962-1.474-3.14-2.243-2.115-.833-5.576-.833h-2.691v-7.178h2.691q4.486 0 6.665-1.538t2.179-4.229q0-1.539-.769-2.756-.77-1.218-2.179-1.923-1.41-.705-3.268-.705-1.218 0-2.5.449-1.282.384-2.37 1.346-1.026.897-1.667 2.627l-7.947-2.371q.898-3.14 3.077-5.255 2.243-2.18 5.319-3.268a17.9 17.9 0 0 1 6.344-1.154q4.165 0 7.498 1.602 3.332 1.539 5.255 4.294t1.923 6.345q0 3.523-1.987 6.024-1.923 2.435-5.191 3.909 3.717 1.73 5.896 4.614 2.18 2.82 2.179 6.665 0 4.037-2.115 6.985-2.115 2.885-5.575 4.422-3.461 1.538-7.498 1.538m29.647-.769V110.85a21.8 21.8 0 0 1-4.614 2.435 12.6 12.6 0 0 1-4.871.705v-7.947q1.602.13 3.461-.769a21 21 0 0 0 3.653-2.435 48 48 0 0 0 3.332-3.012h7.434v44.86zm45.761.769q-5.32 0-8.075-2.627-2.691-2.628-2.691-7.498v-15.509h-5.191v-7.178h5.191v-9.997h8.459v9.997h8.011v7.178h-8.011v13.65q0 2.05.897 3.14.897 1.026 2.628 1.026.64 0 1.41-.257a8.7 8.7 0 0 0 1.602-.897l2.948 6.345a13.5 13.5 0 0 1-3.461 1.858q-1.859.77-3.717.769m26.628 0q-4.87 0-8.715-2.115a15.95 15.95 0 0 1-5.96-5.96q-2.115-3.78-2.115-8.715t2.115-8.716a15.04 15.04 0 0 1 5.895-5.896q3.781-2.178 8.652-2.179 4.935 0 8.716 2.179a15.05 15.05 0 0 1 5.896 5.896q2.114 3.781 2.114 8.716t-2.114 8.715q-2.115 3.782-5.896 5.96-3.717 2.115-8.588 2.115m0-7.818q2.371 0 4.166-1.154t2.755-3.14q1.026-2.051 1.026-4.678 0-2.628-1.026-4.614-1.024-2.052-2.883-3.205-1.795-1.153-4.166-1.153-2.307 0-4.166 1.153-1.794 1.153-2.819 3.205-1.026 1.986-1.026 4.614 0 2.627 1.026 4.678a7.87 7.87 0 0 0 2.884 3.14q1.858 1.154 4.229 1.154m45.388 7.049V110.85a21.8 21.8 0 0 1-4.614 2.435 12.6 12.6 0 0 1-4.87.705v-7.947q1.602.13 3.46-.769a20.8 20.8 0 0 0 3.653-2.435 48 48 0 0 0 3.333-3.012h7.434v44.86zm15.947 7.306 3.909-15.124h8.78l-6.281 15.124zm26.646-7.306V110.85a21.8 21.8 0 0 1-4.614 2.435 12.6 12.6 0 0 1-4.871.705v-7.947q1.602.13 3.461-.769a21 21 0 0 0 3.653-2.435 48 48 0 0 0 3.332-3.012h7.434v44.86zm17.356 0v-6.472q0-1.859 1.154-4.102t3.204-4.486 4.806-4.166l6.794-4.87a18.3 18.3 0 0 0 2.627-2.179 10.7 10.7 0 0 0 2.051-2.627q.833-1.475.833-2.82 0-1.666-.833-3.012-.77-1.346-2.307-2.115-1.539-.77-3.781-.769-1.923 0-3.461.769a7.1 7.1 0 0 0-2.435 2.051 7.9 7.9 0 0 0-1.346 2.755l-9.036-1.538q.64-3.204 2.756-5.96 2.114-2.755 5.511-4.422 3.46-1.73 7.818-1.73 4.999 0 8.588 1.794t5.511 4.935q1.987 3.076 1.987 7.178 0 4.165-2.307 7.434-2.244 3.204-6.217 6.024l-6.088 4.422q-1.859 1.281-3.204 2.819a11.1 11.1 0 0 0-2.051 3.397h20.444v7.69zm52.169.769q-3.075 0-6.344-1.025a18.7 18.7 0 0 1-5.832-3.076 12.3 12.3 0 0 1-3.781-5.063l8.011-2.371q1.41 2.05 3.332 3.012 1.987.961 4.102.961 3.332 0 5.383-1.987 2.115-2.05 2.115-5.447 0-3.14-2.051-5.255-1.986-2.115-5.319-2.115-1.986 0-3.653.897-1.666.899-2.563 2.115l-7.883-1.73 2.692-24.545h25.378v7.947h-17.88l-1.282 10.766q1.73-.961 3.845-1.538 2.115-.64 4.55-.577 3.653 0 6.665 1.795 3.012 1.73 4.743 4.806 1.794 3.012 1.794 7.05 0 4.55-2.051 8.01-2.05 3.46-5.639 5.448-3.59 1.922-8.332 1.922m36.481-.769v-32.043h7.946l.385 4.166q1.474-2.435 3.781-3.653 2.307-1.281 5.127-1.282 3.909 0 6.537 1.667 2.691 1.665 3.909 5.126 1.41-3.269 3.973-4.998 2.564-1.795 5.96-1.795 5.64 0 8.588 3.589 2.948 3.525 2.948 10.895v18.328h-8.46v-16.406q0-3.268-.705-5.063t-1.922-2.563q-1.218-.833-2.884-.833-3.077-.065-4.742 1.987-1.667 2.05-1.667 6.088v16.79h-8.459v-16.406q0-3.268-.705-5.063-.64-1.794-1.923-2.563-1.217-.833-2.883-.833-3.077-.065-4.743 1.987-1.602 2.05-1.602 6.088v16.79zm55.948 0v-32.043h8.46v32.043zm4.23-37.234q-1.923 0-3.397-1.41-1.474-1.474-1.474-3.46 0-1.987 1.474-3.397 1.474-1.474 3.397-1.474 1.986 0 3.396 1.474 1.474 1.41 1.474 3.397t-1.474 3.46q-1.41 1.41-3.396 1.41m11.578 37.234v-44.86h8.46v44.86zm15.32 0v-44.86h8.459v44.86zm15.832 0v-32.043h8.459v32.043zm4.23-37.234q-1.923 0-3.397-1.41-1.474-1.474-1.474-3.46 0-1.987 1.474-3.397 1.474-1.474 3.397-1.474 1.986 0 3.396 1.474 1.474 1.41 1.474 3.397t-1.474 3.46q-1.41 1.41-3.396 1.41m26.638 38.003q-4.87 0-8.715-2.115a15.95 15.95 0 0 1-5.96-5.96q-2.115-3.78-2.115-8.715t2.115-8.716a15.05 15.05 0 0 1 5.896-5.896q3.78-2.178 8.651-2.179 4.935 0 8.716 2.179a15.05 15.05 0 0 1 5.896 5.896q2.115 3.781 2.115 8.716t-2.115 8.715q-2.115 3.782-5.896 5.96-3.717 2.115-8.588 2.115m0-7.818q2.372 0 4.166-1.154t2.756-3.14q1.025-2.051 1.025-4.678 0-2.628-1.025-4.614-1.026-2.052-2.884-3.205-1.795-1.153-4.166-1.153-2.307 0-4.165 1.153-1.795 1.153-2.82 3.205-1.026 1.986-1.026 4.614 0 2.627 1.026 4.678a7.87 7.87 0 0 0 2.884 3.14q1.859 1.154 4.229 1.154m21.726 7.049v-32.043h7.947l.384 4.358q1.538-2.499 3.909-3.781 2.436-1.346 5.512-1.346 3.78 0 6.472 1.538t4.102 4.807q1.41 3.204 1.346 8.331v18.136h-8.46v-16.406q0-3.268-.769-5.063-.705-1.794-2.05-2.563-1.346-.833-3.141-.833-3.268-.065-5.062 1.987-1.731 2.05-1.731 6.088v16.79zM61.246 200.336q-4.22 0-7.519-1.785-3.3-1.84-5.138-5.03-1.84-3.246-1.84-7.356 0-4.165 1.84-7.357a13 13 0 0 1 5.084-4.976q3.246-1.839 7.465-1.839 4.056 0 7.41 2.001t4.868 5.788l-6.707 2.38q-.757-1.569-2.38-2.488-1.569-.974-3.516-.974-2.001 0-3.516.974-1.515.92-2.38 2.596t-.865 3.895q0 2.217.865 3.894a6.74 6.74 0 0 0 2.434 2.596q1.569.974 3.57.974 1.947 0 3.516-1.028 1.623-1.027 2.38-2.704l6.761 2.38q-1.568 3.84-4.922 5.95-3.3 2.109-7.41 2.109m25.668 0q-3.245 0-5.517-1.298-2.218-1.298-3.408-4.003-1.19-2.759-1.19-7.085v-15.308h7.14v13.847q0 2.705.595 4.273.65 1.515 1.785 2.218 1.19.65 2.65.649 2.814.054 4.274-1.677 1.46-1.785 1.46-5.138v-14.172h7.14v27.045h-6.707l-.27-3.678q-1.353 2.055-3.408 3.191-2.001 1.137-4.544 1.136m35.971 0q-2.76 0-4.814-1.136-2.056-1.19-3.462-3.353l-.271 3.84h-6.761v-37.863h7.14v14.496q1.352-2.11 3.408-3.191 2.055-1.136 4.76-1.136 3.732 0 6.436 1.731 2.759 1.731 4.273 4.922 1.515 3.138 1.515 7.519 0 4.327-1.515 7.518t-4.273 4.922q-2.704 1.731-6.436 1.731m-1.84-6.545q1.949 0 3.408-.973 1.515-.974 2.38-2.705.866-1.731.866-3.948 0-2.218-.866-3.949-.811-1.73-2.326-2.65-1.46-.974-3.407-.974-1.839 0-3.3.974-1.46.973-2.272 2.704-.811 1.677-.811 3.895t.811 3.948 2.218 2.705q1.46.973 3.299.973m18.735 5.896v-27.045h7.14v27.045zm3.57-31.426q-1.623 0-2.867-1.19-1.244-1.244-1.244-2.921t1.244-2.867q1.244-1.244 2.867-1.244 1.677 0 2.866 1.244 1.245 1.19 1.245 2.867t-1.245 2.921q-1.19 1.19-2.866 1.19m22.738 32.075q-4.22 0-7.519-1.785-3.3-1.84-5.139-5.03-1.839-3.246-1.839-7.356 0-4.165 1.839-7.357a13 13 0 0 1 5.085-4.976q3.246-1.839 7.464-1.839 4.057 0 7.411 2.001t4.868 5.788l-6.707 2.38q-.758-1.569-2.38-2.488-1.569-.974-3.516-.974-2.001 0-3.516.974-1.515.92-2.38 2.596t-.865 3.895q0 2.217.865 3.894a6.73 6.73 0 0 0 2.434 2.596q1.569.974 3.57.974 1.947 0 3.516-1.028 1.623-1.027 2.38-2.704l6.761 2.38q-1.569 3.84-4.922 5.95-3.3 2.109-7.41 2.109m28.477-.649v-27.045h6.707l.325 3.516q1.244-2.055 3.191-3.083 1.947-1.082 4.327-1.082 3.3 0 5.517 1.406 2.272 1.406 3.3 4.328 1.19-2.759 3.353-4.219 2.165-1.515 5.031-1.515 4.76 0 7.248 3.029 2.488 2.975 2.488 9.195v15.47h-7.14V185.84q0-2.758-.595-4.273-.596-1.515-1.623-2.164-1.027-.703-2.434-.703-2.596-.054-4.002 1.677-1.407 1.731-1.407 5.139v14.171h-7.14V185.84q0-2.758-.595-4.273-.54-1.515-1.622-2.164-1.028-.703-2.434-.703-2.596-.054-4.003 1.677-1.352 1.731-1.352 5.139v14.171zm58.943.649q-4.003 0-7.086-1.785-3.083-1.84-4.868-5.03-1.731-3.192-1.731-7.356 0-4.165 1.785-7.357 1.84-3.19 4.976-4.976 3.192-1.839 7.303-1.839 3.569 0 6.544 1.893 3.03 1.839 4.814 5.463 1.839 3.57 1.839 8.709h-19.796q.27 2.704 2.325 4.327a7.47 7.47 0 0 0 4.652 1.569q2.219 0 3.624-.92a6.54 6.54 0 0 0 2.164-2.488l6.382 2.488a13.4 13.4 0 0 1-2.975 3.949q-1.785 1.622-4.273 2.488t-5.679.865m-5.842-17.579h11.684q-.163-1.677-1.082-2.704a5.6 5.6 0 0 0-2.164-1.515q-1.244-.487-2.434-.487-1.135 0-2.488.487a5.9 5.9 0 0 0-2.326 1.46q-.974 1.029-1.19 2.759m34.259 17.579q-4.49 0-6.816-2.217-2.271-2.218-2.271-6.329V178.7h-4.382v-6.058h4.382v-8.438h7.139v8.438h6.762v6.058h-6.762v11.521q0 1.731.758 2.651.758.865 2.217.865a3.8 3.8 0 0 0 1.19-.216q.65-.27 1.353-.757l2.488 5.355a11.3 11.3 0 0 1-2.921 1.568q-1.57.65-3.137.649m21.917 0q-4.002 0-7.086-1.785-3.083-1.84-4.868-5.03-1.73-3.192-1.73-7.356 0-4.165 1.784-7.357 1.84-3.19 4.977-4.976 3.19-1.839 7.302-1.839 3.57 0 6.545 1.893 3.029 1.839 4.814 5.463 1.839 3.57 1.839 8.709h-19.797q.27 2.704 2.326 4.327 2.055 1.569 4.652 1.569 2.217 0 3.624-.92a6.54 6.54 0 0 0 2.163-2.488l6.383 2.488a13.4 13.4 0 0 1-2.975 3.949q-1.786 1.622-4.273 2.488-2.488.865-5.68.865m-5.841-17.579h11.683q-.162-1.677-1.082-2.704a5.6 5.6 0 0 0-2.163-1.515q-1.245-.487-2.434-.487-1.136 0-2.489.487a5.9 5.9 0 0 0-2.325 1.46q-.974 1.029-1.19 2.759m23.116 16.93v-27.045h7.139v4.976q1.678-2.541 4.219-3.786 2.596-1.298 5.355-1.298v6.924q-2.488 0-4.705.595-2.164.594-3.516 1.947-1.353 1.351-1.353 3.462v14.225zm30.158.649q-2.597 0-4.868-.757-2.272-.811-4.003-2.272a10.6 10.6 0 0 1-2.704-3.678l6.112-2.813q.811 1.299 2.217 2.272 1.407.92 3.246.92 1.785 0 2.758-.487.974-.541.974-1.515t-.811-1.406q-.757-.487-2.11-.811l-2.488-.649q-3.894-1.028-6.166-3.246-2.218-2.271-2.218-5.192 0-4.166 2.65-6.437 2.705-2.272 7.627-2.272 2.543 0 4.706.757 2.218.757 3.786 2.11t2.164 3.137l-5.896 2.705q-.378-1.083-1.839-1.731-1.46-.703-2.921-.703t-2.272.649q-.757.594-.757 1.676 0 .704.757 1.19.757.433 2.164.758l3.516.865q2.65.65 4.219 2.11 1.623 1.406 2.326 3.191.757 1.731.757 3.408 0 2.433-1.46 4.327-1.407 1.839-3.895 2.867-2.434 1.027-5.571 1.027m-290.354 55q-4.11 0-7.356-1.785a13.5 13.5 0 0 1-5.03-5.03q-1.785-3.192-1.785-7.356 0-4.165 1.785-7.357a12.7 12.7 0 0 1 4.976-4.976q3.19-1.839 7.302-1.839 4.166 0 7.356 1.839a12.7 12.7 0 0 1 4.977 4.976q1.785 3.192 1.784 7.357 0 4.164-1.784 7.356a13.1 13.1 0 0 1-4.977 5.03q-3.136 1.785-7.248 1.785m0-6.599q2.001 0 3.516-.973 1.515-.974 2.326-2.651.865-1.731.865-3.948 0-2.218-.865-3.895-.865-1.73-2.434-2.704-1.515-.974-3.516-.974-1.947 0-3.516.974-1.515.973-2.38 2.704-.865 1.677-.865 3.895t.865 3.948a6.64 6.64 0 0 0 2.434 2.651q1.569.973 3.57.973m20.971 5.95v-21.311h-4.49v-5.734h4.49v-2.704q0-4.328 2.218-6.707 2.217-2.435 6.761-2.435 1.569 0 3.3.541 1.784.542 3.245 1.299l-2.65 5.138a10.4 10.4 0 0 0-1.569-.649 4.5 4.5 0 0 0-1.298-.216q-1.46 0-2.164 1.027-.703.973-.703 3.192v1.514h6.653v5.734h-6.653v21.311zm37.169 0-9.196-27.045h7.249l5.625 17.417 5.679-17.417h7.032l5.571 17.147 5.68-17.147h7.248l-9.195 27.045h-7.032l-5.788-18.282-5.842 18.282zm45.976.649q-4.869 0-7.573-2.163-2.65-2.164-2.65-6.112 0-4.328 2.866-6.491 2.921-2.218 8.168-2.218h6.383q-.38-2.488-1.569-3.786-1.19-1.353-3.408-1.353-1.73 0-3.137.758-1.407.757-2.38 2.326l-6.274-2.164q.757-1.731 2.217-3.354 1.46-1.676 3.787-2.704 2.379-1.082 5.787-1.082 4.112 0 6.816 1.569 2.759 1.568 4.056 4.435 1.353 2.813 1.298 6.707l-.162 14.983h-6.653l-.108-3.137a6.87 6.87 0 0 1-2.921 2.813q-1.839.973-4.543.973m1.19-5.95q1.73 0 3.137-.811 1.406-.812 2.217-2.109.812-1.299.812-2.705v-.108h-4.057q-3.516 0-4.868.865-1.352.811-1.352 2.326 0 1.19 1.081 1.893 1.082.65 3.03.649m29.579 5.95q-4.49 0-6.815-2.217-2.272-2.218-2.272-6.329V233.7h-4.382v-6.058h4.382v-8.438h7.14v8.438h6.761v6.058h-6.761v11.521q0 1.731.757 2.651.757.865 2.218.865a3.8 3.8 0 0 0 1.19-.216q.648-.27 1.352-.757l2.488 5.355a11.3 11.3 0 0 1-2.921 1.568q-1.569.65-3.137.649m21.917 0q-4.002 0-7.085-1.785-3.084-1.84-4.868-5.03-1.731-3.192-1.731-7.356 0-4.165 1.785-7.357 1.839-3.19 4.976-4.976 3.19-1.839 7.302-1.839 3.57 0 6.545 1.893 3.029 1.839 4.814 5.463 1.839 3.57 1.839 8.709h-19.797q.27 2.704 2.326 4.327 2.055 1.569 4.652 1.569 2.217 0 3.624-.92a6.54 6.54 0 0 0 2.163-2.488l6.383 2.488a13.4 13.4 0 0 1-2.975 3.949q-1.785 1.622-4.273 2.488t-5.68.865m-5.841-17.579h11.683q-.162-1.677-1.082-2.704a5.6 5.6 0 0 0-2.163-1.515q-1.245-.487-2.434-.487-1.137 0-2.488.487a5.9 5.9 0 0 0-2.326 1.46q-.974 1.029-1.19 2.759m23.116 16.93v-27.045h7.14v4.976q1.676-2.541 4.219-3.786 2.595-1.298 5.355-1.298v6.924q-2.489 0-4.706.595-2.165.594-3.516 1.947-1.352 1.351-1.352 3.462v14.225zm32.751 10.818v-37.863h6.707l.324 3.841q1.353-2.165 3.408-3.3 2.11-1.19 4.868-1.19 3.732 0 6.437 1.731 2.758 1.731 4.273 4.922 1.514 3.138 1.514 7.519 0 4.327-1.514 7.518t-4.273 4.922q-2.705 1.731-6.437 1.731-2.705 0-4.76-1.136t-3.408-3.191v14.496zm13.468-16.714q1.947 0 3.408-.973 1.514-.974 2.38-2.705t.865-3.948q0-2.218-.865-3.949-.812-1.73-2.326-2.65-1.461-.974-3.408-.974-1.84 0-3.299.974-1.46.973-2.272 2.704-.812 1.677-.812 3.895t.812 3.948q.811 1.731 2.218 2.705 1.46.973 3.299.973m30.52 6.545q-4.003 0-7.086-1.785-3.084-1.84-4.868-5.03-1.731-3.192-1.731-7.356 0-4.165 1.785-7.357 1.84-3.19 4.976-4.976 3.192-1.839 7.302-1.839 3.57 0 6.545 1.893 3.029 1.839 4.814 5.463 1.839 3.57 1.839 8.709h-19.797q.271 2.704 2.326 4.327 2.055 1.569 4.652 1.569 2.217 0 3.624-.92a6.53 6.53 0 0 0 2.163-2.488l6.383 2.488a13.4 13.4 0 0 1-2.975 3.949q-1.785 1.622-4.273 2.488-2.489.865-5.679.865m-5.842-17.579h11.683q-.162-1.677-1.081-2.704a5.6 5.6 0 0 0-2.164-1.515q-1.244-.487-2.434-.487-1.136 0-2.488.487a5.9 5.9 0 0 0-2.326 1.46q-.974 1.029-1.19 2.759m23.116 16.93v-27.045h7.14v4.976q1.677-2.541 4.219-3.786 2.596-1.298 5.355-1.298v6.924q-2.489 0-4.706.595-2.164.594-3.516 1.947-1.353 1.351-1.352 3.462v14.225zm37.889 11.467q-1.46 0-3.245-.595-1.731-.54-3.083-1.298l2.65-5.788q.92.487 1.677.758.812.324 1.406.324 1.137 0 2.002-.649.865-.594 1.406-1.785l1.136-2.758-12.224-26.721h7.843l7.68 18.661 7.357-18.661h7.843l-12.279 29.371q-1.135 2.705-2.38 4.76-1.244 2.11-3.083 3.245-1.784 1.137-4.706 1.136m36.684-10.818q-4.002 0-7.086-1.785-3.083-1.84-4.868-5.03-1.731-3.192-1.731-7.356 0-4.165 1.785-7.357 1.839-3.19 4.977-4.976 3.19-1.839 7.302-1.839 3.57 0 6.545 1.893 3.029 1.839 4.814 5.463 1.839 3.57 1.839 8.709h-19.797q.27 2.704 2.326 4.327 2.055 1.569 4.651 1.569 2.219 0 3.624-.92a6.54 6.54 0 0 0 2.164-2.488l6.383 2.488a13.4 13.4 0 0 1-2.975 3.949q-1.786 1.622-4.273 2.488-2.488.865-5.68.865m-5.842-17.579h11.684q-.162-1.677-1.082-2.704a5.6 5.6 0 0 0-2.164-1.515q-1.243-.487-2.434-.487-1.135 0-2.488.487a5.9 5.9 0 0 0-2.326 1.46q-.973 1.029-1.19 2.759m31.879 17.579q-4.869 0-7.573-2.163-2.65-2.164-2.65-6.112 0-4.328 2.867-6.491 2.92-2.218 8.167-2.218h6.383q-.379-2.488-1.569-3.786-1.19-1.353-3.407-1.353-1.731 0-3.138.758-1.406.757-2.38 2.326l-6.274-2.164q.757-1.731 2.218-3.354 1.46-1.676 3.786-2.704 2.38-1.082 5.788-1.082 4.11 0 6.815 1.569 2.758 1.568 4.057 4.435 1.352 2.813 1.298 6.707l-.162 14.983h-6.654l-.108-3.137a6.87 6.87 0 0 1-2.921 2.813q-1.839.973-4.543.973m1.19-5.95q1.731 0 3.137-.811 1.407-.812 2.218-2.109.811-1.299.811-2.705v-.108h-4.057q-3.516 0-4.868.865-1.352.811-1.352 2.326 0 1.19 1.082 1.893 1.082.65 3.029.649m18.437 5.301v-27.045h7.14v4.976q1.676-2.541 4.219-3.786 2.595-1.298 5.354-1.298v6.924q-2.487 0-4.705.595-2.165.594-3.516 1.947-1.352 1.351-1.352 3.462v14.225zM49.817 385.489c-.666 0-1.206-.54-1.206-1.206v-3.064c0-16.505 13.38-29.884 29.885-29.884s29.885 13.379 29.885 29.884v3.064"/><path stroke="#90ce79" stroke-linecap="round" stroke-linejoin="round" stroke-width="4.269" d="M48.611 381.219v3.064c0 .666.54 1.206 1.206 1.206h57.358c.666 0 1.206-.54 1.206-1.206v-3.064c0-16.505-13.38-29.884-29.885-29.884s-29.885 13.379-29.885 29.884"/><path fill="#90ce79" d="M78.493 352.542c9.431 0 17.077-7.646 17.077-17.077s-7.646-17.077-17.077-17.077-17.077 7.646-17.077 17.077 7.646 17.077 17.077 17.077m49.691 32.955a1.204 1.204 0 0 1-1.205-1.205v-3.064c0-16.505 13.379-29.885 29.884-29.885s29.885 13.38 29.885 29.885v3.064"/><path stroke="#90ce79" stroke-linecap="round" stroke-linejoin="round" stroke-width="4.269" d="M126.979 381.228v3.064c0 .666.539 1.205 1.205 1.205h57.359c.665 0 1.205-.539 1.205-1.205v-3.064c0-16.505-13.38-29.885-29.885-29.885s-29.884 13.38-29.884 29.885"/><path fill="#90ce79" d="M156.86 352.551c9.431 0 17.077-7.646 17.077-17.077s-7.646-17.077-17.077-17.077-17.077 7.646-17.077 17.077 7.646 17.077 17.077 17.077m49.672 32.946a1.205 1.205 0 0 1-1.206-1.205v-3.064c0-16.505 13.38-29.885 29.885-29.885s29.885 13.38 29.885 29.885v3.064"/><path stroke="#90ce79" stroke-linecap="round" stroke-linejoin="round" stroke-width="4.269" d="M205.326 381.228v3.064c0 .666.54 1.205 1.206 1.205h57.358c.666 0 1.206-.539 1.206-1.205v-3.064c0-16.505-13.38-29.885-29.885-29.885s-29.885 13.38-29.885 29.885"/><path fill="#90ce79" d="M235.212 352.551c9.431 0 17.077-7.646 17.077-17.077s-7.646-17.077-17.077-17.077-17.077 7.646-17.077 17.077 7.645 17.077 17.077 17.077m49.675 32.946a1.204 1.204 0 0 1-1.205-1.205v-3.064c0-16.505 13.379-29.885 29.884-29.885s29.885 13.38 29.885 29.885v3.064"/><path stroke="#90ce79" stroke-linecap="round" stroke-linejoin="round" stroke-width="4.269" d="M283.682 381.228v3.064c0 .666.539 1.205 1.205 1.205h57.359c.665 0 1.205-.539 1.205-1.205v-3.064c0-16.505-13.38-29.885-29.885-29.885s-29.884 13.38-29.884 29.885"/><path fill="#90ce79" d="M313.567 352.551c9.431 0 17.077-7.646 17.077-17.077s-7.646-17.077-17.077-17.077-17.077 7.646-17.077 17.077 7.646 17.077 17.077 17.077m49.677 32.946a1.205 1.205 0 0 1-1.205-1.205v-3.064c0-16.505 13.38-29.885 29.885-29.885s29.884 13.38 29.884 29.885v3.064"/><path stroke="#90ce79" stroke-linecap="round" stroke-linejoin="round" stroke-width="4.269" d="M362.039 381.228v3.064c0 .666.54 1.205 1.205 1.205h57.359c.666 0 1.205-.539 1.205-1.205v-3.064c0-16.505-13.379-29.885-29.884-29.885s-29.885 13.38-29.885 29.885"/><path fill="#90ce79" d="M391.921 352.551c9.431 0 17.077-7.646 17.077-17.077s-7.646-17.077-17.077-17.077-17.077 7.646-17.077 17.077 7.645 17.077 17.077 17.077M49.817 472.197c-.666 0-1.206-.54-1.206-1.206v-3.064c0-16.504 13.38-29.884 29.885-29.884s29.885 13.38 29.885 29.884v3.064"/><path stroke="#90ce79" stroke-linecap="round" stroke-linejoin="round" stroke-width="4.269" d="M48.611 467.927v3.064c0 .666.54 1.206 1.206 1.206h57.358c.666 0 1.206-.54 1.206-1.206v-3.064c0-16.504-13.38-29.884-29.885-29.884s-29.885 13.38-29.885 29.884"/><path fill="#90ce79" d="M78.493 439.251c9.431 0 17.077-7.646 17.077-17.077s-7.646-17.077-17.077-17.077-17.077 7.645-17.077 17.077c0 9.431 7.646 17.077 17.077 17.077m49.689 32.186a1.204 1.204 0 0 1-1.205-1.205v-3.064c0-16.505 13.379-29.885 29.884-29.885s29.885 13.38 29.885 29.885v3.064"/><path stroke="#90ce79" stroke-linecap="round" stroke-linejoin="round" stroke-width="4.269" d="M126.977 467.168v3.064c0 .666.539 1.205 1.205 1.205h57.359c.665 0 1.205-.539 1.205-1.205v-3.064c0-16.505-13.38-29.885-29.885-29.885s-29.884 13.38-29.884 29.885"/><path fill="#90ce79" d="M156.858 438.491c9.431 0 17.077-7.646 17.077-17.077s-7.646-17.077-17.077-17.077-17.077 7.646-17.077 17.077 7.646 17.077 17.077 17.077m49.674 32.946a1.205 1.205 0 0 1-1.206-1.205v-3.064c0-16.505 13.38-29.885 29.885-29.885s29.885 13.38 29.885 29.885v3.064"/><path stroke="#90ce79" stroke-linecap="round" stroke-linejoin="round" stroke-width="4.269" d="M205.326 467.168v3.064c0 .666.54 1.205 1.206 1.205h57.358c.666 0 1.206-.539 1.206-1.205v-3.064c0-16.505-13.38-29.885-29.885-29.885s-29.885 13.38-29.885 29.885"/><path fill="#90ce79" d="M235.212 438.491c9.431 0 17.077-7.646 17.077-17.077s-7.646-17.077-17.077-17.077-17.077 7.646-17.077 17.077 7.645 17.077 17.077 17.077m49.675 32.946a1.204 1.204 0 0 1-1.205-1.205v-3.064c0-16.505 13.379-29.885 29.884-29.885s29.885 13.38 29.885 29.885v3.064"/><path stroke="#90ce79" stroke-linecap="round" stroke-linejoin="round" stroke-width="4.269" d="M283.682 467.168v3.064c0 .666.539 1.205 1.205 1.205h57.359c.665 0 1.205-.539 1.205-1.205v-3.064c0-16.505-13.38-29.885-29.885-29.885s-29.884 13.38-29.884 29.885"/><path fill="#90ce79" d="M313.567 438.491c9.431 0 17.077-7.646 17.077-17.077s-7.646-17.077-17.077-17.077-17.077 7.646-17.077 17.077 7.646 17.077 17.077 17.077m49.677 32.946a1.205 1.205 0 0 1-1.205-1.205v-3.064c0-16.505 13.38-29.885 29.885-29.885s29.884 13.38 29.884 29.885v3.064"/><path stroke="#90ce79" stroke-linecap="round" stroke-linejoin="round" stroke-width="4.269" d="M362.039 467.168v3.064c0 .666.54 1.205 1.205 1.205h57.359c.666 0 1.205-.539 1.205-1.205v-3.064c0-16.505-13.379-29.885-29.884-29.885s-29.885 13.38-29.885 29.885"/><path fill="#90ce79" d="M391.921 438.491c9.431 0 17.077-7.646 17.077-17.077s-7.646-17.077-17.077-17.077-17.077 7.646-17.077 17.077 7.645 17.077 17.077 17.077M50.542 555.617l-5.114-15.042h3.4l3.46 10.469 3.459-10.469h3.31l3.429 10.319 3.46-10.319h3.4l-5.115 15.042h-3.34l-3.49-10.8-3.52 10.8zm20.56 0v-21.059h3.37v8.063q.752-1.174 1.896-1.775 1.143-.632 2.587-.632 1.775 0 3.069.722 1.293.721 1.955 2.256.692 1.505.692 3.941v8.484H81.3v-7.701q0-1.805-.42-2.768-.422-.993-1.174-1.384-.722-.391-1.685-.391-1.715-.03-2.647 1.113-.903 1.143-.903 3.279v7.852zm16.74 0v-15.042h3.34v15.042zm1.685-17.9a2 2 0 0 1-1.414-.572 2 2 0 0 1-.571-1.414q0-.812.571-1.384a2 2 0 0 1 1.414-.571q.813 0 1.384.571.602.572.602 1.384 0 .813-.602 1.414a1.9 1.9 0 0 1-1.384.572m12.214 18.261q-2.316 0-4.091-.992a7.5 7.5 0 0 1-2.798-2.798q-.993-1.776-.993-4.092t.993-4.091a7.33 7.33 0 0 1 2.768-2.768q1.775-1.023 4.061-1.023 2.226 0 4.031 1.083 1.806 1.053 2.678 3.039l-3.129 1.203a3.76 3.76 0 0 0-1.474-1.595q-.993-.601-2.256-.601-1.234 0-2.197.632-.962.601-1.504 1.684-.54 1.053-.541 2.437 0 1.384.541 2.467a4.6 4.6 0 0 0 1.535 1.685 4.2 4.2 0 0 0 2.226.602q1.263 0 2.256-.632a4 4 0 0 0 1.474-1.775l3.129 1.203q-.872 2.046-2.677 3.189-1.775 1.143-4.032 1.143m8.903-.361v-21.059h3.37v8.063q.752-1.174 1.895-1.775 1.143-.632 2.588-.632 1.775 0 3.068.722 1.294.721 1.956 2.256.692 1.505.692 3.941v8.484h-3.37v-7.701q0-1.805-.421-2.768-.421-.993-1.173-1.384-.723-.391-1.685-.391-1.715-.03-2.648 1.113-.902 1.143-.902 3.279v7.852zm30.044.361q-2.197 0-3.911-.992a7.5 7.5 0 0 1-2.678-2.798q-.963-1.776-.963-4.092t.993-4.091a7.2 7.2 0 0 1 2.708-2.768q1.745-1.023 3.971-1.023 2.016 0 3.64 1.053 1.625 1.023 2.557 2.978.963 1.956.963 4.663h-11.342q.15 1.896 1.384 2.979 1.263 1.083 2.978 1.083 1.384 0 2.287-.602a4.4 4.4 0 0 0 1.414-1.624l2.978 1.263a7.6 7.6 0 0 1-1.624 2.106q-.963.903-2.317 1.384-1.323.481-3.038.481m-3.851-9.657h7.491q-.09-1.083-.632-1.775a3.44 3.44 0 0 0-1.324-1.083 3.9 3.9 0 0 0-1.654-.361q-.843 0-1.715.361a3.55 3.55 0 0 0-1.444 1.053q-.602.722-.722 1.805m23.97 15.313v-8.243a5.45 5.45 0 0 1-1.985 1.895q-1.203.692-2.768.692-2.046 0-3.58-.962-1.504-.993-2.377-2.768-.842-1.775-.842-4.152 0-2.406.842-4.152.873-1.774 2.377-2.737 1.534-.993 3.58-.993 1.595 0 2.798.722a5.54 5.54 0 0 1 2.016 1.955l.12-2.316h3.189v21.059zm-3.911-8.724q1.144 0 2.016-.602.903-.632 1.384-1.715.511-1.083.511-2.497t-.511-2.497q-.481-1.083-1.384-1.685-.873-.601-2.046-.601-1.203 0-2.136.601-.932.602-1.474 1.685-.511 1.083-.541 2.497.03 1.414.541 2.497.542 1.083 1.474 1.715a4 4 0 0 0 2.166.602m15.763 3.068q-1.776 0-3.069-.722-1.263-.721-1.956-2.256-.692-1.535-.692-3.941v-8.484h3.37v7.702q0 1.775.421 2.767.422.994 1.143 1.384.752.391 1.715.391 1.715.03 2.648-1.113.932-1.143.932-3.279v-7.852h3.34v15.042h-3.159l-.151-2.136a5.1 5.1 0 0 1-1.895 1.866q-1.144.631-2.647.631m15.988 0q-2.708 0-4.212-1.203-1.474-1.204-1.474-3.4 0-2.346 1.564-3.58 1.594-1.233 4.423-1.233h3.821q-.181-1.655-.933-2.527-.753-.873-2.226-.873-1.083 0-1.896.451-.812.452-1.384 1.414l-2.948-1.083a7.5 7.5 0 0 1 1.264-1.835q.812-.872 2.015-1.384 1.234-.511 2.949-.511 2.196 0 3.67.872 1.475.843 2.166 2.437.722 1.595.722 3.851l-.09 8.243h-3.099l-.09-1.835a4.1 4.1 0 0 1-1.685 1.625q-1.053.571-2.557.571m.421-2.828q1.113 0 1.956-.481a3.43 3.43 0 0 0 1.323-1.354 3.7 3.7 0 0 0 .482-1.865v-.301h-2.798q-2.016 0-2.828.572-.812.541-.812 1.564 0 .873.691 1.384.723.481 1.986.481m16.047 2.828q-2.376 0-3.64-1.173-1.233-1.203-1.233-3.43v-7.912h-2.497v-2.888h2.497v-4.693h3.339v4.693h4.062v2.888h-4.062v7.281q0 1.053.481 1.594.512.542 1.475.542.3 0 .661-.121.362-.12.813-.451l1.233 2.557a6.5 6.5 0 0 1-1.564.812 4.3 4.3 0 0 1-1.565.301m11.876 0q-2.196 0-3.911-.992a7.5 7.5 0 0 1-2.678-2.798q-.963-1.776-.963-4.092t.993-4.091a7.2 7.2 0 0 1 2.708-2.768q1.745-1.023 3.971-1.023 2.016 0 3.64 1.053 1.625 1.023 2.558 2.978.962 1.956.962 4.663h-11.342q.151 1.896 1.384 2.979 1.264 1.083 2.979 1.083 1.383 0 2.286-.602a4.4 4.4 0 0 0 1.414-1.624l2.978 1.263a7.6 7.6 0 0 1-1.624 2.106q-.963.903-2.317 1.384-1.323.481-3.038.481m-3.851-9.657h7.491q-.09-1.083-.632-1.775a3.45 3.45 0 0 0-1.323-1.083 3.9 3.9 0 0 0-1.655-.361q-.843 0-1.715.361a3.55 3.55 0 0 0-1.444 1.053q-.602.722-.722 1.805m18.736 9.657q-1.505 0-2.768-.451t-2.166-1.264a5.8 5.8 0 0 1-1.384-1.955l2.918-1.294q.451.843 1.324 1.414a3.64 3.64 0 0 0 1.986.572q1.173 0 1.865-.391.722-.421.722-1.143 0-.693-.542-1.053-.541-.392-1.534-.632l-1.414-.391q-2.136-.542-3.339-1.715-1.204-1.203-1.204-2.738 0-2.256 1.444-3.49 1.474-1.233 4.212-1.233 1.384 0 2.527.421a5.7 5.7 0 0 1 2.016 1.143 3.8 3.8 0 0 1 1.173 1.715l-2.798 1.264q-.3-.753-1.143-1.144a4.1 4.1 0 0 0-1.865-.421q-1.023 0-1.595.452-.571.42-.571 1.203 0 .452.511.842.512.362 1.474.602l1.775.421q1.474.361 2.407 1.143.933.752 1.384 1.715a4.3 4.3 0 0 1 .451 1.896q0 1.353-.782 2.376-.752 1.023-2.076 1.595-1.323.541-3.008.541m20.879 0q-2.377 0-3.64-1.173-1.234-1.203-1.234-3.43v-7.912h-2.497v-2.888h2.497v-4.693h3.34v4.693h4.061v2.888h-4.061v7.281q0 1.053.481 1.594.511.542 1.474.542.301 0 .662-.121.361-.12.812-.451l1.234 2.557a6.5 6.5 0 0 1-1.565.812 4.3 4.3 0 0 1-1.564.301m12.086 0q-2.256 0-4.031-.992a7.34 7.34 0 0 1-2.738-2.798q-.993-1.776-.993-4.092t.963-4.091a7.1 7.1 0 0 1 2.737-2.768q1.746-1.023 4.002-1.023t4.001 1.023a6.9 6.9 0 0 1 2.708 2.768q.993 1.775.992 4.091 0 2.316-.962 4.092a7.13 7.13 0 0 1-2.708 2.798q-1.745.992-3.971.992m0-3.098q1.233 0 2.196-.602a4.36 4.36 0 0 0 1.504-1.685q.542-1.083.542-2.497t-.572-2.467q-.541-1.082-1.504-1.685-.963-.631-2.226-.631-1.264 0-2.227.601-.962.602-1.504 1.685-.541 1.083-.541 2.497t.541 2.497a4.6 4.6 0 0 0 1.535 1.685q.992.602 2.256.602m22.902 3.098q-2.377 0-3.641-1.173-1.233-1.203-1.233-3.43v-7.912h-2.497v-2.888h2.497v-4.693h3.339v4.693h4.062v2.888h-4.062v7.281q0 1.053.482 1.594.511.542 1.474.542.301 0 .662-.121.36-.12.812-.451l1.234 2.557a6.5 6.5 0 0 1-1.565.812 4.3 4.3 0 0 1-1.564.301m5.402-.361v-21.059h3.369v8.063q.753-1.174 1.896-1.775 1.143-.632 2.587-.632 1.774 0 3.069.722 1.293.721 1.955 2.256.693 1.505.692 3.941v8.484h-3.369v-7.701q0-1.805-.421-2.768-.421-.993-1.174-1.384-.722-.391-1.685-.391-1.714-.03-2.647 1.113-.903 1.143-.903 3.279v7.852zm23.238.361q-2.196 0-3.911-.992a7.5 7.5 0 0 1-2.678-2.798q-.962-1.776-.962-4.092t.993-4.091a7.2 7.2 0 0 1 2.707-2.768q1.745-1.023 3.971-1.023 2.016 0 3.641 1.053 1.624 1.023 2.557 2.978.963 1.956.963 4.663h-11.342q.15 1.896 1.383 2.979 1.265 1.083 2.979 1.083 1.384 0 2.286-.602a4.4 4.4 0 0 0 1.414-1.624l2.979 1.263a7.6 7.6 0 0 1-1.625 2.106q-.963.903-2.316 1.384-1.325.481-3.039.481m-3.851-9.657h7.491q-.09-1.083-.631-1.775a3.46 3.46 0 0 0-1.324-1.083 3.9 3.9 0 0 0-1.655-.361q-.842 0-1.715.361a3.56 3.56 0 0 0-1.444 1.053q-.602.722-.722 1.805m24.909 9.657q-2.708 0-4.211-1.203-1.475-1.204-1.475-3.4 0-2.346 1.565-3.58 1.594-1.233 4.422-1.233h3.821q-.18-1.655-.933-2.527-.751-.873-2.226-.873-1.083 0-1.895.451-.813.452-1.384 1.414l-2.948-1.083a7.5 7.5 0 0 1 1.263-1.835q.813-.872 2.016-1.384 1.233-.511 2.948-.511 2.196 0 3.671.872 1.473.843 2.166 2.437.722 1.595.722 3.851l-.091 8.243h-3.098l-.091-1.835a4.1 4.1 0 0 1-1.684 1.625q-1.053.571-2.558.571m.422-2.828q1.113 0 1.955-.481a3.43 3.43 0 0 0 1.324-1.354 3.7 3.7 0 0 0 .481-1.865v-.301h-2.798q-2.015 0-2.828.572-.812.541-.812 1.564 0 .873.692 1.384.721.481 1.986.481m10.06 2.467v-15.042h3.159l.15 2.136q.723-1.203 1.866-1.835 1.173-.662 2.677-.662 1.805 0 3.069.722 1.293.721 1.955 2.256.692 1.505.692 3.941v8.484h-3.369v-7.701q0-1.805-.421-2.768-.391-.993-1.144-1.384-.722-.391-1.714-.391-1.685-.03-2.618 1.113t-.932 3.279v7.852zm16.53 0v-15.042h3.159l.15 2.136q.722-1.203 1.866-1.835 1.173-.662 2.677-.662 1.804 0 3.069.722 1.293.721 1.955 2.256.693 1.505.692 3.941v8.484h-3.369v-7.701q0-1.805-.422-2.768-.39-.993-1.143-1.384-.722-.391-1.715-.391-1.684-.03-2.617 1.113t-.933 3.279v7.852zm21.915.361q-1.774 0-3.069-.722-1.263-.721-1.955-2.256t-.692-3.941v-8.484h3.369v7.702q0 1.775.421 2.767.421.994 1.144 1.384.752.391 1.715.391 1.714.03 2.647-1.113t.933-3.279v-7.852h3.339v15.042h-3.159l-.15-2.136a5.1 5.1 0 0 1-1.896 1.866q-1.143.631-2.647.631m15.988 0q-2.707 0-4.212-1.203-1.474-1.204-1.474-3.4 0-2.346 1.565-3.58 1.594-1.233 4.422-1.233h3.821q-.18-1.655-.933-2.527-.752-.873-2.226-.873-1.083 0-1.895.451-.813.452-1.384 1.414l-2.949-1.083a7.5 7.5 0 0 1 1.264-1.835q.812-.872 2.016-1.384 1.233-.511 2.948-.511 2.197 0 3.67.872 1.474.843 2.166 2.437.723 1.595.722 3.851l-.09 8.243h-3.099l-.09-1.835a4.1 4.1 0 0 1-1.685 1.625q-1.053.571-2.557.571m.421-2.828q1.114 0 1.956-.481a3.43 3.43 0 0 0 1.324-1.354 3.7 3.7 0 0 0 .481-1.865v-.301h-2.798q-2.015 0-2.828.572-.812.541-.812 1.564 0 .873.692 1.384.722.481 1.985.481m10.061 2.467v-21.059h3.369v21.059zm-365.816 36v-21.059h3.37v8.063q.752-1.174 1.895-1.775 1.143-.632 2.587-.632 1.776 0 3.07.722 1.292.721 1.955 2.256.69 1.505.691 3.941v8.484h-3.369v-7.701q0-1.805-.421-2.768-.42-.993-1.173-1.384-.722-.391-1.685-.391-1.715-.03-2.648 1.113-.902 1.143-.902 3.279v7.852zm23.449.361q-2.256 0-4.031-.992a7.34 7.34 0 0 1-2.738-2.798q-.993-1.776-.993-4.092t.963-4.091a7.1 7.1 0 0 1 2.737-2.768q1.745-1.023 4.002-1.023t4.001 1.023a6.9 6.9 0 0 1 2.708 2.768q.992 1.775.992 4.091t-.962 4.092a7.1 7.1 0 0 1-2.708 2.798q-1.745.992-3.971.992m0-3.098q1.233 0 2.196-.602a4.36 4.36 0 0 0 1.504-1.685q.542-1.083.542-2.497t-.572-2.467q-.54-1.082-1.504-1.685-.963-.631-2.226-.631-1.264 0-2.227.601-.962.602-1.504 1.685-.54 1.083-.541 2.497 0 1.414.541 2.497a4.6 4.6 0 0 0 1.535 1.685q.992.602 2.256.602m15.495 3.098q-1.775 0-3.069-.722-1.263-.721-1.955-2.256t-.692-3.941v-8.484h3.37v7.702q0 1.775.42 2.767.421.994 1.144 1.384.752.391 1.715.391 1.714.03 2.647-1.113t.933-3.279v-7.852h3.339v15.042h-3.159l-.15-2.136a5.1 5.1 0 0 1-1.896 1.866q-1.143.631-2.647.631m16.62 0q-1.504 0-2.768-.451t-2.166-1.264a5.8 5.8 0 0 1-1.384-1.955l2.918-1.294q.451.843 1.324 1.414a3.64 3.64 0 0 0 1.986.572q1.173 0 1.865-.391.722-.421.722-1.143 0-.693-.541-1.053-.542-.392-1.535-.632l-1.414-.391q-2.136-.542-3.34-1.715-1.203-1.203-1.203-2.738 0-2.256 1.445-3.49 1.473-1.233 4.211-1.233 1.384 0 2.527.421a5.7 5.7 0 0 1 2.016 1.143 3.8 3.8 0 0 1 1.173 1.715l-2.797 1.264q-.301-.753-1.144-1.144a4.1 4.1 0 0 0-1.865-.421q-1.023 0-1.594.452-.572.42-.572 1.203 0 .452.511.842.512.362 1.475.602l1.775.421q1.474.361 2.406 1.143.933.752 1.384 1.715.452.933.452 1.896 0 1.353-.783 2.376-.751 1.023-2.076 1.595-1.323.541-3.008.541m14.796 0q-2.196 0-3.911-.992a7.5 7.5 0 0 1-2.678-2.798q-.962-1.776-.962-4.092t.992-4.091a7.2 7.2 0 0 1 2.708-2.768q1.745-1.023 3.971-1.023 2.016 0 3.641 1.053 1.624 1.023 2.557 2.978.962 1.956.962 4.663h-11.341q.15 1.896 1.383 2.979 1.264 1.083 2.979 1.083 1.384 0 2.286-.602a4.4 4.4 0 0 0 1.414-1.624l2.979 1.263a7.6 7.6 0 0 1-1.625 2.106q-.963.903-2.316 1.384-1.324.481-3.039.481m-3.851-9.657h7.491q-.09-1.083-.632-1.775a3.45 3.45 0 0 0-1.323-1.083 3.9 3.9 0 0 0-1.655-.361q-.843 0-1.715.361a3.56 3.56 0 0 0-1.444 1.053q-.602.722-.722 1.805m13.291 9.296v-21.059h3.369v8.063q.753-1.174 1.895-1.775 1.144-.632 2.588-.632 1.775 0 3.068.722 1.294.721 1.956 2.256.692 1.505.692 3.941v8.484h-3.37v-7.701q0-1.805-.421-2.768-.422-.993-1.173-1.384-.722-.391-1.685-.391-1.715-.03-2.647 1.113-.903 1.143-.903 3.279v7.852zm23.448.361q-2.256 0-4.031-.992a7.34 7.34 0 0 1-2.738-2.798q-.993-1.776-.993-4.092t.963-4.091a7.1 7.1 0 0 1 2.738-2.768q1.745-1.023 4.001-1.023t4.001 1.023a6.9 6.9 0 0 1 2.708 2.768q.993 1.775.993 4.091t-.963 4.092a7.1 7.1 0 0 1-2.708 2.798q-1.745.992-3.971.992m0-3.098q1.234 0 2.196-.602a4.36 4.36 0 0 0 1.505-1.685q.541-1.083.541-2.497t-.571-2.467a4.1 4.1 0 0 0-1.505-1.685q-.962-.631-2.226-.631-1.263 0-2.226.601-.963.602-1.504 1.685-.542 1.083-.542 2.497t.542 2.497a4.6 4.6 0 0 0 1.534 1.685q.993.602 2.256.602m10.11 2.737v-21.059h3.37v21.059zm12.615.361q-2.046 0-3.58-.962-1.504-.993-2.377-2.768-.842-1.775-.842-4.152 0-2.406.842-4.152.873-1.774 2.377-2.737 1.534-.993 3.58-.993 1.565 0 2.768.692 1.203.662 1.986 1.895v-8.243h3.339v21.059h-3.189l-.12-2.286a5.3 5.3 0 0 1-1.986 1.955q-1.203.692-2.798.692m.843-3.068q1.113 0 1.985-.572a4 4 0 0 0 1.354-1.625q.511-1.052.572-2.406v-.421q-.061-1.354-.572-2.377-.481-1.053-1.354-1.625-.872-.571-2.016-.571-1.203 0-2.166.601-.932.602-1.474 1.685-.511 1.083-.511 2.497t.541 2.497q.542 1.083 1.474 1.715a4 4 0 0 0 2.167.602m20.879 2.707-5.115-15.042h3.4l3.46 10.469 3.459-10.469h3.31l3.429 10.319 3.46-10.319h3.4l-5.115 15.042h-3.339l-3.49-10.8-3.52 10.8zm24.962.361q-2.708 0-4.212-1.203-1.474-1.204-1.474-3.4 0-2.346 1.565-3.58 1.594-1.233 4.422-1.233h3.821q-.18-1.655-.933-2.527-.751-.873-2.226-.873-1.083 0-1.895.451-.813.452-1.384 1.414l-2.948-1.083a7.5 7.5 0 0 1 1.263-1.835q.813-.872 2.016-1.384 1.233-.511 2.948-.511 2.197 0 3.67.872 1.474.843 2.167 2.437.722 1.595.722 3.851l-.091 8.243h-3.098l-.091-1.835a4.1 4.1 0 0 1-1.684 1.625q-1.053.571-2.558.571m.422-2.828q1.112 0 1.955-.481a3.43 3.43 0 0 0 1.324-1.354 3.7 3.7 0 0 0 .481-1.865v-.301h-2.798q-2.016 0-2.828.572-.812.541-.812 1.564 0 .873.692 1.384.721.481 1.986.481m16.047 2.828q-2.377 0-3.64-1.173-1.234-1.203-1.234-3.43v-7.912h-2.497v-2.888h2.497v-4.693h3.34v4.693h4.061v2.888h-4.061v7.281q0 1.053.481 1.594.511.542 1.474.542.301 0 .662-.121.361-.12.812-.451l1.234 2.557a6.5 6.5 0 0 1-1.565.812 4.3 4.3 0 0 1-1.564.301m11.875 0q-2.196 0-3.911-.992a7.5 7.5 0 0 1-2.677-2.798q-.963-1.776-.963-4.092t.993-4.091a7.2 7.2 0 0 1 2.707-2.768q1.745-1.023 3.972-1.023 2.015 0 3.64 1.053 1.624 1.023 2.557 2.978.963 1.956.963 4.663h-11.342q.15 1.896 1.384 2.979 1.263 1.083 2.978 1.083 1.384 0 2.287-.602a4.44 4.44 0 0 0 1.414-1.624l2.978 1.263a7.6 7.6 0 0 1-1.625 2.106q-.962.903-2.316 1.384-1.325.481-3.039.481m-3.851-9.657h7.492q-.091-1.083-.632-1.775a3.45 3.45 0 0 0-1.324-1.083 3.9 3.9 0 0 0-1.655-.361q-.842 0-1.714.361a3.56 3.56 0 0 0-1.445 1.053q-.601.722-.722 1.805m13.261 9.296v-15.042h3.369v2.738q.903-1.414 2.347-2.106a6.8 6.8 0 0 1 2.978-.692v3.219a8.6 8.6 0 0 0-2.617.391q-1.203.361-1.956 1.203t-.752 2.227v8.062zm22.668.361q-1.774 0-3.069-.722-1.263-.721-1.955-2.256t-.692-3.941v-8.484h3.369v7.702q0 1.775.421 2.767.421.994 1.144 1.384.752.391 1.714.391 1.716.03 2.648-1.113t.933-3.279v-7.852h3.339v15.042h-3.159l-.15-2.136a5.1 5.1 0 0 1-1.896 1.866q-1.143.631-2.647.631m16.62 0q-1.504 0-2.768-.451t-2.166-1.264a5.8 5.8 0 0 1-1.384-1.955l2.918-1.294q.451.843 1.324 1.414a3.64 3.64 0 0 0 1.986.572q1.173 0 1.865-.391.722-.421.722-1.143 0-.693-.542-1.053-.541-.392-1.534-.632l-1.414-.391q-2.136-.542-3.339-1.715-1.204-1.203-1.204-2.738 0-2.256 1.444-3.49 1.474-1.233 4.212-1.233 1.384 0 2.527.421a5.7 5.7 0 0 1 2.016 1.143 3.8 3.8 0 0 1 1.173 1.715l-2.797 1.264q-.301-.753-1.144-1.144a4.1 4.1 0 0 0-1.865-.421q-1.023 0-1.594.452-.573.42-.572 1.203 0 .452.511.842.512.362 1.475.602l1.775.421q1.474.361 2.406 1.143.933.752 1.384 1.715a4.3 4.3 0 0 1 .451 1.896q0 1.353-.782 2.376-.752 1.023-2.076 1.595-1.323.541-3.008.541m12.931 0q-2.708 0-4.212-1.203-1.474-1.204-1.474-3.4 0-2.346 1.564-3.58 1.594-1.233 4.423-1.233h3.82q-.18-1.655-.932-2.527-.753-.873-2.227-.873-1.083 0-1.895.451-.812.452-1.384 1.414l-2.948-1.083a7.5 7.5 0 0 1 1.263-1.835q.813-.872 2.016-1.384 1.233-.511 2.948-.511 2.196 0 3.671.872 1.474.843 2.166 2.437.722 1.595.722 3.851l-.09 8.243h-3.099l-.09-1.835a4.1 4.1 0 0 1-1.685 1.625q-1.054.571-2.557.571m.421-2.828q1.113 0 1.955-.481a3.43 3.43 0 0 0 1.324-1.354 3.7 3.7 0 0 0 .481-1.865v-.301h-2.797q-2.016 0-2.828.572-.813.541-.813 1.564 0 .873.692 1.384.722.481 1.986.481m16.529 8.875q-1.595 0-2.889-.27-1.263-.271-2.136-.632-.872-.362-1.353-.692l1.293-2.708q.421.211 1.113.512.722.33 1.685.571t2.166.241q1.294 0 2.317-.542 1.023-.511 1.594-1.594t.572-2.768v-1.504a5.7 5.7 0 0 1-2.046 1.986q-1.233.691-2.828.691-2.046 0-3.58-.932-1.504-.933-2.377-2.587-.842-1.686-.842-3.881 0-2.348.842-4.062.873-1.715 2.377-2.677 1.534-.963 3.58-.963 1.595 0 2.828.722 1.263.721 2.046 2.076v-2.437h3.369v13.478q0 2.558-.962 4.332-.963 1.805-2.708 2.708-1.745.932-4.061.932m.421-9.567q1.143 0 1.985-.601a4 4 0 0 0 1.354-1.625q.481-1.053.481-2.407 0-1.384-.481-2.406-.481-1.053-1.354-1.625-.872-.602-2.015-.602-1.204 0-2.136.602-.903.572-1.444 1.625-.512 1.022-.512 2.406 0 1.354.512 2.407a4.27 4.27 0 0 0 1.474 1.625q.931.601 2.136.601m17.289 3.52q-2.196 0-3.911-.992a7.5 7.5 0 0 1-2.677-2.798q-.963-1.776-.963-4.092t.993-4.091a7.2 7.2 0 0 1 2.707-2.768q1.745-1.023 3.972-1.023 2.015 0 3.64 1.053 1.624 1.023 2.557 2.978.963 1.956.963 4.663h-11.342q.15 1.896 1.384 2.979 1.263 1.083 2.978 1.083 1.384 0 2.286-.602a4.4 4.4 0 0 0 1.414-1.624l2.979 1.263a7.6 7.6 0 0 1-1.625 2.106q-.963.903-2.316 1.384-1.325.481-3.039.481m-3.851-9.657h7.491q-.09-1.083-.631-1.775a3.45 3.45 0 0 0-1.324-1.083 3.9 3.9 0 0 0-1.655-.361q-.842 0-1.715.361a3.56 3.56 0 0 0-1.444 1.053q-.601.722-.722 1.805m26.985 9.657q-2.256 0-4.031-.992a7.34 7.34 0 0 1-2.738-2.798q-.992-1.776-.992-4.092t.962-4.091a7.1 7.1 0 0 1 2.738-2.768q1.745-1.023 4.001-1.023t4.002 1.023a6.9 6.9 0 0 1 2.707 2.768q.993 1.775.993 4.091t-.963 4.092a7.1 7.1 0 0 1-2.707 2.798q-1.745.992-3.972.992m0-3.098q1.234 0 2.197-.602a4.37 4.37 0 0 0 1.504-1.685q.541-1.083.541-2.497t-.571-2.467a4.1 4.1 0 0 0-1.504-1.685q-.963-.631-2.227-.631t-2.226.601-1.504 1.685-.542 2.497.542 2.497a4.6 4.6 0 0 0 1.534 1.685q.993.602 2.256.602m11.615 2.737v-12.274h-2.588v-2.768h2.588v-1.595q0-2.376 1.173-3.64 1.203-1.293 3.61-1.293.782 0 1.655.27a8.5 8.5 0 0 1 1.714.662l-1.233 2.497a6 6 0 0 0-1.023-.391 2.8 2.8 0 0 0-.752-.12q-.903 0-1.354.601-.421.572-.421 1.896v1.113h3.941v2.768h-3.941v12.274zM64.289 670.946q-4.551 0-7.755-1.602a14.8 14.8 0 0 1-5.19-4.55q-1.988-2.883-2.949-6.665-.897-3.845-.897-8.267 0-5.127 1.09-9.677 1.089-4.614 3.268-8.139 2.242-3.524 5.704-5.511 3.46-1.986 8.33-1.987 3.525 0 6.858 1.026 3.397 1.025 6.088 2.948l-4.358 6.408a13.7 13.7 0 0 0-4.293-2.051q-2.243-.64-4.166-.64-4.935 0-7.755 4.357t-2.691 13.779l-1.73-1.218q1.473-3.524 4.55-5.639t7.305-2.115q4.294 0 7.563 1.987 3.332 1.986 5.19 5.447 1.923 3.396 1.923 7.626 0 4.165-1.986 7.498-1.987 3.269-5.64 5.127-3.589 1.858-8.46 1.858m0-7.434q2.115 0 3.78-.961a7.06 7.06 0 0 0 2.628-2.627q.962-1.667.962-3.846 0-2.178-.962-3.845a6.9 6.9 0 0 0-2.627-2.691q-1.666-1.026-3.781-1.026t-3.846 1.026a6.9 6.9 0 0 0-2.627 2.691q-.96 1.667-.961 3.845 0 2.18.96 3.846a7.06 7.06 0 0 0 2.629 2.627q1.73.961 3.845.961m49.234 7.434q-5.319 0-8.074-2.627-2.692-2.628-2.692-7.498v-15.509h-5.19v-7.178h5.19v-9.997h8.459v9.997h8.011v7.178h-8.011v13.65q0 2.051.898 3.141.897 1.025 2.627 1.025.64 0 1.41-.256a8.7 8.7 0 0 0 1.602-.898l2.948 6.345a13.4 13.4 0 0 1-3.461 1.858q-1.859.77-3.717.769m26.629 0q-4.871 0-8.716-2.114a15.97 15.97 0 0 1-5.96-5.96q-2.115-3.781-2.115-8.716t2.115-8.716a15.05 15.05 0 0 1 5.896-5.896q3.781-2.178 8.651-2.179 4.935 0 8.716 2.179a15.05 15.05 0 0 1 5.896 5.896q2.115 3.781 2.115 8.716t-2.115 8.716-5.896 5.96q-3.717 2.114-8.587 2.114m0-7.818q2.37 0 4.165-1.154t2.756-3.14q1.025-2.05 1.025-4.678t-1.025-4.614q-1.026-2.051-2.884-3.205-1.794-1.153-4.166-1.153-2.307 0-4.165 1.153-1.794 1.154-2.82 3.205-1.025 1.986-1.025 4.614t1.025 4.678a7.87 7.87 0 0 0 2.884 3.14q1.859 1.154 4.23 1.154m45.388 7.049V636.34a21.8 21.8 0 0 1-4.614 2.435 12.6 12.6 0 0 1-4.871.705v-7.946q1.602.128 3.461-.769a21 21 0 0 0 3.653-2.436 48 48 0 0 0 3.332-3.012h7.434v44.86zm34.852.769q-5.448 0-9.613-2.948-4.165-3.012-6.537-8.203-2.371-5.255-2.371-12.048 0-6.792 2.371-11.984 2.371-5.254 6.473-8.203 4.165-3.012 9.612-3.012 5.448 0 9.613 3.012 4.23 2.949 6.601 8.203 2.371 5.192 2.371 11.984 0 6.793-2.371 12.048-2.371 5.191-6.537 8.203-4.165 2.949-9.612 2.948m0-7.946q2.883 0 5.126-1.923 2.308-1.986 3.589-5.383 1.282-3.46 1.282-7.947 0-4.485-1.282-7.946-1.281-3.461-3.589-5.383-2.242-1.987-5.191-1.987-2.883 0-5.126 1.987-2.244 1.922-3.525 5.383-1.218 3.46-1.218 7.946 0 4.487 1.218 7.947 1.281 3.396 3.525 5.383 2.307 1.923 5.191 1.923m38.811 7.177v-32.043h7.947l.385 4.166q1.474-2.435 3.781-3.653 2.307-1.282 5.127-1.282 3.91 0 6.536 1.667 2.692 1.665 3.91 5.127 1.409-3.269 3.973-4.999 2.563-1.794 5.96-1.795 5.64 0 8.587 3.589 2.948 3.525 2.948 10.895v18.328h-8.459v-16.406q0-3.268-.705-5.062t-1.923-2.564q-1.217-.833-2.883-.833-3.076-.064-4.743 1.987-1.666 2.05-1.666 6.088v16.79h-8.459v-16.406q0-3.268-.705-5.062-.641-1.795-1.923-2.564-1.218-.833-2.884-.833-3.075-.064-4.742 1.987-1.602 2.05-1.602 6.088v16.79zm55.949 0v-32.043h8.459v32.043zm4.23-37.233q-1.923 0-3.397-1.41-1.474-1.475-1.474-3.461t1.474-3.397q1.474-1.473 3.397-1.474 1.986 0 3.396 1.474 1.474 1.41 1.474 3.397t-1.474 3.461q-1.41 1.41-3.396 1.41m11.578 37.233v-44.86h8.459v44.86zm15.32 0v-44.86h8.459v44.86zm15.832 0v-32.043h8.459v32.043zm4.229-37.233q-1.922 0-3.396-1.41-1.474-1.475-1.474-3.461t1.474-3.397q1.474-1.473 3.396-1.474 1.987 0 3.397 1.474 1.474 1.41 1.474 3.397t-1.474 3.461q-1.41 1.41-3.397 1.41m26.639 38.002q-4.87 0-8.716-2.114a16 16 0 0 1-5.96-5.96q-2.115-3.781-2.114-8.716 0-4.935 2.114-8.716a15.06 15.06 0 0 1 5.896-5.896q3.781-2.178 8.652-2.179 4.935 0 8.716 2.179a15.05 15.05 0 0 1 5.895 5.896q2.115 3.781 2.115 8.716t-2.115 8.716q-2.114 3.78-5.895 5.96-3.717 2.114-8.588 2.114m0-7.818q2.371 0 4.166-1.154 1.794-1.153 2.755-3.14 1.026-2.05 1.026-4.678t-1.026-4.614q-1.025-2.051-2.884-3.205-1.794-1.153-4.165-1.153-2.307 0-4.166 1.153-1.794 1.154-2.82 3.205-1.025 1.986-1.025 4.614t1.025 4.678a7.87 7.87 0 0 0 2.884 3.14q1.858 1.154 4.23 1.154m21.726 7.049v-32.043h7.946l.385 4.358q1.537-2.499 3.909-3.781 2.435-1.346 5.511-1.346 3.782 0 6.473 1.539 2.691 1.537 4.102 4.806 1.409 3.204 1.345 8.331v18.136h-8.459v-16.406q0-3.268-.769-5.062-.705-1.795-2.051-2.564-1.346-.833-3.14-.833-3.268-.064-5.063 1.987-1.73 2.05-1.73 6.088v16.79zm47.956.769q-3.077 0-5.768-.897-2.691-.961-4.742-2.691a12.6 12.6 0 0 1-3.205-4.358l7.242-3.333q.962 1.539 2.628 2.692 1.665 1.089 3.845 1.089 2.115 0 3.268-.576 1.154-.642 1.154-1.795t-.962-1.666q-.897-.577-2.499-.961l-2.948-.769q-4.614-1.218-7.306-3.846-2.627-2.691-2.627-6.152 0-4.934 3.14-7.626 3.204-2.691 9.036-2.692 3.012 0 5.576.898 2.627.897 4.486 2.499t2.563 3.717l-6.985 3.204q-.449-1.282-2.179-2.05-1.73-.834-3.461-.834t-2.691.769q-.898.706-.898 1.987 0 .832.898 1.41.897.513 2.563.897l4.166 1.026q3.14.768 4.998 2.499 1.923 1.666 2.756 3.781.897 2.05.897 4.037 0 2.885-1.73 5.127-1.666 2.18-4.614 3.397-2.884 1.217-6.601 1.217M61.406 721.685q-4.313 0-7.653-1.945a14.2 14.2 0 0 1-5.243-5.413q-1.903-3.467-1.903-7.949t1.903-7.907q1.903-3.466 5.2-5.412 3.341-1.987 7.654-1.987 3.044 0 5.666 1.099a13.55 13.55 0 0 1 4.566 3.002 13.1 13.1 0 0 1 3.045 4.398l-5.37 1.987a8.9 8.9 0 0 0-1.903-2.706 8.3 8.3 0 0 0-2.706-1.818q-1.522-.677-3.298-.677-2.58 0-4.61 1.311-1.986 1.268-3.128 3.509-1.1 2.241-1.1 5.201t1.142 5.243q1.141 2.241 3.172 3.552 2.029 1.269 4.65 1.269 1.819 0 3.299-.677a8.7 8.7 0 0 0 2.664-1.945 9.8 9.8 0 0 0 1.902-2.833l5.37 1.945a13.8 13.8 0 0 1-3.044 4.567 13.8 13.8 0 0 1-4.567 3.086q-2.62 1.1-5.708 1.1m23.168 0q-3.805 0-5.92-1.692-2.07-1.69-2.071-4.778 0-3.382 2.24-5.074 2.284-1.733 6.386-1.733h4.99q-.297-1.946-1.227-2.96-.93-1.057-2.664-1.057-1.353 0-2.453.592t-1.86 1.818l-4.905-1.691q.592-1.353 1.734-2.622 1.141-1.31 2.96-2.114 1.86-.846 4.524-.846 3.213 0 5.328 1.226a7.42 7.42 0 0 1 3.17 3.468q1.058 2.198 1.016 5.243l-.127 11.712h-5.201l-.085-2.452a5.4 5.4 0 0 1-2.283 2.199q-1.437.76-3.552.761m.93-4.651q1.354 0 2.453-.635a4.86 4.86 0 0 0 1.734-1.649q.633-1.014.634-2.114v-.084h-3.171q-2.749 0-3.806.676-1.057.635-1.057 1.818 0 .93.846 1.48.846.507 2.368.508m14.314 4.143v-21.141h5.244l.253 2.875q1.016-1.649 2.58-2.495 1.606-.888 3.636-.888 2.495 0 4.271 1.015t2.706 3.171q.93 2.115.888 5.497v11.966h-5.582v-10.824q0-2.156-.507-3.341-.465-1.184-1.353-1.691-.888-.55-2.072-.55-2.157-.042-3.34 1.311-1.142 1.353-1.142 4.017v11.078zm30.431.508q-3.805 0-5.92-1.692-2.072-1.69-2.072-4.778 0-3.382 2.241-5.074 2.284-1.733 6.385-1.733h4.99q-.296-1.946-1.227-2.96-.93-1.057-2.663-1.057-1.353 0-2.453.592t-1.86 1.818l-4.905-1.691q.591-1.353 1.733-2.622 1.143-1.31 2.96-2.114 1.861-.846 4.525-.846 3.213 0 5.327 1.226a7.43 7.43 0 0 1 3.172 3.468q1.057 2.198 1.014 5.243l-.127 11.712h-5.2l-.085-2.452a5.4 5.4 0 0 1-2.283 2.199q-1.439.76-3.552.761m.93-4.651q1.353 0 2.453-.635a4.86 4.86 0 0 0 1.733-1.649q.634-1.014.634-2.114v-.084h-3.171q-2.748 0-3.805.676-1.057.635-1.057 1.818 0 .93.845 1.48.846.507 2.368.508m22.728 4.651q-2.917 0-5.074-1.353-2.113-1.353-3.298-3.848-1.184-2.494-1.184-5.877 0-3.426 1.184-5.878 1.185-2.495 3.298-3.848 2.157-1.353 5.074-1.353 2.073 0 3.679.888a6.75 6.75 0 0 1 2.664 2.453v-11.29h5.581v29.598h-5.285l-.169-2.959a7.65 7.65 0 0 1-2.706 2.579q-1.65.888-3.764.888m1.438-5.117q1.395 0 2.453-.676 1.098-.719 1.733-1.987t.719-2.876v-.845q-.084-1.607-.719-2.833-.635-1.269-1.733-1.945-1.1-.72-2.495-.719-1.522 0-2.706.761-1.141.719-1.819 2.072-.633 1.353-.634 3.087 0 1.733.677 3.086t1.818 2.114q1.183.761 2.706.761m15.182 4.609v-21.141h5.581v21.141zm2.79-24.566q-1.268 0-2.241-.931-.972-.972-.972-2.283t.972-2.241q.973-.972 2.241-.972 1.31 0 2.242.972.972.93.972 2.241t-.972 2.283a3.06 3.06 0 0 1-2.242.931m14.336 25.074q-3.806 0-5.919-1.692-2.073-1.69-2.072-4.778 0-3.382 2.241-5.074 2.283-1.733 6.384-1.733h4.99q-.296-1.946-1.226-2.96-.93-1.057-2.664-1.057-1.353 0-2.453.592t-1.86 1.818l-4.905-1.691q.593-1.353 1.734-2.622 1.141-1.31 2.959-2.114 1.861-.846 4.525-.846 3.213 0 5.328 1.226a7.43 7.43 0 0 1 3.171 3.468q1.057 2.198 1.015 5.243l-.127 11.712h-5.201l-.085-2.452a5.37 5.37 0 0 1-2.283 2.199q-1.437.76-3.552.761m.93-4.651q1.353 0 2.453-.635a4.85 4.85 0 0 0 1.733-1.649q.635-1.014.635-2.114v-.084h-3.172q-2.748 0-3.805.676-1.057.635-1.057 1.818 0 .93.846 1.48.845.507 2.367.508m14.314 4.143v-21.141h5.243l.254 2.875q1.015-1.649 2.579-2.495 1.608-.888 3.637-.888 2.494 0 4.27 1.015t2.707 3.171q.93 2.115.888 5.497v11.966h-5.582v-10.824q0-2.156-.507-3.341-.465-1.184-1.353-1.691-.888-.55-2.072-.55-2.156-.042-3.341 1.311-1.141 1.353-1.141 4.017v11.078zm33.247 0v-29.598h5.581v11.163q1.058-1.564 2.622-2.368 1.565-.846 3.509-.846 2.538 0 4.271 1.015 1.776 1.015 2.706 3.171.93 2.115.93 5.497v11.966h-5.581v-10.824q0-2.156-.507-3.341-.508-1.184-1.396-1.691-.888-.55-2.072-.55-2.156-.042-3.34 1.311-1.142 1.353-1.142 4.017v11.078zm33.557.508q-3.213 0-5.75-1.396a10.54 10.54 0 0 1-3.933-3.932q-1.395-2.495-1.395-5.75t1.395-5.751a9.93 9.93 0 0 1 3.891-3.89q2.494-1.438 5.708-1.438 3.255 0 5.75 1.438a9.93 9.93 0 0 1 3.89 3.89q1.396 2.495 1.396 5.751 0 3.255-1.396 5.75a10.2 10.2 0 0 1-3.89 3.932q-2.452 1.396-5.666 1.396m0-5.159q1.564 0 2.749-.761a5 5 0 0 0 1.818-2.072q.676-1.353.676-3.086 0-1.734-.676-3.045-.676-1.353-1.903-2.114-1.183-.76-2.748-.761-1.522 0-2.749.761-1.183.76-1.86 2.114-.677 1.311-.677 3.045t.677 3.086a5.2 5.2 0 0 0 1.903 2.072q1.225.76 2.79.761m21.708 5.159q-2.538 0-4.313-1.015-1.734-1.016-2.664-3.129-.93-2.157-.93-5.539v-11.966h5.581v10.824q0 2.115.465 3.341.507 1.184 1.395 1.733a4.26 4.26 0 0 0 2.072.508q2.2.042 3.341-1.311 1.141-1.395 1.141-4.017v-11.078h5.582v21.141h-5.243l-.212-2.875q-1.057 1.607-2.664 2.495-1.565.888-3.551.888m23.961 0q-2.03 0-3.806-.592a10 10 0 0 1-3.129-1.776 8.3 8.3 0 0 1-2.114-2.875l4.778-2.199q.635 1.014 1.734 1.776 1.099.719 2.537.719 1.395 0 2.156-.381.762-.423.761-1.184 0-.761-.634-1.099-.592-.38-1.649-.634l-1.945-.508q-3.044-.803-4.82-2.537-1.734-1.776-1.734-4.059 0-3.256 2.072-5.032 2.114-1.776 5.962-1.776 1.987 0 3.678.592 1.734.593 2.96 1.649 1.227 1.057 1.692 2.453l-4.609 2.114q-.297-.846-1.438-1.353-1.141-.55-2.283-.55t-1.776.508q-.592.465-.592 1.31 0 .55.592.931.592.337 1.691.592l2.749.676q2.071.507 3.298 1.649 1.268 1.1 1.818 2.495.592 1.353.592 2.664 0 1.903-1.142 3.382-1.099 1.438-3.044 2.241-1.903.804-4.355.804m20.894 0q-3.13 0-5.54-1.396-2.41-1.437-3.805-3.932-1.353-2.495-1.353-5.75t1.395-5.751q1.438-2.495 3.89-3.89 2.495-1.438 5.709-1.438 2.79 0 5.116 1.48 2.368 1.438 3.763 4.271 1.438 2.79 1.438 6.807h-15.476q.212 2.114 1.818 3.383a5.84 5.84 0 0 0 3.637 1.226q1.733 0 2.833-.718a5.1 5.1 0 0 0 1.691-1.946l4.989 1.946a10.5 10.5 0 0 1-2.325 3.086q-1.396 1.269-3.341 1.945-1.944.677-4.439.677m-4.567-13.742h9.133q-.126-1.311-.845-2.115a4.4 4.4 0 0 0-1.692-1.183 5.2 5.2 0 0 0-1.903-.381q-.888 0-1.945.381a4.6 4.6 0 0 0-1.818 1.141q-.76.804-.93 2.157m18.014 13.234v-29.598h5.581v11.163q1.058-1.564 2.622-2.368 1.565-.846 3.509-.846 2.538 0 4.271 1.015 1.776 1.015 2.706 3.171.93 2.115.93 5.497v11.966h-5.581v-10.824q0-2.156-.507-3.341-.508-1.184-1.396-1.691-.887-.55-2.072-.55-2.156-.042-3.34 1.311-1.142 1.353-1.142 4.017v11.078zm33.557.508q-3.213 0-5.75-1.396a10.5 10.5 0 0 1-3.932-3.932q-1.396-2.495-1.396-5.75t1.396-5.751a9.9 9.9 0 0 1 3.89-3.89q2.495-1.438 5.708-1.438 3.255 0 5.75 1.438a9.9 9.9 0 0 1 3.89 3.89q1.396 2.495 1.396 5.751 0 3.255-1.396 5.75a10.2 10.2 0 0 1-3.89 3.932q-2.452 1.396-5.666 1.396m0-5.159q1.565 0 2.749-.761a5 5 0 0 0 1.818-2.072q.677-1.353.677-3.086 0-1.734-.677-3.045-.676-1.353-1.903-2.114-1.183-.76-2.748-.761-1.522 0-2.749.761-1.183.76-1.86 2.114-.677 1.311-.677 3.045t.677 3.086a5.2 5.2 0 0 0 1.903 2.072q1.226.76 2.79.761m14.181 4.651v-29.598h5.582v29.598zm18.369.508q-2.918 0-5.074-1.353-2.115-1.353-3.298-3.848-1.184-2.494-1.184-5.877 0-3.426 1.184-5.878 1.183-2.495 3.298-3.848 2.156-1.353 5.074-1.353 2.072 0 3.678.888a6.74 6.74 0 0 1 2.664 2.453v-11.29h5.582v29.598h-5.286l-.169-2.959a7.65 7.65 0 0 1-2.706 2.579q-1.649.888-3.763.888m1.437-5.117q1.396 0 2.453-.676 1.1-.719 1.733-1.987.635-1.269.719-2.876v-.845q-.084-1.607-.719-2.833-.633-1.269-1.733-1.945-1.1-.72-2.495-.719-1.522 0-2.706.761-1.142.719-1.818 2.072-.635 1.353-.635 3.087 0 1.733.677 3.086t1.818 2.114q1.183.761 2.706.761m22.751 5.117q-2.03 0-3.806-.592a10 10 0 0 1-3.129-1.776 8.3 8.3 0 0 1-2.114-2.875l4.778-2.199q.635 1.014 1.734 1.776 1.099.719 2.537.719 1.395 0 2.156-.381.761-.423.761-1.184t-.634-1.099q-.592-.38-1.649-.634l-1.945-.508q-3.044-.803-4.82-2.537-1.734-1.776-1.734-4.059 0-3.256 2.072-5.032 2.114-1.776 5.962-1.776 1.987 0 3.679.592 1.733.593 2.959 1.649 1.227 1.057 1.692 2.453l-4.609 2.114q-.297-.846-1.438-1.353-1.142-.55-2.283-.55t-1.776.508q-.592.465-.592 1.31 0 .55.592.931.592.337 1.691.592l2.749.676q2.071.507 3.298 1.649 1.268 1.1 1.818 2.495.592 1.353.592 2.664 0 1.903-1.142 3.382-1.099 1.438-3.044 2.241-1.903.804-4.355.804m14.171.127q-1.396 0-2.411-1.015a3.37 3.37 0 0 1-.972-2.41q0-1.353.972-2.368 1.015-1.015 2.411-1.015 1.395 0 2.367 1.015 1.015 1.014 1.015 2.368 0 1.395-1.015 2.41-.972 1.015-2.367 1.015"/></svg>