<svg xmlns="http://www.w3.org/2000/svg" width="1000" height="375" fill="none" viewBox="0 0 1000 375"><rect width="996.559" height="371.359" x="1.41" y="1.41" stroke="#48d36e" stroke-width="2.82" rx="6.111"/><path fill="#48d36e" d="M47.805 107.59V86.53h2.948v21.06zm6.786 0V92.547h2.678l.12 2.196q.752-1.233 1.926-1.895 1.203-.662 2.737-.662 1.775 0 3.069.722 1.323.723 2.016 2.257.722 1.503.722 3.97v8.455H65v-7.702q0-2.046-.482-3.099-.45-1.083-1.293-1.504-.813-.42-1.896-.451-1.835 0-2.858 1.293-1.023 1.294-1.023 3.64v7.823zm22.237 0v-2.377q0-.933.421-1.926a8.8 8.8 0 0 1 1.264-2.015 11.7 11.7 0 0 1 1.985-1.835l4.062-3.009q.72-.51 1.293-1.173.602-.693.933-1.414.36-.753.36-1.474 0-.963-.48-1.745a3.3 3.3 0 0 0-1.354-1.264q-.873-.48-2.076-.481-1.143 0-2.016.451a4.14 4.14 0 0 0-1.414 1.143 4.5 4.5 0 0 0-.812 1.535l-3.039-.572q.331-1.383 1.294-2.587.963-1.203 2.467-1.926 1.504-.752 3.4-.752 2.166 0 3.73.813 1.594.781 2.467 2.196.873 1.383.872 3.189a5.77 5.77 0 0 1-.962 3.219q-.933 1.474-2.708 2.858l-3.76 2.828q-1.114.842-1.775 1.745a4.45 4.45 0 0 0-.783 1.925h10.26v2.648zm24.118.361q-2.438 0-4.332-1.384-1.896-1.415-2.979-3.851-1.053-2.467-1.053-5.656t1.053-5.626q1.083-2.467 2.949-3.85 1.894-1.415 4.362-1.415t4.332 1.414q1.896 1.384 2.979 3.851 1.083 2.437 1.083 5.626t-1.083 5.656q-1.053 2.436-2.949 3.851-1.895 1.383-4.362 1.384m0-2.708q1.595 0 2.828-1.053 1.263-1.053 1.955-2.888.692-1.836.692-4.242 0-2.407-.692-4.242-.692-1.865-1.955-2.918-1.233-1.053-2.828-1.053T98.118 89.9t-1.925 2.918q-.692 1.835-.692 4.242t.692 4.272q.691 1.835 1.925 2.888a4.3 4.3 0 0 0 2.828 1.023m10.524 2.347v-2.377q0-.933.421-1.926a9 9 0 0 1 1.263-2.015 11.7 11.7 0 0 1 1.986-1.835l4.061-3.009q.723-.51 1.294-1.173.602-.693.933-1.414.36-.753.361-1.474 0-.963-.482-1.745a3.3 3.3 0 0 0-1.353-1.264q-.873-.48-2.076-.481-1.143 0-2.016.451a4.1 4.1 0 0 0-1.414 1.143 4.5 4.5 0 0 0-.812 1.535l-3.039-.572q.331-1.383 1.294-2.587.963-1.203 2.467-1.926 1.504-.752 3.399-.752 2.166 0 3.731.813 1.594.781 2.467 2.196.872 1.383.872 3.189a5.8 5.8 0 0 1-.962 3.219q-.933 1.474-2.708 2.858l-3.761 2.828q-1.112.842-1.775 1.745a4.45 4.45 0 0 0-.782 1.925h10.259v2.648zm23.426.361q-2.166 0-3.64-.813a6.6 6.6 0 0 1-2.377-2.196q-.873-1.415-1.264-3.249a18.8 18.8 0 0 1-.391-3.911q0-2.618.542-4.753.541-2.136 1.594-3.67 1.053-1.536 2.588-2.347 1.534-.843 3.519-.843 1.595 0 3.159.512a9.8 9.8 0 0 1 2.798 1.353l-1.594 2.136a7.3 7.3 0 0 0-2.076-.992q-1.113-.361-2.076-.361-2.858 0-4.392 2.437-1.535 2.406-1.384 7.43l-.602-.51q.722-1.776 2.256-2.829 1.565-1.083 3.671-1.083 2.046 0 3.61.903a6.4 6.4 0 0 1 2.437 2.466q.872 1.535.872 3.551 0 1.954-.902 3.489-.903 1.535-2.557 2.407-1.626.873-3.791.873m.03-2.588q1.233 0 2.196-.541a3.9 3.9 0 0 0 1.504-1.504q.572-.993.572-2.227 0-1.263-.572-2.226a3.8 3.8 0 0 0-1.504-1.534q-.963-.542-2.196-.542-1.264 0-2.256.542a4.03 4.03 0 0 0-1.535 1.534q-.541.963-.541 2.226 0 1.234.541 2.227a4.1 4.1 0 0 0 1.535 1.504q.992.541 2.256.541m8.41 5.686 1.745-6.558h3.099l-2.527 6.558zm11.912-3.459 8.484-21.06h3.159l8.484 21.06h-3.159l-2.257-5.626h-9.296l-2.256 5.626zm6.438-8.274h7.25l-3.61-9.055zm15.787 8.274V86.53h2.948v21.06zm16.725 0-5.114-15.043h2.888l3.701 11.132 3.73-11.132h2.828l3.67 11.011 3.731-11.01h2.858l-5.114 15.042h-2.828l-3.731-11.312-3.76 11.312zm19.919 0V92.547h2.858v15.043zm1.444-18.232q-.692 0-1.204-.511-.511-.541-.511-1.234 0-.721.511-1.203.512-.511 1.204-.511.721 0 1.203.51.512.483.512 1.204 0 .693-.512 1.234-.482.51-1.203.511m4.767 18.232V86.53h2.858v21.06zm5.98 0V86.53h2.858v21.06zm20.282.361q-1.625 0-2.888-.722a6.05 6.05 0 0 1-2.076-2.076l-.121 2.437h-2.707V86.53h2.858v8.424q.812-1.323 2.046-2.046 1.263-.722 2.888-.722 2.016 0 3.55.993 1.535.993 2.376 2.768.873 1.745.873 4.121 0 2.348-.873 4.122-.841 1.775-2.376 2.768t-3.55.993m-.692-2.588q1.353 0 2.377-.662a4.7 4.7 0 0 0 1.594-1.865q.602-1.203.602-2.768t-.572-2.737q-.571-1.204-1.594-1.866-1.024-.691-2.377-.692a3.8 3.8 0 0 0-2.226.692q-.963.662-1.505 1.866t-.541 2.737q0 1.565.541 2.768.542 1.173 1.505 1.865.961.662 2.196.662m16.429 2.588q-2.196 0-3.881-.993a7.26 7.26 0 0 1-2.648-2.798q-.962-1.774-.962-4.092 0-2.316.962-4.091.963-1.775 2.648-2.768 1.715-1.023 3.911-1.023 2.076 0 3.64 1.053 1.564 1.023 2.437 2.948.902 1.896.902 4.483h-11.582q.15 2.227 1.474 3.49 1.354 1.233 3.309 1.233 1.505 0 2.497-.692a5.1 5.1 0 0 0 1.595-1.805l2.467 1.144a7.5 7.5 0 0 1-1.565 2.075 6.8 6.8 0 0 1-2.286 1.354q-1.293.482-2.918.482m-4.393-9.537h8.334q-.09-1.203-.662-2.016a3.65 3.65 0 0 0-1.414-1.294q-.842-.45-1.895-.45-1.023 0-1.986.45a4.2 4.2 0 0 0-1.625 1.264q-.631.843-.752 2.046m25.315 9.537q-1.745 0-3.039-.722-1.293-.723-2.016-2.257-.722-1.534-.722-3.971v-8.454h2.859v7.702q0 2.016.451 3.099.481 1.083 1.324 1.504.842.421 1.895.451 1.835 0 2.858-1.293 1.023-1.294 1.023-3.641v-7.822h2.828v15.043h-2.648l-.12-2.197a5.2 5.2 0 0 1-1.956 1.896q-1.173.662-2.737.662m15.998 0q-1.595 0-2.858-.482-1.234-.481-2.106-1.293a5.4 5.4 0 0 1-1.264-1.836l2.467-1.083q.481.933 1.444 1.535a3.95 3.95 0 0 0 2.136.601q1.295 0 2.136-.481.843-.481.843-1.354 0-.842-.632-1.323t-1.835-.783l-1.414-.361q-2.106-.571-3.279-1.715-1.144-1.143-1.144-2.587 0-2.196 1.414-3.4t4.182-1.203q1.354 0 2.467.391 1.143.392 1.925 1.113a3.9 3.9 0 0 1 1.144 1.715l-2.407 1.083a2.42 2.42 0 0 0-1.234-1.323q-.872-.452-2.045-.452-1.204 0-1.896.542-.692.51-.692 1.444 0 .51.572.993.602.45 1.745.752l1.624.39q1.475.363 2.437 1.114.964.722 1.444 1.655.482.902.482 1.895 0 1.354-.752 2.377-.723.993-2.016 1.534-1.263.542-2.888.542m7.974-.361V92.547h2.858v15.043zm1.444-18.232q-.693 0-1.204-.511-.511-.541-.511-1.234 0-.721.511-1.203.511-.511 1.204-.511.722 0 1.203.51.511.483.511 1.204 0 .693-.511 1.234-.481.51-1.203.511m4.767 18.232V92.547h2.677l.121 2.196q.752-1.233 1.925-1.895 1.203-.662 2.738-.662 1.775 0 3.068.722 1.324.723 2.016 2.257.722 1.503.722 3.97v8.455h-2.858v-7.702q0-2.046-.481-3.099-.451-1.083-1.294-1.504-.812-.42-1.895-.451-1.835 0-2.858 1.293-1.023 1.294-1.023 3.64v7.823zm22.255 6.408q-1.504 0-2.737-.301-1.234-.271-2.076-.632t-1.264-.632l1.083-2.316q.391.24 1.114.541a8.3 8.3 0 0 0 1.684.542q.963.24 2.136.24 1.384 0 2.467-.571 1.083-.542 1.685-1.715.632-1.173.632-3.008v-1.565a5.7 5.7 0 0 1-2.076 2.076q-1.294.722-2.918.722-2.046 0-3.58-.933-1.504-.962-2.377-2.647-.842-1.715-.842-3.941 0-2.316.842-4.032.873-1.714 2.377-2.677 1.534-.963 3.58-.963 1.624 0 2.918.752 1.293.723 2.076 2.106v-2.497h2.858v13.538q0 2.587-.993 4.333-.962 1.774-2.678 2.677-1.684.903-3.911.903m.452-9.026q1.263 0 2.196-.662.933-.692 1.474-1.835.542-1.173.542-2.677t-.542-2.648-1.504-1.775q-.933-.662-2.196-.662-1.324 0-2.347.662-.993.632-1.564 1.775t-.572 2.648.572 2.677a5.1 5.1 0 0 0 1.594 1.835q1.023.662 2.347.662m16.769 2.618V92.547h2.678l.12 2.076q.722-1.203 1.805-1.805 1.083-.632 2.497-.632 1.804 0 3.069.843 1.263.811 1.835 2.497.662-1.625 1.865-2.467 1.203-.873 2.858-.873 2.558 0 4.001 1.685 1.445 1.655 1.414 5.114v8.605h-2.828v-7.702q0-2.046-.451-3.099-.421-1.083-1.143-1.504-.722-.42-1.685-.451-1.684 0-2.617 1.293-.903 1.294-.903 3.64v7.823h-2.858v-7.702q0-2.046-.421-3.099-.422-1.083-1.173-1.504-.723-.42-1.685-.451-1.685 0-2.617 1.293-.903 1.294-.903 3.64v7.823zm31.759.361q-2.256 0-3.971-.993a7.4 7.4 0 0 1-2.708-2.798q-.963-1.774-.963-4.092 0-2.316.963-4.091a6.97 6.97 0 0 1 2.678-2.768q1.714-1.023 3.941-1.023t3.941 1.023a6.97 6.97 0 0 1 2.677 2.768q.963 1.775.963 4.091 0 2.318-.963 4.092a7.2 7.2 0 0 1-2.677 2.798q-1.685.993-3.881.993m0-2.618q1.353 0 2.407-.662a4.6 4.6 0 0 0 1.624-1.865q.602-1.173.602-2.738t-.602-2.737a4.3 4.3 0 0 0-1.654-1.835q-1.084-.692-2.437-.692-1.384 0-2.437.692-1.053.661-1.655 1.835t-.602 2.737q0 1.565.602 2.738a4.73 4.73 0 0 0 1.685 1.865q1.083.662 2.467.662m9.816 2.257V92.547h2.858v2.708q.903-1.415 2.317-2.076a6.9 6.9 0 0 1 3.008-.692v2.708q-1.353 0-2.587.42a4.24 4.24 0 0 0-1.985 1.325q-.753.902-.753 2.466v8.184zm16.302.361q-2.196 0-3.881-.993a7.25 7.25 0 0 1-2.647-2.798q-.963-1.774-.963-4.092 0-2.316.963-4.091.962-1.775 2.647-2.768 1.715-1.023 3.911-1.023 2.076 0 3.64 1.053 1.565 1.023 2.437 2.948.903 1.896.903 4.483h-11.583q.15 2.227 1.474 3.49 1.354 1.233 3.31 1.233 1.504 0 2.497-.692a5.1 5.1 0 0 0 1.594-1.805l2.467 1.144a7.5 7.5 0 0 1-1.564 2.075 6.8 6.8 0 0 1-2.287 1.354q-1.293.482-2.918.482m-4.392-9.537h8.333q-.09-1.203-.662-2.016a3.65 3.65 0 0 0-1.414-1.294q-.842-.45-1.895-.45-1.023 0-1.986.45a4.16 4.16 0 0 0-1.624 1.264q-.632.843-.752 2.046M53.761 143.95q-2.197 0-3.88-.993a7.26 7.26 0 0 1-2.648-2.798q-.963-1.774-.963-4.092 0-2.316.963-4.091t2.647-2.768q1.715-1.023 3.911-1.023 2.077 0 3.64 1.053 1.566 1.023 2.438 2.948.902 1.896.902 4.483H49.188q.15 2.227 1.475 3.49 1.353 1.233 3.309 1.233 1.504 0 2.497-.692a5.1 5.1 0 0 0 1.594-1.805l2.467 1.144a7.5 7.5 0 0 1-1.564 2.075 6.8 6.8 0 0 1-2.287 1.354q-1.293.482-2.918.482m-4.392-9.537h8.333q-.09-1.204-.661-2.016a3.65 3.65 0 0 0-1.414-1.294q-.843-.45-1.896-.451a4.64 4.64 0 0 0-1.985.451 4.16 4.16 0 0 0-1.625 1.264q-.632.842-.752 2.046m13.39 9.176v-15.043h2.677l.12 2.196q.753-1.233 1.926-1.895 1.203-.662 2.738-.662 1.775 0 3.069.722 1.323.723 2.015 2.257.722 1.503.722 3.971v8.454h-2.858v-7.702q0-2.046-.481-3.099-.451-1.083-1.294-1.504-.812-.421-1.895-.451-1.835 0-2.858 1.293-1.023 1.294-1.023 3.641v7.822zm22.677.361q-2.196 0-3.881-.993a7.26 7.26 0 0 1-2.648-2.798q-.962-1.774-.962-4.092 0-2.316.962-4.091.963-1.775 2.648-2.768 1.715-1.023 3.91-1.023 2.077 0 3.641 1.053 1.564 1.023 2.437 2.948.903 1.896.902 4.483H80.863q.15 2.227 1.474 3.49 1.354 1.233 3.31 1.233 1.503 0 2.496-.692a5.1 5.1 0 0 0 1.595-1.805l2.467 1.144a7.5 7.5 0 0 1-1.565 2.075 6.8 6.8 0 0 1-2.286 1.354q-1.293.482-2.918.482m-4.393-9.537h8.334q-.09-1.204-.662-2.016a3.65 3.65 0 0 0-1.414-1.294q-.843-.45-1.895-.451a4.64 4.64 0 0 0-1.986.451 4.16 4.16 0 0 0-1.624 1.264q-.632.842-.753 2.046m13.39 9.176v-15.043h2.858v2.708q.903-1.415 2.317-2.076a6.9 6.9 0 0 1 3.008-.692v2.708q-1.353 0-2.587.421a4.25 4.25 0 0 0-1.986 1.324q-.752.902-.752 2.467v8.183zm15.881 6.408q-1.505 0-2.738-.301-1.233-.271-2.076-.632t-1.264-.632l1.084-2.316q.39.24 1.113.541a8.3 8.3 0 0 0 1.684.542q.963.24 2.136.24 1.384 0 2.467-.571 1.083-.542 1.685-1.715.632-1.173.632-3.008v-1.565a5.7 5.7 0 0 1-2.076 2.076q-1.293.722-2.918.722-2.046 0-3.58-.933-1.504-.962-2.377-2.647-.843-1.715-.842-3.941 0-2.317.842-4.032.873-1.714 2.377-2.677 1.534-.963 3.58-.963 1.625 0 2.918.752 1.294.723 2.076 2.106v-2.497h2.858v13.538q0 2.587-.993 4.333-.963 1.774-2.677 2.677-1.686.903-3.911.903m.451-9.026q1.263 0 2.196-.662.933-.692 1.474-1.835.542-1.174.542-2.677 0-1.505-.542-2.648-.541-1.143-1.504-1.775-.933-.662-2.196-.662-1.324 0-2.347.662-.993.632-1.564 1.775t-.572 2.648q0 1.504.572 2.677a5.1 5.1 0 0 0 1.594 1.835q1.023.663 2.347.662m12.095 8.996q-.661 0-1.474-.241a13 13 0 0 1-1.625-.632l1.053-2.346q.663.3 1.144.451.511.15.812.15.752 0 1.264-.421.541-.422.872-1.173l.933-2.257-6.559-14.952h3.039l4.873 11.673 4.814-11.673h3.069l-7.13 16.908a17 17 0 0 1-1.204 2.407q-.632 1.023-1.564 1.564-.903.542-2.317.542m24.719-3.37a30.5 30.5 0 0 1-2.528-3.971 22.7 22.7 0 0 1-1.805-4.573 18.8 18.8 0 0 1-.662-4.994q0-2.618.662-4.994a22 22 0 0 1 1.805-4.543 29.5 29.5 0 0 1 2.528-4.001h2.888a34 34 0 0 0-2.527 4.121 23.6 23.6 0 0 0-1.806 4.573 17.8 17.8 0 0 0-.661 4.844q0 2.467.661 4.844a23.6 23.6 0 0 0 1.806 4.572 37 37 0 0 0 2.527 4.122zm5.943-3.008 9.567-18.352h-10.95v-2.708h14.23v2.377l-9.567 18.683zm21.096.361q-1.625 0-2.948-.482-1.325-.481-2.226-1.323a6.2 6.2 0 0 1-1.384-1.836l2.557-1.173q.301.421.752.963.451.512 1.203.872.753.361 1.866.361 1.895 0 3.008-1.083 1.143-1.082 1.143-2.738 0-1.233-.661-2.075-.662-.873-1.956-1.324-1.263-.451-3.099-.451h-.752v-2.497h.752q2.468 0 3.851-.843 1.384-.842 1.384-2.376 0-.873-.481-1.565-.451-.721-1.294-1.143-.812-.451-1.955-.451-.723 0-1.414.24a3.9 3.9 0 0 0-1.234.662 3.9 3.9 0 0 0-.993 1.113l-2.467-1.113a5.4 5.4 0 0 1 1.444-1.895 6.7 6.7 0 0 1 2.167-1.204 8 8 0 0 1 2.617-.421q1.895 0 3.369.722t2.317 1.986q.873 1.263.872 2.858 0 1.625-.902 2.798-.903 1.143-2.467 1.835 1.805.781 2.828 2.136 1.053 1.355 1.053 3.279 0 1.866-.963 3.279-.933 1.385-2.527 2.136-1.564.753-3.46.753m14.384-.361v-18.352h-6.589v-2.708h16.156v2.708h-6.589v18.352zm15.727 0-6.378-21.06h3.009l4.964 16.487 4.813-16.487h2.978l4.724 16.396 5.054-16.396h2.978l-6.468 21.06h-3.159l-4.633-16.306-4.723 16.306zm23.617 0v-21.06h2.828v8.153q.752-1.203 1.925-1.835 1.174-.662 2.708-.662 1.774 0 3.069.722 1.293.723 2.015 2.257.722 1.503.692 3.971v8.454h-2.828v-7.702q0-2.046-.481-3.099-.481-1.083-1.324-1.504-.812-.421-1.865-.451-1.865 0-2.888 1.293-1.023 1.294-1.023 3.641v7.822zm18.224 3.008h-2.888a32 32 0 0 0 2.527-4.122 23.6 23.6 0 0 0 1.806-4.572q.661-2.377.661-4.844 0-2.497-.661-4.844a23.6 23.6 0 0 0-1.806-4.573 29.3 29.3 0 0 0-2.527-4.121h2.888a26 26 0 0 1 2.528 4.001 22 22 0 0 1 1.805 4.543q.662 2.376.662 4.994a18.8 18.8 0 0 1-.662 4.994 22.7 22.7 0 0 1-1.805 4.573 26.7 26.7 0 0 1-2.528 3.971m20.095-2.647q-2.256 0-3.49-1.144-1.233-1.173-1.233-3.339v-8.454h-2.557v-2.467h2.557v-4.693h2.858v4.693h4.272v2.467H264.8v8.033q0 1.113.541 1.715.572.571 1.625.571.301 0 .662-.12t.872-.481l1.083 2.226a6.6 6.6 0 0 1-1.504.752q-.692.24-1.414.241m4.934-.361v-21.06h2.828v8.153q.753-1.203 1.926-1.835 1.173-.662 2.707-.662 1.776 0 3.069.722 1.293.723 2.016 2.257.722 1.503.692 3.971v8.454h-2.828v-7.702q0-2.046-.482-3.099-.482-1.083-1.323-1.504-.813-.421-1.866-.451-1.865 0-2.888 1.293-1.023 1.294-1.023 3.641v7.822zm20.812.361q-2.678 0-4.182-1.204-1.474-1.233-1.474-3.399 0-2.317 1.534-3.52 1.564-1.234 4.333-1.234h4.031q-.18-1.925-1.023-2.888-.812-.993-2.467-.993-1.173 0-2.046.482-.842.481-1.414 1.504l-2.527-.963a7.1 7.1 0 0 1 1.354-1.805 5.7 5.7 0 0 1 1.956-1.263q1.143-.482 2.677-.482 2.136 0 3.55.843 1.415.841 2.106 2.436.722 1.594.692 3.942l-.03 8.183h-2.648l-.09-1.926a4.7 4.7 0 0 1-1.745 1.685q-1.083.602-2.587.602m.241-2.437q1.233 0 2.136-.512a3.85 3.85 0 0 0 1.414-1.474q.511-.963.511-2.196v-.481h-3.309q-2.076 0-2.918.661-.843.632-.843 1.775 0 1.053.782 1.655.813.572 2.227.572m9.622 2.076v-15.043h2.678l.12 2.196q.752-1.233 1.925-1.895 1.204-.662 2.738-.662 1.775 0 3.069.722 1.323.723 2.016 2.257.722 1.503.722 3.971v8.454h-2.858v-7.702q0-2.046-.482-3.099-.452-1.083-1.293-1.504-.813-.421-1.896-.451-1.835 0-2.858 1.293-1.023 1.294-1.023 3.641v7.822zm23.23 0v-21.06h6.498q3.007 0 5.325 1.354a9.44 9.44 0 0 1 3.67 3.7q1.324 2.377 1.324 5.476 0 3.069-1.324 5.445a9.65 9.65 0 0 1-3.67 3.731q-2.317 1.353-5.325 1.354zm2.948-2.768h3.55a7.1 7.1 0 0 0 2.858-.572 7.3 7.3 0 0 0 2.316-1.654 7.5 7.5 0 0 0 1.565-2.498 8 8 0 0 0 .571-3.038q0-1.625-.571-3.039a7.2 7.2 0 0 0-1.565-2.467 6.7 6.7 0 0 0-2.316-1.654 6.8 6.8 0 0 0-2.858-.602h-3.55zm22.973 3.129q-2.196 0-3.881-.993a7.26 7.26 0 0 1-2.647-2.798q-.963-1.774-.963-4.092 0-2.316.963-4.091t2.647-2.768q1.716-1.023 3.911-1.023 2.076 0 3.641 1.053 1.564 1.023 2.437 2.948.902 1.896.902 4.483h-11.583q.151 2.227 1.475 3.49 1.353 1.233 3.309 1.233 1.504 0 2.497-.692a5.1 5.1 0 0 0 1.594-1.805l2.467 1.144a7.5 7.5 0 0 1-1.564 2.075 6.9 6.9 0 0 1-2.286 1.354q-1.295.482-2.919.482m-4.392-9.537h8.333q-.09-1.204-.661-2.016a3.65 3.65 0 0 0-1.414-1.294q-.843-.45-1.896-.451-1.023 0-1.985.451a4.16 4.16 0 0 0-1.625 1.264q-.632.842-.752 2.046m13.39 9.176v-15.043h2.677l.121 2.196q.752-1.233 1.925-1.895 1.203-.662 2.738-.662 1.774 0 3.069.722 1.323.723 2.015 2.257.722 1.503.722 3.971v8.454h-2.858v-7.702q0-2.046-.481-3.099-.451-1.083-1.294-1.504-.812-.421-1.895-.451-1.835 0-2.858 1.293-1.023 1.294-1.023 3.641v7.822zm16.028 0v-15.043h2.678l.12 2.076q.722-1.203 1.805-1.805 1.083-.632 2.497-.632 1.805 0 3.069.843 1.263.811 1.835 2.497.662-1.625 1.865-2.467 1.203-.873 2.858-.873 2.558 0 4.001 1.685 1.445 1.655 1.414 5.114v8.605h-2.827v-7.702q0-2.046-.452-3.099-.421-1.083-1.143-1.504t-1.685-.451q-1.684 0-2.617 1.293-.903 1.294-.903 3.641v7.822h-2.858v-7.702q0-2.046-.421-3.099-.421-1.083-1.173-1.504-.722-.421-1.685-.451-1.685 0-2.617 1.293-.903 1.294-.903 3.641v7.822zm29.773.361q-2.677 0-4.182-1.204-1.474-1.233-1.474-3.399 0-2.317 1.535-3.52 1.565-1.234 4.332-1.234h4.031q-.18-1.925-1.023-2.888-.812-.993-2.467-.993-1.173 0-2.045.482-.843.481-1.414 1.504l-2.528-.963a7.1 7.1 0 0 1 1.354-1.805 5.7 5.7 0 0 1 1.956-1.263q1.143-.482 2.677-.482 2.136 0 3.55.843 1.414.841 2.106 2.436.722 1.594.692 3.942l-.03 8.183h-2.647l-.091-1.926a4.7 4.7 0 0 1-1.744 1.685q-1.084.602-2.588.602m.241-2.437q1.233 0 2.136-.512a3.84 3.84 0 0 0 1.414-1.474q.511-.963.511-2.196v-.481h-3.309q-2.076 0-2.918.661-.843.632-.843 1.775 0 1.053.783 1.655.812.572 2.226.572m9.622 2.076v-15.043h2.858v2.708q.903-1.415 2.317-2.076a6.9 6.9 0 0 1 3.008-.692v2.708q-1.353 0-2.587.421a4.25 4.25 0 0 0-1.985 1.324q-.753.902-.753 2.467v8.183zm9.653 0v-21.06h2.858v12.485l6.047-6.468h3.49l-5.596 6.107 6.168 8.936h-3.43l-4.603-6.89-2.076 2.226v4.664zM51.926 179.951q-2.677 0-4.182-1.204-1.474-1.233-1.474-3.399 0-2.317 1.534-3.52 1.564-1.234 4.333-1.234h4.031q-.18-1.925-1.023-2.888-.812-.993-2.467-.993-1.173 0-2.045.482-.843.481-1.415 1.504l-2.527-.963a7.1 7.1 0 0 1 1.354-1.805 5.7 5.7 0 0 1 1.956-1.263q1.143-.482 2.677-.482 2.136 0 3.55.843 1.415.841 2.106 2.436.722 1.594.692 3.942l-.03 8.183h-2.647l-.09-1.926a4.7 4.7 0 0 1-1.746 1.685q-1.083.602-2.587.602m.24-2.437q1.234 0 2.137-.512a3.84 3.84 0 0 0 1.414-1.474q.51-.963.511-2.196v-.481h-3.31q-2.075 0-2.917.661-.843.632-.843 1.775 0 1.053.782 1.655.813.572 2.227.572m9.623 2.076v-15.043h2.678l.12 2.196q.752-1.233 1.926-1.895 1.203-.662 2.737-.662 1.776 0 3.069.722 1.323.723 2.016 2.257.722 1.503.722 3.971v8.454H72.2v-7.702q0-2.046-.482-3.099-.45-1.083-1.293-1.504-.813-.421-1.896-.451-1.835 0-2.858 1.293-1.023 1.294-1.023 3.641v7.822zm21.985.361q-2.046 0-3.58-.993-1.504-.993-2.377-2.768-.842-1.774-.842-4.122 0-2.376.843-4.121.871-1.775 2.376-2.768 1.534-.993 3.58-.993 1.595 0 2.858.722 1.264.723 2.076 2.046v-8.424h2.828v21.06H88.83l-.09-2.437a6.06 6.06 0 0 1-2.077 2.076q-1.263.722-2.888.722m.662-2.588q1.233 0 2.166-.662.964-.661 1.504-1.805.573-1.173.602-2.677v-.301q-.03-1.504-.602-2.647-.54-1.174-1.504-1.836-.932-.662-2.196-.662-1.324 0-2.347.692-1.022.662-1.594 1.866-.572 1.173-.572 2.737t.572 2.768q.602 1.173 1.624 1.865 1.023.662 2.347.662m16.741 2.227v-15.043h2.678l.12 2.196q.753-1.233 1.926-1.895 1.203-.662 2.738-.662 1.775 0 3.068.722 1.325.723 2.016 2.257.722 1.503.722 3.971v8.454h-2.858v-7.702q0-2.046-.482-3.099-.45-1.083-1.293-1.504-.812-.421-1.896-.451-1.835 0-2.858 1.293-1.022 1.294-1.022 3.641v7.822zm22.677.361q-2.195 0-3.881-.993a7.26 7.26 0 0 1-2.647-2.798q-.963-1.774-.963-4.092 0-2.316.963-4.091t2.647-2.768q1.715-1.023 3.912-1.023 2.075 0 3.64 1.053 1.564 1.023 2.437 2.948.902 1.896.902 4.483h-11.582q.15 2.227 1.474 3.49 1.353 1.233 3.309 1.233 1.504 0 2.497-.692a5.1 5.1 0 0 0 1.595-1.805l2.466 1.144a7.5 7.5 0 0 1-1.564 2.075 6.9 6.9 0 0 1-2.286 1.354q-1.294.482-2.919.482m-4.392-9.537h8.334q-.091-1.204-.662-2.016a3.65 3.65 0 0 0-1.414-1.294q-.843-.45-1.896-.451-1.023 0-1.985.451a4.16 4.16 0 0 0-1.625 1.264q-.632.842-.752 2.046m18.204 9.537q-2.678 0-4.182-1.204-1.474-1.233-1.474-3.399 0-2.317 1.534-3.52 1.565-1.234 4.332-1.234h4.031q-.18-1.925-1.022-2.888-.813-.993-2.467-.993-1.174 0-2.046.482-.843.481-1.414 1.504l-2.527-.963a7.1 7.1 0 0 1 1.354-1.805 5.7 5.7 0 0 1 1.955-1.263q1.143-.482 2.678-.482 2.136 0 3.55.843 1.413.841 2.106 2.436.722 1.594.692 3.942l-.031 8.183h-2.647l-.09-1.926a4.7 4.7 0 0 1-1.745 1.685q-1.084.602-2.587.602m.24-2.437q1.234 0 2.136-.512a3.84 3.84 0 0 0 1.414-1.474q.512-.963.512-2.196v-.481h-3.31q-2.076 0-2.918.661-.843.632-.842 1.775 0 1.053.782 1.655.812.572 2.226.572m9.623 2.076v-15.043h2.858v2.708q.902-1.415 2.316-2.076a6.9 6.9 0 0 1 3.009-.692v2.708a8 8 0 0 0-2.588.421 4.25 4.25 0 0 0-1.985 1.324q-.752.902-.752 2.467v8.183zm9.652 0v-21.06h2.859v21.06zm7.816 6.378q-.662 0-1.474-.241a13 13 0 0 1-1.625-.632l1.053-2.346q.662.3 1.143.451.512.15.813.15.751 0 1.263-.421.541-.422.873-1.173l.932-2.257-6.558-14.952h3.038l4.874 11.673 4.814-11.673h3.068l-7.13 16.908a17 17 0 0 1-1.203 2.407q-.632 1.023-1.564 1.564-.903.542-2.317.542m24.899-6.017q-2.677 0-4.182-1.204-1.474-1.233-1.474-3.399 0-2.317 1.534-3.52 1.565-1.234 4.332-1.234h4.032q-.182-1.925-1.023-2.888-.813-.993-2.467-.993-1.173 0-2.046.482-.842.481-1.414 1.504l-2.527-.963a7.1 7.1 0 0 1 1.354-1.805 5.7 5.7 0 0 1 1.955-1.263q1.144-.482 2.678-.482 2.136 0 3.55.843 1.415.841 2.106 2.436.722 1.594.692 3.942l-.03 8.183h-2.648l-.09-1.926a4.7 4.7 0 0 1-1.745 1.685q-1.083.602-2.587.602m.24-2.437q1.234 0 2.137-.512a3.84 3.84 0 0 0 1.413-1.474q.512-.963.512-2.196v-.481h-3.309q-2.076 0-2.919.661-.842.632-.842 1.775 0 1.053.782 1.655.813.572 2.226.572m15.008 2.437q-1.595 0-2.858-.482-1.233-.482-2.106-1.293a5.4 5.4 0 0 1-1.263-1.836l2.467-1.083q.48.933 1.444 1.535a3.95 3.95 0 0 0 2.136.601q1.293 0 2.136-.481.842-.481.842-1.354 0-.842-.632-1.323t-1.835-.783l-1.414-.361q-2.106-.571-3.279-1.715-1.143-1.143-1.143-2.587 0-2.196 1.414-3.399 1.413-1.204 4.181-1.204 1.354 0 2.467.391 1.144.392 1.926 1.113a3.94 3.94 0 0 1 1.143 1.715l-2.407 1.083a2.42 2.42 0 0 0-1.233-1.323q-.873-.452-2.046-.452-1.203 0-1.895.542-.692.511-.692 1.444 0 .512.571.993.602.451 1.745.752l1.625.391q1.474.362 2.437 1.113.962.722 1.444 1.655.481.902.481 1.895 0 1.354-.752 2.377-.721.993-2.016 1.534-1.263.542-2.888.542m14.303-.361v-15.043h2.677l.12 2.076q.722-1.203 1.806-1.805 1.083-.632 2.497-.632 1.805 0 3.068.843 1.264.811 1.835 2.497.662-1.625 1.866-2.467 1.203-.873 2.858-.873 2.556 0 4.001 1.685 1.444 1.655 1.414 5.114v8.605h-2.828v-7.702q0-2.046-.451-3.099-.421-1.083-1.144-1.504-.721-.421-1.684-.451-1.685 0-2.618 1.293-.902 1.294-.902 3.641v7.822h-2.858v-7.702q0-2.046-.421-3.099-.421-1.083-1.174-1.504-.722-.421-1.684-.451-1.685 0-2.618 1.293-.903 1.294-.902 3.641v7.822zm30.374.361q-1.745 0-3.038-.722-1.294-.723-2.016-2.257t-.722-3.971v-8.454h2.858v7.702q0 2.016.451 3.099.482 1.083 1.324 1.504t1.896.451q1.835 0 2.858-1.293 1.022-1.294 1.022-3.641v-7.822h2.828v15.043h-2.647l-.12-2.197a5.2 5.2 0 0 1-1.956 1.896q-1.173.662-2.738.662m17.473 0q-2.257 0-4.002-.993a7.34 7.34 0 0 1-2.737-2.798q-.963-1.774-.963-4.092 0-2.316.963-4.091a7.2 7.2 0 0 1 2.707-2.768q1.745-1.023 3.972-1.023 2.195 0 3.941 1.023 1.774 1.023 2.647 2.918l-2.587 1.083a4.2 4.2 0 0 0-1.655-1.745q-1.053-.631-2.437-.631-1.353 0-2.407.662-1.053.662-1.654 1.865-.602 1.173-.602 2.707 0 1.535.602 2.708a4.73 4.73 0 0 0 1.685 1.865q1.083.663 2.436.662 1.384 0 2.467-.692a4.47 4.47 0 0 0 1.625-1.925l2.617 1.053q-.872 1.985-2.647 3.098-1.745 1.114-3.971 1.114m8.64-.361v-21.06h2.828v8.153q.753-1.203 1.926-1.835 1.173-.662 2.707-.662 1.776 0 3.069.722 1.294.723 2.016 2.257.722 1.503.692 3.971v8.454h-2.828v-7.702q0-2.046-.482-3.099-.482-1.083-1.323-1.504-.813-.421-1.866-.451-1.865 0-2.888 1.293-1.023 1.294-1.023 3.641v7.822zm27.321.361q-2.678 0-4.182-1.204-1.473-1.233-1.474-3.399 0-2.317 1.535-3.52 1.565-1.234 4.332-1.234h4.031q-.18-1.925-1.023-2.888-.811-.993-2.467-.993-1.173 0-2.045.482-.843.481-1.414 1.504l-2.527-.963a7.1 7.1 0 0 1 1.353-1.805 5.7 5.7 0 0 1 1.956-1.263q1.143-.482 2.677-.482 2.136 0 3.55.843 1.414.841 2.106 2.436.723 1.594.692 3.942l-.03 8.183h-2.647l-.091-1.926a4.7 4.7 0 0 1-1.744 1.685q-1.083.602-2.588.602m.241-2.437q1.233 0 2.136-.512a3.84 3.84 0 0 0 1.414-1.474q.511-.963.511-2.196v-.481h-3.309q-2.076 0-2.918.661-.843.632-.843 1.775 0 1.053.783 1.655.812.572 2.226.572m15.008 2.437q-1.595 0-2.858-.482-1.234-.482-2.106-1.293a5.4 5.4 0 0 1-1.264-1.836l2.467-1.083q.481.933 1.444 1.535a3.95 3.95 0 0 0 2.136.601q1.294 0 2.136-.481t.842-1.354q0-.842-.631-1.323-.632-.481-1.835-.783l-1.414-.361q-2.106-.571-3.28-1.715-1.143-1.143-1.143-2.587 0-2.196 1.414-3.399 1.414-1.204 4.182-1.204 1.354 0 2.467.391 1.143.392 1.925 1.113a3.9 3.9 0 0 1 1.143 1.715l-2.406 1.083a2.42 2.42 0 0 0-1.234-1.323q-.872-.452-2.046-.452-1.203 0-1.895.542-.692.511-.692 1.444 0 .512.572.993.602.451 1.745.752l1.624.391q1.474.362 2.437 1.113.963.722 1.444 1.655.482.902.482 1.895 0 1.354-.753 2.377-.722.993-2.015 1.534-1.264.542-2.888.542m14.994-.361v-21.06h12.756v2.708h-9.808v6.619h8.544v2.707h-8.544v9.026zm15.076 0v-15.043h2.858v15.043zm1.444-18.232q-.692 0-1.203-.511-.512-.541-.512-1.234 0-.721.512-1.203a1.65 1.65 0 0 1 1.203-.512q.722 0 1.203.512.512.482.512 1.203 0 .693-.512 1.234-.48.511-1.203.511m4.767 18.232v-15.043h2.678l.12 2.196q.752-1.233 1.925-1.895 1.204-.662 2.738-.662 1.775 0 3.069.722 1.323.723 2.016 2.257.722 1.503.722 3.971v8.454h-2.859v-7.702q0-2.046-.481-3.099-.451-1.083-1.294-1.504-.812-.421-1.895-.451-1.835 0-2.858 1.293-1.023 1.294-1.023 3.641v7.822zm16.028 0v-21.06h2.858v21.06zm10.794.361q-2.678 0-4.182-1.204-1.474-1.233-1.474-3.399 0-2.317 1.535-3.52 1.565-1.234 4.332-1.234h4.031q-.18-1.925-1.023-2.888-.812-.993-2.467-.993-1.173 0-2.045.482-.843.481-1.414 1.504l-2.527-.963a7.1 7.1 0 0 1 1.353-1.805 5.7 5.7 0 0 1 1.956-1.263q1.144-.482 2.677-.482 2.137 0 3.55.843 1.414.841 2.106 2.436.723 1.594.692 3.942l-.03 8.183h-2.647l-.091-1.926a4.7 4.7 0 0 1-1.744 1.685q-1.083.602-2.588.602m.241-2.437q1.233 0 2.136-.512a3.84 3.84 0 0 0 1.414-1.474q.511-.963.511-2.196v-.481h-3.31q-2.076 0-2.918.661-.843.632-.843 1.775 0 1.053.783 1.655.812.572 2.226.572m9.622 2.076v-15.043h2.678l.12 2.196q.753-1.233 1.926-1.895 1.203-.662 2.737-.662 1.776 0 3.069.722 1.324.723 2.016 2.257.722 1.503.722 3.971v8.454h-2.858v-7.702q0-2.046-.482-3.099-.45-1.083-1.293-1.504-.813-.421-1.896-.451-1.835 0-2.858 1.293-1.023 1.294-1.023 3.641v7.822zm21.985.361q-2.045 0-3.58-.993-1.505-.993-2.376-2.768-.843-1.774-.843-4.122 0-2.376.843-4.121.872-1.775 2.376-2.768 1.535-.993 3.58-.993 1.595 0 2.858.722 1.265.723 2.076 2.046v-8.424h2.828v21.06h-2.707l-.091-2.437a6.05 6.05 0 0 1-2.075 2.076q-1.264.722-2.889.722m.662-2.588q1.234 0 2.166-.662.963-.661 1.505-1.805.571-1.173.601-2.677v-.301q-.03-1.504-.601-2.647-.542-1.174-1.505-1.836-.932-.662-2.196-.662-1.323 0-2.346.692-1.023.662-1.595 1.866-.572 1.173-.572 2.737t.572 2.768q.602 1.173 1.625 1.865 1.023.662 2.346.662m23.541 2.588q-2.256 0-3.971-.993a7.4 7.4 0 0 1-2.708-2.798q-.963-1.774-.963-4.092 0-2.316.963-4.091a6.97 6.97 0 0 1 2.678-2.768q1.714-1.023 3.941-1.023t3.941 1.023a7 7 0 0 1 2.677 2.768q.963 1.775.963 4.091t-.963 4.092a7.2 7.2 0 0 1-2.677 2.798q-1.685.993-3.881.993m0-2.618q1.353 0 2.407-.662a4.6 4.6 0 0 0 1.624-1.865q.602-1.173.602-2.738t-.602-2.737a4.3 4.3 0 0 0-1.655-1.835q-1.083-.692-2.436-.692-1.384 0-2.437.692a4.6 4.6 0 0 0-1.655 1.835q-.602 1.173-.602 2.737t.602 2.738a4.73 4.73 0 0 0 1.685 1.865q1.083.663 2.467.662m9.816 2.257v-15.043h2.858v2.708q.903-1.415 2.317-2.076a6.9 6.9 0 0 1 3.008-.692v2.708q-1.353 0-2.587.421a4.25 4.25 0 0 0-1.985 1.324q-.753.902-.753 2.467v8.183zm-399.67 36v-21.06h6.77q2.166 0 3.7.662 1.564.661 2.407 1.956.872 1.293.872 3.189 0 1.443-.692 2.587-.662 1.113-1.865 1.835 1.564.751 2.377 2.016.842 1.263.842 3.008 0 1.836-.842 3.159-.813 1.294-2.317 1.986-1.504.662-3.61.662zm2.919-2.678h4.543q1.865 0 2.888-.872 1.053-.903 1.053-2.407 0-1.685-1.204-2.587-1.173-.933-3.31-.933h-3.97zm0-9.326h4.332q1.624 0 2.557-.873.963-.872.963-2.406 0-1.595-1.083-2.437-1.083-.873-3.039-.873h-3.73zm20.594 12.365q-2.196 0-3.88-.993a7.26 7.26 0 0 1-2.648-2.798q-.963-1.774-.963-4.092 0-2.316.963-4.091t2.647-2.768q1.715-1.023 3.911-1.023 2.076 0 3.64 1.053 1.566 1.023 2.437 2.948.903 1.896.903 4.483H66.744q.15 2.227 1.475 3.49 1.353 1.233 3.309 1.233 1.504 0 2.497-.692a5.1 5.1 0 0 0 1.594-1.805l2.467 1.144a7.5 7.5 0 0 1-1.564 2.075 6.8 6.8 0 0 1-2.287 1.354q-1.293.482-2.918.482m-4.392-9.537h8.333q-.09-1.204-.661-2.016a3.65 3.65 0 0 0-1.414-1.294q-.843-.45-1.896-.451-1.023 0-1.986.451a4.16 4.16 0 0 0-1.624 1.264q-.632.842-.752 2.046m13.39 9.176v-21.06h2.858v21.06zm12.208 6.408q-1.505 0-2.738-.301-1.233-.271-2.076-.632t-1.264-.632l1.084-2.316q.39.24 1.113.541a8.3 8.3 0 0 0 1.685.542q.962.24 2.136.24 1.383 0 2.466-.571 1.083-.542 1.685-1.715.632-1.173.632-3.008v-1.565a5.7 5.7 0 0 1-2.076 2.076q-1.293.722-2.918.722-2.046 0-3.58-.933-1.504-.962-2.377-2.647-.842-1.715-.842-3.941 0-2.317.842-4.032.873-1.714 2.377-2.677 1.534-.963 3.58-.963 1.625 0 2.918.752 1.294.723 2.076 2.106v-2.497h2.858v13.538q0 2.587-.993 4.333-.963 1.774-2.677 2.677-1.685.903-3.911.903m.45-9.026q1.264 0 2.197-.662.933-.692 1.474-1.835.542-1.174.542-2.677 0-1.505-.542-2.648-.54-1.143-1.504-1.775-.933-.662-2.196-.662-1.324 0-2.347.662-.993.632-1.564 1.775t-.572 2.648q0 1.504.572 2.677a5.1 5.1 0 0 0 1.594 1.835q1.023.663 2.347.662m10.442 2.618v-15.043h2.858v15.043zm1.444-18.232q-.693 0-1.204-.511-.511-.541-.511-1.234 0-.721.511-1.203a1.65 1.65 0 0 1 1.204-.512q.722 0 1.203.512.511.482.511 1.203 0 .693-.511 1.234a1.58 1.58 0 0 1-1.203.511m10.182 18.593q-1.745 0-3.039-.722-1.293-.723-2.015-2.257t-.722-3.971v-8.454h2.858v7.702q0 2.016.451 3.099.481 1.083 1.324 1.504.842.421 1.895.451 1.836 0 2.858-1.293 1.023-1.294 1.023-3.641v-7.822h2.828v15.043h-2.647l-.121-2.197a5.2 5.2 0 0 1-1.955 1.896q-1.173.662-2.738.662m10.613-.361v-15.043h2.677l.121 2.076q.722-1.203 1.805-1.805 1.083-.632 2.497-.632 1.804 0 3.069.843 1.263.811 1.835 2.497.662-1.625 1.865-2.467 1.203-.873 2.858-.873 2.558 0 4.001 1.685 1.444 1.655 1.414 5.114v8.605h-2.828v-7.702q0-2.046-.451-3.099-.422-1.083-1.143-1.504t-1.685-.451q-1.685 0-2.617 1.293-.903 1.294-.903 3.641v7.822h-2.858v-7.702q0-2.046-.421-3.099-.421-1.083-1.173-1.504-.722-.421-1.685-.451-1.685 0-2.617 1.293-.903 1.294-.903 3.641v7.822zm26.253.421q-.751 0-1.324-.542a1.8 1.8 0 0 1-.541-1.323q0-.783.541-1.324.573-.542 1.324-.542a1.8 1.8 0 0 1 1.324.542q.572.541.572 1.324 0 .782-.572 1.323a1.8 1.8 0 0 1-1.324.542M47.804 251.59v-21.06H60.56v2.708h-9.807v6.619h8.544v2.707h-8.544v9.026zm21.519.361q-2.256 0-3.971-.993a7.4 7.4 0 0 1-2.708-2.798q-.963-1.774-.963-4.092 0-2.316.963-4.091a7 7 0 0 1 2.678-2.768q1.715-1.023 3.94-1.023 2.228 0 3.942 1.023a7 7 0 0 1 2.677 2.768q.963 1.775.963 4.091t-.963 4.092a7.2 7.2 0 0 1-2.677 2.798q-1.685.993-3.881.993m0-2.618q1.354 0 2.407-.662a4.6 4.6 0 0 0 1.624-1.865q.602-1.173.602-2.738t-.602-2.737a4.3 4.3 0 0 0-1.654-1.835q-1.083-.692-2.437-.692-1.384 0-2.437.692-1.053.661-1.655 1.835-.601 1.173-.602 2.737 0 1.565.602 2.738a4.73 4.73 0 0 0 1.685 1.865q1.083.663 2.467.662m9.817 2.257v-15.043h2.858v2.708q.901-1.415 2.316-2.076a6.9 6.9 0 0 1 3.009-.692v2.708q-1.354 0-2.588.421a4.25 4.25 0 0 0-1.985 1.324q-.752.902-.752 2.467v8.183zm23.021.361q-2.256 0-4.001-.993a7.34 7.34 0 0 1-2.738-2.798q-.963-1.774-.963-4.092 0-2.316.963-4.091a7.2 7.2 0 0 1 2.707-2.768q1.746-1.023 3.972-1.023 2.196 0 3.941 1.023 1.775 1.023 2.647 2.918l-2.587 1.083a4.2 4.2 0 0 0-1.655-1.745q-1.053-.631-2.437-.631-1.353 0-2.406.662t-1.655 1.865q-.602 1.173-.602 2.707 0 1.535.602 2.708a4.73 4.73 0 0 0 1.685 1.865q1.083.663 2.437.662 1.383 0 2.467-.692a4.47 4.47 0 0 0 1.624-1.925l2.618 1.053q-.873 1.985-2.648 3.098-1.745 1.114-3.971 1.114m15.41 0q-2.257 0-3.971-.993a7.4 7.4 0 0 1-2.708-2.798q-.963-1.774-.963-4.092 0-2.316.963-4.091a7 7 0 0 1 2.677-2.768q1.715-1.023 3.942-1.023 2.225 0 3.941 1.023a7 7 0 0 1 2.677 2.768q.963 1.775.963 4.091t-.963 4.092a7.2 7.2 0 0 1-2.677 2.798q-1.685.993-3.881.993m0-2.618q1.354 0 2.406-.662a4.6 4.6 0 0 0 1.625-1.865q.602-1.173.602-2.738t-.602-2.737a4.3 4.3 0 0 0-1.655-1.835q-1.083-.692-2.436-.692-1.384 0-2.437.692a4.6 4.6 0 0 0-1.655 1.835q-.602 1.173-.602 2.737t.602 2.738a4.73 4.73 0 0 0 1.685 1.865q1.083.663 2.467.662m9.816 2.257v-15.043h2.678l.12 2.076q.722-1.203 1.805-1.805 1.084-.632 2.497-.632 1.806 0 3.069.843 1.263.811 1.835 2.497.662-1.625 1.865-2.467 1.204-.873 2.858-.873 2.558 0 4.002 1.685 1.444 1.655 1.414 5.114v8.605h-2.828v-7.702q0-2.046-.452-3.099-.42-1.083-1.143-1.504-.722-.421-1.684-.451-1.685 0-2.618 1.293-.902 1.294-.902 3.641v7.822h-2.858v-7.702q0-2.046-.422-3.099-.42-1.083-1.173-1.504-.722-.421-1.685-.451-1.684 0-2.617 1.293-.903 1.294-.903 3.641v7.822zm25.11 6.017v-21.06h2.678l.15 2.437q.813-1.323 2.076-2.046 1.264-.752 2.888-.752 2.016 0 3.55.993t2.377 2.768q.873 1.745.872 4.121 0 2.347-.872 4.122-.843 1.775-2.377 2.768t-3.55.993q-1.624 0-2.888-.722a6.25 6.25 0 0 1-2.046-2.046v8.424zm7.1-8.244q1.354 0 2.377-.662a4.7 4.7 0 0 0 1.595-1.865q.601-1.203.601-2.768t-.571-2.737q-.572-1.204-1.595-1.866-1.023-.692-2.377-.692-1.233 0-2.226.692-.963.662-1.504 1.866-.542 1.203-.542 2.737 0 1.565.542 2.768.541 1.173 1.504 1.865.963.662 2.196.662m14.591 2.588q-2.678 0-4.182-1.204-1.474-1.233-1.474-3.399 0-2.317 1.534-3.52 1.564-1.234 4.332-1.234h4.032q-.182-1.925-1.023-2.888-.813-.993-2.467-.993-1.173 0-2.046.482-.843.481-1.414 1.504l-2.527-.963a7.1 7.1 0 0 1 1.354-1.805 5.7 5.7 0 0 1 1.955-1.263q1.143-.482 2.678-.482 2.136 0 3.55.843 1.413.841 2.106 2.436.722 1.594.692 3.942l-.03 8.183h-2.648l-.09-1.926a4.7 4.7 0 0 1-1.745 1.685q-1.084.602-2.587.602m.24-2.437q1.235 0 2.136-.512a3.84 3.84 0 0 0 1.414-1.474q.512-.963.512-2.196v-.481h-3.31q-2.075 0-2.918.661-.842.632-.842 1.775 0 1.053.782 1.655.813.572 2.226.572m9.623 2.076v-15.043h2.858v2.708q.903-1.415 2.316-2.076a6.9 6.9 0 0 1 3.009-.692v2.708a8 8 0 0 0-2.587.421 4.24 4.24 0 0 0-1.986 1.324q-.752.902-.752 2.467v8.183zm9.833 0v-15.043h2.858v15.043zm1.444-18.232q-.691 0-1.203-.511-.512-.541-.512-1.234 0-.721.512-1.203a1.65 1.65 0 0 1 1.203-.512q.723 0 1.204.512.511.482.511 1.203 0 .693-.511 1.234a1.58 1.58 0 0 1-1.204.511m10.152 18.593q-1.594 0-2.858-.482-1.233-.482-2.106-1.293a5.4 5.4 0 0 1-1.263-1.836l2.467-1.083q.481.933 1.444 1.535a3.95 3.95 0 0 0 2.136.601q1.293 0 2.136-.481t.842-1.354q0-.842-.631-1.323-.632-.481-1.836-.783l-1.414-.361q-2.106-.571-3.279-1.715-1.143-1.143-1.143-2.587 0-2.196 1.414-3.399 1.414-1.204 4.182-1.204 1.353 0 2.467.391 1.143.392 1.925 1.113a3.9 3.9 0 0 1 1.143 1.715l-2.406 1.083a2.42 2.42 0 0 0-1.234-1.323q-.873-.452-2.046-.452-1.203 0-1.895.542-.692.511-.692 1.444 0 .512.572.993.601.451 1.745.752l1.624.391q1.474.362 2.437 1.113.963.722 1.444 1.655.481.902.481 1.895 0 1.354-.752 2.377-.722.993-2.015 1.534-1.265.542-2.889.542m14.593 0q-2.256 0-3.971-.993a7.4 7.4 0 0 1-2.708-2.798q-.963-1.774-.963-4.092 0-2.316.963-4.091a6.97 6.97 0 0 1 2.678-2.768q1.714-1.023 3.941-1.023 2.225 0 3.941 1.023a7 7 0 0 1 2.677 2.768q.963 1.775.963 4.091t-.963 4.092a7.2 7.2 0 0 1-2.677 2.798q-1.685.993-3.881.993m0-2.618q1.353 0 2.407-.662a4.6 4.6 0 0 0 1.624-1.865q.602-1.173.602-2.738t-.602-2.737a4.3 4.3 0 0 0-1.655-1.835q-1.083-.692-2.436-.692-1.384 0-2.437.692a4.6 4.6 0 0 0-1.655 1.835q-.602 1.173-.602 2.737t.602 2.738a4.73 4.73 0 0 0 1.685 1.865q1.083.663 2.467.662m9.816 2.257v-15.043h2.678l.12 2.196q.753-1.233 1.926-1.895 1.204-.662 2.737-.662 1.776 0 3.069.722 1.324.723 2.016 2.257.722 1.503.722 3.971v8.454h-2.858v-7.702q0-2.046-.482-3.099-.45-1.083-1.293-1.504-.813-.421-1.896-.451-1.835 0-2.858 1.293-1.023 1.294-1.023 3.641v7.822zm15.156 3.459 1.745-6.558h3.099l-2.527 6.558zm23.284-3.098q-3.009 0-5.355-1.384a9.97 9.97 0 0 1-3.671-3.851q-1.323-2.467-1.323-5.656t1.323-5.626q1.324-2.467 3.641-3.851 2.316-1.413 5.325-1.414 1.955 0 3.73.722a10.1 10.1 0 0 1 3.159 1.956 8.4 8.4 0 0 1 2.166 2.888l-2.647 1.203a6.6 6.6 0 0 0-1.565-2.136 7.5 7.5 0 0 0-2.256-1.414 6.7 6.7 0 0 0-2.587-.511q-2.106 0-3.761 1.053t-2.587 2.888q-.933 1.835-.933 4.242t.933 4.272q.963 1.865 2.617 2.918 1.685 1.023 3.821 1.023 1.384 0 2.617-.541a7.6 7.6 0 0 0 2.196-1.535 8.1 8.1 0 0 0 1.595-2.256l2.647 1.173a9.4 9.4 0 0 1-2.136 3.039 10.3 10.3 0 0 1-3.189 2.076 9.9 9.9 0 0 1-3.76.722m16.032 0q-2.678 0-4.182-1.204-1.474-1.233-1.474-3.399 0-2.317 1.534-3.52 1.564-1.234 4.333-1.234h4.031q-.18-1.925-1.023-2.888-.812-.993-2.467-.993-1.173 0-2.046.482-.842.481-1.414 1.504l-2.527-.963a7.1 7.1 0 0 1 1.354-1.805 5.7 5.7 0 0 1 1.956-1.263q1.143-.482 2.677-.482 2.136 0 3.55.843 1.414.841 2.106 2.436.722 1.594.692 3.942l-.03 8.183h-2.648l-.09-1.926a4.7 4.7 0 0 1-1.745 1.685q-1.083.602-2.587.602m.241-2.437q1.233 0 2.136-.512a3.85 3.85 0 0 0 1.414-1.474q.511-.963.511-2.196v-.481h-3.309q-2.076 0-2.918.661-.843.632-.843 1.775 0 1.053.782 1.655.813.572 2.227.572m9.622 2.076v-15.043h2.678l.12 2.196q.752-1.233 1.925-1.895 1.204-.662 2.738-.662 1.775 0 3.069.722 1.323.723 2.015 2.257.723 1.503.723 3.971v8.454h-2.859v-7.702q0-2.046-.481-3.099-.451-1.083-1.294-1.504-.812-.421-1.895-.451-1.835 0-2.858 1.293-1.023 1.294-1.023 3.641v7.822zm20.842.361q-2.678 0-4.182-1.204-1.474-1.233-1.474-3.399 0-2.317 1.534-3.52 1.565-1.234 4.332-1.234h4.032q-.18-1.925-1.023-2.888-.813-.993-2.467-.993-1.173 0-2.046.482-.842.481-1.414 1.504l-2.527-.963a7.1 7.1 0 0 1 1.354-1.805 5.7 5.7 0 0 1 1.955-1.263q1.144-.482 2.678-.482 2.136 0 3.55.843 1.415.841 2.106 2.436.722 1.594.692 3.942l-.03 8.183h-2.648l-.09-1.926a4.7 4.7 0 0 1-1.745 1.685q-1.083.602-2.587.602m.241-2.437q1.233 0 2.136-.512a3.85 3.85 0 0 0 1.414-1.474q.511-.963.511-2.196v-.481h-3.309q-2.076 0-2.919.661-.842.632-.842 1.775 0 1.053.782 1.655.813.572 2.227.572m15.579 2.437q-2.046 0-3.58-.993-1.504-.993-2.377-2.768-.842-1.774-.842-4.122 0-2.376.842-4.121.873-1.775 2.377-2.768 1.534-.993 3.58-.993 1.595 0 2.858.722 1.263.723 2.076 2.046v-8.424h2.828v21.06h-2.708l-.09-2.437a6.06 6.06 0 0 1-2.076 2.076q-1.263.722-2.888.722m.662-2.588q1.233 0 2.166-.662.963-.661 1.504-1.805.572-1.173.602-2.677v-.301q-.03-1.504-.602-2.647-.541-1.174-1.504-1.836-.933-.662-2.196-.662-1.324 0-2.347.692-1.023.662-1.594 1.866-.572 1.173-.572 2.737t.572 2.768q.601 1.173 1.624 1.865 1.023.662 2.347.662m15.045 2.588q-2.678 0-4.181-1.204-1.474-1.233-1.474-3.399 0-2.317 1.534-3.52 1.565-1.234 4.332-1.234h4.031q-.18-1.925-1.022-2.888-.813-.993-2.467-.993-1.175 0-2.046.482-.843.481-1.414 1.504l-2.527-.963a7.1 7.1 0 0 1 1.354-1.805 5.7 5.7 0 0 1 1.955-1.263q1.143-.482 2.678-.482 2.136 0 3.55.843 1.413.841 2.105 2.436.723 1.594.692 3.942l-.03 8.183h-2.647l-.09-1.926a4.7 4.7 0 0 1-1.745 1.685q-1.083.602-2.588.602m.241-2.437q1.233 0 2.136-.512a3.84 3.84 0 0 0 1.414-1.474q.512-.963.512-2.196v-.481h-3.31q-2.076 0-2.918.661-.842.632-.842 1.775 0 1.053.782 1.655.812.572 2.226.572M53.972 287.951q-2.256 0-4.001-.993a7.34 7.34 0 0 1-2.738-2.798q-.963-1.775-.963-4.092t.963-4.091a7.2 7.2 0 0 1 2.708-2.768q1.744-1.023 3.97-1.023 2.198 0 3.942 1.023 1.775 1.023 2.647 2.918l-2.587 1.083a4.2 4.2 0 0 0-1.655-1.745q-1.053-.631-2.437-.631-1.353 0-2.406.662t-1.655 1.865q-.602 1.173-.602 2.707 0 1.535.602 2.708a4.73 4.73 0 0 0 1.685 1.865q1.083.662 2.437.662 1.383 0 2.467-.692a4.47 4.47 0 0 0 1.624-1.925l2.617 1.053q-.872 1.985-2.647 3.098-1.745 1.114-3.971 1.114m15.41 0q-2.257 0-3.972-.993a7.4 7.4 0 0 1-2.707-2.798q-.963-1.775-.963-4.092t.963-4.091a7 7 0 0 1 2.677-2.768q1.715-1.023 3.942-1.023 2.226 0 3.94 1.023a7 7 0 0 1 2.678 2.768q.963 1.775.963 4.091t-.963 4.092a7.2 7.2 0 0 1-2.677 2.798q-1.685.993-3.881.993m0-2.618q1.353 0 2.406-.662a4.6 4.6 0 0 0 1.625-1.865q.602-1.173.602-2.738t-.602-2.737a4.3 4.3 0 0 0-1.655-1.835q-1.083-.692-2.436-.692-1.384 0-2.437.692-1.053.661-1.655 1.835t-.602 2.737q0 1.565.602 2.738a4.73 4.73 0 0 0 1.685 1.865q1.083.662 2.467.662m9.816 2.257v-15.043h2.678l.12 2.196q.752-1.233 1.926-1.895 1.204-.662 2.737-.662 1.776 0 3.069.722 1.324.723 2.016 2.257.722 1.503.722 3.971v8.454h-2.858v-7.702q0-2.046-.482-3.099-.45-1.083-1.293-1.504-.813-.421-1.896-.451-1.835 0-2.858 1.293-1.023 1.294-1.023 3.641v7.822zm21.414.361q-1.595 0-2.858-.482-1.235-.482-2.106-1.293a5.4 5.4 0 0 1-1.264-1.836l2.467-1.083q.481.933 1.444 1.535a3.95 3.95 0 0 0 2.136.601q1.295 0 2.136-.481.843-.481.843-1.354 0-.842-.632-1.323t-1.835-.783l-1.414-.361q-2.106-.571-3.28-1.715-1.143-1.143-1.143-2.587 0-2.196 1.414-3.399 1.414-1.204 4.182-1.204 1.353 0 2.467.391 1.143.392 1.925 1.113a3.93 3.93 0 0 1 1.144 1.715l-2.407 1.083a2.42 2.42 0 0 0-1.234-1.323q-.872-.452-2.045-.452-1.204 0-1.896.542-.692.511-.692 1.444 0 .512.572.993.602.451 1.745.752l1.624.391q1.474.361 2.437 1.113.963.722 1.444 1.655.482.902.482 1.895 0 1.354-.752 2.377-.723.993-2.016 1.534-1.264.542-2.888.542m13.208 0q-1.745 0-3.038-.722-1.294-.723-2.016-2.257t-.722-3.971v-8.454h2.858v7.702q0 2.016.451 3.099.481 1.083 1.324 1.504.842.421 1.895.451 1.836 0 2.858-1.293 1.023-1.294 1.023-3.641v-7.822h2.828v15.043h-2.647l-.121-2.197a5.2 5.2 0 0 1-1.955 1.896q-1.173.662-2.738.662m10.613-.361v-15.043h2.678l.12 2.076q.722-1.203 1.805-1.805 1.083-.632 2.497-.632 1.804 0 3.069.843 1.263.811 1.835 2.497.662-1.625 1.865-2.467 1.203-.873 2.858-.873 2.558 0 4.001 1.685 1.445 1.655 1.414 5.114v8.605h-2.827v-7.702q0-2.046-.452-3.099-.422-1.083-1.143-1.504t-1.685-.451q-1.684 0-2.617 1.293-.903 1.294-.903 3.641v7.822h-2.858v-7.702q0-2.046-.421-3.099-.422-1.083-1.173-1.504-.722-.421-1.685-.451-1.685 0-2.617 1.293-.903 1.294-.903 3.641v7.822zm31.608.361q-2.195 0-3.881-.993a7.26 7.26 0 0 1-2.647-2.798q-.963-1.775-.963-4.092t.963-4.091 2.647-2.768q1.715-1.023 3.912-1.023 2.075 0 3.64 1.053 1.564 1.023 2.437 2.948.902 1.896.902 4.483h-11.582q.15 2.226 1.474 3.49 1.353 1.233 3.309 1.233 1.504 0 2.497-.692a5.1 5.1 0 0 0 1.595-1.805l2.467 1.144a7.6 7.6 0 0 1-1.565 2.075 6.9 6.9 0 0 1-2.286 1.354q-1.294.482-2.919.482m-4.392-9.537h8.334q-.091-1.204-.662-2.016a3.65 3.65 0 0 0-1.414-1.294q-.843-.45-1.896-.451-1.022 0-1.985.451a4.16 4.16 0 0 0-1.625 1.264q-.632.842-.752 2.046m19.347 9.537q-2.046 0-3.58-.993-1.504-.993-2.377-2.768-.843-1.775-.842-4.122 0-2.376.842-4.121.873-1.775 2.377-2.768 1.534-.993 3.58-.993 1.594 0 2.858.722 1.263.723 2.076 2.046v-8.424h2.828v21.06h-2.708l-.09-2.437a6.06 6.06 0 0 1-2.076 2.076q-1.263.722-2.888.722m.662-2.588q1.233 0 2.166-.662.963-.661 1.504-1.805.572-1.173.602-2.677v-.301q-.03-1.504-.602-2.647-.541-1.174-1.504-1.836-.933-.662-2.196-.662-1.324 0-2.347.692-1.023.662-1.595 1.866-.571 1.173-.571 2.737t.571 2.768q.602 1.173 1.625 1.865 1.023.662 2.347.662m23.51 2.588a10 10 0 0 1-2.708-.391 9.2 9.2 0 0 1-2.527-1.234 6.2 6.2 0 0 1-1.865-2.136l2.497-1.143q.963 1.203 2.106 1.775a5.5 5.5 0 0 0 2.377.541q1.954 0 3.159-1.173 1.203-1.173 1.203-3.129 0-1.894-1.173-3.099-1.174-1.203-3.069-1.203-1.083 0-2.076.481-.993.451-1.534 1.144l-2.678-.602 1.083-11.252h11.403v2.708h-8.815l-.632 6.227a8.7 8.7 0 0 1 1.865-.782 7.3 7.3 0 0 1 2.076-.301q1.896 0 3.369.843a6.06 6.06 0 0 1 2.317 2.346q.873 1.474.872 3.4 0 2.076-.932 3.64a6.7 6.7 0 0 1-2.557 2.467q-1.625.873-3.761.873m16.95 0q-2.347 0-4.062-.722-1.715-.753-2.677-2.046-.933-1.325-.933-3.069 0-1.865.993-3.279 1.023-1.445 2.798-2.196-1.414-.692-2.227-1.926t-.812-2.828q0-1.685.842-2.978.873-1.293 2.437-2.016 1.565-.722 3.641-.722 2.106 0 3.67.722 1.564.723 2.407 2.016.872 1.293.872 2.978 0 1.595-.812 2.828-.783 1.234-2.226 1.926 1.775.751 2.767 2.196 1.023 1.414 1.023 3.279 0 1.744-.962 3.069-.933 1.293-2.648 2.046-1.715.722-4.091.722m0-2.558q2.075 0 3.369-.992 1.324-1.023 1.324-2.618 0-1.654-1.324-2.677-1.294-1.023-3.369-1.023-1.354 0-2.407.451t-1.655 1.324q-.571.842-.571 1.925 0 1.053.571 1.896.602.812 1.655 1.263t2.407.451m0-9.928q1.775 0 2.888-.902 1.143-.933 1.143-2.377 0-1.564-1.143-2.527-1.113-.993-2.888-.993-1.745 0-2.858.993-1.114.963-1.114 2.527 0 1.444 1.114 2.377 1.113.903 2.858.902m14.786 12.125v-17.239a11 11 0 0 1-2.287 1.444 5.5 5.5 0 0 1-2.377.481v-2.677q.663.03 1.535-.421a10.2 10.2 0 0 0 1.805-1.174 14 14 0 0 0 1.594-1.474h2.618v21.06zm12.281 0v-18.352h-6.588v-2.708h16.155v2.708h-6.588v18.352zm15.728 0-6.378-21.06h3.008l4.964 16.487 4.814-16.487h2.978l4.723 16.396 5.055-16.396h2.978l-6.468 21.06h-3.159l-4.633-16.306-4.723 16.306zm23.617 0v-21.06h2.828v8.153q.752-1.203 1.925-1.835 1.173-.662 2.708-.662 1.775 0 3.068.722 1.295.723 2.016 2.257.722 1.503.692 3.971v8.454h-2.828v-7.702q0-2.046-.481-3.099-.481-1.083-1.324-1.504-.812-.421-1.865-.451-1.865 0-2.888 1.293-1.023 1.294-1.023 3.641v7.822zm22.688 0v-15.043h2.858v15.043zm1.444-18.232q-.693 0-1.204-.511-.511-.541-.511-1.234 0-.722.511-1.203a1.65 1.65 0 0 1 1.204-.512q.721 0 1.203.512.511.481.511 1.203 0 .693-.511 1.234a1.58 1.58 0 0 1-1.203.511m4.767 18.232v-15.043h2.677l.121 2.196q.752-1.233 1.925-1.895 1.203-.662 2.738-.662 1.775 0 3.068.722 1.325.723 2.016 2.257.722 1.503.722 3.971v8.454h-2.858v-7.702q0-2.046-.481-3.099-.451-1.083-1.294-1.504-.812-.421-1.895-.451-1.835 0-2.858 1.293-1.023 1.294-1.023 3.641v7.822zm22.236 0v-2.377q0-.933.421-1.926a8.8 8.8 0 0 1 1.264-2.015 11.6 11.6 0 0 1 1.986-1.835l4.061-3.009a7.2 7.2 0 0 0 1.294-1.173q.602-.692.932-1.414.361-.753.361-1.474a3.26 3.26 0 0 0-.481-1.745 3.3 3.3 0 0 0-1.354-1.264q-.872-.481-2.076-.481-1.143 0-2.015.451a4.14 4.14 0 0 0-1.414 1.143 4.6 4.6 0 0 0-.813 1.535l-3.038-.572q.33-1.384 1.293-2.587t2.467-1.926q1.504-.752 3.4-.752 2.167 0 3.73.813 1.595.781 2.467 2.196.873 1.383.873 3.189a5.77 5.77 0 0 1-.963 3.219q-.933 1.474-2.707 2.858l-3.761 2.828q-1.113.842-1.775 1.745a4.45 4.45 0 0 0-.782 1.925h10.259v2.648zm24.118.361q-2.436 0-4.332-1.384-1.895-1.415-2.978-3.851-1.053-2.467-1.053-5.656t1.053-5.626q1.083-2.467 2.948-3.851 1.896-1.414 4.362-1.414t4.333 1.414q1.895 1.384 2.978 3.851 1.083 2.437 1.083 5.626t-1.083 5.656q-1.053 2.436-2.948 3.851-1.896 1.384-4.363 1.384m0-2.708q1.595 0 2.828-1.053 1.264-1.053 1.956-2.888.692-1.836.692-4.242 0-2.407-.692-4.242-.692-1.865-1.956-2.918-1.233-1.053-2.828-1.053t-2.828 1.053-1.925 2.918q-.692 1.835-.692 4.242t.692 4.272q.692 1.835 1.925 2.888a4.3 4.3 0 0 0 2.828 1.023m10.524 2.347v-2.377q0-.933.421-1.926a8.8 8.8 0 0 1 1.264-2.015 11.6 11.6 0 0 1 1.985-1.835l4.062-3.009a7.2 7.2 0 0 0 1.293-1.173q.602-.692.933-1.414.361-.753.361-1.474a3.26 3.26 0 0 0-.481-1.745 3.3 3.3 0 0 0-1.354-1.264q-.873-.481-2.076-.481-1.143 0-2.016.451a4.15 4.15 0 0 0-1.414 1.143 4.6 4.6 0 0 0-.812 1.535l-3.038-.572q.33-1.384 1.293-2.587t2.467-1.926q1.504-.752 3.4-.752 2.166 0 3.73.813 1.595.781 2.467 2.196.873 1.383.873 3.189a5.77 5.77 0 0 1-.963 3.219q-.932 1.474-2.708 2.858l-3.76 2.828q-1.113.842-1.775 1.745a4.45 4.45 0 0 0-.782 1.925h10.258v2.648zm25.352 0v-4.844h-9.718v-2.317l9.507-13.899h3.069v13.599h4.121v2.617h-4.121v4.844zm-6.469-7.461h6.469v-9.477zm16.795 7.882q-.752 0-1.324-.542a1.8 1.8 0 0 1-.541-1.323q0-.783.541-1.324a1.87 1.87 0 0 1 1.324-.542 1.8 1.8 0 0 1 1.324.542q.571.541.571 1.324 0 .781-.571 1.323a1.8 1.8 0 0 1-1.324.542"/><rect width="129.561" height="28.025" x="622.943" y="93.636" stroke="#48d36e" stroke-width="3" rx="4.5"/><rect width="259.302" height="27.085" x="622.943" y="146.867" fill="#48d36e" stroke="#48d36e" stroke-width="3" rx="4.5"/><rect width="287.506" height="28.025" x="622.943" y="199.158" stroke="#48d36e" stroke-width="3" rx="4.5"/><rect width="291.267" height="28.025" x="622.943" y="252.39" stroke="#48d36e" stroke-width="3" rx="4.5"/><path fill="#48d36e" d="M499.547 115.728V98.531h5.503q2.628 0 4.643 1.106 2.04 1.105 3.169 3.046 1.155 1.916 1.155 4.447 0 2.505-1.155 4.446-1.13 1.941-3.169 3.047-2.015 1.105-4.643 1.105zm3.366-3.144h2.137q1.18 0 2.186-.418a5.3 5.3 0 0 0 1.745-1.155 5.2 5.2 0 0 0 1.179-1.719 5.6 5.6 0 0 0 .418-2.162q0-1.155-.418-2.138a5.1 5.1 0 0 0-1.179-1.744 5.3 5.3 0 0 0-1.745-1.155 5.7 5.7 0 0 0-2.186-.417h-2.137zm16.77 3.439q-2.211 0-3.44-.983-1.203-.982-1.203-2.776 0-1.965 1.302-2.948 1.327-1.007 3.709-1.007h2.899q-.171-1.13-.712-1.72-.54-.614-1.548-.614-.786 0-1.425.344t-1.081 1.056l-2.85-.982a5.7 5.7 0 0 1 1.008-1.524q.663-.761 1.719-1.228 1.081-.49 2.629-.491 1.868 0 3.096.712a4.3 4.3 0 0 1 1.842 2.015q.615 1.277.59 3.046l-.074 6.805h-3.022l-.049-1.425a3.1 3.1 0 0 1-1.326 1.278q-.836.442-2.064.442m.54-2.702q.786 0 1.425-.369a2.84 2.84 0 0 0 1.008-.958 2.3 2.3 0 0 0 .368-1.228v-.049h-1.843q-1.596 0-2.211.393-.614.367-.614 1.056 0 .54.492.86.491.294 1.375.295m8 2.407v-12.283h3.047l.147 1.67q.59-.959 1.499-1.449.933-.516 2.112-.516 1.45 0 2.482.589 1.032.59 1.572 1.843.54 1.228.516 3.194v6.952h-3.243v-6.289q0-1.252-.295-1.941-.27-.687-.786-.983a2.25 2.25 0 0 0-1.204-.319q-1.253-.024-1.94.762-.664.786-.664 2.334v6.436zm18.937.295q-1.818 0-3.219-.811a6.06 6.06 0 0 1-2.211-2.284q-.786-1.45-.786-3.342 0-1.891.811-3.341a6 6 0 0 1 2.26-2.26q1.45-.835 3.317-.835 1.621 0 2.972.86 1.375.835 2.187 2.481.835 1.621.835 3.955h-8.992q.123 1.228 1.057 1.966a3.4 3.4 0 0 0 2.113.712q1.007 0 1.646-.418.638-.441.982-1.13l2.899 1.13a6.1 6.1 0 0 1-1.351 1.794 5.6 5.6 0 0 1-1.941 1.13q-1.13.393-2.579.393m-2.654-7.984h5.307q-.074-.762-.491-1.229a2.6 2.6 0 0 0-.983-.688 3 3 0 0 0-1.106-.221q-.516 0-1.13.221a2.7 2.7 0 0 0-1.056.664q-.442.467-.541 1.253m10.126 7.689v-12.283h3.046l.147 1.596q.565-.933 1.45-1.4a4 4 0 0 1 1.965-.491q1.499 0 2.506.639 1.032.637 1.499 1.965.54-1.253 1.523-1.916.983-.688 2.285-.688 2.161 0 3.292 1.376 1.13 1.35 1.13 4.176v7.026h-3.243v-6.289q0-1.252-.27-1.941-.271-.687-.737-.983a1.9 1.9 0 0 0-1.106-.319q-1.179-.024-1.818.762t-.639 2.334v6.436h-3.243v-6.289q0-1.252-.27-1.941-.245-.687-.737-.983a1.9 1.9 0 0 0-1.105-.319q-1.18-.024-1.818.762-.615.786-.615 2.334v6.436zm24.825.295q-2.211 0-3.44-.983-1.203-.982-1.203-2.776 0-1.965 1.302-2.948 1.327-1.007 3.709-1.007h2.899q-.172-1.13-.712-1.72-.54-.614-1.548-.614-.786 0-1.425.344t-1.081 1.056l-2.85-.982a5.8 5.8 0 0 1 1.008-1.524q.663-.761 1.719-1.228 1.081-.49 2.629-.491 1.868 0 3.096.712a4.3 4.3 0 0 1 1.842 2.015q.615 1.277.59 3.046l-.074 6.805h-3.022l-.049-1.425a3.1 3.1 0 0 1-1.326 1.278q-.835.442-2.064.442m.54-2.702q.786 0 1.425-.369a2.84 2.84 0 0 0 1.008-.958 2.3 2.3 0 0 0 .368-1.228v-.049h-1.843q-1.596 0-2.211.393-.614.367-.614 1.056 0 .54.492.86.491.294 1.375.295m8 2.407v-12.283h3.243v2.26q.762-1.155 1.916-1.72a5.4 5.4 0 0 1 2.433-.59v3.145q-1.13 0-2.138.27-.982.27-1.597.885-.614.614-.614 1.572v6.461zm8.73 0V98.531h3.243v9.483l4.201-4.569h3.857l-4.643 5.183 5.012 7.1h-3.808l-3.268-4.766-1.351 1.474v3.292zm-11.18 53.346v-17.197h3.366v17.197zm4.852 0 6.78-17.197h3.587l6.781 17.197h-3.563l-1.474-3.783h-7.075l-1.474 3.783zm6.142-6.756h4.864l-2.432-6.24zm-77.994 60.103v-17.198h11.031v3.071h-7.665v4.128h6.387v3.071h-6.387v6.928zm12.754 0v-12.284h3.243v12.284zm1.621-14.274q-.736 0-1.302-.54-.565-.565-.565-1.327t.565-1.302q.566-.565 1.302-.565.762 0 1.302.565.565.54.565 1.302t-.565 1.327q-.54.54-1.302.54m4.033 14.274v-12.284h3.046l.148 1.671q.59-.958 1.498-1.45.934-.516 2.113-.516 1.449 0 2.481.59t1.573 1.842q.54 1.229.516 3.194v6.953h-3.243v-6.29q0-1.253-.295-1.94-.27-.689-.786-.983-.516-.32-1.204-.32-1.253-.024-1.941.762-.663.786-.663 2.334v6.437zm13.384 0v-17.198h3.243v17.198zm9.447.294q-2.211 0-3.44-.982-1.203-.983-1.204-2.776 0-1.966 1.303-2.948 1.326-1.008 3.709-1.008h2.899q-.172-1.13-.712-1.719-.541-.615-1.548-.615-.786 0-1.425.344-.639.345-1.081 1.057l-2.85-.983a5.7 5.7 0 0 1 1.008-1.523q.663-.761 1.719-1.229 1.081-.49 2.629-.491 1.868 0 3.095.713a4.3 4.3 0 0 1 1.843 2.014q.614 1.278.59 3.046l-.074 6.806h-3.022l-.049-1.425a3.1 3.1 0 0 1-1.327 1.277q-.835.442-2.063.442m.54-2.702q.786 0 1.425-.368a2.8 2.8 0 0 0 1.007-.959 2.3 2.3 0 0 0 .369-1.228v-.049h-1.843q-1.596 0-2.211.393-.614.369-.614 1.056 0 .541.491.86.492.295 1.376.295m8 2.408v-12.284h3.046l.148 1.671q.59-.958 1.498-1.45.934-.516 2.113-.516 1.45 0 2.482.59 1.031.59 1.572 1.842.54 1.229.516 3.194v6.953h-3.243v-6.29q0-1.253-.295-1.94-.27-.689-.786-.983-.516-.32-1.204-.32-1.253-.024-1.941.762-.663.786-.663 2.334v6.437zm18.273.294q-1.695 0-2.948-.786-1.229-.786-1.916-2.235-.688-1.45-.688-3.415 0-1.99.688-3.415.687-1.45 1.916-2.236 1.253-.786 2.948-.786 1.204 0 2.137.516a3.9 3.9 0 0 1 1.548 1.425v-6.56h3.243v17.198h-3.071l-.098-1.72a4.45 4.45 0 0 1-1.572 1.499q-.959.515-2.187.515m.835-2.972q.812 0 1.425-.393a2.9 2.9 0 0 0 1.008-1.155 4.2 4.2 0 0 0 .417-1.671v-.491q-.05-.933-.417-1.646a2.7 2.7 0 0 0-1.008-1.13 2.6 2.6 0 0 0-1.449-.418q-.885 0-1.573.443-.663.417-1.056 1.203-.369.786-.368 1.794 0 1.007.393 1.793t1.056 1.229q.688.442 1.572.442m13.86 2.972q-1.818 0-3.218-.81a6.04 6.04 0 0 1-2.211-2.285q-.786-1.45-.786-3.341t.81-3.341a6 6 0 0 1 2.261-2.261q1.449-.835 3.316-.835a5.43 5.43 0 0 1 2.973.86q1.376.835 2.186 2.481.836 1.622.836 3.956h-8.992q.123 1.228 1.056 1.965a3.4 3.4 0 0 0 2.113.713q1.008 0 1.646-.418.64-.443.983-1.13l2.899 1.13a6.1 6.1 0 0 1-1.351 1.793 5.6 5.6 0 0 1-1.941 1.13q-1.13.393-2.58.393m-2.653-7.984h5.306q-.073-.762-.491-1.228a2.54 2.54 0 0 0-.983-.688 3 3 0 0 0-1.105-.221q-.516 0-1.13.221a2.7 2.7 0 0 0-1.057.663q-.442.467-.54 1.253m-82.094 61.036V258.57h5.822q1.77 0 3.096.54t2.063 1.646q.737 1.082.737 2.703 0 1.006-.515 1.867-.492.836-1.401 1.449 1.204.615 1.843 1.646.663 1.007.663 2.432 0 1.573-.712 2.678-.713 1.106-1.99 1.671-1.278.564-2.998.565zm3.292-2.973h2.997q1.204 0 1.892-.589.688-.615.688-1.622 0-1.056-.762-1.646-.762-.614-2.088-.614h-2.727zm0-7.223h2.604q1.105 0 1.744-.565.639-.564.639-1.597 0-1.031-.712-1.596-.713-.565-1.941-.565h-2.334zm16.257 10.491q-1.818 0-3.218-.811a6.04 6.04 0 0 1-2.211-2.285q-.787-1.45-.787-3.341t.811-3.341a6 6 0 0 1 2.26-2.26q1.45-.836 3.317-.836a5.43 5.43 0 0 1 2.973.86q1.376.836 2.186 2.481.835 1.622.835 3.956h-8.991q.123 1.228 1.056 1.965a3.4 3.4 0 0 0 2.113.713q1.007 0 1.646-.418.639-.442.983-1.13l2.899 1.13a6.1 6.1 0 0 1-1.352 1.793 5.55 5.55 0 0 1-1.94 1.131q-1.131.393-2.58.393m-2.653-7.985h5.306q-.074-.761-.491-1.228a2.55 2.55 0 0 0-.983-.688 3 3 0 0 0-1.105-.221q-.516 0-1.13.221a2.7 2.7 0 0 0-1.057.663q-.442.467-.54 1.253m10.125 7.69V258.57h3.243v17.197zM554.562 281q-1.4 0-2.481-.197-1.082-.197-1.818-.516a7.3 7.3 0 0 1-1.204-.639l1.278-2.604q.343.197.909.443.565.27 1.351.442.786.196 1.818.196.982 0 1.72-.393.76-.368 1.179-1.179.442-.786.442-2.015v-1.179a4.6 4.6 0 0 1-1.597 1.523q-.982.541-2.235.541-1.695 0-2.948-.737a5.07 5.07 0 0 1-1.917-2.064q-.687-1.326-.688-3.144 0-1.917.688-3.317.688-1.425 1.917-2.187 1.253-.786 2.948-.786 1.253 0 2.235.59.983.565 1.597 1.621v-1.916h3.243v10.957q0 2.064-.786 3.538-.786 1.498-2.236 2.26-1.425.762-3.415.762m.295-8.304q.835 0 1.45-.418.638-.442.982-1.179.345-.762.344-1.72 0-.983-.368-1.719a2.7 2.7 0 0 0-.983-1.155q-.614-.418-1.449-.418-.86 0-1.524.418a2.8 2.8 0 0 0-1.031 1.155q-.369.736-.393 1.719.024.958.393 1.72a3 3 0 0 0 1.031 1.179 2.9 2.9 0 0 0 1.548.418m8.55 3.071v-12.284h3.243v12.284zm1.621-14.274q-.736 0-1.302-.54-.565-.565-.565-1.327t.565-1.302q.565-.565 1.302-.565.762 0 1.303.565.564.54.565 1.302 0 .762-.565 1.327-.541.54-1.303.54m12.632 19.187v-6.584a4.4 4.4 0 0 1-1.548 1.45q-.933.516-2.162.516-1.695 0-2.948-.787-1.229-.786-1.916-2.235-.688-1.45-.688-3.415 0-1.99.688-3.415.687-1.449 1.916-2.236 1.253-.786 2.948-.786 1.253 0 2.211.541a4.24 4.24 0 0 1 1.548 1.498l.123-1.744h3.071v17.197zm-2.875-7.591q.836 0 1.474-.442a2.9 2.9 0 0 0 1.032-1.229q.369-.785.369-1.793t-.369-1.793q-.367-.787-1.032-1.204-.638-.442-1.498-.442-.885 0-1.548.442-.663.417-1.056 1.204-.393.785-.393 1.793t.393 1.793q.393.787 1.056 1.229.688.442 1.572.442m12.609 2.973q-1.474 0-2.506-.59-1.007-.59-1.548-1.818-.54-1.253-.54-3.218v-6.953h3.243v6.289q0 1.228.27 1.941.295.689.811 1.007.54.295 1.204.295 1.277.025 1.94-.761.664-.812.664-2.334v-6.437h3.243v12.284h-3.047l-.123-1.671a4.36 4.36 0 0 1-1.547 1.45q-.909.516-2.064.516m14.563 0q-1.817 0-3.218-.811a6.04 6.04 0 0 1-2.211-2.285q-.786-1.45-.786-3.341t.81-3.341a6 6 0 0 1 2.261-2.26q1.45-.836 3.316-.836a5.43 5.43 0 0 1 2.973.86q1.376.836 2.186 2.481.836 1.622.836 3.956h-8.992q.123 1.228 1.056 1.965a3.4 3.4 0 0 0 2.113.713q1.008 0 1.646-.418.64-.442.983-1.13l2.899 1.13a6.1 6.1 0 0 1-1.351 1.793 5.6 5.6 0 0 1-1.941 1.131q-1.13.393-2.58.393m-2.653-7.985h5.307q-.074-.761-.492-1.228a2.55 2.55 0 0 0-.982-.688 3 3 0 0 0-1.106-.221q-.516 0-1.13.221a2.7 2.7 0 0 0-1.057.663q-.441.467-.54 1.253"/></svg>