<svg width="518" height="779" viewBox="0 0 518 779" fill="none" xmlns="http://www.w3.org/2000/svg">
<rect x="1.41022" y="1.41022" width="515.18" height="776.18" rx="7.62096" stroke="#48D36E" stroke-width="2.82045"/>
<path d="M48.5566 77.1272V45.5382H54.739V77.1272H48.5566ZM69.5884 77.6687C67.0913 77.6687 65.196 77.052 63.9023 75.8185C62.6388 74.585 62.007 72.8251 62.007 70.5386V59.6179H58.3517V54.5636H62.007V47.5238H67.9638V54.5636H73.6047V59.6179H67.9638V69.2299C67.9638 70.1927 68.1744 70.9297 68.5956 71.4412C69.0168 71.9225 69.6335 72.1632 70.4458 72.1632C70.7466 72.1632 71.0776 72.103 71.4386 71.9827C71.7996 71.8323 72.1757 71.6217 72.5668 71.3509L74.6426 75.8185C73.9206 76.36 73.1083 76.7963 72.2057 77.1272C71.3333 77.4882 70.4608 77.6687 69.5884 77.6687ZM88.6596 77.1272V54.5636H94.6163V77.1272H88.6596ZM91.638 50.9083C90.7354 50.9083 89.9382 50.5774 89.2462 49.9155C88.5543 49.2236 88.2083 48.4113 88.2083 47.4786C88.2083 46.546 88.5543 45.7488 89.2462 45.0869C89.9382 44.395 90.7354 44.049 91.638 44.049C92.5706 44.049 93.3678 44.395 94.0297 45.0869C94.7216 45.7488 95.0676 46.546 95.0676 47.4786C95.0676 48.4113 94.7216 49.2236 94.0297 49.9155C93.3678 50.5774 92.5706 50.9083 91.638 50.9083ZM108.096 77.6687C106.652 77.6687 105.298 77.4581 104.035 77.0369C102.771 76.5857 101.658 75.9539 100.695 75.1416C99.7328 74.2992 98.9807 73.2763 98.4391 72.073L103.539 69.7263C103.99 70.4484 104.607 71.0802 105.389 71.6217C106.171 72.1331 107.073 72.3888 108.096 72.3888C109.089 72.3888 109.856 72.2535 110.398 71.9827C110.939 71.6819 111.21 71.2607 111.21 70.7191C111.21 70.1776 110.984 69.7865 110.533 69.5458C110.112 69.2751 109.525 69.0494 108.773 68.8689L106.697 68.3274C104.531 67.7558 102.816 66.8532 101.553 65.6198C100.319 64.3562 99.7027 62.9121 99.7027 61.2876C99.7027 58.971 100.44 57.181 101.914 55.9174C103.418 54.6539 105.539 54.0221 108.277 54.0221C109.691 54.0221 111 54.2327 112.203 54.6539C113.436 55.0751 114.489 55.6617 115.362 56.4138C116.234 57.1659 116.836 58.0384 117.167 59.0312L112.248 61.2876C112.037 60.6859 111.526 60.2045 110.714 59.8435C109.901 59.4524 109.089 59.2568 108.277 59.2568C107.465 59.2568 106.833 59.4373 106.382 59.7984C105.96 60.1293 105.75 60.5956 105.75 61.1973C105.75 61.5884 105.96 61.9193 106.382 62.1901C106.803 62.4308 107.404 62.6414 108.187 62.8219L111.12 63.5439C112.594 63.9049 113.767 64.4916 114.64 65.3039C115.542 66.0861 116.189 66.9736 116.58 67.9664C117.001 68.9291 117.212 69.8768 117.212 70.8094C117.212 72.1632 116.806 73.3666 115.994 74.4196C115.211 75.4424 114.128 76.2397 112.744 76.8113C111.391 77.3829 109.841 77.6687 108.096 77.6687ZM130.754 86.1526V54.5636H136.35L136.621 57.7676C137.373 56.5643 138.32 55.6467 139.464 55.0149C140.637 54.353 141.991 54.0221 143.525 54.0221C145.601 54.0221 147.391 54.5034 148.895 55.4662C150.43 56.4289 151.618 57.7977 152.46 59.5727C153.303 61.3176 153.724 63.4085 153.724 65.8454C153.724 68.2522 153.303 70.3431 152.46 72.1181C151.618 73.8931 150.43 75.2619 148.895 76.2247C147.391 77.1874 145.601 77.6687 143.525 77.6687C142.021 77.6687 140.697 77.3528 139.554 76.7211C138.411 76.0893 137.463 75.2018 136.711 74.0585V86.1526H130.754ZM141.991 72.2083C143.074 72.2083 144.021 71.9376 144.834 71.396C145.676 70.8545 146.338 70.1024 146.819 69.1397C147.301 68.177 147.541 67.0789 147.541 65.8454C147.541 64.6119 147.301 63.5138 146.819 62.5511C146.368 61.5884 145.721 60.8513 144.879 60.3399C144.067 59.7984 143.119 59.5276 142.036 59.5276C141.013 59.5276 140.095 59.7984 139.283 60.3399C138.471 60.8814 137.839 61.6335 137.388 62.5962C136.937 63.5289 136.711 64.6119 136.711 65.8454C136.711 67.0789 136.937 68.177 137.388 69.1397C137.839 70.1024 138.456 70.8545 139.238 71.396C140.05 71.9376 140.968 72.2083 141.991 72.2083ZM157.18 77.1272V54.5636H163.136V58.7153C164.069 57.3013 165.242 56.2484 166.656 55.5564C168.1 54.8344 169.59 54.4734 171.124 54.4734V60.2496C169.74 60.2496 168.431 60.4151 167.198 60.746C165.994 61.077 165.017 61.6185 164.265 62.3706C163.512 63.1227 163.136 64.0854 163.136 65.2588V77.1272H157.18ZM184.432 77.6687C182.145 77.6687 180.1 77.1723 178.295 76.1795C176.52 75.1566 175.121 73.7577 174.098 71.9827C173.105 70.2077 172.609 68.1619 172.609 65.8454C172.609 63.5289 173.105 61.4831 174.098 59.7081C175.091 57.9331 176.474 56.5492 178.249 55.5564C180.024 54.5335 182.055 54.0221 184.342 54.0221C186.658 54.0221 188.704 54.5335 190.479 55.5564C192.254 56.5492 193.638 57.9331 194.631 59.7081C195.623 61.4831 196.12 63.5289 196.12 65.8454C196.12 68.1619 195.623 70.2077 194.631 71.9827C193.638 73.7577 192.254 75.1566 190.479 76.1795C188.734 77.1723 186.718 77.6687 184.432 77.6687ZM184.432 72.1632C185.545 72.1632 186.523 71.8924 187.365 71.3509C188.207 70.8094 188.854 70.0723 189.306 69.1397C189.787 68.177 190.028 67.0789 190.028 65.8454C190.028 64.6119 189.787 63.5289 189.306 62.5962C188.824 61.6335 188.147 60.8814 187.275 60.3399C186.432 59.7984 185.455 59.5276 184.342 59.5276C183.259 59.5276 182.281 59.7984 181.408 60.3399C180.566 60.8814 179.904 61.6335 179.423 62.5962C178.941 63.5289 178.701 64.6119 178.701 65.8454C178.701 67.0789 178.941 68.177 179.423 69.1397C179.904 70.0723 180.581 70.8094 181.453 71.3509C182.326 71.8924 183.319 72.1632 184.432 72.1632ZM204.155 51.0437C203.192 51.0437 202.364 50.6977 201.673 50.0058C200.981 49.3138 200.635 48.4865 200.635 47.5238C200.635 46.5611 200.981 45.7337 201.673 45.0418C202.364 44.3498 203.192 44.0039 204.155 44.0039C205.117 44.0039 205.945 44.3498 206.637 45.0418C207.328 45.7337 207.674 46.5611 207.674 47.5238C207.674 48.4865 207.328 49.3138 206.637 50.0058C205.945 50.6977 205.117 51.0437 204.155 51.0437ZM199.145 86.8295C197.431 86.8295 195.791 86.3632 194.227 85.4306L196.618 80.5117C197.1 80.7524 197.536 80.9329 197.927 81.0533C198.348 81.2037 198.709 81.2789 199.01 81.2789C200.454 81.2789 201.176 80.3312 201.176 78.4359V54.5636H207.133V78.842C207.133 81.3992 206.441 83.3698 205.057 84.7537C203.673 86.1376 201.703 86.8295 199.145 86.8295ZM222.477 77.6687C220.25 77.6687 218.28 77.1723 216.565 76.1795C214.85 75.1566 213.496 73.7577 212.503 71.9827C211.541 70.2077 211.059 68.1619 211.059 65.8454C211.059 63.5289 211.556 61.4831 212.549 59.7081C213.571 57.9331 214.955 56.5492 216.7 55.5564C218.475 54.5335 220.506 54.0221 222.792 54.0221C224.778 54.0221 226.598 54.5486 228.253 55.6015C229.938 56.6244 231.276 58.1437 232.269 60.1594C233.292 62.145 233.803 64.5668 233.803 67.4249H217.287C217.437 68.9291 218.084 70.1325 219.227 71.035C220.371 71.9075 221.664 72.3437 223.108 72.3437C224.342 72.3437 225.35 72.088 226.132 71.5766C226.914 71.035 227.516 70.3431 227.937 69.5007L233.262 71.5766C232.63 72.8401 231.803 73.9382 230.78 74.8708C229.787 75.7734 228.599 76.4653 227.215 76.9467C225.831 77.428 224.252 77.6687 222.477 77.6687ZM217.603 63.0024H227.35C227.26 62.0698 226.959 61.3176 226.448 60.746C225.936 60.1744 225.335 59.7532 224.643 59.4825C223.951 59.2117 223.274 59.0763 222.612 59.0763C221.98 59.0763 221.288 59.2117 220.536 59.4825C219.814 59.7232 219.167 60.1293 218.596 60.7009C218.054 61.2725 217.723 62.0397 217.603 63.0024ZM247.689 77.6687C245.343 77.6687 243.252 77.1723 241.417 76.1795C239.581 75.1566 238.152 73.7577 237.129 71.9827C236.107 70.1776 235.595 68.1318 235.595 65.8454C235.595 63.5289 236.107 61.4831 237.129 59.7081C238.152 57.9331 239.566 56.5492 241.371 55.5564C243.177 54.5335 245.252 54.0221 247.599 54.0221C249.855 54.0221 251.916 54.5787 253.781 55.6918C255.647 56.8049 257 58.4145 257.843 60.5204L252.247 62.506C251.826 61.6335 251.164 60.9416 250.261 60.4301C249.389 59.8886 248.411 59.6179 247.328 59.6179C246.215 59.6179 245.237 59.8886 244.395 60.4301C243.553 60.9416 242.891 61.6636 242.409 62.5962C241.928 63.5289 241.687 64.6119 241.687 65.8454C241.687 67.0789 241.928 68.1619 242.409 69.0946C242.891 69.9971 243.568 70.7191 244.44 71.2607C245.313 71.8022 246.305 72.073 247.418 72.073C248.502 72.073 249.479 71.7871 250.352 71.2155C251.254 70.6439 251.916 69.8918 252.337 68.9592L257.978 70.9448C257.106 73.0808 255.737 74.7355 253.872 75.9088C252.036 77.0821 249.976 77.6687 247.689 77.6687ZM270.293 77.6687C267.796 77.6687 265.901 77.052 264.607 75.8185C263.343 74.585 262.712 72.8251 262.712 70.5386V59.6179H259.056V54.5636H262.712V47.5238H268.668V54.5636H274.309V59.6179H268.668V69.2299C268.668 70.1927 268.879 70.9297 269.3 71.4412C269.721 71.9225 270.338 72.1632 271.15 72.1632C271.451 72.1632 271.782 72.103 272.143 71.9827C272.504 71.8323 272.88 71.6217 273.271 71.3509L275.347 75.8185C274.625 76.36 273.813 76.7963 272.91 77.1272C272.038 77.4882 271.165 77.6687 270.293 77.6687ZM288.504 77.6687C286.278 77.6687 284.307 77.1723 282.592 76.1795C280.877 75.1566 279.524 73.7577 278.531 71.9827C277.568 70.2077 277.087 68.1619 277.087 65.8454C277.087 63.5289 277.583 61.4831 278.576 59.7081C279.599 57.9331 280.983 56.5492 282.728 55.5564C284.503 54.5335 286.533 54.0221 288.82 54.0221C290.805 54.0221 292.626 54.5486 294.28 55.6015C295.965 56.6244 297.304 58.1437 298.297 60.1594C299.319 62.145 299.831 64.5668 299.831 67.4249H283.314C283.465 68.9291 284.112 70.1325 285.255 71.035C286.398 71.9075 287.692 72.3437 289.136 72.3437C290.369 72.3437 291.377 72.088 292.159 71.5766C292.941 71.035 293.543 70.3431 293.964 69.5007L299.289 71.5766C298.658 72.8401 297.83 73.9382 296.807 74.8708C295.815 75.7734 294.626 76.4653 293.242 76.9467C291.858 77.428 290.279 77.6687 288.504 77.6687ZM283.63 63.0024H293.378C293.287 62.0698 292.987 61.3176 292.475 60.746C291.964 60.1744 291.362 59.7532 290.67 59.4825C289.978 59.2117 289.301 59.0763 288.639 59.0763C288.008 59.0763 287.316 59.2117 286.564 59.4825C285.841 59.7232 285.195 60.1293 284.623 60.7009C284.082 61.2725 283.751 62.0397 283.63 63.0024ZM311.821 77.6687C309.745 77.6687 307.94 77.1874 306.406 76.2247C304.902 75.2619 303.729 73.8931 302.886 72.1181C302.044 70.3431 301.623 68.2522 301.623 65.8454C301.623 63.4085 302.044 61.3176 302.886 59.5727C303.729 57.7977 304.902 56.4289 306.406 55.4662C307.94 54.5034 309.745 54.0221 311.821 54.0221C313.295 54.0221 314.604 54.338 315.747 54.9698C316.921 55.5715 317.868 56.4439 318.59 57.5871V45.5382H324.547V77.1272H318.906L318.726 73.9683C317.974 75.1416 317.011 76.0592 315.838 76.7211C314.664 77.3528 313.326 77.6687 311.821 77.6687ZM313.356 72.2083C314.348 72.2083 315.221 71.9677 315.973 71.4863C316.755 70.9749 317.372 70.2679 317.823 69.3653C318.275 68.4628 318.53 67.4399 318.59 66.2967V65.3941C318.53 64.2509 318.275 63.2431 317.823 62.3706C317.372 61.4681 316.755 60.7761 315.973 60.2948C315.191 59.7833 314.303 59.5276 313.311 59.5276C312.227 59.5276 311.265 59.7984 310.422 60.3399C309.61 60.8513 308.963 61.5884 308.482 62.5511C308.031 63.5138 307.805 64.6119 307.805 65.8454C307.805 67.0789 308.046 68.177 308.527 69.1397C309.008 70.1024 309.655 70.8545 310.468 71.396C311.31 71.9376 312.273 72.2083 313.356 72.2083ZM348.825 77.6687C346.328 77.6687 344.433 77.052 343.139 75.8185C341.876 74.585 341.244 72.8251 341.244 70.5386V59.6179H337.589V54.5636H341.244V47.5238H347.201V54.5636H352.842V59.6179H347.201V69.2299C347.201 70.1927 347.411 70.9297 347.832 71.4412C348.254 71.9225 348.87 72.1632 349.683 72.1632C349.984 72.1632 350.314 72.103 350.676 71.9827C351.037 71.8323 351.413 71.6217 351.804 71.3509L353.88 75.8185C353.158 76.36 352.345 76.7963 351.443 77.1272C350.57 77.4882 349.698 77.6687 348.825 77.6687ZM357.279 77.1272V45.5382H363.236V57.4518C363.988 56.3386 364.921 55.4962 366.034 54.9246C367.147 54.3229 368.396 54.0221 369.779 54.0221C371.585 54.0221 373.104 54.3831 374.337 55.1051C375.601 55.8272 376.564 56.9554 377.225 58.4897C377.887 59.9939 378.218 61.9494 378.218 64.3562V77.1272H372.261V65.5746C372.261 64.0403 372.081 62.852 371.72 62.0096C371.359 61.1672 370.863 60.5655 370.231 60.2045C369.599 59.8134 368.862 59.6179 368.02 59.6179C366.485 59.5878 365.297 60.0541 364.454 61.0168C363.642 61.9795 363.236 63.4085 363.236 65.3039V77.1272H357.279ZM389.83 77.6687C387.122 77.6687 385.016 77.067 383.512 75.8636C382.038 74.6602 381.301 72.9605 381.301 70.7643C381.301 68.3575 382.098 66.5524 383.692 65.349C385.317 64.1155 387.588 63.4988 390.507 63.4988H395.832C395.621 62.1149 395.185 61.0619 394.523 60.3399C393.861 59.5878 392.913 59.2117 391.68 59.2117C390.717 59.2117 389.845 59.4223 389.063 59.8435C388.28 60.2647 387.618 60.9115 387.077 61.784L381.842 59.9789C382.263 59.0162 382.88 58.0835 383.692 57.181C384.505 56.2484 385.558 55.4962 386.851 54.9246C388.175 54.3229 389.785 54.0221 391.68 54.0221C393.966 54.0221 395.862 54.4583 397.366 55.3308C398.9 56.2032 400.028 57.4367 400.75 59.0312C401.503 60.5956 401.864 62.4609 401.834 64.627L401.698 77.1272H396.148L396.057 74.5098C395.486 75.5327 394.673 76.3149 393.62 76.8564C392.598 77.398 391.334 77.6687 389.83 77.6687ZM390.823 72.7047C391.785 72.7047 392.658 72.4791 393.44 72.0278C394.222 71.5766 394.839 70.9899 395.29 70.2679C395.741 69.5458 395.967 68.7937 395.967 68.0115V67.9213H392.582C390.627 67.9213 389.273 68.1619 388.521 68.6433C387.769 69.0946 387.393 69.7414 387.393 70.5838C387.393 71.2456 387.694 71.7721 388.295 72.1632C388.897 72.5242 389.739 72.7047 390.823 72.7047ZM415.426 77.6687C412.929 77.6687 411.033 77.052 409.74 75.8185C408.476 74.585 407.844 72.8251 407.844 70.5386V59.6179H404.189V54.5636H407.844V47.5238H413.801V54.5636H419.442V59.6179H413.801V69.2299C413.801 70.1927 414.012 70.9297 414.433 71.4412C414.854 71.9225 415.471 72.1632 416.283 72.1632C416.584 72.1632 416.915 72.103 417.276 71.9827C417.637 71.8323 418.013 71.6217 418.404 71.3509L420.48 75.8185C419.758 76.36 418.946 76.7963 418.043 77.1272C417.171 77.4882 416.298 77.6687 415.426 77.6687ZM53.2498 123.127L45.5782 100.564H51.6253L56.3185 115.095L61.0568 100.564H66.9234L71.5715 114.869L76.3098 100.564H82.3569L74.6852 123.127H68.8187L63.9901 107.874L59.1164 123.127H53.2498ZM91.5325 123.669C88.8249 123.669 86.7189 123.067 85.2147 121.864C83.7405 120.66 83.0035 118.96 83.0035 116.764C83.0035 114.357 83.8007 112.552 85.3952 111.349C87.0198 110.116 89.2912 109.499 92.2094 109.499H97.5344C97.3238 108.115 96.8876 107.062 96.2257 106.34C95.5639 105.588 94.6162 105.212 93.3827 105.212C92.42 105.212 91.5475 105.422 90.7653 105.843C89.9831 106.265 89.3213 106.912 88.7797 107.784L83.545 105.979C83.9662 105.016 84.5829 104.084 85.3952 103.181C86.2075 102.248 87.2605 101.496 88.5541 100.925C89.8778 100.323 91.4874 100.022 93.3827 100.022C95.6692 100.022 97.5645 100.458 99.0687 101.331C100.603 102.203 101.731 103.437 102.453 105.031C103.205 106.596 103.566 108.461 103.536 110.627L103.401 123.127H97.8503L97.7601 120.51C97.1884 121.533 96.3762 122.315 95.3232 122.856C94.3003 123.398 93.0367 123.669 91.5325 123.669ZM92.5253 118.705C93.488 118.705 94.3605 118.479 95.1427 118.028C95.9249 117.577 96.5416 116.99 96.9929 116.268C97.4442 115.546 97.6698 114.794 97.6698 114.012V113.921H94.2853C92.3298 113.921 90.9759 114.162 90.2238 114.643C89.4717 115.095 89.0956 115.741 89.0956 116.584C89.0956 117.246 89.3965 117.772 89.9982 118.163C90.5999 118.524 91.4423 118.705 92.5253 118.705ZM117.128 123.669C114.631 123.669 112.736 123.052 111.442 121.819C110.179 120.585 109.547 118.825 109.547 116.539V105.618H105.892V100.564H109.547V93.5238H115.504V100.564H121.145V105.618H115.504V115.23C115.504 116.193 115.714 116.93 116.136 117.441C116.557 117.923 117.174 118.163 117.986 118.163C118.287 118.163 118.618 118.103 118.979 117.983C119.34 117.832 119.716 117.622 120.107 117.351L122.183 121.819C121.461 122.36 120.648 122.796 119.746 123.127C118.873 123.488 118.001 123.669 117.128 123.669ZM135.339 123.669C133.113 123.669 131.143 123.172 129.428 122.18C127.713 121.157 126.359 119.758 125.366 117.983C124.404 116.208 123.922 114.162 123.922 111.845C123.922 109.529 124.419 107.483 125.411 105.708C126.434 103.933 127.818 102.549 129.563 101.556C131.338 100.534 133.369 100.022 135.655 100.022C137.641 100.022 139.461 100.549 141.116 101.602C142.8 102.624 144.139 104.144 145.132 106.159C146.155 108.145 146.666 110.567 146.666 113.425H130.15C130.3 114.929 130.947 116.132 132.09 117.035C133.233 117.907 134.527 118.344 135.971 118.344C137.205 118.344 138.212 118.088 138.995 117.577C139.777 117.035 140.379 116.343 140.8 115.501L146.125 117.577C145.493 118.84 144.666 119.938 143.643 120.871C142.65 121.773 141.462 122.465 140.078 122.947C138.694 123.428 137.114 123.669 135.339 123.669ZM130.466 109.002H140.213C140.123 108.07 139.822 107.318 139.311 106.746C138.799 106.174 138.197 105.753 137.505 105.482C136.814 105.212 136.137 105.076 135.475 105.076C134.843 105.076 134.151 105.212 133.399 105.482C132.677 105.723 132.03 106.129 131.458 106.701C130.917 107.273 130.586 108.04 130.466 109.002ZM149.676 123.127V100.564H155.633V104.715C156.566 103.301 157.739 102.248 159.153 101.556C160.597 100.834 162.086 100.473 163.621 100.473V106.25C162.237 106.25 160.928 106.415 159.695 106.746C158.491 107.077 157.514 107.618 156.761 108.371C156.009 109.123 155.633 110.085 155.633 111.259V123.127H149.676ZM187.501 123.669C185.154 123.669 183.063 123.172 181.228 122.18C179.393 121.157 177.964 119.758 176.941 117.983C175.918 116.178 175.407 114.132 175.407 111.845C175.407 109.529 175.918 107.483 176.941 105.708C177.964 103.933 179.378 102.549 181.183 101.556C182.988 100.534 185.064 100.022 187.411 100.022C189.667 100.022 191.728 100.579 193.593 101.692C195.458 102.805 196.812 104.414 197.654 106.52L192.059 108.506C191.637 107.634 190.976 106.942 190.073 106.43C189.201 105.889 188.223 105.618 187.14 105.618C186.027 105.618 185.049 105.889 184.207 106.43C183.364 106.942 182.702 107.664 182.221 108.596C181.74 109.529 181.499 110.612 181.499 111.845C181.499 113.079 181.74 114.162 182.221 115.095C182.702 115.997 183.379 116.719 184.252 117.261C185.124 117.802 186.117 118.073 187.23 118.073C188.313 118.073 189.291 117.787 190.163 117.216C191.066 116.644 191.728 115.892 192.149 114.959L197.79 116.945C196.917 119.081 195.548 120.735 193.683 121.909C191.848 123.082 189.787 123.669 187.501 123.669ZM211.413 123.669C209.127 123.669 207.081 123.172 205.276 122.18C203.501 121.157 202.102 119.758 201.079 117.983C200.086 116.208 199.59 114.162 199.59 111.845C199.59 109.529 200.086 107.483 201.079 105.708C202.072 103.933 203.456 102.549 205.231 101.556C207.006 100.534 209.037 100.022 211.323 100.022C213.64 100.022 215.685 100.534 217.46 101.556C219.235 102.549 220.619 103.933 221.612 105.708C222.605 107.483 223.101 109.529 223.101 111.845C223.101 114.162 222.605 116.208 221.612 117.983C220.619 119.758 219.235 121.157 217.46 122.18C215.715 123.172 213.7 123.669 211.413 123.669ZM211.413 118.163C212.526 118.163 213.504 117.892 214.347 117.351C215.189 116.809 215.836 116.072 216.287 115.14C216.768 114.177 217.009 113.079 217.009 111.845C217.009 110.612 216.768 109.529 216.287 108.596C215.806 107.634 215.129 106.881 214.256 106.34C213.414 105.798 212.436 105.528 211.323 105.528C210.24 105.528 209.262 105.798 208.39 106.34C207.547 106.881 206.886 107.634 206.404 108.596C205.923 109.529 205.682 110.612 205.682 111.845C205.682 113.079 205.923 114.177 206.404 115.14C206.886 116.072 207.562 116.809 208.435 117.351C209.307 117.892 210.3 118.163 211.413 118.163ZM226.578 123.127V100.564H232.174L232.445 103.632C233.167 102.459 234.084 101.571 235.197 100.97C236.341 100.338 237.634 100.022 239.078 100.022C240.853 100.022 242.373 100.383 243.636 101.105C244.9 101.827 245.862 102.955 246.524 104.49C247.186 105.994 247.502 107.949 247.472 110.356V123.127H241.515V111.575C241.515 110.04 241.335 108.852 240.974 108.01C240.643 107.167 240.161 106.566 239.53 106.205C238.898 105.813 238.161 105.618 237.318 105.618C235.784 105.588 234.596 106.054 233.753 107.017C232.941 107.98 232.535 109.409 232.535 111.304V123.127H226.578ZM260.214 123.669C258.77 123.669 257.416 123.458 256.152 123.037C254.889 122.586 253.776 121.954 252.813 121.142C251.85 120.299 251.098 119.276 250.557 118.073L255.656 115.726C256.107 116.448 256.724 117.08 257.506 117.622C258.288 118.133 259.191 118.389 260.214 118.389C261.207 118.389 261.974 118.253 262.515 117.983C263.057 117.682 263.328 117.261 263.328 116.719C263.328 116.178 263.102 115.787 262.651 115.546C262.229 115.275 261.643 115.049 260.891 114.869L258.815 114.327C256.649 113.756 254.934 112.853 253.67 111.62C252.437 110.356 251.82 108.912 251.82 107.288C251.82 104.971 252.557 103.181 254.031 101.917C255.536 100.654 257.657 100.022 260.394 100.022C261.808 100.022 263.117 100.233 264.32 100.654C265.554 101.075 266.607 101.662 267.479 102.414C268.352 103.166 268.953 104.038 269.284 105.031L264.365 107.288C264.155 106.686 263.643 106.205 262.831 105.843C262.019 105.452 261.207 105.257 260.394 105.257C259.582 105.257 258.95 105.437 258.499 105.798C258.078 106.129 257.867 106.596 257.867 107.197C257.867 107.588 258.078 107.919 258.499 108.19C258.92 108.431 259.522 108.641 260.304 108.822L263.237 109.544C264.711 109.905 265.885 110.492 266.757 111.304C267.66 112.086 268.307 112.974 268.698 113.966C269.119 114.929 269.329 115.877 269.329 116.809C269.329 118.163 268.923 119.367 268.111 120.42C267.329 121.442 266.246 122.24 264.862 122.811C263.508 123.383 261.959 123.669 260.214 123.669ZM280.377 123.669C278.572 123.669 277.038 123.308 275.774 122.586C274.541 121.864 273.593 120.75 272.931 119.246C272.269 117.712 271.938 115.741 271.938 113.335V100.564H277.895V112.116C277.895 113.62 278.061 114.809 278.392 115.681C278.753 116.524 279.249 117.14 279.881 117.531C280.543 117.892 281.28 118.073 282.092 118.073C283.656 118.103 284.845 117.637 285.657 116.674C286.469 115.681 286.875 114.252 286.875 112.387V100.564H292.832V123.127H287.236L287.011 120.059C286.259 121.202 285.311 122.089 284.168 122.721C283.055 123.353 281.791 123.669 280.377 123.669ZM297.541 123.127V100.564H303.137L303.408 103.497C304.1 102.354 304.987 101.496 306.07 100.925C307.153 100.323 308.357 100.022 309.681 100.022C311.516 100.022 313.05 100.413 314.284 101.195C315.547 101.978 316.465 103.181 317.036 104.806C317.698 103.271 318.631 102.098 319.834 101.286C321.038 100.443 322.437 100.022 324.031 100.022C326.678 100.022 328.694 100.864 330.078 102.549C331.462 104.204 332.154 106.761 332.154 110.221V123.127H326.197V111.575C326.197 110.04 326.032 108.852 325.701 108.01C325.37 107.167 324.919 106.566 324.347 106.205C323.775 105.813 323.098 105.618 322.316 105.618C320.872 105.588 319.759 106.054 318.977 107.017C318.195 107.98 317.803 109.409 317.803 111.304V123.127H311.847V111.575C311.847 110.04 311.681 108.852 311.35 108.01C311.049 107.167 310.598 106.566 309.996 106.205C309.425 105.813 308.748 105.618 307.966 105.618C306.522 105.588 305.409 106.054 304.626 107.017C303.874 107.98 303.498 109.409 303.498 111.304V123.127H297.541ZM336.669 132.153V100.564H342.265L342.536 103.768C343.288 102.564 344.236 101.647 345.379 101.015C346.552 100.353 347.906 100.022 349.44 100.022C351.516 100.022 353.306 100.503 354.811 101.466C356.345 102.429 357.533 103.798 358.376 105.573C359.218 107.318 359.639 109.409 359.639 111.845C359.639 114.252 359.218 116.343 358.376 118.118C357.533 119.893 356.345 121.262 354.811 122.225C353.306 123.187 351.516 123.669 349.44 123.669C347.936 123.669 346.612 123.353 345.469 122.721C344.326 122.089 343.378 121.202 342.626 120.059V132.153H336.669ZM347.906 118.208C348.989 118.208 349.937 117.938 350.749 117.396C351.592 116.855 352.253 116.102 352.735 115.14C353.216 114.177 353.457 113.079 353.457 111.845C353.457 110.612 353.216 109.514 352.735 108.551C352.283 107.588 351.637 106.851 350.794 106.34C349.982 105.798 349.034 105.528 347.951 105.528C346.928 105.528 346.011 105.798 345.199 106.34C344.386 106.881 343.754 107.634 343.303 108.596C342.852 109.529 342.626 110.612 342.626 111.845C342.626 113.079 342.852 114.177 343.303 115.14C343.754 116.102 344.371 116.855 345.153 117.396C345.966 117.938 346.883 118.208 347.906 118.208ZM372.391 123.669C369.894 123.669 367.999 123.052 366.705 121.819C365.442 120.585 364.81 118.825 364.81 116.539V105.618H361.154V100.564H364.81V93.5238H370.767V100.564H376.407V105.618H370.767V115.23C370.767 116.193 370.977 116.93 371.398 117.441C371.82 117.923 372.436 118.163 373.249 118.163C373.549 118.163 373.88 118.103 374.241 117.983C374.602 117.832 374.978 117.622 375.37 117.351L377.445 121.819C376.723 122.36 375.911 122.796 375.009 123.127C374.136 123.488 373.264 123.669 372.391 123.669ZM381.161 123.127V100.564H387.118V123.127H381.161ZM384.139 96.9083C383.237 96.9083 382.44 96.5774 381.748 95.9155C381.056 95.2236 380.71 94.4113 380.71 93.4786C380.71 92.546 381.056 91.7488 381.748 91.0869C382.44 90.395 383.237 90.049 384.139 90.049C385.072 90.049 385.869 90.395 386.531 91.0869C387.223 91.7488 387.569 92.546 387.569 93.4786C387.569 94.4113 387.223 95.2236 386.531 95.9155C385.869 96.5774 385.072 96.9083 384.139 96.9083ZM402.764 123.669C400.477 123.669 398.432 123.172 396.627 122.18C394.852 121.157 393.453 119.758 392.43 117.983C391.437 116.208 390.941 114.162 390.941 111.845C390.941 109.529 391.437 107.483 392.43 105.708C393.423 103.933 394.806 102.549 396.581 101.556C398.356 100.534 400.387 100.022 402.674 100.022C404.99 100.022 407.036 100.534 408.811 101.556C410.586 102.549 411.97 103.933 412.963 105.708C413.955 107.483 414.452 109.529 414.452 111.845C414.452 114.162 413.955 116.208 412.963 117.983C411.97 119.758 410.586 121.157 408.811 122.18C407.066 123.172 405.05 123.669 402.764 123.669ZM402.764 118.163C403.877 118.163 404.855 117.892 405.697 117.351C406.54 116.809 407.186 116.072 407.638 115.14C408.119 114.177 408.36 113.079 408.36 111.845C408.36 110.612 408.119 109.529 407.638 108.596C407.156 107.634 406.479 106.881 405.607 106.34C404.765 105.798 403.787 105.528 402.674 105.528C401.591 105.528 400.613 105.798 399.74 106.34C398.898 106.881 398.236 107.634 397.755 108.596C397.273 109.529 397.033 110.612 397.033 111.845C397.033 113.079 397.273 114.177 397.755 115.14C398.236 116.072 398.913 116.809 399.786 117.351C400.658 117.892 401.651 118.163 402.764 118.163ZM417.929 123.127V100.564H423.525L423.795 103.632C424.517 102.459 425.435 101.571 426.548 100.97C427.691 100.338 428.985 100.022 430.429 100.022C432.204 100.022 433.723 100.383 434.987 101.105C436.25 101.827 437.213 102.955 437.875 104.49C438.537 105.994 438.853 107.949 438.823 110.356V123.127H432.866V111.575C432.866 110.04 432.685 108.852 432.324 108.01C431.993 107.167 431.512 106.566 430.88 106.205C430.248 105.813 429.511 105.618 428.669 105.618C427.135 105.588 425.946 106.054 425.104 107.017C424.292 107.98 423.886 109.409 423.886 111.304V123.127H417.929ZM60.4702 169.669C58.9359 169.669 57.5971 169.353 56.4539 168.721C55.3107 168.059 54.3479 167.127 53.5657 165.923L53.3401 169.127H47.6992V137.538H53.656V149.632C54.4081 148.459 55.3558 147.571 56.499 146.97C57.6422 146.338 58.966 146.022 60.4702 146.022C62.546 146.022 64.3361 146.503 65.8403 147.466C67.3746 148.429 68.563 149.798 69.4054 151.573C70.2477 153.318 70.6689 155.409 70.6689 157.845C70.6689 160.252 70.2477 162.343 69.4054 164.118C68.563 165.893 67.3746 167.262 65.8403 168.225C64.3361 169.187 62.546 169.669 60.4702 169.669ZM58.9359 164.208C60.0189 164.208 60.9666 163.938 61.7789 163.396C62.6213 162.855 63.2831 162.102 63.7645 161.14C64.2458 160.177 64.4865 159.079 64.4865 157.845C64.4865 156.612 64.2458 155.514 63.7645 154.551C63.3132 153.588 62.6664 152.851 61.824 152.34C61.0117 151.798 60.064 151.528 58.981 151.528C57.9581 151.528 57.0405 151.798 56.2282 152.34C55.4159 152.881 54.7842 153.634 54.3329 154.596C53.8816 155.529 53.656 156.612 53.656 157.845C53.656 159.079 53.8816 160.177 54.3329 161.14C54.7842 162.102 55.4009 162.855 56.1831 163.396C56.9954 163.938 57.913 164.208 58.9359 164.208ZM77.6732 178.694C76.8609 178.694 75.9583 178.529 74.9655 178.198C74.0028 177.897 73.1454 177.536 72.3933 177.115L74.6045 172.286C75.116 172.557 75.5823 172.767 76.0035 172.918C76.4547 173.098 76.8458 173.189 77.1768 173.189C77.8086 173.189 78.3651 173.008 78.8465 172.647C79.3278 172.316 79.7189 171.82 80.0198 171.158L80.9675 168.856L70.7687 146.564H77.3122L83.7202 162.132L89.8575 146.564H96.401L86.1571 171.068C85.5253 172.572 84.8634 173.896 84.1715 175.039C83.4795 176.212 82.6221 177.115 81.5992 177.746C80.6064 178.378 79.2978 178.694 77.6732 178.694ZM117.992 169.669C115.916 169.669 114.111 169.187 112.576 168.225C111.072 167.262 109.899 165.893 109.056 164.118C108.214 162.343 107.793 160.252 107.793 157.845C107.793 155.409 108.214 153.318 109.056 151.573C109.899 149.798 111.072 148.429 112.576 147.466C114.111 146.503 115.916 146.022 117.992 146.022C119.466 146.022 120.774 146.338 121.918 146.97C123.091 147.571 124.039 148.444 124.761 149.587V137.538H130.717V169.127H125.076L124.896 165.968C124.144 167.142 123.181 168.059 122.008 168.721C120.835 169.353 119.496 169.669 117.992 169.669ZM119.526 164.208C120.519 164.208 121.391 163.968 122.143 163.486C122.925 162.975 123.542 162.268 123.993 161.365C124.445 160.463 124.7 159.44 124.761 158.297V157.394C124.7 156.251 124.445 155.243 123.993 154.371C123.542 153.468 122.925 152.776 122.143 152.295C121.361 151.783 120.474 151.528 119.481 151.528C118.398 151.528 117.435 151.798 116.593 152.34C115.78 152.851 115.133 153.588 114.652 154.551C114.201 155.514 113.975 156.612 113.975 157.845C113.975 159.079 114.216 160.177 114.697 161.14C115.179 162.102 115.825 162.855 116.638 163.396C117.48 163.938 118.443 164.208 119.526 164.208ZM142.709 169.669C140.001 169.669 137.895 169.067 136.391 167.864C134.917 166.66 134.179 164.96 134.179 162.764C134.179 160.357 134.977 158.552 136.571 157.349C138.196 156.116 140.467 155.499 143.385 155.499H148.71C148.5 154.115 148.064 153.062 147.402 152.34C146.74 151.588 145.792 151.212 144.559 151.212C143.596 151.212 142.724 151.422 141.941 151.843C141.159 152.265 140.497 152.912 139.956 153.784L134.721 151.979C135.142 151.016 135.759 150.084 136.571 149.181C137.384 148.248 138.436 147.496 139.73 146.925C141.054 146.323 142.663 146.022 144.559 146.022C146.845 146.022 148.741 146.458 150.245 147.331C151.779 148.203 152.907 149.437 153.629 151.031C154.381 152.596 154.742 154.461 154.712 156.627L154.577 169.127H149.026L148.936 166.51C148.364 167.533 147.552 168.315 146.499 168.856C145.476 169.398 144.213 169.669 142.709 169.669ZM143.701 164.705C144.664 164.705 145.536 164.479 146.319 164.028C147.101 163.577 147.718 162.99 148.169 162.268C148.62 161.546 148.846 160.794 148.846 160.012V159.921H145.461C143.506 159.921 142.152 160.162 141.4 160.643C140.648 161.095 140.272 161.741 140.272 162.584C140.272 163.246 140.573 163.772 141.174 164.163C141.776 164.524 142.618 164.705 143.701 164.705ZM168.304 169.669C165.807 169.669 163.912 169.052 162.618 167.819C161.355 166.585 160.723 164.825 160.723 162.539V151.618H157.068V146.564H160.723V139.524H166.68V146.564H172.321V151.618H166.68V161.23C166.68 162.193 166.89 162.93 167.312 163.441C167.733 163.923 168.35 164.163 169.162 164.163C169.463 164.163 169.794 164.103 170.155 163.983C170.516 163.832 170.892 163.622 171.283 163.351L173.359 167.819C172.637 168.36 171.824 168.796 170.922 169.127C170.049 169.488 169.177 169.669 168.304 169.669ZM183.627 169.669C180.92 169.669 178.814 169.067 177.309 167.864C175.835 166.66 175.098 164.96 175.098 162.764C175.098 160.357 175.895 158.552 177.49 157.349C179.115 156.116 181.386 155.499 184.304 155.499H189.629C189.419 154.115 188.982 153.062 188.32 152.34C187.659 151.588 186.711 151.212 185.477 151.212C184.515 151.212 183.642 151.422 182.86 151.843C182.078 152.265 181.416 152.912 180.875 153.784L175.64 151.979C176.061 151.016 176.678 150.084 177.49 149.181C178.302 148.248 179.355 147.496 180.649 146.925C181.973 146.323 183.582 146.022 185.477 146.022C187.764 146.022 189.659 146.458 191.164 147.331C192.698 148.203 193.826 149.437 194.548 151.031C195.3 152.596 195.661 154.461 195.631 156.627L195.496 169.127H189.945L189.855 166.51C189.283 167.533 188.471 168.315 187.418 168.856C186.395 169.398 185.132 169.669 183.627 169.669ZM184.62 164.705C185.583 164.705 186.455 164.479 187.237 164.028C188.02 163.577 188.636 162.99 189.088 162.268C189.539 161.546 189.765 160.794 189.765 160.012V159.921H186.38C184.425 159.921 183.071 160.162 182.319 160.643C181.566 161.095 181.19 161.741 181.19 162.584C181.19 163.246 181.491 163.772 182.093 164.163C182.695 164.524 183.537 164.705 184.62 164.705ZM221.104 169.669C218.757 169.669 216.667 169.172 214.831 168.18C212.996 167.157 211.567 165.758 210.544 163.983C209.521 162.178 209.01 160.132 209.01 157.845C209.01 155.529 209.521 153.483 210.544 151.708C211.567 149.933 212.981 148.549 214.786 147.556C216.591 146.534 218.667 146.022 221.014 146.022C223.27 146.022 225.331 146.579 227.196 147.692C229.061 148.805 230.415 150.414 231.258 152.52L225.662 154.506C225.241 153.634 224.579 152.942 223.676 152.43C222.804 151.889 221.826 151.618 220.743 151.618C219.63 151.618 218.652 151.889 217.81 152.43C216.967 152.942 216.305 153.664 215.824 154.596C215.343 155.529 215.102 156.612 215.102 157.845C215.102 159.079 215.343 160.162 215.824 161.095C216.305 161.997 216.982 162.719 217.855 163.261C218.727 163.802 219.72 164.073 220.833 164.073C221.916 164.073 222.894 163.787 223.767 163.216C224.669 162.644 225.331 161.892 225.752 160.959L231.393 162.945C230.521 165.081 229.152 166.735 227.286 167.909C225.451 169.082 223.39 169.669 221.104 169.669ZM244.61 169.669C242.384 169.669 240.414 169.172 238.699 168.18C236.984 167.157 235.63 165.758 234.637 163.983C233.675 162.208 233.193 160.162 233.193 157.845C233.193 155.529 233.69 153.483 234.682 151.708C235.705 149.933 237.089 148.549 238.834 147.556C240.609 146.534 242.64 146.022 244.926 146.022C246.912 146.022 248.732 146.549 250.387 147.602C252.071 148.624 253.41 150.144 254.403 152.159C255.426 154.145 255.937 156.567 255.937 159.425H239.421C239.571 160.929 240.218 162.132 241.361 163.035C242.504 163.907 243.798 164.344 245.242 164.344C246.476 164.344 247.483 164.088 248.266 163.577C249.048 163.035 249.65 162.343 250.071 161.501L255.396 163.577C254.764 164.84 253.937 165.938 252.914 166.871C251.921 167.773 250.733 168.465 249.349 168.947C247.965 169.428 246.385 169.669 244.61 169.669ZM239.737 155.002H249.484C249.394 154.07 249.093 153.318 248.582 152.746C248.07 152.174 247.468 151.753 246.776 151.482C246.084 151.212 245.408 151.076 244.746 151.076C244.114 151.076 243.422 151.212 242.67 151.482C241.948 151.723 241.301 152.129 240.729 152.701C240.188 153.273 239.857 154.04 239.737 155.002ZM258.947 169.127V146.564H264.543L264.814 149.632C265.536 148.459 266.454 147.571 267.567 146.97C268.71 146.338 270.004 146.022 271.448 146.022C273.223 146.022 274.742 146.383 276.005 147.105C277.269 147.827 278.232 148.955 278.894 150.49C279.555 151.994 279.871 153.949 279.841 156.356V169.127H273.884V157.575C273.884 156.04 273.704 154.852 273.343 154.01C273.012 153.167 272.531 152.566 271.899 152.205C271.267 151.813 270.53 151.618 269.688 151.618C268.153 151.588 266.965 152.054 266.123 153.017C265.31 153.98 264.904 155.409 264.904 157.304V169.127H258.947ZM293.44 169.669C290.943 169.669 289.048 169.052 287.754 167.819C286.491 166.585 285.859 164.825 285.859 162.539V151.618H282.204V146.564H285.859V139.524H291.816V146.564H297.457V151.618H291.816V161.23C291.816 162.193 292.026 162.93 292.448 163.441C292.869 163.923 293.486 164.163 294.298 164.163C294.599 164.163 294.93 164.103 295.291 163.983C295.652 163.832 296.028 163.622 296.419 163.351L298.495 167.819C297.773 168.36 296.96 168.796 296.058 169.127C295.185 169.488 294.313 169.669 293.44 169.669ZM311.651 169.669C309.425 169.669 307.455 169.172 305.74 168.18C304.025 167.157 302.671 165.758 301.678 163.983C300.716 162.208 300.234 160.162 300.234 157.845C300.234 155.529 300.731 153.483 301.723 151.708C302.746 149.933 304.13 148.549 305.875 147.556C307.65 146.534 309.681 146.022 311.967 146.022C313.953 146.022 315.773 146.549 317.428 147.602C319.112 148.624 320.451 150.144 321.444 152.159C322.467 154.145 322.978 156.567 322.978 159.425H306.462C306.612 160.929 307.259 162.132 308.402 163.035C309.545 163.907 310.839 164.344 312.283 164.344C313.517 164.344 314.524 164.088 315.307 163.577C316.089 163.035 316.691 162.343 317.112 161.501L322.437 163.577C321.805 164.84 320.978 165.938 319.955 166.871C318.962 167.773 317.774 168.465 316.39 168.947C315.006 169.428 313.426 169.669 311.651 169.669ZM306.778 155.002H316.525C316.435 154.07 316.134 153.318 315.623 152.746C315.111 152.174 314.509 151.753 313.817 151.482C313.126 151.212 312.449 151.076 311.787 151.076C311.155 151.076 310.463 151.212 309.711 151.482C308.989 151.723 308.342 152.129 307.77 152.701C307.229 153.273 306.898 154.04 306.778 155.002ZM325.988 169.127V146.564H331.945V150.715C332.878 149.301 334.051 148.248 335.465 147.556C336.909 146.834 338.398 146.473 339.933 146.473V152.25C338.549 152.25 337.24 152.415 336.007 152.746C334.803 153.077 333.826 153.618 333.073 154.371C332.321 155.123 331.945 156.085 331.945 157.259V169.127H325.988ZM351.075 169.669C349.63 169.669 348.277 169.458 347.013 169.037C345.75 168.586 344.636 167.954 343.674 167.142C342.711 166.299 341.959 165.276 341.417 164.073L346.517 161.726C346.968 162.448 347.585 163.08 348.367 163.622C349.149 164.133 350.052 164.389 351.075 164.389C352.067 164.389 352.835 164.253 353.376 163.983C353.918 163.682 354.188 163.261 354.188 162.719C354.188 162.178 353.963 161.787 353.511 161.546C353.09 161.275 352.504 161.049 351.751 160.869L349.676 160.327C347.51 159.756 345.795 158.853 344.531 157.62C343.298 156.356 342.681 154.912 342.681 153.288C342.681 150.971 343.418 149.181 344.892 147.917C346.396 146.654 348.517 146.022 351.255 146.022C352.669 146.022 353.978 146.233 355.181 146.654C356.415 147.075 357.468 147.662 358.34 148.414C359.212 149.166 359.814 150.038 360.145 151.031L355.226 153.288C355.016 152.686 354.504 152.205 353.692 151.843C352.88 151.452 352.067 151.257 351.255 151.257C350.443 151.257 349.811 151.437 349.36 151.798C348.939 152.129 348.728 152.596 348.728 153.197C348.728 153.588 348.939 153.919 349.36 154.19C349.781 154.431 350.383 154.641 351.165 154.822L354.098 155.544C355.572 155.905 356.746 156.492 357.618 157.304C358.521 158.086 359.167 158.974 359.558 159.966C359.98 160.929 360.19 161.877 360.19 162.809C360.19 164.163 359.784 165.367 358.972 166.42C358.19 167.442 357.107 168.24 355.723 168.811C354.369 169.383 352.819 169.669 351.075 169.669ZM379.057 169.127L371.386 146.564H377.433L382.126 161.095L386.864 146.564H392.731L397.379 160.869L402.117 146.564H408.164L400.493 169.127H394.626L389.798 153.874L384.924 169.127H379.057ZM411.096 169.127V146.564H417.052V169.127H411.096ZM414.074 142.908C413.171 142.908 412.374 142.577 411.682 141.916C410.99 141.224 410.644 140.411 410.644 139.479C410.644 138.546 410.99 137.749 411.682 137.087C412.374 136.395 413.171 136.049 414.074 136.049C415.007 136.049 415.804 136.395 416.466 137.087C417.158 137.749 417.504 138.546 417.504 139.479C417.504 140.411 417.158 141.224 416.466 141.916C415.804 142.577 415.007 142.908 414.074 142.908ZM422.094 169.127V137.538H428.05V169.127H422.094ZM432.747 169.127V137.538H438.704V169.127H432.747ZM56.6795 215.669C54.6037 215.669 52.7986 215.187 51.2642 214.225C49.76 213.262 48.5867 211.893 47.7443 210.118C46.902 208.343 46.4808 206.252 46.4808 203.845C46.4808 201.409 46.902 199.318 47.7443 197.573C48.5867 195.798 49.76 194.429 51.2642 193.466C52.7986 192.503 54.6037 192.022 56.6795 192.022C58.1537 192.022 59.4624 192.338 60.6056 192.97C61.7789 193.571 62.7265 194.444 63.4486 195.587V183.538H69.4054V215.127H63.7645L63.584 211.968C62.8318 213.142 61.8691 214.059 60.6958 214.721C59.5225 215.353 58.1837 215.669 56.6795 215.669ZM58.2138 210.208C59.2066 210.208 60.0791 209.968 60.8312 209.486C61.6134 208.975 62.2302 208.268 62.6814 207.365C63.1327 206.463 63.3884 205.44 63.4486 204.297V203.394C63.3884 202.251 63.1327 201.243 62.6814 200.371C62.2302 199.468 61.6134 198.776 60.8312 198.295C60.049 197.783 59.1615 197.528 58.1687 197.528C57.0857 197.528 56.1229 197.798 55.2806 198.34C54.4683 198.851 53.8215 199.588 53.3401 200.551C52.8888 201.514 52.6632 202.612 52.6632 203.845C52.6632 205.079 52.9039 206.177 53.3852 207.14C53.8666 208.102 54.5134 208.855 55.3257 209.396C56.1681 209.938 57.1308 210.208 58.2138 210.208ZM84.6908 215.669C82.4044 215.669 80.3586 215.172 78.5535 214.18C76.7785 213.157 75.3796 211.758 74.3567 209.983C73.3639 208.208 72.8675 206.162 72.8675 203.845C72.8675 201.529 73.3639 199.483 74.3567 197.708C75.3495 195.933 76.7334 194.549 78.5084 193.556C80.2834 192.534 82.3141 192.022 84.6006 192.022C86.9171 192.022 88.9628 192.534 90.7378 193.556C92.5128 194.549 93.8967 195.933 94.8895 197.708C95.8823 199.483 96.3787 201.529 96.3787 203.845C96.3787 206.162 95.8823 208.208 94.8895 209.983C93.8967 211.758 92.5128 213.157 90.7378 214.18C88.9929 215.172 86.9772 215.669 84.6908 215.669ZM84.6908 210.163C85.8039 210.163 86.7817 209.892 87.6241 209.351C88.4664 208.809 89.1133 208.072 89.5645 207.14C90.0459 206.177 90.2866 205.079 90.2866 203.845C90.2866 202.612 90.0459 201.529 89.5645 200.596C89.0832 199.634 88.4063 198.881 87.5338 198.34C86.6914 197.798 85.7137 197.528 84.6006 197.528C83.5175 197.528 82.5397 197.798 81.6673 198.34C80.8249 198.881 80.163 199.634 79.6817 200.596C79.2003 201.529 78.9597 202.612 78.9597 203.845C78.9597 205.079 79.2003 206.177 79.6817 207.14C80.163 208.072 80.84 208.809 81.7124 209.351C82.5849 209.892 83.5777 210.163 84.6908 210.163ZM107.888 215.669C106.083 215.669 104.549 215.308 103.285 214.586C102.052 213.864 101.104 212.75 100.442 211.246C99.7805 209.712 99.4495 207.741 99.4495 205.335V192.564H105.406V204.116C105.406 205.62 105.572 206.809 105.903 207.681C106.264 208.524 106.76 209.14 107.392 209.531C108.054 209.892 108.791 210.073 109.603 210.073C111.168 210.103 112.356 209.637 113.168 208.674C113.98 207.681 114.387 206.252 114.387 204.387V192.564H120.343V215.127H114.748L114.522 212.059C113.77 213.202 112.822 214.089 111.679 214.721C110.566 215.353 109.302 215.669 107.888 215.669ZM137.823 215.669C136.289 215.669 134.95 215.353 133.807 214.721C132.664 214.059 131.701 213.127 130.919 211.923L130.693 215.127H125.053V183.538H131.009V195.632C131.761 194.459 132.709 193.571 133.852 192.97C134.996 192.338 136.319 192.022 137.823 192.022C139.899 192.022 141.689 192.503 143.194 193.466C144.728 194.429 145.916 195.798 146.759 197.573C147.601 199.318 148.022 201.409 148.022 203.845C148.022 206.252 147.601 208.343 146.759 210.118C145.916 211.893 144.728 213.262 143.194 214.225C141.689 215.187 139.899 215.669 137.823 215.669ZM136.289 210.208C137.372 210.208 138.32 209.938 139.132 209.396C139.975 208.855 140.636 208.102 141.118 207.14C141.599 206.177 141.84 205.079 141.84 203.845C141.84 202.612 141.599 201.514 141.118 200.551C140.667 199.588 140.02 198.851 139.177 198.34C138.365 197.798 137.417 197.528 136.334 197.528C135.311 197.528 134.394 197.798 133.582 198.34C132.769 198.881 132.137 199.634 131.686 200.596C131.235 201.529 131.009 202.612 131.009 203.845C131.009 205.079 131.235 206.177 131.686 207.14C132.137 208.102 132.754 208.855 133.536 209.396C134.349 209.938 135.266 210.208 136.289 210.208ZM151.483 215.127V183.538H157.44V215.127H151.483ZM172.336 215.669C170.11 215.669 168.139 215.172 166.424 214.18C164.709 213.157 163.356 211.758 162.363 209.983C161.4 208.208 160.919 206.162 160.919 203.845C160.919 201.529 161.415 199.483 162.408 197.708C163.431 195.933 164.815 194.549 166.56 193.556C168.335 192.534 170.365 192.022 172.652 192.022C174.637 192.022 176.458 192.549 178.112 193.602C179.797 194.624 181.136 196.144 182.129 198.159C183.151 200.145 183.663 202.567 183.663 205.425H167.146C167.297 206.929 167.944 208.132 169.087 209.035C170.23 209.907 171.524 210.344 172.968 210.344C174.201 210.344 175.209 210.088 175.991 209.577C176.773 209.035 177.375 208.343 177.796 207.501L183.121 209.577C182.49 210.84 181.662 211.938 180.639 212.871C179.647 213.773 178.458 214.465 177.074 214.947C175.69 215.428 174.111 215.669 172.336 215.669ZM167.462 201.002H177.21C177.119 200.07 176.819 199.318 176.307 198.746C175.796 198.174 175.194 197.753 174.502 197.482C173.81 197.212 173.133 197.076 172.471 197.076C171.84 197.076 171.148 197.212 170.395 197.482C169.673 197.723 169.027 198.129 168.455 198.701C167.913 199.273 167.583 200.04 167.462 201.002ZM209.745 215.669C208.211 215.669 206.872 215.353 205.729 214.721C204.586 214.059 203.623 213.127 202.841 211.923L202.615 215.127H196.974V183.538H202.931V195.632C203.683 194.459 204.631 193.571 205.774 192.97C206.917 192.338 208.241 192.022 209.745 192.022C211.821 192.022 213.611 192.503 215.115 193.466C216.65 194.429 217.838 195.798 218.681 197.573C219.523 199.318 219.944 201.409 219.944 203.845C219.944 206.252 219.523 208.343 218.681 210.118C217.838 211.893 216.65 213.262 215.115 214.225C213.611 215.187 211.821 215.669 209.745 215.669ZM208.211 210.208C209.294 210.208 210.242 209.938 211.054 209.396C211.896 208.855 212.558 208.102 213.04 207.14C213.521 206.177 213.762 205.079 213.762 203.845C213.762 202.612 213.521 201.514 213.04 200.551C212.588 199.588 211.942 198.851 211.099 198.34C210.287 197.798 209.339 197.528 208.256 197.528C207.233 197.528 206.316 197.798 205.503 198.34C204.691 198.881 204.059 199.634 203.608 200.596C203.157 201.529 202.931 202.612 202.931 203.845C202.931 205.079 203.157 206.177 203.608 207.14C204.059 208.102 204.676 208.855 205.458 209.396C206.271 209.938 207.188 210.208 208.211 210.208ZM226.948 224.694C226.136 224.694 225.233 224.529 224.241 224.198C223.278 223.897 222.421 223.536 221.668 223.115L223.88 218.286C224.391 218.557 224.857 218.767 225.279 218.918C225.73 219.098 226.121 219.189 226.452 219.189C227.084 219.189 227.64 219.008 228.122 218.647C228.603 218.316 228.994 217.82 229.295 217.158L230.243 214.856L220.044 192.564H226.587L232.995 208.132L239.133 192.564H245.676L235.432 217.068C234.8 218.572 234.139 219.896 233.447 221.039C232.755 222.212 231.897 223.115 230.874 223.746C229.882 224.378 228.573 224.694 226.948 224.694ZM258.016 215.127V210.569C258.016 209.697 258.286 208.734 258.828 207.681C259.369 206.628 260.122 205.575 261.084 204.522C262.047 203.469 263.175 202.492 264.469 201.589L269.252 198.159C269.914 197.708 270.531 197.197 271.102 196.625C271.704 196.053 272.186 195.437 272.547 194.775C272.938 194.083 273.133 193.421 273.133 192.789C273.133 192.007 272.938 191.3 272.547 190.668C272.186 190.036 271.644 189.54 270.922 189.179C270.2 188.818 269.312 188.638 268.259 188.638C267.357 188.638 266.545 188.818 265.823 189.179C265.131 189.54 264.559 190.021 264.108 190.623C263.656 191.225 263.341 191.872 263.16 192.564L256.797 191.481C257.098 189.976 257.745 188.577 258.738 187.284C259.73 185.99 261.024 184.952 262.619 184.17C264.243 183.358 266.078 182.952 268.124 182.952C270.471 182.952 272.486 183.373 274.171 184.215C275.856 185.057 277.15 186.216 278.052 187.69C278.985 189.134 279.451 190.819 279.451 192.744C279.451 194.7 278.909 196.445 277.826 197.979C276.773 199.483 275.314 200.897 273.449 202.221L269.162 205.335C268.29 205.936 267.537 206.598 266.906 207.32C266.274 208.042 265.793 208.839 265.462 209.712H279.857V215.127H258.016ZM296.017 215.669C293.46 215.669 291.203 214.977 289.248 213.593C287.292 212.179 285.758 210.253 284.645 207.817C283.532 205.35 282.975 202.522 282.975 199.333C282.975 196.144 283.532 193.331 284.645 190.894C285.758 188.427 287.277 186.502 289.203 185.118C291.158 183.704 293.415 182.997 295.972 182.997C298.529 182.997 300.785 183.704 302.741 185.118C304.726 186.502 306.276 188.427 307.389 190.894C308.502 193.331 309.059 196.144 309.059 199.333C309.059 202.522 308.502 205.35 307.389 207.817C306.276 210.253 304.742 212.179 302.786 213.593C300.83 214.977 298.574 215.669 296.017 215.669ZM296.017 210.073C297.371 210.073 298.574 209.622 299.627 208.719C300.71 207.787 301.553 206.523 302.154 204.928C302.756 203.304 303.057 201.439 303.057 199.333C303.057 197.227 302.756 195.361 302.154 193.737C301.553 192.112 300.71 190.849 299.627 189.946C298.574 189.014 297.356 188.547 295.972 188.547C294.618 188.547 293.415 189.014 292.362 189.946C291.309 190.849 290.481 192.112 289.88 193.737C289.308 195.361 289.022 197.227 289.022 199.333C289.022 201.439 289.308 203.304 289.88 204.928C290.481 206.523 291.309 207.787 292.362 208.719C293.445 209.622 294.663 210.073 296.017 210.073ZM322.887 215.669C321.022 215.669 319.337 215.398 317.833 214.856C316.329 214.285 315.065 213.488 314.042 212.465C313.049 211.412 312.357 210.178 311.966 208.764L317.652 207.095C317.863 207.456 318.149 207.907 318.51 208.448C318.871 208.96 319.367 209.396 319.999 209.757C320.631 210.118 321.458 210.299 322.481 210.299C323.985 210.299 325.173 209.892 326.046 209.08C326.948 208.238 327.4 207.155 327.4 205.831C327.4 204.928 327.174 204.131 326.723 203.439C326.272 202.747 325.534 202.221 324.512 201.86C323.519 201.469 322.21 201.273 320.586 201.273H318.69V196.219H320.586C322.691 196.219 324.256 195.858 325.279 195.136C326.302 194.414 326.813 193.421 326.813 192.157C326.813 191.435 326.633 190.789 326.272 190.217C325.911 189.645 325.399 189.194 324.737 188.863C324.075 188.532 323.308 188.367 322.436 188.367C321.864 188.367 321.277 188.472 320.676 188.683C320.074 188.863 319.518 189.179 319.006 189.63C318.525 190.052 318.134 190.668 317.833 191.481L312.237 189.811C312.658 188.337 313.38 187.103 314.403 186.11C315.456 185.088 316.705 184.32 318.149 183.809C319.593 183.267 321.082 182.997 322.616 182.997C324.572 182.997 326.332 183.373 327.896 184.125C329.461 184.847 330.694 185.855 331.597 187.148C332.499 188.442 332.95 189.931 332.95 191.616C332.95 193.271 332.484 194.685 331.551 195.858C330.649 197.001 329.43 197.919 327.896 198.611C329.641 199.423 331.025 200.506 332.048 201.86C333.071 203.184 333.582 204.748 333.582 206.553C333.582 208.448 333.086 210.088 332.093 211.472C331.1 212.826 329.791 213.864 328.167 214.586C326.542 215.308 324.782 215.669 322.887 215.669ZM349.451 215.669C346.894 215.669 344.638 214.977 342.682 213.593C340.727 212.179 339.192 210.253 338.079 207.817C336.966 205.35 336.41 202.522 336.41 199.333C336.41 196.144 336.966 193.331 338.079 190.894C339.192 188.427 340.712 186.502 342.637 185.118C344.593 183.704 346.849 182.997 349.406 182.997C351.963 182.997 354.22 183.704 356.175 185.118C358.161 186.502 359.71 188.427 360.823 190.894C361.937 193.331 362.493 196.144 362.493 199.333C362.493 202.522 361.937 205.35 360.823 207.817C359.71 210.253 358.176 212.179 356.22 213.593C354.265 214.977 352.009 215.669 349.451 215.669ZM349.451 210.073C350.805 210.073 352.009 209.622 353.062 208.719C354.145 207.787 354.987 206.523 355.589 204.928C356.19 203.304 356.491 201.439 356.491 199.333C356.491 197.227 356.19 195.361 355.589 193.737C354.987 192.112 354.145 190.849 353.062 189.946C352.009 189.014 350.79 188.547 349.406 188.547C348.052 188.547 346.849 189.014 345.796 189.946C344.743 190.849 343.916 192.112 343.314 193.737C342.742 195.361 342.457 197.227 342.457 199.333C342.457 201.439 342.742 203.304 343.314 204.928C343.916 206.523 344.743 207.787 345.796 208.719C346.879 209.622 348.098 210.073 349.451 210.073ZM369.237 215.804C368.244 215.804 367.386 215.443 366.664 214.721C365.972 213.999 365.626 213.142 365.626 212.149C365.626 211.186 365.972 210.344 366.664 209.622C367.386 208.9 368.244 208.539 369.237 208.539C370.229 208.539 371.072 208.9 371.764 209.622C372.486 210.344 372.847 211.186 372.847 212.149C372.847 213.142 372.486 213.999 371.764 214.721C371.072 215.443 370.229 215.804 369.237 215.804Z" fill="#48D36E"/>
<path d="M233.845 539.124V631.412C233.845 632.184 233.219 632.81 232.446 632.81H136.43C135.657 632.81 135.031 632.184 135.031 631.412V539.124" stroke="#48D36E" stroke-width="5.59321"/>
<path d="M377.403 456.866V631.408C377.403 632.181 376.777 632.807 376.005 632.807H279.988C279.216 632.807 278.59 632.181 278.59 631.408V456.866" stroke="#48D36E" stroke-width="5.59321"/>
<path d="M104.266 358.319H162.062C172.359 358.319 180.706 366.666 180.706 376.963V407.726" stroke="#48D36E" stroke-width="28.4321"/>
<line x1="165.558" y1="408.889" x2="194.923" y2="408.889" stroke="#48D36E" stroke-width="6.99151" stroke-linecap="round"/>
<path d="M248.295 358.32H306.091C316.388 358.32 324.735 366.667 324.735 376.964V407.726" stroke="#48D36E" stroke-width="28.4321"/>
<line x1="309.582" y1="408.89" x2="338.946" y2="408.89" stroke="#48D36E" stroke-width="6.99151" stroke-linecap="round"/>
<path d="M148.623 573.379C150.744 575.147 152.865 576.914 157.46 576.914C166.296 576.914 166.296 569.845 175.133 569.845C184.322 569.845 183.616 576.914 192.806 576.914C201.642 576.914 201.642 569.845 210.478 569.845C215.073 569.845 217.194 571.612 219.315 573.379" stroke="#48D36E" stroke-width="7.06919" stroke-linecap="round" stroke-linejoin="round"/>
<path d="M148.623 594.588C150.744 596.355 152.865 598.123 157.46 598.123C166.296 598.123 166.296 591.054 175.133 591.054C184.322 591.054 183.616 598.123 192.806 598.123C201.642 598.123 201.642 591.054 210.478 591.054C215.073 591.054 217.194 592.821 219.315 594.588" stroke="#48D36E" stroke-width="7.06919" stroke-linecap="round" stroke-linejoin="round"/>
<path d="M148.623 615.799C150.744 617.566 152.865 619.333 157.46 619.333C166.296 619.333 166.296 612.264 175.133 612.264C184.322 612.264 183.616 619.333 192.806 619.333C201.642 619.333 201.642 612.264 210.478 612.264C215.073 612.264 217.194 614.031 219.315 615.799" stroke="#48D36E" stroke-width="7.06919" stroke-linecap="round" stroke-linejoin="round"/>
<path d="M291.715 573.379C293.836 575.147 295.956 576.914 300.551 576.914C309.388 576.914 309.388 569.845 318.224 569.845C327.414 569.845 326.707 576.914 335.897 576.914C344.734 576.914 344.734 569.845 353.57 569.845C358.165 569.845 360.286 571.612 362.407 573.379" stroke="#48D36E" stroke-width="7.06919" stroke-linecap="round" stroke-linejoin="round"/>
<path d="M291.715 594.588C293.836 596.355 295.956 598.123 300.551 598.123C309.388 598.123 309.388 591.054 318.224 591.054C327.414 591.054 326.707 598.123 335.897 598.123C344.734 598.123 344.734 591.054 353.57 591.054C358.165 591.054 360.286 592.821 362.407 594.588" stroke="#48D36E" stroke-width="7.06919" stroke-linecap="round" stroke-linejoin="round"/>
<path d="M291.715 615.799C293.836 617.566 295.956 619.333 300.551 619.333C309.388 619.333 309.388 612.264 318.224 612.264C327.414 612.264 326.707 619.333 335.897 619.333C344.734 619.333 344.734 612.264 353.57 612.264C358.165 612.264 360.286 614.031 362.407 615.799" stroke="#48D36E" stroke-width="7.06919" stroke-linecap="round" stroke-linejoin="round"/>
<path d="M148.623 551.938C150.744 553.706 152.865 555.473 157.46 555.473C166.296 555.473 166.296 548.404 175.133 548.404C184.322 548.404 183.616 555.473 192.806 555.473C201.642 555.473 201.642 548.404 210.478 548.404C215.073 548.404 217.194 550.171 219.315 551.938" stroke="#48D36E" stroke-width="7.06919" stroke-linecap="round" stroke-linejoin="round"/>
<path d="M291.715 509.523C293.836 511.29 295.956 513.058 300.551 513.058C309.388 513.058 309.388 505.988 318.224 505.988C327.414 505.988 326.707 513.058 335.897 513.058C344.734 513.058 344.734 505.988 353.57 505.988C358.165 505.988 360.286 507.756 362.407 509.523" stroke="#48D36E" stroke-width="7.06919" stroke-linecap="round" stroke-linejoin="round"/>
<path d="M291.715 486.221C293.836 487.988 295.956 489.755 300.551 489.755C309.388 489.755 309.388 482.686 318.224 482.686C327.414 482.686 326.707 489.755 335.897 489.755C344.734 489.755 344.734 482.686 353.57 482.686C358.165 482.686 360.286 484.453 362.407 486.221" stroke="#48D36E" stroke-width="7.06919" stroke-linecap="round" stroke-linejoin="round"/>
<path d="M291.715 465.221C293.836 466.988 295.956 468.755 300.551 468.755C309.388 468.755 309.388 461.686 318.224 461.686C327.414 461.686 326.707 468.755 335.897 468.755C344.734 468.755 344.734 461.686 353.57 461.686C358.165 461.686 360.286 463.453 362.407 465.221" stroke="#48D36E" stroke-width="7.06919" stroke-linecap="round" stroke-linejoin="round"/>
<path d="M291.715 530.732C293.836 532.499 295.956 534.266 300.551 534.266C309.388 534.266 309.388 527.197 318.224 527.197C327.414 527.197 326.707 534.266 335.897 534.266C344.734 534.266 344.734 527.197 353.57 527.197C358.165 527.197 360.286 528.964 362.407 530.732" stroke="#48D36E" stroke-width="7.06919" stroke-linecap="round" stroke-linejoin="round"/>
<path d="M291.715 551.938C293.836 553.706 295.956 555.473 300.551 555.473C309.388 555.473 309.388 548.404 318.224 548.404C327.414 548.404 326.707 555.473 335.897 555.473C344.734 555.473 344.734 548.404 353.57 548.404C358.165 548.404 360.286 550.171 362.407 551.938" stroke="#48D36E" stroke-width="7.06919" stroke-linecap="round" stroke-linejoin="round"/>
<path d="M186.379 436.101C186.379 433.176 180.009 428.156 180.009 428.156C180.009 428.156 173.639 433.176 173.639 436.101C173.639 439.026 176.491 441.398 180.009 441.398C183.527 441.398 186.379 439.026 186.379 436.101Z" fill="#48D36E" stroke="#48D36E" stroke-width="0.796255"/>
<path d="M331.801 435.16C331.801 432.235 325.431 427.215 325.431 427.215C325.431 427.215 319.061 432.235 319.061 435.16C319.061 438.085 321.913 440.457 325.431 440.457C328.949 440.457 331.801 438.085 331.801 435.16Z" fill="#48D36E" stroke="#48D36E" stroke-width="0.796255"/>
<path d="M149.653 688.742V685.865C149.653 685.197 149.826 684.508 150.17 683.797C150.515 683.065 151 682.332 151.625 681.599C152.271 680.867 153.025 680.178 153.887 679.531L157.829 676.687C158.325 676.343 158.777 675.944 159.187 675.492C159.618 675.039 159.962 674.565 160.221 674.07C160.479 673.552 160.609 673.046 160.609 672.551C160.609 671.926 160.447 671.355 160.124 670.838C159.822 670.321 159.381 669.911 158.799 669.61C158.239 669.308 157.549 669.157 156.731 669.157C155.998 669.157 155.341 669.308 154.759 669.61C154.199 669.89 153.736 670.267 153.37 670.741C153.003 671.215 152.745 671.732 152.594 672.292L148.748 671.581C148.964 670.547 149.416 669.588 150.106 668.705C150.817 667.8 151.721 667.078 152.82 666.54C153.941 666.001 155.212 665.732 156.634 665.732C158.228 665.732 159.607 666.023 160.77 666.604C161.955 667.186 162.86 667.994 163.485 669.028C164.131 670.041 164.454 671.204 164.454 672.518C164.454 673.854 164.088 675.061 163.356 676.138C162.645 677.194 161.643 678.206 160.35 679.176L156.731 681.858C156.02 682.375 155.438 682.935 154.986 683.539C154.533 684.12 154.221 684.745 154.048 685.413H164.745V688.742H149.653ZM176.777 689.129C175.01 689.129 173.437 688.634 172.058 687.643C170.679 686.63 169.591 685.251 168.794 683.506C168.019 681.74 167.631 679.714 167.631 677.431C167.631 675.147 168.019 673.132 168.794 671.387C169.591 669.621 170.669 668.242 172.026 667.251C173.405 666.238 174.988 665.732 176.777 665.732C178.565 665.732 180.148 666.238 181.527 667.251C182.906 668.242 183.983 669.621 184.759 671.387C185.556 673.132 185.955 675.147 185.955 677.431C185.955 679.714 185.556 681.74 184.759 683.506C183.983 685.251 182.906 686.63 181.527 687.643C180.17 688.634 178.586 689.129 176.777 689.129ZM176.809 685.736C177.865 685.736 178.802 685.381 179.621 684.67C180.461 683.959 181.107 682.978 181.56 681.729C182.034 680.479 182.271 679.046 182.271 677.431C182.271 675.815 182.034 674.382 181.56 673.132C181.107 671.861 180.461 670.87 179.621 670.159C178.802 669.448 177.854 669.093 176.777 669.093C175.699 669.093 174.751 669.448 173.933 670.159C173.114 670.87 172.468 671.85 171.994 673.1C171.541 674.35 171.315 675.793 171.315 677.431C171.315 679.046 171.541 680.479 171.994 681.729C172.468 682.978 173.114 683.959 173.933 684.67C174.773 685.381 175.732 685.736 176.809 685.736ZM188.945 688.742V685.865C188.945 685.197 189.117 684.508 189.462 683.797C189.807 683.065 190.292 682.332 190.916 681.599C191.563 680.867 192.317 680.178 193.179 679.531L197.121 676.687C197.617 676.343 198.069 675.944 198.479 675.492C198.91 675.039 199.254 674.565 199.513 674.07C199.771 673.552 199.901 673.046 199.901 672.551C199.901 671.926 199.739 671.355 199.416 670.838C199.114 670.321 198.673 669.911 198.091 669.61C197.531 669.308 196.841 669.157 196.023 669.157C195.29 669.157 194.633 669.308 194.051 669.61C193.491 669.89 193.028 670.267 192.662 670.741C192.295 671.215 192.037 671.732 191.886 672.292L188.04 671.581C188.256 670.547 188.708 669.588 189.398 668.705C190.109 667.8 191.013 667.078 192.112 666.54C193.233 666.001 194.504 665.732 195.926 665.732C197.52 665.732 198.899 666.023 200.062 666.604C201.247 667.186 202.152 667.994 202.777 669.028C203.423 670.041 203.746 671.204 203.746 672.518C203.746 673.854 203.38 675.061 202.648 676.138C201.937 677.194 200.935 678.206 199.642 679.176L196.023 681.858C195.312 682.375 194.73 682.935 194.277 683.539C193.825 684.12 193.513 684.745 193.34 685.413H204.037V688.742H188.945ZM215.099 689.129C214.108 689.129 213.095 688.979 212.061 688.677C211.049 688.354 210.111 687.88 209.25 687.255C208.388 686.609 207.731 685.801 207.278 684.831L210.607 683.603C211.167 684.4 211.824 684.982 212.578 685.348C213.332 685.693 214.108 685.865 214.905 685.865C216.176 685.865 217.21 685.488 218.008 684.734C218.805 683.959 219.203 682.935 219.203 681.664C219.203 680.436 218.816 679.423 218.04 678.626C217.264 677.829 216.252 677.431 215.002 677.431C214.27 677.431 213.58 677.592 212.934 677.915C212.309 678.238 211.824 678.626 211.48 679.079L208.086 678.335L209.347 666.12H221.853V669.513H212.578L211.932 675.653C212.514 675.308 213.16 675.039 213.871 674.845C214.604 674.63 215.368 674.522 216.166 674.522C217.458 674.522 218.622 674.824 219.656 675.427C220.69 676.03 221.509 676.86 222.112 677.915C222.715 678.949 223.017 680.145 223.017 681.503C223.017 683.011 222.672 684.336 221.983 685.478C221.315 686.619 220.388 687.514 219.203 688.16C218.018 688.806 216.65 689.129 215.099 689.129Z" fill="#48D36E"/>
<path d="M291.728 688.742V685.865C291.728 685.197 291.9 684.508 292.245 683.797C292.59 683.065 293.074 682.332 293.699 681.599C294.346 680.867 295.1 680.178 295.961 679.531L299.904 676.687C300.4 676.343 300.852 675.944 301.262 675.492C301.692 675.039 302.037 674.565 302.296 674.07C302.554 673.552 302.683 673.046 302.683 672.551C302.683 671.926 302.522 671.355 302.199 670.838C301.897 670.321 301.455 669.911 300.874 669.61C300.314 669.308 299.624 669.157 298.805 669.157C298.073 669.157 297.416 669.308 296.834 669.61C296.274 669.89 295.811 670.267 295.444 670.741C295.078 671.215 294.82 671.732 294.669 672.292L290.823 671.581C291.038 670.547 291.491 669.588 292.18 668.705C292.891 667.8 293.796 667.078 294.895 666.54C296.015 666.001 297.286 665.732 298.708 665.732C300.303 665.732 301.682 666.023 302.845 666.604C304.03 667.186 304.935 667.994 305.56 669.028C306.206 670.041 306.529 671.204 306.529 672.518C306.529 673.854 306.163 675.061 305.43 676.138C304.719 677.194 303.718 678.206 302.425 679.176L298.805 681.858C298.094 682.375 297.513 682.935 297.06 683.539C296.608 684.12 296.295 684.745 296.123 685.413H306.82V688.742H291.728ZM318.851 689.129C317.085 689.129 315.512 688.634 314.133 687.643C312.754 686.63 311.666 685.251 310.869 683.506C310.093 681.74 309.706 679.714 309.706 677.431C309.706 675.147 310.093 673.132 310.869 671.387C311.666 669.621 312.743 668.242 314.101 667.251C315.48 666.238 317.063 665.732 318.851 665.732C320.64 665.732 322.223 666.238 323.602 667.251C324.981 668.242 326.058 669.621 326.834 671.387C327.631 673.132 328.03 675.147 328.03 677.431C328.03 679.714 327.631 681.74 326.834 683.506C326.058 685.251 324.981 686.63 323.602 687.643C322.245 688.634 320.661 689.129 318.851 689.129ZM318.884 685.736C319.939 685.736 320.877 685.381 321.695 684.67C322.536 683.959 323.182 682.978 323.634 681.729C324.108 680.479 324.345 679.046 324.345 677.431C324.345 675.815 324.108 674.382 323.634 673.132C323.182 671.861 322.536 670.87 321.695 670.159C320.877 669.448 319.929 669.093 318.851 669.093C317.774 669.093 316.826 669.448 316.008 670.159C315.189 670.87 314.542 671.85 314.068 673.1C313.616 674.35 313.39 675.793 313.39 677.431C313.39 679.046 313.616 680.479 314.068 681.729C314.542 682.978 315.189 683.959 316.008 684.67C316.848 685.381 317.806 685.736 318.884 685.736ZM338.194 689.129C336.966 689.129 335.846 688.946 334.833 688.58C333.821 688.214 332.97 687.697 332.28 687.029C331.591 686.361 331.095 685.607 330.794 684.767L334.155 683.506C334.327 683.808 334.564 684.142 334.866 684.508C335.167 684.874 335.566 685.197 336.061 685.478C336.557 685.736 337.192 685.865 337.968 685.865C339.196 685.865 340.166 685.521 340.877 684.831C341.609 684.12 341.975 683.226 341.975 682.149C341.975 681.373 341.771 680.705 341.361 680.145C340.974 679.585 340.36 679.154 339.519 678.853C338.701 678.551 337.666 678.4 336.417 678.4H335.383V675.298H336.417C338.076 675.298 339.336 675.018 340.198 674.457C341.06 673.897 341.491 673.111 341.491 672.098C341.491 671.516 341.34 670.999 341.038 670.547C340.758 670.073 340.349 669.696 339.81 669.416C339.272 669.136 338.636 668.996 337.903 668.996C337.429 668.996 336.966 669.071 336.514 669.222C336.061 669.373 335.641 669.61 335.253 669.933C334.866 670.256 334.542 670.676 334.284 671.193L331.02 669.998C331.343 669.093 331.86 668.328 332.571 667.703C333.282 667.057 334.112 666.572 335.06 666.249C336.007 665.904 336.999 665.732 338.033 665.732C339.412 665.732 340.64 665.99 341.717 666.507C342.816 667.024 343.677 667.746 344.302 668.673C344.949 669.577 345.272 670.622 345.272 671.807C345.272 672.971 344.938 673.973 344.27 674.813C343.624 675.632 342.751 676.289 341.652 676.784C342.902 677.366 343.893 678.142 344.625 679.111C345.379 680.059 345.757 681.201 345.757 682.537C345.757 683.894 345.401 685.068 344.69 686.059C344.001 687.05 343.085 687.815 341.943 688.354C340.801 688.871 339.552 689.129 338.194 689.129ZM357.481 689.129C355.714 689.129 354.141 688.634 352.762 687.643C351.383 686.63 350.295 685.251 349.498 683.506C348.723 681.74 348.335 679.714 348.335 677.431C348.335 675.147 348.723 673.132 349.498 671.387C350.295 669.621 351.373 668.242 352.73 667.251C354.109 666.238 355.692 665.732 357.481 665.732C359.269 665.732 360.852 666.238 362.231 667.251C363.61 668.242 364.687 669.621 365.463 671.387C366.26 673.132 366.659 675.147 366.659 677.431C366.659 679.714 366.26 681.74 365.463 683.506C364.687 685.251 363.61 686.63 362.231 687.643C360.874 688.634 359.29 689.129 357.481 689.129ZM357.513 685.736C358.569 685.736 359.506 685.381 360.325 684.67C361.165 683.959 361.811 682.978 362.264 681.729C362.738 680.479 362.975 679.046 362.975 677.431C362.975 675.815 362.738 674.382 362.264 673.132C361.811 671.861 361.165 670.87 360.325 670.159C359.506 669.448 358.558 669.093 357.481 669.093C356.403 669.093 355.455 669.448 354.637 670.159C353.818 670.87 353.172 671.85 352.698 673.1C352.245 674.35 352.019 675.793 352.019 677.431C352.019 679.046 352.245 680.479 352.698 681.729C353.172 682.978 353.818 683.959 354.637 684.67C355.477 685.381 356.436 685.736 357.513 685.736Z" fill="#48D36E"/>
</svg>
