<svg width="518" height="779" viewBox="0 0 518 779" fill="none" xmlns="http://www.w3.org/2000/svg">
<rect x="1.41022" y="1.41022" width="515.18" height="776.18" rx="7.62096" stroke="#48D36E" stroke-width="2.82045"/>
<path d="M48.5566 77.1272V45.5382H54.739V77.1272H48.5566ZM69.5884 77.6687C67.0913 77.6687 65.196 77.052 63.9023 75.8185C62.6388 74.585 62.007 72.8251 62.007 70.5386V59.6179H58.3517V54.5636H62.007V47.5238H67.9638V54.5636H73.6047V59.6179H67.9638V69.2299C67.9638 70.1927 68.1744 70.9297 68.5956 71.4412C69.0168 71.9225 69.6335 72.1632 70.4458 72.1632C70.7466 72.1632 71.0776 72.103 71.4386 71.9827C71.7996 71.8323 72.1757 71.6217 72.5668 71.3509L74.6426 75.8185C73.9206 76.36 73.1083 76.7963 72.2057 77.1272C71.3333 77.4882 70.4608 77.6687 69.5884 77.6687ZM88.6596 77.1272V54.5636H94.6163V77.1272H88.6596ZM91.638 50.9083C90.7354 50.9083 89.9382 50.5774 89.2462 49.9155C88.5543 49.2236 88.2083 48.4113 88.2083 47.4786C88.2083 46.546 88.5543 45.7488 89.2462 45.0869C89.9382 44.395 90.7354 44.049 91.638 44.049C92.5706 44.049 93.3678 44.395 94.0297 45.0869C94.7216 45.7488 95.0676 46.546 95.0676 47.4786C95.0676 48.4113 94.7216 49.2236 94.0297 49.9155C93.3678 50.5774 92.5706 50.9083 91.638 50.9083ZM108.096 77.6687C106.652 77.6687 105.298 77.4581 104.035 77.0369C102.771 76.5857 101.658 75.9539 100.695 75.1416C99.7328 74.2992 98.9807 73.2763 98.4391 72.073L103.539 69.7263C103.99 70.4484 104.607 71.0802 105.389 71.6217C106.171 72.1331 107.073 72.3888 108.096 72.3888C109.089 72.3888 109.856 72.2535 110.398 71.9827C110.939 71.6819 111.21 71.2607 111.21 70.7191C111.21 70.1776 110.984 69.7865 110.533 69.5458C110.112 69.2751 109.525 69.0494 108.773 68.8689L106.697 68.3274C104.531 67.7558 102.816 66.8532 101.553 65.6198C100.319 64.3562 99.7027 62.9121 99.7027 61.2876C99.7027 58.971 100.44 57.181 101.914 55.9174C103.418 54.6539 105.539 54.0221 108.277 54.0221C109.691 54.0221 111 54.2327 112.203 54.6539C113.436 55.0751 114.489 55.6617 115.362 56.4138C116.234 57.1659 116.836 58.0384 117.167 59.0312L112.248 61.2876C112.037 60.6859 111.526 60.2045 110.714 59.8435C109.901 59.4524 109.089 59.2568 108.277 59.2568C107.465 59.2568 106.833 59.4373 106.382 59.7984C105.96 60.1293 105.75 60.5956 105.75 61.1973C105.75 61.5884 105.96 61.9193 106.382 62.1901C106.803 62.4308 107.404 62.6414 108.187 62.8219L111.12 63.5439C112.594 63.9049 113.767 64.4916 114.64 65.3039C115.542 66.0861 116.189 66.9736 116.58 67.9664C117.001 68.9291 117.212 69.8768 117.212 70.8094C117.212 72.1632 116.806 73.3666 115.994 74.4196C115.211 75.4424 114.128 76.2397 112.744 76.8113C111.391 77.3829 109.841 77.6687 108.096 77.6687ZM130.754 86.1526V54.5636H136.35L136.621 57.7676C137.373 56.5643 138.32 55.6467 139.464 55.0149C140.637 54.353 141.991 54.0221 143.525 54.0221C145.601 54.0221 147.391 54.5034 148.895 55.4662C150.43 56.4289 151.618 57.7977 152.46 59.5727C153.303 61.3176 153.724 63.4085 153.724 65.8454C153.724 68.2522 153.303 70.3431 152.46 72.1181C151.618 73.8931 150.43 75.2619 148.895 76.2247C147.391 77.1874 145.601 77.6687 143.525 77.6687C142.021 77.6687 140.697 77.3528 139.554 76.7211C138.411 76.0893 137.463 75.2018 136.711 74.0585V86.1526H130.754ZM141.991 72.2083C143.074 72.2083 144.021 71.9376 144.834 71.396C145.676 70.8545 146.338 70.1024 146.819 69.1397C147.301 68.177 147.541 67.0789 147.541 65.8454C147.541 64.6119 147.301 63.5138 146.819 62.5511C146.368 61.5884 145.721 60.8513 144.879 60.3399C144.067 59.7984 143.119 59.5276 142.036 59.5276C141.013 59.5276 140.095 59.7984 139.283 60.3399C138.471 60.8814 137.839 61.6335 137.388 62.5962C136.937 63.5289 136.711 64.6119 136.711 65.8454C136.711 67.0789 136.937 68.177 137.388 69.1397C137.839 70.1024 138.456 70.8545 139.238 71.396C140.05 71.9376 140.968 72.2083 141.991 72.2083ZM157.18 77.1272V54.5636H163.136V58.7153C164.069 57.3013 165.242 56.2484 166.656 55.5564C168.1 54.8344 169.59 54.4734 171.124 54.4734V60.2496C169.74 60.2496 168.431 60.4151 167.198 60.746C165.994 61.077 165.017 61.6185 164.265 62.3706C163.512 63.1227 163.136 64.0854 163.136 65.2588V77.1272H157.18ZM184.432 77.6687C182.145 77.6687 180.1 77.1723 178.295 76.1795C176.52 75.1566 175.121 73.7577 174.098 71.9827C173.105 70.2077 172.609 68.1619 172.609 65.8454C172.609 63.5289 173.105 61.4831 174.098 59.7081C175.091 57.9331 176.474 56.5492 178.249 55.5564C180.024 54.5335 182.055 54.0221 184.342 54.0221C186.658 54.0221 188.704 54.5335 190.479 55.5564C192.254 56.5492 193.638 57.9331 194.631 59.7081C195.623 61.4831 196.12 63.5289 196.12 65.8454C196.12 68.1619 195.623 70.2077 194.631 71.9827C193.638 73.7577 192.254 75.1566 190.479 76.1795C188.734 77.1723 186.718 77.6687 184.432 77.6687ZM184.432 72.1632C185.545 72.1632 186.523 71.8924 187.365 71.3509C188.207 70.8094 188.854 70.0723 189.306 69.1397C189.787 68.177 190.028 67.0789 190.028 65.8454C190.028 64.6119 189.787 63.5289 189.306 62.5962C188.824 61.6335 188.147 60.8814 187.275 60.3399C186.432 59.7984 185.455 59.5276 184.342 59.5276C183.259 59.5276 182.281 59.7984 181.408 60.3399C180.566 60.8814 179.904 61.6335 179.423 62.5962C178.941 63.5289 178.701 64.6119 178.701 65.8454C178.701 67.0789 178.941 68.177 179.423 69.1397C179.904 70.0723 180.581 70.8094 181.453 71.3509C182.326 71.8924 183.319 72.1632 184.432 72.1632ZM204.155 51.0437C203.192 51.0437 202.364 50.6977 201.673 50.0058C200.981 49.3138 200.635 48.4865 200.635 47.5238C200.635 46.5611 200.981 45.7337 201.673 45.0418C202.364 44.3498 203.192 44.0039 204.155 44.0039C205.117 44.0039 205.945 44.3498 206.637 45.0418C207.328 45.7337 207.674 46.5611 207.674 47.5238C207.674 48.4865 207.328 49.3138 206.637 50.0058C205.945 50.6977 205.117 51.0437 204.155 51.0437ZM199.145 86.8295C197.431 86.8295 195.791 86.3632 194.227 85.4306L196.618 80.5117C197.1 80.7524 197.536 80.9329 197.927 81.0533C198.348 81.2037 198.709 81.2789 199.01 81.2789C200.454 81.2789 201.176 80.3312 201.176 78.4359V54.5636H207.133V78.842C207.133 81.3992 206.441 83.3698 205.057 84.7537C203.673 86.1376 201.703 86.8295 199.145 86.8295ZM222.477 77.6687C220.25 77.6687 218.28 77.1723 216.565 76.1795C214.85 75.1566 213.496 73.7577 212.503 71.9827C211.541 70.2077 211.059 68.1619 211.059 65.8454C211.059 63.5289 211.556 61.4831 212.549 59.7081C213.571 57.9331 214.955 56.5492 216.7 55.5564C218.475 54.5335 220.506 54.0221 222.792 54.0221C224.778 54.0221 226.598 54.5486 228.253 55.6015C229.938 56.6244 231.276 58.1437 232.269 60.1594C233.292 62.145 233.803 64.5668 233.803 67.4249H217.287C217.437 68.9291 218.084 70.1325 219.227 71.035C220.371 71.9075 221.664 72.3437 223.108 72.3437C224.342 72.3437 225.35 72.088 226.132 71.5766C226.914 71.035 227.516 70.3431 227.937 69.5007L233.262 71.5766C232.63 72.8401 231.803 73.9382 230.78 74.8708C229.787 75.7734 228.599 76.4653 227.215 76.9467C225.831 77.428 224.252 77.6687 222.477 77.6687ZM217.603 63.0024H227.35C227.26 62.0698 226.959 61.3176 226.448 60.746C225.936 60.1744 225.335 59.7532 224.643 59.4825C223.951 59.2117 223.274 59.0763 222.612 59.0763C221.98 59.0763 221.288 59.2117 220.536 59.4825C219.814 59.7232 219.167 60.1293 218.596 60.7009C218.054 61.2725 217.723 62.0397 217.603 63.0024ZM247.689 77.6687C245.343 77.6687 243.252 77.1723 241.417 76.1795C239.581 75.1566 238.152 73.7577 237.129 71.9827C236.107 70.1776 235.595 68.1318 235.595 65.8454C235.595 63.5289 236.107 61.4831 237.129 59.7081C238.152 57.9331 239.566 56.5492 241.371 55.5564C243.177 54.5335 245.252 54.0221 247.599 54.0221C249.855 54.0221 251.916 54.5787 253.781 55.6918C255.647 56.8049 257 58.4145 257.843 60.5204L252.247 62.506C251.826 61.6335 251.164 60.9416 250.261 60.4301C249.389 59.8886 248.411 59.6179 247.328 59.6179C246.215 59.6179 245.237 59.8886 244.395 60.4301C243.553 60.9416 242.891 61.6636 242.409 62.5962C241.928 63.5289 241.687 64.6119 241.687 65.8454C241.687 67.0789 241.928 68.1619 242.409 69.0946C242.891 69.9971 243.568 70.7191 244.44 71.2607C245.313 71.8022 246.305 72.073 247.418 72.073C248.502 72.073 249.479 71.7871 250.352 71.2155C251.254 70.6439 251.916 69.8918 252.337 68.9592L257.978 70.9448C257.106 73.0808 255.737 74.7355 253.872 75.9088C252.036 77.0821 249.976 77.6687 247.689 77.6687ZM270.293 77.6687C267.796 77.6687 265.901 77.052 264.607 75.8185C263.343 74.585 262.712 72.8251 262.712 70.5386V59.6179H259.056V54.5636H262.712V47.5238H268.668V54.5636H274.309V59.6179H268.668V69.2299C268.668 70.1927 268.879 70.9297 269.3 71.4412C269.721 71.9225 270.338 72.1632 271.15 72.1632C271.451 72.1632 271.782 72.103 272.143 71.9827C272.504 71.8323 272.88 71.6217 273.271 71.3509L275.347 75.8185C274.625 76.36 273.813 76.7963 272.91 77.1272C272.038 77.4882 271.165 77.6687 270.293 77.6687ZM288.504 77.6687C286.278 77.6687 284.307 77.1723 282.592 76.1795C280.877 75.1566 279.524 73.7577 278.531 71.9827C277.568 70.2077 277.087 68.1619 277.087 65.8454C277.087 63.5289 277.583 61.4831 278.576 59.7081C279.599 57.9331 280.983 56.5492 282.728 55.5564C284.503 54.5335 286.533 54.0221 288.82 54.0221C290.805 54.0221 292.626 54.5486 294.28 55.6015C295.965 56.6244 297.304 58.1437 298.297 60.1594C299.319 62.145 299.831 64.5668 299.831 67.4249H283.314C283.465 68.9291 284.112 70.1325 285.255 71.035C286.398 71.9075 287.692 72.3437 289.136 72.3437C290.369 72.3437 291.377 72.088 292.159 71.5766C292.941 71.035 293.543 70.3431 293.964 69.5007L299.289 71.5766C298.658 72.8401 297.83 73.9382 296.807 74.8708C295.815 75.7734 294.626 76.4653 293.242 76.9467C291.858 77.428 290.279 77.6687 288.504 77.6687ZM283.63 63.0024H293.378C293.287 62.0698 292.987 61.3176 292.475 60.746C291.964 60.1744 291.362 59.7532 290.67 59.4825C289.978 59.2117 289.301 59.0763 288.639 59.0763C288.008 59.0763 287.316 59.2117 286.564 59.4825C285.841 59.7232 285.195 60.1293 284.623 60.7009C284.082 61.2725 283.751 62.0397 283.63 63.0024ZM311.821 77.6687C309.745 77.6687 307.94 77.1874 306.406 76.2247C304.902 75.2619 303.729 73.8931 302.886 72.1181C302.044 70.3431 301.623 68.2522 301.623 65.8454C301.623 63.4085 302.044 61.3176 302.886 59.5727C303.729 57.7977 304.902 56.4289 306.406 55.4662C307.94 54.5034 309.745 54.0221 311.821 54.0221C313.295 54.0221 314.604 54.338 315.747 54.9698C316.921 55.5715 317.868 56.4439 318.59 57.5871V45.5382H324.547V77.1272H318.906L318.726 73.9683C317.974 75.1416 317.011 76.0592 315.838 76.7211C314.664 77.3528 313.326 77.6687 311.821 77.6687ZM313.356 72.2083C314.348 72.2083 315.221 71.9677 315.973 71.4863C316.755 70.9749 317.372 70.2679 317.823 69.3653C318.275 68.4628 318.53 67.4399 318.59 66.2967V65.3941C318.53 64.2509 318.275 63.2431 317.823 62.3706C317.372 61.4681 316.755 60.7761 315.973 60.2948C315.191 59.7833 314.303 59.5276 313.311 59.5276C312.227 59.5276 311.265 59.7984 310.422 60.3399C309.61 60.8513 308.963 61.5884 308.482 62.5511C308.031 63.5138 307.805 64.6119 307.805 65.8454C307.805 67.0789 308.046 68.177 308.527 69.1397C309.008 70.1024 309.655 70.8545 310.468 71.396C311.31 71.9376 312.273 72.2083 313.356 72.2083ZM348.825 77.6687C346.328 77.6687 344.433 77.052 343.139 75.8185C341.876 74.585 341.244 72.8251 341.244 70.5386V59.6179H337.589V54.5636H341.244V47.5238H347.201V54.5636H352.842V59.6179H347.201V69.2299C347.201 70.1927 347.411 70.9297 347.832 71.4412C348.254 71.9225 348.87 72.1632 349.683 72.1632C349.984 72.1632 350.314 72.103 350.676 71.9827C351.037 71.8323 351.413 71.6217 351.804 71.3509L353.88 75.8185C353.158 76.36 352.345 76.7963 351.443 77.1272C350.57 77.4882 349.698 77.6687 348.825 77.6687ZM357.279 77.1272V45.5382H363.236V57.4518C363.988 56.3386 364.921 55.4962 366.034 54.9246C367.147 54.3229 368.396 54.0221 369.779 54.0221C371.585 54.0221 373.104 54.3831 374.337 55.1051C375.601 55.8272 376.564 56.9554 377.225 58.4897C377.887 59.9939 378.218 61.9494 378.218 64.3562V77.1272H372.261V65.5746C372.261 64.0403 372.081 62.852 371.72 62.0096C371.359 61.1672 370.863 60.5655 370.231 60.2045C369.599 59.8134 368.862 59.6179 368.02 59.6179C366.485 59.5878 365.297 60.0541 364.454 61.0168C363.642 61.9795 363.236 63.4085 363.236 65.3039V77.1272H357.279ZM389.83 77.6687C387.122 77.6687 385.016 77.067 383.512 75.8636C382.038 74.6602 381.301 72.9605 381.301 70.7643C381.301 68.3575 382.098 66.5524 383.692 65.349C385.317 64.1155 387.588 63.4988 390.507 63.4988H395.832C395.621 62.1149 395.185 61.0619 394.523 60.3399C393.861 59.5878 392.913 59.2117 391.68 59.2117C390.717 59.2117 389.845 59.4223 389.063 59.8435C388.28 60.2647 387.618 60.9115 387.077 61.784L381.842 59.9789C382.263 59.0162 382.88 58.0835 383.692 57.181C384.505 56.2484 385.558 55.4962 386.851 54.9246C388.175 54.3229 389.785 54.0221 391.68 54.0221C393.966 54.0221 395.862 54.4583 397.366 55.3308C398.9 56.2032 400.028 57.4367 400.75 59.0312C401.503 60.5956 401.864 62.4609 401.834 64.627L401.698 77.1272H396.148L396.057 74.5098C395.486 75.5327 394.673 76.3149 393.62 76.8564C392.598 77.398 391.334 77.6687 389.83 77.6687ZM390.823 72.7047C391.785 72.7047 392.658 72.4791 393.44 72.0278C394.222 71.5766 394.839 70.9899 395.29 70.2679C395.741 69.5458 395.967 68.7937 395.967 68.0115V67.9213H392.582C390.627 67.9213 389.273 68.1619 388.521 68.6433C387.769 69.0946 387.393 69.7414 387.393 70.5838C387.393 71.2456 387.694 71.7721 388.295 72.1632C388.897 72.5242 389.739 72.7047 390.823 72.7047ZM415.426 77.6687C412.929 77.6687 411.033 77.052 409.74 75.8185C408.476 74.585 407.844 72.8251 407.844 70.5386V59.6179H404.189V54.5636H407.844V47.5238H413.801V54.5636H419.442V59.6179H413.801V69.2299C413.801 70.1927 414.012 70.9297 414.433 71.4412C414.854 71.9225 415.471 72.1632 416.283 72.1632C416.584 72.1632 416.915 72.103 417.276 71.9827C417.637 71.8323 418.013 71.6217 418.404 71.3509L420.48 75.8185C419.758 76.36 418.946 76.7963 418.043 77.1272C417.171 77.4882 416.298 77.6687 415.426 77.6687ZM53.2498 123.127L45.5782 100.564H51.6253L56.3185 115.095L61.0568 100.564H66.9234L71.5715 114.869L76.3098 100.564H82.3569L74.6852 123.127H68.8187L63.9901 107.874L59.1164 123.127H53.2498ZM91.5325 123.669C88.8249 123.669 86.7189 123.067 85.2147 121.864C83.7405 120.66 83.0035 118.96 83.0035 116.764C83.0035 114.357 83.8007 112.552 85.3952 111.349C87.0198 110.116 89.2912 109.499 92.2094 109.499H97.5344C97.3238 108.115 96.8876 107.062 96.2257 106.34C95.5639 105.588 94.6162 105.212 93.3827 105.212C92.42 105.212 91.5475 105.422 90.7653 105.843C89.9831 106.265 89.3213 106.912 88.7797 107.784L83.545 105.979C83.9662 105.016 84.5829 104.084 85.3952 103.181C86.2075 102.248 87.2605 101.496 88.5541 100.925C89.8778 100.323 91.4874 100.022 93.3827 100.022C95.6692 100.022 97.5645 100.458 99.0687 101.331C100.603 102.203 101.731 103.437 102.453 105.031C103.205 106.596 103.566 108.461 103.536 110.627L103.401 123.127H97.8503L97.7601 120.51C97.1884 121.533 96.3762 122.315 95.3232 122.856C94.3003 123.398 93.0367 123.669 91.5325 123.669ZM92.5253 118.705C93.488 118.705 94.3605 118.479 95.1427 118.028C95.9249 117.577 96.5416 116.99 96.9929 116.268C97.4442 115.546 97.6698 114.794 97.6698 114.012V113.921H94.2853C92.3298 113.921 90.9759 114.162 90.2238 114.643C89.4717 115.095 89.0956 115.741 89.0956 116.584C89.0956 117.246 89.3965 117.772 89.9982 118.163C90.5999 118.524 91.4423 118.705 92.5253 118.705ZM117.128 123.669C114.631 123.669 112.736 123.052 111.442 121.819C110.179 120.585 109.547 118.825 109.547 116.539V105.618H105.892V100.564H109.547V93.5238H115.504V100.564H121.145V105.618H115.504V115.23C115.504 116.193 115.714 116.93 116.136 117.441C116.557 117.923 117.174 118.163 117.986 118.163C118.287 118.163 118.618 118.103 118.979 117.983C119.34 117.832 119.716 117.622 120.107 117.351L122.183 121.819C121.461 122.36 120.648 122.796 119.746 123.127C118.873 123.488 118.001 123.669 117.128 123.669ZM135.339 123.669C133.113 123.669 131.143 123.172 129.428 122.18C127.713 121.157 126.359 119.758 125.366 117.983C124.404 116.208 123.922 114.162 123.922 111.845C123.922 109.529 124.419 107.483 125.411 105.708C126.434 103.933 127.818 102.549 129.563 101.556C131.338 100.534 133.369 100.022 135.655 100.022C137.641 100.022 139.461 100.549 141.116 101.602C142.8 102.624 144.139 104.144 145.132 106.159C146.155 108.145 146.666 110.567 146.666 113.425H130.15C130.3 114.929 130.947 116.132 132.09 117.035C133.233 117.907 134.527 118.344 135.971 118.344C137.205 118.344 138.212 118.088 138.995 117.577C139.777 117.035 140.379 116.343 140.8 115.501L146.125 117.577C145.493 118.84 144.666 119.938 143.643 120.871C142.65 121.773 141.462 122.465 140.078 122.947C138.694 123.428 137.114 123.669 135.339 123.669ZM130.466 109.002H140.213C140.123 108.07 139.822 107.318 139.311 106.746C138.799 106.174 138.197 105.753 137.505 105.482C136.814 105.212 136.137 105.076 135.475 105.076C134.843 105.076 134.151 105.212 133.399 105.482C132.677 105.723 132.03 106.129 131.458 106.701C130.917 107.273 130.586 108.04 130.466 109.002ZM149.676 123.127V100.564H155.633V104.715C156.566 103.301 157.739 102.248 159.153 101.556C160.597 100.834 162.086 100.473 163.621 100.473V106.25C162.237 106.25 160.928 106.415 159.695 106.746C158.491 107.077 157.514 107.618 156.761 108.371C156.009 109.123 155.633 110.085 155.633 111.259V123.127H149.676ZM187.501 123.669C185.154 123.669 183.063 123.172 181.228 122.18C179.393 121.157 177.964 119.758 176.941 117.983C175.918 116.178 175.407 114.132 175.407 111.845C175.407 109.529 175.918 107.483 176.941 105.708C177.964 103.933 179.378 102.549 181.183 101.556C182.988 100.534 185.064 100.022 187.411 100.022C189.667 100.022 191.728 100.579 193.593 101.692C195.458 102.805 196.812 104.414 197.654 106.52L192.059 108.506C191.637 107.634 190.976 106.942 190.073 106.43C189.201 105.889 188.223 105.618 187.14 105.618C186.027 105.618 185.049 105.889 184.207 106.43C183.364 106.942 182.702 107.664 182.221 108.596C181.74 109.529 181.499 110.612 181.499 111.845C181.499 113.079 181.74 114.162 182.221 115.095C182.702 115.997 183.379 116.719 184.252 117.261C185.124 117.802 186.117 118.073 187.23 118.073C188.313 118.073 189.291 117.787 190.163 117.216C191.066 116.644 191.728 115.892 192.149 114.959L197.79 116.945C196.917 119.081 195.548 120.735 193.683 121.909C191.848 123.082 189.787 123.669 187.501 123.669ZM211.413 123.669C209.127 123.669 207.081 123.172 205.276 122.18C203.501 121.157 202.102 119.758 201.079 117.983C200.086 116.208 199.59 114.162 199.59 111.845C199.59 109.529 200.086 107.483 201.079 105.708C202.072 103.933 203.456 102.549 205.231 101.556C207.006 100.534 209.037 100.022 211.323 100.022C213.64 100.022 215.685 100.534 217.46 101.556C219.235 102.549 220.619 103.933 221.612 105.708C222.605 107.483 223.101 109.529 223.101 111.845C223.101 114.162 222.605 116.208 221.612 117.983C220.619 119.758 219.235 121.157 217.46 122.18C215.715 123.172 213.7 123.669 211.413 123.669ZM211.413 118.163C212.526 118.163 213.504 117.892 214.347 117.351C215.189 116.809 215.836 116.072 216.287 115.14C216.768 114.177 217.009 113.079 217.009 111.845C217.009 110.612 216.768 109.529 216.287 108.596C215.806 107.634 215.129 106.881 214.256 106.34C213.414 105.798 212.436 105.528 211.323 105.528C210.24 105.528 209.262 105.798 208.39 106.34C207.547 106.881 206.886 107.634 206.404 108.596C205.923 109.529 205.682 110.612 205.682 111.845C205.682 113.079 205.923 114.177 206.404 115.14C206.886 116.072 207.562 116.809 208.435 117.351C209.307 117.892 210.3 118.163 211.413 118.163ZM226.578 123.127V100.564H232.174L232.445 103.632C233.167 102.459 234.084 101.571 235.197 100.97C236.341 100.338 237.634 100.022 239.078 100.022C240.853 100.022 242.373 100.383 243.636 101.105C244.9 101.827 245.862 102.955 246.524 104.49C247.186 105.994 247.502 107.949 247.472 110.356V123.127H241.515V111.575C241.515 110.04 241.335 108.852 240.974 108.01C240.643 107.167 240.161 106.566 239.53 106.205C238.898 105.813 238.161 105.618 237.318 105.618C235.784 105.588 234.596 106.054 233.753 107.017C232.941 107.98 232.535 109.409 232.535 111.304V123.127H226.578ZM260.214 123.669C258.77 123.669 257.416 123.458 256.152 123.037C254.889 122.586 253.776 121.954 252.813 121.142C251.85 120.299 251.098 119.276 250.557 118.073L255.656 115.726C256.107 116.448 256.724 117.08 257.506 117.622C258.288 118.133 259.191 118.389 260.214 118.389C261.207 118.389 261.974 118.253 262.515 117.983C263.057 117.682 263.328 117.261 263.328 116.719C263.328 116.178 263.102 115.787 262.651 115.546C262.229 115.275 261.643 115.049 260.891 114.869L258.815 114.327C256.649 113.756 254.934 112.853 253.67 111.62C252.437 110.356 251.82 108.912 251.82 107.288C251.82 104.971 252.557 103.181 254.031 101.917C255.536 100.654 257.657 100.022 260.394 100.022C261.808 100.022 263.117 100.233 264.32 100.654C265.554 101.075 266.607 101.662 267.479 102.414C268.352 103.166 268.953 104.038 269.284 105.031L264.365 107.288C264.155 106.686 263.643 106.205 262.831 105.843C262.019 105.452 261.207 105.257 260.394 105.257C259.582 105.257 258.95 105.437 258.499 105.798C258.078 106.129 257.867 106.596 257.867 107.197C257.867 107.588 258.078 107.919 258.499 108.19C258.92 108.431 259.522 108.641 260.304 108.822L263.237 109.544C264.711 109.905 265.885 110.492 266.757 111.304C267.66 112.086 268.307 112.974 268.698 113.966C269.119 114.929 269.329 115.877 269.329 116.809C269.329 118.163 268.923 119.367 268.111 120.42C267.329 121.442 266.246 122.24 264.862 122.811C263.508 123.383 261.959 123.669 260.214 123.669ZM280.377 123.669C278.572 123.669 277.038 123.308 275.774 122.586C274.541 121.864 273.593 120.75 272.931 119.246C272.269 117.712 271.938 115.741 271.938 113.335V100.564H277.895V112.116C277.895 113.62 278.061 114.809 278.392 115.681C278.753 116.524 279.249 117.14 279.881 117.531C280.543 117.892 281.28 118.073 282.092 118.073C283.656 118.103 284.845 117.637 285.657 116.674C286.469 115.681 286.875 114.252 286.875 112.387V100.564H292.832V123.127H287.236L287.011 120.059C286.259 121.202 285.311 122.089 284.168 122.721C283.055 123.353 281.791 123.669 280.377 123.669ZM297.541 123.127V100.564H303.137L303.408 103.497C304.1 102.354 304.987 101.496 306.07 100.925C307.153 100.323 308.357 100.022 309.681 100.022C311.516 100.022 313.05 100.413 314.284 101.195C315.547 101.978 316.465 103.181 317.036 104.806C317.698 103.271 318.631 102.098 319.834 101.286C321.038 100.443 322.437 100.022 324.031 100.022C326.678 100.022 328.694 100.864 330.078 102.549C331.462 104.204 332.154 106.761 332.154 110.221V123.127H326.197V111.575C326.197 110.04 326.032 108.852 325.701 108.01C325.37 107.167 324.919 106.566 324.347 106.205C323.775 105.813 323.098 105.618 322.316 105.618C320.872 105.588 319.759 106.054 318.977 107.017C318.195 107.98 317.803 109.409 317.803 111.304V123.127H311.847V111.575C311.847 110.04 311.681 108.852 311.35 108.01C311.049 107.167 310.598 106.566 309.996 106.205C309.425 105.813 308.748 105.618 307.966 105.618C306.522 105.588 305.409 106.054 304.626 107.017C303.874 107.98 303.498 109.409 303.498 111.304V123.127H297.541ZM336.669 132.153V100.564H342.265L342.536 103.768C343.288 102.564 344.236 101.647 345.379 101.015C346.552 100.353 347.906 100.022 349.44 100.022C351.516 100.022 353.306 100.503 354.811 101.466C356.345 102.429 357.533 103.798 358.376 105.573C359.218 107.318 359.639 109.409 359.639 111.845C359.639 114.252 359.218 116.343 358.376 118.118C357.533 119.893 356.345 121.262 354.811 122.225C353.306 123.187 351.516 123.669 349.44 123.669C347.936 123.669 346.612 123.353 345.469 122.721C344.326 122.089 343.378 121.202 342.626 120.059V132.153H336.669ZM347.906 118.208C348.989 118.208 349.937 117.938 350.749 117.396C351.592 116.855 352.253 116.102 352.735 115.14C353.216 114.177 353.457 113.079 353.457 111.845C353.457 110.612 353.216 109.514 352.735 108.551C352.283 107.588 351.637 106.851 350.794 106.34C349.982 105.798 349.034 105.528 347.951 105.528C346.928 105.528 346.011 105.798 345.199 106.34C344.386 106.881 343.754 107.634 343.303 108.596C342.852 109.529 342.626 110.612 342.626 111.845C342.626 113.079 342.852 114.177 343.303 115.14C343.754 116.102 344.371 116.855 345.153 117.396C345.966 117.938 346.883 118.208 347.906 118.208ZM372.391 123.669C369.894 123.669 367.999 123.052 366.705 121.819C365.442 120.585 364.81 118.825 364.81 116.539V105.618H361.154V100.564H364.81V93.5238H370.767V100.564H376.407V105.618H370.767V115.23C370.767 116.193 370.977 116.93 371.398 117.441C371.82 117.923 372.436 118.163 373.249 118.163C373.549 118.163 373.88 118.103 374.241 117.983C374.602 117.832 374.978 117.622 375.37 117.351L377.445 121.819C376.723 122.36 375.911 122.796 375.009 123.127C374.136 123.488 373.264 123.669 372.391 123.669ZM381.161 123.127V100.564H387.118V123.127H381.161ZM384.139 96.9083C383.237 96.9083 382.44 96.5774 381.748 95.9155C381.056 95.2236 380.71 94.4113 380.71 93.4786C380.71 92.546 381.056 91.7488 381.748 91.0869C382.44 90.395 383.237 90.049 384.139 90.049C385.072 90.049 385.869 90.395 386.531 91.0869C387.223 91.7488 387.569 92.546 387.569 93.4786C387.569 94.4113 387.223 95.2236 386.531 95.9155C385.869 96.5774 385.072 96.9083 384.139 96.9083ZM402.764 123.669C400.477 123.669 398.432 123.172 396.627 122.18C394.852 121.157 393.453 119.758 392.43 117.983C391.437 116.208 390.941 114.162 390.941 111.845C390.941 109.529 391.437 107.483 392.43 105.708C393.423 103.933 394.806 102.549 396.581 101.556C398.356 100.534 400.387 100.022 402.674 100.022C404.99 100.022 407.036 100.534 408.811 101.556C410.586 102.549 411.97 103.933 412.963 105.708C413.955 107.483 414.452 109.529 414.452 111.845C414.452 114.162 413.955 116.208 412.963 117.983C411.97 119.758 410.586 121.157 408.811 122.18C407.066 123.172 405.05 123.669 402.764 123.669ZM402.764 118.163C403.877 118.163 404.855 117.892 405.697 117.351C406.54 116.809 407.186 116.072 407.638 115.14C408.119 114.177 408.36 113.079 408.36 111.845C408.36 110.612 408.119 109.529 407.638 108.596C407.156 107.634 406.479 106.881 405.607 106.34C404.765 105.798 403.787 105.528 402.674 105.528C401.591 105.528 400.613 105.798 399.74 106.34C398.898 106.881 398.236 107.634 397.755 108.596C397.273 109.529 397.033 110.612 397.033 111.845C397.033 113.079 397.273 114.177 397.755 115.14C398.236 116.072 398.913 116.809 399.786 117.351C400.658 117.892 401.651 118.163 402.764 118.163ZM417.929 123.127V100.564H423.525L423.795 103.632C424.517 102.459 425.435 101.571 426.548 100.97C427.691 100.338 428.985 100.022 430.429 100.022C432.204 100.022 433.723 100.383 434.987 101.105C436.25 101.827 437.213 102.955 437.875 104.49C438.537 105.994 438.853 107.949 438.823 110.356V123.127H432.866V111.575C432.866 110.04 432.685 108.852 432.324 108.01C431.993 107.167 431.512 106.566 430.88 106.205C430.248 105.813 429.511 105.618 428.669 105.618C427.135 105.588 425.946 106.054 425.104 107.017C424.292 107.98 423.886 109.409 423.886 111.304V123.127H417.929ZM49.9556 169.127V151.347H46.21V146.564H49.9556V144.307C49.9556 141.9 50.5723 140.035 51.8058 138.711C53.0393 137.358 54.9195 136.681 57.4467 136.681C58.3191 136.681 59.2367 136.831 60.1994 137.132C61.1922 137.433 62.0948 137.794 62.9071 138.215L60.6958 142.502C60.2145 142.261 59.7782 142.081 59.3871 141.961C58.996 141.84 58.635 141.78 58.3041 141.78C57.4918 141.78 56.8901 142.066 56.499 142.638C56.1079 143.179 55.9123 144.067 55.9123 145.3V146.564H61.463V151.347H55.9123V169.127H49.9556ZM64.9635 169.127V146.564H70.9203V150.715C71.8529 149.301 73.0263 148.248 74.4402 147.556C75.8843 146.834 77.3735 146.473 78.9078 146.473V152.25C77.5239 152.25 76.2152 152.415 74.9818 152.746C73.7784 153.077 72.8006 153.618 72.0485 154.371C71.2964 155.123 70.9203 156.085 70.9203 157.259V169.127H64.9635ZM92.2158 169.669C89.9293 169.669 87.8836 169.172 86.0785 168.18C84.3035 167.157 82.9045 165.758 81.8817 163.983C80.8889 162.208 80.3925 160.162 80.3925 157.845C80.3925 155.529 80.8889 153.483 81.8817 151.708C82.8745 149.933 84.2584 148.549 86.0334 147.556C87.8084 146.534 89.8391 146.022 92.1255 146.022C94.442 146.022 96.4878 146.534 98.2628 147.556C100.038 148.549 101.422 149.933 102.415 151.708C103.407 153.483 103.904 155.529 103.904 157.845C103.904 160.162 103.407 162.208 102.415 163.983C101.422 165.758 100.038 167.157 98.2628 168.18C96.5179 169.172 94.5022 169.669 92.2158 169.669ZM92.2158 164.163C93.3289 164.163 94.3067 163.892 95.149 163.351C95.9914 162.809 96.6382 162.072 97.0895 161.14C97.5709 160.177 97.8115 159.079 97.8115 157.845C97.8115 156.612 97.5709 155.529 97.0895 154.596C96.6082 153.634 95.9312 152.881 95.0588 152.34C94.2164 151.798 93.2387 151.528 92.1255 151.528C91.0425 151.528 90.0647 151.798 89.1923 152.34C88.3499 152.881 87.688 153.634 87.2067 154.596C86.7253 155.529 86.4846 156.612 86.4846 157.845C86.4846 159.079 86.7253 160.177 87.2067 161.14C87.688 162.072 88.3649 162.809 89.2374 163.351C90.1098 163.892 91.1026 164.163 92.2158 164.163ZM107.381 169.127V146.564H112.976L113.247 149.497C113.939 148.354 114.827 147.496 115.91 146.925C116.993 146.323 118.196 146.022 119.52 146.022C121.355 146.022 122.889 146.413 124.123 147.195C125.386 147.978 126.304 149.181 126.876 150.806C127.537 149.271 128.47 148.098 129.673 147.286C130.877 146.443 132.276 146.022 133.87 146.022C136.518 146.022 138.533 146.864 139.917 148.549C141.301 150.204 141.993 152.761 141.993 156.221V169.127H136.036V157.575C136.036 156.04 135.871 154.852 135.54 154.01C135.209 153.167 134.758 152.566 134.186 152.205C133.615 151.813 132.938 151.618 132.155 151.618C130.711 151.588 129.598 152.054 128.816 153.017C128.034 153.98 127.643 155.409 127.643 157.304V169.127H121.686V157.575C121.686 156.04 121.52 154.852 121.19 154.01C120.889 153.167 120.437 152.566 119.836 152.205C119.264 151.813 118.587 151.618 117.805 151.618C116.361 151.588 115.248 152.054 114.466 153.017C113.713 153.98 113.337 155.409 113.337 157.304V169.127H107.381ZM165.565 169.669C163.489 169.669 161.684 169.187 160.149 168.225C158.645 167.262 157.472 165.893 156.63 164.118C155.787 162.343 155.366 160.252 155.366 157.845C155.366 155.409 155.787 153.318 156.63 151.573C157.472 149.798 158.645 148.429 160.149 147.466C161.684 146.503 163.489 146.022 165.565 146.022C167.039 146.022 168.348 146.338 169.491 146.97C170.664 147.571 171.612 148.444 172.334 149.587V137.538H178.291V169.127H172.65L172.469 165.968C171.717 167.142 170.754 168.059 169.581 168.721C168.408 169.353 167.069 169.669 165.565 169.669ZM167.099 164.208C168.092 164.208 168.964 163.968 169.716 163.486C170.499 162.975 171.115 162.268 171.567 161.365C172.018 160.463 172.274 159.44 172.334 158.297V157.394C172.274 156.251 172.018 155.243 171.567 154.371C171.115 153.468 170.499 152.776 169.716 152.295C168.934 151.783 168.047 151.528 167.054 151.528C165.971 151.528 165.008 151.798 164.166 152.34C163.354 152.851 162.707 153.588 162.225 154.551C161.774 155.514 161.548 156.612 161.548 157.845C161.548 159.079 161.789 160.177 162.27 161.14C162.752 162.102 163.399 162.855 164.211 163.396C165.053 163.938 166.016 164.208 167.099 164.208ZM190.282 169.669C187.574 169.669 185.468 169.067 183.964 167.864C182.49 166.66 181.753 164.96 181.753 162.764C181.753 160.357 182.55 158.552 184.144 157.349C185.769 156.116 188.04 155.499 190.959 155.499H196.284C196.073 154.115 195.637 153.062 194.975 152.34C194.313 151.588 193.365 151.212 192.132 151.212C191.169 151.212 190.297 151.422 189.515 151.843C188.732 152.265 188.071 152.912 187.529 153.784L182.294 151.979C182.715 151.016 183.332 150.084 184.144 149.181C184.957 148.248 186.01 147.496 187.303 146.925C188.627 146.323 190.237 146.022 192.132 146.022C194.418 146.022 196.314 146.458 197.818 147.331C199.352 148.203 200.481 149.437 201.203 151.031C201.955 152.596 202.316 154.461 202.286 156.627L202.15 169.127H196.6L196.509 166.51C195.938 167.533 195.125 168.315 194.072 168.856C193.05 169.398 191.786 169.669 190.282 169.669ZM191.275 164.705C192.237 164.705 193.11 164.479 193.892 164.028C194.674 163.577 195.291 162.99 195.742 162.268C196.193 161.546 196.419 160.794 196.419 160.012V159.921H193.035C191.079 159.921 189.725 160.162 188.973 160.643C188.221 161.095 187.845 161.741 187.845 162.584C187.845 163.246 188.146 163.772 188.747 164.163C189.349 164.524 190.192 164.705 191.275 164.705ZM215.878 169.669C213.381 169.669 211.485 169.052 210.192 167.819C208.928 166.585 208.296 164.825 208.296 162.539V151.618H204.641V146.564H208.296V139.524H214.253V146.564H219.894V151.618H214.253V161.23C214.253 162.193 214.464 162.93 214.885 163.441C215.306 163.923 215.923 164.163 216.735 164.163C217.036 164.163 217.367 164.103 217.728 163.983C218.089 163.832 218.465 163.622 218.856 163.351L220.932 167.819C220.21 168.36 219.398 168.796 218.495 169.127C217.623 169.488 216.75 169.669 215.878 169.669ZM231.201 169.669C228.493 169.669 226.387 169.067 224.883 167.864C223.409 166.66 222.671 164.96 222.671 162.764C222.671 160.357 223.469 158.552 225.063 157.349C226.688 156.116 228.959 155.499 231.877 155.499H237.202C236.992 154.115 236.556 153.062 235.894 152.34C235.232 151.588 234.284 151.212 233.051 151.212C232.088 151.212 231.216 151.422 230.433 151.843C229.651 152.265 228.989 152.912 228.448 153.784L223.213 151.979C223.634 151.016 224.251 150.084 225.063 149.181C225.876 148.248 226.928 147.496 228.222 146.925C229.546 146.323 231.155 146.022 233.051 146.022C235.337 146.022 237.233 146.458 238.737 147.331C240.271 148.203 241.399 149.437 242.121 151.031C242.873 152.596 243.234 154.461 243.204 156.627L243.069 169.127H237.518L237.428 166.51C236.856 167.533 236.044 168.315 234.991 168.856C233.968 169.398 232.705 169.669 231.201 169.669ZM232.193 164.705C233.156 164.705 234.028 164.479 234.811 164.028C235.593 163.577 236.21 162.99 236.661 162.268C237.112 161.546 237.338 160.794 237.338 160.012V159.921H233.953C231.998 159.921 230.644 160.162 229.892 160.643C229.14 161.095 228.764 161.741 228.764 162.584C228.764 163.246 229.064 163.772 229.666 164.163C230.268 164.524 231.11 164.705 232.193 164.705ZM268.677 169.669C266.331 169.669 264.24 169.172 262.405 168.18C260.569 167.157 259.14 165.758 258.117 163.983C257.095 162.178 256.583 160.132 256.583 157.845C256.583 155.529 257.095 153.483 258.117 151.708C259.14 149.933 260.554 148.549 262.359 147.556C264.165 146.534 266.24 146.022 268.587 146.022C270.843 146.022 272.904 146.579 274.769 147.692C276.635 148.805 277.988 150.414 278.831 152.52L273.235 154.506C272.814 153.634 272.152 152.942 271.249 152.43C270.377 151.889 269.399 151.618 268.316 151.618C267.203 151.618 266.225 151.889 265.383 152.43C264.541 152.942 263.879 153.664 263.397 154.596C262.916 155.529 262.675 156.612 262.675 157.845C262.675 159.079 262.916 160.162 263.397 161.095C263.879 161.997 264.556 162.719 265.428 163.261C266.301 163.802 267.293 164.073 268.406 164.073C269.49 164.073 270.467 163.787 271.34 163.216C272.242 162.644 272.904 161.892 273.325 160.959L278.966 162.945C278.094 165.081 276.725 166.735 274.86 167.909C273.024 169.082 270.964 169.669 268.677 169.669ZM292.184 169.669C289.957 169.669 287.987 169.172 286.272 168.18C284.557 167.157 283.203 165.758 282.21 163.983C281.248 162.208 280.766 160.162 280.766 157.845C280.766 155.529 281.263 153.483 282.256 151.708C283.278 149.933 284.662 148.549 286.407 147.556C288.182 146.534 290.213 146.022 292.499 146.022C294.485 146.022 296.305 146.549 297.96 147.602C299.645 148.624 300.983 150.144 301.976 152.159C302.999 154.145 303.51 156.567 303.51 159.425H286.994C287.144 160.929 287.791 162.132 288.934 163.035C290.078 163.907 291.371 164.344 292.815 164.344C294.049 164.344 295.057 164.088 295.839 163.577C296.621 163.035 297.223 162.343 297.644 161.501L302.969 163.577C302.337 164.84 301.51 165.938 300.487 166.871C299.494 167.773 298.306 168.465 296.922 168.947C295.538 169.428 293.959 169.669 292.184 169.669ZM287.31 155.002H297.057C296.967 154.07 296.666 153.318 296.155 152.746C295.643 152.174 295.042 151.753 294.35 151.482C293.658 151.212 292.981 151.076 292.319 151.076C291.687 151.076 290.995 151.212 290.243 151.482C289.521 151.723 288.874 152.129 288.303 152.701C287.761 153.273 287.43 154.04 287.31 155.002ZM306.521 169.127V146.564H312.116L312.387 149.632C313.109 148.459 314.027 147.571 315.14 146.97C316.283 146.338 317.577 146.022 319.021 146.022C320.796 146.022 322.315 146.383 323.579 147.105C324.842 147.827 325.805 148.955 326.467 150.49C327.129 151.994 327.445 153.949 327.415 156.356V169.127H321.458V157.575C321.458 156.04 321.277 154.852 320.916 154.01C320.585 153.167 320.104 152.566 319.472 152.205C318.84 151.813 318.103 151.618 317.261 151.618C315.727 151.588 314.538 152.054 313.696 153.017C312.884 153.98 312.477 155.409 312.477 157.304V169.127H306.521ZM341.014 169.669C338.517 169.669 336.621 169.052 335.328 167.819C334.064 166.585 333.432 164.825 333.432 162.539V151.618H329.777V146.564H333.432V139.524H339.389V146.564H345.03V151.618H339.389V161.23C339.389 162.193 339.6 162.93 340.021 163.441C340.442 163.923 341.059 164.163 341.871 164.163C342.172 164.163 342.503 164.103 342.864 163.983C343.225 163.832 343.601 163.622 343.992 163.351L346.068 167.819C345.346 168.36 344.534 168.796 343.631 169.127C342.759 169.488 341.886 169.669 341.014 169.669ZM349.422 169.127V146.564H355.379V150.715C356.312 149.301 357.485 148.248 358.899 147.556C360.343 146.834 361.832 146.473 363.367 146.473V152.25C361.983 152.25 360.674 152.415 359.441 152.746C358.237 153.077 357.26 153.618 356.507 154.371C355.755 155.123 355.379 156.085 355.379 157.259V169.127H349.422ZM376.269 169.669C374.042 169.669 372.072 169.172 370.357 168.18C368.642 167.157 367.288 165.758 366.296 163.983C365.333 162.208 364.851 160.162 364.851 157.845C364.851 155.529 365.348 153.483 366.341 151.708C367.364 149.933 368.747 148.549 370.492 147.556C372.267 146.534 374.298 146.022 376.584 146.022C378.57 146.022 380.39 146.549 382.045 147.602C383.73 148.624 385.068 150.144 386.061 152.159C387.084 154.145 387.596 156.567 387.596 159.425H371.079C371.229 160.929 371.876 162.132 373.019 163.035C374.163 163.907 375.456 164.344 376.9 164.344C378.134 164.344 379.142 164.088 379.924 163.577C380.706 163.035 381.308 162.343 381.729 161.501L387.054 163.577C386.422 164.84 385.595 165.938 384.572 166.871C383.579 167.773 382.391 168.465 381.007 168.947C379.623 169.428 378.044 169.669 376.269 169.669ZM371.395 155.002H381.142C381.052 154.07 380.751 153.318 380.24 152.746C379.728 152.174 379.127 151.753 378.435 151.482C377.743 151.212 377.066 151.076 376.404 151.076C375.772 151.076 375.08 151.212 374.328 151.482C373.606 151.723 372.959 152.129 372.388 152.701C371.846 153.273 371.515 154.04 371.395 155.002ZM399.044 169.669C397.6 169.669 396.247 169.458 394.983 169.037C393.719 168.586 392.606 167.954 391.644 167.142C390.681 166.299 389.929 165.276 389.387 164.073L394.487 161.726C394.938 162.448 395.555 163.08 396.337 163.622C397.119 164.133 398.022 164.389 399.044 164.389C400.037 164.389 400.804 164.253 401.346 163.983C401.887 163.682 402.158 163.261 402.158 162.719C402.158 162.178 401.933 161.787 401.481 161.546C401.06 161.275 400.473 161.049 399.721 160.869L397.646 160.327C395.479 159.756 393.765 158.853 392.501 157.62C391.268 156.356 390.651 154.912 390.651 153.288C390.651 150.971 391.388 149.181 392.862 147.917C394.366 146.654 396.487 146.022 399.225 146.022C400.639 146.022 401.948 146.233 403.151 146.654C404.384 147.075 405.437 147.662 406.31 148.414C407.182 149.166 407.784 150.038 408.115 151.031L403.196 153.288C402.986 152.686 402.474 152.205 401.662 151.843C400.85 151.452 400.037 151.257 399.225 151.257C398.413 151.257 397.781 151.437 397.33 151.798C396.908 152.129 396.698 152.596 396.698 153.197C396.698 153.588 396.908 153.919 397.33 154.19C397.751 154.431 398.352 154.641 399.135 154.822L402.068 155.544C403.542 155.905 404.715 156.492 405.588 157.304C406.49 158.086 407.137 158.974 407.528 159.966C407.95 160.929 408.16 161.877 408.16 162.809C408.16 164.163 407.754 165.367 406.942 166.42C406.159 167.442 405.076 168.24 403.693 168.811C402.339 169.383 400.789 169.669 399.044 169.669ZM53.2498 215.127L45.5782 192.564H51.6253L56.3185 207.095L61.0568 192.564H66.9234L71.5715 206.869L76.3098 192.564H82.3569L74.6852 215.127H68.8187L63.9901 199.874L59.1164 215.127H53.2498ZM85.288 215.127V192.564H91.2448V215.127H85.288ZM88.2664 188.908C87.3639 188.908 86.5666 188.577 85.8747 187.916C85.1827 187.224 84.8368 186.411 84.8368 185.479C84.8368 184.546 85.1827 183.749 85.8747 183.087C86.5666 182.395 87.3639 182.049 88.2664 182.049C89.1991 182.049 89.9963 182.395 90.6582 183.087C91.3501 183.749 91.6961 184.546 91.6961 185.479C91.6961 186.411 91.3501 187.224 90.6582 187.916C89.9963 188.577 89.1991 188.908 88.2664 188.908ZM96.286 215.127V183.538H102.243V215.127H96.286ZM106.94 215.127V183.538H112.897V215.127H106.94ZM136.876 215.669C134.8 215.669 132.995 215.187 131.46 214.225C129.956 213.262 128.783 211.893 127.94 210.118C127.098 208.343 126.677 206.252 126.677 203.845C126.677 201.409 127.098 199.318 127.94 197.573C128.783 195.798 129.956 194.429 131.46 193.466C132.995 192.503 134.8 192.022 136.876 192.022C138.35 192.022 139.658 192.338 140.802 192.97C141.975 193.571 142.923 194.444 143.645 195.587V183.538H149.601V215.127H143.96L143.78 211.968C143.028 213.142 142.065 214.059 140.892 214.721C139.719 215.353 138.38 215.669 136.876 215.669ZM138.41 210.208C139.403 210.208 140.275 209.968 141.027 209.486C141.809 208.975 142.426 208.268 142.877 207.365C143.329 206.463 143.584 205.44 143.645 204.297V203.394C143.584 202.251 143.329 201.243 142.877 200.371C142.426 199.468 141.809 198.776 141.027 198.295C140.245 197.783 139.358 197.528 138.365 197.528C137.282 197.528 136.319 197.798 135.477 198.34C134.664 198.851 134.017 199.588 133.536 200.551C133.085 201.514 132.859 202.612 132.859 203.845C132.859 205.079 133.1 206.177 133.581 207.14C134.063 208.102 134.709 208.855 135.522 209.396C136.364 209.938 137.327 210.208 138.41 210.208ZM164.887 215.669C162.6 215.669 160.555 215.172 158.75 214.18C156.975 213.157 155.576 211.758 154.553 209.983C153.56 208.208 153.063 206.162 153.063 203.845C153.063 201.529 153.56 199.483 154.553 197.708C155.545 195.933 156.929 194.549 158.704 193.556C160.479 192.534 162.51 192.022 164.797 192.022C167.113 192.022 169.159 192.534 170.934 193.556C172.709 194.549 174.093 195.933 175.086 197.708C176.078 199.483 176.575 201.529 176.575 203.845C176.575 206.162 176.078 208.208 175.086 209.983C174.093 211.758 172.709 213.157 170.934 214.18C169.189 215.172 167.173 215.669 164.887 215.669ZM164.887 210.163C166 210.163 166.978 209.892 167.82 209.351C168.662 208.809 169.309 208.072 169.761 207.14C170.242 206.177 170.483 205.079 170.483 203.845C170.483 202.612 170.242 201.529 169.761 200.596C169.279 199.634 168.602 198.881 167.73 198.34C166.887 197.798 165.91 197.528 164.797 197.528C163.713 197.528 162.736 197.798 161.863 198.34C161.021 198.881 160.359 199.634 159.878 200.596C159.396 201.529 159.156 202.612 159.156 203.845C159.156 205.079 159.396 206.177 159.878 207.14C160.359 208.072 161.036 208.809 161.908 209.351C162.781 209.892 163.774 210.163 164.887 210.163ZM188.084 215.669C186.279 215.669 184.745 215.308 183.481 214.586C182.248 213.864 181.3 212.75 180.638 211.246C179.976 209.712 179.646 207.741 179.646 205.335V192.564H185.602V204.116C185.602 205.62 185.768 206.809 186.099 207.681C186.46 208.524 186.956 209.14 187.588 209.531C188.25 209.892 188.987 210.073 189.799 210.073C191.364 210.103 192.552 209.637 193.364 208.674C194.176 207.681 194.583 206.252 194.583 204.387V192.564H200.539V215.127H194.944L194.718 212.059C193.966 213.202 193.018 214.089 191.875 214.721C190.762 215.353 189.498 215.669 188.084 215.669ZM218.019 215.669C216.485 215.669 215.146 215.353 214.003 214.721C212.86 214.059 211.897 213.127 211.115 211.923L210.889 215.127H205.249V183.538H211.205V195.632C211.957 194.459 212.905 193.571 214.048 192.97C215.192 192.338 216.515 192.022 218.019 192.022C220.095 192.022 221.885 192.503 223.39 193.466C224.924 194.429 226.112 195.798 226.955 197.573C227.797 199.318 228.218 201.409 228.218 203.845C228.218 206.252 227.797 208.343 226.955 210.118C226.112 211.893 224.924 213.262 223.39 214.225C221.885 215.187 220.095 215.669 218.019 215.669ZM216.485 210.208C217.568 210.208 218.516 209.938 219.328 209.396C220.171 208.855 220.832 208.102 221.314 207.14C221.795 206.177 222.036 205.079 222.036 203.845C222.036 202.612 221.795 201.514 221.314 200.551C220.863 199.588 220.216 198.851 219.373 198.34C218.561 197.798 217.613 197.528 216.53 197.528C215.507 197.528 214.59 197.798 213.778 198.34C212.965 198.881 212.333 199.634 211.882 200.596C211.431 201.529 211.205 202.612 211.205 203.845C211.205 205.079 211.431 206.177 211.882 207.14C212.333 208.102 212.95 208.855 213.732 209.396C214.545 209.938 215.462 210.208 216.485 210.208ZM231.679 215.127V183.538H237.636V215.127H231.679ZM252.532 215.669C250.306 215.669 248.335 215.172 246.62 214.18C244.905 213.157 243.552 211.758 242.559 209.983C241.596 208.208 241.115 206.162 241.115 203.845C241.115 201.529 241.611 199.483 242.604 197.708C243.627 195.933 245.011 194.549 246.756 193.556C248.531 192.534 250.561 192.022 252.848 192.022C254.833 192.022 256.654 192.549 258.308 193.602C259.993 194.624 261.332 196.144 262.325 198.159C263.347 200.145 263.859 202.567 263.859 205.425H247.342C247.493 206.929 248.14 208.132 249.283 209.035C250.426 209.907 251.72 210.344 253.164 210.344C254.397 210.344 255.405 210.088 256.187 209.577C256.969 209.035 257.571 208.343 257.992 207.501L263.317 209.577C262.686 210.84 261.858 211.938 260.835 212.871C259.843 213.773 258.654 214.465 257.27 214.947C255.886 215.428 254.307 215.669 252.532 215.669ZM247.658 201.002H257.406C257.315 200.07 257.015 199.318 256.503 198.746C255.992 198.174 255.39 197.753 254.698 197.482C254.006 197.212 253.329 197.076 252.667 197.076C252.036 197.076 251.344 197.212 250.591 197.482C249.869 197.723 249.223 198.129 248.651 198.701C248.109 199.273 247.779 200.04 247.658 201.002ZM289.941 215.669C288.407 215.669 287.068 215.353 285.925 214.721C284.782 214.059 283.819 213.127 283.037 211.923L282.811 215.127H277.17V183.538H283.127V195.632C283.879 194.459 284.827 193.571 285.97 192.97C287.113 192.338 288.437 192.022 289.941 192.022C292.017 192.022 293.807 192.503 295.311 193.466C296.846 194.429 298.034 195.798 298.877 197.573C299.719 199.318 300.14 201.409 300.14 203.845C300.14 206.252 299.719 208.343 298.877 210.118C298.034 211.893 296.846 213.262 295.311 214.225C293.807 215.187 292.017 215.669 289.941 215.669ZM288.407 210.208C289.49 210.208 290.438 209.938 291.25 209.396C292.092 208.855 292.754 208.102 293.236 207.14C293.717 206.177 293.958 205.079 293.958 203.845C293.958 202.612 293.717 201.514 293.236 200.551C292.784 199.588 292.138 198.851 291.295 198.34C290.483 197.798 289.535 197.528 288.452 197.528C287.429 197.528 286.512 197.798 285.699 198.34C284.887 198.881 284.255 199.634 283.804 200.596C283.353 201.529 283.127 202.612 283.127 203.845C283.127 205.079 283.353 206.177 283.804 207.14C284.255 208.102 284.872 208.855 285.654 209.396C286.467 209.938 287.384 210.208 288.407 210.208ZM307.144 224.694C306.332 224.694 305.429 224.529 304.437 224.198C303.474 223.897 302.617 223.536 301.864 223.115L304.076 218.286C304.587 218.557 305.053 218.767 305.475 218.918C305.926 219.098 306.317 219.189 306.648 219.189C307.28 219.189 307.836 219.008 308.318 218.647C308.799 218.316 309.19 217.82 309.491 217.158L310.439 214.856L300.24 192.564H306.783L313.191 208.132L319.329 192.564H325.872L315.628 217.068C314.996 218.572 314.335 219.896 313.643 221.039C312.951 222.212 312.093 223.115 311.07 223.746C310.078 224.378 308.769 224.694 307.144 224.694ZM338.212 215.127V210.569C338.212 209.697 338.482 208.734 339.024 207.681C339.565 206.628 340.318 205.575 341.28 204.522C342.243 203.469 343.371 202.492 344.665 201.589L349.448 198.159C350.11 197.708 350.727 197.197 351.298 196.625C351.9 196.053 352.382 195.437 352.743 194.775C353.134 194.083 353.329 193.421 353.329 192.789C353.329 192.007 353.134 191.3 352.743 190.668C352.382 190.036 351.84 189.54 351.118 189.179C350.396 188.818 349.508 188.638 348.455 188.638C347.553 188.638 346.741 188.818 346.019 189.179C345.327 189.54 344.755 190.021 344.304 190.623C343.852 191.225 343.537 191.872 343.356 192.564L336.993 191.481C337.294 189.976 337.941 188.577 338.934 187.284C339.926 185.99 341.22 184.952 342.815 184.17C344.439 183.358 346.274 182.952 348.32 182.952C350.667 182.952 352.682 183.373 354.367 184.215C356.052 185.057 357.346 186.216 358.248 187.69C359.181 189.134 359.647 190.819 359.647 192.744C359.647 194.7 359.105 196.445 358.022 197.979C356.969 199.483 355.51 200.897 353.645 202.221L349.358 205.335C348.486 205.936 347.733 206.598 347.102 207.32C346.47 208.042 345.988 208.839 345.658 209.712H360.053V215.127H338.212ZM376.213 215.669C373.656 215.669 371.399 214.977 369.444 213.593C367.488 212.179 365.954 210.253 364.841 207.817C363.728 205.35 363.171 202.522 363.171 199.333C363.171 196.144 363.728 193.331 364.841 190.894C365.954 188.427 367.473 186.502 369.399 185.118C371.354 183.704 373.611 182.997 376.168 182.997C378.725 182.997 380.981 183.704 382.937 185.118C384.922 186.502 386.472 188.427 387.585 190.894C388.698 193.331 389.255 196.144 389.255 199.333C389.255 202.522 388.698 205.35 387.585 207.817C386.472 210.253 384.937 212.179 382.982 213.593C381.026 214.977 378.77 215.669 376.213 215.669ZM376.213 210.073C377.567 210.073 378.77 209.622 379.823 208.719C380.906 207.787 381.749 206.523 382.35 204.928C382.952 203.304 383.253 201.439 383.253 199.333C383.253 197.227 382.952 195.361 382.35 193.737C381.749 192.112 380.906 190.849 379.823 189.946C378.77 189.014 377.552 188.547 376.168 188.547C374.814 188.547 373.611 189.014 372.558 189.946C371.505 190.849 370.677 192.112 370.076 193.737C369.504 195.361 369.218 197.227 369.218 199.333C369.218 201.439 369.504 203.304 370.076 204.928C370.677 206.523 371.505 207.787 372.558 208.719C373.641 209.622 374.859 210.073 376.213 210.073ZM403.083 215.669C401.218 215.669 399.533 215.398 398.029 214.856C396.525 214.285 395.261 213.488 394.238 212.465C393.245 211.412 392.553 210.178 392.162 208.764L397.848 207.095C398.059 207.456 398.345 207.907 398.706 208.448C399.067 208.96 399.563 209.396 400.195 209.757C400.827 210.118 401.654 210.299 402.677 210.299C404.181 210.299 405.369 209.892 406.242 209.08C407.144 208.238 407.596 207.155 407.596 205.831C407.596 204.928 407.37 204.131 406.919 203.439C406.468 202.747 405.73 202.221 404.708 201.86C403.715 201.469 402.406 201.273 400.782 201.273H398.886V196.219H400.782C402.887 196.219 404.452 195.858 405.475 195.136C406.498 194.414 407.009 193.421 407.009 192.157C407.009 191.435 406.829 190.789 406.468 190.217C406.107 189.645 405.595 189.194 404.933 188.863C404.271 188.532 403.504 188.367 402.632 188.367C402.06 188.367 401.473 188.472 400.872 188.683C400.27 188.863 399.713 189.179 399.202 189.63C398.721 190.052 398.33 190.668 398.029 191.481L392.433 189.811C392.854 188.337 393.576 187.103 394.599 186.11C395.652 185.088 396.901 184.32 398.345 183.809C399.789 183.267 401.278 182.997 402.812 182.997C404.768 182.997 406.528 183.373 408.092 184.125C409.657 184.847 410.89 185.855 411.793 187.148C412.695 188.442 413.146 189.931 413.146 191.616C413.146 193.271 412.68 194.685 411.747 195.858C410.845 197.001 409.626 197.919 408.092 198.611C409.837 199.423 411.221 200.506 412.244 201.86C413.267 203.184 413.778 204.748 413.778 206.553C413.778 208.448 413.282 210.088 412.289 211.472C411.296 212.826 409.987 213.864 408.363 214.586C406.738 215.308 404.978 215.669 403.083 215.669ZM429.647 215.669C427.09 215.669 424.834 214.977 422.878 213.593C420.923 212.179 419.388 210.253 418.275 207.817C417.162 205.35 416.606 202.522 416.606 199.333C416.606 196.144 417.162 193.331 418.275 190.894C419.388 188.427 420.908 186.502 422.833 185.118C424.789 183.704 427.045 182.997 429.602 182.997C432.159 182.997 434.416 183.704 436.371 185.118C438.357 186.502 439.906 188.427 441.019 190.894C442.133 193.331 442.689 196.144 442.689 199.333C442.689 202.522 442.133 205.35 441.019 207.817C439.906 210.253 438.372 212.179 436.416 213.593C434.461 214.977 432.205 215.669 429.647 215.669ZM429.647 210.073C431.001 210.073 432.205 209.622 433.258 208.719C434.341 207.787 435.183 206.523 435.785 204.928C436.386 203.304 436.687 201.439 436.687 199.333C436.687 197.227 436.386 195.361 435.785 193.737C435.183 192.112 434.341 190.849 433.258 189.946C432.205 189.014 430.986 188.547 429.602 188.547C428.248 188.547 427.045 189.014 425.992 189.946C424.939 190.849 424.112 192.112 423.51 193.737C422.938 195.361 422.653 197.227 422.653 199.333C422.653 201.439 422.938 203.304 423.51 204.928C424.112 206.523 424.939 207.787 425.992 208.719C427.075 209.622 428.294 210.073 429.647 210.073ZM449.432 215.804C448.44 215.804 447.582 215.443 446.86 214.721C446.168 213.999 445.822 213.142 445.822 212.149C445.822 211.186 446.168 210.344 446.86 209.622C447.582 208.9 448.44 208.539 449.432 208.539C450.425 208.539 451.268 208.9 451.96 209.622C452.682 210.344 453.043 211.186 453.043 212.149C453.043 213.142 452.682 213.999 451.96 214.721C451.268 215.443 450.425 215.804 449.432 215.804Z" fill="#48D36E"/>
<path d="M233.845 539.124V631.412C233.845 632.184 233.219 632.81 232.446 632.81H136.43C135.657 632.81 135.031 632.184 135.031 631.412V539.124" stroke="#48D36E" stroke-width="5.59321"/>
<path d="M377.403 456.866V631.408C377.403 632.181 376.777 632.807 376.005 632.807H279.988C279.216 632.807 278.59 632.181 278.59 631.408V456.866" stroke="#48D36E" stroke-width="5.59321"/>
<path d="M104.266 358.319H162.062C172.359 358.319 180.706 366.666 180.706 376.963V407.726" stroke="#48D36E" stroke-width="28.4321"/>
<line x1="165.558" y1="408.889" x2="194.923" y2="408.889" stroke="#48D36E" stroke-width="6.99151" stroke-linecap="round"/>
<path d="M248.295 358.32H306.091C316.388 358.32 324.735 366.667 324.735 376.964V407.726" stroke="#48D36E" stroke-width="28.4321"/>
<line x1="309.582" y1="408.89" x2="338.946" y2="408.89" stroke="#48D36E" stroke-width="6.99151" stroke-linecap="round"/>
<path d="M148.623 573.379C150.744 575.147 152.865 576.914 157.46 576.914C166.296 576.914 166.296 569.845 175.133 569.845C184.322 569.845 183.616 576.914 192.806 576.914C201.642 576.914 201.642 569.845 210.478 569.845C215.073 569.845 217.194 571.612 219.315 573.379" stroke="#48D36E" stroke-width="7.06919" stroke-linecap="round" stroke-linejoin="round"/>
<path d="M148.623 594.588C150.744 596.355 152.865 598.123 157.46 598.123C166.296 598.123 166.296 591.054 175.133 591.054C184.322 591.054 183.616 598.123 192.806 598.123C201.642 598.123 201.642 591.054 210.478 591.054C215.073 591.054 217.194 592.821 219.315 594.588" stroke="#48D36E" stroke-width="7.06919" stroke-linecap="round" stroke-linejoin="round"/>
<path d="M148.623 615.799C150.744 617.566 152.865 619.333 157.46 619.333C166.296 619.333 166.296 612.264 175.133 612.264C184.322 612.264 183.616 619.333 192.806 619.333C201.642 619.333 201.642 612.264 210.478 612.264C215.073 612.264 217.194 614.031 219.315 615.799" stroke="#48D36E" stroke-width="7.06919" stroke-linecap="round" stroke-linejoin="round"/>
<path d="M291.715 573.379C293.836 575.147 295.956 576.914 300.551 576.914C309.388 576.914 309.388 569.845 318.224 569.845C327.414 569.845 326.707 576.914 335.897 576.914C344.734 576.914 344.734 569.845 353.57 569.845C358.165 569.845 360.286 571.612 362.407 573.379" stroke="#48D36E" stroke-width="7.06919" stroke-linecap="round" stroke-linejoin="round"/>
<path d="M291.715 594.588C293.836 596.355 295.956 598.123 300.551 598.123C309.388 598.123 309.388 591.054 318.224 591.054C327.414 591.054 326.707 598.123 335.897 598.123C344.734 598.123 344.734 591.054 353.57 591.054C358.165 591.054 360.286 592.821 362.407 594.588" stroke="#48D36E" stroke-width="7.06919" stroke-linecap="round" stroke-linejoin="round"/>
<path d="M291.715 615.799C293.836 617.566 295.956 619.333 300.551 619.333C309.388 619.333 309.388 612.264 318.224 612.264C327.414 612.264 326.707 619.333 335.897 619.333C344.734 619.333 344.734 612.264 353.57 612.264C358.165 612.264 360.286 614.031 362.407 615.799" stroke="#48D36E" stroke-width="7.06919" stroke-linecap="round" stroke-linejoin="round"/>
<path d="M148.623 551.938C150.744 553.706 152.865 555.473 157.46 555.473C166.296 555.473 166.296 548.404 175.133 548.404C184.322 548.404 183.616 555.473 192.806 555.473C201.642 555.473 201.642 548.404 210.478 548.404C215.073 548.404 217.194 550.171 219.315 551.938" stroke="#48D36E" stroke-width="7.06919" stroke-linecap="round" stroke-linejoin="round"/>
<path d="M291.715 509.523C293.836 511.29 295.956 513.058 300.551 513.058C309.388 513.058 309.388 505.988 318.224 505.988C327.414 505.988 326.707 513.058 335.897 513.058C344.734 513.058 344.734 505.988 353.57 505.988C358.165 505.988 360.286 507.756 362.407 509.523" stroke="#48D36E" stroke-width="7.06919" stroke-linecap="round" stroke-linejoin="round"/>
<path d="M291.715 486.221C293.836 487.988 295.956 489.755 300.551 489.755C309.388 489.755 309.388 482.686 318.224 482.686C327.414 482.686 326.707 489.755 335.897 489.755C344.734 489.755 344.734 482.686 353.57 482.686C358.165 482.686 360.286 484.453 362.407 486.221" stroke="#48D36E" stroke-width="7.06919" stroke-linecap="round" stroke-linejoin="round"/>
<path d="M291.715 465.221C293.836 466.988 295.956 468.755 300.551 468.755C309.388 468.755 309.388 461.686 318.224 461.686C327.414 461.686 326.707 468.755 335.897 468.755C344.734 468.755 344.734 461.686 353.57 461.686C358.165 461.686 360.286 463.453 362.407 465.221" stroke="#48D36E" stroke-width="7.06919" stroke-linecap="round" stroke-linejoin="round"/>
<path d="M291.715 530.732C293.836 532.499 295.956 534.266 300.551 534.266C309.388 534.266 309.388 527.197 318.224 527.197C327.414 527.197 326.707 534.266 335.897 534.266C344.734 534.266 344.734 527.197 353.57 527.197C358.165 527.197 360.286 528.964 362.407 530.732" stroke="#48D36E" stroke-width="7.06919" stroke-linecap="round" stroke-linejoin="round"/>
<path d="M291.715 551.938C293.836 553.706 295.956 555.473 300.551 555.473C309.388 555.473 309.388 548.404 318.224 548.404C327.414 548.404 326.707 555.473 335.897 555.473C344.734 555.473 344.734 548.404 353.57 548.404C358.165 548.404 360.286 550.171 362.407 551.938" stroke="#48D36E" stroke-width="7.06919" stroke-linecap="round" stroke-linejoin="round"/>
<path d="M186.379 436.101C186.379 433.176 180.009 428.156 180.009 428.156C180.009 428.156 173.639 433.176 173.639 436.101C173.639 439.026 176.491 441.398 180.009 441.398C183.527 441.398 186.379 439.026 186.379 436.101Z" fill="#48D36E" stroke="#48D36E" stroke-width="0.796255"/>
<path d="M331.801 435.16C331.801 432.235 325.431 427.215 325.431 427.215C325.431 427.215 319.061 432.235 319.061 435.16C319.061 438.085 321.913 440.457 325.431 440.457C328.949 440.457 331.801 438.085 331.801 435.16Z" fill="#48D36E" stroke="#48D36E" stroke-width="0.796255"/>
<path d="M149.653 688.742V685.865C149.653 685.197 149.826 684.508 150.17 683.797C150.515 683.065 151 682.332 151.625 681.599C152.271 680.867 153.025 680.178 153.887 679.531L157.829 676.687C158.325 676.343 158.777 675.944 159.187 675.492C159.618 675.039 159.962 674.565 160.221 674.07C160.479 673.552 160.609 673.046 160.609 672.551C160.609 671.926 160.447 671.355 160.124 670.838C159.822 670.321 159.381 669.911 158.799 669.61C158.239 669.308 157.549 669.157 156.731 669.157C155.998 669.157 155.341 669.308 154.759 669.61C154.199 669.89 153.736 670.267 153.37 670.741C153.003 671.215 152.745 671.732 152.594 672.292L148.748 671.581C148.964 670.547 149.416 669.588 150.106 668.705C150.817 667.8 151.721 667.078 152.82 666.54C153.941 666.001 155.212 665.732 156.634 665.732C158.228 665.732 159.607 666.023 160.77 666.604C161.955 667.186 162.86 667.994 163.485 669.028C164.131 670.041 164.454 671.204 164.454 672.518C164.454 673.854 164.088 675.061 163.356 676.138C162.645 677.194 161.643 678.206 160.35 679.176L156.731 681.858C156.02 682.375 155.438 682.935 154.986 683.539C154.533 684.12 154.221 684.745 154.048 685.413H164.745V688.742H149.653ZM176.777 689.129C175.01 689.129 173.437 688.634 172.058 687.643C170.679 686.63 169.591 685.251 168.794 683.506C168.019 681.74 167.631 679.714 167.631 677.431C167.631 675.147 168.019 673.132 168.794 671.387C169.591 669.621 170.669 668.242 172.026 667.251C173.405 666.238 174.988 665.732 176.777 665.732C178.565 665.732 180.148 666.238 181.527 667.251C182.906 668.242 183.983 669.621 184.759 671.387C185.556 673.132 185.955 675.147 185.955 677.431C185.955 679.714 185.556 681.74 184.759 683.506C183.983 685.251 182.906 686.63 181.527 687.643C180.17 688.634 178.586 689.129 176.777 689.129ZM176.809 685.736C177.865 685.736 178.802 685.381 179.621 684.67C180.461 683.959 181.107 682.978 181.56 681.729C182.034 680.479 182.271 679.046 182.271 677.431C182.271 675.815 182.034 674.382 181.56 673.132C181.107 671.861 180.461 670.87 179.621 670.159C178.802 669.448 177.854 669.093 176.777 669.093C175.699 669.093 174.751 669.448 173.933 670.159C173.114 670.87 172.468 671.85 171.994 673.1C171.541 674.35 171.315 675.793 171.315 677.431C171.315 679.046 171.541 680.479 171.994 681.729C172.468 682.978 173.114 683.959 173.933 684.67C174.773 685.381 175.732 685.736 176.809 685.736ZM188.945 688.742V685.865C188.945 685.197 189.117 684.508 189.462 683.797C189.807 683.065 190.292 682.332 190.916 681.599C191.563 680.867 192.317 680.178 193.179 679.531L197.121 676.687C197.617 676.343 198.069 675.944 198.479 675.492C198.91 675.039 199.254 674.565 199.513 674.07C199.771 673.552 199.901 673.046 199.901 672.551C199.901 671.926 199.739 671.355 199.416 670.838C199.114 670.321 198.673 669.911 198.091 669.61C197.531 669.308 196.841 669.157 196.023 669.157C195.29 669.157 194.633 669.308 194.051 669.61C193.491 669.89 193.028 670.267 192.662 670.741C192.295 671.215 192.037 671.732 191.886 672.292L188.04 671.581C188.256 670.547 188.708 669.588 189.398 668.705C190.109 667.8 191.013 667.078 192.112 666.54C193.233 666.001 194.504 665.732 195.926 665.732C197.52 665.732 198.899 666.023 200.062 666.604C201.247 667.186 202.152 667.994 202.777 669.028C203.423 670.041 203.746 671.204 203.746 672.518C203.746 673.854 203.38 675.061 202.648 676.138C201.937 677.194 200.935 678.206 199.642 679.176L196.023 681.858C195.312 682.375 194.73 682.935 194.277 683.539C193.825 684.12 193.513 684.745 193.34 685.413H204.037V688.742H188.945ZM215.099 689.129C214.108 689.129 213.095 688.979 212.061 688.677C211.049 688.354 210.111 687.88 209.25 687.255C208.388 686.609 207.731 685.801 207.278 684.831L210.607 683.603C211.167 684.4 211.824 684.982 212.578 685.348C213.332 685.693 214.108 685.865 214.905 685.865C216.176 685.865 217.21 685.488 218.008 684.734C218.805 683.959 219.203 682.935 219.203 681.664C219.203 680.436 218.816 679.423 218.04 678.626C217.264 677.829 216.252 677.431 215.002 677.431C214.27 677.431 213.58 677.592 212.934 677.915C212.309 678.238 211.824 678.626 211.48 679.079L208.086 678.335L209.347 666.12H221.853V669.513H212.578L211.932 675.653C212.514 675.308 213.16 675.039 213.871 674.845C214.604 674.63 215.368 674.522 216.166 674.522C217.458 674.522 218.622 674.824 219.656 675.427C220.69 676.03 221.509 676.86 222.112 677.915C222.715 678.949 223.017 680.145 223.017 681.503C223.017 683.011 222.672 684.336 221.983 685.478C221.315 686.619 220.388 687.514 219.203 688.16C218.018 688.806 216.65 689.129 215.099 689.129Z" fill="#48D36E"/>
<path d="M291.728 688.742V685.865C291.728 685.197 291.9 684.508 292.245 683.797C292.59 683.065 293.074 682.332 293.699 681.599C294.346 680.867 295.1 680.178 295.961 679.531L299.904 676.687C300.4 676.343 300.852 675.944 301.262 675.492C301.692 675.039 302.037 674.565 302.296 674.07C302.554 673.552 302.683 673.046 302.683 672.551C302.683 671.926 302.522 671.355 302.199 670.838C301.897 670.321 301.455 669.911 300.874 669.61C300.314 669.308 299.624 669.157 298.805 669.157C298.073 669.157 297.416 669.308 296.834 669.61C296.274 669.89 295.811 670.267 295.444 670.741C295.078 671.215 294.82 671.732 294.669 672.292L290.823 671.581C291.038 670.547 291.491 669.588 292.18 668.705C292.891 667.8 293.796 667.078 294.895 666.54C296.015 666.001 297.286 665.732 298.708 665.732C300.303 665.732 301.682 666.023 302.845 666.604C304.03 667.186 304.935 667.994 305.56 669.028C306.206 670.041 306.529 671.204 306.529 672.518C306.529 673.854 306.163 675.061 305.43 676.138C304.719 677.194 303.718 678.206 302.425 679.176L298.805 681.858C298.094 682.375 297.513 682.935 297.06 683.539C296.608 684.12 296.295 684.745 296.123 685.413H306.82V688.742H291.728ZM318.851 689.129C317.085 689.129 315.512 688.634 314.133 687.643C312.754 686.63 311.666 685.251 310.869 683.506C310.093 681.74 309.706 679.714 309.706 677.431C309.706 675.147 310.093 673.132 310.869 671.387C311.666 669.621 312.743 668.242 314.101 667.251C315.48 666.238 317.063 665.732 318.851 665.732C320.64 665.732 322.223 666.238 323.602 667.251C324.981 668.242 326.058 669.621 326.834 671.387C327.631 673.132 328.03 675.147 328.03 677.431C328.03 679.714 327.631 681.74 326.834 683.506C326.058 685.251 324.981 686.63 323.602 687.643C322.245 688.634 320.661 689.129 318.851 689.129ZM318.884 685.736C319.939 685.736 320.877 685.381 321.695 684.67C322.536 683.959 323.182 682.978 323.634 681.729C324.108 680.479 324.345 679.046 324.345 677.431C324.345 675.815 324.108 674.382 323.634 673.132C323.182 671.861 322.536 670.87 321.695 670.159C320.877 669.448 319.929 669.093 318.851 669.093C317.774 669.093 316.826 669.448 316.008 670.159C315.189 670.87 314.542 671.85 314.068 673.1C313.616 674.35 313.39 675.793 313.39 677.431C313.39 679.046 313.616 680.479 314.068 681.729C314.542 682.978 315.189 683.959 316.008 684.67C316.848 685.381 317.806 685.736 318.884 685.736ZM338.194 689.129C336.966 689.129 335.846 688.946 334.833 688.58C333.821 688.214 332.97 687.697 332.28 687.029C331.591 686.361 331.095 685.607 330.794 684.767L334.155 683.506C334.327 683.808 334.564 684.142 334.866 684.508C335.167 684.874 335.566 685.197 336.061 685.478C336.557 685.736 337.192 685.865 337.968 685.865C339.196 685.865 340.166 685.521 340.877 684.831C341.609 684.12 341.975 683.226 341.975 682.149C341.975 681.373 341.771 680.705 341.361 680.145C340.974 679.585 340.36 679.154 339.519 678.853C338.701 678.551 337.666 678.4 336.417 678.4H335.383V675.298H336.417C338.076 675.298 339.336 675.018 340.198 674.457C341.06 673.897 341.491 673.111 341.491 672.098C341.491 671.516 341.34 670.999 341.038 670.547C340.758 670.073 340.349 669.696 339.81 669.416C339.272 669.136 338.636 668.996 337.903 668.996C337.429 668.996 336.966 669.071 336.514 669.222C336.061 669.373 335.641 669.61 335.253 669.933C334.866 670.256 334.542 670.676 334.284 671.193L331.02 669.998C331.343 669.093 331.86 668.328 332.571 667.703C333.282 667.057 334.112 666.572 335.06 666.249C336.007 665.904 336.999 665.732 338.033 665.732C339.412 665.732 340.64 665.99 341.717 666.507C342.816 667.024 343.677 667.746 344.302 668.673C344.949 669.577 345.272 670.622 345.272 671.807C345.272 672.971 344.938 673.973 344.27 674.813C343.624 675.632 342.751 676.289 341.652 676.784C342.902 677.366 343.893 678.142 344.625 679.111C345.379 680.059 345.757 681.201 345.757 682.537C345.757 683.894 345.401 685.068 344.69 686.059C344.001 687.05 343.085 687.815 341.943 688.354C340.801 688.871 339.552 689.129 338.194 689.129ZM357.481 689.129C355.714 689.129 354.141 688.634 352.762 687.643C351.383 686.63 350.295 685.251 349.498 683.506C348.723 681.74 348.335 679.714 348.335 677.431C348.335 675.147 348.723 673.132 349.498 671.387C350.295 669.621 351.373 668.242 352.73 667.251C354.109 666.238 355.692 665.732 357.481 665.732C359.269 665.732 360.852 666.238 362.231 667.251C363.61 668.242 364.687 669.621 365.463 671.387C366.26 673.132 366.659 675.147 366.659 677.431C366.659 679.714 366.26 681.74 365.463 683.506C364.687 685.251 363.61 686.63 362.231 687.643C360.874 688.634 359.29 689.129 357.481 689.129ZM357.513 685.736C358.569 685.736 359.506 685.381 360.325 684.67C361.165 683.959 361.811 682.978 362.264 681.729C362.738 680.479 362.975 679.046 362.975 677.431C362.975 675.815 362.738 674.382 362.264 673.132C361.811 671.861 361.165 670.87 360.325 670.159C359.506 669.448 358.558 669.093 357.481 669.093C356.403 669.093 355.455 669.448 354.637 670.159C353.818 670.87 353.172 671.85 352.698 673.1C352.245 674.35 352.019 675.793 352.019 677.431C352.019 679.046 352.245 680.479 352.698 681.729C353.172 682.978 353.818 683.959 354.637 684.67C355.477 685.381 356.436 685.736 357.513 685.736Z" fill="#48D36E"/>
</svg>
