<svg width="345" height="541" viewBox="0 0 345 541" fill="none" xmlns="http://www.w3.org/2000/svg">
<rect x="1.44" y="1.44" width="342.12" height="538.12" rx="6.08119" stroke="#88F154" stroke-width="2.88"/>
<g opacity="0.3">
<path d="M62.2736 84.4127V104.001C62.2735 109.548 60.6312 114.971 57.5538 119.587L52.9464 126.498C49.8676 131.115 48.2253 136.54 48.2266 142.09V210.836C48.2266 214.562 49.7065 218.135 52.3409 220.769C54.9752 223.403 58.5481 224.883 62.2736 224.883H104.415C108.14 224.883 111.713 223.403 114.348 220.769C116.982 218.135 118.462 214.562 118.462 210.836V142.083C118.462 136.536 116.819 131.113 113.742 126.498L109.135 119.587C106.056 114.969 104.414 109.544 104.415 103.994V84.4127" fill="#88F154"/>
<path d="M62.2736 84.4127V104.001C62.2735 109.548 60.6312 114.971 57.5538 119.587L52.9464 126.498C49.8676 131.115 48.2253 136.54 48.2266 142.09V210.836C48.2266 214.562 49.7065 218.135 52.3409 220.769C54.9752 223.403 58.5481 224.883 62.2736 224.883H104.415C108.14 224.883 111.713 223.403 114.348 220.769C116.982 218.135 118.462 214.562 118.462 210.836V142.083C118.462 136.536 116.819 131.113 113.742 126.498L109.135 119.587C106.056 114.969 104.414 109.544 104.415 103.994V84.4127H62.2736Z" stroke="#88F154" stroke-width="4.32217" stroke-linecap="round" stroke-linejoin="round"/>
</g>
<mask id="mask0_532_1545" style="mask-type:alpha" maskUnits="userSpaceOnUse" x="46" y="82" width="75" height="146">
<path d="M62.2736 84.4136V104.002C62.2735 109.549 60.6312 114.972 57.5538 119.587L52.9464 126.499C49.8676 131.116 48.2253 136.541 48.2266 142.091V210.837C48.2266 214.563 49.7065 218.136 52.3409 220.77C54.9752 223.404 58.5481 224.884 62.2736 224.884H104.415C108.14 224.884 111.713 223.404 114.348 220.77C116.982 218.136 118.462 214.563 118.462 210.837V142.084C118.462 136.537 116.819 131.114 113.742 126.499L109.135 119.587C106.056 114.97 104.414 109.545 104.415 103.995V84.4136" fill="white"/>
<path d="M62.2736 84.4136V104.002C62.2735 109.549 60.6312 114.972 57.5538 119.587L52.9464 126.499C49.8676 131.116 48.2253 136.541 48.2266 142.091V210.837C48.2266 214.563 49.7065 218.136 52.3409 220.77C54.9752 223.404 58.5481 224.884 62.2736 224.884H104.415C108.14 224.884 111.713 223.404 114.348 220.77C116.982 218.136 118.462 214.563 118.462 210.837V142.084C118.462 136.537 116.819 131.114 113.742 126.499L109.135 119.587C106.056 114.97 104.414 109.545 104.415 103.995V84.4136H62.2736Z" stroke="white" stroke-width="4.32217" stroke-linecap="round" stroke-linejoin="round"/>
</mask>
<g mask="url(#mask0_532_1545)">
<path d="M83.5804 156.185C61.2951 149.734 48.8103 151.004 26.5241 156.185L15.1602 235.495H156.736V156.185C128.707 162.985 112.98 166.505 83.5804 156.185Z" fill="#88F154"/>
</g>
<path d="M45.4494 297.596L55.661 272.515H58.814L69.0256 297.596H65.8367L62.9345 290.466H51.5764L48.6741 297.596H45.4494ZM52.6154 287.743H61.8596L57.2375 276.313L52.6154 287.743ZM85.9953 298.026C84.6816 298.026 83.535 297.835 82.5557 297.453C81.5763 297.047 80.7522 296.521 80.0834 295.876C79.4385 295.231 78.9727 294.527 78.686 293.762L81.1941 292.723C81.6002 293.535 82.2093 294.192 83.0215 294.694C83.8336 295.195 84.7293 295.446 85.7087 295.446C86.8314 295.446 87.7749 295.231 88.5393 294.801C89.3036 294.347 89.6858 293.714 89.6858 292.902C89.6858 292.162 89.3992 291.565 88.8259 291.111C88.2765 290.657 87.4524 290.287 86.3536 290L84.6338 289.534C83.0095 289.104 81.7435 288.459 80.8358 287.599C79.9281 286.716 79.4743 285.724 79.4743 284.625C79.4743 282.93 80.0237 281.616 81.1225 280.684C82.2451 279.729 83.9053 279.251 86.1028 279.251C87.1538 279.251 88.1093 279.406 88.9692 279.717C89.8292 280.027 90.5696 280.469 91.1907 281.042C91.8117 281.592 92.2656 282.249 92.5522 283.013L90.0441 284.124C89.7336 283.312 89.22 282.726 88.5034 282.368C87.7868 282.01 86.915 281.831 85.8879 281.831C84.7891 281.831 83.9291 282.07 83.3081 282.547C82.687 283.001 82.3765 283.646 82.3765 284.482C82.3765 284.96 82.6273 285.414 83.1289 285.844C83.6544 286.25 84.4188 286.584 85.4221 286.847L87.2136 287.313C88.384 287.599 89.3634 288.029 90.1516 288.603C90.9399 289.152 91.537 289.785 91.9431 290.502C92.3492 291.218 92.5522 291.983 92.5522 292.795C92.5522 293.87 92.2656 294.801 91.6923 295.589C91.119 296.378 90.3427 296.987 89.3634 297.417C88.384 297.823 87.2613 298.026 85.9953 298.026ZM95.9101 297.596V272.515H98.7765V282.297C99.3736 281.317 100.15 280.565 101.105 280.039C102.061 279.514 103.172 279.251 104.438 279.251C105.823 279.251 107.041 279.538 108.092 280.111C109.143 280.66 109.955 281.544 110.529 282.762C111.126 283.981 111.413 285.581 111.389 287.564V297.596H108.522V288.423C108.522 286.656 108.307 285.306 107.877 284.375C107.471 283.443 106.91 282.81 106.193 282.476C105.477 282.117 104.665 281.938 103.757 281.938C102.18 281.938 100.95 282.5 100.066 283.622C99.2064 284.721 98.7765 286.286 98.7765 288.316V297.596H95.9101ZM123.303 298.026C121.559 298.026 120.006 297.632 118.645 296.844C117.307 296.031 116.256 294.921 115.492 293.511C114.727 292.102 114.345 290.478 114.345 288.638C114.345 286.799 114.715 285.175 115.456 283.766C116.22 282.356 117.271 281.257 118.609 280.469C119.97 279.657 121.511 279.251 123.231 279.251C124.999 279.251 126.551 279.657 127.889 280.469C129.25 281.257 130.301 282.356 131.042 283.766C131.806 285.175 132.188 286.799 132.188 288.638C132.188 290.478 131.806 292.102 131.042 293.511C130.301 294.921 129.262 296.031 127.925 296.844C126.587 297.632 125.046 298.026 123.303 298.026ZM123.303 295.374C124.497 295.374 125.536 295.088 126.42 294.515C127.304 293.941 127.996 293.153 128.498 292.15C129.023 291.147 129.286 289.976 129.286 288.638C129.286 287.301 129.023 286.13 128.498 285.127C127.996 284.124 127.292 283.336 126.384 282.762C125.476 282.189 124.425 281.902 123.231 281.902C122.06 281.902 121.021 282.189 120.114 282.762C119.23 283.336 118.525 284.124 118 285.127C117.498 286.13 117.247 287.301 117.247 288.638C117.247 289.952 117.498 291.123 118 292.15C118.525 293.153 119.242 293.941 120.15 294.515C121.081 295.088 122.132 295.374 123.303 295.374ZM135.663 297.596V279.681H138.529V282.87C139.246 281.747 140.166 280.923 141.288 280.398C142.435 279.872 143.629 279.609 144.871 279.609V282.297C143.82 282.297 142.805 282.476 141.826 282.834C140.87 283.168 140.082 283.73 139.461 284.518C138.84 285.306 138.529 286.381 138.529 287.743V297.596H135.663ZM154 298.026C152.257 298.026 150.907 297.572 149.951 296.664C148.996 295.757 148.518 294.479 148.518 292.831V282.225H145.401V279.681H148.518V274.091H151.385V279.681H156.759V282.225H151.385V292.544C151.385 293.452 151.624 294.156 152.101 294.658C152.603 295.136 153.296 295.374 154.179 295.374C154.466 295.374 154.741 295.339 155.004 295.267C155.29 295.171 155.66 294.956 156.114 294.622L157.225 296.951C156.604 297.357 156.043 297.632 155.541 297.775C155.039 297.942 154.526 298.026 154 298.026ZM55.6251 341.026C53.8575 341.026 52.293 340.632 50.9314 339.844C49.5699 339.031 48.5069 337.921 47.7425 336.511C46.9782 335.102 46.596 333.478 46.596 331.638C46.596 329.799 46.9662 328.175 47.7067 326.766C48.4711 325.356 49.534 324.257 50.8956 323.469C52.2571 322.657 53.8098 322.251 55.5535 322.251C57.2733 322.251 58.814 322.645 60.1756 323.433C61.5371 324.222 62.5762 325.332 63.2928 326.766L60.6772 327.948C60.1994 326.992 59.5067 326.252 58.599 325.726C57.6913 325.177 56.6523 324.902 55.4818 324.902C54.3114 324.902 53.2723 325.189 52.3646 325.762C51.4808 326.336 50.7762 327.136 50.2506 328.163C49.749 329.166 49.4982 330.325 49.4982 331.638C49.4982 332.952 49.749 334.123 50.2506 335.15C50.7762 336.153 51.4928 336.941 52.4004 337.515C53.332 338.088 54.383 338.374 55.5535 338.374C56.7239 338.374 57.763 338.076 58.6707 337.479C59.6023 336.882 60.3069 336.046 60.7847 334.971L63.4003 336.153C62.6837 337.682 61.6446 338.876 60.283 339.736C58.9215 340.596 57.3689 341.026 55.6251 341.026ZM74.4327 341.026C72.689 341.026 71.1364 340.632 69.7748 339.844C68.4372 339.031 67.3861 337.921 66.6218 336.511C65.8574 335.102 65.4752 333.478 65.4752 331.638C65.4752 329.799 65.8455 328.175 66.5859 326.766C67.3503 325.356 68.4013 324.257 69.739 323.469C71.1005 322.657 72.6412 322.251 74.3611 322.251C76.1287 322.251 77.6813 322.657 79.019 323.469C80.3805 324.257 81.4315 325.356 82.172 326.766C82.9364 328.175 83.3186 329.799 83.3186 331.638C83.3186 333.478 82.9364 335.102 82.172 336.511C81.4315 337.921 80.3924 339.031 79.0548 339.844C77.7171 340.632 76.1764 341.026 74.4327 341.026ZM74.4327 338.374C75.627 338.374 76.6661 338.088 77.5499 337.515C78.4337 336.941 79.1264 336.153 79.6281 335.15C80.1536 334.147 80.4163 332.976 80.4163 331.638C80.4163 330.301 80.1536 329.13 79.6281 328.127C79.1264 327.124 78.4218 326.336 77.5141 325.762C76.6064 325.189 75.5554 324.902 74.3611 324.902C73.1906 324.902 72.1515 325.189 71.2438 325.762C70.36 326.336 69.6554 327.124 69.1299 328.127C68.6283 329.13 68.3774 330.301 68.3774 331.638C68.3774 332.952 68.6283 334.123 69.1299 335.15C69.6554 336.153 70.372 336.941 71.2797 337.515C72.2113 338.088 73.2623 338.374 74.4327 338.374ZM86.7931 340.596V322.681H89.4804L89.6237 325.368C90.2209 324.365 90.9972 323.601 91.9526 323.075C92.9081 322.526 94.0188 322.251 95.2848 322.251C96.6941 322.251 97.9124 322.538 98.9395 323.111C99.9905 323.66 100.803 324.544 101.376 325.762C101.973 326.981 102.26 328.581 102.236 330.564V340.596H99.3695V331.423C99.3695 329.656 99.1664 328.306 98.7603 327.375C98.3543 326.443 97.7929 325.81 97.0763 325.476C96.3597 325.117 95.5476 324.938 94.6399 324.938C93.0634 324.938 91.8332 325.5 90.9494 326.622C90.0895 327.721 89.6595 329.286 89.6595 331.316V340.596H86.7931ZM111.29 340.596L103.802 322.681H106.776L112.795 337.264L118.779 322.681H121.788L114.3 340.596H111.29ZM131.524 341.026C129.78 341.026 128.239 340.632 126.902 339.844C125.564 339.031 124.513 337.921 123.748 336.511C123.008 335.102 122.638 333.478 122.638 331.638C122.638 329.799 123.008 328.175 123.748 326.766C124.513 325.356 125.552 324.257 126.866 323.469C128.203 322.657 129.732 322.251 131.452 322.251C133.124 322.251 134.569 322.669 135.787 323.505C137.006 324.317 137.949 325.464 138.618 326.945C139.287 328.426 139.621 330.169 139.621 332.176H125.54C125.659 334.135 126.28 335.663 127.403 336.762C128.526 337.861 129.947 338.41 131.667 338.41C132.933 338.41 133.996 338.112 134.856 337.515C135.74 336.917 136.42 336.129 136.898 335.15L139.37 336.404C138.917 337.335 138.307 338.148 137.543 338.84C136.803 339.533 135.919 340.07 134.892 340.453C133.888 340.835 132.766 341.026 131.524 341.026ZM125.755 329.775H136.54C136.468 328.748 136.193 327.864 135.716 327.124C135.262 326.383 134.665 325.81 133.924 325.404C133.184 324.998 132.348 324.795 131.416 324.795C130.508 324.795 129.637 324.998 128.801 325.404C127.964 325.786 127.272 326.359 126.722 327.124C126.173 327.864 125.851 328.748 125.755 329.775ZM142.731 340.596V322.681H145.597V325.87C146.314 324.747 147.234 323.923 148.356 323.398C149.503 322.872 150.697 322.609 151.939 322.609V325.297C150.888 325.297 149.873 325.476 148.894 325.834C147.938 326.168 147.15 326.73 146.529 327.518C145.908 328.306 145.597 329.381 145.597 330.743V340.596H142.731ZM160.603 341.026C159.289 341.026 158.142 340.835 157.163 340.453C156.183 340.047 155.359 339.521 154.691 338.876C154.046 338.231 153.58 337.527 153.293 336.762L155.801 335.723C156.207 336.535 156.816 337.192 157.629 337.694C158.441 338.195 159.337 338.446 160.316 338.446C161.439 338.446 162.382 338.231 163.146 337.801C163.911 337.347 164.293 336.714 164.293 335.902C164.293 335.162 164.006 334.565 163.433 334.111C162.884 333.657 162.06 333.287 160.961 333L159.241 332.534C157.617 332.104 156.351 331.459 155.443 330.599C154.535 329.716 154.081 328.724 154.081 327.625C154.081 325.93 154.631 324.616 155.73 323.684C156.852 322.729 158.512 322.251 160.71 322.251C161.761 322.251 162.716 322.406 163.576 322.717C164.436 323.027 165.177 323.469 165.798 324.042C166.419 324.592 166.873 325.249 167.159 326.013L164.651 327.124C164.341 326.312 163.827 325.726 163.111 325.368C162.394 325.01 161.522 324.831 160.495 324.831C159.396 324.831 158.536 325.07 157.915 325.547C157.294 326.001 156.984 326.646 156.984 327.482C156.984 327.96 157.234 328.414 157.736 328.844C158.262 329.25 159.026 329.584 160.029 329.847L161.821 330.313C162.991 330.599 163.971 331.029 164.759 331.603C165.547 332.152 166.144 332.785 166.55 333.502C166.956 334.218 167.159 334.983 167.159 335.795C167.159 336.87 166.873 337.801 166.299 338.589C165.726 339.378 164.95 339.987 163.971 340.417C162.991 340.823 161.869 341.026 160.603 341.026ZM176.178 341.026C174.076 341.026 172.428 340.548 171.234 339.593C170.063 338.613 169.478 337.264 169.478 335.544C169.478 333.729 170.075 332.343 171.27 331.388C172.488 330.408 174.184 329.919 176.358 329.919H181.338C181.218 328.223 180.8 326.957 180.084 326.121C179.367 325.261 178.292 324.831 176.859 324.831C175.88 324.831 175.032 325.034 174.315 325.44C173.623 325.822 173.049 326.443 172.595 327.303L170.016 326.3C170.469 325.464 171.019 324.747 171.664 324.15C172.309 323.529 173.061 323.063 173.921 322.753C174.781 322.418 175.76 322.251 176.859 322.251C178.531 322.251 179.905 322.585 180.98 323.254C182.078 323.899 182.902 324.867 183.452 326.156C184.001 327.422 184.264 328.999 184.24 330.886L184.204 340.596H181.553L181.41 338.195C180.884 339.103 180.179 339.808 179.296 340.309C178.412 340.787 177.373 341.026 176.178 341.026ZM176.322 338.518C177.349 338.518 178.245 338.303 179.009 337.873C179.773 337.419 180.359 336.786 180.765 335.974C181.195 335.162 181.41 334.182 181.41 333.036V332.319H177.002C175.33 332.319 174.136 332.594 173.419 333.143C172.727 333.693 172.38 334.481 172.38 335.508C172.38 336.44 172.727 337.18 173.419 337.73C174.112 338.255 175.08 338.518 176.322 338.518ZM195.013 341.026C193.269 341.026 191.919 340.572 190.964 339.664C190.009 338.757 189.531 337.479 189.531 335.831V325.225H186.414V322.681H189.531V317.091H192.397V322.681H197.772V325.225H192.397V335.544C192.397 336.452 192.636 337.156 193.114 337.658C193.615 338.136 194.308 338.374 195.192 338.374C195.479 338.374 195.753 338.339 196.016 338.267C196.303 338.171 196.673 337.956 197.127 337.622L198.238 339.951C197.616 340.357 197.055 340.632 196.554 340.775C196.052 340.942 195.538 341.026 195.013 341.026ZM201.492 340.596V322.681H204.358V340.596H201.492ZM202.961 318.525C202.483 318.525 202.065 318.346 201.707 317.987C201.348 317.629 201.169 317.211 201.169 316.733C201.169 316.232 201.348 315.814 201.707 315.479C202.065 315.121 202.483 314.942 202.961 314.942C203.462 314.942 203.88 315.121 204.215 315.479C204.573 315.814 204.752 316.232 204.752 316.733C204.752 317.211 204.573 317.629 204.215 317.987C203.88 318.346 203.462 318.525 202.961 318.525ZM217.053 341.026C215.31 341.026 213.757 340.632 212.395 339.844C211.058 339.031 210.007 337.921 209.242 336.511C208.478 335.102 208.096 333.478 208.096 331.638C208.096 329.799 208.466 328.175 209.207 326.766C209.971 325.356 211.022 324.257 212.36 323.469C213.721 322.657 215.262 322.251 216.982 322.251C218.749 322.251 220.302 322.657 221.64 323.469C223.001 324.257 224.052 325.356 224.793 326.766C225.557 328.175 225.939 329.799 225.939 331.638C225.939 333.478 225.557 335.102 224.793 336.511C224.052 337.921 223.013 339.031 221.675 339.844C220.338 340.632 218.797 341.026 217.053 341.026ZM217.053 338.374C218.248 338.374 219.287 338.088 220.171 337.515C221.054 336.941 221.747 336.153 222.249 335.15C222.774 334.147 223.037 332.976 223.037 331.638C223.037 330.301 222.774 329.13 222.249 328.127C221.747 327.124 221.042 326.336 220.135 325.762C219.227 325.189 218.176 324.902 216.982 324.902C215.811 324.902 214.772 325.189 213.865 325.762C212.981 326.336 212.276 327.124 211.751 328.127C211.249 329.13 210.998 330.301 210.998 331.638C210.998 332.952 211.249 334.123 211.751 335.15C212.276 336.153 212.993 336.941 213.9 337.515C214.832 338.088 215.883 338.374 217.053 338.374ZM229.414 340.596V322.681H232.101L232.244 325.368C232.842 324.365 233.618 323.601 234.573 323.075C235.529 322.526 236.64 322.251 237.906 322.251C239.315 322.251 240.533 322.538 241.56 323.111C242.611 323.66 243.423 324.544 243.997 325.762C244.594 326.981 244.88 328.581 244.857 330.564V340.596H241.99V331.423C241.99 329.656 241.787 328.306 241.381 327.375C240.975 326.443 240.414 325.81 239.697 325.476C238.98 325.117 238.168 324.938 237.261 324.938C235.684 324.938 234.454 325.5 233.57 326.622C232.71 327.721 232.28 329.286 232.28 331.316V340.596H229.414ZM51.5764 383.596L45.4853 365.681H48.3875L53.0454 379.583L57.7749 365.681H60.6413L65.2992 379.475L69.9571 365.681H72.8594L66.7683 383.596H63.9019L59.2081 369.586L54.4786 383.596H51.5764ZM75.406 383.596V365.681H78.2724V383.596H75.406ZM76.875 361.525C76.3973 361.525 75.9793 361.346 75.621 360.987C75.2627 360.629 75.0835 360.211 75.0835 359.733C75.0835 359.232 75.2627 358.814 75.621 358.479C75.9793 358.121 76.3973 357.942 76.875 357.942C77.3767 357.942 77.7947 358.121 78.1291 358.479C78.4874 358.814 78.6665 359.232 78.6665 359.733C78.6665 360.211 78.4874 360.629 78.1291 360.987C77.7947 361.346 77.3767 361.525 76.875 361.525ZM89.7852 384.026C88.0415 384.026 86.6919 383.572 85.7364 382.664C84.7809 381.757 84.3032 380.479 84.3032 378.831V368.225H81.186V365.681H84.3032V360.091H87.1696V365.681H92.5441V368.225H87.1696V378.544C87.1696 379.452 87.4085 380.156 87.8862 380.658C88.3878 381.136 89.0805 381.374 89.9644 381.374C90.251 381.374 90.5257 381.339 90.7884 381.267C91.0751 381.171 91.4453 380.956 91.8992 380.622L93.0099 382.951C92.3889 383.357 91.8275 383.632 91.3259 383.775C90.8243 383.942 90.3107 384.026 89.7852 384.026ZM96.085 383.596V358.515H98.9514V368.297C99.5486 367.317 100.325 366.565 101.28 366.039C102.236 365.514 103.347 365.251 104.613 365.251C105.998 365.251 107.216 365.538 108.267 366.111C109.318 366.66 110.13 367.544 110.704 368.762C111.301 369.981 111.587 371.581 111.564 373.564V383.596H108.697V374.423C108.697 372.656 108.482 371.306 108.052 370.375C107.646 369.443 107.085 368.81 106.368 368.476C105.652 368.117 104.839 367.938 103.932 367.938C102.355 367.938 101.125 368.5 100.241 369.622C99.3814 370.721 98.9514 372.286 98.9514 374.316V383.596H96.085ZM129.567 384.026C127.465 384.026 125.817 383.548 124.623 382.593C123.452 381.613 122.867 380.264 122.867 378.544C122.867 376.729 123.464 375.343 124.659 374.388C125.877 373.408 127.573 372.919 129.747 372.919H134.727C134.607 371.223 134.189 369.957 133.473 369.121C132.756 368.261 131.681 367.831 130.248 367.831C129.269 367.831 128.421 368.034 127.704 368.44C127.012 368.822 126.438 369.443 125.984 370.303L123.405 369.3C123.858 368.464 124.408 367.747 125.053 367.15C125.698 366.529 126.45 366.063 127.31 365.753C128.17 365.418 129.149 365.251 130.248 365.251C131.92 365.251 133.294 365.585 134.369 366.254C135.467 366.899 136.291 367.867 136.841 369.156C137.39 370.422 137.653 371.999 137.629 373.886L137.593 383.596H134.942L134.799 381.195C134.273 382.103 133.568 382.808 132.685 383.309C131.801 383.787 130.762 384.026 129.567 384.026ZM129.711 381.518C130.738 381.518 131.634 381.303 132.398 380.873C133.162 380.419 133.748 379.786 134.154 378.974C134.584 378.162 134.799 377.182 134.799 376.036V375.319H130.391C128.719 375.319 127.525 375.594 126.808 376.143C126.116 376.693 125.769 377.481 125.769 378.508C125.769 379.44 126.116 380.18 126.808 380.73C127.501 381.255 128.469 381.518 129.711 381.518ZM158.003 384.026C156.235 384.026 154.671 383.632 153.309 382.844C151.948 382.031 150.885 380.921 150.12 379.511C149.356 378.102 148.974 376.478 148.974 374.638C148.974 372.799 149.344 371.175 150.085 369.766C150.849 368.356 151.912 367.257 153.273 366.469C154.635 365.657 156.188 365.251 157.931 365.251C159.651 365.251 161.192 365.645 162.553 366.433C163.915 367.222 164.954 368.332 165.671 369.766L163.055 370.948C162.577 369.992 161.885 369.252 160.977 368.726C160.069 368.177 159.03 367.902 157.86 367.902C156.689 367.902 155.65 368.189 154.743 368.762C153.859 369.336 153.154 370.136 152.629 371.163C152.127 372.166 151.876 373.325 151.876 374.638C151.876 375.952 152.127 377.123 152.629 378.15C153.154 379.153 153.871 379.941 154.778 380.515C155.71 381.088 156.761 381.374 157.931 381.374C159.102 381.374 160.141 381.076 161.049 380.479C161.98 379.882 162.685 379.046 163.163 377.971L165.778 379.153C165.062 380.682 164.022 381.876 162.661 382.736C161.299 383.596 159.747 384.026 158.003 384.026ZM168.892 383.596V358.515H171.759V368.297C172.356 367.317 173.132 366.565 174.088 366.039C175.043 365.514 176.154 365.251 177.42 365.251C178.805 365.251 180.023 365.538 181.074 366.111C182.125 366.66 182.938 367.544 183.511 368.762C184.108 369.981 184.395 371.581 184.371 373.564V383.596H181.504V374.423C181.504 372.656 181.289 371.306 180.859 370.375C180.453 369.443 179.892 368.81 179.175 368.476C178.459 368.117 177.647 367.938 176.739 367.938C175.162 367.938 173.932 368.5 173.048 369.622C172.189 370.721 171.759 372.286 171.759 374.316V383.596H168.892ZM194.027 384.026C191.925 384.026 190.277 383.548 189.083 382.593C187.912 381.613 187.327 380.264 187.327 378.544C187.327 376.729 187.924 375.343 189.119 374.388C190.337 373.408 192.033 372.919 194.207 372.919H199.187C199.067 371.223 198.649 369.957 197.933 369.121C197.216 368.261 196.141 367.831 194.708 367.831C193.729 367.831 192.881 368.034 192.164 368.44C191.472 368.822 190.898 369.443 190.444 370.303L187.865 369.3C188.318 368.464 188.868 367.747 189.513 367.15C190.158 366.529 190.91 366.063 191.77 365.753C192.63 365.418 193.609 365.251 194.708 365.251C196.38 365.251 197.754 365.585 198.829 366.254C199.927 366.899 200.751 367.867 201.301 369.156C201.85 370.422 202.113 371.999 202.089 373.886L202.053 383.596H199.402L199.259 381.195C198.733 382.103 198.028 382.808 197.145 383.309C196.261 383.787 195.222 384.026 194.027 384.026ZM194.171 381.518C195.198 381.518 196.094 381.303 196.858 380.873C197.622 380.419 198.208 379.786 198.614 378.974C199.044 378.162 199.259 377.182 199.259 376.036V375.319H194.851C193.179 375.319 191.985 375.594 191.268 376.143C190.576 376.693 190.229 377.481 190.229 378.508C190.229 379.44 190.576 380.18 191.268 380.73C191.961 381.255 192.929 381.518 194.171 381.518ZM212.862 384.026C211.118 384.026 209.769 383.572 208.813 382.664C207.858 381.757 207.38 380.479 207.38 378.831V368.225H204.263V365.681H207.38V360.091H210.246V365.681H215.621V368.225H210.246V378.544C210.246 379.452 210.485 380.156 210.963 380.658C211.464 381.136 212.157 381.374 213.041 381.374C213.328 381.374 213.602 381.339 213.865 381.267C214.152 381.171 214.522 380.956 214.976 380.622L216.087 382.951C215.465 383.357 214.904 383.632 214.403 383.775C213.901 383.942 213.387 384.026 212.862 384.026ZM228.083 384.026C226.77 384.026 225.599 383.715 224.572 383.094C223.545 382.473 222.697 381.625 222.028 380.55L221.885 383.596H219.162V358.515H222.028V368.691C222.697 367.616 223.545 366.78 224.572 366.183C225.599 365.562 226.77 365.251 228.083 365.251C229.684 365.251 231.093 365.645 232.311 366.433C233.529 367.222 234.473 368.32 235.142 369.73C235.835 371.139 236.181 372.775 236.181 374.638C236.181 376.478 235.835 378.114 235.142 379.547C234.473 380.956 233.529 382.055 232.311 382.844C231.093 383.632 229.684 384.026 228.083 384.026ZM227.438 381.41C228.561 381.41 229.552 381.124 230.412 380.55C231.296 379.977 231.989 379.177 232.49 378.15C233.016 377.123 233.279 375.952 233.279 374.638C233.279 373.325 233.028 372.154 232.526 371.127C232.049 370.1 231.368 369.3 230.484 368.726C229.6 368.153 228.597 367.867 227.474 367.867C226.423 367.867 225.48 368.153 224.644 368.726C223.832 369.3 223.187 370.1 222.709 371.127C222.255 372.154 222.028 373.325 222.028 374.638C222.028 375.952 222.255 377.123 222.709 378.15C223.187 379.177 223.832 379.977 224.644 380.55C225.456 381.124 226.387 381.41 227.438 381.41ZM247.569 384.026C245.825 384.026 244.273 383.632 242.911 382.844C241.573 382.031 240.522 380.921 239.758 379.511C238.994 378.102 238.611 376.478 238.611 374.638C238.611 372.799 238.982 371.175 239.722 369.766C240.486 368.356 241.537 367.257 242.875 366.469C244.237 365.657 245.777 365.251 247.497 365.251C249.265 365.251 250.817 365.657 252.155 366.469C253.517 367.257 254.568 368.356 255.308 369.766C256.073 371.175 256.455 372.799 256.455 374.638C256.455 376.478 256.073 378.102 255.308 379.511C254.568 380.921 253.529 382.031 252.191 382.844C250.853 383.632 249.313 384.026 247.569 384.026ZM247.569 381.374C248.763 381.374 249.802 381.088 250.686 380.515C251.57 379.941 252.263 379.153 252.764 378.15C253.29 377.147 253.552 375.976 253.552 374.638C253.552 373.301 253.29 372.13 252.764 371.127C252.263 370.124 251.558 369.336 250.65 368.762C249.743 368.189 248.692 367.902 247.497 367.902C246.327 367.902 245.288 368.189 244.38 368.762C243.496 369.336 242.792 370.124 242.266 371.127C241.764 372.13 241.514 373.301 241.514 374.638C241.514 375.952 241.764 377.123 242.266 378.15C242.792 379.153 243.508 379.941 244.416 380.515C245.347 381.088 246.398 381.374 247.569 381.374ZM266.665 384.026C264.922 384.026 263.572 383.572 262.617 382.664C261.661 381.757 261.183 380.479 261.183 378.831V368.225H258.066V365.681H261.183V360.091H264.05V365.681H269.424V368.225H264.05V378.544C264.05 379.452 264.289 380.156 264.766 380.658C265.268 381.136 265.961 381.374 266.844 381.374C267.131 381.374 267.406 381.339 267.669 381.267C267.955 381.171 268.325 380.956 268.779 380.622L269.89 382.951C269.269 383.357 268.708 383.632 268.206 383.775C267.704 383.942 267.191 384.026 266.665 384.026ZM54.1203 427.026C52.7349 427.026 51.5166 426.751 50.4656 426.202C49.4385 425.629 48.6264 424.733 48.0292 423.515C47.4559 422.272 47.1693 420.672 47.1693 418.713V408.681H50.0357V417.853C50.0357 419.621 50.2387 420.971 50.6448 421.902C51.0508 422.834 51.6122 423.479 52.3288 423.837C53.0693 424.171 53.8934 424.339 54.8011 424.339C56.3537 424.339 57.56 423.777 58.4199 422.655C59.3037 421.532 59.7456 419.967 59.7456 417.961V408.681H62.612V426.596H59.9247L59.7814 423.909C59.1843 424.912 58.4079 425.688 57.4525 426.238C56.497 426.763 55.3863 427.026 54.1203 427.026ZM73.3794 427.026C72.0656 427.026 70.919 426.835 69.9397 426.453C68.9603 426.047 68.1362 425.521 67.4674 424.876C66.8225 424.231 66.3567 423.527 66.07 422.762L68.5781 421.723C68.9842 422.535 69.5933 423.192 70.4055 423.694C71.2176 424.195 72.1134 424.446 73.0927 424.446C74.2154 424.446 75.1589 424.231 75.9233 423.801C76.6877 423.347 77.0699 422.714 77.0699 421.902C77.0699 421.162 76.7832 420.565 76.2099 420.111C75.6605 419.657 74.8365 419.287 73.7377 419L72.0178 418.534C70.3935 418.104 69.1275 417.459 68.2198 416.599C67.3122 415.716 66.8583 414.724 66.8583 413.625C66.8583 411.93 67.4077 410.616 68.5065 409.684C69.6292 408.729 71.2893 408.251 73.4869 408.251C74.5379 408.251 75.4933 408.406 76.3533 408.717C77.2132 409.027 77.9537 409.469 78.5747 410.042C79.1958 410.592 79.6496 411.249 79.9363 412.013L77.4282 413.124C77.1176 412.312 76.6041 411.726 75.8875 411.368C75.1709 411.01 74.299 410.831 73.2719 410.831C72.1731 410.831 71.3132 411.07 70.6921 411.547C70.0711 412.001 69.7605 412.646 69.7605 413.482C69.7605 413.96 70.0113 414.414 70.513 414.844C71.0385 415.25 71.8028 415.584 72.8061 415.847L74.5976 416.313C75.768 416.599 76.7474 417.029 77.5356 417.603C78.3239 418.152 78.9211 418.785 79.3271 419.502C79.7332 420.218 79.9363 420.983 79.9363 421.795C79.9363 422.87 79.6496 423.801 79.0763 424.589C78.5031 425.378 77.7267 425.987 76.7474 426.417C75.768 426.823 74.6454 427.026 73.3794 427.026ZM91.1409 427.026C89.3971 427.026 87.8564 426.632 86.5188 425.844C85.1811 425.031 84.1301 423.921 83.3658 422.511C82.6253 421.102 82.255 419.478 82.255 417.638C82.255 415.799 82.6253 414.175 83.3658 412.766C84.1301 411.356 85.1692 410.257 86.483 409.469C87.8206 408.657 89.3494 408.251 91.0692 408.251C92.7413 408.251 94.1864 408.669 95.4046 409.505C96.6229 410.317 97.5664 411.464 98.2352 412.945C98.904 414.426 99.2384 416.169 99.2384 418.176H85.1573C85.2767 420.135 85.8977 421.663 87.0204 422.762C88.1431 423.861 89.5643 424.41 91.2842 424.41C92.5502 424.41 93.6131 424.112 94.4731 423.515C95.3569 422.917 96.0376 422.129 96.5154 421.15L98.9876 422.404C98.5338 423.335 97.9247 424.148 97.1603 424.84C96.4198 425.533 95.536 426.07 94.5089 426.453C93.5056 426.835 92.383 427.026 91.1409 427.026ZM85.3722 415.775H96.1571C96.0854 414.748 95.8107 413.864 95.333 413.124C94.8791 412.383 94.282 411.81 93.5415 411.404C92.801 410.998 91.965 410.795 91.0334 410.795C90.1257 410.795 89.2538 410.998 88.4178 411.404C87.5818 411.786 86.889 412.359 86.3396 413.124C85.7903 413.864 85.4678 414.748 85.3722 415.775ZM108.619 427.026C107.305 427.026 106.158 426.835 105.179 426.453C104.199 426.047 103.375 425.521 102.707 424.876C102.062 424.231 101.596 423.527 101.309 422.762L103.817 421.723C104.223 422.535 104.832 423.192 105.645 423.694C106.457 424.195 107.353 424.446 108.332 424.446C109.455 424.446 110.398 424.231 111.162 423.801C111.927 423.347 112.309 422.714 112.309 421.902C112.309 421.162 112.022 420.565 111.449 420.111C110.9 419.657 110.076 419.287 108.977 419L107.257 418.534C105.633 418.104 104.367 417.459 103.459 416.599C102.551 415.716 102.097 414.724 102.097 413.625C102.097 411.93 102.647 410.616 103.746 409.684C104.868 408.729 106.528 408.251 108.726 408.251C109.777 408.251 110.732 408.406 111.592 408.717C112.452 409.027 113.193 409.469 113.814 410.042C114.435 410.592 114.889 411.249 115.175 412.013L112.667 413.124C112.357 412.312 111.843 411.726 111.127 411.368C110.41 411.01 109.538 410.831 108.511 410.831C107.412 410.831 106.552 411.07 105.931 411.547C105.31 412.001 105 412.646 105 413.482C105 413.96 105.251 414.414 105.752 414.844C106.278 415.25 107.042 415.584 108.045 415.847L109.837 416.313C111.007 416.599 111.987 417.029 112.775 417.603C113.563 418.152 114.16 418.785 114.566 419.502C114.972 420.218 115.175 420.983 115.175 421.795C115.175 422.87 114.889 423.801 114.315 424.589C113.742 425.378 112.966 425.987 111.987 426.417C111.007 426.823 109.885 427.026 108.619 427.026ZM126.88 426.596V401.515H129.747V411.297C130.344 410.317 131.12 409.565 132.076 409.039C133.031 408.514 134.142 408.251 135.408 408.251C136.793 408.251 138.012 408.538 139.063 409.111C140.114 409.66 140.926 410.544 141.499 411.762C142.096 412.981 142.383 414.581 142.359 416.564V426.596H139.493V417.423C139.493 415.656 139.278 414.306 138.848 413.375C138.442 412.443 137.88 411.81 137.164 411.476C136.447 411.117 135.635 410.938 134.727 410.938C133.151 410.938 131.921 411.5 131.037 412.622C130.177 413.721 129.747 415.286 129.747 417.316V426.596H126.88ZM152.016 427.026C149.914 427.026 148.265 426.548 147.071 425.593C145.901 424.613 145.315 423.264 145.315 421.544C145.315 419.729 145.913 418.343 147.107 417.388C148.325 416.408 150.021 415.919 152.195 415.919H157.175C157.056 414.223 156.638 412.957 155.921 412.121C155.205 411.261 154.13 410.831 152.696 410.831C151.717 410.831 150.869 411.034 150.152 411.44C149.46 411.822 148.886 412.443 148.433 413.303L145.853 412.3C146.307 411.464 146.856 410.747 147.501 410.15C148.146 409.529 148.898 409.063 149.758 408.753C150.618 408.418 151.598 408.251 152.696 408.251C154.368 408.251 155.742 408.585 156.817 409.254C157.916 409.899 158.74 410.867 159.289 412.156C159.839 413.422 160.101 414.999 160.077 416.886L160.042 426.596H157.39L157.247 424.195C156.721 425.103 156.017 425.808 155.133 426.309C154.249 426.787 153.21 427.026 152.016 427.026ZM152.159 424.518C153.186 424.518 154.082 424.303 154.846 423.873C155.611 423.419 156.196 422.786 156.602 421.974C157.032 421.162 157.247 420.182 157.247 419.036V418.319H152.84C151.168 418.319 149.973 418.594 149.257 419.143C148.564 419.693 148.218 420.481 148.218 421.508C148.218 422.44 148.564 423.18 149.257 423.73C149.949 424.255 150.917 424.518 152.159 424.518ZM164.114 426.596V401.515H166.98V426.596H164.114ZM173.273 426.596V411.153H169.977V408.681H173.273V406.639C173.273 404.775 173.703 403.378 174.563 402.447C175.447 401.491 176.784 401.013 178.576 401.013C179.054 401.013 179.591 401.097 180.188 401.264C180.785 401.431 181.418 401.67 182.087 401.981L181.012 404.238C180.463 404.023 179.997 403.856 179.615 403.736C179.233 403.617 178.91 403.557 178.647 403.557C177.811 403.557 177.178 403.832 176.748 404.381C176.342 404.907 176.139 405.731 176.139 406.854V408.681H181.335V411.153H176.139V426.596H173.273ZM198.211 427.026C196.109 427.026 194.461 426.548 193.266 425.593C192.096 424.613 191.511 423.264 191.511 421.544C191.511 419.729 192.108 418.343 193.302 417.388C194.52 416.408 196.216 415.919 198.39 415.919H203.37C203.251 414.223 202.833 412.957 202.116 412.121C201.4 411.261 200.325 410.831 198.891 410.831C197.912 410.831 197.064 411.034 196.348 411.44C195.655 411.822 195.082 412.443 194.628 413.303L192.048 412.3C192.502 411.464 193.051 410.747 193.696 410.15C194.341 409.529 195.094 409.063 195.953 408.753C196.813 408.418 197.793 408.251 198.891 408.251C200.564 408.251 201.937 408.585 203.012 409.254C204.111 409.899 204.935 410.867 205.484 412.156C206.034 413.422 206.296 414.999 206.272 416.886L206.237 426.596H203.585L203.442 424.195C202.916 425.103 202.212 425.808 201.328 426.309C200.444 426.787 199.405 427.026 198.211 427.026ZM198.354 424.518C199.381 424.518 200.277 424.303 201.041 423.873C201.806 423.419 202.391 422.786 202.797 421.974C203.227 421.162 203.442 420.182 203.442 419.036V418.319H199.035C197.363 418.319 196.168 418.594 195.452 419.143C194.759 419.693 194.413 420.481 194.413 421.508C194.413 422.44 194.759 423.18 195.452 423.73C196.145 424.255 197.112 424.518 198.354 424.518ZM218.656 426.596V401.515H221.523V426.596H218.656ZM226.203 426.596V408.681H229.069V426.596H226.203ZM227.672 404.525C227.194 404.525 226.776 404.346 226.418 403.987C226.06 403.629 225.88 403.211 225.88 402.733C225.88 402.232 226.06 401.814 226.418 401.479C226.776 401.121 227.194 400.942 227.672 400.942C228.174 400.942 228.592 401.121 228.926 401.479C229.284 401.814 229.463 402.232 229.463 402.733C229.463 403.211 229.284 403.629 228.926 403.987C228.592 404.346 228.174 404.525 227.672 404.525ZM240.582 427.026C238.838 427.026 237.489 426.572 236.533 425.664C235.578 424.757 235.1 423.479 235.1 421.831V411.225H231.983V408.681H235.1V403.091H237.967V408.681H243.341V411.225H237.967V421.544C237.967 422.452 238.205 423.156 238.683 423.658C239.185 424.136 239.877 424.374 240.761 424.374C241.048 424.374 241.323 424.339 241.585 424.267C241.872 424.171 242.242 423.956 242.696 423.622L243.807 425.951C243.186 426.357 242.624 426.632 242.123 426.775C241.621 426.942 241.108 427.026 240.582 427.026ZM246.882 426.596V408.681H249.748V411.87C250.465 410.747 251.385 409.923 252.507 409.398C253.654 408.872 254.848 408.609 256.09 408.609V411.297C255.039 411.297 254.024 411.476 253.045 411.834C252.089 412.168 251.301 412.73 250.68 413.518C250.059 414.306 249.748 415.381 249.748 416.743V426.596H246.882ZM266.33 427.026C264.586 427.026 263.046 426.632 261.708 425.844C260.37 425.031 259.319 423.921 258.555 422.511C257.814 421.102 257.444 419.478 257.444 417.638C257.444 415.799 257.814 414.175 258.555 412.766C259.319 411.356 260.358 410.257 261.672 409.469C263.01 408.657 264.538 408.251 266.258 408.251C267.93 408.251 269.375 408.669 270.594 409.505C271.812 410.317 272.755 411.464 273.424 412.945C274.093 414.426 274.428 416.169 274.428 418.176H260.346C260.466 420.135 261.087 421.663 262.209 422.762C263.332 423.861 264.753 424.41 266.473 424.41C267.739 424.41 268.802 424.112 269.662 423.515C270.546 422.917 271.227 422.129 271.704 421.15L274.177 422.404C273.723 423.335 273.114 424.148 272.349 424.84C271.609 425.533 270.725 426.07 269.698 426.453C268.695 426.835 267.572 427.026 266.33 427.026ZM260.561 415.775H271.346C271.274 414.748 271 413.864 270.522 413.124C270.068 412.383 269.471 411.81 268.731 411.404C267.99 410.998 267.154 410.795 266.222 410.795C265.315 410.795 264.443 410.998 263.607 411.404C262.771 411.786 262.078 412.359 261.529 413.124C260.979 413.864 260.657 414.748 260.561 415.775ZM55.5535 470.026C53.8098 470.026 52.2571 469.632 50.8956 468.844C49.5579 468.031 48.5069 466.921 47.7425 465.511C46.9782 464.102 46.596 462.478 46.596 460.638C46.596 458.799 46.9662 457.175 47.7067 455.766C48.4711 454.356 49.5221 453.257 50.8598 452.469C52.2213 451.657 53.762 451.251 55.4818 451.251C57.2494 451.251 58.8021 451.657 60.1397 452.469C61.5013 453.257 62.5523 454.356 63.2928 455.766C64.0571 457.175 64.4393 458.799 64.4393 460.638C64.4393 462.478 64.0571 464.102 63.2928 465.511C62.5523 466.921 61.5132 468.031 60.1756 468.844C58.8379 469.632 57.2972 470.026 55.5535 470.026ZM55.5535 467.374C56.7478 467.374 57.7869 467.088 58.6707 466.515C59.5545 465.941 60.2472 465.153 60.7488 464.15C61.2743 463.147 61.5371 461.976 61.5371 460.638C61.5371 459.301 61.2743 458.13 60.7488 457.127C60.2472 456.124 59.5426 455.336 58.6349 454.762C57.7272 454.189 56.6762 453.902 55.4818 453.902C54.3114 453.902 53.2723 454.189 52.3646 454.762C51.4808 455.336 50.7762 456.124 50.2506 457.127C49.749 458.13 49.4982 459.301 49.4982 460.638C49.4982 461.952 49.749 463.123 50.2506 464.15C50.7762 465.153 51.4928 465.941 52.4004 466.515C53.332 467.088 54.383 467.374 55.5535 467.374ZM69.7054 469.596V454.153H66.409V451.681H69.7054V449.639C69.7054 447.775 70.1354 446.378 70.9953 445.447C71.8791 444.491 73.2167 444.013 75.0082 444.013C75.486 444.013 76.0234 444.097 76.6206 444.264C77.2178 444.431 77.8507 444.67 78.5196 444.981L77.4447 447.238C76.8953 447.023 76.4295 446.856 76.0473 446.736C75.6651 446.617 75.3426 446.557 75.0799 446.557C74.2439 446.557 73.6109 446.832 73.1809 447.381C72.7748 447.907 72.5718 448.731 72.5718 449.854V451.681H77.7671V454.153H72.5718V469.596H69.7054ZM90.7735 469.596V454.153H87.4771V451.681H90.7735V449.639C90.7735 447.775 91.2035 446.378 92.0634 445.447C92.9472 444.491 94.2848 444.013 96.0763 444.013C96.5541 444.013 97.0915 444.097 97.6887 444.264C98.2859 444.431 98.9189 444.67 99.5877 444.981L98.5128 447.238C97.9634 447.023 97.4976 446.856 97.1154 446.736C96.7332 446.617 96.4108 446.557 96.148 446.557C95.312 446.557 94.679 446.832 94.249 447.381C93.8429 447.907 93.6399 448.731 93.6399 449.854V451.681H98.8353V454.153H93.6399V469.596H90.7735ZM101.703 469.596V451.681H104.569V454.87C105.286 453.747 106.206 452.923 107.328 452.398C108.475 451.872 109.669 451.609 110.911 451.609V454.297C109.86 454.297 108.845 454.476 107.866 454.834C106.91 455.168 106.122 455.73 105.501 456.518C104.88 457.306 104.569 458.381 104.569 459.743V469.596H101.703ZM121.151 470.026C119.407 470.026 117.867 469.632 116.529 468.844C115.191 468.031 114.14 466.921 113.376 465.511C112.635 464.102 112.265 462.478 112.265 460.638C112.265 458.799 112.635 457.175 113.376 455.766C114.14 454.356 115.179 453.257 116.493 452.469C117.831 451.657 119.359 451.251 121.079 451.251C122.751 451.251 124.197 451.669 125.415 452.505C126.633 453.317 127.576 454.464 128.245 455.945C128.914 457.426 129.249 459.169 129.249 461.176H115.167C115.287 463.135 115.908 464.663 117.031 465.762C118.153 466.861 119.574 467.41 121.294 467.41C122.56 467.41 123.623 467.112 124.483 466.515C125.367 465.917 126.048 465.129 126.525 464.15L128.998 465.404C128.544 466.335 127.935 467.148 127.17 467.84C126.43 468.533 125.546 469.07 124.519 469.453C123.516 469.835 122.393 470.026 121.151 470.026ZM115.382 458.775H126.167C126.096 457.748 125.821 456.864 125.343 456.124C124.889 455.383 124.292 454.81 123.552 454.404C122.811 453.998 121.975 453.795 121.043 453.795C120.136 453.795 119.264 453.998 118.428 454.404C117.592 454.786 116.899 455.359 116.35 456.124C115.8 456.864 115.478 457.748 115.382 458.775ZM138.629 470.026C137.315 470.026 136.168 469.835 135.189 469.453C134.21 469.047 133.386 468.521 132.717 467.876C132.072 467.231 131.606 466.527 131.319 465.762L133.827 464.723C134.233 465.535 134.843 466.192 135.655 466.694C136.467 467.195 137.363 467.446 138.342 467.446C139.465 467.446 140.408 467.231 141.173 466.801C141.937 466.347 142.319 465.714 142.319 464.902C142.319 464.162 142.032 463.565 141.459 463.111C140.91 462.657 140.086 462.287 138.987 462L137.267 461.534C135.643 461.104 134.377 460.459 133.469 459.599C132.561 458.716 132.108 457.724 132.108 456.625C132.108 454.93 132.657 453.616 133.756 452.684C134.878 451.729 136.539 451.251 138.736 451.251C139.787 451.251 140.743 451.406 141.603 451.717C142.462 452.027 143.203 452.469 143.824 453.042C144.445 453.592 144.899 454.249 145.186 455.013L142.677 456.124C142.367 455.312 141.853 454.726 141.137 454.368C140.42 454.01 139.548 453.831 138.521 453.831C137.422 453.831 136.562 454.07 135.941 454.547C135.32 455.001 135.01 455.646 135.01 456.482C135.01 456.96 135.261 457.414 135.762 457.844C136.288 458.25 137.052 458.584 138.055 458.847L139.847 459.313C141.017 459.599 141.997 460.029 142.785 460.603C143.573 461.152 144.17 461.785 144.576 462.502C144.983 463.218 145.186 463.983 145.186 464.795C145.186 465.87 144.899 466.801 144.326 467.589C143.752 468.378 142.976 468.987 141.997 469.417C141.017 469.823 139.895 470.026 138.629 470.026ZM148.543 469.596V444.515H151.41V454.297C152.007 453.317 152.783 452.565 153.739 452.039C154.694 451.514 155.805 451.251 157.071 451.251C158.456 451.251 159.675 451.538 160.726 452.111C161.777 452.66 162.589 453.544 163.162 454.762C163.759 455.981 164.046 457.581 164.022 459.564V469.596H161.156V460.423C161.156 458.656 160.941 457.306 160.511 456.375C160.105 455.443 159.543 454.81 158.827 454.476C158.11 454.117 157.298 453.938 156.39 453.938C154.814 453.938 153.583 454.5 152.7 455.622C151.84 456.721 151.41 458.286 151.41 460.316V469.596H148.543ZM180.306 469.596L174.215 451.681H177.117L181.775 465.583L186.504 451.681H189.371L194.029 465.475L198.687 451.681H201.589L195.498 469.596H192.631L187.938 455.586L183.208 469.596H180.306ZM209.198 470.026C207.096 470.026 205.447 469.548 204.253 468.593C203.083 467.613 202.497 466.264 202.497 464.544C202.497 462.729 203.095 461.343 204.289 460.388C205.507 459.408 207.203 458.919 209.377 458.919H214.357C214.238 457.223 213.82 455.957 213.103 455.121C212.387 454.261 211.312 453.831 209.878 453.831C208.899 453.831 208.051 454.034 207.334 454.44C206.642 454.822 206.068 455.443 205.615 456.303L203.035 455.3C203.489 454.464 204.038 453.747 204.683 453.15C205.328 452.529 206.08 452.063 206.94 451.753C207.8 451.418 208.78 451.251 209.878 451.251C211.55 451.251 212.924 451.585 213.999 452.254C215.098 452.899 215.922 453.867 216.471 455.156C217.021 456.422 217.283 457.999 217.259 459.886L217.224 469.596H214.572L214.429 467.195C213.903 468.103 213.199 468.808 212.315 469.309C211.431 469.787 210.392 470.026 209.198 470.026ZM209.341 467.518C210.368 467.518 211.264 467.303 212.028 466.873C212.793 466.419 213.378 465.786 213.784 464.974C214.214 464.162 214.429 463.182 214.429 462.036V461.319H210.022C208.35 461.319 207.155 461.594 206.439 462.143C205.746 462.693 205.4 463.481 205.4 464.508C205.4 465.44 205.746 466.18 206.439 466.73C207.131 467.255 208.099 467.518 209.341 467.518ZM228.032 470.026C226.288 470.026 224.939 469.572 223.983 468.664C223.028 467.757 222.55 466.479 222.55 464.831V454.225H219.433V451.681H222.55V446.091H225.417V451.681H230.791V454.225H225.417V464.544C225.417 465.452 225.655 466.156 226.133 466.658C226.635 467.136 227.327 467.374 228.211 467.374C228.498 467.374 228.773 467.339 229.035 467.267C229.322 467.171 229.692 466.956 230.146 466.622L231.257 468.951C230.636 469.357 230.074 469.632 229.573 469.775C229.071 469.942 228.558 470.026 228.032 470.026ZM242.074 470.026C240.33 470.026 238.789 469.632 237.452 468.844C236.114 468.031 235.063 466.921 234.299 465.511C233.558 464.102 233.188 462.478 233.188 460.638C233.188 458.799 233.558 457.175 234.299 455.766C235.063 454.356 236.102 453.257 237.416 452.469C238.753 451.657 240.282 451.251 242.002 451.251C243.674 451.251 245.119 451.669 246.337 452.505C247.556 453.317 248.499 454.464 249.168 455.945C249.837 457.426 250.171 459.169 250.171 461.176H236.09C236.21 463.135 236.831 464.663 237.953 465.762C239.076 466.861 240.497 467.41 242.217 467.41C243.483 467.41 244.546 467.112 245.406 466.515C246.29 465.917 246.97 465.129 247.448 464.15L249.92 465.404C249.467 466.335 248.858 467.148 248.093 467.84C247.353 468.533 246.469 469.07 245.442 469.453C244.438 469.835 243.316 470.026 242.074 470.026ZM236.305 458.775H247.09C247.018 457.748 246.744 456.864 246.266 456.124C245.812 455.383 245.215 454.81 244.474 454.404C243.734 453.998 242.898 453.795 241.966 453.795C241.059 453.795 240.187 453.998 239.351 454.404C238.515 454.786 237.822 455.359 237.272 456.124C236.723 456.864 236.401 457.748 236.305 458.775ZM253.281 469.596V451.681H256.148V454.87C256.864 453.747 257.784 452.923 258.906 452.398C260.053 451.872 261.247 451.609 262.489 451.609V454.297C261.438 454.297 260.423 454.476 259.444 454.834C258.488 455.168 257.7 455.73 257.079 456.518C256.458 457.306 256.148 458.381 256.148 459.743V469.596H253.281ZM266.101 470.098C265.551 470.098 265.073 469.906 264.667 469.524C264.285 469.118 264.094 468.652 264.094 468.127C264.094 467.578 264.285 467.112 264.667 466.73C265.073 466.323 265.551 466.12 266.101 466.12C266.65 466.12 267.116 466.323 267.498 466.73C267.88 467.112 268.071 467.578 268.071 468.127C268.071 468.652 267.88 469.118 267.498 469.524C267.116 469.906 266.65 470.098 266.101 470.098Z" fill="#88F154"/>
</svg>
