<svg xmlns="http://www.w3.org/2000/svg" width="345" height="541" fill="none" viewBox="0 0 345 541"><rect width="342.12" height="538.12" x="1.44" y="1.44" stroke="#88f154" stroke-width="2.88" rx="6.081"/><g opacity=".3"><path fill="#88f154" d="M62.274 84.413V104c0 5.547-1.643 10.97-4.72 15.586l-4.608 6.911a28.1 28.1 0 0 0-4.72 15.592v68.746a14.046 14.046 0 0 0 14.048 14.047h42.141a14.047 14.047 0 0 0 14.047-14.047v-68.753c0-5.547-1.643-10.97-4.72-15.585l-4.607-6.911a28.1 28.1 0 0 1-4.72-15.593v-19.58"/><path stroke="#88f154" stroke-linecap="round" stroke-linejoin="round" stroke-width="4.322" d="M62.274 84.413V104c0 5.547-1.643 10.97-4.72 15.586l-4.608 6.911a28.1 28.1 0 0 0-4.72 15.592v68.746a14.046 14.046 0 0 0 14.048 14.047h42.141a14.047 14.047 0 0 0 14.047-14.047v-68.753c0-5.547-1.643-10.97-4.72-15.585l-4.607-6.911a28.1 28.1 0 0 1-4.72-15.593v-19.58z"/></g><mask id="a" width="75" height="146" x="46" y="82" maskUnits="userSpaceOnUse" style="mask-type:alpha"><path fill="#fff" d="M62.274 84.414v19.588c0 5.547-1.643 10.97-4.72 15.585l-4.608 6.912a28.1 28.1 0 0 0-4.72 15.592v68.746a14.046 14.046 0 0 0 14.048 14.047h42.141a14.047 14.047 0 0 0 14.047-14.047v-68.753c0-5.547-1.643-10.97-4.72-15.585l-4.607-6.912a28.1 28.1 0 0 1-4.72-15.592V84.414"/><path stroke="#fff" stroke-linecap="round" stroke-linejoin="round" stroke-width="4.322" d="M62.274 84.414v19.588c0 5.547-1.643 10.97-4.72 15.585l-4.608 6.912a28.1 28.1 0 0 0-4.72 15.592v68.746a14.046 14.046 0 0 0 14.048 14.047h42.141a14.047 14.047 0 0 0 14.047-14.047v-68.753c0-5.547-1.643-10.97-4.72-15.585l-4.607-6.912a28.1 28.1 0 0 1-4.72-15.592V84.414z"/></mask><g mask="url(#a)"><path fill="#88f154" d="M83.58 156.185c-22.285-6.451-34.77-5.181-57.056 0l-11.364 79.31h141.576v-79.31c-28.029 6.8-43.756 10.32-73.156 0"/></g><path fill="#88f154" d="m45.45 297.596 10.211-25.081h3.153l10.212 25.081h-3.19l-2.901-7.13H51.576l-2.902 7.13zm7.165-9.853h9.245l-4.623-11.43zm33.38 10.283q-1.97 0-3.44-.573-1.469-.61-2.472-1.577-.966-.967-1.397-2.114l2.508-1.039q.609 1.218 1.828 1.971a5 5 0 0 0 2.687.752q1.684 0 2.83-.645 1.147-.681 1.147-1.899 0-1.11-.86-1.791-.825-.68-2.472-1.111l-1.72-.466q-2.436-.645-3.798-1.935-1.362-1.325-1.362-2.974 0-2.543 1.648-3.941 1.685-1.433 4.98-1.433 1.578 0 2.867.466 1.29.465 2.222 1.325a4.9 4.9 0 0 1 1.361 1.971l-2.508 1.111q-.466-1.219-1.54-1.756-1.076-.537-2.616-.537-1.649 0-2.58.716-.932.681-.932 1.935 0 .717.753 1.362.788.609 2.293 1.003l1.792.466q1.755.429 2.938 1.29 1.182.823 1.791 1.899.61 1.075.61 2.293 0 1.612-.86 2.794-.86 1.183-2.33 1.828-1.469.609-3.368.609m9.915-.43v-17.915h2.687l.144 2.508q.824-1.433 2.114-2.186t3.009-.752q2.15 0 3.655 1.003 1.541 1.003 2.221 3.046.753-1.97 2.186-3.01 1.469-1.04 3.476-1.039 3.01 0 4.729 2.006 1.756 2.007 1.72 6.092v10.247h-2.866v-9.173q0-2.651-.574-4.048-.537-1.398-1.469-1.899-.931-.538-2.15-.538-2.114 0-3.296 1.684-1.182 1.649-1.182 4.694v9.28h-2.867v-9.173q0-2.651-.573-4.048-.537-1.398-1.505-1.899-.931-.538-2.15-.538-2.078 0-3.26 1.684-1.183 1.649-1.183 4.694v9.28zm35.632.43q-3.153 0-4.944-1.433-1.756-1.47-1.756-4.049 0-2.723 1.792-4.156 1.827-1.47 5.087-1.469h4.981q-.18-2.544-1.254-3.798-1.076-1.29-3.225-1.29-1.469 0-2.544.609-1.04.573-1.72 1.863l-2.579-1.003a8.3 8.3 0 0 1 1.648-2.15 6.3 6.3 0 0 1 2.257-1.397q1.29-.502 2.938-.502 2.508 0 4.121 1.003 1.647.968 2.472 2.902.824 1.9.788 4.73l-.036 9.71h-2.651l-.143-2.401a5.6 5.6 0 0 1-2.114 2.114q-1.326.717-3.118.717m.144-2.508q1.54 0 2.687-.645a4.5 4.5 0 0 0 1.756-1.899q.645-1.219.645-2.938v-.717h-4.408q-2.508 0-3.583.824-1.038.825-1.039 2.365 0 1.397 1.039 2.222 1.04.788 2.903.788m11.955 2.078v-25.081h2.866v25.081zm7.367 0v-25.081h2.867v25.081zm-95.383 43.43q-2.65 0-4.694-1.182a8.56 8.56 0 0 1-3.188-3.333q-1.147-2.113-1.147-4.873 0-2.758 1.11-4.872a8.3 8.3 0 0 1 3.19-3.297q2.042-1.218 4.657-1.218 2.58 0 4.623 1.182 2.041 1.183 3.117 3.333l-2.616 1.182a5.2 5.2 0 0 0-2.078-2.222q-1.362-.824-3.117-.824-1.756 0-3.117.86-1.326.86-2.114 2.401-.753 1.505-.753 3.475t.753 3.512q.788 1.504 2.15 2.365 1.397.86 3.152.859 1.755 0 3.118-.895 1.397-.896 2.114-2.508l2.615 1.182q-1.074 2.293-3.117 3.583-2.042 1.29-4.658 1.29m18.808 0q-2.616 0-4.658-1.182a8.64 8.64 0 0 1-3.153-3.333q-1.147-2.113-1.147-4.873 0-2.758 1.11-4.872 1.147-2.115 3.154-3.297 2.042-1.218 4.622-1.218 2.651 0 4.658 1.218a8.06 8.06 0 0 1 3.153 3.297q1.147 2.113 1.147 4.872t-1.147 4.873a8.4 8.4 0 0 1-3.117 3.333q-2.007 1.182-4.622 1.182m0-2.652q1.791 0 3.117-.859 1.325-.86 2.078-2.365.788-1.505.788-3.512 0-2.006-.788-3.511-.752-1.504-2.114-2.365-1.362-.86-3.153-.86-1.756 0-3.117.86-1.326.86-2.114 2.365-.753 1.505-.753 3.511 0 1.971.753 3.512.788 1.504 2.15 2.365 1.396.86 3.153.859m12.36 2.222v-17.915h2.687l.144 2.687q.895-1.504 2.329-2.293 1.433-.824 3.332-.824 2.114 0 3.654.86 1.578.824 2.437 2.651.896 1.828.86 4.802v10.032h-2.867v-9.173q0-2.651-.609-4.048t-1.684-1.899q-1.074-.538-2.436-.538-2.366 0-3.69 1.684-1.29 1.649-1.29 4.694v9.28zm24.497 0-7.488-17.915h2.974l6.019 14.583 5.984-14.583h3.009l-7.488 17.915zm20.234.43q-2.616 0-4.622-1.182a8.65 8.65 0 0 1-3.154-3.333q-1.11-2.113-1.11-4.873 0-2.758 1.11-4.872 1.147-2.115 3.118-3.297 2.006-1.218 4.586-1.218 2.508 0 4.335 1.254 1.828 1.218 2.831 3.44t1.003 5.231H125.54q.178 2.938 1.863 4.586 1.684 1.648 4.264 1.648 1.899 0 3.189-.895a5.95 5.95 0 0 0 2.042-2.365l2.472 1.254a8 8 0 0 1-1.827 2.436q-1.11 1.039-2.651 1.613-1.505.573-3.368.573m-5.769-11.251h10.785q-.108-1.54-.824-2.651a4.75 4.75 0 0 0-1.792-1.72q-1.11-.609-2.508-.609-1.361 0-2.615.609a5.17 5.17 0 0 0-2.079 1.72q-.823 1.11-.967 2.651m16.976 10.821v-17.915h2.866v3.189q1.076-1.685 2.759-2.472a8.5 8.5 0 0 1 3.583-.789v2.688a8.8 8.8 0 0 0-3.045.537 5.1 5.1 0 0 0-2.365 1.684q-.932 1.182-.932 3.225v9.853zm17.872.43q-1.971 0-3.44-.573-1.47-.61-2.472-1.577-.968-.967-1.398-2.114l2.508-1.039q.609 1.218 1.828 1.971a5 5 0 0 0 2.687.752q1.684 0 2.83-.645 1.147-.681 1.147-1.899 0-1.11-.86-1.791-.823-.68-2.472-1.111l-1.72-.466q-2.436-.645-3.798-1.935-1.362-1.325-1.362-2.974 0-2.543 1.649-3.941 1.683-1.433 4.98-1.433 1.576 0 2.866.466 1.29.465 2.222 1.325a4.9 4.9 0 0 1 1.361 1.971l-2.508 1.111q-.466-1.219-1.54-1.756-1.076-.537-2.616-.537-1.649 0-2.58.716-.931.681-.931 1.935 0 .717.752 1.362.789.609 2.293 1.003l1.792.466q1.755.429 2.938 1.29 1.182.823 1.791 1.899.609 1.075.609 2.293 0 1.612-.86 2.794-.86 1.183-2.328 1.828-1.47.609-3.368.609m15.575 0q-3.153 0-4.944-1.433-1.756-1.47-1.756-4.049 0-2.723 1.792-4.156 1.827-1.47 5.088-1.469h4.98q-.18-2.544-1.254-3.798-1.076-1.29-3.225-1.29-1.469 0-2.544.609-1.038.573-1.72 1.863l-2.579-1.003a8.3 8.3 0 0 1 1.648-2.15 6.3 6.3 0 0 1 2.257-1.397q1.29-.502 2.938-.502 2.508 0 4.121 1.003 1.647.968 2.472 2.902.824 1.9.788 4.73l-.036 9.71h-2.651l-.143-2.401a5.6 5.6 0 0 1-2.114 2.114q-1.326.717-3.118.717m.144-2.508q1.54 0 2.687-.645a4.5 4.5 0 0 0 1.756-1.899q.645-1.219.645-2.938v-.717h-4.408q-2.508 0-3.583.824-1.038.825-1.039 2.365 0 1.397 1.039 2.222 1.04.788 2.903.788m18.691 2.508q-2.616 0-4.049-1.362-1.433-1.36-1.433-3.833v-10.606h-3.117v-2.544h3.117v-5.59h2.866v5.59h5.375v2.544h-5.375v10.319q0 1.362.717 2.114.752.716 2.078.716.43 0 .824-.107.43-.144 1.111-.645l1.111 2.329q-.933.61-1.684.824a4.9 4.9 0 0 1-1.541.251m6.479-.43v-17.915h2.866v17.915zm1.469-22.071q-.717 0-1.254-.538-.538-.537-.538-1.254 0-.751.538-1.254.537-.537 1.254-.537.752 0 1.254.537.537.502.537 1.254 0 .717-.537 1.254a1.64 1.64 0 0 1-1.254.538m14.092 22.501q-2.615 0-4.658-1.182a8.65 8.65 0 0 1-3.153-3.333q-1.146-2.113-1.146-4.873 0-2.758 1.111-4.872 1.146-2.115 3.153-3.297 2.042-1.218 4.622-1.218 2.65 0 4.658 1.218a8.07 8.07 0 0 1 3.153 3.297q1.146 2.113 1.146 4.872t-1.146 4.873a8.4 8.4 0 0 1-3.118 3.333q-2.006 1.182-4.622 1.182m0-2.652q1.792 0 3.118-.859 1.325-.86 2.078-2.365.788-1.505.788-3.512 0-2.006-.788-3.511-.753-1.504-2.114-2.365-1.362-.86-3.153-.86-1.756 0-3.117.86-1.326.86-2.114 2.365-.753 1.505-.753 3.511 0 1.971.753 3.512.788 1.504 2.149 2.365 1.398.86 3.153.859m12.361 2.222v-17.915h2.687l.143 2.687q.897-1.504 2.329-2.293 1.434-.824 3.333-.824 2.113 0 3.654.86 1.576.824 2.437 2.651.895 1.828.86 4.802v10.032h-2.867v-9.173q0-2.651-.609-4.048t-1.684-1.899q-1.076-.538-2.436-.538-2.365 0-3.691 1.684-1.29 1.649-1.29 4.694v9.28zm-177.838 43-6.09-17.915h2.902l4.657 13.902 4.73-13.902h2.866l4.658 13.794 4.658-13.794h2.902l-6.09 17.915h-2.867l-4.694-14.01-4.73 14.01zm23.83 0v-17.915h2.866v17.915zm1.469-22.071q-.717 0-1.254-.538-.537-.537-.537-1.254 0-.751.537-1.254.537-.537 1.254-.537.753 0 1.254.537.537.502.537 1.254 0 .717-.537 1.254a1.64 1.64 0 0 1-1.254.538m12.91 22.501q-2.615 0-4.049-1.362-1.433-1.36-1.433-3.833v-10.606h-3.117v-2.544h3.117v-5.59h2.867v5.59h5.374v2.544H87.17v10.319q0 1.362.716 2.114.753.716 2.078.716.43 0 .824-.107.43-.144 1.111-.645l1.11 2.329q-.93.61-1.683.824a4.9 4.9 0 0 1-1.54.251m6.3-.43v-25.081h2.866v9.782q.897-1.47 2.329-2.258 1.434-.788 3.333-.788 2.078 0 3.654.86 1.576.824 2.437 2.651.895 1.828.86 4.802v10.032h-2.867v-9.173q0-2.651-.645-4.048-.609-1.398-1.684-1.899-1.075-.538-2.436-.538-2.365 0-3.691 1.684-1.29 1.649-1.29 4.694v9.28zm33.482.43q-3.153 0-4.944-1.433-1.756-1.47-1.756-4.049 0-2.723 1.792-4.156 1.827-1.47 5.088-1.469h4.98q-.18-2.544-1.254-3.798-1.076-1.29-3.225-1.29-1.469 0-2.544.609-1.038.573-1.72 1.863l-2.579-1.003a8.3 8.3 0 0 1 1.648-2.15 6.3 6.3 0 0 1 2.257-1.397q1.29-.502 2.938-.502 2.508 0 4.121 1.003 1.647.968 2.472 2.902.824 1.9.788 4.73l-.036 9.71h-2.651l-.143-2.401a5.6 5.6 0 0 1-2.114 2.114q-1.326.717-3.118.717m.144-2.508q1.54 0 2.687-.645a4.5 4.5 0 0 0 1.756-1.899q.645-1.219.645-2.938v-.717h-4.408q-2.508 0-3.583.824-1.038.825-1.039 2.365 0 1.397 1.039 2.222 1.04.788 2.903.788m28.292 2.508q-2.651 0-4.694-1.182a8.57 8.57 0 0 1-3.189-3.333q-1.146-2.113-1.146-4.873 0-2.758 1.111-4.872a8.3 8.3 0 0 1 3.188-3.297q2.043-1.218 4.658-1.218 2.58 0 4.622 1.182 2.043 1.183 3.118 3.333l-2.616 1.182a5.2 5.2 0 0 0-2.078-2.222q-1.362-.824-3.117-.824-1.757 0-3.117.86-1.326.86-2.114 2.401-.753 1.505-.753 3.475t.753 3.512q.788 1.504 2.149 2.365 1.398.86 3.153.859 1.756 0 3.118-.895 1.397-.896 2.114-2.508l2.615 1.182q-1.075 2.293-3.117 3.583t-4.658 1.29m10.889-.43v-25.081h2.867v9.782q.895-1.47 2.329-2.258 1.433-.788 3.332-.788 2.078 0 3.654.86 1.577.824 2.437 2.651.896 1.828.86 4.802v10.032h-2.867v-9.173q0-2.651-.645-4.048-.609-1.398-1.684-1.899-1.074-.538-2.436-.538-2.365 0-3.691 1.684-1.289 1.649-1.289 4.694v9.28zm25.135.43q-3.153 0-4.944-1.433-1.756-1.47-1.756-4.049 0-2.723 1.792-4.156 1.827-1.47 5.088-1.469h4.98q-.18-2.544-1.254-3.798-1.076-1.29-3.225-1.29-1.469 0-2.544.609-1.038.573-1.72 1.863l-2.579-1.003a8.3 8.3 0 0 1 1.648-2.15 6.3 6.3 0 0 1 2.257-1.397q1.29-.502 2.938-.502 2.508 0 4.121 1.003 1.647.968 2.472 2.902.824 1.9.788 4.73l-.036 9.71h-2.651l-.143-2.401a5.6 5.6 0 0 1-2.114 2.114q-1.326.717-3.118.717m.144-2.508q1.54 0 2.687-.645a4.5 4.5 0 0 0 1.756-1.899q.645-1.219.645-2.938v-.717h-4.408q-2.508 0-3.583.824-1.039.825-1.039 2.365 0 1.397 1.039 2.222 1.04.788 2.903.788m18.691 2.508q-2.615 0-4.049-1.362-1.433-1.36-1.433-3.833v-10.606h-3.117v-2.544h3.117v-5.59h2.866v5.59h5.375v2.544h-5.375v10.319q0 1.362.717 2.114.752.716 2.078.716.43 0 .824-.107.43-.144 1.111-.645l1.111 2.329q-.933.61-1.684.824a4.9 4.9 0 0 1-1.541.251m15.221 0q-1.97 0-3.511-.932-1.54-.931-2.544-2.544l-.143 3.046h-2.723v-25.081h2.866v10.176q1.004-1.613 2.544-2.508 1.541-.932 3.511-.932 2.401 0 4.228 1.182 1.827 1.183 2.831 3.297 1.04 2.113 1.039 4.908 0 2.76-1.039 4.909-1.004 2.113-2.831 3.297-1.827 1.182-4.228 1.182m-.645-2.616q1.684 0 2.974-.86 1.326-.86 2.078-2.4.789-1.54.789-3.512 0-1.97-.753-3.511-.716-1.54-2.042-2.401t-3.01-.859q-1.576 0-2.83.859-1.218.86-1.935 2.401-.681 1.541-.681 3.511t.681 3.512q.717 1.54 1.935 2.4t2.794.86m20.131 2.616q-2.616 0-4.658-1.182a8.64 8.64 0 0 1-3.153-3.333q-1.147-2.113-1.147-4.873 0-2.758 1.111-4.872 1.146-2.115 3.153-3.297 2.042-1.218 4.622-1.218 2.651 0 4.658 1.218a8.05 8.05 0 0 1 3.153 3.297q1.147 2.113 1.147 4.872t-1.147 4.873a8.4 8.4 0 0 1-3.117 3.333q-2.007 1.182-4.622 1.182m0-2.652q1.791 0 3.117-.859 1.326-.86 2.078-2.365.789-1.505.788-3.512 0-2.006-.788-3.511-.752-1.504-2.114-2.365-1.36-.86-3.153-.86-1.755 0-3.117.86-1.325.86-2.114 2.365-.753 1.505-.752 3.511 0 1.971.752 3.512.788 1.504 2.15 2.365 1.397.86 3.153.859m19.096 2.652q-2.615 0-4.048-1.362-1.434-1.36-1.434-3.833v-10.606h-3.117v-2.544h3.117v-5.59h2.867v5.59h5.374v2.544h-5.374v10.319q0 1.362.716 2.114.753.716 2.078.716.43 0 .825-.107.429-.144 1.11-.645l1.111 2.329q-.931.61-1.684.824a4.9 4.9 0 0 1-1.541.251m-211.04 43q-2.65 0-4.694-1.182a8.56 8.56 0 0 1-3.188-3.333q-1.147-2.113-1.147-4.873 0-2.758 1.11-4.872a8.3 8.3 0 0 1 3.19-3.297q2.042-1.218 4.657-1.218 2.58 0 4.623 1.182 2.041 1.183 3.117 3.333l-2.616 1.182a5.2 5.2 0 0 0-2.078-2.222q-1.362-.824-3.117-.824-1.756 0-3.117.86-1.326.86-2.114 2.401-.753 1.505-.753 3.475t.753 3.512q.788 1.504 2.15 2.365 1.397.86 3.152.859 1.755 0 3.118-.895 1.397-.896 2.114-2.508l2.615 1.182q-1.074 2.293-3.117 3.583-2.042 1.29-4.658 1.29m18.808 0q-2.616 0-4.658-1.182a8.64 8.64 0 0 1-3.153-3.333q-1.147-2.113-1.147-4.873 0-2.758 1.11-4.872 1.147-2.115 3.154-3.297 2.042-1.218 4.622-1.218 2.651 0 4.658 1.218a8.06 8.06 0 0 1 3.153 3.297q1.147 2.113 1.147 4.872t-1.147 4.873a8.4 8.4 0 0 1-3.117 3.333q-2.007 1.182-4.622 1.182m0-2.652q1.791 0 3.117-.859 1.325-.86 2.078-2.365.788-1.505.788-3.512 0-2.006-.788-3.511-.752-1.504-2.114-2.365-1.362-.86-3.153-.86-1.756 0-3.117.86-1.326.86-2.114 2.365-.753 1.505-.753 3.511 0 1.971.753 3.512.788 1.504 2.15 2.365 1.396.86 3.153.859m18.63 2.652q-1.97 0-3.44-.573-1.468-.61-2.472-1.577-.966-.967-1.397-2.114l2.508-1.039q.609 1.218 1.828 1.971a5 5 0 0 0 2.687.752q1.683 0 2.83-.645 1.147-.681 1.147-1.899 0-1.11-.86-1.791-.825-.68-2.472-1.111l-1.72-.466q-2.436-.645-3.798-1.935-1.362-1.325-1.362-2.974 0-2.543 1.648-3.941 1.685-1.433 4.98-1.433 1.578 0 2.867.466 1.29.465 2.222 1.325a4.9 4.9 0 0 1 1.361 1.971l-2.508 1.111q-.465-1.219-1.54-1.756-1.076-.537-2.616-.537-1.648 0-2.58.716-.93.681-.931 1.935 0 .717.752 1.362.788.609 2.293 1.003l1.792.466q1.756.429 2.938 1.29 1.182.823 1.791 1.899.61 1.075.61 2.293 0 1.612-.86 2.794-.86 1.183-2.33 1.828-1.469.609-3.368.609m16.651 0q-2.615 0-4.049-1.362-1.433-1.36-1.433-3.833v-10.606h-3.117v-2.544h3.117v-5.59h2.867v5.59h5.374v2.544H107.1v10.319q0 1.362.716 2.114.752.716 2.078.716.43 0 .824-.107.43-.144 1.111-.645l1.111 2.329q-.932.61-1.684.824a4.9 4.9 0 0 1-1.541.251m12.57 0q-1.97 0-3.439-.573-1.47-.61-2.473-1.577-.967-.967-1.397-2.114l2.508-1.039q.609 1.218 1.827 1.971a5 5 0 0 0 2.688.752q1.683 0 2.83-.645 1.147-.681 1.147-1.899 0-1.11-.86-1.791-.825-.68-2.472-1.111l-1.72-.466q-2.437-.645-3.798-1.935-1.362-1.325-1.362-2.974 0-2.543 1.648-3.941 1.684-1.433 4.981-1.433 1.576 0 2.866.466 1.29.465 2.222 1.325a4.9 4.9 0 0 1 1.361 1.971l-2.508 1.111q-.466-1.219-1.541-1.756t-2.615-.537q-1.648 0-2.58.716-.932.681-.932 1.935 0 .717.753 1.362.788.609 2.293 1.003l1.791.466q1.756.429 2.938 1.29 1.183.823 1.792 1.899.609 1.075.609 2.293 0 1.612-.86 2.794-.86 1.183-2.329 1.828-1.469.609-3.368.609m18.262-.43v-25.081h2.867v9.782q.895-1.47 2.328-2.258 1.434-.788 3.333-.788 2.077 0 3.654.86 1.576.824 2.437 2.651.896 1.828.86 4.802v10.032h-2.867v-9.173q0-2.651-.645-4.048-.609-1.398-1.684-1.899-1.074-.538-2.436-.538-2.365 0-3.691 1.684-1.29 1.649-1.289 4.694v9.28zm25.135.43q-3.153 0-4.944-1.433-1.756-1.47-1.756-4.049 0-2.723 1.792-4.156 1.827-1.47 5.087-1.469h4.981q-.18-2.544-1.254-3.798-1.076-1.29-3.225-1.29-1.469 0-2.544.609-1.04.573-1.72 1.863l-2.579-1.003a8.3 8.3 0 0 1 1.648-2.15 6.3 6.3 0 0 1 2.257-1.397q1.29-.502 2.938-.502 2.508 0 4.121 1.003 1.647.968 2.472 2.902.824 1.9.788 4.73l-.036 9.71h-2.651l-.144-2.401a5.6 5.6 0 0 1-2.113 2.114q-1.326.717-3.118.717m.144-2.508q1.54 0 2.687-.645a4.5 4.5 0 0 0 1.756-1.899q.644-1.219.644-2.938v-.717h-4.407q-2.508 0-3.583.824-1.039.825-1.039 2.365 0 1.397 1.039 2.222 1.04.788 2.903.788m11.955 2.078v-25.081h2.866v25.081zm9.159 0v-15.443h-3.297v-2.472h3.297v-2.042q0-2.796 1.29-4.192 1.325-1.434 4.012-1.434.717 0 1.613.251.895.25 1.899.717l-1.075 2.257a22 22 0 0 0-1.397-.502q-.574-.179-.968-.179-1.254 0-1.899.824-.609.789-.609 2.473v1.827H195v2.472h-5.195v15.443zm24.937.43q-3.153 0-4.944-1.433-1.756-1.47-1.756-4.049 0-2.723 1.792-4.156 1.827-1.47 5.088-1.469h4.98q-.18-2.544-1.254-3.798-1.076-1.29-3.225-1.29-1.469 0-2.544.609-1.039.573-1.72 1.863l-2.579-1.003a8.3 8.3 0 0 1 1.648-2.15 6.3 6.3 0 0 1 2.257-1.397q1.29-.502 2.938-.502 2.508 0 4.121 1.003 1.648.968 2.472 2.902.824 1.9.788 4.73l-.036 9.71h-2.651l-.143-2.401a5.6 5.6 0 0 1-2.114 2.114q-1.326.717-3.118.717m.144-2.508q1.54 0 2.687-.645a4.5 4.5 0 0 0 1.756-1.899q.645-1.219.645-2.938v-.717H212.7q-2.508 0-3.583.824-1.038.825-1.039 2.365 0 1.397 1.039 2.222 1.04.788 2.903.788m20.302 2.078v-25.081h2.866v25.081zm7.547 0v-17.915h2.866v17.915zm1.469-22.071q-.717 0-1.254-.538-.538-.537-.538-1.254 0-.751.538-1.254.537-.537 1.254-.537.752 0 1.254.537.537.502.537 1.254 0 .717-.537 1.254a1.64 1.64 0 0 1-1.254.538m12.91 22.501q-2.616 0-4.049-1.362-1.433-1.36-1.433-3.833v-10.606h-3.117v-2.544h3.117v-5.59h2.866v5.59h5.375v2.544h-5.375v10.319q0 1.362.717 2.114.752.716 2.078.716.43 0 .824-.107.43-.144 1.111-.645l1.11 2.329q-.931.61-1.684.824a4.8 4.8 0 0 1-1.54.251m14.041 0q-2.615 0-4.622-1.182a8.65 8.65 0 0 1-3.153-3.333q-1.11-2.113-1.11-4.873 0-2.758 1.11-4.872 1.147-2.115 3.117-3.297 2.007-1.218 4.587-1.218 2.508 0 4.335 1.254 1.827 1.218 2.831 3.44 1.003 2.221 1.003 5.231h-14.081q.179 2.938 1.863 4.586t4.264 1.648q1.899 0 3.189-.895a5.96 5.96 0 0 0 2.042-2.365l2.472 1.254a8 8 0 0 1-1.827 2.436q-1.11 1.039-2.652 1.613-1.504.573-3.368.573m-5.768-11.251h10.785q-.108-1.54-.824-2.651a4.76 4.76 0 0 0-1.792-1.72q-1.11-.609-2.508-.609-1.362 0-2.616.609a5.17 5.17 0 0 0-2.078 1.72q-.824 1.11-.967 2.651m16.976 10.821v-17.915h2.866v3.189q1.075-1.685 2.759-2.472a8.5 8.5 0 0 1 3.583-.789v2.688a8.8 8.8 0 0 0-3.045.537 5.1 5.1 0 0 0-2.365 1.684q-.932 1.182-.932 3.225v9.853zm-223.944 43.43q-2.615 0-4.657-1.182a8.64 8.64 0 0 1-3.154-3.333q-1.146-2.113-1.146-4.873 0-2.758 1.11-4.872 1.147-2.115 3.154-3.297 2.042-1.218 4.622-1.218 2.65 0 4.658 1.218a8.06 8.06 0 0 1 3.153 3.297q1.146 2.113 1.146 4.872t-1.146 4.873a8.4 8.4 0 0 1-3.117 3.333q-2.007 1.182-4.623 1.182m0-2.652q1.792 0 3.118-.859 1.325-.86 2.078-2.365.788-1.505.788-3.512 0-2.006-.788-3.511-.753-1.504-2.114-2.365-1.362-.86-3.153-.86-1.756 0-3.117.86-1.326.86-2.114 2.365-.753 1.505-.753 3.511 0 1.971.753 3.512.788 1.504 2.15 2.365 1.397.86 3.152.859m14.152 2.222v-15.443H66.41v-2.472h3.296v-2.042q0-2.796 1.29-4.192 1.326-1.434 4.013-1.434.716 0 1.613.251.895.25 1.899.717l-1.075 2.257a22 22 0 0 0-1.398-.502q-.573-.179-.967-.179-1.254 0-1.9.824-.608.789-.608 2.473v1.827h5.195v2.472h-5.195v15.443zm21.069 0v-15.443h-3.297v-2.472h3.296v-2.042q0-2.796 1.29-4.192 1.326-1.434 4.013-1.434.717 0 1.613.251.895.25 1.899.717l-1.075 2.257a22 22 0 0 0-1.398-.502q-.573-.179-.967-.179-1.254 0-1.899.824-.61.789-.61 2.473v1.827h5.196v2.472H93.64v15.443zm10.929 0v-17.915h2.866v3.189q1.076-1.685 2.759-2.472a8.5 8.5 0 0 1 3.583-.789v2.688a8.8 8.8 0 0 0-3.045.537 5.1 5.1 0 0 0-2.365 1.684q-.932 1.182-.932 3.225v9.853zm19.448.43q-2.615 0-4.622-1.182a8.64 8.64 0 0 1-3.153-3.333q-1.111-2.113-1.111-4.873 0-2.758 1.111-4.872 1.146-2.115 3.117-3.297 2.006-1.218 4.586-1.218 2.508 0 4.336 1.254 1.827 1.218 2.83 3.44t1.004 5.231h-14.082q.18 2.938 1.864 4.586 1.683 1.648 4.263 1.648 1.899 0 3.189-.895a5.95 5.95 0 0 0 2.042-2.365l2.473 1.254a8 8 0 0 1-1.828 2.436q-1.11 1.039-2.651 1.613-1.505.573-3.368.573m-5.769-11.251h10.785q-.107-1.54-.824-2.651a4.76 4.76 0 0 0-1.791-1.72q-1.111-.609-2.509-.609-1.36 0-2.615.609a5.16 5.16 0 0 0-2.078 1.72q-.825 1.11-.968 2.651m23.247 11.251q-1.971 0-3.44-.573-1.469-.61-2.472-1.577-.968-.967-1.398-2.114l2.508-1.039q.61 1.218 1.828 1.971a5 5 0 0 0 2.687.752q1.684 0 2.831-.645 1.146-.681 1.146-1.899 0-1.11-.86-1.791-.823-.68-2.472-1.111l-1.72-.466q-2.436-.645-3.798-1.935-1.361-1.325-1.361-2.974 0-2.543 1.648-3.941 1.684-1.433 4.98-1.433 1.577 0 2.867.466 1.289.465 2.221 1.325a4.9 4.9 0 0 1 1.362 1.971l-2.509 1.111q-.465-1.219-1.54-1.756t-2.616-.537q-1.648 0-2.58.716-.931.681-.931 1.935 0 .717.752 1.362.789.609 2.293 1.003l1.792.466q1.755.429 2.938 1.29 1.182.823 1.791 1.899.61 1.075.61 2.293 0 1.612-.86 2.794-.86 1.183-2.329 1.828-1.47.609-3.368.609m9.914-.43v-25.081h2.867v9.782q.895-1.47 2.329-2.258 1.433-.788 3.332-.788 2.078 0 3.655.86 1.577.824 2.436 2.651.896 1.828.86 4.802v10.032h-2.866v-9.173q0-2.651-.645-4.048-.61-1.398-1.684-1.899-1.075-.538-2.437-.538-2.365 0-3.69 1.684-1.29 1.649-1.29 4.694v9.28zm31.763 0-6.091-17.915h2.902l4.658 13.902 4.729-13.902h2.867l4.658 13.794 4.658-13.794h2.902l-6.091 17.915h-2.867l-4.693-14.01-4.73 14.01zm28.892.43q-3.154 0-4.945-1.433-1.755-1.47-1.756-4.049 0-2.723 1.792-4.156 1.827-1.47 5.088-1.469h4.98q-.179-2.544-1.254-3.798-1.074-1.29-3.225-1.29-1.469 0-2.544.609-1.039.573-1.719 1.863l-2.58-1.003a8.3 8.3 0 0 1 1.648-2.15 6.3 6.3 0 0 1 2.257-1.397q1.29-.502 2.938-.502 2.508 0 4.121 1.003 1.648.968 2.472 2.902.825 1.9.788 4.73l-.035 9.71h-2.652l-.143-2.401a5.6 5.6 0 0 1-2.114 2.114q-1.326.717-3.117.717m.143-2.508q1.54 0 2.687-.645a4.5 4.5 0 0 0 1.756-1.899q.645-1.219.645-2.938v-.717h-4.407q-2.508 0-3.583.824-1.04.825-1.039 2.365 0 1.397 1.039 2.222 1.039.788 2.902.788m18.691 2.508q-2.616 0-4.049-1.362-1.433-1.36-1.433-3.833v-10.606h-3.117v-2.544h3.117v-5.59h2.867v5.59h5.374v2.544h-5.374v10.319q0 1.362.716 2.114.752.716 2.078.716.43 0 .824-.107.43-.144 1.111-.645l1.111 2.329q-.932.61-1.684.824a4.9 4.9 0 0 1-1.541.251m14.042 0q-2.616 0-4.622-1.182a8.64 8.64 0 0 1-3.153-3.333q-1.111-2.113-1.111-4.873 0-2.758 1.111-4.872 1.146-2.115 3.117-3.297 2.006-1.218 4.586-1.218 2.508 0 4.335 1.254 1.828 1.218 2.831 3.44t1.003 5.231H236.09q.18 2.938 1.863 4.586t4.264 1.648q1.899 0 3.189-.895a5.95 5.95 0 0 0 2.042-2.365l2.472 1.254a7.9 7.9 0 0 1-1.827 2.436q-1.11 1.039-2.651 1.613-1.505.573-3.368.573m-5.769-11.251h10.785q-.108-1.54-.824-2.651a4.75 4.75 0 0 0-1.792-1.72q-1.11-.609-2.508-.609-1.36 0-2.615.609a5.2 5.2 0 0 0-2.079 1.72q-.823 1.11-.967 2.651m16.976 10.821v-17.915h2.867v3.189q1.075-1.685 2.758-2.472a8.5 8.5 0 0 1 3.583-.789v2.688a8.8 8.8 0 0 0-3.045.537 5.1 5.1 0 0 0-2.365 1.684q-.931 1.182-.931 3.225v9.853zm12.82.502q-.825 0-1.434-.574-.573-.61-.573-1.397 0-.824.573-1.397.609-.61 1.434-.61.824 0 1.397.61.573.573.573 1.397 0 .788-.573 1.397a1.9 1.9 0 0 1-1.397.574"/></svg>