<svg width="424" height="261" viewBox="0 0 424 261" fill="none" xmlns="http://www.w3.org/2000/svg">
<rect x="1.41022" y="1.41022" width="420.247" height="257.851" rx="6.92902" stroke="#88F154" stroke-width="2.82045"/>
<path d="M55.1089 62.4258C53.3332 62.4258 51.7567 62.0442 50.3793 61.2808C49.0185 60.5008 47.9481 59.4387 47.1681 58.0945C46.3882 56.7337 45.9982 55.1738 45.9982 53.4147C45.9982 51.6556 46.3882 50.104 47.1681 48.7598C47.9481 47.399 49.0185 46.3369 50.3793 45.5735C51.7567 44.7936 53.3332 44.4036 55.1089 44.4036C56.171 44.4036 57.1501 44.5612 58.0462 44.8765C58.9424 45.1918 59.7306 45.6316 60.411 46.1958C61.108 46.7435 61.6889 47.3741 62.1535 48.0877L59.3655 49.8302C59.0834 49.3821 58.71 48.9838 58.2454 48.6353C57.7973 48.2868 57.2995 48.013 56.7518 47.8139C56.2042 47.6147 55.6565 47.5152 55.1089 47.5152C54.0136 47.5152 53.0428 47.7724 52.1965 48.2868C51.3501 48.7847 50.6863 49.4734 50.2051 50.3529C49.7238 51.2325 49.4832 52.2531 49.4832 53.4147C49.4832 54.5598 49.7155 55.5804 50.1802 56.4765C50.6614 57.3726 51.3335 58.0779 52.1965 58.5924C53.0594 59.0902 54.0551 59.3392 55.1836 59.3392C56.0299 59.3392 56.785 59.1815 57.4488 58.8662C58.1126 58.5343 58.6437 58.0779 59.0419 57.4971C59.4402 56.9163 59.6643 56.2359 59.714 55.4559H55.6814V52.7924H62.9999V54.9083C62.9667 56.5014 62.6099 57.8622 61.9295 58.9907C61.2491 60.1025 60.3198 60.9572 59.1415 61.5546C57.9633 62.1354 56.6191 62.4258 55.1089 62.4258ZM69.7887 62.4258C68.5606 62.4258 67.4737 62.152 66.5277 61.6044C65.5818 61.0402 64.835 60.2685 64.2874 59.2894C63.7564 58.3103 63.4908 57.1818 63.4908 55.904C63.4908 54.6262 63.7647 53.4977 64.3123 52.5186C64.8765 51.5395 65.6399 50.7761 66.6024 50.2285C67.5815 49.6642 68.7017 49.3821 69.9629 49.3821C71.0582 49.3821 72.0622 49.6725 72.9749 50.2533C73.9043 50.8176 74.6427 51.6556 75.1904 52.7675C75.7546 53.8628 76.0367 55.1987 76.0367 56.7752H66.926C67.009 57.605 67.3658 58.2688 67.9964 58.7666C68.627 59.2479 69.3406 59.4885 70.1372 59.4885C70.8176 59.4885 71.3735 59.3475 71.805 59.0653C72.2364 58.7666 72.5683 58.3849 72.8007 57.9203L75.738 59.0653C75.3895 59.7623 74.9331 60.3681 74.3689 60.8825C73.8213 61.3804 73.1658 61.762 72.4024 62.0276C71.639 62.2931 70.7678 62.4258 69.7887 62.4258ZM67.1003 54.3357H72.4771C72.4273 53.8213 72.2613 53.4064 71.9792 53.0911C71.6971 52.7758 71.3652 52.5435 70.9835 52.3941C70.6018 52.2448 70.2284 52.1701 69.8633 52.1701C69.5149 52.1701 69.1332 52.2448 68.7183 52.3941C68.32 52.5269 67.9632 52.7509 67.6479 53.0662C67.3492 53.3815 67.1666 53.8047 67.1003 54.3357ZM77.0641 62.1271V49.6808H80.1507L80.3001 51.3735C80.6984 50.7263 81.2045 50.2368 81.8185 49.9049C82.4492 49.5564 83.1627 49.3821 83.9593 49.3821C84.9384 49.3821 85.7765 49.5812 86.4735 49.9795C87.1705 50.3778 87.7015 51.0001 88.0666 51.8465C88.4317 52.6762 88.6059 53.7549 88.5893 55.0825V62.1271H85.3035V55.7546C85.3035 54.9083 85.2039 54.2528 85.0048 53.7881C84.8223 53.3234 84.5567 52.9915 84.2082 52.7924C83.8597 52.5767 83.4532 52.4688 82.9885 52.4688C82.1421 52.4522 81.4866 52.7094 81.022 53.2405C80.5739 53.7715 80.3499 54.5598 80.3499 55.6053V62.1271H77.0641ZM95.9555 62.4258C94.7275 62.4258 93.6405 62.152 92.6946 61.6044C91.7487 61.0402 91.0019 60.2685 90.4543 59.2894C89.9232 58.3103 89.6577 57.1818 89.6577 55.904C89.6577 54.6262 89.9315 53.4977 90.4792 52.5186C91.0434 51.5395 91.8068 50.7761 92.7693 50.2285C93.7484 49.6642 94.8686 49.3821 96.1298 49.3821C97.2251 49.3821 98.2291 49.6725 99.1418 50.2533C100.071 50.8176 100.81 51.6556 101.357 52.7675C101.921 53.8628 102.204 55.1987 102.204 56.7752H93.0929C93.1759 57.605 93.5327 58.2688 94.1633 58.7666C94.7939 59.2479 95.5075 59.4885 96.304 59.4885C96.9844 59.4885 97.5404 59.3475 97.9718 59.0653C98.4033 58.7666 98.7352 58.3849 98.9675 57.9203L101.905 59.0653C101.556 59.7623 101.1 60.3681 100.536 60.8825C99.9881 61.3804 99.3326 61.762 98.5693 62.0276C97.8059 62.2931 96.9346 62.4258 95.9555 62.4258ZM93.2671 54.3357H98.6439C98.5942 53.8213 98.4282 53.4064 98.1461 53.0911C97.864 52.7758 97.5321 52.5435 97.1504 52.3941C96.7687 52.2448 96.3953 52.1701 96.0302 52.1701C95.6817 52.1701 95.3 52.2448 94.8852 52.3941C94.4869 52.5269 94.1301 52.7509 93.8148 53.0662C93.5161 53.3815 93.3335 53.8047 93.2671 54.3357ZM103.231 62.1271V49.6808H106.517V51.9709C107.031 51.191 107.678 50.6101 108.458 50.2285C109.255 49.8302 110.076 49.631 110.923 49.631V52.8173C110.159 52.8173 109.437 52.9086 108.757 53.0911C108.093 53.2737 107.554 53.5724 107.139 53.9872C106.724 54.4021 106.517 54.9332 106.517 55.5804V62.1271H103.231ZM115.813 62.4258C114.32 62.4258 113.158 62.0939 112.328 61.4301C111.515 60.7663 111.109 59.8287 111.109 58.6173C111.109 57.2897 111.548 56.294 112.428 55.6302C113.324 54.9498 114.577 54.6096 116.187 54.6096H119.124C119.008 53.8462 118.767 53.2654 118.402 52.8671C118.037 52.4522 117.514 52.2448 116.834 52.2448C116.303 52.2448 115.822 52.3609 115.39 52.5933C114.959 52.8256 114.594 53.1824 114.295 53.6636L111.407 52.6679C111.64 52.1369 111.98 51.6224 112.428 51.1246C112.876 50.6101 113.457 50.1953 114.17 49.88C114.901 49.5481 115.788 49.3821 116.834 49.3821C118.095 49.3821 119.141 49.6227 119.97 50.104C120.817 50.5853 121.439 51.2656 121.837 52.1452C122.252 53.0081 122.451 54.037 122.435 55.2319L122.36 62.1271H119.298L119.248 60.6834C118.933 61.2476 118.485 61.6791 117.904 61.9778C117.34 62.2765 116.643 62.4258 115.813 62.4258ZM116.361 59.6877C116.892 59.6877 117.373 59.5632 117.805 59.3143C118.236 59.0653 118.576 58.7417 118.825 58.3435C119.074 57.9452 119.199 57.5303 119.199 57.0988V57.049H117.332C116.253 57.049 115.506 57.1818 115.091 57.4473C114.677 57.6962 114.469 58.053 114.469 58.5177C114.469 58.8828 114.635 59.1732 114.967 59.3889C115.299 59.5881 115.764 59.6877 116.361 59.6877ZM129.299 62.4258C127.922 62.4258 126.876 62.0856 126.163 61.4052C125.466 60.7249 125.117 59.754 125.117 58.4928V52.4688H123.101V49.6808H125.117V45.7976H128.403V49.6808H131.515V52.4688H128.403V57.7709C128.403 58.302 128.519 58.7085 128.752 58.9907C128.984 59.2562 129.324 59.3889 129.772 59.3889C129.938 59.3889 130.121 59.3558 130.32 59.2894C130.519 59.2064 130.726 59.0902 130.942 58.9409L132.087 61.4052C131.689 61.704 131.241 61.9446 130.743 62.1271C130.262 62.3263 129.78 62.4258 129.299 62.4258ZM138.711 62.4258C137.483 62.4258 136.396 62.152 135.451 61.6044C134.505 61.0402 133.758 60.2685 133.21 59.2894C132.679 58.3103 132.414 57.1818 132.414 55.904C132.414 54.6262 132.687 53.4977 133.235 52.5186C133.799 51.5395 134.563 50.7761 135.525 50.2285C136.504 49.6642 137.624 49.3821 138.886 49.3821C139.981 49.3821 140.985 49.6725 141.898 50.2533C142.827 50.8176 143.566 51.6556 144.113 52.7675C144.677 53.8628 144.959 55.1987 144.959 56.7752H135.849C135.932 57.605 136.289 58.2688 136.919 58.7666C137.55 59.2479 138.263 59.4885 139.06 59.4885C139.74 59.4885 140.296 59.3475 140.728 59.0653C141.159 58.7666 141.491 58.3849 141.723 57.9203L144.661 59.0653C144.312 59.7623 143.856 60.3681 143.292 60.8825C142.744 61.3804 142.089 61.762 141.325 62.0276C140.562 62.2931 139.691 62.4258 138.711 62.4258ZM136.023 54.3357H141.4C141.35 53.8213 141.184 53.4064 140.902 53.0911C140.62 52.7758 140.288 52.5435 139.906 52.3941C139.525 52.2448 139.151 52.1701 138.786 52.1701C138.438 52.1701 138.056 52.2448 137.641 52.3941C137.243 52.5269 136.886 52.7509 136.571 53.0662C136.272 53.3815 136.089 53.8047 136.023 54.3357ZM155.069 62.4258C153.575 62.4258 152.413 62.0939 151.584 61.4301C150.771 60.7663 150.364 59.8287 150.364 58.6173C150.364 57.2897 150.804 56.294 151.683 55.6302C152.579 54.9498 153.832 54.6096 155.442 54.6096H158.379C158.263 53.8462 158.023 53.2654 157.658 52.8671C157.292 52.4522 156.77 52.2448 156.089 52.2448C155.558 52.2448 155.077 52.3609 154.645 52.5933C154.214 52.8256 153.849 53.1824 153.55 53.6636L150.663 52.6679C150.895 52.1369 151.235 51.6224 151.683 51.1246C152.131 50.6101 152.712 50.1953 153.426 49.88C154.156 49.5481 155.044 49.3821 156.089 49.3821C157.35 49.3821 158.396 49.6227 159.226 50.104C160.072 50.5853 160.694 51.2656 161.093 52.1452C161.508 53.0081 161.707 54.037 161.69 55.2319L161.615 62.1271H158.554L158.504 60.6834C158.189 61.2476 157.74 61.6791 157.16 61.9778C156.595 62.2765 155.898 62.4258 155.069 62.4258ZM155.616 59.6877C156.147 59.6877 156.629 59.5632 157.06 59.3143C157.492 59.0653 157.832 58.7417 158.081 58.3435C158.33 57.9452 158.454 57.5303 158.454 57.0988V57.049H156.587C155.508 57.049 154.762 57.1818 154.347 57.4473C153.932 57.6962 153.724 58.053 153.724 58.5177C153.724 58.8828 153.89 59.1732 154.222 59.3889C154.554 59.5881 155.019 59.6877 155.616 59.6877ZM163.427 62.1271V49.6808H166.513L166.663 51.3735C167.061 50.7263 167.567 50.2368 168.181 49.9049C168.812 49.5564 169.525 49.3821 170.322 49.3821C171.301 49.3821 172.139 49.5812 172.836 49.9795C173.533 50.3778 174.064 51.0001 174.429 51.8465C174.794 52.6762 174.969 53.7549 174.952 55.0825V62.1271H171.666V55.7546C171.666 54.9083 171.567 54.2528 171.367 53.7881C171.185 53.3234 170.919 52.9915 170.571 52.7924C170.222 52.5767 169.816 52.4688 169.351 52.4688C168.505 52.4522 167.849 52.7094 167.385 53.2405C166.937 53.7715 166.713 54.5598 166.713 55.6053V62.1271H163.427ZM181.941 62.1271V49.6808H185.227V62.1271H181.941ZM183.584 47.6645C183.086 47.6645 182.646 47.482 182.264 47.1169C181.883 46.7352 181.692 46.2871 181.692 45.7727C181.692 45.2582 181.883 44.8185 182.264 44.4534C182.646 44.0717 183.086 43.8808 183.584 43.8808C184.098 43.8808 184.538 44.0717 184.903 44.4534C185.285 44.8185 185.476 45.2582 185.476 45.7727C185.476 46.2871 185.285 46.7352 184.903 47.1169C184.538 47.482 184.098 47.6645 183.584 47.6645ZM187.374 62.1271V49.6808H190.461L190.61 51.2988C190.992 50.6682 191.482 50.1953 192.079 49.88C192.676 49.5481 193.34 49.3821 194.07 49.3821C195.083 49.3821 195.929 49.5978 196.61 50.0293C197.307 50.4608 197.813 51.1246 198.128 52.0207C198.493 51.1744 199.007 50.5272 199.671 50.0791C200.335 49.6144 201.107 49.3821 201.986 49.3821C203.447 49.3821 204.559 49.8468 205.322 50.7761C206.085 51.6888 206.467 53.0994 206.467 55.0078V62.1271H203.181V55.7546C203.181 54.9083 203.09 54.2528 202.907 53.7881C202.725 53.3234 202.476 52.9915 202.161 52.7924C201.845 52.5767 201.472 52.4688 201.04 52.4688C200.244 52.4522 199.63 52.7094 199.198 53.2405C198.767 53.7715 198.551 54.5598 198.551 55.6053V62.1271H195.265V55.7546C195.265 54.9083 195.174 54.2528 194.991 53.7881C194.826 53.3234 194.577 52.9915 194.245 52.7924C193.929 52.5767 193.556 52.4688 193.125 52.4688C192.328 52.4522 191.714 52.7094 191.282 53.2405C190.868 53.7715 190.66 54.5598 190.66 55.6053V62.1271H187.374ZM212.233 62.4258C210.739 62.4258 209.578 62.0939 208.748 61.4301C207.935 60.7663 207.528 59.8287 207.528 58.6173C207.528 57.2897 207.968 56.294 208.847 55.6302C209.744 54.9498 210.997 54.6096 212.606 54.6096H215.544C215.427 53.8462 215.187 53.2654 214.822 52.8671C214.457 52.4522 213.934 52.2448 213.253 52.2448C212.722 52.2448 212.241 52.3609 211.81 52.5933C211.378 52.8256 211.013 53.1824 210.714 53.6636L207.827 52.6679C208.059 52.1369 208.399 51.6224 208.847 51.1246C209.296 50.6101 209.876 50.1953 210.59 49.88C211.32 49.5481 212.208 49.3821 213.253 49.3821C214.515 49.3821 215.56 49.6227 216.39 50.104C217.236 50.5853 217.859 51.2656 218.257 52.1452C218.672 53.0081 218.871 54.037 218.854 55.2319L218.78 62.1271H215.718L215.668 60.6834C215.353 61.2476 214.905 61.6791 214.324 61.9778C213.76 62.2765 213.063 62.4258 212.233 62.4258ZM212.78 59.6877C213.312 59.6877 213.793 59.5632 214.224 59.3143C214.656 59.0653 214.996 58.7417 215.245 58.3435C215.494 57.9452 215.618 57.5303 215.618 57.0988V57.049H213.751C212.673 57.049 211.926 57.1818 211.511 57.4473C211.096 57.6962 210.889 58.053 210.889 58.5177C210.889 58.8828 211.055 59.1732 211.387 59.3889C211.718 59.5881 212.183 59.6877 212.78 59.6877ZM226.192 67.4293C225.246 67.4293 224.408 67.3629 223.678 67.2301C222.947 67.0974 222.333 66.9231 221.836 66.7074C221.338 66.4916 220.931 66.2759 220.616 66.0602L221.91 63.4216C222.143 63.5543 222.45 63.7037 222.831 63.8696C223.213 64.0522 223.669 64.2015 224.2 64.3177C224.731 64.4504 225.345 64.5168 226.042 64.5168C226.706 64.5168 227.287 64.3841 227.785 64.1185C228.299 63.8696 228.698 63.4713 228.98 62.9237C229.278 62.3927 229.428 61.7123 229.428 60.8825V59.6877C229.013 60.3349 228.474 60.8493 227.81 61.231C227.146 61.5961 226.391 61.7786 225.545 61.7786C224.399 61.7786 223.404 61.5297 222.557 61.0319C221.728 60.534 221.08 59.837 220.616 58.9409C220.151 58.0447 219.919 56.9827 219.919 55.7546C219.919 54.4602 220.151 53.34 220.616 52.3941C221.08 51.4316 221.728 50.6931 222.557 50.1787C223.404 49.6476 224.399 49.3821 225.545 49.3821C226.391 49.3821 227.146 49.5812 227.81 49.9795C228.474 50.3612 229.013 50.9089 229.428 51.6224V49.6808H232.714V60.7829C232.714 62.1769 232.448 63.3718 231.917 64.3675C231.386 65.3798 230.631 66.1431 229.652 66.6576C228.689 67.172 227.536 67.4293 226.192 67.4293ZM226.49 59.0156C227.055 59.0156 227.544 58.8745 227.959 58.5924C228.391 58.2937 228.722 57.8954 228.955 57.3975C229.187 56.8831 229.303 56.3023 229.303 55.6551C229.303 54.9912 229.179 54.4104 228.93 53.9126C228.698 53.4147 228.366 53.0247 227.934 52.7426C227.519 52.4605 227.03 52.3194 226.466 52.3194C225.885 52.3194 225.37 52.4605 224.922 52.7426C224.474 53.0247 224.126 53.4147 223.877 53.9126C223.628 54.4104 223.495 54.9912 223.478 55.6551C223.495 56.3023 223.628 56.8831 223.877 57.3975C224.126 57.8954 224.474 58.2937 224.922 58.5924C225.387 58.8745 225.91 59.0156 226.49 59.0156ZM240.285 62.4258C239.057 62.4258 237.97 62.152 237.024 61.6044C236.078 61.0402 235.331 60.2685 234.783 59.2894C234.252 58.3103 233.987 57.1818 233.987 55.904C233.987 54.6262 234.261 53.4977 234.808 52.5186C235.372 51.5395 236.136 50.7761 237.098 50.2285C238.077 49.6642 239.198 49.3821 240.459 49.3821C241.554 49.3821 242.558 49.6725 243.471 50.2533C244.4 50.8176 245.139 51.6556 245.686 52.7675C246.25 53.8628 246.533 55.1987 246.533 56.7752H237.422C237.505 57.605 237.862 58.2688 238.492 58.7666C239.123 59.2479 239.836 59.4885 240.633 59.4885C241.313 59.4885 241.869 59.3475 242.301 59.0653C242.732 58.7666 243.064 58.3849 243.297 57.9203L246.234 59.0653C245.885 59.7623 245.429 60.3681 244.865 60.8825C244.317 61.3804 243.662 61.762 242.898 62.0276C242.135 62.2931 241.264 62.4258 240.285 62.4258ZM237.596 54.3357H242.973C242.923 53.8213 242.757 53.4064 242.475 53.0911C242.193 52.7758 241.861 52.5435 241.479 52.3941C241.098 52.2448 240.724 52.1701 240.359 52.1701C240.011 52.1701 239.629 52.2448 239.214 52.3941C238.816 52.5269 238.459 52.7509 238.144 53.0662C237.845 53.3815 237.663 53.8047 237.596 54.3357Z" fill="#88F154"/>
<path d="M111.156 95.3576C113.485 95.0896 115.589 96.7597 115.858 99.0883L122.452 156.355C122.72 158.684 121.05 160.789 118.722 161.057L61.4546 167.652C59.126 167.92 57.0211 166.25 56.7527 163.921L50.1581 106.654C49.89 104.325 51.5601 102.22 53.8888 101.952L111.156 95.3576Z" stroke="#88F154" stroke-width="4.37169" stroke-linecap="round" stroke-linejoin="round"/>
<path d="M57.1913 148.672L79.8747 135.698L119.333 148.424" stroke="#88F154" stroke-width="4.37169" stroke-linecap="round" stroke-linejoin="round"/>
<path d="M99.1493 123.118C95.384 123.552 91.9804 120.851 91.5468 117.086C91.1132 113.321 93.8139 109.917 97.5792 109.484C101.344 109.05 104.748 111.751 105.182 115.516C105.615 119.281 102.915 122.685 99.1493 123.118Z" stroke="#88F154" stroke-width="4.37169" stroke-linecap="round" stroke-linejoin="round"/>
<path d="M54.4612 215.544V211.978C54.4612 211.295 54.6731 210.541 55.0969 209.717C55.5207 208.893 56.1093 208.069 56.8627 207.245C57.6162 206.421 58.4991 205.656 59.5115 204.949L63.2551 202.265C63.773 201.912 64.2557 201.512 64.703 201.065C65.1739 200.617 65.5506 200.135 65.8332 199.617C66.1393 199.075 66.2923 198.557 66.2923 198.063C66.2923 197.451 66.1393 196.897 65.8332 196.403C65.5506 195.908 65.1268 195.52 64.5618 195.237C63.9967 194.955 63.3021 194.814 62.4781 194.814C61.7718 194.814 61.1361 194.955 60.571 195.237C60.0295 195.52 59.5821 195.897 59.229 196.368C58.8758 196.838 58.6286 197.345 58.4873 197.886L53.5076 197.039C53.7431 195.861 54.2493 194.767 55.0263 193.754C55.8032 192.742 56.8156 191.929 58.0635 191.317C59.3349 190.682 60.7711 190.364 62.3721 190.364C64.2086 190.364 65.7861 190.693 67.1046 191.353C68.4231 192.012 69.4355 192.918 70.1418 194.072C70.8717 195.202 71.2366 196.521 71.2366 198.027C71.2366 199.558 70.8128 200.923 69.9652 202.124C69.1412 203.301 67.9993 204.408 66.5395 205.444L63.1844 207.881C62.5016 208.352 61.913 208.87 61.4186 209.435C60.9242 210 60.5474 210.624 60.2885 211.306H71.5545V215.544H54.4612ZM73.254 219.571L75.4083 211.236H80.2467L76.7856 219.571H73.254ZM90.3422 190.434C92.0138 190.434 93.4265 190.74 94.5802 191.353C95.7574 191.941 96.7109 192.765 97.4408 193.825C98.1942 194.884 98.7358 196.12 99.0654 197.533C99.4185 198.922 99.5951 200.417 99.5951 202.018C99.5951 203.925 99.395 205.726 98.9947 207.422C98.5945 209.093 97.9823 210.577 97.1583 211.872C96.3578 213.143 95.3218 214.155 94.0504 214.909C92.779 215.639 91.2486 216.004 89.4592 216.004C88.1643 216.004 86.8929 215.815 85.645 215.439C84.4207 215.038 83.3141 214.497 82.3253 213.814L84.6915 210.282C85.4449 210.777 86.2337 211.153 87.0577 211.412C87.9053 211.648 88.6705 211.766 89.3533 211.766C91.1898 211.766 92.626 210.965 93.6619 209.364C94.7214 207.74 95.2041 205.208 95.1099 201.771L96.0988 202.407C95.5573 203.702 94.7214 204.749 93.5913 205.55C92.4612 206.327 91.1074 206.715 89.5299 206.715C87.9759 206.715 86.5868 206.35 85.3625 205.621C84.1382 204.867 83.1846 203.866 82.5019 202.619C81.8191 201.371 81.4777 199.958 81.4777 198.381C81.4777 196.827 81.8426 195.461 82.5725 194.284C83.3024 193.083 84.3266 192.141 85.645 191.459C86.9871 190.776 88.5528 190.434 90.3422 190.434ZM90.3422 194.496C89.5652 194.496 88.8706 194.672 88.2585 195.025C87.6463 195.379 87.1637 195.861 86.8105 196.473C86.4573 197.086 86.2807 197.792 86.2807 198.592C86.2807 199.393 86.4573 200.111 86.8105 200.747C87.1637 201.383 87.6463 201.877 88.2585 202.23C88.8706 202.583 89.5652 202.76 90.3422 202.76C91.1191 202.76 91.8137 202.583 92.4258 202.23C93.038 201.877 93.5207 201.383 93.8738 200.747C94.2505 200.111 94.4389 199.393 94.4389 198.592C94.4389 197.792 94.2505 197.086 93.8738 196.473C93.5207 195.861 93.038 195.379 92.4258 195.025C91.8137 194.672 91.1191 194.496 90.3422 194.496ZM104.534 218.952C103.926 218.952 103.388 218.91 102.918 218.824C102.449 218.739 102.054 218.627 101.734 218.488C101.414 218.35 101.153 218.211 100.95 218.072L101.782 216.376C101.932 216.462 102.129 216.558 102.374 216.664C102.62 216.782 102.913 216.878 103.254 216.952C103.596 217.038 103.99 217.08 104.438 217.08C104.865 217.08 105.238 216.995 105.558 216.824C105.889 216.664 106.145 216.408 106.326 216.056C106.518 215.715 106.614 215.278 106.614 214.744V213.976C106.348 214.392 106.001 214.723 105.574 214.968C105.148 215.203 104.662 215.32 104.118 215.32C103.382 215.32 102.742 215.16 102.198 214.84C101.665 214.52 101.249 214.072 100.95 213.496C100.652 212.92 100.502 212.238 100.502 211.448C100.502 210.616 100.652 209.896 100.95 209.288C101.249 208.67 101.665 208.195 102.198 207.864C102.742 207.523 103.382 207.352 104.118 207.352C104.662 207.352 105.148 207.48 105.574 207.736C106.001 207.982 106.348 208.334 106.614 208.792V207.544H108.726V214.68C108.726 215.576 108.556 216.344 108.214 216.984C107.873 217.635 107.388 218.126 106.758 218.456C106.14 218.787 105.398 218.952 104.534 218.952ZM104.726 213.544C105.089 213.544 105.404 213.454 105.67 213.272C105.948 213.08 106.161 212.824 106.31 212.504C106.46 212.174 106.534 211.8 106.534 211.384C106.534 210.958 106.454 210.584 106.294 210.264C106.145 209.944 105.932 209.694 105.654 209.512C105.388 209.331 105.073 209.24 104.71 209.24C104.337 209.24 104.006 209.331 103.718 209.512C103.43 209.694 103.206 209.944 103.046 210.264C102.886 210.584 102.801 210.958 102.79 211.384C102.801 211.8 102.886 212.174 103.046 212.504C103.206 212.824 103.43 213.08 103.718 213.272C104.017 213.454 104.353 213.544 104.726 213.544ZM117.84 215.736C116.752 215.736 115.787 215.491 114.944 215C114.101 214.499 113.44 213.816 112.96 212.952C112.48 212.078 112.24 211.075 112.24 209.944C112.24 208.814 112.48 207.816 112.96 206.952C113.44 206.078 114.096 205.395 114.928 204.904C115.771 204.403 116.736 204.152 117.824 204.152C118.592 204.152 119.307 204.291 119.968 204.568C120.629 204.835 121.205 205.214 121.696 205.704C122.197 206.184 122.581 206.739 122.848 207.368L120.816 208.12C120.635 207.726 120.395 207.384 120.096 207.096C119.797 206.798 119.456 206.568 119.072 206.408C118.688 206.238 118.272 206.152 117.824 206.152C117.173 206.152 116.592 206.318 116.08 206.648C115.579 206.968 115.184 207.411 114.896 207.976C114.619 208.542 114.48 209.198 114.48 209.944C114.48 210.691 114.624 211.352 114.912 211.928C115.2 212.494 115.6 212.942 116.112 213.272C116.624 213.592 117.211 213.752 117.872 213.752C118.331 213.752 118.747 213.667 119.12 213.496C119.504 213.315 119.84 213.07 120.128 212.76C120.427 212.451 120.667 212.094 120.848 211.688L122.88 212.424C122.613 213.075 122.229 213.651 121.728 214.152C121.237 214.654 120.661 215.043 120 215.32C119.339 215.598 118.619 215.736 117.84 215.736ZM128.727 215.736C127.597 215.736 126.594 215.491 125.719 215C124.855 214.499 124.178 213.816 123.687 212.952C123.197 212.078 122.951 211.08 122.951 209.96C122.951 208.819 123.197 207.816 123.687 206.952C124.178 206.078 124.85 205.395 125.703 204.904C126.567 204.414 127.559 204.168 128.679 204.168C129.81 204.168 130.802 204.419 131.655 204.92C132.519 205.411 133.197 206.094 133.687 206.968C134.178 207.832 134.423 208.83 134.423 209.96C134.423 211.08 134.178 212.078 133.687 212.952C133.207 213.816 132.535 214.499 131.671 215C130.818 215.491 129.837 215.736 128.727 215.736ZM128.727 213.736C129.41 213.736 130.007 213.576 130.519 213.256C131.042 212.926 131.447 212.478 131.735 211.912C132.034 211.347 132.183 210.696 132.183 209.96C132.183 209.214 132.034 208.558 131.735 207.992C131.437 207.427 131.026 206.984 130.503 206.664C129.981 206.334 129.373 206.168 128.679 206.168C128.007 206.168 127.405 206.334 126.871 206.664C126.349 206.984 125.938 207.427 125.639 207.992C125.341 208.558 125.191 209.214 125.191 209.96C125.191 210.696 125.341 211.347 125.639 211.912C125.938 212.478 126.354 212.926 126.887 213.256C127.421 213.576 128.034 213.736 128.727 213.736ZM136.183 216.248L134.631 216.008C134.631 215.838 134.695 215.64 134.823 215.416C134.951 215.182 135.127 214.947 135.351 214.712C135.586 214.478 135.847 214.259 136.135 214.056L136.951 213.496C137.143 213.368 137.33 213.214 137.511 213.032C137.692 212.851 137.783 212.664 137.783 212.472C137.783 212.259 137.708 212.088 137.559 211.96C137.41 211.822 137.186 211.752 136.887 211.752C136.663 211.752 136.471 211.827 136.311 211.976C136.162 212.115 136.06 212.28 136.007 212.472L134.375 212.2C134.439 211.859 134.578 211.55 134.791 211.272C135.015 210.984 135.303 210.75 135.655 210.568C136.018 210.387 136.428 210.296 136.887 210.296C137.666 210.296 138.279 210.499 138.727 210.904C139.175 211.299 139.399 211.816 139.399 212.456C139.399 212.915 139.271 213.304 139.015 213.624C138.77 213.944 138.444 214.243 138.039 214.52L137.223 215.08C137.074 215.187 136.924 215.315 136.775 215.464C136.626 215.603 136.492 215.742 136.375 215.88C136.268 216.03 136.204 216.152 136.183 216.248ZM134.631 217.144V216.008L135.799 215.752H139.479V217.144H134.631ZM143.624 215.736C142.834 215.736 142.136 215.56 141.528 215.208C140.92 214.846 140.44 214.35 140.088 213.72C139.746 213.091 139.576 212.366 139.576 211.544C139.576 210.723 139.752 209.998 140.104 209.368C140.466 208.739 140.957 208.248 141.576 207.896C142.205 207.534 142.925 207.352 143.736 207.352C144.44 207.352 145.085 207.539 145.672 207.912C146.269 208.275 146.744 208.814 147.096 209.528C147.458 210.232 147.64 211.091 147.64 212.104H141.784C141.837 212.638 142.066 213.064 142.472 213.384C142.877 213.694 143.336 213.848 143.848 213.848C144.285 213.848 144.642 213.758 144.92 213.576C145.197 213.384 145.41 213.139 145.56 212.84L147.448 213.576C147.224 214.024 146.93 214.414 146.568 214.744C146.216 215.064 145.794 215.31 145.304 215.48C144.813 215.651 144.253 215.736 143.624 215.736ZM141.896 210.536H145.352C145.32 210.206 145.213 209.939 145.032 209.736C144.85 209.534 144.637 209.384 144.392 209.288C144.146 209.192 143.906 209.144 143.672 209.144C143.448 209.144 143.202 209.192 142.936 209.288C142.68 209.374 142.45 209.518 142.248 209.72C142.056 209.923 141.938 210.195 141.896 210.536Z" fill="#88F154"/>
<path d="M170.289 204.311V199.762H192.755V204.311H170.289ZM170.289 215.544V210.995H192.755V215.544H170.289Z" fill="#88F154"/>
<path d="M246.383 155.988L260.723 170.328" stroke="#88F154" stroke-width="9.67352" stroke-linecap="round" stroke-linejoin="round"/>
<path d="M208.652 139.762C208.652 151.641 218.283 161.271 230.162 161.271C236.112 161.271 241.498 158.855 245.392 154.951C249.272 151.06 251.672 145.691 251.672 139.762C251.672 127.882 242.041 118.252 230.162 118.252C218.283 118.252 208.652 127.882 208.652 139.762Z" stroke="#88F154" stroke-width="9.67352" stroke-linecap="round" stroke-linejoin="round"/>
<path d="M313.715 155.988L328.055 170.328" stroke="#88F154" stroke-width="9.67352" stroke-linecap="round" stroke-linejoin="round"/>
<path d="M275.984 139.762C275.984 151.641 285.615 161.271 297.494 161.271C303.444 161.271 308.83 158.855 312.724 154.951C316.604 151.06 319.004 145.691 319.004 139.762C319.004 127.882 309.373 118.252 297.494 118.252C285.615 118.252 275.984 127.882 275.984 139.762Z" stroke="#88F154" stroke-width="9.67352" stroke-linecap="round" stroke-linejoin="round"/>
<path d="M207.187 215.544V213.03C207.187 212.549 207.337 212.018 207.636 211.437C207.934 210.856 208.349 210.276 208.88 209.695C209.411 209.114 210.034 208.575 210.747 208.077L213.386 206.185C213.751 205.936 214.091 205.654 214.406 205.339C214.738 205.023 215.004 204.683 215.203 204.318C215.419 203.936 215.527 203.571 215.527 203.223C215.527 202.791 215.419 202.401 215.203 202.053C215.004 201.704 214.705 201.43 214.307 201.231C213.909 201.032 213.419 200.933 212.838 200.933C212.34 200.933 211.892 201.032 211.494 201.231C211.112 201.43 210.797 201.696 210.548 202.028C210.299 202.36 210.125 202.716 210.025 203.098L206.515 202.501C206.681 201.671 207.038 200.899 207.586 200.186C208.133 199.472 208.847 198.9 209.727 198.468C210.623 198.02 211.635 197.796 212.763 197.796C214.058 197.796 215.17 198.028 216.099 198.493C217.028 198.958 217.742 199.597 218.24 200.41C218.754 201.206 219.011 202.136 219.011 203.198C219.011 204.276 218.713 205.239 218.115 206.085C217.535 206.915 216.73 207.695 215.701 208.425L213.336 210.143C212.855 210.475 212.44 210.84 212.091 211.238C211.743 211.636 211.477 212.076 211.295 212.557H219.236V215.544H207.187ZM228.981 215.544L224.749 203.098H228.085L230.674 211.114L233.287 203.098H236.524L239.087 210.989L241.701 203.098H245.037L240.805 215.544H237.569L234.905 207.131L232.217 215.544H228.981ZM251.058 215.843C249.83 215.843 248.743 215.569 247.797 215.022C246.851 214.458 246.105 213.686 245.557 212.707C245.026 211.728 244.76 210.599 244.76 209.321C244.76 208.044 245.034 206.915 245.582 205.936C246.146 204.957 246.909 204.193 247.872 203.646C248.851 203.082 249.971 202.799 251.232 202.799C252.328 202.799 253.332 203.09 254.244 203.671C255.174 204.235 255.912 205.073 256.46 206.185C257.024 207.28 257.306 208.616 257.306 210.193H248.196C248.279 211.022 248.635 211.686 249.266 212.184C249.897 212.665 250.61 212.906 251.407 212.906C252.087 212.906 252.643 212.765 253.075 212.483C253.506 212.184 253.838 211.802 254.07 211.338L257.008 212.483C256.659 213.18 256.203 213.785 255.638 214.3C255.091 214.798 254.435 215.179 253.672 215.445C252.909 215.71 252.037 215.843 251.058 215.843ZM248.37 207.753H253.747C253.697 207.239 253.531 206.824 253.249 206.508C252.967 206.193 252.635 205.961 252.253 205.811C251.871 205.662 251.498 205.587 251.133 205.587C250.784 205.587 250.403 205.662 249.988 205.811C249.59 205.944 249.233 206.168 248.917 206.484C248.619 206.799 248.436 207.222 248.37 207.753ZM265.378 215.843C264.532 215.843 263.793 215.669 263.163 215.32C262.532 214.955 262.001 214.441 261.57 213.777L261.445 215.544H258.334V198.12H261.619V204.791C262.034 204.144 262.557 203.654 263.188 203.322C263.818 202.974 264.548 202.799 265.378 202.799C266.523 202.799 267.511 203.065 268.34 203.596C269.187 204.127 269.842 204.882 270.307 205.861C270.772 206.824 271.004 207.977 271.004 209.321C271.004 210.649 270.772 211.802 270.307 212.781C269.842 213.761 269.187 214.516 268.34 215.047C267.511 215.578 266.523 215.843 265.378 215.843ZM264.532 212.831C265.129 212.831 265.652 212.682 266.1 212.383C266.565 212.084 266.93 211.67 267.195 211.138C267.461 210.607 267.594 210.002 267.594 209.321C267.594 208.641 267.461 208.035 267.195 207.504C266.946 206.973 266.59 206.567 266.125 206.284C265.677 205.986 265.154 205.836 264.557 205.836C263.993 205.836 263.486 205.986 263.038 206.284C262.59 206.583 262.242 206.998 261.993 207.529C261.744 208.044 261.619 208.641 261.619 209.321C261.619 210.002 261.744 210.607 261.993 211.138C262.242 211.67 262.582 212.084 263.013 212.383C263.461 212.682 263.968 212.831 264.532 212.831ZM281.984 215.843C281.188 215.843 280.441 215.727 279.744 215.495C279.047 215.246 278.433 214.897 277.902 214.449C277.371 213.985 276.956 213.42 276.657 212.757L279.47 211.462C279.719 211.86 280.059 212.209 280.491 212.508C280.922 212.79 281.42 212.931 281.984 212.931C282.532 212.931 282.955 212.856 283.254 212.707C283.552 212.541 283.702 212.308 283.702 212.01C283.702 211.711 283.577 211.495 283.328 211.363C283.096 211.213 282.772 211.089 282.358 210.989L281.212 210.69C280.018 210.375 279.072 209.877 278.375 209.197C277.694 208.5 277.354 207.703 277.354 206.807C277.354 205.529 277.761 204.542 278.574 203.845C279.404 203.148 280.574 202.799 282.084 202.799C282.864 202.799 283.586 202.916 284.249 203.148C284.93 203.38 285.511 203.704 285.992 204.119C286.473 204.534 286.805 205.015 286.988 205.563L284.274 206.807C284.158 206.475 283.876 206.21 283.428 206.011C282.98 205.795 282.532 205.687 282.084 205.687C281.636 205.687 281.287 205.787 281.038 205.986C280.806 206.168 280.69 206.425 280.69 206.757C280.69 206.973 280.806 207.156 281.038 207.305C281.271 207.438 281.602 207.554 282.034 207.654L283.652 208.052C284.465 208.251 285.112 208.575 285.594 209.023C286.091 209.454 286.448 209.944 286.664 210.491C286.896 211.022 287.012 211.545 287.012 212.06C287.012 212.806 286.788 213.47 286.34 214.051C285.909 214.615 285.311 215.055 284.548 215.37C283.801 215.686 282.947 215.843 281.984 215.843ZM293.668 215.843C292.44 215.843 291.353 215.569 290.407 215.022C289.461 214.458 288.715 213.686 288.167 212.707C287.636 211.728 287.37 210.599 287.37 209.321C287.37 208.044 287.644 206.915 288.192 205.936C288.756 204.957 289.519 204.193 290.482 203.646C291.461 203.082 292.581 202.799 293.842 202.799C294.938 202.799 295.942 203.09 296.855 203.671C297.784 204.235 298.522 205.073 299.07 206.185C299.634 207.28 299.916 208.616 299.916 210.193H290.806C290.889 211.022 291.245 211.686 291.876 212.184C292.507 212.665 293.22 212.906 294.017 212.906C294.697 212.906 295.253 212.765 295.685 212.483C296.116 212.184 296.448 211.802 296.68 211.338L299.618 212.483C299.269 213.18 298.813 213.785 298.248 214.3C297.701 214.798 297.045 215.179 296.282 215.445C295.519 215.71 294.647 215.843 293.668 215.843ZM290.98 207.753H296.357C296.307 207.239 296.141 206.824 295.859 206.508C295.577 206.193 295.245 205.961 294.863 205.811C294.481 205.662 294.108 205.587 293.743 205.587C293.394 205.587 293.013 205.662 292.598 205.811C292.2 205.944 291.843 206.168 291.527 206.484C291.229 206.799 291.046 207.222 290.98 207.753ZM304.976 215.843C303.483 215.843 302.321 215.511 301.491 214.848C300.678 214.184 300.272 213.246 300.272 212.035C300.272 210.707 300.711 209.711 301.591 209.048C302.487 208.367 303.74 208.027 305.35 208.027H308.287C308.171 207.264 307.93 206.683 307.565 206.284C307.2 205.87 306.677 205.662 305.997 205.662C305.466 205.662 304.985 205.778 304.553 206.011C304.122 206.243 303.756 206.6 303.458 207.081L300.57 206.085C300.803 205.554 301.143 205.04 301.591 204.542C302.039 204.028 302.62 203.613 303.333 203.297C304.064 202.965 304.951 202.799 305.997 202.799C307.258 202.799 308.304 203.04 309.133 203.521C309.98 204.003 310.602 204.683 311 205.563C311.415 206.425 311.614 207.454 311.598 208.649L311.523 215.544H308.461L308.411 214.101C308.096 214.665 307.648 215.096 307.067 215.395C306.503 215.694 305.806 215.843 304.976 215.843ZM305.524 213.105C306.055 213.105 306.536 212.981 306.968 212.732C307.399 212.483 307.739 212.159 307.988 211.761C308.237 211.363 308.362 210.948 308.362 210.516V210.466H306.495C305.416 210.466 304.669 210.599 304.254 210.865C303.839 211.114 303.632 211.47 303.632 211.935C303.632 212.3 303.798 212.591 304.13 212.806C304.462 213.005 304.926 213.105 305.524 213.105ZM313.334 215.544V203.098H316.62V205.388C317.135 204.608 317.782 204.028 318.562 203.646C319.358 203.248 320.18 203.048 321.026 203.048V206.235C320.263 206.235 319.541 206.326 318.86 206.508C318.197 206.691 317.657 206.99 317.242 207.405C316.828 207.819 316.62 208.351 316.62 208.998V215.544H313.334ZM327.883 215.843C326.589 215.843 325.435 215.569 324.423 215.022C323.411 214.458 322.622 213.686 322.058 212.707C321.494 211.711 321.212 210.583 321.212 209.321C321.212 208.044 321.494 206.915 322.058 205.936C322.622 204.957 323.402 204.193 324.398 203.646C325.394 203.082 326.539 202.799 327.833 202.799C329.078 202.799 330.215 203.106 331.244 203.72C332.273 204.335 333.019 205.222 333.484 206.384L330.397 207.479C330.165 206.998 329.8 206.616 329.302 206.334C328.821 206.036 328.281 205.886 327.684 205.886C327.07 205.886 326.531 206.036 326.066 206.334C325.601 206.616 325.236 207.015 324.971 207.529C324.705 208.044 324.572 208.641 324.572 209.321C324.572 210.002 324.705 210.599 324.971 211.114C325.236 211.611 325.61 212.01 326.091 212.308C326.572 212.607 327.12 212.757 327.734 212.757C328.331 212.757 328.871 212.599 329.352 212.284C329.85 211.968 330.215 211.553 330.447 211.039L333.559 212.134C333.077 213.312 332.322 214.225 331.293 214.872C330.281 215.52 329.144 215.843 327.883 215.843ZM334.616 215.544V198.12H337.901V204.691C338.316 204.077 338.831 203.613 339.445 203.297C340.059 202.965 340.747 202.799 341.511 202.799C342.507 202.799 343.345 202.999 344.025 203.397C344.722 203.795 345.253 204.417 345.618 205.264C345.983 206.094 346.166 207.172 346.166 208.5V215.544H342.88V209.172C342.88 208.326 342.78 207.67 342.581 207.205C342.382 206.741 342.108 206.409 341.76 206.21C341.411 205.994 341.005 205.886 340.54 205.886C339.694 205.87 339.038 206.127 338.573 206.658C338.125 207.189 337.901 207.977 337.901 209.023V215.544H334.616ZM353.531 215.843C352.303 215.843 351.216 215.569 350.27 215.022C349.324 214.458 348.577 213.686 348.029 212.707C347.498 211.728 347.233 210.599 347.233 209.321C347.233 208.044 347.507 206.915 348.054 205.936C348.619 204.957 349.382 204.193 350.345 203.646C351.324 203.082 352.444 202.799 353.705 202.799C354.8 202.799 355.804 203.09 356.717 203.671C357.646 204.235 358.385 205.073 358.932 206.185C359.497 207.28 359.779 208.616 359.779 210.193H350.668C350.751 211.022 351.108 211.686 351.738 212.184C352.369 212.665 353.083 212.906 353.879 212.906C354.56 212.906 355.116 212.765 355.547 212.483C355.979 212.184 356.31 211.802 356.543 211.338L359.48 212.483C359.132 213.18 358.675 213.785 358.111 214.3C357.563 214.798 356.908 215.179 356.144 215.445C355.381 215.71 354.51 215.843 353.531 215.843ZM350.842 207.753H356.219C356.169 207.239 356.003 206.824 355.721 206.508C355.439 206.193 355.107 205.961 354.726 205.811C354.344 205.662 353.971 205.587 353.605 205.587C353.257 205.587 352.875 205.662 352.46 205.811C352.062 205.944 351.705 206.168 351.39 206.484C351.091 206.799 350.909 207.222 350.842 207.753ZM365.461 215.843C364.664 215.843 363.918 215.727 363.221 215.495C362.524 215.246 361.91 214.897 361.379 214.449C360.848 213.985 360.433 213.42 360.134 212.757L362.947 211.462C363.196 211.86 363.536 212.209 363.967 212.508C364.399 212.79 364.897 212.931 365.461 212.931C366.009 212.931 366.432 212.856 366.731 212.707C367.029 212.541 367.179 212.308 367.179 212.01C367.179 211.711 367.054 211.495 366.805 211.363C366.573 211.213 366.249 211.089 365.834 210.989L364.689 210.69C363.495 210.375 362.549 209.877 361.852 209.197C361.171 208.5 360.831 207.703 360.831 206.807C360.831 205.529 361.238 204.542 362.051 203.845C362.881 203.148 364.05 202.799 365.561 202.799C366.341 202.799 367.062 202.916 367.726 203.148C368.407 203.38 368.988 203.704 369.469 204.119C369.95 204.534 370.282 205.015 370.464 205.563L367.751 206.807C367.635 206.475 367.353 206.21 366.905 206.011C366.457 205.795 366.009 205.687 365.561 205.687C365.113 205.687 364.764 205.787 364.515 205.986C364.283 206.168 364.167 206.425 364.167 206.757C364.167 206.973 364.283 207.156 364.515 207.305C364.747 207.438 365.079 207.554 365.511 207.654L367.129 208.052C367.942 208.251 368.589 208.575 369.07 209.023C369.568 209.454 369.925 209.944 370.141 210.491C370.373 211.022 370.489 211.545 370.489 212.06C370.489 212.806 370.265 213.47 369.817 214.051C369.386 214.615 368.788 215.055 368.025 215.37C367.278 215.686 366.424 215.843 365.461 215.843Z" fill="#88F154"/>
</svg>
