<svg xmlns="http://www.w3.org/2000/svg" width="815" height="542" fill="none" viewBox="0 0 815 542"><rect width="812.18" height="538.521" x="1.41" y="1.41" stroke="#9be6aa" stroke-width="2.82" rx="6.111"/><path fill="#9be6aa" d="m45.446 70.127 10.105-24.82h3.12l10.105 24.82h-3.155l-2.872-7.056h-11.24l-2.872 7.056zm7.091-9.75h9.148l-4.574-11.31zM86.6 70.553q-2.625 0-4.645-1.17a8.47 8.47 0 0 1-3.156-3.298q-1.134-2.092-1.134-4.822t1.099-4.822a8.2 8.2 0 0 1 3.156-3.262q2.02-1.206 4.609-1.205 2.553 0 4.574 1.17t3.084 3.297l-2.588 1.17a5.14 5.14 0 0 0-2.056-2.198q-1.348-.816-3.085-.816t-3.085.851q-1.311.852-2.092 2.376-.744 1.489-.744 3.44t.744 3.474q.78 1.49 2.128 2.34 1.383.85 3.12.85t3.085-.885q1.382-.887 2.091-2.482l2.589 1.17q-1.065 2.268-3.085 3.545t-4.61 1.277m10.44-.426v-24.82h2.836v9.68q.886-1.453 2.305-2.233 1.418-.78 3.297-.78 2.057 0 3.617.85 1.56.816 2.411 2.624.886 1.81.851 4.751v9.928h-2.837V61.05q0-2.623-.638-4.006-.603-1.383-1.666-1.88-1.064-.531-2.411-.531-2.34 0-3.652 1.666-1.277 1.632-1.277 4.645v9.183zm24.537.426q-3.12 0-4.893-1.419-1.737-1.453-1.737-4.006 0-2.695 1.773-4.113 1.807-1.454 5.034-1.454h4.929q-.177-2.516-1.241-3.758-1.064-1.277-3.191-1.277-1.453 0-2.518.603-1.027.567-1.702 1.844l-2.552-.993a8.2 8.2 0 0 1 1.631-2.127 6.2 6.2 0 0 1 2.233-1.383q1.276-.496 2.908-.496 2.482 0 4.077.992 1.631.958 2.447 2.872.815 1.88.78 4.68l-.036 9.61h-2.623l-.142-2.376a5.56 5.56 0 0 1-2.092 2.092q-1.312.709-3.085.709m.142-2.482q1.525 0 2.659-.638a4.45 4.45 0 0 0 1.738-1.88q.638-1.204.638-2.907v-.71h-4.361q-2.482 0-3.546.816-1.028.816-1.028 2.34 0 1.383 1.028 2.199 1.028.78 2.872.78m18.161 2.482q-2.59 0-4.007-1.348-1.418-1.347-1.418-3.793V54.916h-3.085V52.4h3.085v-5.531h2.836V52.4h5.319v2.517h-5.319v10.212q0 1.347.709 2.092.745.708 2.057.709.425 0 .815-.106.426-.142 1.099-.639l1.1 2.305q-.922.603-1.667.816a4.8 4.8 0 0 1-1.524.248m17.953 0q-3.794 0-6.701-1.631a12.2 12.2 0 0 1-4.574-4.539q-1.63-2.907-1.631-6.63 0-3.794 1.631-6.666a11.9 11.9 0 0 1 4.574-4.538q2.907-1.667 6.701-1.667 1.986 0 3.865.674a12.8 12.8 0 0 1 3.439 1.773q1.56 1.134 2.518 2.588l-2.376 1.631q-.71-1.135-1.915-2.02a9.3 9.3 0 0 0-2.659-1.42 8.6 8.6 0 0 0-2.872-.496q-2.871 0-5.106 1.312a9.2 9.2 0 0 0-3.51 3.546q-1.276 2.27-1.276 5.283 0 2.907 1.241 5.212a9.46 9.46 0 0 0 3.51 3.581q2.27 1.312 5.141 1.312 2.376 0 4.219-.993 1.88-.993 2.943-2.765t1.099-4.042h-6.098V57.47h8.97v2.34q0 3.226-1.453 5.638-1.419 2.41-3.936 3.758t-5.744 1.348m14.863-.426v-24.82h8.084q2.412 0 4.255.993 1.88.993 2.907 2.766 1.065 1.773 1.064 4.113 0 2.27-.957 4.042a7.3 7.3 0 0 1-2.624 2.801q-1.666.993-3.865.993h-5.85v9.112zm3.014-11.842h5.85q1.95 0 3.191-1.418 1.277-1.455 1.277-3.688 0-2.304-1.489-3.723-1.49-1.418-3.794-1.418h-5.035zm21.683 11.842v-22.09h-7.907v-2.73h18.792v2.73h-7.907v22.09zm27.042.426q-1.95 0-3.404-.568-1.454-.602-2.447-1.56-.957-.957-1.382-2.092l2.482-1.028q.602 1.206 1.808 1.95 1.206.745 2.659.745 1.667 0 2.801-.638 1.135-.674 1.135-1.88 0-1.098-.851-1.772-.816-.675-2.447-1.1l-1.702-.46q-2.41-.639-3.758-1.915-1.347-1.312-1.347-2.943 0-2.517 1.631-3.9 1.666-1.419 4.928-1.418 1.56 0 2.837.46a6.4 6.4 0 0 1 2.198 1.312 4.8 4.8 0 0 1 1.347 1.95l-2.482 1.1q-.46-1.206-1.524-1.738-1.064-.531-2.589-.532-1.63 0-2.552.71-.922.674-.922 1.914 0 .71.744 1.348.78.602 2.269.992l1.773.461q1.738.426 2.908 1.277 1.17.815 1.773 1.879.602 1.063.602 2.269 0 1.596-.851 2.766-.85 1.17-2.304 1.808-1.453.603-3.333.603m17.24 0q-2.588 0-4.573-1.17-1.986-1.206-3.121-3.298-1.099-2.092-1.099-4.822t1.099-4.822q1.135-2.092 3.085-3.262 1.986-1.206 4.538-1.205 2.482 0 4.291 1.24 1.808 1.206 2.801 3.404t.993 5.177h-13.935q.177 2.907 1.844 4.538 1.666 1.631 4.219 1.631 1.88 0 3.156-.886a5.9 5.9 0 0 0 2.021-2.34l2.446 1.24a7.9 7.9 0 0 1-1.808 2.412q-1.099 1.028-2.624 1.595-1.488.568-3.333.568m-5.708-11.134h10.672q-.106-1.524-.815-2.623a4.7 4.7 0 0 0-1.773-1.702q-1.1-.603-2.482-.603-1.347 0-2.588.603a5.1 5.1 0 0 0-2.057 1.702q-.815 1.098-.957 2.623m22.668 11.134q-1.95 0-3.404-.568-1.453-.602-2.446-1.56-.957-.957-1.383-2.092l2.482-1.028q.603 1.206 1.808 1.95 1.205.745 2.66.745 1.665 0 2.801-.638 1.134-.674 1.134-1.88 0-1.098-.851-1.772-.815-.675-2.446-1.1l-1.702-.46q-2.411-.639-3.759-1.915-1.347-1.312-1.347-2.943 0-2.517 1.631-3.9 1.667-1.419 4.929-1.418 1.56 0 2.836.46a6.4 6.4 0 0 1 2.198 1.312 4.84 4.84 0 0 1 1.348 1.95l-2.482 1.1q-.462-1.206-1.525-1.738-1.064-.531-2.588-.532-1.631 0-2.553.71-.922.674-.922 1.914 0 .71.745 1.348.78.602 2.269.992l1.773.461q1.737.426 2.907 1.277 1.17.815 1.773 1.879a4.53 4.53 0 0 1 .603 2.269q0 1.596-.851 2.766-.852 1.17-2.305 1.808-1.454.603-3.333.603m15.681 0q-1.95 0-3.404-.568-1.454-.602-2.447-1.56-.957-.957-1.382-2.092l2.482-1.028q.602 1.206 1.808 1.95a4.96 4.96 0 0 0 2.659.745q1.667 0 2.801-.638 1.134-.674 1.135-1.88 0-1.098-.851-1.772-.815-.675-2.447-1.1l-1.702-.46q-2.41-.639-3.758-1.915-1.347-1.312-1.347-2.943 0-2.517 1.631-3.9 1.666-1.419 4.928-1.418 1.56 0 2.837.46a6.4 6.4 0 0 1 2.198 1.312 4.84 4.84 0 0 1 1.347 1.95l-2.482 1.1q-.46-1.206-1.524-1.738-1.063-.531-2.589-.532-1.63 0-2.553.71-.921.674-.921 1.914 0 .71.744 1.348.78.602 2.269.992l1.773.461q1.738.426 2.908 1.277 1.17.815 1.772 1.879a4.53 4.53 0 0 1 .603 2.269q0 1.596-.851 2.766-.85 1.17-2.304 1.808-1.455.603-3.333.603m9.653-.426V52.4h2.836v17.728zm1.453-21.84q-.708 0-1.241-.533-.531-.531-.531-1.24 0-.745.531-1.242.533-.531 1.241-.532.745 0 1.241.532.532.497.532 1.241 0 .71-.532 1.241a1.63 1.63 0 0 1-1.241.532m13.61 22.266q-2.588 0-4.609-1.17a8.54 8.54 0 0 1-3.12-3.298q-1.135-2.092-1.135-4.822t1.099-4.822q1.135-2.092 3.121-3.262 2.021-1.206 4.573-1.205 2.625 0 4.61 1.205a8 8 0 0 1 3.12 3.262q1.134 2.092 1.135 4.822 0 2.73-1.135 4.822a8.3 8.3 0 0 1-3.085 3.298q-1.986 1.17-4.574 1.17m0-2.624q1.773 0 3.085-.851 1.312-.85 2.057-2.34.78-1.49.78-3.475t-.78-3.475q-.745-1.488-2.092-2.34-1.348-.85-3.121-.85-1.737 0-3.084.85-1.312.852-2.092 2.34-.745 1.49-.745 3.475 0 1.95.745 3.475.78 1.49 2.127 2.34 1.383.85 3.12.85m11.896 2.198V52.4h2.659l.142 2.66q.886-1.49 2.305-2.27 1.418-.815 3.297-.815 2.092 0 3.617.85 1.56.816 2.411 2.624.887 1.81.851 4.751v9.928h-2.837V61.05q0-2.623-.602-4.006-.603-1.383-1.667-1.88-1.064-.531-2.411-.531-2.34 0-3.652 1.666-1.276 1.632-1.276 4.645v9.183zm33.278.426q-2.057 0-3.617-.816-1.524-.85-2.411-2.659-.85-1.845-.851-4.751v-9.928h2.837v9.077q0 2.624.602 4.006.603 1.383 1.667 1.915 1.1.496 2.446.496 2.305 0 3.581-1.666 1.312-1.667 1.312-4.645V52.4h2.837v17.728h-2.659l-.142-2.659q-.886 1.49-2.305 2.305-1.418.78-3.297.78m18.722 0q-1.95 0-3.404-.568-1.453-.602-2.446-1.56-.957-.957-1.383-2.092l2.482-1.028q.603 1.206 1.808 1.95 1.206.745 2.66.745 1.666 0 2.801-.638 1.134-.674 1.134-1.88 0-1.098-.851-1.772-.815-.675-2.446-1.1l-1.702-.46q-2.41-.639-3.759-1.915-1.347-1.312-1.347-2.943 0-2.517 1.631-3.9 1.666-1.419 4.929-1.418 1.56 0 2.836.46a6.4 6.4 0 0 1 2.198 1.312 4.84 4.84 0 0 1 1.348 1.95l-2.482 1.1q-.462-1.206-1.525-1.738-1.064-.531-2.588-.532-1.63 0-2.553.71-.922.674-.922 1.914 0 .71.745 1.348.78.602 2.269.992l1.773.461q1.737.426 2.907 1.277 1.17.815 1.773 1.879a4.53 4.53 0 0 1 .603 2.269q0 1.596-.851 2.766-.852 1.17-2.305 1.808-1.453.603-3.333.603m17.241 0q-2.588 0-4.574-1.17a8.54 8.54 0 0 1-3.12-3.298q-1.1-2.092-1.099-4.822 0-2.73 1.099-4.822 1.134-2.092 3.084-3.262 1.986-1.206 4.539-1.205 2.483 0 4.29 1.24 1.809 1.206 2.801 3.404t.993 5.177h-13.934q.177 2.907 1.843 4.538 1.667 1.631 4.22 1.631 1.878 0 3.155-.886a5.9 5.9 0 0 0 2.021-2.34l2.447 1.24a7.9 7.9 0 0 1-1.809 2.412q-1.099 1.028-2.623 1.595-1.49.568-3.333.568m-5.709-11.134h10.673q-.107-1.524-.816-2.623a4.7 4.7 0 0 0-1.773-1.702q-1.098-.603-2.482-.603-1.347 0-2.588.603a5.1 5.1 0 0 0-2.056 1.702q-.816 1.098-.958 2.623m22.669 11.134q-1.95 0-3.404-.568-1.454-.602-2.447-1.56-.957-.957-1.383-2.092l2.482-1.028q.603 1.206 1.809 1.95a4.96 4.96 0 0 0 2.659.745q1.667 0 2.801-.638 1.135-.674 1.135-1.88 0-1.098-.851-1.772-.816-.675-2.447-1.1l-1.702-.46q-2.41-.639-3.758-1.915-1.347-1.312-1.347-2.943 0-2.517 1.631-3.9 1.665-1.419 4.928-1.418 1.56 0 2.836.46a6.4 6.4 0 0 1 2.199 1.312 4.84 4.84 0 0 1 1.347 1.95l-2.482 1.1q-.46-1.206-1.524-1.738-1.064-.531-2.589-.532-1.63 0-2.553.71-.922.674-.922 1.914 0 .71.745 1.348.78.602 2.269.992l1.773.461q1.737.426 2.908 1.277 1.17.815 1.772 1.879a4.53 4.53 0 0 1 .603 2.269q0 1.596-.851 2.766-.85 1.17-2.305 1.808-1.454.603-3.332.603m22.612-.426V49.243a15 15 0 0 1-2.766 1.809q-1.382.674-2.801.638v-2.73q.745.035 1.773-.497a14 14 0 0 0 2.127-1.382 14 14 0 0 0 1.915-1.773h2.695v24.82zm17.463.426q-2.837 0-5.035-1.631-2.199-1.666-3.439-4.539-1.241-2.907-1.241-6.665t1.241-6.63q1.24-2.909 3.403-4.54 2.199-1.665 5.071-1.666t5.034 1.667q2.199 1.63 3.44 4.538 1.276 2.873 1.276 6.63 0 3.759-1.241 6.666-1.241 2.873-3.439 4.539-2.199 1.63-5.07 1.63m0-2.695q1.984 0 3.51-1.312 1.56-1.312 2.411-3.581.886-2.27.886-5.248t-.886-5.247q-.85-2.304-2.411-3.581-1.526-1.312-3.51-1.312-1.986 0-3.511 1.312-1.524 1.276-2.411 3.58-.85 2.27-.851 5.249 0 2.978.851 5.247.887 2.269 2.411 3.581 1.56 1.312 3.511 1.312m10.887 2.27 6.559-9.184-6.098-8.545h3.368l4.29 6.24 4.219-6.24h3.369l-5.992 8.58 6.417 9.148h-3.404l-4.609-6.878-4.68 6.878zm26.044 0v-17.73h2.659l.142 2.482q.815-1.418 2.092-2.163 1.276-.744 2.978-.744 2.127 0 3.617.992 1.524.993 2.198 3.014.744-1.95 2.163-2.978 1.453-1.029 3.439-1.028 2.978 0 4.68 1.985 1.738 1.986 1.702 6.028v10.14h-2.836V61.05q0-2.623-.568-4.006-.531-1.383-1.453-1.88-.922-.531-2.128-.531-2.091 0-3.262 1.666-1.17 1.632-1.17 4.645v9.183h-2.836V61.05q0-2.623-.568-4.006-.531-1.383-1.489-1.88-.922-.531-2.127-.531-2.057 0-3.227 1.666-1.17 1.632-1.17 4.645v9.183zm37.158.425q-2.588 0-4.609-1.17a8.54 8.54 0 0 1-3.12-3.298q-1.135-2.092-1.135-4.822t1.1-4.822q1.134-2.092 3.12-3.262 2.02-1.206 4.574-1.205 2.623 0 4.609 1.205a8 8 0 0 1 3.12 3.262q1.134 2.092 1.135 4.822 0 2.73-1.135 4.822a8.3 8.3 0 0 1-3.085 3.298q-1.985 1.17-4.574 1.17m0-2.624q1.774 0 3.085-.851 1.312-.85 2.057-2.34.78-1.49.78-3.475t-.78-3.475q-.745-1.488-2.092-2.34-1.348-.85-3.12-.85-1.738 0-3.085.85-1.312.852-2.092 2.34-.744 1.49-.745 3.475 0 1.95.745 3.475.78 1.49 2.127 2.34 1.383.85 3.12.85m11.896 2.198V52.4h2.837v3.156q1.063-1.667 2.73-2.447a8.4 8.4 0 0 1 3.546-.78v2.66q-1.56 0-3.014.531a5.03 5.03 0 0 0-2.34 1.667q-.922 1.17-.922 3.19v9.751zm18.91.426q-2.589 0-4.574-1.17a8.54 8.54 0 0 1-3.12-3.298q-1.1-2.092-1.099-4.822 0-2.73 1.099-4.822 1.134-2.092 3.085-3.262 1.985-1.206 4.538-1.205 2.483 0 4.29 1.24 1.809 1.206 2.801 3.404t.993 5.177h-13.934q.177 2.907 1.843 4.538 1.667 1.631 4.22 1.631 1.879 0 3.155-.886a5.9 5.9 0 0 0 2.021-2.34l2.447 1.24a7.9 7.9 0 0 1-1.808 2.412q-1.1 1.028-2.624 1.595-1.49.568-3.333.568m-5.709-11.134h10.673q-.106-1.524-.816-2.623a4.7 4.7 0 0 0-1.773-1.702q-1.099-.603-2.481-.603-1.348 0-2.589.603a5.1 5.1 0 0 0-2.056 1.702q-.816 1.098-.958 2.623m32.153 11.134q-2.588 0-4.574-1.17-1.985-1.206-3.12-3.298-1.1-2.092-1.099-4.822 0-2.73 1.099-4.822 1.135-2.092 3.085-3.262 1.986-1.206 4.538-1.205 2.482 0 4.291 1.24 1.808 1.206 2.801 3.404.992 2.199.992 5.177h-13.934q.177 2.907 1.844 4.538 1.666 1.631 4.219 1.631 1.88 0 3.156-.886a5.9 5.9 0 0 0 2.021-2.34l2.446 1.24a7.9 7.9 0 0 1-1.808 2.412q-1.099 1.028-2.624 1.595-1.49.568-3.333.568m-5.708-11.134h10.672q-.107-1.524-.815-2.623a4.7 4.7 0 0 0-1.773-1.702q-1.1-.603-2.482-.603-1.347 0-2.588.603a5.1 5.1 0 0 0-2.057 1.702q-.816 1.098-.957 2.623m16.463 10.708v-24.82h2.837v24.82zm14.72.426q-2.588 0-4.574-1.17a8.54 8.54 0 0 1-3.12-3.298q-1.1-2.092-1.099-4.822 0-2.73 1.099-4.822 1.134-2.092 3.085-3.262 1.985-1.206 4.538-1.205 2.482 0 4.29 1.24 1.81 1.206 2.801 3.404.993 2.199.993 5.177h-13.934q.177 2.907 1.844 4.538 1.666 1.631 4.219 1.631 1.879 0 3.155-.886a5.9 5.9 0 0 0 2.021-2.34l2.447 1.24a7.9 7.9 0 0 1-1.808 2.412q-1.1 1.028-2.624 1.595-1.49.568-3.333.568m-5.708-11.134h10.672q-.107-1.524-.816-2.623a4.7 4.7 0 0 0-1.772-1.702q-1.1-.603-2.482-.603-1.348 0-2.589.603a5.1 5.1 0 0 0-2.056 1.702q-.816 1.098-.957 2.623m24.37 11.134q-2.625 0-4.645-1.17a8.5 8.5 0 0 1-3.156-3.298q-1.134-2.092-1.134-4.822t1.099-4.822a8.2 8.2 0 0 1 3.155-3.262q2.021-1.206 4.61-1.205 2.553 0 4.574 1.17t3.084 3.297l-2.588 1.17a5.14 5.14 0 0 0-2.056-2.198q-1.348-.816-3.085-.816-1.738 0-3.085.851-1.312.852-2.092 2.376-.744 1.489-.744 3.44t.744 3.474q.78 1.49 2.128 2.34 1.382.85 3.12.85 1.737 0 3.084-.885 1.384-.887 2.092-2.482l2.589 1.17q-1.064 2.268-3.085 3.545t-4.609 1.277m17.105 0q-2.588 0-4.006-1.348-1.418-1.347-1.418-3.793V54.916h-3.085V52.4h3.085v-5.531h2.836V52.4h5.319v2.517h-5.319v10.212q0 1.347.709 2.092.745.708 2.057.709.425 0 .815-.106.426-.142 1.099-.639l1.099 2.305q-.922.603-1.666.816a4.8 4.8 0 0 1-1.525.248m5.899-.426V52.4h2.836v3.156q1.064-1.667 2.73-2.447a8.4 8.4 0 0 1 3.546-.78v2.66q-1.56 0-3.014.531a5.04 5.04 0 0 0-2.34 1.667q-.922 1.17-.922 3.19v9.751zm11.322 0V52.4h2.836v17.728zm1.453-21.84q-.708 0-1.24-.533-.532-.531-.532-1.24 0-.745.532-1.242.532-.531 1.24-.532.746 0 1.241.532.532.497.532 1.241 0 .71-.532 1.241-.495.532-1.241.532m13.681 22.266q-2.624 0-4.644-1.17a8.46 8.46 0 0 1-3.156-3.298q-1.134-2.092-1.135-4.822 0-2.73 1.1-4.822a8.2 8.2 0 0 1 3.155-3.262q2.021-1.206 4.609-1.205 2.553 0 4.574 1.17t3.085 3.297l-2.588 1.17a5.14 5.14 0 0 0-2.057-2.198q-1.347-.816-3.084-.816t-3.085.851q-1.312.852-2.092 2.376-.745 1.489-.745 3.44t.745 3.474q.78 1.49 2.127 2.34 1.383.85 3.12.85t3.085-.885q1.383-.887 2.092-2.482l2.588 1.17q-1.063 2.268-3.084 3.545t-4.61 1.277m10.618-.426V52.4h2.836v17.728zm1.453-21.84q-.708 0-1.241-.533-.532-.531-.532-1.24 0-.745.532-1.242.533-.531 1.241-.532.745 0 1.241.532.532.497.532 1.241 0 .71-.532 1.241a1.63 1.63 0 0 1-1.241.532m12.44 22.266q-2.588 0-4.006-1.348-1.419-1.347-1.419-3.793V54.916h-3.084V52.4h3.084v-5.531h2.837V52.4h5.318v2.517h-5.318v10.212q0 1.347.709 2.092.745.708 2.056.709.426 0 .816-.106.426-.142 1.099-.639l1.099 2.305q-.922.603-1.666.816a4.8 4.8 0 0 1-1.525.248m7.494 7.09q-.673 0-1.56-.283a15 15 0 0 1-1.879-.673l1.064-2.376q.815.355 1.418.532.637.177.993.177.957 0 1.56-.532.638-.495 1.063-1.453l1.206-2.979-7.623-17.657h3.014l6.027 14.36 5.957-14.36h3.049l-8.509 20.21q-.674 1.56-1.419 2.695-.709 1.134-1.737 1.737t-2.624.603m-639.87 35.91q-2.588 0-4.007-1.348-1.418-1.347-1.418-3.793V97.916h-3.085V95.4h3.085v-5.531h2.836V95.4h5.319v2.517h-5.319v10.212q0 1.347.71 2.092.744.71 2.056.709.426 0 .816-.106.425-.142 1.099-.639l1.099 2.305q-.922.603-1.667.815a4.8 4.8 0 0 1-1.524.249m5.898-.426v-24.82h2.837v9.68q.886-1.453 2.304-2.233 1.419-.78 3.298-.78 2.055 0 3.616.85 1.56.816 2.411 2.624.887 1.81.851 4.751v9.928h-2.836v-9.077q0-2.623-.638-4.006-.603-1.382-1.667-1.88-1.064-.531-2.41-.531-2.341 0-3.653 1.666-1.276 1.632-1.276 4.645v9.183zm24.538.426q-3.12 0-4.893-1.419-1.738-1.453-1.738-4.006 0-2.695 1.773-4.113 1.809-1.454 5.035-1.454h4.928q-.178-2.517-1.24-3.758-1.064-1.277-3.192-1.277-1.454 0-2.517.603-1.029.567-1.702 1.844l-2.553-.993a8.2 8.2 0 0 1 1.631-2.127 6.2 6.2 0 0 1 2.234-1.383q1.276-.496 2.907-.496 2.482 0 4.078.992 1.631.958 2.446 2.872.816 1.88.78 4.681l-.035 9.608h-2.624l-.142-2.375a5.56 5.56 0 0 1-2.092 2.092q-1.312.709-3.084.709m.141-2.482q1.525 0 2.66-.638a4.46 4.46 0 0 0 1.737-1.88q.638-1.205.638-2.907v-.709h-4.36q-2.483 0-3.546.815-1.029.816-1.029 2.34 0 1.383 1.029 2.199 1.028.78 2.871.78m11.495 2.056V95.399h2.66l.141 2.66q.886-1.49 2.305-2.27 1.418-.815 3.297-.815 2.092 0 3.617.85 1.56.816 2.411 2.624.887 1.81.851 4.751v9.928h-2.837v-9.077q0-2.623-.602-4.006-.603-1.382-1.667-1.88-1.064-.531-2.411-.531-2.34 0-3.652 1.666-1.275 1.632-1.276 4.645v9.183zm38.915.426q-3.794 0-6.701-1.631a12.2 12.2 0 0 1-4.574-4.539q-1.63-2.907-1.631-6.63 0-3.794 1.631-6.666a11.9 11.9 0 0 1 4.574-4.538q2.907-1.667 6.701-1.667 1.986 0 3.865.674a12.8 12.8 0 0 1 3.439 1.773q1.56 1.134 2.518 2.588l-2.376 1.631q-.71-1.135-1.915-2.02a9.3 9.3 0 0 0-2.659-1.42 8.6 8.6 0 0 0-2.872-.496q-2.871 0-5.106 1.312a9.2 9.2 0 0 0-3.51 3.546q-1.276 2.27-1.276 5.283 0 2.908 1.241 5.212a9.45 9.45 0 0 0 3.51 3.581q2.27 1.312 5.141 1.312 2.376 0 4.219-.993 1.88-.993 2.943-2.765 1.064-1.774 1.099-4.042h-6.098v-2.589h8.97v2.34q0 3.227-1.453 5.638-1.419 2.41-3.936 3.758t-5.744 1.348m21.884 0q-2.588 0-4.61-1.17-1.984-1.206-3.12-3.298-1.134-2.091-1.134-4.822t1.099-4.822q1.134-2.092 3.12-3.262 2.02-1.206 4.574-1.205 2.623 0 4.609 1.205a8 8 0 0 1 3.12 3.262q1.135 2.092 1.135 4.822t-1.135 4.822a8.3 8.3 0 0 1-3.085 3.298q-1.985 1.17-4.573 1.17m0-2.624q1.772 0 3.084-.851 1.312-.85 2.057-2.34.78-1.49.78-3.475t-.78-3.475q-.745-1.488-2.092-2.34-1.347-.85-3.12-.85-1.738 0-3.085.85-1.312.852-2.092 2.34-.744 1.49-.744 3.475 0 1.95.744 3.475.78 1.49 2.127 2.34 1.383.85 3.121.851m19.731 2.624q-2.588 0-4.609-1.17a8.54 8.54 0 0 1-3.12-3.298q-1.135-2.091-1.135-4.822t1.099-4.822q1.135-2.092 3.121-3.262 2.021-1.206 4.573-1.205 2.624 0 4.61 1.205a8 8 0 0 1 3.12 3.262q1.134 2.092 1.135 4.822 0 2.73-1.135 4.822a8.3 8.3 0 0 1-3.085 3.298q-1.985 1.17-4.574 1.17m0-2.624q1.773 0 3.085-.851 1.312-.85 2.057-2.34.78-1.49.78-3.475t-.78-3.475q-.745-1.488-2.092-2.34-1.348-.85-3.121-.85-1.737 0-3.084.85-1.312.852-2.092 2.34-.745 1.49-.745 3.475 0 1.95.745 3.475.78 1.49 2.127 2.34 1.383.85 3.12.851m18.987 9.715q-1.701 0-3.12-.355-1.382-.319-2.375-.744-.957-.39-1.383-.674l1.064-2.305q.46.249 1.312.603.85.39 1.985.638 1.17.284 2.482.284 1.702 0 3.049-.709 1.383-.673 2.128-2.163.78-1.454.78-3.758v-1.879a7.15 7.15 0 0 1-2.518 2.517q-1.56.886-3.51.886-2.376 0-4.184-1.134-1.808-1.136-2.836-3.156-.993-2.056-.993-4.68 0-2.695.993-4.716 1.028-2.055 2.836-3.19t4.184-1.135q1.95 0 3.51.886t2.518 2.517V95.4h2.836v16.026q0 3.05-1.134 5.106-1.135 2.056-3.121 3.085-1.984 1.028-4.503 1.028m.568-10.105q1.56 0 2.765-.851t1.88-2.305q.673-1.49.673-3.439 0-1.88-.709-3.333-.673-1.488-1.879-2.305-1.17-.85-2.766-.85-1.666 0-2.978.85-1.277.816-2.021 2.305-.71 1.453-.709 3.333 0 1.95.744 3.439.745 1.454 2.021 2.305 1.313.85 2.979.851m12.315 2.588v-24.82h2.837v24.82zm14.72.426q-2.588 0-4.574-1.17-1.984-1.206-3.12-3.298-1.1-2.091-1.099-4.822 0-2.73 1.099-4.822 1.135-2.092 3.085-3.262 1.986-1.206 4.538-1.205 2.482 0 4.291 1.24 1.808 1.206 2.801 3.404.992 2.198.992 5.177h-13.934q.177 2.907 1.844 4.538 1.666 1.631 4.219 1.631 1.88 0 3.156-.886a5.9 5.9 0 0 0 2.021-2.34l2.446 1.241a7.9 7.9 0 0 1-1.808 2.411q-1.099 1.028-2.624 1.595-1.49.568-3.333.568m-5.708-11.134h10.672q-.107-1.525-.815-2.623a4.7 4.7 0 0 0-1.773-1.702q-1.1-.603-2.482-.603-1.347 0-2.588.603a5.1 5.1 0 0 0-2.057 1.702q-.816 1.098-.957 2.623m33.145 11.134q-2.056 0-3.652-.426-1.595-.46-2.765-1.241-1.17-.815-1.915-1.773a7.1 7.1 0 0 1-1.099-2.092l2.872-.992q.532 1.56 2.127 2.73 1.632 1.134 3.971 1.134 2.873 0 4.503-1.134 1.631-1.135 1.631-3.014 0-1.737-1.453-2.801-1.454-1.1-3.83-1.702l-2.73-.709a12.2 12.2 0 0 1-3.085-1.241 7.1 7.1 0 0 1-2.233-2.127q-.816-1.313-.816-3.12 0-3.369 2.163-5.248 2.198-1.914 6.311-1.915 2.447 0 4.22.816 1.772.78 2.872 2.02 1.134 1.207 1.595 2.625l-2.836.992a5.46 5.46 0 0 0-2.27-2.765q-1.595-1.029-3.864-1.028-2.376 0-3.794 1.17-1.383 1.134-1.383 3.12 0 1.701 1.099 2.624 1.1.886 2.872 1.311l2.73.674q3.617.85 5.531 2.837 1.951 1.95 1.951 4.219 0 1.95-.993 3.581-.993 1.596-2.943 2.553-1.915.922-4.787.922m19.951 0q-2.588 0-4.574-1.17a8.55 8.55 0 0 1-3.12-3.298q-1.1-2.091-1.099-4.822 0-2.73 1.099-4.822 1.135-2.092 3.085-3.262 1.985-1.206 4.538-1.205 2.482 0 4.29 1.24 1.81 1.206 2.801 3.404.993 2.198.993 5.177h-13.934q.177 2.907 1.844 4.538 1.666 1.631 4.219 1.631 1.88 0 3.156-.886a5.9 5.9 0 0 0 2.021-2.34l2.446 1.241a7.9 7.9 0 0 1-1.808 2.411q-1.1 1.028-2.624 1.595-1.49.568-3.333.568m-5.708-11.134h10.672q-.107-1.525-.815-2.623a4.7 4.7 0 0 0-1.773-1.702q-1.1-.603-2.482-.603-1.347 0-2.589.603a5.1 5.1 0 0 0-2.056 1.702q-.816 1.098-.957 2.623m22.065 11.134q-3.12 0-4.893-1.419-1.737-1.453-1.737-4.006 0-2.695 1.773-4.113 1.808-1.454 5.034-1.454h4.929q-.177-2.517-1.241-3.758-1.064-1.277-3.191-1.277-1.454 0-2.518.603-1.027.567-1.702 1.844l-2.552-.993a8.2 8.2 0 0 1 1.631-2.127 6.2 6.2 0 0 1 2.233-1.383q1.276-.496 2.908-.496 2.482 0 4.077.992 1.632.958 2.447 2.872.815 1.88.78 4.681l-.036 9.608h-2.623l-.142-2.375a5.57 5.57 0 0 1-2.092 2.092q-1.312.709-3.085.709m.142-2.482q1.525 0 2.659-.638a4.46 4.46 0 0 0 1.738-1.88q.638-1.205.638-2.907v-.709h-4.361q-2.482 0-3.546.815-1.028.816-1.028 2.34 0 1.383 1.028 2.199 1.028.78 2.872.78m11.495 2.056V95.399h2.836v3.156q1.064-1.667 2.73-2.447a8.4 8.4 0 0 1 3.546-.78v2.66q-1.56 0-3.014.531a5.04 5.04 0 0 0-2.34 1.667q-.922 1.17-.922 3.191v9.75zm19.051.426q-2.623 0-4.645-1.17a8.47 8.47 0 0 1-3.155-3.298q-1.135-2.091-1.135-4.822t1.099-4.822a8.23 8.23 0 0 1 3.156-3.262q2.021-1.206 4.609-1.205 2.553 0 4.574 1.17t3.085 3.297l-2.589 1.17a5.13 5.13 0 0 0-2.056-2.198q-1.347-.816-3.085-.816t-3.084.851q-1.312.852-2.092 2.376-.745 1.49-.745 3.439t.745 3.475q.78 1.49 2.127 2.34 1.383.85 3.12.851 1.738 0 3.085-.887 1.383-.886 2.092-2.481l2.588 1.17q-1.063 2.268-3.085 3.545-2.02 1.277-4.609 1.277m10.44-.426v-24.82h2.837v9.68q.886-1.453 2.304-2.233 1.419-.78 3.298-.78 2.056 0 3.616.85 1.56.816 2.411 2.624.887 1.81.851 4.751v9.928h-2.836v-9.077q0-2.623-.639-4.006-.602-1.382-1.666-1.88-1.064-.531-2.411-.531-2.34 0-3.652 1.666-1.276 1.632-1.276 4.645v9.183zm32.285 3.546a36 36 0 0 1-2.979-4.68 26.7 26.7 0 0 1-2.127-5.39 22 22 0 0 1-.78-5.886q0-3.084.78-5.885a25.8 25.8 0 0 1 2.127-5.354 35 35 0 0 1 2.979-4.716h2.907a40 40 0 0 0-2.978 4.858 27.8 27.8 0 0 0-2.128 5.389 21 21 0 0 0-.78 5.708q0 2.909.78 5.709a27.8 27.8 0 0 0 2.128 5.389 44 44 0 0 0 2.978 4.858zm15.068-3.12q-2.836 0-5.035-1.631-2.197-1.666-3.439-4.539-1.24-2.907-1.241-6.666 0-3.757 1.241-6.63 1.241-2.907 3.404-4.538 2.199-1.667 5.07-1.667t5.035 1.667q2.199 1.63 3.439 4.538 1.277 2.872 1.277 6.63t-1.241 6.666q-1.242 2.873-3.439 4.539-2.199 1.63-5.071 1.631m0-2.695q1.986 0 3.51-1.312 1.561-1.311 2.411-3.581.887-2.27.887-5.248 0-2.977-.887-5.247-.85-2.305-2.411-3.581-1.524-1.312-3.51-1.312-1.984 0-3.51 1.312-1.524 1.275-2.411 3.58-.85 2.27-.851 5.248 0 2.979.851 5.248.887 2.27 2.411 3.581 1.56 1.312 3.51 1.312m14.22 2.766q-.815 0-1.418-.568-.567-.602-.567-1.383 0-.815.567-1.382.603-.603 1.418-.603.816 0 1.383.603.567.567.567 1.382 0 .78-.567 1.383a1.88 1.88 0 0 1-1.383.568m12.39-.071q-1.809 0-3.297-.532-1.455-.567-2.518-1.454-1.028-.886-1.631-1.879l2.482-1.383q.39.496.957 1.135.603.603 1.525 1.028t2.269.425q2.412 0 3.865-1.382 1.454-1.383 1.454-3.475 0-1.596-.887-2.695-.85-1.1-2.482-1.666-1.63-.568-3.9-.568h-.674v-2.552h.674q3.05 0 4.822-1.029 1.808-1.063 1.808-3.013 0-1.065-.567-1.95-.568-.923-1.666-1.454-1.064-.567-2.482-.567a5.7 5.7 0 0 0-1.808.283 4.9 4.9 0 0 0-1.525.78q-.674.497-1.241 1.277l-2.34-1.348a7.3 7.3 0 0 1 1.702-1.914 8.4 8.4 0 0 1 2.411-1.277q1.347-.46 2.943-.46 2.163 0 3.864.85 1.738.851 2.73 2.34.993 1.455.993 3.298 0 1.88-1.063 3.262-1.065 1.347-2.908 2.163 2.127.921 3.333 2.552 1.24 1.596 1.241 3.901 0 2.197-1.099 3.864-1.063 1.632-2.908 2.553-1.844.887-4.077.887m24.744-.426-7.588-24.82h3.014l6.205 20.246 5.992-20.245h2.978l5.886 20.174 6.276-20.174h3.014l-7.694 24.819h-3.227l-5.744-19.962-5.921 19.962zm27.776 0v-24.82h2.837v9.68q.887-1.453 2.304-2.233 1.419-.78 3.298-.78 2.056 0 3.616.85 1.56.816 2.411 2.624.887 1.81.851 4.751v9.928h-2.836v-9.077q0-2.623-.638-4.006-.603-1.382-1.667-1.88-1.064-.531-2.411-.531-2.34 0-3.652 1.666-1.276 1.632-1.276 4.645v9.183zm32.108 0L479.519 95.4h2.943l5.957 14.431L494.34 95.4h2.978l-7.41 17.728zm18.542.426q-1.95 0-3.404-.568-1.454-.602-2.446-1.56-.959-.957-1.383-2.092l2.482-1.028q.602 1.206 1.808 1.95 1.206.745 2.659.745 1.667 0 2.801-.638 1.135-.674 1.135-1.88 0-1.098-.851-1.772-.815-.675-2.447-1.1l-1.702-.46q-2.41-.639-3.758-1.915-1.347-1.313-1.347-2.943 0-2.517 1.631-3.9 1.667-1.418 4.928-1.418 1.56 0 2.837.46a6.4 6.4 0 0 1 2.198 1.312 4.8 4.8 0 0 1 1.347 1.95l-2.482 1.1q-.46-1.206-1.524-1.738-1.064-.531-2.589-.532-1.63 0-2.552.71-.922.674-.922 1.914 0 .71.744 1.348.78.602 2.27.992l1.772.461q1.738.425 2.908 1.277 1.17.815 1.773 1.879.602 1.063.602 2.269 0 1.596-.851 2.766-.85 1.17-2.304 1.808-1.454.603-3.333.603m16.939-.426v-2.482q0-1.17.461-2.304a10.3 10.3 0 0 1 1.383-2.305 12.8 12.8 0 0 1 2.234-2.127l5.141-3.865a8 8 0 0 0 1.595-1.454 7.3 7.3 0 0 0 1.099-1.737q.39-.923.39-1.773 0-1.24-.602-2.234a4.36 4.36 0 0 0-1.702-1.63q-1.1-.604-2.589-.604-1.454 0-2.552.568a5 5 0 0 0-1.809 1.453 5.8 5.8 0 0 0-1.028 1.915l-3.049-.603q.425-1.595 1.524-2.978 1.135-1.382 2.872-2.234 1.738-.85 3.865-.85 2.483 0 4.29.957 1.81.921 2.801 2.552 1.029 1.596 1.029 3.653 0 1.95-1.064 3.687-1.063 1.737-3.085 3.368l-4.857 3.688q-1.419 1.063-2.199 2.233-.744 1.171-.851 2.447h12.41v2.659zm20.636.497q-.815 0-1.418-.568-.567-.602-.567-1.383 0-.815.567-1.382.603-.603 1.418-.603.816 0 1.383.603.567.567.568 1.382 0 .78-.568 1.383a1.88 1.88 0 0 1-1.383.568m12.319-25.742q2.624 0 4.326.993a7.45 7.45 0 0 1 2.73 2.624q1.064 1.665 1.489 3.865.462 2.162.461 4.609 0 3.19-.673 5.708-.675 2.518-1.915 4.291-1.24 1.737-3.014 2.659-1.737.922-3.971.922-1.843 0-3.687-.568a12.4 12.4 0 0 1-3.262-1.631l1.666-2.127q1.134.78 2.446 1.241 1.349.425 2.553.425 3.616 0 5.496-3.049 1.915-3.05 1.667-9.218l.638.602q-.852 2.163-2.73 3.44-1.88 1.276-4.432 1.276-2.412 0-4.255-1.028a7.9 7.9 0 0 1-2.908-2.872q-1.028-1.808-1.028-4.184 0-2.34 1.064-4.113a7.55 7.55 0 0 1 2.943-2.837q1.914-1.028 4.396-1.028m0 2.624q-1.56 0-2.801.71a4.9 4.9 0 0 0-1.95 1.914q-.674 1.205-.674 2.8 0 1.597.674 2.837a5.23 5.23 0 0 0 1.95 1.915q1.241.674 2.801.674 1.631 0 2.837-.674a4.97 4.97 0 0 0 1.914-1.915q.71-1.24.71-2.836t-.71-2.801a4.67 4.67 0 0 0-1.914-1.915q-1.206-.71-2.837-.709m17.687 22.621-7.587-24.82h3.013l6.205 20.246 5.992-20.245h2.979l5.885 20.174 6.276-20.174h3.014l-7.694 24.819h-3.227l-5.744-19.962-5.921 19.962zm27.776 0v-24.82h2.837v9.68q.886-1.453 2.305-2.233 1.418-.78 3.297-.78 2.056 0 3.616.85 1.56.816 2.412 2.624.885 1.81.85 4.751v9.928h-2.836v-9.077q0-2.623-.638-4.006-.603-1.382-1.667-1.88-1.064-.531-2.411-.531-2.34 0-3.652 1.666-1.276 1.632-1.276 4.645v9.183zm21.028 3.546h-2.908a37.6 37.6 0 0 0 2.978-4.858 27.7 27.7 0 0 0 2.128-5.389q.78-2.8.78-5.709 0-2.942-.78-5.708a27.7 27.7 0 0 0-2.128-5.39 34.6 34.6 0 0 0-2.978-4.857h2.908a30.7 30.7 0 0 1 2.978 4.716 25.8 25.8 0 0 1 2.127 5.354q.78 2.8.78 5.885 0 3.05-.78 5.886a26.7 26.7 0 0 1-2.127 5.39 31.5 31.5 0 0 1-2.978 4.68m8.473.532 2.021-7.482h3.191l-2.765 7.482zm20.051-4.078L644.354 95.4h2.872l4.609 13.757 4.68-13.757h2.837l4.609 13.651 4.61-13.651h2.872l-6.028 17.728h-2.837l-4.644-13.863-4.681 13.863zm23.069 0v-24.82h2.836v9.68q.886-1.453 2.305-2.233 1.418-.78 3.297-.78 2.057 0 3.617.85 1.56.816 2.411 2.624.886 1.81.851 4.751v9.928h-2.837v-9.077q0-2.623-.638-4.006-.603-1.382-1.666-1.88-1.065-.531-2.411-.531-2.341 0-3.652 1.666-1.277 1.632-1.277 4.645v9.183zm19.112 0V95.399h2.837v17.728zm1.454-21.84q-.709 0-1.241-.533-.532-.531-.532-1.24 0-.745.532-1.242.532-.531 1.241-.532.744 0 1.241.532.532.497.532 1.241 0 .71-.532 1.241a1.63 1.63 0 0 1-1.241.532m13.681 22.266q-2.624 0-4.645-1.17a8.5 8.5 0 0 1-3.156-3.298q-1.134-2.091-1.134-4.822t1.099-4.822a8.2 8.2 0 0 1 3.156-3.262q2.02-1.206 4.609-1.205 2.553 0 4.574 1.17t3.085 3.297l-2.589 1.17a5.14 5.14 0 0 0-2.056-2.198q-1.348-.816-3.085-.816t-3.085.851q-1.311.852-2.092 2.376-.744 1.49-.744 3.439t.744 3.475q.78 1.49 2.128 2.34 1.383.85 3.12.851 1.737 0 3.085-.887 1.383-.886 2.092-2.481l2.588 1.17q-1.063 2.268-3.085 3.545-2.021 1.277-4.609 1.277m10.44-.426v-24.82h2.836v9.68q.886-1.453 2.305-2.233 1.418-.78 3.297-.78 2.057 0 3.617.85 1.56.816 2.411 2.624.887 1.81.851 4.751v9.928h-2.837v-9.077q0-2.623-.638-4.006-.603-1.382-1.666-1.88-1.064-.531-2.411-.531-2.34 0-3.652 1.666-1.277 1.632-1.277 4.645v9.183zm27.037 0V95.399h2.836v17.728zm1.454-21.84q-.71 0-1.241-.533-.532-.531-.532-1.24 0-.745.532-1.242.531-.531 1.241-.532.744 0 1.241.532.531.497.531 1.241 0 .71-.531 1.241a1.63 1.63 0 0 1-1.241.532m11.979 22.266q-1.951 0-3.404-.568-1.454-.602-2.447-1.56-.957-.957-1.383-2.092l2.482-1.028q.603 1.206 1.809 1.95 1.205.745 2.659.745 1.667 0 2.801-.638 1.134-.674 1.135-1.88 0-1.098-.851-1.772-.816-.675-2.447-1.1l-1.702-.46q-2.41-.639-3.758-1.915-1.347-1.313-1.348-2.943 0-2.517 1.631-3.9 1.667-1.418 4.929-1.418 1.56 0 2.836.46a6.4 6.4 0 0 1 2.199 1.312 4.84 4.84 0 0 1 1.347 1.95l-2.482 1.1q-.46-1.206-1.525-1.738-1.063-.531-2.588-.532-1.63 0-2.553.71-.921.674-.922 1.914 0 .71.745 1.348.78.602 2.269.992l1.773.461q1.737.425 2.907 1.277 1.17.815 1.773 1.879.603 1.063.603 2.269 0 1.596-.851 2.766-.85 1.17-2.305 1.808-1.454.603-3.332.603m-703.234 43q-2.588 0-4.574-1.17a8.55 8.55 0 0 1-3.12-3.298q-1.1-2.092-1.1-4.822t1.1-4.822q1.134-2.092 3.084-3.262 1.986-1.206 4.539-1.205 2.483 0 4.29 1.241 1.81 1.205 2.801 3.403.993 2.199.993 5.177H49.453q.177 2.907 1.843 4.538 1.667 1.631 4.22 1.631 1.879 0 3.155-.886a5.9 5.9 0 0 0 2.021-2.34l2.447 1.241a7.9 7.9 0 0 1-1.809 2.411q-1.099 1.028-2.623 1.595-1.49.568-3.333.568m-5.709-11.134h10.673q-.107-1.524-.816-2.623a4.7 4.7 0 0 0-1.773-1.702q-1.099-.603-2.482-.603-1.346 0-2.588.603a5.1 5.1 0 0 0-2.056 1.702q-.816 1.099-.958 2.623m29.44 17.799v-10.069a7.1 7.1 0 0 1-2.517 2.517q-1.524.887-3.474.887-2.376 0-4.184-1.17t-2.837-3.262q-.993-2.128-.993-4.858 0-2.766.993-4.857 1.029-2.092 2.837-3.262t4.184-1.17q1.95 0 3.474.921a7.14 7.14 0 0 1 2.518 2.518l.142-3.014h2.694v24.819zm-5.353-9.254q1.56 0 2.765-.851 1.206-.85 1.88-2.375.708-1.525.709-3.475 0-1.95-.71-3.475-.672-1.524-1.879-2.375-1.205-.85-2.8-.851-1.667 0-2.979.851-1.276.85-2.021 2.375t-.745 3.475.745 3.475q.744 1.524 2.057 2.375 1.311.851 2.978.851m18.457 2.589q-2.057 0-3.617-.816-1.524-.851-2.41-2.659-.852-1.844-.852-4.751v-9.928h2.837v9.077q0 2.624.602 4.006.603 1.383 1.667 1.915 1.1.496 2.446.496 2.305 0 3.581-1.666 1.312-1.666 1.312-4.645v-9.183h2.837v17.728h-2.66l-.141-2.659q-.887 1.49-2.305 2.305-1.417.78-3.297.78m12.695-.426v-17.728h2.836v17.728zm1.454-21.841q-.71 0-1.241-.532-.532-.531-.532-1.241 0-.744.532-1.241.531-.532 1.241-.532.744 0 1.24.532.532.497.532 1.241 0 .71-.532 1.241-.496.532-1.24.532m11.021 21.841-7.41-17.728h2.943l5.956 14.431 5.922-14.431h2.978l-7.411 17.728zm17.524.426q-3.12 0-4.893-1.419-1.737-1.453-1.737-4.006 0-2.696 1.773-4.113 1.808-1.454 5.034-1.454h4.929q-.177-2.517-1.241-3.758-1.064-1.277-3.191-1.277-1.453 0-2.518.603-1.028.567-1.701 1.844l-2.553-.993a8.2 8.2 0 0 1 1.631-2.127 6.2 6.2 0 0 1 2.233-1.383q1.277-.496 2.908-.496 2.482 0 4.077.992 1.631.958 2.447 2.872.815 1.88.78 4.681l-.036 9.608h-2.623l-.142-2.375a5.57 5.57 0 0 1-2.092 2.092q-1.312.709-3.085.709m.142-2.482q1.524 0 2.659-.638a4.46 4.46 0 0 0 1.738-1.88q.638-1.204.638-2.907v-.709h-4.361q-2.482 0-3.546.815-1.028.816-1.028 2.34 0 1.383 1.028 2.199 1.029.78 2.872.78m11.495 2.056v-24.819h2.836v24.819zm14.72.426q-2.59 0-4.574-1.17a8.54 8.54 0 0 1-3.12-3.298q-1.1-2.092-1.1-4.822t1.1-4.822q1.134-2.092 3.084-3.262 1.986-1.206 4.539-1.205 2.481 0 4.29 1.241 1.808 1.205 2.801 3.403t.993 5.177h-13.935q.178 2.907 1.844 4.538t4.219 1.631q1.88 0 3.156-.886a5.9 5.9 0 0 0 2.021-2.34l2.447 1.241a7.9 7.9 0 0 1-1.809 2.411q-1.099 1.028-2.623 1.595-1.49.568-3.333.568m-5.709-11.134h10.673q-.106-1.524-.816-2.623a4.7 4.7 0 0 0-1.773-1.702q-1.1-.603-2.482-.603a5.85 5.85 0 0 0-2.588.603 5.1 5.1 0 0 0-2.056 1.702q-.816 1.099-.958 2.623m16.464 10.708v-17.728h2.659l.142 2.659q.887-1.49 2.304-2.269 1.419-.816 3.298-.815 2.091 0 3.616.851 1.56.815 2.411 2.623.887 1.81.851 4.751v9.928h-2.836v-9.077q0-2.623-.603-4.006t-1.666-1.879q-1.064-.532-2.412-.532-2.34 0-3.652 1.666-1.276 1.632-1.276 4.645v9.183zm25.601.426q-2.589 0-4.007-1.348t-1.418-3.793v-10.496h-3.085v-2.517h3.085v-5.531h2.836v5.531h5.319v2.517h-5.319v10.212q0 1.347.709 2.092.745.71 2.057.709.425 0 .815-.106.425-.142 1.1-.639l1.099 2.305q-.922.603-1.667.815a4.8 4.8 0 0 1-1.524.249m20.488 0q-2.588 0-4.006-1.348t-1.418-3.793v-10.496h-3.085v-2.517h3.085v-5.531h2.836v5.531h5.319v2.517h-5.319v10.212q0 1.347.709 2.092.745.71 2.057.709.425 0 .815-.106.426-.142 1.099-.639l1.099 2.305q-.922.603-1.666.815a4.8 4.8 0 0 1-1.525.249m13.631 0q-2.589 0-4.609-1.17-1.986-1.206-3.121-3.298-1.134-2.092-1.134-4.822t1.099-4.822q1.134-2.092 3.12-3.262 2.02-1.206 4.574-1.205 2.624 0 4.609 1.205a7.97 7.97 0 0 1 3.12 3.262q1.135 2.092 1.135 4.822t-1.135 4.822a8.3 8.3 0 0 1-3.084 3.298q-1.986 1.17-4.574 1.17m0-2.624q1.773 0 3.085-.851 1.312-.85 2.056-2.34.78-1.49.78-3.475t-.78-3.475q-.744-1.488-2.092-2.34-1.347-.85-3.12-.851-1.737 0-3.085.851-1.312.852-2.092 2.34-.744 1.49-.744 3.475 0 1.95.744 3.475.78 1.49 2.128 2.34 1.383.85 3.12.851m19.359 2.198v-24.819h4.681v24.819zm8.174 0v-17.728h4.68v17.728zm2.34-20.6q-1.064 0-1.879-.78-.816-.816-.816-1.915t.816-1.879q.815-.815 1.879-.815 1.1 0 1.879.815.816.78.816 1.879 0 1.1-.816 1.915a2.56 2.56 0 0 1-1.879.78m13.798 28.152q-2.022 0-3.581-.283-1.56-.284-2.624-.745-1.063-.46-1.738-.922l1.844-3.758q.496.284 1.312.638.816.39 1.95.638 1.135.284 2.624.284 1.418 0 2.482-.567 1.1-.532 1.702-1.702.638-1.135.638-2.908v-1.702a6.6 6.6 0 0 1-2.305 2.199q-1.418.78-3.226.78-2.446 0-4.255-1.064-1.773-1.064-2.766-2.978-.992-1.915-.992-4.539 0-2.765.992-4.786.993-2.057 2.766-3.156 1.809-1.134 4.255-1.134 1.808 0 3.226.851 1.419.815 2.305 2.34v-2.766h4.68v15.814q0 2.978-1.134 5.105-1.135 2.163-3.227 3.262-2.057 1.1-4.928 1.099m.425-11.984q1.206 0 2.092-.603a4.16 4.16 0 0 0 1.418-1.702q.497-1.099.497-2.481 0-1.419-.532-2.482-.497-1.065-1.418-1.667-.887-.603-2.092-.603-1.241 0-2.199.603a4.1 4.1 0 0 0-1.489 1.667q-.531 1.063-.567 2.482.036 1.382.567 2.481a4.33 4.33 0 0 0 1.489 1.702q.993.603 2.234.603m12.091 4.432v-24.819h4.681v9.36q.885-1.311 2.198-1.985 1.311-.71 2.943-.709 2.127 0 3.581.851 1.49.85 2.269 2.659.78 1.773.78 4.609v10.034h-4.68v-9.077q0-1.808-.426-2.801-.425-.993-1.17-1.418-.744-.46-1.737-.461-1.808-.035-2.801 1.099-.957 1.135-.957 3.369v9.289zm26.654.426q-2.943 0-4.467-1.454-1.49-1.454-1.489-4.148v-8.581h-2.872v-3.971h2.872v-5.531h4.68v5.531h4.432v3.971H313.3v7.552q0 1.135.496 1.738.497.567 1.454.567.354 0 .78-.142.426-.177.886-.496l1.631 3.51a7.4 7.4 0 0 1-1.914 1.028 5.3 5.3 0 0 1-2.057.426m6.41-.426v-17.728h4.68v17.728zm2.34-20.6q-1.064 0-1.879-.78-.816-.816-.816-1.915t.816-1.879q.815-.815 1.879-.815 1.1 0 1.879.815.816.78.816 1.879 0 1.1-.816 1.915a2.56 2.56 0 0 1-1.879.78m5.82 20.6v-17.728h4.397l.212 2.411q.852-1.383 2.163-2.092 1.348-.744 3.049-.744 2.092 0 3.582.851 1.489.85 2.269 2.659.78 1.773.744 4.609v10.034h-4.68v-9.077q0-1.808-.425-2.801-.39-.993-1.135-1.418-.744-.46-1.737-.461-1.81-.035-2.801 1.099-.958 1.135-.958 3.369v9.289zm27.294 7.552q-2.02 0-3.581-.283-1.56-.284-2.624-.745-1.064-.46-1.737-.922l1.843-3.758q.497.284 1.312.638.816.39 1.95.638 1.135.284 2.624.284 1.419 0 2.482-.567 1.1-.532 1.702-1.702.638-1.135.638-2.908v-1.702a6.6 6.6 0 0 1-2.304 2.199q-1.418.78-3.227.78-2.446 0-4.255-1.064-1.772-1.064-2.765-2.978t-.993-4.539q0-2.765.993-4.786.993-2.057 2.765-3.156 1.809-1.134 4.255-1.134 1.809 0 3.227.851 1.418.815 2.304 2.34v-2.766h4.681v15.814q0 2.978-1.135 5.105-1.135 2.163-3.227 3.262-2.056 1.1-4.928 1.099m.425-11.984q1.206 0 2.092-.603a4.16 4.16 0 0 0 1.419-1.702q.496-1.099.496-2.481 0-1.419-.532-2.482-.497-1.065-1.418-1.667-.886-.603-2.092-.603-1.24 0-2.198.603a4.06 4.06 0 0 0-1.489 1.667q-.532 1.063-.568 2.482.036 1.382.568 2.481.53 1.065 1.489 1.702.993.603 2.233.603m25.413 4.858q-3.192 0-4.964-1.419-1.737-1.418-1.737-4.006 0-2.836 1.879-4.255 1.914-1.454 5.354-1.454h4.184q-.249-1.63-1.029-2.482-.78-.886-2.233-.886-1.135 0-2.057.496-.921.497-1.56 1.525l-4.113-1.418q.497-1.135 1.454-2.199.957-1.098 2.482-1.772 1.56-.71 3.794-.709 2.694 0 4.467 1.028a6.2 6.2 0 0 1 2.659 2.907q.887 1.844.851 4.397l-.106 9.821h-4.361l-.071-2.056a4.5 4.5 0 0 1-1.915 1.843q-1.205.639-2.978.639m.78-3.901q1.135 0 2.056-.531a4.1 4.1 0 0 0 1.454-1.383q.532-.85.532-1.773v-.071h-2.659q-2.305 0-3.191.567-.887.532-.887 1.525 0 .78.709 1.241.71.425 1.986.425m19.832 3.475v-24.819h4.858v20.387h10.92v4.432zm18.208 0v-24.819h15.708v4.432h-10.85v5.637h9.36v4.326h-9.36v5.992h10.991v4.432zm20.044 0v-24.819h7.942q3.794 0 6.701 1.595 2.943 1.596 4.574 4.397 1.667 2.766 1.667 6.417 0 3.618-1.667 6.418-1.63 2.8-4.574 4.397-2.907 1.595-6.701 1.595zm4.857-4.538h3.085q1.702 0 3.156-.603a7.7 7.7 0 0 0 2.517-1.666 7.5 7.5 0 0 0 1.702-2.482q.603-1.455.603-3.121t-.603-3.084a7.4 7.4 0 0 0-1.702-2.518 7.7 7.7 0 0 0-2.517-1.666q-1.454-.603-3.156-.603h-3.085zm33.128 4.964q-2.446 0-4.254-1.135-1.773-1.135-2.766-3.226-.993-2.093-.993-4.929 0-2.872.993-4.928.993-2.092 2.766-3.227 1.807-1.134 4.254-1.134 1.738 0 3.085.744a5.65 5.65 0 0 1 2.234 2.057v-9.467h4.68v24.819h-4.432l-.142-2.482a6.4 6.4 0 0 1-2.269 2.163q-1.383.745-3.156.745m1.206-4.291q1.17 0 2.056-.567.922-.603 1.454-1.666.532-1.064.603-2.411v-.709q-.07-1.349-.603-2.376-.532-1.064-1.454-1.631-.922-.603-2.092-.603-1.276 0-2.269.638-.957.603-1.524 1.738-.532 1.134-.532 2.588t.567 2.588q.567 1.136 1.525 1.773.993.638 2.269.638m18.301 4.291q-2.127 0-3.617-.851-1.453-.852-2.233-2.624-.78-1.809-.78-4.645v-10.034h4.68v9.077q0 1.772.39 2.801.425.993 1.17 1.454.78.425 1.737.425 1.844.036 2.801-1.099.957-1.17.958-3.368v-9.29h4.68v17.728h-4.397l-.177-2.411a6.3 6.3 0 0 1-2.234 2.092q-1.311.745-2.978.745m13.005-.426v-17.728h4.68v3.262q1.1-1.666 2.766-2.482 1.701-.85 3.51-.851v4.539q-1.631 0-3.085.39-1.418.39-2.305 1.276-.885.886-.886 2.269v9.325zm12.882 0v-17.728h4.681v17.728zm2.341-20.6q-1.065 0-1.88-.78-.815-.816-.815-1.915t.815-1.879q.815-.815 1.88-.815 1.098 0 1.879.815.815.78.815 1.879 0 1.1-.815 1.915-.78.78-1.879.78m5.82 20.6v-17.728h4.396l.213 2.411q.85-1.383 2.163-2.092 1.347-.744 3.049-.744 2.092 0 3.581.851 1.49.85 2.269 2.659.78 1.773.745 4.609v10.034h-4.68v-9.077q0-1.808-.426-2.801-.39-.993-1.134-1.418-.745-.46-1.738-.461-1.808-.035-2.801 1.099-.957 1.135-.957 3.369v9.289zm27.293 7.552q-2.02 0-3.581-.283-1.56-.284-2.623-.745-1.064-.46-1.738-.922l1.844-3.758q.496.284 1.312.638.816.39 1.95.638 1.134.284 2.624.284 1.418 0 2.482-.567 1.098-.532 1.702-1.702.638-1.135.638-2.908v-1.702a6.6 6.6 0 0 1-2.305 2.199q-1.418.78-3.226.78-2.447 0-4.255-1.064-1.773-1.064-2.766-2.978t-.993-4.539q0-2.765.993-4.786.993-2.057 2.766-3.156 1.808-1.134 4.255-1.134 1.808 0 3.226.851 1.419.815 2.305 2.34v-2.766h4.68v15.814q0 2.978-1.135 5.105-1.134 2.163-3.226 3.262-2.056 1.1-4.929 1.099m.426-11.984q1.206 0 2.092-.603a4.17 4.17 0 0 0 1.418-1.702q.497-1.099.497-2.481 0-1.419-.532-2.482-.496-1.065-1.419-1.667-.886-.603-2.091-.603-1.242 0-2.199.603a4.1 4.1 0 0 0-1.489 1.667q-.532 1.063-.567 2.482.035 1.382.567 2.481a4.33 4.33 0 0 0 1.489 1.702q.993.603 2.234.603m27.611 4.858q-2.2 0-3.971-.639-1.773-.673-2.979-1.879a6.8 6.8 0 0 1-1.631-2.907l4.468-1.312q.248.425.673 1.064.426.602 1.17 1.028.745.425 1.951.425 1.772 0 2.801-.957 1.063-.993 1.063-2.553 0-1.063-.532-1.879-.531-.815-1.737-1.241-1.17-.46-3.085-.461h-1.489v-3.971h1.489q2.482 0 3.688-.851 1.206-.85 1.205-2.34 0-.851-.425-1.525a2.95 2.95 0 0 0-1.206-1.063q-.78-.39-1.808-.39-.673 0-1.383.248-.708.213-1.312.744-.567.497-.921 1.454l-4.397-1.312q.496-1.737 1.702-2.907a8 8 0 0 1 2.943-1.809 9.9 9.9 0 0 1 3.51-.638q2.304 0 4.148.887 1.845.85 2.908 2.375 1.063 1.526 1.063 3.51 0 1.95-1.099 3.333-1.063 1.349-2.872 2.163 2.057.957 3.262 2.553 1.206 1.56 1.206 3.687 0 2.235-1.17 3.865-1.17 1.595-3.085 2.447-1.914.85-4.148.851m19.291 0q-1.701 0-3.51-.568a10.3 10.3 0 0 1-3.226-1.702 6.8 6.8 0 0 1-2.092-2.801l4.432-1.311q.78 1.134 1.843 1.666a5.15 5.15 0 0 0 2.27.532q1.844 0 2.978-1.099 1.17-1.135 1.17-3.014 0-1.737-1.135-2.908-1.098-1.17-2.942-1.17-1.1 0-2.021.497-.923.497-1.419 1.17l-4.361-.957 1.489-13.58h14.041v4.396h-9.892l-.709 5.957a9.5 9.5 0 0 1 2.127-.851 7.9 7.9 0 0 1 2.517-.319q2.022 0 3.688.993a6.9 6.9 0 0 1 2.624 2.659q.992 1.666.992 3.9 0 2.518-1.134 4.432a8.14 8.14 0 0 1-3.12 3.014q-1.986 1.064-4.61 1.064m19.012-.426v-17.728h4.396l.213 2.305q.816-1.348 2.092-2.021 1.276-.71 2.837-.709 2.162 0 3.616.921 1.49.922 2.163 2.837.78-1.808 2.198-2.766 1.419-.993 3.298-.992 3.12 0 4.751 1.985 1.63 1.95 1.631 6.028v10.14h-4.68v-9.077q0-1.808-.39-2.801t-1.064-1.418q-.673-.46-1.596-.461-1.702-.035-2.623 1.099-.922 1.135-.922 3.369v9.289h-4.681v-9.077q0-1.808-.39-2.801-.354-.993-1.063-1.418-.673-.46-1.596-.461-1.701-.035-2.624 1.099-.886 1.135-.886 3.369v9.289zm30.368 0v-17.728h4.68v17.728zm2.34-20.6q-1.063 0-1.879-.78-.815-.816-.815-1.915t.815-1.879q.816-.815 1.879-.815 1.1 0 1.879.815.816.78.816 1.879 0 1.1-.816 1.915a2.56 2.56 0 0 1-1.879.78m5.82 20.6v-17.728h4.397l.213 2.411q.85-1.383 2.162-2.092 1.348-.744 3.05-.744 2.091 0 3.581.851 1.49.85 2.269 2.659.78 1.773.745 4.609v10.034h-4.681v-9.077q0-1.808-.425-2.801-.39-.993-1.135-1.418-.744-.46-1.737-.461-1.808-.035-2.801 1.099-.957 1.135-.957 3.369v9.289zm25.628.426q-2.128 0-3.617-.851-1.454-.852-2.234-2.624-.78-1.809-.78-4.645v-10.034h4.681v9.077q0 1.772.39 2.801.424.993 1.17 1.454.78.425 1.737.425 1.844.036 2.801-1.099.957-1.17.957-3.368v-9.29h4.681v17.728h-4.397l-.177-2.411a6.3 6.3 0 0 1-2.234 2.092q-1.312.745-2.978.745m20.309 0q-2.943 0-4.468-1.454-1.49-1.454-1.489-4.148v-8.581h-2.872v-3.971h2.872v-5.531h4.68v5.531h4.432v3.971h-4.432v7.552q0 1.135.497 1.738.496.567 1.453.567.355 0 .78-.142.426-.177.887-.496l1.631 3.51a7.5 7.5 0 0 1-1.915 1.028 5.3 5.3 0 0 1-2.056.426m13.827 0q-2.623 0-4.645-1.17a8.73 8.73 0 0 1-3.191-3.298q-1.134-2.092-1.134-4.822t1.17-4.822a8.64 8.64 0 0 1 3.262-3.262q2.091-1.206 4.786-1.205 2.34 0 4.291 1.241 1.985 1.205 3.155 3.581 1.206 2.34 1.206 5.708H720.53q.177 1.773 1.524 2.837a4.9 4.9 0 0 0 3.05 1.028q1.454 0 2.375-.603a4.3 4.3 0 0 0 1.418-1.631l4.184 1.631a8.8 8.8 0 0 1-1.95 2.588q-1.17 1.065-2.801 1.631-1.63.568-3.723.568m-3.829-11.524h7.658q-.106-1.098-.709-1.772a3.7 3.7 0 0 0-1.418-.993 4.4 4.4 0 0 0-1.595-.319q-.746 0-1.631.319a3.86 3.86 0 0 0-1.525.957q-.639.674-.78 1.808m21.243 11.524a10 10 0 0 1-3.191-.497 8.4 8.4 0 0 1-2.624-1.489 6.9 6.9 0 0 1-1.772-2.411l4.006-1.844q.532.852 1.454 1.49.921.602 2.127.602 1.17 0 1.808-.319.639-.354.639-.993 0-.638-.532-.921-.497-.32-1.383-.532l-1.631-.426q-2.553-.673-4.042-2.127-1.454-1.49-1.454-3.404 0-2.73 1.738-4.219 1.773-1.49 4.999-1.489 1.666 0 3.085.496 1.453.496 2.482 1.383 1.028.886 1.418 2.056l-3.865 1.773q-.248-.71-1.205-1.135-.958-.46-1.915-.461-.958 0-1.489.426-.497.39-.497 1.099 0 .46.497.78.496.284 1.418.497l2.305.567q1.737.424 2.765 1.383 1.064.922 1.525 2.092.496 1.135.496 2.233a4.52 4.52 0 0 1-.957 2.837q-.923 1.205-2.553 1.879-1.596.674-3.652.674m10.717.071a2 2 0 0 1-1.418-.568q-.568-.602-.568-1.383 0-.815.568-1.382.602-.603 1.418-.603a1.83 1.83 0 0 1 1.383.603q.567.567.567 1.382 0 .78-.567 1.383-.569.567-1.383.568M55.87 424.857q-2.421 0-4.317-1.05a7.87 7.87 0 0 1-2.946-2.924q-1.074-1.872-1.074-4.271 0-2.444 1.074-4.293a7.66 7.66 0 0 1 2.946-2.924q1.896-1.073 4.316-1.073 1.394 0 2.604.434 1.233.434 2.215 1.187a6.3 6.3 0 0 1 1.6 1.713l-2.148 1.371a4.8 4.8 0 0 0-1.119-1.188 5.1 5.1 0 0 0-1.507-.799 4.7 4.7 0 0 0-1.645-.297q-1.644 0-2.923.754a5.43 5.43 0 0 0-1.987 2.078q-.73 1.302-.73 3.037 0 1.69.707 3.015a5.4 5.4 0 0 0 2.01 2.078q1.302.754 2.992.754 1.302 0 2.33-.525a4.1 4.1 0 0 0 1.621-1.462q.617-.936.662-2.147h-3.814v-2.147h6.372v1.782q-.045 2.124-.982 3.677a6.2 6.2 0 0 1-2.535 2.398q-1.62.822-3.723.822m16.9 0q-2.375 0-4.202-1.05a7.6 7.6 0 0 1-2.878-2.924q-1.028-1.873-1.028-4.293t1.028-4.271a7.64 7.64 0 0 1 2.855-2.924q1.804-1.073 4.157-1.073 2.374 0 4.18 1.073a7.27 7.27 0 0 1 2.831 2.924q1.028 1.85 1.028 4.271t-1.028 4.293a7.3 7.3 0 0 1-2.809 2.924q-1.782 1.05-4.134 1.05m0-2.421q1.553 0 2.74-.753a5.15 5.15 0 0 0 1.85-2.056q.686-1.325.686-3.037 0-1.69-.685-3.015-.686-1.324-1.896-2.056-1.188-.753-2.763-.753-1.554 0-2.764.753-1.188.732-1.895 2.056-.686 1.302-.686 3.015 0 1.712.686 3.037a5.43 5.43 0 0 0 1.918 2.056q1.233.753 2.81.753m17.888 2.421q-2.376 0-4.203-1.05a7.6 7.6 0 0 1-2.877-2.924q-1.029-1.873-1.028-4.293t1.028-4.271a7.64 7.64 0 0 1 2.854-2.924q1.805-1.073 4.157-1.073 2.376 0 4.18 1.073a7.27 7.27 0 0 1 2.831 2.924q1.028 1.85 1.028 4.271t-1.028 4.293a7.3 7.3 0 0 1-2.809 2.924q-1.78 1.05-4.133 1.05m0-2.421q1.552 0 2.74-.753a5.15 5.15 0 0 0 1.85-2.056q.685-1.325.685-3.037 0-1.69-.685-3.015-.686-1.324-1.895-2.056-1.188-.753-2.764-.753-1.553 0-2.763.753-1.188.732-1.896 2.056-.685 1.302-.685 3.015 0 1.712.685 3.037a5.43 5.43 0 0 0 1.918 2.056q1.234.753 2.81.753m18.115 2.421q-2.42 0-4.316-1.05a7.86 7.86 0 0 1-2.946-2.924q-1.074-1.872-1.074-4.271 0-2.444 1.074-4.293a7.65 7.65 0 0 1 2.946-2.924q1.895-1.073 4.316-1.073 1.393 0 2.604.434a8 8 0 0 1 2.215 1.187 6.3 6.3 0 0 1 1.599 1.713l-2.147 1.371a4.8 4.8 0 0 0-1.119-1.188 5.1 5.1 0 0 0-1.507-.799 4.7 4.7 0 0 0-1.645-.297q-1.644 0-2.923.754a5.43 5.43 0 0 0-1.987 2.078q-.73 1.302-.731 3.037 0 1.69.708 3.015a5.4 5.4 0 0 0 2.01 2.078q1.302.754 2.992.754 1.302 0 2.329-.525a4.07 4.07 0 0 0 1.622-1.462q.617-.936.662-2.147h-3.814v-2.147h6.372v1.782q-.046 2.124-.982 3.677a6.2 6.2 0 0 1-2.535 2.398q-1.621.822-3.723.822m9.798-.274v-15.987h2.649v13.566h7.24v2.421zm12.111 0v-15.987h9.843v2.421h-7.194v4.248h6.349v2.375h-6.349v4.522h7.263v2.421zm24.233.274a8.5 8.5 0 0 1-2.307-.297 6.7 6.7 0 0 1-1.827-.822 6 6 0 0 1-1.301-1.165 4.2 4.2 0 0 1-.708-1.37l2.603-.799q.297.845 1.165 1.484.867.64 2.147.662 1.484 0 2.352-.616.868-.617.868-1.622 0-.914-.731-1.484-.73-.594-1.964-.914l-1.964-.502a7.4 7.4 0 0 1-2.033-.868 4.4 4.4 0 0 1-1.416-1.439q-.502-.868-.502-2.055 0-2.24 1.461-3.472 1.462-1.256 4.18-1.256 1.53 0 2.672.48 1.165.456 1.919 1.279a5.15 5.15 0 0 1 1.119 1.827l-2.558.822a3.2 3.2 0 0 0-1.188-1.508q-.845-.593-2.101-.593-1.302 0-2.056.616-.73.616-.73 1.713 0 .89.571 1.393.593.48 1.598.731l1.964.48q2.148.525 3.335 1.804 1.188 1.28 1.188 2.832 0 1.371-.663 2.421-.662 1.05-1.964 1.644-1.28.594-3.129.594m8.687-.274v-15.987h9.843v2.421h-7.194v4.248h6.349v2.375h-6.349v4.522h7.263v2.421zm11.781 0 6.372-15.987h2.809l6.395 15.987h-2.809l-1.576-3.928h-6.829l-1.553 3.928zm5.253-6.281h5.047l-2.512-6.394zm12.407 6.281v-15.987h5.641q1.644 0 2.9.639a4.84 4.84 0 0 1 1.964 1.782q.708 1.119.708 2.604 0 1.575-.868 2.786a5.14 5.14 0 0 1-2.283 1.758l3.791 6.418h-2.992l-3.426-5.915q-.137.023-.297.023h-2.489v5.892zm2.649-8.336h3.106q.776 0 1.37-.343.617-.342.982-.936.389-.594.389-1.347 0-1.143-.823-1.873-.822-.73-2.124-.731h-2.9zm18.813 8.61q-2.308 0-4.111-1.05a7.74 7.74 0 0 1-2.81-2.924q-1.005-1.873-1.005-4.293t1.005-4.271q1.029-1.873 2.81-2.924 1.78-1.073 4.088-1.073 1.553 0 2.923.571a7.7 7.7 0 0 1 2.421 1.53 6.7 6.7 0 0 1 1.644 2.284l-2.421.982a5 5 0 0 0-1.119-1.53 4.8 4.8 0 0 0-1.576-1.051 4.9 4.9 0 0 0-1.872-.365q-1.508 0-2.695.754-1.165.753-1.85 2.078-.663 1.302-.663 3.015 0 1.712.663 3.037.685 1.325 1.873 2.078 1.21.754 2.74.754 1.005 0 1.873-.388a5.2 5.2 0 0 0 1.576-1.119 5.3 5.3 0 0 0 1.119-1.645l2.421.982a7.5 7.5 0 0 1-1.622 2.399 7.6 7.6 0 0 1-2.443 1.598 7.8 7.8 0 0 1-2.969.571m9.584-.274v-15.987h2.649v6.578h8.04v-6.578h2.649v15.987h-2.649v-6.989h-8.04v6.989zM62.361 473.731q-4.124 0-7.277-2.232-3.153-2.28-4.948-6.21-1.795-3.978-1.795-9.12 0-5.143 1.795-9.072 1.794-3.978 4.9-6.21 3.153-2.28 7.277-2.28 4.123 0 7.277 2.28 3.201 2.232 4.997 6.21 1.794 3.928 1.795 9.072 0 5.142-1.795 9.12-1.796 3.93-4.949 6.21-3.153 2.232-7.277 2.232m0-6.016q2.184 0 3.881-1.455 1.747-1.504 2.717-4.075.97-2.62.97-6.016t-.97-6.016-2.717-4.075q-1.698-1.504-3.93-1.504-2.182 0-3.88 1.504-1.699 1.456-2.669 4.075-.921 2.62-.921 6.016t.921 6.016q.97 2.57 2.669 4.075 1.746 1.455 3.93 1.455m16.311 10.964 2.96-11.449h6.646l-4.755 11.449zm23.85-4.948q-3.007 0-5.434-.873-2.425-.922-4.075-2.572a9.34 9.34 0 0 1-2.231-3.978l6.112-1.795q.34.582.922 1.456.582.823 1.601 1.407 1.019.582 2.668.582 2.426 0 3.833-1.31 1.455-1.359 1.455-3.493 0-1.456-.727-2.571-.728-1.116-2.377-1.698-1.602-.631-4.221-.631H98.01v-5.434h2.038q3.396 0 5.045-1.164t1.65-3.202q0-1.164-.582-2.086-.583-.923-1.65-1.455-1.067-.534-2.474-.534-.922 0-1.892.339a4.8 4.8 0 0 0-1.795 1.019q-.777.68-1.261 1.989l-6.016-1.795q.68-2.377 2.328-3.978 1.698-1.65 4.027-2.474a13.6 13.6 0 0 1 4.803-.873q3.153 0 5.676 1.213 2.523 1.164 3.978 3.25t1.456 4.803q0 2.668-1.504 4.56-1.456 1.844-3.93 2.96 2.814 1.31 4.463 3.493 1.65 2.134 1.65 5.045 0 3.056-1.601 5.288-1.6 2.183-4.221 3.348-2.619 1.164-5.676 1.164m33.644-.582-10.042-33.96h6.743l6.889 23.772 6.55-23.772h6.598l6.597 23.432 6.889-23.432h6.744l-10.14 33.96h-6.986l-6.403-23.578-6.501 23.578zm40.224 0V439.14h6.647v13.584h15.718v-13.535h6.647v33.96h-6.647v-14.312h-15.718v14.312zm164.774 0v-4.9q0-1.407.873-3.105t2.426-3.396 3.638-3.154l5.143-3.687a14 14 0 0 0 1.989-1.649 8.1 8.1 0 0 0 1.552-1.989q.631-1.116.631-2.135 0-1.262-.631-2.28-.582-1.019-1.746-1.601t-2.863-.582q-1.455 0-2.619.582a5.4 5.4 0 0 0-1.844 1.553 6 6 0 0 0-1.019 2.086l-6.84-1.165q.485-2.426 2.086-4.511 1.6-2.087 4.172-3.348 2.62-1.31 5.919-1.31 3.785 0 6.501 1.359 2.717 1.357 4.172 3.735 1.504 2.33 1.504 5.434 0 3.153-1.747 5.627-1.697 2.426-4.706 4.561l-4.608 3.347a13 13 0 0 0-2.426 2.135 8.4 8.4 0 0 0-1.553 2.571h15.476v5.822zm26.191 5.53 2.96-11.449h6.646l-4.754 11.449zm23.85-40.024q3.444 0 5.822 1.262 2.426 1.212 3.929 3.396 1.553 2.183 2.232 5.094.728 2.862.728 6.161 0 3.93-.825 7.422-.825 3.445-2.523 6.113a12.5 12.5 0 0 1-4.269 4.172q-2.62 1.504-6.307 1.504-2.668 0-5.239-.776-2.523-.825-4.561-2.232l3.251-4.851a13 13 0 0 0 3.25 1.553q1.747.485 3.154.485 3.783 0 5.918-3.299 2.184-3.348 1.99-10.431l1.358.873q-1.116 2.669-3.445 4.318-2.328 1.601-5.579 1.601-3.202 0-5.724-1.504a10.93 10.93 0 0 1-3.93-4.123q-1.407-2.572-1.407-5.822 0-3.202 1.504-5.628 1.505-2.474 4.221-3.881 2.765-1.407 6.452-1.407m0 5.579q-1.6 0-2.862.728a5.33 5.33 0 0 0-1.989 1.989q-.728 1.261-.728 2.911t.728 2.959a5.23 5.23 0 0 0 1.989 2.038q1.262.728 2.862.728t2.862-.728a5.24 5.24 0 0 0 1.99-2.038q.776-1.31.776-2.959t-.776-2.911a5.34 5.34 0 0 0-1.99-1.989q-1.26-.728-2.862-.728m34.829 28.915-10.043-33.96h6.744l6.889 23.772 6.549-23.772h6.598l6.598 23.432 6.889-23.432h6.743l-10.139 33.96h-6.986l-6.404-23.578-6.501 23.578zm40.224 0V439.14h6.646v13.584h15.719v-13.535h6.646v33.96h-6.646v-14.312h-15.719v14.312zm-123.639-48.292q-2.308 0-4.111-1.05a7.74 7.74 0 0 1-2.81-2.924q-1.005-1.873-1.005-4.293t1.005-4.271q1.029-1.873 2.81-2.924 1.78-1.073 4.088-1.073 1.552 0 2.923.571a7.7 7.7 0 0 1 2.421 1.53 6.7 6.7 0 0 1 1.644 2.284l-2.421.982a5 5 0 0 0-1.119-1.53 4.8 4.8 0 0 0-1.576-1.051 4.9 4.9 0 0 0-1.872-.365q-1.508 0-2.695.754-1.165.753-1.85 2.078-.663 1.302-.663 3.015 0 1.712.663 3.037.685 1.325 1.873 2.078 1.21.754 2.74.754 1.005 0 1.873-.388a5.2 5.2 0 0 0 1.576-1.119 5.3 5.3 0 0 0 1.119-1.645l2.421.982a7.5 7.5 0 0 1-1.622 2.399 7.6 7.6 0 0 1-2.443 1.598 7.8 7.8 0 0 1-2.969.571m9.584-.274v-15.987h2.649v6.578h8.039v-6.578h2.65v15.987h-2.65v-6.989h-8.039v6.989zm15.439 0 6.372-15.987h2.809l6.395 15.987h-2.809l-1.576-3.928h-6.829l-1.553 3.928zm5.253-6.281h5.047l-2.512-6.394zm14.937 6.281v-13.566h-4.91v-2.421h12.47v2.421h-4.91v13.566zm17.09.274q-2.421 0-4.317-1.05a7.9 7.9 0 0 1-2.946-2.924q-1.073-1.872-1.073-4.271 0-2.444 1.073-4.293a7.66 7.66 0 0 1 2.946-2.924q1.896-1.073 4.317-1.073 1.393 0 2.603.434a8 8 0 0 1 2.216 1.187 6.3 6.3 0 0 1 1.598 1.713l-2.146 1.371a4.9 4.9 0 0 0-1.119-1.188 5.1 5.1 0 0 0-1.508-.799 4.7 4.7 0 0 0-1.644-.297q-1.644 0-2.924.754a5.44 5.44 0 0 0-1.987 2.078q-.73 1.302-.73 3.037 0 1.69.708 3.015a5.4 5.4 0 0 0 2.009 2.078q1.302.754 2.992.754 1.302 0 2.33-.525a4.07 4.07 0 0 0 1.621-1.462q.617-.936.663-2.147h-3.814v-2.147h6.372v1.782q-.046 2.124-.982 3.677a6.2 6.2 0 0 1-2.535 2.398q-1.622.822-3.723.822m9.798-.274v-15.987h5.641q1.644 0 2.9.662a4.9 4.9 0 0 1 1.964 1.85q.708 1.166.708 2.718 0 1.507-.662 2.695a4.85 4.85 0 0 1-1.85 1.873q-1.164.662-2.718.662h-3.334v5.527zm2.649-7.971h3.289q1.141 0 1.872-.776.731-.777.731-2.01 0-1.256-.822-2.033t-2.124-.776h-2.946zm14.223 7.971v-13.566h-4.911v-2.421h12.47v2.421h-4.91v13.566zm20.52.274a8.5 8.5 0 0 1-2.307-.297 6.7 6.7 0 0 1-1.827-.822 6 6 0 0 1-1.302-1.165 4.2 4.2 0 0 1-.708-1.37l2.604-.799q.297.845 1.165 1.484.867.64 2.146.662 1.485 0 2.353-.616.867-.617.868-1.622 0-.914-.731-1.484-.73-.594-1.964-.914l-1.964-.502a7.4 7.4 0 0 1-2.033-.868 4.4 4.4 0 0 1-1.416-1.439q-.502-.868-.502-2.055 0-2.24 1.461-3.472 1.462-1.256 4.18-1.256 1.53 0 2.672.48 1.164.456 1.918 1.279a5.1 5.1 0 0 1 1.119 1.827l-2.558.822a3.2 3.2 0 0 0-1.187-1.508q-.846-.593-2.101-.593-1.302 0-2.056.616-.73.616-.731 1.713 0 .89.571 1.393.594.48 1.599.731l1.964.48q2.147.525 3.335 1.804 1.187 1.28 1.187 2.832 0 1.371-.662 2.421t-1.964 1.644q-1.28.594-3.129.594m8.687-.274v-15.987h9.843v2.421h-7.194v4.248h6.349v2.375h-6.349v4.522h7.263v2.421zm18.724.274a8.5 8.5 0 0 1-2.307-.297 6.7 6.7 0 0 1-1.827-.822 6 6 0 0 1-1.302-1.165 4.2 4.2 0 0 1-.708-1.37l2.604-.799q.297.845 1.165 1.484.867.64 2.146.662 1.485 0 2.353-.616.868-.617.868-1.622 0-.914-.731-1.484-.73-.594-1.964-.914l-1.964-.502a7.4 7.4 0 0 1-2.033-.868 4.4 4.4 0 0 1-1.416-1.439q-.502-.868-.502-2.055 0-2.24 1.461-3.472 1.462-1.256 4.18-1.256 1.53 0 2.672.48 1.164.456 1.918 1.279a5.1 5.1 0 0 1 1.119 1.827l-2.558.822a3.2 3.2 0 0 0-1.187-1.508q-.846-.593-2.101-.593-1.302 0-2.056.616-.73.616-.731 1.713 0 .89.571 1.393.594.48 1.599.731l1.964.48q2.147.525 3.335 1.804 1.187 1.28 1.187 2.832 0 1.371-.662 2.421-.663 1.05-1.964 1.644-1.28.594-3.129.594m13.94 0a8.5 8.5 0 0 1-2.307-.297 6.7 6.7 0 0 1-1.827-.822 6 6 0 0 1-1.302-1.165 4.2 4.2 0 0 1-.708-1.37l2.604-.799q.296.845 1.164 1.484.868.64 2.147.662 1.485 0 2.353-.616.867-.617.867-1.622 0-.914-.73-1.484-.731-.594-1.965-.914l-1.964-.502a7.4 7.4 0 0 1-2.032-.868 4.4 4.4 0 0 1-1.416-1.439q-.503-.868-.503-2.055 0-2.24 1.462-3.472 1.461-1.256 4.179-1.256 1.53 0 2.673.48 1.164.456 1.918 1.279a5.15 5.15 0 0 1 1.119 1.827l-2.558.822a3.2 3.2 0 0 0-1.187-1.508q-.846-.593-2.102-.593-1.302 0-2.055.616-.73.616-.731 1.713 0 .89.571 1.393.594.48 1.599.731l1.964.48q2.147.525 3.334 1.804 1.188 1.28 1.188 2.832 0 1.371-.662 2.421-.663 1.05-1.965 1.644-1.278.594-3.128.594m8.686-.274v-15.987h2.65v15.987zm13.549.274q-2.375 0-4.202-1.05a7.6 7.6 0 0 1-2.878-2.924q-1.028-1.873-1.028-4.293t1.028-4.271a7.63 7.63 0 0 1 2.855-2.924q1.804-1.073 4.156-1.073 2.376 0 4.18 1.073a7.27 7.27 0 0 1 2.832 2.924q1.028 1.85 1.028 4.271t-1.028 4.293a7.3 7.3 0 0 1-2.809 2.924q-1.782 1.05-4.134 1.05m0-2.421q1.553 0 2.741-.753a5.15 5.15 0 0 0 1.849-2.056q.686-1.325.686-3.037 0-1.69-.686-3.015-.684-1.324-1.895-2.056-1.188-.753-2.764-.753-1.552 0-2.763.753-1.188.732-1.896 2.056-.685 1.302-.685 3.015 0 1.712.685 3.037a5.43 5.43 0 0 0 1.919 2.056q1.233.753 2.809.753m10.784 2.147v-15.987h2.741l8.496 11.556v-11.556h2.649v15.987h-2.649l-8.587-11.693v11.693z"/><path stroke="#9be6aa" stroke-linecap="round" stroke-linejoin="round" stroke-width="1.857" d="m80.658 345.776-1.857 1.857m-31.572-1.857 1.857 1.857m4.58-8.223 1.272 2.298m18.447-2.298-1.272 2.298m-8.59-4.004v2.627m-5.148 33.622h11.143m-9.284 5.572h7.43"/><path fill="#9be6aa" stroke="#9be6aa" stroke-linecap="round" stroke-linejoin="round" stroke-width="1.857" d="M63.943 346.097c-7.429 0-11.232 3.622-11.143 9.286.044 2.761.929 4.643 2.786 6.5 1.858 1.857 2.786 2.786 2.786 6.5h11.143c0-3.714.929-4.643 2.785-6.5 1.858-1.857 2.743-3.739 2.786-6.5.09-5.664-3.714-9.286-11.143-9.286"/><path stroke="#9be6aa" stroke-linecap="round" stroke-linejoin="round" stroke-width="1.857" d="m125.224 345.776-1.857 1.857M91.8 345.776l1.858 1.857m4.584-8.223 1.272 2.298m18.443-2.298-1.272 2.298m-8.585-4.004v2.627m-5.157 33.622h11.143m-9.287 5.572h7.429"/><path fill="#9be6aa" stroke="#9be6aa" stroke-linecap="round" stroke-linejoin="round" stroke-width="1.857" d="M108.512 346.097c-7.429 0-11.232 3.622-11.143 9.286.043 2.761.928 4.643 2.785 6.5s2.787 2.786 2.786 6.5h11.143c.001-3.714.929-4.643 2.786-6.5s2.743-3.739 2.786-6.5c.089-5.664-3.714-9.286-11.143-9.286"/><path stroke="#9be6aa" stroke-linecap="round" stroke-linejoin="round" stroke-width="1.857" d="m169.804 345.776-1.857 1.857m-31.568-1.857 1.857 1.857m4.575-8.223 1.272 2.298m18.448-2.298-1.272 2.298m-8.587-4.004v2.627m-5.154 33.622h11.143m-9.284 5.572h7.429"/><path fill="#9be6aa" stroke="#9be6aa" stroke-linecap="round" stroke-linejoin="round" stroke-width="1.857" d="M153.092 346.097c-7.429 0-11.232 3.622-11.143 9.286.043 2.761.928 4.643 2.786 6.5 1.857 1.857 2.786 2.786 2.785 6.5h11.143c.001-3.714.929-4.643 2.786-6.5s2.743-3.739 2.786-6.5c.089-5.664-3.714-9.286-11.143-9.286"/><path stroke="#9be6aa" stroke-linecap="round" stroke-linejoin="round" stroke-width="1.857" d="m370.482 228.21-1.857 1.857m-31.572-1.857 1.857 1.857m4.578-8.227 1.272 2.298m18.441-2.298-1.272 2.298m-8.579-3.996v2.627m-5.155 33.621h11.143m-9.283 5.573h7.428"/><path fill="#9be6aa" stroke="#9be6aa" stroke-linecap="round" stroke-linejoin="round" stroke-width="1.857" d="M353.766 228.531c-7.429 0-11.233 3.623-11.143 9.286.043 2.762.928 4.643 2.785 6.501 1.858 1.857 2.786 2.785 2.786 6.5h11.143c.001-3.715.929-4.643 2.786-6.5s2.742-3.739 2.786-6.501c.089-5.663-3.714-9.286-11.143-9.286"/><path stroke="#9be6aa" stroke-linecap="round" stroke-linejoin="round" stroke-width="1.857" d="m415.054 228.21-1.857 1.857m-31.572-1.857 1.857 1.857m4.584-8.227 1.273 2.298m18.442-2.298-1.272 2.298m-8.585-3.996v2.627m-5.156 33.621h11.143m-9.284 5.573h7.429"/><path fill="#9be6aa" stroke="#9be6aa" stroke-linecap="round" stroke-linejoin="round" stroke-width="1.857" d="M398.342 228.531c-7.429 0-11.232 3.623-11.143 9.286.043 2.762.928 4.643 2.786 6.501 1.857 1.857 2.786 2.785 2.785 6.5h11.143c.001-3.715.929-4.643 2.786-6.5s2.743-3.739 2.786-6.501c.089-5.663-3.714-9.286-11.143-9.286"/><path stroke="#9be6aa" stroke-linecap="round" stroke-linejoin="round" stroke-width="1.857" d="m459.625 228.21-1.857 1.857m-31.567-1.857 1.857 1.857m4.577-8.227 1.272 2.298m18.45-2.298-1.272 2.298m-8.589-3.996v2.627m-5.152 33.621h11.143m-9.288 5.573h7.429"/><path fill="#9be6aa" stroke="#9be6aa" stroke-linecap="round" stroke-linejoin="round" stroke-width="1.857" d="M442.908 228.531c-7.429 0-11.232 3.623-11.143 9.286.044 2.762.929 4.643 2.786 6.501 1.857 1.857 2.786 2.785 2.786 6.5h11.143c0-3.715.929-4.643 2.785-6.5s2.743-3.739 2.786-6.501c.089-5.663-3.714-9.286-11.143-9.286"/><path stroke="#9be6aa" stroke-linecap="round" stroke-linejoin="round" stroke-width="1.857" d="m504.197 228.21-1.857 1.857m-31.569-1.857 1.858 1.857m4.586-8.227 1.272 2.298m18.441-2.298-1.272 2.298m-8.584-3.996v2.627m-5.158 33.621h11.143m-9.286 5.573h7.429"/><path fill="#9be6aa" stroke="#9be6aa" stroke-linecap="round" stroke-linejoin="round" stroke-width="1.857" d="M487.484 228.531c-7.429 0-11.232 3.623-11.143 9.286.044 2.762.929 4.643 2.786 6.501 1.858 1.857 2.786 2.785 2.786 6.5h11.143c0-3.715.929-4.643 2.786-6.5s2.742-3.739 2.785-6.501c.09-5.663-3.714-9.286-11.143-9.286"/><path stroke="#9be6aa" stroke-linecap="round" stroke-linejoin="round" stroke-width="1.857" d="m548.773 228.21-1.857 1.857m-31.572-1.857 1.857 1.857m4.578-8.227 1.272 2.298m18.445-2.298-1.272 2.298m-8.585-3.996v2.627m-5.153 33.621h11.143m-9.287 5.573h7.429"/><path fill="#9be6aa" stroke="#9be6aa" stroke-linecap="round" stroke-linejoin="round" stroke-width="1.857" d="M532.061 228.531c-7.429 0-11.233 3.623-11.143 9.286.043 2.762.928 4.643 2.785 6.501 1.858 1.857 2.786 2.785 2.786 6.5h11.143c0-3.715.929-4.643 2.786-6.5s2.742-3.739 2.786-6.501c.089-5.663-3.714-9.286-11.143-9.286"/><path stroke="#9be6aa" stroke-linecap="round" stroke-linejoin="round" stroke-width="1.857" d="m593.344 228.21-1.858 1.857m-31.57-1.857 1.857 1.857m4.581-8.227 1.272 2.298m18.446-2.298-1.272 2.298m-8.585-3.996v2.627m-5.156 33.621h11.143m-9.284 5.573h7.429"/><path fill="#9be6aa" stroke="#9be6aa" stroke-linecap="round" stroke-linejoin="round" stroke-width="1.857" d="M576.627 228.531c-7.429 0-11.232 3.623-11.143 9.286.043 2.762.928 4.643 2.786 6.501 1.857 1.857 2.786 2.785 2.785 6.5h11.143c.001-3.715.929-4.643 2.786-6.5s2.743-3.739 2.786-6.501c.089-5.663-3.714-9.286-11.143-9.286"/><path stroke="#9be6aa" stroke-linecap="round" stroke-linejoin="round" stroke-width="1.857" d="m637.916 228.21-1.857 1.857m-31.573-1.857 1.858 1.857m4.586-8.227 1.272 2.298m18.441-2.298-1.273 2.298m-8.583-3.996v2.627m-5.154 33.621h11.143m-9.288 5.573h7.429"/><path fill="#9be6aa" stroke="#9be6aa" stroke-linecap="round" stroke-linejoin="round" stroke-width="1.857" d="M621.203 228.531c-7.429 0-11.232 3.623-11.143 9.286.044 2.762.928 4.643 2.786 6.501 1.857 1.857 2.786 2.785 2.786 6.5h11.143c0-3.715.929-4.643 2.785-6.5s2.743-3.739 2.786-6.501c.089-5.663-3.714-9.286-11.143-9.286"/><path stroke="#9be6aa" stroke-linecap="round" stroke-linejoin="round" stroke-width="1.857" d="m682.488 228.21-1.857 1.857m-31.572-1.857 1.857 1.857m4.584-8.227 1.272 2.298m18.443-2.298-1.272 2.298m-8.582-3.996v2.627m-5.156 33.621h11.143m-9.287 5.573h7.428"/><path fill="#9be6aa" stroke="#9be6aa" stroke-linecap="round" stroke-linejoin="round" stroke-width="1.857" d="M665.775 228.531c-7.429 0-11.232 3.623-11.143 9.286.044 2.762.929 4.643 2.786 6.501 1.858 1.857 2.786 2.785 2.786 6.5h11.143c0-3.715.929-4.643 2.786-6.5s2.742-3.739 2.785-6.501c.09-5.663-3.714-9.286-11.143-9.286"/><path stroke="#9be6aa" stroke-linecap="round" stroke-linejoin="round" stroke-width="1.857" d="m727.058 228.21-1.857 1.857m-31.57-1.857 1.857 1.857m4.58-8.227 1.272 2.298m18.443-2.298-1.272 2.298m-8.585-3.996v2.627m-5.153 33.621h11.144m-9.288 5.573h7.429"/><path fill="#9be6aa" stroke="#9be6aa" stroke-linecap="round" stroke-linejoin="round" stroke-width="1.857" d="M710.342 228.531c-7.429 0-11.232 3.623-11.143 9.286.043 2.762.928 4.643 2.786 6.501 1.857 1.857 2.786 2.785 2.785 6.5h11.143c.001-3.715.929-4.643 2.786-6.5s2.743-3.739 2.786-6.501c.089-5.663-3.714-9.286-11.143-9.286"/><path stroke="#9be6aa" stroke-linecap="round" stroke-linejoin="round" stroke-width="1.857" d="m370.482 282.005-1.857 1.857m-31.572-1.857 1.857 1.857m4.578-8.227 1.272 2.298m18.441-2.298-1.272 2.298m-8.579-3.998v2.627m-5.155 33.62h11.143m-9.283 5.573h7.428"/><path fill="#9be6aa" stroke="#9be6aa" stroke-linecap="round" stroke-linejoin="round" stroke-width="1.857" d="M353.77 282.326c-7.429 0-11.233 3.622-11.143 9.286.043 2.762.928 4.643 2.785 6.5s2.786 2.786 2.786 6.5h11.143c0-3.714.929-4.642 2.786-6.499 1.857-1.858 2.742-3.739 2.786-6.501.089-5.664-3.714-9.286-11.143-9.286"/><path stroke="#9be6aa" stroke-linecap="round" stroke-linejoin="round" stroke-width="1.857" d="m415.054 282.005-1.857 1.857m-31.572-1.857 1.857 1.857m4.584-8.227 1.273 2.298m18.442-2.298-1.272 2.298m-8.585-3.998v2.627m-5.156 33.62h11.143m-9.284 5.573h7.429"/><path fill="#9be6aa" stroke="#9be6aa" stroke-linecap="round" stroke-linejoin="round" stroke-width="1.857" d="M398.342 282.326c-7.429 0-11.232 3.622-11.143 9.286.043 2.762.928 4.643 2.786 6.5 1.857 1.858 2.786 2.786 2.785 6.5h11.143c.001-3.714.929-4.642 2.786-6.499 1.857-1.858 2.743-3.739 2.786-6.501.089-5.664-3.714-9.286-11.143-9.286"/><path stroke="#9be6aa" stroke-linecap="round" stroke-linejoin="round" stroke-width="1.857" d="m459.625 282.005-1.857 1.857m-31.567-1.857 1.857 1.857m4.577-8.227 1.272 2.298m18.45-2.298-1.272 2.298m-8.589-3.998v2.627m-5.152 33.62h11.143m-9.288 5.573h7.429"/><path fill="#9be6aa" stroke="#9be6aa" stroke-linecap="round" stroke-linejoin="round" stroke-width="1.857" d="M442.908 282.326c-7.429 0-11.232 3.622-11.143 9.286.044 2.762.929 4.643 2.786 6.5s2.786 2.786 2.786 6.5h11.143c0-3.714.929-4.642 2.785-6.499 1.857-1.858 2.743-3.739 2.786-6.501.089-5.664-3.714-9.286-11.143-9.286"/><path stroke="#9be6aa" stroke-linecap="round" stroke-linejoin="round" stroke-width="1.857" d="m504.201 282.005-1.857 1.857m-31.573-1.857 1.858 1.857m4.586-8.227 1.272 2.298m18.441-2.298-1.272 2.298m-8.584-3.998v2.627m-5.158 33.62h11.143m-9.286 5.573h7.429"/><path fill="#9be6aa" stroke="#9be6aa" stroke-linecap="round" stroke-linejoin="round" stroke-width="1.857" d="M487.484 282.326c-7.429 0-11.232 3.622-11.143 9.286.044 2.762.929 4.643 2.786 6.5 1.858 1.858 2.786 2.786 2.786 6.5h11.143c0-3.714.929-4.642 2.786-6.499 1.856-1.858 2.742-3.739 2.785-6.501.09-5.664-3.714-9.286-11.143-9.286"/><path stroke="#9be6aa" stroke-linecap="round" stroke-linejoin="round" stroke-width="1.857" d="m548.773 282.005-1.857 1.857m-31.572-1.857 1.857 1.857m4.578-8.227 1.272 2.298m18.445-2.298-1.272 2.298m-8.585-3.998v2.627m-5.153 33.62h11.143m-9.287 5.573h7.429"/><path fill="#9be6aa" stroke="#9be6aa" stroke-linecap="round" stroke-linejoin="round" stroke-width="1.857" d="M532.061 282.326c-7.429 0-11.233 3.622-11.143 9.286.043 2.762.928 4.643 2.785 6.5s2.786 2.786 2.786 6.5h11.143c0-3.714.929-4.642 2.786-6.499 1.857-1.858 2.742-3.739 2.786-6.501.089-5.664-3.714-9.286-11.143-9.286"/><path stroke="#9be6aa" stroke-linecap="round" stroke-linejoin="round" stroke-width="1.857" d="m593.344 282.005-1.858 1.857m-31.57-1.857 1.857 1.857m4.581-8.227 1.272 2.298m18.446-2.298-1.272 2.298m-8.585-3.998v2.627m-5.156 33.62h11.143m-9.284 5.573h7.429"/><path fill="#9be6aa" stroke="#9be6aa" stroke-linecap="round" stroke-linejoin="round" stroke-width="1.857" d="M576.627 282.326c-7.429 0-11.232 3.622-11.143 9.286.043 2.762.928 4.643 2.786 6.5 1.857 1.858 2.786 2.786 2.785 6.5h11.143c.001-3.714.929-4.642 2.786-6.499 1.857-1.858 2.743-3.739 2.786-6.501.089-5.664-3.714-9.286-11.143-9.286"/><path stroke="#9be6aa" stroke-linecap="round" stroke-linejoin="round" stroke-width="1.857" d="m637.916 282.005-1.857 1.857m-31.573-1.857 1.858 1.857m4.586-8.227 1.272 2.298m18.441-2.298-1.273 2.298m-8.583-3.998v2.627m-5.154 33.62h11.143m-9.288 5.573h7.429"/><path fill="#9be6aa" stroke="#9be6aa" stroke-linecap="round" stroke-linejoin="round" stroke-width="1.857" d="M621.203 282.326c-7.429 0-11.232 3.622-11.143 9.286.044 2.762.928 4.643 2.786 6.5 1.857 1.858 2.786 2.786 2.786 6.5h11.143c0-3.714.929-4.642 2.785-6.499 1.857-1.858 2.743-3.739 2.786-6.501.089-5.664-3.714-9.286-11.143-9.286"/><path stroke="#9be6aa" stroke-linecap="round" stroke-linejoin="round" stroke-width="1.857" d="m682.488 282.005-1.857 1.857m-31.572-1.857 1.857 1.857m4.584-8.227 1.272 2.298m18.443-2.298-1.272 2.298m-8.582-3.998v2.627m-5.156 33.62h11.143m-9.287 5.573h7.428"/><path fill="#9be6aa" stroke="#9be6aa" stroke-linecap="round" stroke-linejoin="round" stroke-width="1.857" d="M665.775 282.326c-7.429 0-11.232 3.622-11.143 9.286.044 2.762.929 4.643 2.786 6.5 1.858 1.858 2.786 2.786 2.786 6.5h11.143c0-3.714.929-4.642 2.786-6.499 1.857-1.858 2.742-3.739 2.785-6.501.09-5.664-3.714-9.286-11.143-9.286"/><path stroke="#9be6aa" stroke-linecap="round" stroke-linejoin="round" stroke-width="1.857" d="m727.058 282.005-1.857 1.857m-31.57-1.857 1.857 1.857m4.58-8.227 1.272 2.298m18.443-2.298-1.272 2.298m-8.585-3.998v2.627m-5.153 33.62h11.144m-9.288 5.573h7.429"/><path fill="#9be6aa" stroke="#9be6aa" stroke-linecap="round" stroke-linejoin="round" stroke-width="1.857" d="M710.342 282.326c-7.429 0-11.232 3.622-11.143 9.286.043 2.762.928 4.643 2.786 6.5 1.857 1.858 2.786 2.786 2.785 6.5h11.143c.001-3.714.929-4.642 2.786-6.499 1.857-1.858 2.743-3.739 2.786-6.501.089-5.664-3.714-9.286-11.143-9.286"/><path stroke="#9be6aa" stroke-linecap="round" stroke-linejoin="round" stroke-width="1.857" d="m771.638 282.005-1.857 1.857m-31.576-1.857 1.857 1.857m4.583-8.227 1.272 2.298m18.448-2.298-1.272 2.298m-8.587-3.998v2.627m-5.158 33.62h11.143m-9.284 5.573h7.429"/><path fill="#9be6aa" stroke="#9be6aa" stroke-linecap="round" stroke-linejoin="round" stroke-width="1.857" d="M754.922 282.326c-7.429 0-11.232 3.622-11.143 9.286.043 2.762.928 4.643 2.786 6.5 1.857 1.858 2.786 2.786 2.785 6.5h11.143c.001-3.714.929-4.642 2.786-6.499 1.857-1.858 2.743-3.739 2.786-6.501.089-5.664-3.714-9.286-11.143-9.286"/><path stroke="#9be6aa" stroke-linecap="round" stroke-linejoin="round" stroke-width="1.857" d="m370.482 335.796-1.857 1.857m-31.572-1.857 1.857 1.857m4.578-8.221 1.272 2.298m18.441-2.298-1.272 2.298m-8.579-4.002v2.627m-5.155 33.622h11.143m-9.283 5.571h7.428"/><path fill="#9be6aa" stroke="#9be6aa" stroke-linecap="round" stroke-linejoin="round" stroke-width="1.857" d="M353.766 336.117c-7.429 0-11.233 3.622-11.143 9.286.043 2.762.928 4.643 2.785 6.5s2.786 2.786 2.786 6.5h11.143c.001-3.714.929-4.642 2.786-6.499 1.857-1.858 2.742-3.739 2.786-6.501.089-5.664-3.714-9.286-11.143-9.286"/><path stroke="#9be6aa" stroke-linecap="round" stroke-linejoin="round" stroke-width="1.857" d="m415.054 335.796-1.857 1.857m-31.572-1.857 1.857 1.857m4.584-8.221 1.273 2.298m18.442-2.298-1.272 2.298m-8.585-4.002v2.627m-5.156 33.622h11.143m-9.284 5.571h7.429"/><path fill="#9be6aa" stroke="#9be6aa" stroke-linecap="round" stroke-linejoin="round" stroke-width="1.857" d="M398.342 336.117c-7.429 0-11.232 3.622-11.143 9.286.043 2.762.928 4.643 2.786 6.5 1.857 1.858 2.786 2.786 2.785 6.5h11.143c.001-3.714.929-4.642 2.786-6.499 1.857-1.858 2.743-3.739 2.786-6.501.089-5.664-3.714-9.286-11.143-9.286"/><path stroke="#9be6aa" stroke-linecap="round" stroke-linejoin="round" stroke-width="1.857" d="m459.625 335.796-1.857 1.857m-31.567-1.857 1.857 1.857m4.577-8.221 1.272 2.298m18.45-2.298-1.272 2.298m-8.589-4.002v2.627m-5.152 33.622h11.143m-9.288 5.571h7.429"/><path fill="#9be6aa" stroke="#9be6aa" stroke-linecap="round" stroke-linejoin="round" stroke-width="1.857" d="M442.908 336.117c-7.429 0-11.232 3.622-11.143 9.286.044 2.762.929 4.643 2.786 6.5s2.786 2.786 2.786 6.5h11.143c0-3.714.929-4.642 2.785-6.499 1.857-1.858 2.743-3.739 2.786-6.501.089-5.664-3.714-9.286-11.143-9.286"/><path stroke="#9be6aa" stroke-linecap="round" stroke-linejoin="round" stroke-width="1.857" d="m504.197 335.796-1.857 1.857m-31.569-1.857 1.858 1.857m4.586-8.221 1.272 2.298m18.441-2.298-1.272 2.298m-8.584-4.002v2.627m-5.158 33.622h11.143m-9.286 5.571h7.429"/><path fill="#9be6aa" stroke="#9be6aa" stroke-linecap="round" stroke-linejoin="round" stroke-width="1.857" d="M487.484 336.117c-7.429 0-11.232 3.622-11.143 9.286.044 2.762.929 4.643 2.786 6.5 1.858 1.858 2.786 2.786 2.786 6.5h11.143c0-3.714.929-4.642 2.786-6.499 1.856-1.858 2.742-3.739 2.785-6.501.09-5.664-3.714-9.286-11.143-9.286"/><path stroke="#9be6aa" stroke-linecap="round" stroke-linejoin="round" stroke-width="1.857" d="m548.773 335.796-1.857 1.857m-31.572-1.857 1.857 1.857m4.578-8.221 1.272 2.298m18.445-2.298-1.272 2.298m-8.585-4.002v2.627m-5.153 33.622h11.143m-9.287 5.571h7.429"/><path fill="#9be6aa" stroke="#9be6aa" stroke-linecap="round" stroke-linejoin="round" stroke-width="1.857" d="M532.061 336.117c-7.429 0-11.233 3.622-11.143 9.286.043 2.762.928 4.643 2.785 6.5s2.786 2.786 2.786 6.5h11.143c0-3.714.929-4.642 2.786-6.499 1.857-1.858 2.742-3.739 2.786-6.501.089-5.664-3.714-9.286-11.143-9.286"/><path stroke="#9be6aa" stroke-linecap="round" stroke-linejoin="round" stroke-width="1.857" d="m593.344 335.796-1.858 1.857m-31.57-1.857 1.857 1.857m4.581-8.221 1.272 2.298m18.446-2.298-1.272 2.298m-8.585-4.002v2.627m-5.156 33.622h11.143m-9.284 5.571h7.429"/><path fill="#9be6aa" stroke="#9be6aa" stroke-linecap="round" stroke-linejoin="round" stroke-width="1.857" d="M576.627 336.117c-7.429 0-11.232 3.622-11.143 9.286.043 2.762.928 4.643 2.786 6.5 1.857 1.858 2.786 2.786 2.785 6.5h11.143c.001-3.714.929-4.642 2.786-6.499 1.857-1.858 2.743-3.739 2.786-6.501.089-5.664-3.714-9.286-11.143-9.286"/><path stroke="#9be6aa" stroke-linecap="round" stroke-linejoin="round" stroke-width="1.857" d="m637.916 335.796-1.857 1.857m-31.573-1.857 1.858 1.857m4.586-8.221 1.272 2.298m18.441-2.298-1.273 2.298m-8.583-4.002v2.627m-5.154 33.622h11.143m-9.288 5.571h7.429"/><path fill="#9be6aa" stroke="#9be6aa" stroke-linecap="round" stroke-linejoin="round" stroke-width="1.857" d="M621.203 336.117c-7.429 0-11.232 3.622-11.143 9.286.044 2.762.928 4.643 2.786 6.5 1.857 1.858 2.786 2.786 2.786 6.5h11.143c0-3.714.929-4.642 2.785-6.499 1.857-1.858 2.743-3.739 2.786-6.501.089-5.664-3.714-9.286-11.143-9.286"/><path stroke="#9be6aa" stroke-linecap="round" stroke-linejoin="round" stroke-width="1.857" d="m682.488 335.796-1.857 1.857m-31.572-1.857 1.857 1.857m4.584-8.221 1.272 2.298m18.443-2.298-1.272 2.298m-8.582-4.002v2.627m-5.156 33.622h11.143m-9.287 5.571h7.428"/><path fill="#9be6aa" stroke="#9be6aa" stroke-linecap="round" stroke-linejoin="round" stroke-width="1.857" d="M665.775 336.117c-7.429 0-11.232 3.622-11.143 9.286.044 2.762.929 4.643 2.786 6.5 1.858 1.858 2.786 2.786 2.786 6.5h11.143c0-3.714.929-4.642 2.786-6.499 1.857-1.858 2.742-3.739 2.785-6.501.09-5.664-3.714-9.286-11.143-9.286"/><path stroke="#9be6aa" stroke-linecap="round" stroke-linejoin="round" stroke-width="1.857" d="m727.058 335.796-1.857 1.857m-31.57-1.857 1.857 1.857m4.58-8.221 1.272 2.298m18.443-2.298-1.272 2.298m-8.585-4.002v2.627m-5.153 33.622h11.144m-9.288 5.571h7.429"/><path fill="#9be6aa" stroke="#9be6aa" stroke-linecap="round" stroke-linejoin="round" stroke-width="1.857" d="M710.342 336.117c-7.429 0-11.232 3.622-11.143 9.286.043 2.762.928 4.643 2.786 6.5 1.857 1.858 2.786 2.786 2.785 6.5h11.143c.001-3.714.929-4.642 2.786-6.499 1.857-1.858 2.743-3.739 2.786-6.501.089-5.664-3.714-9.286-11.143-9.286"/><path stroke="#9be6aa" stroke-linecap="round" stroke-linejoin="round" stroke-width="1.857" d="m771.638 335.796-1.857 1.857m-31.576-1.857 1.857 1.857m4.583-8.221 1.272 2.298m18.448-2.298-1.272 2.298m-8.587-4.002v2.627m-5.158 33.622h11.143m-9.284 5.571h7.429"/><path fill="#9be6aa" stroke="#9be6aa" stroke-linecap="round" stroke-linejoin="round" stroke-width="1.857" d="M754.922 336.117c-7.429 0-11.232 3.622-11.143 9.286.043 2.762.928 4.643 2.786 6.5 1.857 1.858 2.786 2.786 2.785 6.5h11.143c.001-3.714.929-4.642 2.786-6.499 1.857-1.858 2.743-3.739 2.786-6.501.089-5.664-3.714-9.286-11.143-9.286"/></svg>