<svg width="424" height="622" viewBox="0 0 424 622" fill="none" xmlns="http://www.w3.org/2000/svg">
<g clip-path="url(#clip0_532_1244)">
<path d="M56.8976 71.5784C55.5187 71.5784 54.2527 71.4155 53.0994 71.0896C51.9712 70.7636 50.9684 70.3124 50.0909 69.7357C49.2385 69.1591 48.524 68.5198 47.9474 67.8178C47.3958 67.0908 47.0073 66.3387 46.7816 65.5615L51.0687 64.2453C51.3946 65.1729 52.0339 65.9877 52.9866 66.6897C53.9393 67.3916 55.1176 67.7552 56.5216 67.7802C58.1512 67.7802 59.4423 67.4418 60.395 66.7649C61.3477 66.088 61.824 65.198 61.824 64.0949C61.824 63.092 61.4229 62.2772 60.6206 61.6505C59.8184 60.9986 58.7403 60.4972 57.3865 60.1462L54.1524 59.3189C52.9239 58.993 51.8083 58.5166 50.8055 57.8899C49.8277 57.2631 49.0505 56.4734 48.4739 55.5207C47.9223 54.568 47.6466 53.4398 47.6466 52.1362C47.6466 49.6792 48.4488 47.7739 50.0533 46.42C51.6579 45.0412 53.9518 44.3517 56.9352 44.3517C58.615 44.3517 60.0816 44.615 61.3351 45.1414C62.6137 45.6429 63.6667 46.3448 64.494 47.2474C65.3214 48.1248 65.9356 49.1277 66.3367 50.2559L62.1249 51.6097C61.7488 50.6068 61.097 49.7795 60.1693 49.1277C59.2417 48.4758 58.0885 48.1499 56.7096 48.1499C55.2806 48.1499 54.1524 48.4884 53.3251 49.1653C52.5228 49.8422 52.1217 50.7823 52.1217 51.9857C52.1217 52.9635 52.435 53.7281 53.0618 54.2797C53.7136 54.8062 54.5911 55.2073 55.6942 55.4831L58.9283 56.2728C61.285 56.8494 63.1151 57.8397 64.4188 59.2437C65.7225 60.6476 66.3743 62.202 66.3743 63.9068C66.3743 65.4111 66.0108 66.7398 65.2838 67.8931C64.5567 69.0463 63.4787 69.9488 62.0496 70.6007C60.6457 71.2525 58.9283 71.5784 56.8976 71.5784ZM76.4303 71.5784C74.9511 71.5784 73.6725 71.2776 72.5945 70.6759C71.5415 70.0742 70.7267 69.1341 70.1501 67.8554C69.5735 66.5768 69.2852 64.9347 69.2852 62.9291V52.3242H73.4971V61.9513C73.4971 63.4305 73.6725 64.5837 74.0235 65.4111C74.3745 66.2384 74.8509 66.815 75.4526 67.1409C76.0793 67.4669 76.7938 67.6298 77.5961 67.6298C79.0251 67.6549 80.1282 67.1911 80.9054 66.2384C81.6826 65.2857 82.0712 63.9194 82.0712 62.1393V52.3242H86.2455V71.1272H82.2968L82.1088 68.4571C81.5071 69.46 80.7174 70.2372 79.7396 70.7887C78.787 71.3152 77.6839 71.5784 76.4303 71.5784ZM90.2131 71.1272V52.3242H94.1617L94.3498 54.8438C94.9264 53.866 95.666 53.1264 96.5685 52.625C97.4711 52.1236 98.499 51.8729 99.6522 51.8729C101.156 51.8729 102.435 52.2114 103.488 52.8883C104.541 53.5652 105.306 54.5931 105.782 55.972C106.334 54.6432 107.111 53.6279 108.114 52.9259C109.116 52.2239 110.295 51.8729 111.649 51.8729C113.83 51.8729 115.509 52.5749 116.688 53.9788C117.866 55.3577 118.443 57.4887 118.418 60.3719V71.1272H114.243V61.5C114.243 59.9958 114.08 58.8425 113.754 58.0403C113.429 57.213 112.99 56.6363 112.438 56.3104C111.887 55.9845 111.247 55.8215 110.52 55.8215C109.217 55.7965 108.201 56.2603 107.474 57.213C106.772 58.1656 106.421 59.532 106.421 61.312V71.1272H102.209V61.5C102.209 59.9958 102.046 58.8425 101.721 58.0403C101.42 57.213 100.993 56.6363 100.442 56.3104C99.8904 55.9845 99.2511 55.8215 98.524 55.8215C97.2204 55.7965 96.205 56.2603 95.478 57.213C94.776 58.1656 94.425 59.532 94.425 61.312V71.1272H90.2131ZM122.002 71.1272V52.3242H125.95L126.138 54.8438C126.715 53.866 127.455 53.1264 128.357 52.625C129.26 52.1236 130.288 51.8729 131.441 51.8729C132.945 51.8729 134.224 52.2114 135.277 52.8883C136.33 53.5652 137.094 54.5931 137.571 55.972C138.122 54.6432 138.899 53.6279 139.902 52.9259C140.905 52.2239 142.083 51.8729 143.437 51.8729C145.618 51.8729 147.298 52.5749 148.476 53.9788C149.655 55.3577 150.231 57.4887 150.206 60.3719V71.1272H146.032V61.5C146.032 59.9958 145.869 58.8425 145.543 58.0403C145.217 57.213 144.779 56.6363 144.227 56.3104C143.675 55.9845 143.036 55.8215 142.309 55.8215C141.005 55.7965 139.99 56.2603 139.263 57.213C138.561 58.1656 138.21 59.532 138.21 61.312V71.1272H133.998V61.5C133.998 59.9958 133.835 58.8425 133.509 58.0403C133.208 57.213 132.782 56.6363 132.231 56.3104C131.679 55.9845 131.04 55.8215 130.313 55.8215C129.009 55.7965 127.994 56.2603 127.267 57.213C126.565 58.1656 126.214 59.532 126.214 61.312V71.1272H122.002ZM159.845 71.5784C157.589 71.5784 155.834 71.077 154.58 70.0742C153.352 69.0714 152.738 67.6549 152.738 65.8247C152.738 63.8692 153.389 62.3775 154.693 61.3496C156.022 60.3217 157.865 59.8078 160.221 59.8078H164.997C164.847 58.4289 164.458 57.3759 163.831 56.6489C163.205 55.9218 162.277 55.5583 161.048 55.5583C160.146 55.5583 159.356 55.7463 158.679 56.1224C158.002 56.4984 157.426 57.0876 156.949 57.8899L153.264 56.5361C153.665 55.7087 154.192 54.9441 154.844 54.2421C155.52 53.515 156.36 52.9384 157.363 52.5122C158.391 52.086 159.619 51.8729 161.048 51.8729C162.879 51.8729 164.408 52.2364 165.636 52.9635C166.865 53.6655 167.767 54.6808 168.344 56.0096C168.946 57.3383 169.247 58.9428 169.247 60.8231L169.134 71.1272H165.26L165.148 68.8332C164.646 69.7107 163.944 70.3876 163.042 70.8639C162.164 71.3403 161.099 71.5784 159.845 71.5784ZM160.372 68.0435C161.299 68.0435 162.114 67.8429 162.816 67.4418C163.543 67.0156 164.095 66.4515 164.471 65.7495C164.872 65.0475 165.072 64.2703 165.072 63.4179V63.0419H161.575C159.895 63.0419 158.717 63.2801 158.04 63.7564C157.363 64.2077 157.025 64.8595 157.025 65.7119C157.025 66.439 157.313 67.0156 157.89 67.4418C158.491 67.8429 159.319 68.0435 160.372 68.0435ZM172.799 71.1272V52.3242H177.011V55.7463C177.763 54.568 178.741 53.6905 179.944 53.1139C181.148 52.5373 182.389 52.249 183.667 52.249V56.2728C182.514 56.2728 181.423 56.4358 180.396 56.7617C179.393 57.0625 178.578 57.5639 177.951 58.2659C177.324 58.9679 177.011 59.8955 177.011 61.0488V71.1272H172.799ZM186.011 71.1272V52.3242H190.186V71.1272H186.011ZM188.117 48.7516C187.44 48.7516 186.851 48.5134 186.35 48.0371C185.873 47.5357 185.635 46.9465 185.635 46.2696C185.635 45.5927 185.873 45.0161 186.35 44.5397C186.851 44.0634 187.44 43.8252 188.117 43.8252C188.794 43.8252 189.371 44.0634 189.847 44.5397C190.349 45.0161 190.599 45.5927 190.599 46.2696C190.599 46.9465 190.349 47.5357 189.847 48.0371C189.371 48.5134 188.794 48.7516 188.117 48.7516ZM193.497 71.1272V68.0059L203.5 55.8591H193.497V52.3242H208.803V55.4079L198.799 67.6298H208.878V71.1272H193.497ZM220.289 71.5784C218.459 71.5784 216.83 71.1648 215.401 70.3374C213.997 69.485 212.881 68.3193 212.054 66.8401C211.251 65.3609 210.85 63.6561 210.85 61.7257C210.85 59.7952 211.264 58.0904 212.091 56.6113C212.919 55.1321 214.047 53.9788 215.476 53.1515C216.93 52.2991 218.585 51.8729 220.44 51.8729C222.119 51.8729 223.636 52.3116 224.99 53.1891C226.344 54.0415 227.409 55.2825 228.187 56.9121C228.989 58.5417 229.39 60.4847 229.39 62.741H215.213C215.338 64.3205 215.915 65.5615 216.942 66.464C217.995 67.3666 219.236 67.8178 220.665 67.8178C221.819 67.8178 222.771 67.5671 223.523 67.0657C224.276 66.5392 224.865 65.8623 225.291 65.035L229.014 66.6145C228.487 67.6173 227.811 68.4947 226.983 69.2469C226.181 69.999 225.216 70.5756 224.088 70.9767C222.984 71.3779 221.718 71.5784 220.289 71.5784ZM215.476 59.5069H224.84C224.764 58.6044 224.501 57.8648 224.05 57.2882C223.599 56.6865 223.047 56.2352 222.395 55.9344C221.743 55.6335 221.054 55.4831 220.327 55.4831C219.625 55.4831 218.91 55.6335 218.183 55.9344C217.481 56.2101 216.88 56.6489 216.378 57.2506C215.877 57.8523 215.576 58.6044 215.476 59.5069ZM246.316 71.5784C244.06 71.5784 242.305 71.077 241.051 70.0742C239.823 69.0714 239.209 67.6549 239.209 65.8247C239.209 63.8692 239.861 62.3775 241.164 61.3496C242.493 60.3217 244.336 59.8078 246.692 59.8078H251.468C251.318 58.4289 250.929 57.3759 250.303 56.6489C249.676 55.9218 248.748 55.5583 247.52 55.5583C246.617 55.5583 245.827 55.7463 245.151 56.1224C244.474 56.4984 243.897 57.0876 243.421 57.8899L239.735 56.5361C240.136 55.7087 240.663 54.9441 241.315 54.2421C241.992 53.515 242.832 52.9384 243.834 52.5122C244.862 52.086 246.091 51.8729 247.52 51.8729C249.35 51.8729 250.879 52.2364 252.108 52.9635C253.336 53.6655 254.239 54.6808 254.815 56.0096C255.417 57.3383 255.718 58.9428 255.718 60.8231L255.605 71.1272H251.732L251.619 68.8332C251.117 69.7107 250.415 70.3876 249.513 70.8639C248.635 71.3403 247.57 71.5784 246.316 71.5784ZM246.843 68.0435C247.77 68.0435 248.585 67.8429 249.287 67.4418C250.014 67.0156 250.566 66.4515 250.942 65.7495C251.343 65.0475 251.544 64.2703 251.544 63.4179V63.0419H248.046C246.366 63.0419 245.188 63.2801 244.511 63.7564C243.834 64.2077 243.496 64.8595 243.496 65.7119C243.496 66.439 243.784 67.0156 244.361 67.4418C244.963 67.8429 245.79 68.0435 246.843 68.0435ZM277.782 71.5784C276.454 71.5784 275.288 71.2901 274.285 70.7135C273.282 70.1369 272.442 69.3221 271.765 68.2691L271.615 71.1272H267.629V44.803H271.841V55.107C272.492 54.0791 273.32 53.2894 274.323 52.7378C275.325 52.1612 276.479 51.8729 277.782 51.8729C279.487 51.8729 280.966 52.2866 282.22 53.1139C283.498 53.9162 284.489 55.0569 285.191 56.5361C285.918 57.9901 286.281 59.72 286.281 61.7257C286.281 63.7063 285.918 65.4361 285.191 66.9153C284.489 68.3945 283.498 69.5477 282.22 70.375C280.966 71.1773 279.487 71.5784 277.782 71.5784ZM276.729 67.7426C277.732 67.7426 278.622 67.4919 279.399 66.9905C280.177 66.464 280.791 65.7495 281.242 64.847C281.718 63.9444 281.957 62.904 281.957 61.7257C281.957 60.5474 281.731 59.5069 281.28 58.6044C280.854 57.7018 280.252 56.9999 279.475 56.4984C278.697 55.997 277.795 55.7463 276.767 55.7463C275.814 55.7463 274.962 55.997 274.21 56.4984C273.458 56.9999 272.869 57.7018 272.442 58.6044C272.041 59.5069 271.841 60.5474 271.841 61.7257C271.841 62.904 272.041 63.9444 272.442 64.847C272.869 65.7495 273.445 66.464 274.172 66.9905C274.924 67.4919 275.777 67.7426 276.729 67.7426ZM289.435 71.1272V52.3242H293.609V71.1272H289.435ZM291.54 48.7516C290.864 48.7516 290.274 48.5134 289.773 48.0371C289.297 47.5357 289.059 46.9465 289.059 46.2696C289.059 45.5927 289.297 45.0161 289.773 44.5397C290.274 44.0634 290.864 43.8252 291.54 43.8252C292.217 43.8252 292.794 44.0634 293.27 44.5397C293.772 45.0161 294.022 45.5927 294.022 46.2696C294.022 46.9465 293.772 47.5357 293.27 48.0371C292.794 48.5134 292.217 48.7516 291.54 48.7516ZM305.946 79.1372C304.617 79.1372 303.413 79.0244 302.335 78.7988C301.282 78.5731 300.392 78.3099 299.665 78.0091C298.938 77.7082 298.374 77.4199 297.973 77.1441L299.59 73.7596C299.941 73.9351 300.405 74.1482 300.982 74.3989C301.583 74.6747 302.285 74.9128 303.088 75.1134C303.89 75.314 304.792 75.4142 305.795 75.4142C306.873 75.4142 307.838 75.1886 308.691 74.7373C309.543 74.3111 310.208 73.6468 310.684 72.7442C311.16 71.8417 311.398 70.6884 311.398 69.2845V67.4042C310.747 68.4571 309.894 69.2845 308.841 69.8862C307.813 70.4628 306.635 70.7511 305.306 70.7511C303.601 70.7511 302.11 70.3625 300.831 69.5853C299.578 68.8081 298.587 67.7301 297.86 66.3512C297.158 64.9473 296.807 63.3302 296.807 61.5C296.807 59.5445 297.158 57.8523 297.86 56.4232C298.587 54.9942 299.578 53.8786 300.831 53.0763C302.11 52.274 303.601 51.8729 305.306 51.8729C306.635 51.8729 307.813 52.1738 308.841 52.7755C309.894 53.3771 310.747 54.2421 311.398 55.3703V52.3242H315.61V69.1717C315.61 71.3027 315.209 73.1077 314.407 74.5869C313.605 76.0912 312.476 77.2193 311.022 77.9715C309.568 78.7486 307.876 79.1372 305.946 79.1372ZM306.472 67.1785C307.425 67.1785 308.252 66.9278 308.954 66.4264C309.681 65.925 310.245 65.2481 310.646 64.3957C311.047 63.5182 311.248 62.5154 311.248 61.3872C311.248 60.234 311.047 59.2311 310.646 58.3787C310.245 57.5013 309.681 56.8244 308.954 56.348C308.227 55.8466 307.387 55.5959 306.434 55.5959C305.432 55.5959 304.542 55.8466 303.764 56.348C303.012 56.8244 302.411 57.5013 301.959 58.3787C301.533 59.2311 301.32 60.234 301.32 61.3872C301.32 62.5154 301.533 63.5182 301.959 64.3957C302.411 65.2481 303.025 65.925 303.802 66.4264C304.579 66.9278 305.469 67.1785 306.472 67.1785ZM54.9045 107.578C53.1997 107.578 51.708 107.177 50.4294 106.375C49.1759 105.548 48.1856 104.394 47.4585 102.915C46.7565 101.436 46.4056 99.7063 46.4056 97.7257C46.4056 95.72 46.7565 93.9901 47.4585 92.5361C48.1856 91.0569 49.1759 89.9162 50.4294 89.1139C51.708 88.2866 53.1997 87.8729 54.9045 87.8729C56.2082 87.8729 57.3614 88.1612 58.3643 88.7378C59.3671 89.2894 60.1944 90.0791 60.8462 91.107V80.803H65.0205V107.127H61.0343L60.8839 104.269C60.2571 105.322 59.4298 106.137 58.4019 106.714C57.399 107.29 56.2332 107.578 54.9045 107.578ZM55.9575 103.743C56.8851 103.743 57.7124 103.504 58.4395 103.028C59.1665 102.527 59.7306 101.85 60.1317 100.997C60.5579 100.12 60.7961 99.1171 60.8462 97.9889V97.4624C60.7961 96.3343 60.5579 95.344 60.1317 94.4916C59.7306 93.6141 59.1665 92.9372 58.4395 92.4608C57.7124 91.9845 56.8726 91.7463 55.9199 91.7463C54.917 91.7463 54.0145 91.997 53.2122 92.4984C52.435 92.9999 51.8208 93.7018 51.3695 94.6044C50.9433 95.5069 50.7302 96.5474 50.7302 97.7257C50.7302 98.904 50.9559 99.9444 51.4072 100.847C51.8584 101.75 52.4727 102.464 53.2498 102.991C54.0521 103.492 54.9546 103.743 55.9575 103.743ZM77.6137 107.578C75.7334 107.578 74.0537 107.165 72.5745 106.337C71.1204 105.485 69.9797 104.319 69.1524 102.84C68.3251 101.361 67.9114 99.6561 67.9114 97.7257C67.9114 95.7952 68.3125 94.0904 69.1148 92.6113C69.9421 91.1321 71.0828 89.9788 72.5369 89.1515C73.991 88.2991 75.6582 87.8729 77.5385 87.8729C79.4188 87.8729 81.086 88.2991 82.5401 89.1515C83.9942 89.9788 85.1224 91.1321 85.9246 92.6113C86.752 94.0904 87.1656 95.7952 87.1656 97.7257C87.1656 99.6561 86.7645 101.361 85.9623 102.84C85.16 104.319 84.0318 105.485 82.5777 106.337C81.1236 107.165 79.469 107.578 77.6137 107.578ZM77.6137 103.705C78.6416 103.705 79.5567 103.454 80.359 102.953C81.1612 102.426 81.788 101.724 82.2393 100.847C82.6905 99.9444 82.9162 98.904 82.9162 97.7257C82.9162 96.5474 82.678 95.5195 82.2017 94.642C81.7504 93.7394 81.1236 93.0375 80.3214 92.5361C79.5191 92.0096 78.5915 91.7463 77.5385 91.7463C76.4856 91.7463 75.5579 91.997 74.7557 92.4984C73.9534 92.9999 73.3267 93.7018 72.8754 94.6044C72.4241 95.5069 72.1985 96.5474 72.1985 97.7257C72.1985 98.904 72.4241 99.9444 72.8754 100.847C73.3517 101.724 73.991 102.426 74.7933 102.953C75.6206 103.454 76.5608 103.705 77.6137 103.705ZM98.9027 107.578C96.9723 107.578 95.2675 107.165 93.7883 106.337C92.3092 105.485 91.1434 104.319 90.291 102.84C89.4636 101.361 89.05 99.6561 89.05 97.7257C89.05 95.7952 89.4636 94.0904 90.291 92.6113C91.1434 91.1321 92.2966 89.9788 93.7507 89.1515C95.2299 88.2991 96.9222 87.8729 98.8275 87.8729C100.683 87.8729 102.362 88.3242 103.867 89.2267C105.371 90.1042 106.487 91.3703 107.214 93.0249L103.303 94.5292C102.902 93.7018 102.287 93.0375 101.46 92.5361C100.633 92.0346 99.6925 91.7839 98.6395 91.7839C97.6116 91.7839 96.6965 92.0472 95.8943 92.5737C95.092 93.0751 94.4652 93.777 94.014 94.6796C93.5627 95.5571 93.3371 96.5724 93.3371 97.7257C93.3371 98.8789 93.5627 99.9068 94.014 100.809C94.4903 101.687 95.1296 102.389 95.9319 102.915C96.7592 103.417 97.6868 103.667 98.7147 103.667C99.7677 103.667 100.708 103.404 101.535 102.878C102.362 102.326 102.977 101.587 103.378 100.659L107.289 102.163C106.562 103.868 105.446 105.197 103.942 106.149C102.463 107.102 100.783 107.578 98.9027 107.578ZM116.577 107.578C115.098 107.578 113.82 107.278 112.742 106.676C111.689 106.074 110.874 105.134 110.297 103.855C109.721 102.577 109.432 100.935 109.432 98.9291V88.3242H113.644V97.9513C113.644 99.4305 113.82 100.584 114.171 101.411C114.522 102.238 114.998 102.815 115.6 103.141C116.226 103.467 116.941 103.63 117.743 103.63C119.172 103.655 120.275 103.191 121.053 102.238C121.83 101.286 122.218 99.9194 122.218 98.1393V88.3242H126.393V107.127H122.444L122.256 104.457C121.654 105.46 120.865 106.237 119.887 106.789C118.934 107.315 117.831 107.578 116.577 107.578ZM130.36 107.127V88.3242H134.309L134.497 90.8438C135.074 89.866 135.813 89.1264 136.716 88.625C137.618 88.1236 138.646 87.8729 139.799 87.8729C141.304 87.8729 142.582 88.2114 143.635 88.8883C144.688 89.5652 145.453 90.5931 145.929 91.972C146.481 90.6432 147.258 89.6279 148.261 88.9259C149.264 88.2239 150.442 87.8729 151.796 87.8729C153.977 87.8729 155.657 88.5749 156.835 89.9788C158.013 91.3577 158.59 93.4887 158.565 96.3719V107.127H154.39V97.5C154.39 95.9958 154.228 94.8425 153.902 94.0403C153.576 93.213 153.137 92.6363 152.585 92.3104C152.034 91.9845 151.395 91.8215 150.667 91.8215C149.364 91.7965 148.348 92.2603 147.621 93.213C146.919 94.1656 146.568 95.532 146.568 97.312V107.127H142.357V97.5C142.357 95.9958 142.194 94.8425 141.868 94.0403C141.567 93.213 141.141 92.6363 140.589 92.3104C140.038 91.9845 139.398 91.8215 138.671 91.8215C137.368 91.7965 136.352 92.2603 135.625 93.213C134.923 94.1656 134.572 95.532 134.572 97.312V107.127H130.36ZM170.535 107.578C168.705 107.578 167.075 107.165 165.646 106.337C164.242 105.485 163.127 104.319 162.299 102.84C161.497 101.361 161.096 99.6561 161.096 97.7257C161.096 95.7952 161.51 94.0904 162.337 92.6113C163.164 91.1321 164.293 89.9788 165.722 89.1515C167.176 88.2991 168.83 87.8729 170.686 87.8729C172.365 87.8729 173.882 88.3116 175.236 89.1891C176.59 90.0415 177.655 91.2825 178.432 92.9121C179.235 94.5417 179.636 96.4847 179.636 98.741H165.458C165.584 100.32 166.16 101.561 167.188 102.464C168.241 103.367 169.482 103.818 170.911 103.818C172.064 103.818 173.017 103.567 173.769 103.066C174.521 102.539 175.111 101.862 175.537 101.035L179.26 102.614C178.733 103.617 178.056 104.495 177.229 105.247C176.427 105.999 175.461 106.576 174.333 106.977C173.23 107.378 171.964 107.578 170.535 107.578ZM165.722 95.5069H175.085C175.01 94.6044 174.747 93.8648 174.296 93.2882C173.844 92.6865 173.293 92.2352 172.641 91.9344C171.989 91.6335 171.3 91.4831 170.573 91.4831C169.871 91.4831 169.156 91.6335 168.429 91.9344C167.727 92.2101 167.126 92.6489 166.624 93.2506C166.123 93.8523 165.822 94.6044 165.722 95.5069ZM182.149 107.127V88.3242H186.098L186.286 90.9942C186.887 89.9914 187.665 89.2267 188.617 88.7002C189.595 88.1487 190.711 87.8729 191.964 87.8729C193.469 87.8729 194.747 88.1738 195.8 88.7755C196.878 89.3771 197.693 90.3173 198.244 91.5959C198.821 92.8494 199.109 94.4916 199.109 96.5223V107.127H194.898V97.5C194.898 95.9958 194.722 94.8425 194.371 94.0403C194.045 93.213 193.569 92.6363 192.942 92.3104C192.34 91.9845 191.626 91.8215 190.798 91.8215C189.395 91.7965 188.304 92.2603 187.527 93.213C186.75 94.1656 186.361 95.532 186.361 97.312V107.127H182.149ZM210.147 107.578C208.166 107.578 206.65 107.09 205.597 106.112C204.569 105.109 204.055 103.68 204.055 101.825V91.9344H200.934V88.3242H204.055V82.4577H208.229V88.3242H213.306V91.9344H208.229V101.035C208.229 101.912 208.43 102.577 208.831 103.028C209.257 103.479 209.871 103.705 210.673 103.705C210.924 103.705 211.2 103.655 211.501 103.555C211.802 103.454 212.14 103.266 212.516 102.991L214.058 106.187C213.406 106.638 212.754 106.977 212.102 107.202C211.451 107.453 210.799 107.578 210.147 107.578Z" fill="#9BE6AA"/>
<path d="M70.1106 128.476C74.319 128.476 77.8754 129.246 80.7798 130.787C83.7435 132.269 86.1441 134.344 87.9815 137.011C89.8783 139.678 91.2416 142.79 92.0714 146.347C92.9605 149.844 93.405 153.608 93.405 157.638C93.405 162.439 92.9012 166.974 91.8936 171.241C90.8859 175.45 89.3448 179.184 87.2703 182.444C85.255 185.645 82.6469 188.194 79.4462 190.09C76.2454 191.928 72.3927 192.847 67.8879 192.847C64.6279 192.847 61.4271 192.372 58.2856 191.424C55.2034 190.416 52.4176 189.053 49.9281 187.334L55.8851 178.443C57.7818 179.688 59.7675 180.636 61.842 181.288C63.9759 181.881 65.9022 182.177 67.6212 182.177C72.2445 182.177 75.8602 180.162 78.4682 176.131C81.1355 172.042 82.3506 165.67 82.1135 157.016L84.603 158.616C83.2397 161.876 81.1355 164.514 78.2904 166.529C75.4452 168.485 72.037 169.463 68.0657 169.463C64.1537 169.463 60.6566 168.545 57.5743 166.707C54.4921 164.81 52.0916 162.291 50.3726 159.15C48.6537 156.008 47.7943 152.452 47.7943 148.481C47.7943 144.568 48.713 141.131 50.5505 138.167C52.3879 135.144 54.9663 132.773 58.2856 131.054C61.6642 129.335 65.6059 128.476 70.1106 128.476ZM70.1106 138.7C68.1546 138.7 66.4061 139.145 64.865 140.034C63.3239 140.923 62.1087 142.138 61.2196 143.679C60.3306 145.22 59.886 146.999 59.886 149.014C59.886 151.029 60.3306 152.837 61.2196 154.437C62.1087 156.038 63.3239 157.283 64.865 158.172C66.4061 159.061 68.1546 159.505 70.1106 159.505C72.0667 159.505 73.8152 159.061 75.3563 158.172C76.8974 157.283 78.1125 156.038 79.0016 154.437C79.95 152.837 80.4242 151.029 80.4242 149.014C80.4242 146.999 79.95 145.22 79.0016 143.679C78.1125 142.138 76.8974 140.923 75.3563 140.034C73.8152 139.145 72.0667 138.7 70.1106 138.7ZM106.001 193.024C104.045 193.024 102.356 192.313 100.934 190.891C99.5702 189.468 98.8886 187.779 98.8886 185.823C98.8886 183.926 99.5702 182.266 100.934 180.844C102.356 179.421 104.045 178.71 106.001 178.71C107.957 178.71 109.617 179.421 110.98 180.844C112.403 182.266 113.114 183.926 113.114 185.823C113.114 187.779 112.403 189.468 110.98 190.891C109.617 192.313 107.957 193.024 106.001 193.024ZM142.423 192.758C137.444 192.758 133.206 192.046 129.709 190.624C126.212 189.142 123.544 187.127 121.707 184.578C119.929 181.97 119.04 178.947 119.04 175.509C119.04 171.775 119.958 168.515 121.796 165.729C123.692 162.884 126.389 160.691 129.887 159.15C127.041 157.786 124.848 155.919 123.307 153.548C121.825 151.118 121.084 148.362 121.084 145.28C121.084 141.96 121.914 139.026 123.574 136.478C125.293 133.929 127.753 131.943 130.953 130.521C134.154 129.098 137.977 128.387 142.423 128.387C146.928 128.387 150.78 129.098 153.981 130.521C157.182 131.943 159.642 133.929 161.361 136.478C163.08 139.026 163.939 141.96 163.939 145.28C163.939 148.362 163.168 151.118 161.627 153.548C160.086 155.919 157.893 157.786 155.048 159.15C158.545 160.691 161.242 162.884 163.139 165.729C165.036 168.515 165.984 171.775 165.984 175.509C165.984 178.947 165.065 181.97 163.228 184.578C161.39 187.127 158.723 189.142 155.226 190.624C151.729 192.046 147.461 192.758 142.423 192.758ZM142.423 182.622C145.683 182.622 148.35 181.822 150.425 180.221C152.499 178.562 153.537 176.458 153.537 173.909C153.537 171.123 152.499 168.871 150.425 167.152C148.35 165.433 145.683 164.573 142.423 164.573C140.289 164.573 138.392 164.958 136.733 165.729C135.132 166.5 133.858 167.596 132.909 169.019C131.961 170.441 131.487 172.071 131.487 173.909C131.487 175.628 131.961 177.139 132.909 178.443C133.858 179.747 135.132 180.784 136.733 181.555C138.392 182.266 140.289 182.622 142.423 182.622ZM142.423 154.882C145.268 154.882 147.58 154.111 149.358 152.57C151.195 151.029 152.114 149.073 152.114 146.702C152.114 144.154 151.195 142.109 149.358 140.568C147.58 138.967 145.268 138.167 142.423 138.167C139.637 138.167 137.355 138.967 135.577 140.568C133.799 142.109 132.909 144.154 132.909 146.702C132.909 149.073 133.799 151.029 135.577 152.57C137.355 154.111 139.637 154.882 142.423 154.882Z" fill="#9BE6AA"/>
<path d="M182.123 200.752C180.507 200.752 179.074 200.638 177.827 200.411C176.579 200.184 175.529 199.887 174.679 199.518C173.828 199.149 173.133 198.781 172.594 198.412L174.806 193.903C175.203 194.13 175.728 194.385 176.38 194.668C177.033 194.98 177.812 195.236 178.72 195.434C179.627 195.661 180.677 195.775 181.868 195.775C183.002 195.775 183.995 195.548 184.846 195.094C185.725 194.668 186.405 193.988 186.887 193.052C187.398 192.144 187.653 190.982 187.653 189.564V187.522C186.944 188.628 186.023 189.507 184.888 190.159C183.754 190.783 182.463 191.095 181.017 191.095C179.06 191.095 177.359 190.67 175.912 189.819C174.494 188.968 173.388 187.777 172.594 186.246C171.8 184.714 171.403 182.899 171.403 180.801C171.403 178.589 171.8 176.674 172.594 175.058C173.388 173.413 174.494 172.151 175.912 171.272C177.359 170.364 179.06 169.911 181.017 169.911C182.463 169.911 183.754 170.251 184.888 170.931C186.023 171.584 186.944 172.52 187.653 173.739V170.421H193.268V189.394C193.268 191.776 192.815 193.818 191.907 195.519C191 197.249 189.709 198.554 188.036 199.433C186.391 200.312 184.42 200.752 182.123 200.752ZM182.634 186.373C183.598 186.373 184.434 186.132 185.143 185.65C185.881 185.14 186.448 184.459 186.845 183.608C187.242 182.729 187.441 181.737 187.441 180.63C187.441 179.496 187.228 178.504 186.802 177.653C186.405 176.802 185.838 176.135 185.101 175.653C184.392 175.171 183.555 174.93 182.591 174.93C181.598 174.93 180.719 175.171 179.954 175.653C179.188 176.135 178.592 176.802 178.167 177.653C177.742 178.504 177.515 179.496 177.486 180.63C177.515 181.737 177.742 182.729 178.167 183.608C178.592 184.459 179.188 185.14 179.954 185.65C180.748 186.132 181.641 186.373 182.634 186.373ZM220.549 192.201C217.656 192.201 215.089 191.549 212.849 190.244C210.608 188.911 208.85 187.096 207.574 184.799C206.298 182.474 205.66 179.808 205.66 176.802C205.66 173.796 206.298 171.144 207.574 168.847C208.85 166.522 210.594 164.707 212.806 163.402C215.047 162.069 217.613 161.403 220.506 161.403C222.548 161.403 224.448 161.771 226.206 162.509C227.965 163.218 229.496 164.224 230.801 165.529C232.133 166.805 233.154 168.28 233.863 169.953L228.461 171.952C227.979 170.903 227.341 169.996 226.547 169.23C225.753 168.436 224.845 167.826 223.824 167.401C222.803 166.947 221.697 166.72 220.506 166.72C218.776 166.72 217.23 167.16 215.869 168.039C214.536 168.89 213.487 170.067 212.721 171.57C211.984 173.073 211.615 174.817 211.615 176.802C211.615 178.787 211.998 180.545 212.764 182.077C213.53 183.58 214.593 184.771 215.954 185.65C217.316 186.501 218.875 186.926 220.634 186.926C221.853 186.926 222.959 186.699 223.952 186.246C224.973 185.764 225.866 185.111 226.632 184.289C227.426 183.466 228.064 182.516 228.546 181.439L233.948 183.396C233.239 185.125 232.219 186.657 230.886 187.99C229.581 189.323 228.05 190.358 226.291 191.095C224.533 191.833 222.619 192.201 220.549 192.201ZM251.02 192.201C248.014 192.201 245.348 191.549 243.023 190.244C240.726 188.911 238.925 187.096 237.62 184.799C236.316 182.474 235.664 179.822 235.664 176.844C235.664 173.81 236.316 171.144 237.62 168.847C238.925 166.522 240.712 164.707 242.98 163.402C245.278 162.097 247.915 161.445 250.893 161.445C253.899 161.445 256.536 162.112 258.805 163.445C261.102 164.749 262.903 166.564 264.208 168.89C265.512 171.187 266.164 173.838 266.164 176.844C266.164 179.822 265.512 182.474 264.208 184.799C262.931 187.096 261.145 188.911 258.848 190.244C256.579 191.549 253.97 192.201 251.02 192.201ZM251.02 186.884C252.835 186.884 254.424 186.458 255.785 185.608C257.174 184.728 258.252 183.537 259.018 182.034C259.812 180.531 260.209 178.801 260.209 176.844C260.209 174.859 259.812 173.115 259.018 171.612C258.224 170.109 257.132 168.932 255.742 168.081C254.353 167.202 252.736 166.763 250.893 166.763C249.106 166.763 247.504 167.202 246.086 168.081C244.696 168.932 243.604 170.109 242.81 171.612C242.016 173.115 241.619 174.859 241.619 176.844C241.619 178.801 242.016 180.531 242.81 182.034C243.604 183.537 244.71 184.728 246.128 185.608C247.546 186.458 249.177 186.884 251.02 186.884ZM272.368 193.562L268.241 192.924C268.241 192.471 268.411 191.946 268.752 191.35C269.092 190.727 269.56 190.103 270.156 189.479C270.779 188.855 271.474 188.273 272.24 187.735L274.409 186.246C274.92 185.905 275.416 185.494 275.898 185.012C276.38 184.53 276.622 184.034 276.622 183.523C276.622 182.956 276.423 182.502 276.026 182.162C275.629 181.793 275.033 181.609 274.239 181.609C273.644 181.609 273.133 181.807 272.708 182.204C272.311 182.573 272.041 183.013 271.9 183.523L267.561 182.8C267.731 181.892 268.099 181.07 268.667 180.333C269.262 179.567 270.028 178.943 270.964 178.461C271.928 177.979 273.02 177.738 274.239 177.738C276.31 177.738 277.94 178.277 279.131 179.354C280.322 180.404 280.918 181.779 280.918 183.481C280.918 184.7 280.578 185.735 279.897 186.586C279.245 187.437 278.38 188.231 277.302 188.968L275.133 190.457C274.736 190.741 274.339 191.081 273.942 191.478C273.545 191.847 273.19 192.215 272.878 192.584C272.594 192.981 272.424 193.307 272.368 193.562ZM268.241 195.945V192.924L271.347 192.244H281.131V195.945H268.241ZM293.676 192.201C291.577 192.201 289.719 191.733 288.103 190.797C286.486 189.833 285.21 188.514 284.274 186.841C283.367 185.168 282.913 183.24 282.913 181.056C282.913 178.872 283.381 176.944 284.317 175.271C285.281 173.597 286.586 172.293 288.23 171.357C289.904 170.393 291.818 169.911 293.973 169.911C295.845 169.911 297.561 170.407 299.121 171.399C300.709 172.364 301.971 173.796 302.907 175.696C303.871 177.568 304.353 179.851 304.353 182.545H288.784C288.925 183.963 289.535 185.097 290.613 185.948C291.69 186.77 292.91 187.182 294.271 187.182C295.434 187.182 296.384 186.94 297.121 186.458C297.859 185.948 298.426 185.296 298.823 184.502L303.842 186.458C303.247 187.649 302.467 188.685 301.503 189.564C300.567 190.415 299.447 191.067 298.142 191.521C296.838 191.974 295.349 192.201 293.676 192.201ZM289.081 178.376H298.27C298.185 177.497 297.901 176.788 297.419 176.249C296.937 175.71 296.37 175.313 295.717 175.058C295.065 174.803 294.427 174.675 293.803 174.675C293.208 174.675 292.555 174.803 291.846 175.058C291.166 175.285 290.556 175.668 290.017 176.206C289.507 176.745 289.195 177.468 289.081 178.376Z" fill="#9BE6AA"/>
<path d="M53.5131 240.706C51.2567 240.706 49.5018 240.204 48.2482 239.201C47.0198 238.199 46.4056 236.782 46.4056 234.952C46.4056 232.996 47.0574 231.505 48.3611 230.477C49.6898 229.449 51.5325 228.935 53.8891 228.935H58.6651C58.5147 227.556 58.1261 226.503 57.4993 225.776C56.8726 225.049 55.9449 224.685 54.7165 224.685C53.8139 224.685 53.0242 224.873 52.3473 225.25C51.6704 225.626 51.0938 226.215 50.6174 227.017L46.932 225.663C47.3332 224.836 47.8597 224.071 48.5115 223.369C49.1884 222.642 50.0283 222.066 51.0311 221.639C52.059 221.213 53.2874 221 54.7165 221C56.5466 221 58.0759 221.364 59.3044 222.091C60.5329 222.793 61.4354 223.808 62.012 225.137C62.6137 226.465 62.9146 228.07 62.9146 229.95L62.8018 240.254H58.9283L58.8155 237.96C58.3141 238.838 57.6121 239.515 56.7096 239.991C55.8321 240.467 54.7666 240.706 53.5131 240.706ZM54.0396 237.171C54.9672 237.171 55.782 236.97 56.484 236.569C57.211 236.143 57.7626 235.579 58.1386 234.877C58.5397 234.175 58.7403 233.398 58.7403 232.545V232.169H55.243C53.5632 232.169 52.3849 232.407 51.708 232.884C51.0311 233.335 50.6926 233.987 50.6926 234.839C50.6926 235.566 50.9809 236.143 51.5576 236.569C52.1593 236.97 52.9866 237.171 54.0396 237.171ZM73.3114 240.706C72.0578 240.706 70.9046 240.518 69.8516 240.142C68.7987 239.765 67.8961 239.239 67.144 238.562C66.3919 237.86 65.8152 237.045 65.4141 236.118L69.0619 234.501C69.438 235.203 69.9895 235.792 70.7166 236.268C71.4687 236.744 72.296 236.983 73.1986 236.983C74.1763 236.983 74.9535 236.82 75.5301 236.494C76.1318 236.143 76.4327 235.666 76.4327 235.065C76.4327 234.488 76.207 234.049 75.7558 233.749C75.3045 233.423 74.6652 233.159 73.8379 232.959L72.0704 232.47C70.2904 232.019 68.8989 231.304 67.8961 230.326C66.8933 229.324 66.3919 228.183 66.3919 226.904C66.3919 225.024 66.9936 223.57 68.197 222.542C69.4254 221.514 71.1804 221 73.4618 221C74.615 221 75.668 221.176 76.6207 221.527C77.5985 221.852 78.4383 222.329 79.1403 222.956C79.8423 223.557 80.3312 224.272 80.6069 225.099L77.1096 226.679C76.8589 226.052 76.3825 225.575 75.6805 225.25C74.9786 224.899 74.2014 224.723 73.349 224.723C72.4966 224.723 71.8322 224.911 71.3559 225.287C70.8795 225.638 70.6413 226.14 70.6413 226.791C70.6413 227.167 70.8544 227.518 71.2806 227.844C71.7069 228.145 72.3211 228.396 73.1233 228.596L75.3421 229.123C76.5706 229.424 77.5734 229.9 78.3506 230.552C79.1278 231.179 79.7044 231.893 80.0804 232.696C80.4565 233.473 80.6445 234.262 80.6445 235.065C80.6445 236.193 80.3186 237.183 79.6668 238.036C79.04 238.888 78.1751 239.552 77.072 240.029C75.9689 240.48 74.7153 240.706 73.3114 240.706ZM91.6306 240.254V221.451H95.5792L95.7673 223.971C96.3439 222.993 97.0835 222.254 97.986 221.752C98.8886 221.251 99.9165 221 101.07 221C102.574 221 103.853 221.339 104.906 222.015C105.958 222.692 106.723 223.72 107.199 225.099C107.751 223.77 108.528 222.755 109.531 222.053C110.534 221.351 111.712 221 113.066 221C115.247 221 116.927 221.702 118.105 223.106C119.284 224.485 119.86 226.616 119.835 229.499V240.254H115.661V230.627C115.661 229.123 115.498 227.97 115.172 227.167C114.846 226.34 114.407 225.763 113.856 225.438C113.304 225.112 112.665 224.949 111.938 224.949C110.634 224.924 109.619 225.387 108.892 226.34C108.19 227.293 107.839 228.659 107.839 230.439V240.254H103.627V230.627C103.627 229.123 103.464 227.97 103.138 227.167C102.837 226.34 102.411 225.763 101.859 225.438C101.308 225.112 100.669 224.949 99.9415 224.949C98.6379 224.924 97.6225 225.387 96.8954 226.34C96.1935 227.293 95.8425 228.659 95.8425 230.439V240.254H91.6306ZM130.151 240.706C128.672 240.706 127.393 240.405 126.315 239.803C125.262 239.201 124.447 238.261 123.871 236.983C123.294 235.704 123.006 234.062 123.006 232.056V221.451H127.218V231.078C127.218 232.558 127.393 233.711 127.744 234.538C128.095 235.366 128.571 235.942 129.173 236.268C129.8 236.594 130.514 236.757 131.317 236.757C132.746 236.782 133.849 236.318 134.626 235.366C135.403 234.413 135.792 233.047 135.792 231.267V221.451H139.966V240.254H136.017L135.829 237.584C135.228 238.587 134.438 239.364 133.46 239.916C132.507 240.442 131.404 240.706 130.151 240.706ZM152.733 240.706C150.803 240.706 149.098 240.292 147.619 239.465C146.14 238.612 144.974 237.446 144.122 235.967C143.294 234.488 142.881 232.783 142.881 230.853C142.881 228.922 143.294 227.218 144.122 225.738C144.974 224.259 146.127 223.106 147.581 222.279C149.061 221.426 150.753 221 152.658 221C154.513 221 156.193 221.451 157.697 222.354C159.202 223.231 160.317 224.497 161.044 226.152L157.133 227.656C156.732 226.829 156.118 226.165 155.291 225.663C154.463 225.162 153.523 224.911 152.47 224.911C151.442 224.911 150.527 225.174 149.725 225.701C148.923 226.202 148.296 226.904 147.845 227.807C147.393 228.684 147.168 229.7 147.168 230.853C147.168 232.006 147.393 233.034 147.845 233.937C148.321 234.814 148.96 235.516 149.763 236.042C150.59 236.544 151.517 236.795 152.545 236.795C153.598 236.795 154.538 236.531 155.366 236.005C156.193 235.453 156.807 234.714 157.208 233.786L161.12 235.29C160.392 236.995 159.277 238.324 157.773 239.277C156.293 240.229 154.614 240.706 152.733 240.706ZM163.714 240.254V213.93H167.926V224.009C168.553 223.031 169.343 222.291 170.295 221.79C171.248 221.263 172.326 221 173.529 221C175.009 221 176.287 221.301 177.365 221.903C178.443 222.504 179.258 223.444 179.81 224.723C180.386 225.977 180.675 227.619 180.675 229.649V240.254H176.463V230.627C176.463 229.123 176.287 227.97 175.936 227.167C175.585 226.34 175.096 225.763 174.47 225.438C173.868 225.112 173.166 224.949 172.364 224.949C170.935 224.924 169.831 225.387 169.054 226.34C168.302 227.293 167.926 228.659 167.926 230.439V240.254H163.714ZM198.641 240.706C196.384 240.706 194.629 240.204 193.376 239.201C192.147 238.199 191.533 236.782 191.533 234.952C191.533 232.996 192.185 231.505 193.489 230.477C194.817 229.449 196.66 228.935 199.017 228.935H203.793C203.642 227.556 203.254 226.503 202.627 225.776C202 225.049 201.072 224.685 199.844 224.685C198.941 224.685 198.152 224.873 197.475 225.25C196.798 225.626 196.221 226.215 195.745 227.017L192.06 225.663C192.461 224.836 192.987 224.071 193.639 223.369C194.316 222.642 195.156 222.066 196.159 221.639C197.187 221.213 198.415 221 199.844 221C201.674 221 203.203 221.364 204.432 222.091C205.66 222.793 206.563 223.808 207.14 225.137C207.741 226.465 208.042 228.07 208.042 229.95L207.929 240.254H204.056L203.943 237.96C203.442 238.838 202.74 239.515 201.837 239.991C200.96 240.467 199.894 240.706 198.641 240.706ZM199.167 237.171C200.095 237.171 200.91 236.97 201.612 236.569C202.339 236.143 202.89 235.579 203.266 234.877C203.667 234.175 203.868 233.398 203.868 232.545V232.169H200.371C198.691 232.169 197.512 232.407 196.836 232.884C196.159 233.335 195.82 233.987 195.82 234.839C195.82 235.566 196.108 236.143 196.685 236.569C197.287 236.97 198.114 237.171 199.167 237.171ZM218.439 240.706C217.185 240.706 216.032 240.518 214.979 240.142C213.926 239.765 213.024 239.239 212.272 238.562C211.519 237.86 210.943 237.045 210.542 236.118L214.189 234.501C214.566 235.203 215.117 235.792 215.844 236.268C216.596 236.744 217.424 236.983 218.326 236.983C219.304 236.983 220.081 236.82 220.658 236.494C221.259 236.143 221.56 235.666 221.56 235.065C221.56 234.488 221.335 234.049 220.883 233.749C220.432 233.423 219.793 233.159 218.965 232.959L217.198 232.47C215.418 232.019 214.026 231.304 213.024 230.326C212.021 229.324 211.519 228.183 211.519 226.904C211.519 225.024 212.121 223.57 213.325 222.542C214.553 221.514 216.308 221 218.589 221C219.743 221 220.796 221.176 221.748 221.527C222.726 221.852 223.566 222.329 224.268 222.956C224.97 223.557 225.459 224.272 225.734 225.099L222.237 226.679C221.986 226.052 221.51 225.575 220.808 225.25C220.106 224.899 219.329 224.723 218.477 224.723C217.624 224.723 216.96 224.911 216.483 225.287C216.007 225.638 215.769 226.14 215.769 226.791C215.769 227.167 215.982 227.518 216.408 227.844C216.834 228.145 217.449 228.396 218.251 228.596L220.47 229.123C221.698 229.424 222.701 229.9 223.478 230.552C224.255 231.179 224.832 231.893 225.208 232.696C225.584 233.473 225.772 234.262 225.772 235.065C225.772 236.193 225.446 237.183 224.794 238.036C224.168 238.888 223.303 239.552 222.2 240.029C221.096 240.48 219.843 240.706 218.439 240.706Z" fill="#9BE6AA"/>
<path d="M51.1504 268.815V268.216C51.1504 266.894 52.2223 265.822 53.5445 265.822H69.1064C70.4287 265.822 71.5006 266.894 71.5006 268.216V280.187C71.5006 281.509 70.4287 282.581 69.1064 282.581H53.5445C52.2223 282.581 51.1504 281.509 51.1504 280.187V268.815Z" fill="#9BE6AA" stroke="#9BE6AA" stroke-width="2.11783" stroke-linecap="round"/>
<path d="M53.9062 268.688L60.9297 273.37L67.9531 268.688" stroke="black" stroke-width="1.55603" stroke-linecap="round" stroke-linejoin="round"/>
<path d="M82.1895 268.992V268.415C82.1895 267.139 83.2237 266.104 84.4996 266.104H99.5155C100.791 266.104 101.826 267.139 101.826 268.415V279.965C101.826 281.241 100.791 282.275 99.5155 282.275H84.4996C83.2237 282.275 82.1895 281.241 82.1895 279.965V268.992Z" fill="#9BE6AA" stroke="#9BE6AA" stroke-width="2.04353" stroke-linecap="round"/>
<path d="M84.8477 268.87L91.6247 273.388L98.4017 268.87" stroke="black" stroke-width="1.50144" stroke-linecap="round" stroke-linejoin="round"/>
<path d="M112.342 268.992V268.415C112.342 267.139 113.376 266.104 114.652 266.104H129.668C130.944 266.104 131.978 267.139 131.978 268.415V279.965C131.978 281.241 130.944 282.275 129.668 282.275H114.652C113.376 282.275 112.342 281.241 112.342 279.965V268.992Z" fill="#9BE6AA" stroke="#9BE6AA" stroke-width="2.04353" stroke-linecap="round"/>
<path d="M115 268.87L121.777 273.388L128.554 268.87" stroke="black" stroke-width="1.50144" stroke-linecap="round" stroke-linejoin="round"/>
<path d="M142.496 268.992V268.415C142.496 267.139 143.53 266.104 144.806 266.104H159.822C161.098 266.104 162.132 267.139 162.132 268.415V279.965C162.132 281.241 161.098 282.275 159.822 282.275H144.806C143.53 282.275 142.496 281.241 142.496 279.965V268.992Z" fill="#9BE6AA" stroke="#9BE6AA" stroke-width="2.04353" stroke-linecap="round"/>
<path d="M145.154 268.87L151.931 273.388L158.708 268.87" stroke="black" stroke-width="1.50144" stroke-linecap="round" stroke-linejoin="round"/>
<path d="M172.648 268.992V268.415C172.648 267.139 173.683 266.104 174.959 266.104H189.975C191.25 266.104 192.285 267.139 192.285 268.415V279.965C192.285 281.241 191.25 282.275 189.975 282.275H174.959C173.683 282.275 172.648 281.241 172.648 279.965V268.992Z" fill="#9BE6AA" stroke="#9BE6AA" stroke-width="2.04353" stroke-linecap="round"/>
<path d="M175.307 268.87L182.084 273.388L188.861 268.87" stroke="black" stroke-width="1.50144" stroke-linecap="round" stroke-linejoin="round"/>
<path d="M202.803 268.992V268.415C202.803 267.139 203.837 266.104 205.113 266.104H220.129C221.405 266.104 222.439 267.139 222.439 268.415V279.965C222.439 281.241 221.405 282.275 220.129 282.275H205.113C203.837 282.275 202.803 281.241 202.803 279.965V268.992Z" fill="#9BE6AA" stroke="#9BE6AA" stroke-width="2.04353" stroke-linecap="round"/>
<path d="M205.461 268.87L212.238 273.388L219.015 268.87" stroke="black" stroke-width="1.50144" stroke-linecap="round" stroke-linejoin="round"/>
<path d="M232.957 268.992V268.415C232.957 267.139 233.991 266.104 235.267 266.104H250.283C251.559 266.104 252.593 267.139 252.593 268.415V279.965C252.593 281.241 251.559 282.275 250.283 282.275H235.267C233.991 282.275 232.957 281.241 232.957 279.965V268.992Z" fill="#9BE6AA" stroke="#9BE6AA" stroke-width="2.04353" stroke-linecap="round"/>
<path d="M235.615 268.87L242.392 273.388L249.169 268.87" stroke="black" stroke-width="1.50144" stroke-linecap="round" stroke-linejoin="round"/>
<path d="M263.109 268.992V268.415C263.109 267.139 264.144 266.104 265.42 266.104H280.435C281.711 266.104 282.746 267.139 282.746 268.415V279.965C282.746 281.241 281.711 282.275 280.435 282.275H265.42C264.144 282.275 263.109 281.241 263.109 279.965V268.992Z" fill="#9BE6AA" stroke="#9BE6AA" stroke-width="2.04353" stroke-linecap="round"/>
<path d="M265.768 268.87L272.545 273.388L279.322 268.87" stroke="black" stroke-width="1.50144" stroke-linecap="round" stroke-linejoin="round"/>
<path d="M293.264 268.992V268.415C293.264 267.139 294.298 266.104 295.574 266.104H310.59C311.866 266.104 312.9 267.139 312.9 268.415V279.965C312.9 281.241 311.866 282.275 310.59 282.275H295.574C294.298 282.275 293.264 281.241 293.264 279.965V268.992Z" fill="#9BE6AA" stroke="#9BE6AA" stroke-width="2.04353" stroke-linecap="round"/>
<path d="M295.922 268.87L302.699 273.388L309.476 268.87" stroke="black" stroke-width="1.50144" stroke-linecap="round" stroke-linejoin="round"/>
<path d="M323.416 268.992V268.415C323.416 267.139 324.45 266.104 325.726 266.104H340.742C342.018 266.104 343.052 267.139 343.052 268.415V279.965C343.052 281.241 342.018 282.275 340.742 282.275H325.726C324.45 282.275 323.416 281.241 323.416 279.965V268.992Z" fill="#9BE6AA" stroke="#9BE6AA" stroke-width="2.04353" stroke-linecap="round"/>
<path d="M326.074 268.87L332.851 273.388L339.628 268.87" stroke="black" stroke-width="1.50144" stroke-linecap="round" stroke-linejoin="round"/>
<path d="M51.1504 294.255V293.657C51.1504 292.335 52.2223 291.263 53.5445 291.263H69.1064C70.4287 291.263 71.5006 292.335 71.5006 293.657V305.627C71.5006 306.95 70.4287 308.022 69.1064 308.022H53.5445C52.2223 308.022 51.1504 306.95 51.1504 305.627V294.255Z" fill="#9BE6AA" stroke="#9BE6AA" stroke-width="2.11783" stroke-linecap="round"/>
<path d="M53.9062 294.128L60.9297 298.811L67.9531 294.128" stroke="black" stroke-width="1.55603" stroke-linecap="round" stroke-linejoin="round"/>
<path d="M82.1895 294.433V293.855C82.1895 292.579 83.2237 291.545 84.4996 291.545H99.5155C100.791 291.545 101.826 292.579 101.826 293.855V305.406C101.826 306.682 100.791 307.716 99.5155 307.716H84.4996C83.2237 307.716 82.1895 306.682 82.1895 305.406V294.433Z" fill="#9BE6AA" stroke="#9BE6AA" stroke-width="2.04353" stroke-linecap="round"/>
<path d="M84.8477 294.31L91.6247 298.828L98.4017 294.31" stroke="black" stroke-width="1.50144" stroke-linecap="round" stroke-linejoin="round"/>
<path d="M112.342 294.433V293.855C112.342 292.579 113.376 291.545 114.652 291.545H129.668C130.944 291.545 131.978 292.579 131.978 293.855V305.406C131.978 306.682 130.944 307.716 129.668 307.716H114.652C113.376 307.716 112.342 306.682 112.342 305.406V294.433Z" fill="#9BE6AA" stroke="#9BE6AA" stroke-width="2.04353" stroke-linecap="round"/>
<path d="M115 294.31L121.777 298.828L128.554 294.31" stroke="black" stroke-width="1.50144" stroke-linecap="round" stroke-linejoin="round"/>
<path d="M142.496 294.433V293.855C142.496 292.579 143.53 291.545 144.806 291.545H159.822C161.098 291.545 162.132 292.579 162.132 293.855V305.406C162.132 306.682 161.098 307.716 159.822 307.716H144.806C143.53 307.716 142.496 306.682 142.496 305.406V294.433Z" fill="#9BE6AA" stroke="#9BE6AA" stroke-width="2.04353" stroke-linecap="round"/>
<path d="M145.154 294.31L151.931 298.828L158.708 294.31" stroke="black" stroke-width="1.50144" stroke-linecap="round" stroke-linejoin="round"/>
<path d="M172.648 294.433V293.855C172.648 292.579 173.683 291.545 174.959 291.545H189.975C191.25 291.545 192.285 292.579 192.285 293.855V305.406C192.285 306.682 191.25 307.716 189.975 307.716H174.959C173.683 307.716 172.648 306.682 172.648 305.406V294.433Z" fill="#9BE6AA" stroke="#9BE6AA" stroke-width="2.04353" stroke-linecap="round"/>
<path d="M175.307 294.31L182.084 298.828L188.861 294.31" stroke="black" stroke-width="1.50144" stroke-linecap="round" stroke-linejoin="round"/>
<path d="M202.803 294.433V293.855C202.803 292.579 203.837 291.545 205.113 291.545H220.129C221.405 291.545 222.439 292.579 222.439 293.855V305.406C222.439 306.682 221.405 307.716 220.129 307.716H205.113C203.837 307.716 202.803 306.682 202.803 305.406V294.433Z" fill="#9BE6AA" stroke="#9BE6AA" stroke-width="2.04353" stroke-linecap="round"/>
<path d="M205.461 294.31L212.238 298.828L219.015 294.31" stroke="black" stroke-width="1.50144" stroke-linecap="round" stroke-linejoin="round"/>
<path d="M232.957 294.433V293.855C232.957 292.579 233.991 291.545 235.267 291.545H250.283C251.559 291.545 252.593 292.579 252.593 293.855V305.406C252.593 306.682 251.559 307.716 250.283 307.716H235.267C233.991 307.716 232.957 306.682 232.957 305.406V294.433Z" fill="#9BE6AA" stroke="#9BE6AA" stroke-width="2.04353" stroke-linecap="round"/>
<path d="M235.615 294.31L242.392 298.828L249.169 294.31" stroke="black" stroke-width="1.50144" stroke-linecap="round" stroke-linejoin="round"/>
<path d="M263.109 294.433V293.855C263.109 292.579 264.144 291.545 265.42 291.545H280.435C281.711 291.545 282.746 292.579 282.746 293.855V305.406C282.746 306.682 281.711 307.716 280.435 307.716H265.42C264.144 307.716 263.109 306.682 263.109 305.406V294.433Z" fill="#9BE6AA" stroke="#9BE6AA" stroke-width="2.04353" stroke-linecap="round"/>
<path d="M265.768 294.31L272.545 298.828L279.322 294.31" stroke="black" stroke-width="1.50144" stroke-linecap="round" stroke-linejoin="round"/>
<path d="M293.264 294.433V293.855C293.264 292.579 294.298 291.545 295.574 291.545H310.59C311.866 291.545 312.9 292.579 312.9 293.855V305.406C312.9 306.682 311.866 307.716 310.59 307.716H295.574C294.298 307.716 293.264 306.682 293.264 305.406V294.433Z" fill="#9BE6AA" stroke="#9BE6AA" stroke-width="2.04353" stroke-linecap="round"/>
<path d="M295.922 294.31L302.699 298.828L309.476 294.31" stroke="black" stroke-width="1.50144" stroke-linecap="round" stroke-linejoin="round"/>
<path d="M323.416 294.433V293.855C323.416 292.579 324.45 291.545 325.726 291.545H340.742C342.018 291.545 343.052 292.579 343.052 293.855V305.406C343.052 306.682 342.018 307.716 340.742 307.716H325.726C324.45 307.716 323.416 306.682 323.416 305.406V294.433Z" fill="#9BE6AA" stroke="#9BE6AA" stroke-width="2.04353" stroke-linecap="round"/>
<path d="M326.074 294.31L332.851 298.828L339.628 294.31" stroke="black" stroke-width="1.50144" stroke-linecap="round" stroke-linejoin="round"/>
<path d="M51.1504 319.696V319.097C51.1504 317.775 52.2223 316.703 53.5445 316.703H69.1064C70.4287 316.703 71.5006 317.775 71.5006 319.097V331.068C71.5006 332.39 70.4287 333.462 69.1064 333.462H53.5445C52.2223 333.462 51.1504 332.39 51.1504 331.068V319.696Z" fill="#9BE6AA" stroke="#9BE6AA" stroke-width="2.11783" stroke-linecap="round"/>
<path d="M53.9062 319.569L60.9297 324.251L67.9531 319.569" stroke="black" stroke-width="1.55603" stroke-linecap="round" stroke-linejoin="round"/>
<path d="M82.1895 319.873V319.295C82.1895 318.02 83.2237 316.985 84.4996 316.985H99.5155C100.791 316.985 101.826 318.02 101.826 319.295V330.846C101.826 332.122 100.791 333.156 99.5155 333.156H84.4996C83.2237 333.156 82.1895 332.122 82.1895 330.846V319.873Z" fill="#9BE6AA" stroke="#9BE6AA" stroke-width="2.04353" stroke-linecap="round"/>
<path d="M84.8477 319.75L91.6247 324.269L98.4017 319.75" stroke="black" stroke-width="1.50144" stroke-linecap="round" stroke-linejoin="round"/>
<path d="M112.342 319.873V319.295C112.342 318.02 113.376 316.985 114.652 316.985H129.668C130.944 316.985 131.978 318.02 131.978 319.295V330.846C131.978 332.122 130.944 333.156 129.668 333.156H114.652C113.376 333.156 112.342 332.122 112.342 330.846V319.873Z" fill="#9BE6AA" stroke="#9BE6AA" stroke-width="2.04353" stroke-linecap="round"/>
<path d="M115 319.75L121.777 324.269L128.554 319.75" stroke="black" stroke-width="1.50144" stroke-linecap="round" stroke-linejoin="round"/>
<path d="M142.496 319.873V319.295C142.496 318.02 143.53 316.985 144.806 316.985H159.822C161.098 316.985 162.132 318.02 162.132 319.295V330.846C162.132 332.122 161.098 333.156 159.822 333.156H144.806C143.53 333.156 142.496 332.122 142.496 330.846V319.873Z" fill="#9BE6AA" stroke="#9BE6AA" stroke-width="2.04353" stroke-linecap="round"/>
<path d="M145.154 319.75L151.931 324.269L158.708 319.75" stroke="black" stroke-width="1.50144" stroke-linecap="round" stroke-linejoin="round"/>
<path d="M172.648 319.873V319.295C172.648 318.02 173.683 316.985 174.959 316.985H189.975C191.25 316.985 192.285 318.02 192.285 319.295V330.846C192.285 332.122 191.25 333.156 189.975 333.156H174.959C173.683 333.156 172.648 332.122 172.648 330.846V319.873Z" fill="#9BE6AA" stroke="#9BE6AA" stroke-width="2.04353" stroke-linecap="round"/>
<path d="M175.307 319.75L182.084 324.269L188.861 319.75" stroke="black" stroke-width="1.50144" stroke-linecap="round" stroke-linejoin="round"/>
<path d="M202.803 319.873V319.295C202.803 318.02 203.837 316.985 205.113 316.985H220.129C221.405 316.985 222.439 318.02 222.439 319.295V330.846C222.439 332.122 221.405 333.156 220.129 333.156H205.113C203.837 333.156 202.803 332.122 202.803 330.846V319.873Z" fill="#9BE6AA" stroke="#9BE6AA" stroke-width="2.04353" stroke-linecap="round"/>
<path d="M205.461 319.75L212.238 324.269L219.015 319.75" stroke="black" stroke-width="1.50144" stroke-linecap="round" stroke-linejoin="round"/>
<path d="M232.957 319.873V319.295C232.957 318.02 233.991 316.985 235.267 316.985H250.283C251.559 316.985 252.593 318.02 252.593 319.295V330.846C252.593 332.122 251.559 333.156 250.283 333.156H235.267C233.991 333.156 232.957 332.122 232.957 330.846V319.873Z" fill="#9BE6AA" stroke="#9BE6AA" stroke-width="2.04353" stroke-linecap="round"/>
<path d="M235.615 319.75L242.392 324.269L249.169 319.75" stroke="black" stroke-width="1.50144" stroke-linecap="round" stroke-linejoin="round"/>
<path d="M263.109 319.873V319.295C263.109 318.02 264.144 316.985 265.42 316.985H280.435C281.711 316.985 282.746 318.02 282.746 319.295V330.846C282.746 332.122 281.711 333.156 280.435 333.156H265.42C264.144 333.156 263.109 332.122 263.109 330.846V319.873Z" fill="#9BE6AA" stroke="#9BE6AA" stroke-width="2.04353" stroke-linecap="round"/>
<path d="M265.768 319.75L272.545 324.269L279.322 319.75" stroke="black" stroke-width="1.50144" stroke-linecap="round" stroke-linejoin="round"/>
<path d="M293.264 319.873V319.295C293.264 318.02 294.298 316.985 295.574 316.985H310.59C311.866 316.985 312.9 318.02 312.9 319.295V330.846C312.9 332.122 311.866 333.156 310.59 333.156H295.574C294.298 333.156 293.264 332.122 293.264 330.846V319.873Z" fill="#9BE6AA" stroke="#9BE6AA" stroke-width="2.04353" stroke-linecap="round"/>
<path d="M295.922 319.75L302.699 324.269L309.476 319.75" stroke="black" stroke-width="1.50144" stroke-linecap="round" stroke-linejoin="round"/>
<path d="M323.416 319.873V319.295C323.416 318.02 324.45 316.985 325.726 316.985H340.742C342.018 316.985 343.052 318.02 343.052 319.295V330.846C343.052 332.122 342.018 333.156 340.742 333.156H325.726C324.45 333.156 323.416 332.122 323.416 330.846V319.873Z" fill="#9BE6AA" stroke="#9BE6AA" stroke-width="2.04353" stroke-linecap="round"/>
<path d="M326.074 319.75L332.851 324.269L339.628 319.75" stroke="black" stroke-width="1.50144" stroke-linecap="round" stroke-linejoin="round"/>
<path d="M51.1504 345.136V344.538C51.1504 343.215 52.2223 342.144 53.5445 342.144H69.1064C70.4287 342.144 71.5006 343.215 71.5006 344.538V356.508C71.5006 357.831 70.4287 358.903 69.1064 358.903H53.5445C52.2223 358.903 51.1504 357.831 51.1504 356.508V345.136Z" fill="#9BE6AA" stroke="#9BE6AA" stroke-width="2.11783" stroke-linecap="round"/>
<path d="M53.9062 345.009L60.9297 349.692L67.9531 345.009" stroke="black" stroke-width="1.55603" stroke-linecap="round" stroke-linejoin="round"/>
<path d="M82.1895 345.314V344.736C82.1895 343.46 83.2237 342.426 84.4996 342.426H99.5155C100.791 342.426 101.826 343.46 101.826 344.736V356.287C101.826 357.563 100.791 358.597 99.5155 358.597H84.4996C83.2237 358.597 82.1895 357.563 82.1895 356.287V345.314Z" fill="#9BE6AA" stroke="#9BE6AA" stroke-width="2.04353" stroke-linecap="round"/>
<path d="M84.8477 345.191L91.6247 349.709L98.4017 345.191" stroke="black" stroke-width="1.50144" stroke-linecap="round" stroke-linejoin="round"/>
<path d="M112.342 345.314V344.736C112.342 343.46 113.376 342.426 114.652 342.426H129.668C130.944 342.426 131.978 343.46 131.978 344.736V356.287C131.978 357.563 130.944 358.597 129.668 358.597H114.652C113.376 358.597 112.342 357.563 112.342 356.287V345.314Z" fill="#9BE6AA" stroke="#9BE6AA" stroke-width="2.04353" stroke-linecap="round"/>
<path d="M115 345.191L121.777 349.709L128.554 345.191" stroke="black" stroke-width="1.50144" stroke-linecap="round" stroke-linejoin="round"/>
<path d="M142.496 345.314V344.736C142.496 343.46 143.53 342.426 144.806 342.426H159.822C161.098 342.426 162.132 343.46 162.132 344.736V356.287C162.132 357.563 161.098 358.597 159.822 358.597H144.806C143.53 358.597 142.496 357.563 142.496 356.287V345.314Z" fill="#9BE6AA" stroke="#9BE6AA" stroke-width="2.04353" stroke-linecap="round"/>
<path d="M145.154 345.191L151.931 349.709L158.708 345.191" stroke="black" stroke-width="1.50144" stroke-linecap="round" stroke-linejoin="round"/>
<path d="M172.648 345.314V344.736C172.648 343.46 173.683 342.426 174.959 342.426H189.975C191.25 342.426 192.285 343.46 192.285 344.736V356.287C192.285 357.563 191.25 358.597 189.975 358.597H174.959C173.683 358.597 172.648 357.563 172.648 356.287V345.314Z" fill="#9BE6AA" stroke="#9BE6AA" stroke-width="2.04353" stroke-linecap="round"/>
<path d="M175.307 345.191L182.084 349.709L188.861 345.191" stroke="black" stroke-width="1.50144" stroke-linecap="round" stroke-linejoin="round"/>
<path d="M202.803 345.314V344.736C202.803 343.46 203.837 342.426 205.113 342.426H220.129C221.405 342.426 222.439 343.46 222.439 344.736V356.287C222.439 357.563 221.405 358.597 220.129 358.597H205.113C203.837 358.597 202.803 357.563 202.803 356.287V345.314Z" fill="#9BE6AA" stroke="#9BE6AA" stroke-width="2.04353" stroke-linecap="round"/>
<path d="M205.461 345.191L212.238 349.709L219.015 345.191" stroke="black" stroke-width="1.50144" stroke-linecap="round" stroke-linejoin="round"/>
<path d="M232.957 345.314V344.736C232.957 343.46 233.991 342.426 235.267 342.426H250.283C251.559 342.426 252.593 343.46 252.593 344.736V356.287C252.593 357.563 251.559 358.597 250.283 358.597H235.267C233.991 358.597 232.957 357.563 232.957 356.287V345.314Z" fill="#9BE6AA" stroke="#9BE6AA" stroke-width="2.04353" stroke-linecap="round"/>
<path d="M235.615 345.191L242.392 349.709L249.169 345.191" stroke="black" stroke-width="1.50144" stroke-linecap="round" stroke-linejoin="round"/>
<path d="M263.109 345.314V344.736C263.109 343.46 264.144 342.426 265.42 342.426H280.435C281.711 342.426 282.746 343.46 282.746 344.736V356.287C282.746 357.563 281.711 358.597 280.435 358.597H265.42C264.144 358.597 263.109 357.563 263.109 356.287V345.314Z" fill="#9BE6AA" stroke="#9BE6AA" stroke-width="2.04353" stroke-linecap="round"/>
<path d="M265.768 345.191L272.545 349.709L279.322 345.191" stroke="black" stroke-width="1.50144" stroke-linecap="round" stroke-linejoin="round"/>
<path d="M293.264 345.314V344.736C293.264 343.46 294.298 342.426 295.574 342.426H310.59C311.866 342.426 312.9 343.46 312.9 344.736V356.287C312.9 357.563 311.866 358.597 310.59 358.597H295.574C294.298 358.597 293.264 357.563 293.264 356.287V345.314Z" fill="#9BE6AA" stroke="#9BE6AA" stroke-width="2.04353" stroke-linecap="round"/>
<path d="M295.922 345.191L302.699 349.709L309.476 345.191" stroke="black" stroke-width="1.50144" stroke-linecap="round" stroke-linejoin="round"/>
<path d="M323.416 345.314V344.736C323.416 343.46 324.45 342.426 325.726 342.426H340.742C342.018 342.426 343.052 343.46 343.052 344.736V356.287C343.052 357.563 342.018 358.597 340.742 358.597H325.726C324.45 358.597 323.416 357.563 323.416 356.287V345.314Z" fill="#9BE6AA" stroke="#9BE6AA" stroke-width="2.04353" stroke-linecap="round"/>
<path d="M326.074 345.191L332.851 349.709L339.628 345.191" stroke="black" stroke-width="1.50144" stroke-linecap="round" stroke-linejoin="round"/>
<path d="M51.1504 370.577V369.978C51.1504 368.656 52.2223 367.584 53.5445 367.584H69.1064C70.4287 367.584 71.5006 368.656 71.5006 369.978V381.949C71.5006 383.271 70.4287 384.343 69.1064 384.343H53.5445C52.2223 384.343 51.1504 383.271 51.1504 381.949V370.577Z" fill="#9BE6AA" stroke="#9BE6AA" stroke-width="2.11783" stroke-linecap="round"/>
<path d="M53.9062 370.45L60.9297 375.132L67.9531 370.45" stroke="black" stroke-width="1.55603" stroke-linecap="round" stroke-linejoin="round"/>
<path d="M82.1895 370.754V370.176C82.1895 368.901 83.2237 367.866 84.4996 367.866H99.5155C100.791 367.866 101.826 368.901 101.826 370.176V381.727C101.826 383.003 100.791 384.037 99.5155 384.037H84.4996C83.2237 384.037 82.1895 383.003 82.1895 381.727V370.754Z" fill="#9BE6AA" stroke="#9BE6AA" stroke-width="2.04353" stroke-linecap="round"/>
<path d="M84.8477 370.631L91.6247 375.149L98.4017 370.631" stroke="black" stroke-width="1.50144" stroke-linecap="round" stroke-linejoin="round"/>
<path d="M112.342 370.754V370.176C112.342 368.901 113.376 367.866 114.652 367.866H129.668C130.944 367.866 131.978 368.901 131.978 370.176V381.727C131.978 383.003 130.944 384.037 129.668 384.037H114.652C113.376 384.037 112.342 383.003 112.342 381.727V370.754Z" fill="#9BE6AA" stroke="#9BE6AA" stroke-width="2.04353" stroke-linecap="round"/>
<path d="M115 370.631L121.777 375.149L128.554 370.631" stroke="black" stroke-width="1.50144" stroke-linecap="round" stroke-linejoin="round"/>
<path d="M142.496 370.754V370.176C142.496 368.901 143.53 367.866 144.806 367.866H159.822C161.098 367.866 162.132 368.901 162.132 370.176V381.727C162.132 383.003 161.098 384.037 159.822 384.037H144.806C143.53 384.037 142.496 383.003 142.496 381.727V370.754Z" fill="#9BE6AA" stroke="#9BE6AA" stroke-width="2.04353" stroke-linecap="round"/>
<path d="M145.154 370.631L151.931 375.149L158.708 370.631" stroke="black" stroke-width="1.50144" stroke-linecap="round" stroke-linejoin="round"/>
<path d="M172.648 370.754V370.176C172.648 368.901 173.683 367.866 174.959 367.866H189.975C191.25 367.866 192.285 368.901 192.285 370.176V381.727C192.285 383.003 191.25 384.037 189.975 384.037H174.959C173.683 384.037 172.648 383.003 172.648 381.727V370.754Z" fill="#9BE6AA" stroke="#9BE6AA" stroke-width="2.04353" stroke-linecap="round"/>
<path d="M175.307 370.631L182.084 375.149L188.861 370.631" stroke="black" stroke-width="1.50144" stroke-linecap="round" stroke-linejoin="round"/>
<path d="M202.803 370.754V370.176C202.803 368.901 203.837 367.866 205.113 367.866H220.129C221.405 367.866 222.439 368.901 222.439 370.176V381.727C222.439 383.003 221.405 384.037 220.129 384.037H205.113C203.837 384.037 202.803 383.003 202.803 381.727V370.754Z" fill="#9BE6AA" stroke="#9BE6AA" stroke-width="2.04353" stroke-linecap="round"/>
<path d="M205.461 370.631L212.238 375.149L219.015 370.631" stroke="black" stroke-width="1.50144" stroke-linecap="round" stroke-linejoin="round"/>
<path d="M232.957 370.754V370.176C232.957 368.901 233.991 367.866 235.267 367.866H250.283C251.559 367.866 252.593 368.901 252.593 370.176V381.727C252.593 383.003 251.559 384.037 250.283 384.037H235.267C233.991 384.037 232.957 383.003 232.957 381.727V370.754Z" fill="#9BE6AA" stroke="#9BE6AA" stroke-width="2.04353" stroke-linecap="round"/>
<path d="M235.615 370.631L242.392 375.149L249.169 370.631" stroke="black" stroke-width="1.50144" stroke-linecap="round" stroke-linejoin="round"/>
<path d="M263.109 370.754V370.176C263.109 368.901 264.144 367.866 265.42 367.866H280.435C281.711 367.866 282.746 368.901 282.746 370.176V381.727C282.746 383.003 281.711 384.037 280.435 384.037H265.42C264.144 384.037 263.109 383.003 263.109 381.727V370.754Z" fill="#9BE6AA" stroke="#9BE6AA" stroke-width="2.04353" stroke-linecap="round"/>
<path d="M265.768 370.631L272.545 375.149L279.322 370.631" stroke="black" stroke-width="1.50144" stroke-linecap="round" stroke-linejoin="round"/>
<path d="M293.264 370.754V370.176C293.264 368.901 294.298 367.866 295.574 367.866H310.59C311.866 367.866 312.9 368.901 312.9 370.176V381.727C312.9 383.003 311.866 384.037 310.59 384.037H295.574C294.298 384.037 293.264 383.003 293.264 381.727V370.754Z" fill="#9BE6AA" stroke="#9BE6AA" stroke-width="2.04353" stroke-linecap="round"/>
<path d="M295.922 370.631L302.699 375.149L309.476 370.631" stroke="black" stroke-width="1.50144" stroke-linecap="round" stroke-linejoin="round"/>
<path d="M323.416 370.754V370.176C323.416 368.901 324.45 367.866 325.726 367.866H340.742C342.018 367.866 343.052 368.901 343.052 370.176V381.727C343.052 383.003 342.018 384.037 340.742 384.037H325.726C324.45 384.037 323.416 383.003 323.416 381.727V370.754Z" fill="#9BE6AA" stroke="#9BE6AA" stroke-width="2.04353" stroke-linecap="round"/>
<path d="M326.074 370.631L332.851 375.149L339.628 370.631" stroke="black" stroke-width="1.50144" stroke-linecap="round" stroke-linejoin="round"/>
<path d="M51.1504 396.017V395.419C51.1504 394.096 52.2223 393.024 53.5445 393.024H69.1064C70.4287 393.024 71.5006 394.096 71.5006 395.419V407.389C71.5006 408.712 70.4287 409.783 69.1064 409.783H53.5445C52.2223 409.783 51.1504 408.712 51.1504 407.389V396.017Z" fill="#9BE6AA" stroke="#9BE6AA" stroke-width="2.11783" stroke-linecap="round"/>
<path d="M53.9062 395.89L60.9297 400.572L67.9531 395.89" stroke="black" stroke-width="1.55603" stroke-linecap="round" stroke-linejoin="round"/>
<path d="M82.1895 396.194V395.617C82.1895 394.341 83.2237 393.307 84.4996 393.307H99.5155C100.791 393.307 101.826 394.341 101.826 395.617V407.168C101.826 408.444 100.791 409.478 99.5155 409.478H84.4996C83.2237 409.478 82.1895 408.444 82.1895 407.168V396.194Z" fill="#9BE6AA" stroke="#9BE6AA" stroke-width="2.04353" stroke-linecap="round"/>
<path d="M84.8477 396.072L91.6247 400.59L98.4017 396.072" stroke="black" stroke-width="1.50144" stroke-linecap="round" stroke-linejoin="round"/>
<path d="M112.342 396.194V395.617C112.342 394.341 113.376 393.307 114.652 393.307H129.668C130.944 393.307 131.978 394.341 131.978 395.617V407.168C131.978 408.444 130.944 409.478 129.668 409.478H114.652C113.376 409.478 112.342 408.444 112.342 407.168V396.194Z" fill="#9BE6AA" stroke="#9BE6AA" stroke-width="2.04353" stroke-linecap="round"/>
<path d="M115 396.072L121.777 400.59L128.554 396.072" stroke="black" stroke-width="1.50144" stroke-linecap="round" stroke-linejoin="round"/>
<path d="M142.496 396.194V395.617C142.496 394.341 143.53 393.307 144.806 393.307H159.822C161.098 393.307 162.132 394.341 162.132 395.617V407.168C162.132 408.444 161.098 409.478 159.822 409.478H144.806C143.53 409.478 142.496 408.444 142.496 407.168V396.194Z" fill="#9BE6AA" stroke="#9BE6AA" stroke-width="2.04353" stroke-linecap="round"/>
<path d="M145.154 396.072L151.931 400.59L158.708 396.072" stroke="black" stroke-width="1.50144" stroke-linecap="round" stroke-linejoin="round"/>
<path d="M172.648 396.194V395.617C172.648 394.341 173.683 393.307 174.959 393.307H189.975C191.25 393.307 192.285 394.341 192.285 395.617V407.168C192.285 408.444 191.25 409.478 189.975 409.478H174.959C173.683 409.478 172.648 408.444 172.648 407.168V396.194Z" fill="#9BE6AA" stroke="#9BE6AA" stroke-width="2.04353" stroke-linecap="round"/>
<path d="M175.307 396.072L182.084 400.59L188.861 396.072" stroke="black" stroke-width="1.50144" stroke-linecap="round" stroke-linejoin="round"/>
<path d="M202.803 396.194V395.617C202.803 394.341 203.837 393.307 205.113 393.307H220.129C221.405 393.307 222.439 394.341 222.439 395.617V407.168C222.439 408.444 221.405 409.478 220.129 409.478H205.113C203.837 409.478 202.803 408.444 202.803 407.168V396.194Z" fill="#9BE6AA" stroke="#9BE6AA" stroke-width="2.04353" stroke-linecap="round"/>
<path d="M205.461 396.072L212.238 400.59L219.015 396.072" stroke="black" stroke-width="1.50144" stroke-linecap="round" stroke-linejoin="round"/>
<path d="M232.957 396.194V395.617C232.957 394.341 233.991 393.307 235.267 393.307H250.283C251.559 393.307 252.593 394.341 252.593 395.617V407.168C252.593 408.444 251.559 409.478 250.283 409.478H235.267C233.991 409.478 232.957 408.444 232.957 407.168V396.194Z" fill="#9BE6AA" stroke="#9BE6AA" stroke-width="2.04353" stroke-linecap="round"/>
<path d="M235.615 396.072L242.392 400.59L249.169 396.072" stroke="black" stroke-width="1.50144" stroke-linecap="round" stroke-linejoin="round"/>
<path d="M263.109 396.194V395.617C263.109 394.341 264.144 393.307 265.42 393.307H280.435C281.711 393.307 282.746 394.341 282.746 395.617V407.168C282.746 408.444 281.711 409.478 280.435 409.478H265.42C264.144 409.478 263.109 408.444 263.109 407.168V396.194Z" fill="#9BE6AA" stroke="#9BE6AA" stroke-width="2.04353" stroke-linecap="round"/>
<path d="M265.768 396.072L272.545 400.59L279.322 396.072" stroke="black" stroke-width="1.50144" stroke-linecap="round" stroke-linejoin="round"/>
<path d="M293.264 396.194V395.617C293.264 394.341 294.298 393.307 295.574 393.307H310.59C311.866 393.307 312.9 394.341 312.9 395.617V407.168C312.9 408.444 311.866 409.478 310.59 409.478H295.574C294.298 409.478 293.264 408.444 293.264 407.168V396.194Z" fill="#9BE6AA" stroke="#9BE6AA" stroke-width="2.04353" stroke-linecap="round"/>
<path d="M295.922 396.072L302.699 400.59L309.476 396.072" stroke="black" stroke-width="1.50144" stroke-linecap="round" stroke-linejoin="round"/>
<path d="M323.416 396.194V395.617C323.416 394.341 324.45 393.307 325.726 393.307H340.742C342.018 393.307 343.052 394.341 343.052 395.617V407.168C343.052 408.444 342.018 409.478 340.742 409.478H325.726C324.45 409.478 323.416 408.444 323.416 407.168V396.194Z" fill="#9BE6AA" stroke="#9BE6AA" stroke-width="2.04353" stroke-linecap="round"/>
<path d="M326.074 396.072L332.851 400.59L339.628 396.072" stroke="black" stroke-width="1.50144" stroke-linecap="round" stroke-linejoin="round"/>
<path d="M51.1504 421.458V420.859C51.1504 419.537 52.2223 418.465 53.5445 418.465H69.1064C70.4287 418.465 71.5006 419.537 71.5006 420.859V432.83C71.5006 434.152 70.4287 435.224 69.1064 435.224H53.5445C52.2223 435.224 51.1504 434.152 51.1504 432.83V421.458Z" fill="#9BE6AA" stroke="#9BE6AA" stroke-width="2.11783" stroke-linecap="round"/>
<path d="M53.9062 421.331L60.9297 426.013L67.9531 421.331" stroke="black" stroke-width="1.55603" stroke-linecap="round" stroke-linejoin="round"/>
<path d="M82.1895 421.635V421.057C82.1895 419.782 83.2237 418.747 84.4996 418.747H99.5155C100.791 418.747 101.826 419.782 101.826 421.057V432.608C101.826 433.884 100.791 434.918 99.5155 434.918H84.4996C83.2237 434.918 82.1895 433.884 82.1895 432.608V421.635Z" fill="#9BE6AA" stroke="#9BE6AA" stroke-width="2.04353" stroke-linecap="round"/>
<path d="M84.8477 421.512L91.6247 426.03L98.4017 421.512" stroke="black" stroke-width="1.50144" stroke-linecap="round" stroke-linejoin="round"/>
<path d="M112.342 421.635V421.057C112.342 419.782 113.376 418.747 114.652 418.747H129.668C130.944 418.747 131.978 419.782 131.978 421.057V432.608C131.978 433.884 130.944 434.918 129.668 434.918H114.652C113.376 434.918 112.342 433.884 112.342 432.608V421.635Z" fill="#9BE6AA" stroke="#9BE6AA" stroke-width="2.04353" stroke-linecap="round"/>
<path d="M115 421.512L121.777 426.03L128.554 421.512" stroke="black" stroke-width="1.50144" stroke-linecap="round" stroke-linejoin="round"/>
<path d="M142.496 421.635V421.057C142.496 419.782 143.53 418.747 144.806 418.747H159.822C161.098 418.747 162.132 419.782 162.132 421.057V432.608C162.132 433.884 161.098 434.918 159.822 434.918H144.806C143.53 434.918 142.496 433.884 142.496 432.608V421.635Z" fill="#9BE6AA" stroke="#9BE6AA" stroke-width="2.04353" stroke-linecap="round"/>
<path d="M145.154 421.512L151.931 426.03L158.708 421.512" stroke="black" stroke-width="1.50144" stroke-linecap="round" stroke-linejoin="round"/>
<path d="M172.648 421.635V421.057C172.648 419.782 173.683 418.747 174.959 418.747H189.975C191.25 418.747 192.285 419.782 192.285 421.057V432.608C192.285 433.884 191.25 434.918 189.975 434.918H174.959C173.683 434.918 172.648 433.884 172.648 432.608V421.635Z" fill="#9BE6AA" stroke="#9BE6AA" stroke-width="2.04353" stroke-linecap="round"/>
<path d="M175.307 421.512L182.084 426.03L188.861 421.512" stroke="black" stroke-width="1.50144" stroke-linecap="round" stroke-linejoin="round"/>
<path d="M202.803 421.635V421.057C202.803 419.782 203.837 418.747 205.113 418.747H220.129C221.405 418.747 222.439 419.782 222.439 421.057V432.608C222.439 433.884 221.405 434.918 220.129 434.918H205.113C203.837 434.918 202.803 433.884 202.803 432.608V421.635Z" fill="#9BE6AA" stroke="#9BE6AA" stroke-width="2.04353" stroke-linecap="round"/>
<path d="M205.461 421.512L212.238 426.03L219.015 421.512" stroke="black" stroke-width="1.50144" stroke-linecap="round" stroke-linejoin="round"/>
<path d="M232.957 421.635V421.057C232.957 419.782 233.991 418.747 235.267 418.747H250.283C251.559 418.747 252.593 419.782 252.593 421.057V432.608C252.593 433.884 251.559 434.918 250.283 434.918H235.267C233.991 434.918 232.957 433.884 232.957 432.608V421.635Z" fill="#9BE6AA" stroke="#9BE6AA" stroke-width="2.04353" stroke-linecap="round"/>
<path d="M235.615 421.512L242.392 426.03L249.169 421.512" stroke="black" stroke-width="1.50144" stroke-linecap="round" stroke-linejoin="round"/>
<path d="M263.109 421.635V421.057C263.109 419.782 264.144 418.747 265.42 418.747H280.435C281.711 418.747 282.746 419.782 282.746 421.057V432.608C282.746 433.884 281.711 434.918 280.435 434.918H265.42C264.144 434.918 263.109 433.884 263.109 432.608V421.635Z" fill="#9BE6AA" stroke="#9BE6AA" stroke-width="2.04353" stroke-linecap="round"/>
<path d="M265.768 421.512L272.545 426.03L279.322 421.512" stroke="black" stroke-width="1.50144" stroke-linecap="round" stroke-linejoin="round"/>
<path d="M293.264 421.635V421.057C293.264 419.782 294.298 418.747 295.574 418.747H310.59C311.866 418.747 312.9 419.782 312.9 421.057V432.608C312.9 433.884 311.866 434.918 310.59 434.918H295.574C294.298 434.918 293.264 433.884 293.264 432.608V421.635Z" fill="#9BE6AA" stroke="#9BE6AA" stroke-width="2.04353" stroke-linecap="round"/>
<path d="M295.922 421.512L302.699 426.03L309.476 421.512" stroke="black" stroke-width="1.50144" stroke-linecap="round" stroke-linejoin="round"/>
<path d="M323.416 421.635V421.057C323.416 419.782 324.45 418.747 325.726 418.747H340.742C342.018 418.747 343.052 419.782 343.052 421.057V432.608C343.052 433.884 342.018 434.918 340.742 434.918H325.726C324.45 434.918 323.416 433.884 323.416 432.608V421.635Z" fill="#9BE6AA" stroke="#9BE6AA" stroke-width="2.04353" stroke-linecap="round"/>
<path d="M326.074 421.512L332.851 426.03L339.628 421.512" stroke="black" stroke-width="1.50144" stroke-linecap="round" stroke-linejoin="round"/>
<path d="M51.1504 446.898V446.3C51.1504 444.977 52.2223 443.905 53.5445 443.905H69.1064C70.4287 443.905 71.5006 444.977 71.5006 446.3V458.27C71.5006 459.593 70.4287 460.664 69.1064 460.664H53.5445C52.2223 460.664 51.1504 459.593 51.1504 458.27V446.898Z" fill="#9BE6AA" stroke="#9BE6AA" stroke-width="2.11783" stroke-linecap="round"/>
<path d="M53.9062 446.771L60.9297 451.453L67.9531 446.771" stroke="black" stroke-width="1.55603" stroke-linecap="round" stroke-linejoin="round"/>
<path d="M82.1895 447.075V446.498C82.1895 445.222 83.2237 444.188 84.4996 444.188H99.5155C100.791 444.188 101.826 445.222 101.826 446.498V458.049C101.826 459.325 100.791 460.359 99.5155 460.359H84.4996C83.2237 460.359 82.1895 459.325 82.1895 458.049V447.075Z" fill="#9BE6AA" stroke="#9BE6AA" stroke-width="2.04353" stroke-linecap="round"/>
<path d="M84.8477 446.953L91.6247 451.471L98.4017 446.953" stroke="black" stroke-width="1.50144" stroke-linecap="round" stroke-linejoin="round"/>
<path d="M112.342 447.075V446.498C112.342 445.222 113.376 444.188 114.652 444.188H129.668C130.944 444.188 131.978 445.222 131.978 446.498V458.049C131.978 459.325 130.944 460.359 129.668 460.359H114.652C113.376 460.359 112.342 459.325 112.342 458.049V447.075Z" fill="#9BE6AA" stroke="#9BE6AA" stroke-width="2.04353" stroke-linecap="round"/>
<path d="M115 446.953L121.777 451.471L128.554 446.953" stroke="black" stroke-width="1.50144" stroke-linecap="round" stroke-linejoin="round"/>
<path d="M142.496 447.075V446.498C142.496 445.222 143.53 444.188 144.806 444.188H159.822C161.098 444.188 162.132 445.222 162.132 446.498V458.049C162.132 459.325 161.098 460.359 159.822 460.359H144.806C143.53 460.359 142.496 459.325 142.496 458.049V447.075Z" fill="#9BE6AA" stroke="#9BE6AA" stroke-width="2.04353" stroke-linecap="round"/>
<path d="M145.154 446.953L151.931 451.471L158.708 446.953" stroke="black" stroke-width="1.50144" stroke-linecap="round" stroke-linejoin="round"/>
<path d="M172.648 447.075V446.498C172.648 445.222 173.683 444.188 174.959 444.188H189.975C191.25 444.188 192.285 445.222 192.285 446.498V458.049C192.285 459.325 191.25 460.359 189.975 460.359H174.959C173.683 460.359 172.648 459.325 172.648 458.049V447.075Z" fill="#9BE6AA" stroke="#9BE6AA" stroke-width="2.04353" stroke-linecap="round"/>
<path d="M175.307 446.953L182.084 451.471L188.861 446.953" stroke="black" stroke-width="1.50144" stroke-linecap="round" stroke-linejoin="round"/>
<path d="M202.803 447.075V446.498C202.803 445.222 203.837 444.188 205.113 444.188H220.129C221.405 444.188 222.439 445.222 222.439 446.498V458.049C222.439 459.325 221.405 460.359 220.129 460.359H205.113C203.837 460.359 202.803 459.325 202.803 458.049V447.075Z" fill="#9BE6AA" stroke="#9BE6AA" stroke-width="2.04353" stroke-linecap="round"/>
<path d="M205.461 446.953L212.238 451.471L219.015 446.953" stroke="black" stroke-width="1.50144" stroke-linecap="round" stroke-linejoin="round"/>
<path d="M232.957 447.075V446.498C232.957 445.222 233.991 444.188 235.267 444.188H250.283C251.559 444.188 252.593 445.222 252.593 446.498V458.049C252.593 459.325 251.559 460.359 250.283 460.359H235.267C233.991 460.359 232.957 459.325 232.957 458.049V447.075Z" fill="#9BE6AA" stroke="#9BE6AA" stroke-width="2.04353" stroke-linecap="round"/>
<path d="M235.615 446.953L242.392 451.471L249.169 446.953" stroke="black" stroke-width="1.50144" stroke-linecap="round" stroke-linejoin="round"/>
<path d="M263.109 447.075V446.498C263.109 445.222 264.144 444.188 265.42 444.188H280.435C281.711 444.188 282.746 445.222 282.746 446.498V458.049C282.746 459.325 281.711 460.359 280.435 460.359H265.42C264.144 460.359 263.109 459.325 263.109 458.049V447.075Z" fill="#9BE6AA" stroke="#9BE6AA" stroke-width="2.04353" stroke-linecap="round"/>
<path d="M265.768 446.953L272.545 451.471L279.322 446.953" stroke="black" stroke-width="1.50144" stroke-linecap="round" stroke-linejoin="round"/>
<path d="M293.264 447.075V446.498C293.264 445.222 294.298 444.188 295.574 444.188H310.59C311.866 444.188 312.9 445.222 312.9 446.498V458.049C312.9 459.325 311.866 460.359 310.59 460.359H295.574C294.298 460.359 293.264 459.325 293.264 458.049V447.075Z" fill="#9BE6AA" stroke="#9BE6AA" stroke-width="2.04353" stroke-linecap="round"/>
<path d="M295.922 446.953L302.699 451.471L309.476 446.953" stroke="black" stroke-width="1.50144" stroke-linecap="round" stroke-linejoin="round"/>
<path d="M323.416 447.075V446.498C323.416 445.222 324.45 444.188 325.726 444.188H340.742C342.018 444.188 343.052 445.222 343.052 446.498V458.049C343.052 459.325 342.018 460.359 340.742 460.359H325.726C324.45 460.359 323.416 459.325 323.416 458.049V447.075Z" fill="#9BE6AA" stroke="#9BE6AA" stroke-width="2.04353" stroke-linecap="round"/>
<path d="M326.074 446.953L332.851 451.471L339.628 446.953" stroke="black" stroke-width="1.50144" stroke-linecap="round" stroke-linejoin="round"/>
<path d="M51.1504 472.339V471.74C51.1504 470.418 52.2223 469.346 53.5445 469.346H69.1064C70.4287 469.346 71.5006 470.418 71.5006 471.74V483.711C71.5006 485.033 70.4287 486.105 69.1064 486.105H53.5445C52.2223 486.105 51.1504 485.033 51.1504 483.711V472.339Z" fill="#9BE6AA" stroke="#9BE6AA" stroke-width="2.11783" stroke-linecap="round"/>
<path d="M53.9062 472.212L60.9297 476.894L67.9531 472.212" stroke="black" stroke-width="1.55603" stroke-linecap="round" stroke-linejoin="round"/>
<path d="M82.1895 472.516V471.938C82.1895 470.662 83.2237 469.628 84.4996 469.628H99.5155C100.791 469.628 101.826 470.662 101.826 471.938V483.489C101.826 484.765 100.791 485.799 99.5155 485.799H84.4996C83.2237 485.799 82.1895 484.765 82.1895 483.489V472.516Z" fill="#9BE6AA" stroke="#9BE6AA" stroke-width="2.04353" stroke-linecap="round"/>
<path d="M84.8477 472.393L91.6247 476.911L98.4017 472.393" stroke="black" stroke-width="1.50144" stroke-linecap="round" stroke-linejoin="round"/>
<path d="M112.342 472.516V471.938C112.342 470.662 113.376 469.628 114.652 469.628H129.668C130.944 469.628 131.978 470.662 131.978 471.938V483.489C131.978 484.765 130.944 485.799 129.668 485.799H114.652C113.376 485.799 112.342 484.765 112.342 483.489V472.516Z" fill="#9BE6AA" stroke="#9BE6AA" stroke-width="2.04353" stroke-linecap="round"/>
<path d="M115 472.393L121.777 476.911L128.554 472.393" stroke="black" stroke-width="1.50144" stroke-linecap="round" stroke-linejoin="round"/>
<path d="M142.496 472.516V471.938C142.496 470.662 143.53 469.628 144.806 469.628H159.822C161.098 469.628 162.132 470.662 162.132 471.938V483.489C162.132 484.765 161.098 485.799 159.822 485.799H144.806C143.53 485.799 142.496 484.765 142.496 483.489V472.516Z" fill="#9BE6AA" stroke="#9BE6AA" stroke-width="2.04353" stroke-linecap="round"/>
<path d="M145.154 472.393L151.931 476.911L158.708 472.393" stroke="black" stroke-width="1.50144" stroke-linecap="round" stroke-linejoin="round"/>
<path d="M172.648 472.516V471.938C172.648 470.662 173.683 469.628 174.959 469.628H189.975C191.25 469.628 192.285 470.662 192.285 471.938V483.489C192.285 484.765 191.25 485.799 189.975 485.799H174.959C173.683 485.799 172.648 484.765 172.648 483.489V472.516Z" fill="#9BE6AA" stroke="#9BE6AA" stroke-width="2.04353" stroke-linecap="round"/>
<path d="M175.307 472.393L182.084 476.911L188.861 472.393" stroke="black" stroke-width="1.50144" stroke-linecap="round" stroke-linejoin="round"/>
<path d="M202.803 472.516V471.938C202.803 470.662 203.837 469.628 205.113 469.628H220.129C221.405 469.628 222.439 470.662 222.439 471.938V483.489C222.439 484.765 221.405 485.799 220.129 485.799H205.113C203.837 485.799 202.803 484.765 202.803 483.489V472.516Z" fill="#9BE6AA" stroke="#9BE6AA" stroke-width="2.04353" stroke-linecap="round"/>
<path d="M205.461 472.393L212.238 476.911L219.015 472.393" stroke="black" stroke-width="1.50144" stroke-linecap="round" stroke-linejoin="round"/>
<path d="M232.957 472.516V471.938C232.957 470.662 233.991 469.628 235.267 469.628H250.283C251.559 469.628 252.593 470.662 252.593 471.938V483.489C252.593 484.765 251.559 485.799 250.283 485.799H235.267C233.991 485.799 232.957 484.765 232.957 483.489V472.516Z" fill="#9BE6AA" stroke="#9BE6AA" stroke-width="2.04353" stroke-linecap="round"/>
<path d="M235.615 472.393L242.392 476.911L249.169 472.393" stroke="black" stroke-width="1.50144" stroke-linecap="round" stroke-linejoin="round"/>
<path d="M263.109 472.516V471.938C263.109 470.662 264.144 469.628 265.42 469.628H280.435C281.711 469.628 282.746 470.662 282.746 471.938V483.489C282.746 484.765 281.711 485.799 280.435 485.799H265.42C264.144 485.799 263.109 484.765 263.109 483.489V472.516Z" fill="#9BE6AA" stroke="#9BE6AA" stroke-width="2.04353" stroke-linecap="round"/>
<path d="M265.768 472.393L272.545 476.911L279.322 472.393" stroke="black" stroke-width="1.50144" stroke-linecap="round" stroke-linejoin="round"/>
<path d="M293.264 472.516V471.938C293.264 470.662 294.298 469.628 295.574 469.628H310.59C311.866 469.628 312.9 470.662 312.9 471.938V483.489C312.9 484.765 311.866 485.799 310.59 485.799H295.574C294.298 485.799 293.264 484.765 293.264 483.489V472.516Z" fill="#9BE6AA" stroke="#9BE6AA" stroke-width="2.04353" stroke-linecap="round"/>
<path d="M295.922 472.393L302.699 476.911L309.476 472.393" stroke="black" stroke-width="1.50144" stroke-linecap="round" stroke-linejoin="round"/>
<path d="M66.5342 560.851C62.6037 560.851 59.2581 560.289 56.4973 559.166C53.7366 557.997 51.631 556.406 50.1805 554.394C48.7767 552.335 48.0748 549.949 48.0748 547.235C48.0748 544.287 48.8001 541.713 50.2506 539.514C51.748 537.268 53.877 535.537 56.6377 534.32C54.3917 533.244 52.6604 531.77 51.4438 529.898C50.274 527.98 49.6891 525.804 49.6891 523.371C49.6891 520.75 50.3442 518.434 51.6544 516.422C53.0114 514.41 54.9532 512.843 57.48 511.72C60.0067 510.597 63.0248 510.035 66.5342 510.035C70.0903 510.035 73.1318 510.597 75.6586 511.72C78.1853 512.843 80.1272 514.41 81.4841 516.422C82.8411 518.434 83.5196 520.75 83.5196 523.371C83.5196 525.804 82.9113 527.98 81.6947 529.898C80.4781 531.77 78.7468 533.244 76.5008 534.32C79.2615 535.537 81.3905 537.268 82.8879 539.514C84.3852 541.713 85.1339 544.287 85.1339 547.235C85.1339 549.949 84.4086 552.335 82.9581 554.394C81.5075 556.406 79.4019 557.997 76.6412 559.166C73.8805 560.289 70.5115 560.851 66.5342 560.851ZM66.5342 552.85C69.1077 552.85 71.2133 552.218 72.8511 550.955C74.4888 549.644 75.3076 547.983 75.3076 545.971C75.3076 543.772 74.4888 541.994 72.8511 540.637C71.2133 539.28 69.1077 538.602 66.5342 538.602C64.8497 538.602 63.3523 538.906 62.0422 539.514C60.7788 540.122 59.7728 540.988 59.0241 542.111C58.2754 543.234 57.9011 544.521 57.9011 545.971C57.9011 547.328 58.2754 548.521 59.0241 549.551C59.7728 550.58 60.7788 551.399 62.0422 552.007C63.3523 552.569 64.8497 552.85 66.5342 552.85ZM66.5342 530.951C68.7802 530.951 70.605 530.343 72.0088 529.126C73.4593 527.91 74.1846 526.365 74.1846 524.494C74.1846 522.482 73.4593 520.867 72.0088 519.651C70.605 518.387 68.7802 517.756 66.5342 517.756C64.335 517.756 62.5335 518.387 61.1297 519.651C59.726 520.867 59.0241 522.482 59.0241 524.494C59.0241 526.365 59.726 527.91 61.1297 529.126C62.5335 530.343 64.335 530.951 66.5342 530.951ZM106.286 510.105C109.608 510.105 112.416 510.714 114.708 511.93C117.048 513.1 118.943 514.738 120.394 516.843C121.891 518.949 122.967 521.406 123.622 524.213C124.324 526.974 124.675 529.945 124.675 533.127C124.675 536.917 124.277 540.497 123.482 543.866C122.686 547.188 121.47 550.136 119.832 552.709C118.241 555.236 116.182 557.248 113.656 558.745C111.129 560.196 108.087 560.921 104.531 560.921C101.958 560.921 99.431 560.547 96.951 559.798C94.5179 559.003 92.3186 557.926 90.3534 556.57L95.056 549.551C96.5533 550.533 98.1208 551.282 99.7585 551.797C101.443 552.265 102.964 552.499 104.321 552.499C107.97 552.499 110.825 550.908 112.884 547.726C114.989 544.497 115.948 539.467 115.761 532.636L117.727 533.899C116.65 536.472 114.989 538.555 112.743 540.146C110.497 541.69 107.807 542.462 104.672 542.462C101.583 542.462 98.8227 541.737 96.3895 540.286C93.9564 538.789 92.0613 536.8 90.7043 534.32C89.3474 531.84 88.6689 529.033 88.6689 525.898C88.6689 522.809 89.3942 520.095 90.8447 517.756C92.2952 515.369 94.3307 513.498 96.951 512.141C99.6182 510.784 102.73 510.105 106.286 510.105ZM106.286 518.177C104.742 518.177 103.361 518.528 102.145 519.23C100.928 519.932 99.9691 520.891 99.2672 522.107C98.5653 523.324 98.2144 524.728 98.2144 526.319C98.2144 527.91 98.5653 529.337 99.2672 530.6C99.9691 531.864 100.928 532.846 102.145 533.548C103.361 534.25 104.742 534.601 106.286 534.601C107.83 534.601 109.21 534.25 110.427 533.548C111.644 532.846 112.603 531.864 113.305 530.6C114.053 529.337 114.428 527.91 114.428 526.319C114.428 524.728 114.053 523.324 113.305 522.107C112.603 520.891 111.644 519.932 110.427 519.23C109.21 518.528 107.83 518.177 106.286 518.177ZM160.785 560.851C157.323 560.851 154.258 560.079 151.591 558.535C148.924 556.944 146.818 554.768 145.274 552.007C143.776 549.247 143.028 546.065 143.028 542.462C143.028 538.859 143.8 535.677 145.344 532.916C146.935 530.156 149.087 528.003 151.801 526.459C154.562 524.868 157.72 524.073 161.277 524.073C164.365 524.073 167.196 524.892 169.769 526.529C172.39 528.12 174.472 530.483 176.016 533.618C177.607 536.706 178.402 540.473 178.402 544.918H152.714C152.948 547.258 153.954 549.13 155.732 550.533C157.51 551.89 159.522 552.569 161.768 552.569C163.686 552.569 165.254 552.171 166.47 551.376C167.687 550.533 168.623 549.457 169.278 548.147L177.56 551.376C176.577 553.341 175.291 555.049 173.7 556.499C172.156 557.903 170.307 558.979 168.155 559.728C166.003 560.477 163.546 560.851 160.785 560.851ZM153.205 538.04H168.366C168.225 536.589 167.757 535.42 166.962 534.531C166.166 533.642 165.23 532.987 164.154 532.565C163.078 532.144 162.025 531.934 160.996 531.934C160.013 531.934 158.937 532.144 157.767 532.565C156.644 532.94 155.638 533.571 154.749 534.46C153.907 535.349 153.392 536.543 153.205 538.04ZM182.247 560.009V524.915H190.95L191.371 529.477C192.447 527.699 193.828 526.365 195.512 525.476C197.197 524.541 199.068 524.073 201.127 524.073C203.981 524.073 206.368 524.681 208.286 525.898C210.251 527.114 211.679 528.986 212.568 531.513C213.597 529.126 215.048 527.301 216.919 526.038C218.791 524.728 220.967 524.073 223.447 524.073C227.564 524.073 230.699 525.383 232.852 528.003C235.004 530.577 236.08 534.554 236.08 539.935V560.009H226.816V542.041C226.816 539.654 226.558 537.806 226.044 536.496C225.529 535.186 224.827 534.25 223.938 533.688C223.049 533.08 221.996 532.776 220.78 532.776C218.534 532.729 216.802 533.454 215.586 534.952C214.369 536.449 213.761 538.672 213.761 541.62V560.009H204.496V542.041C204.496 539.654 204.239 537.806 203.724 536.496C203.256 535.186 202.554 534.25 201.618 533.688C200.729 533.08 199.677 532.776 198.46 532.776C196.214 532.729 194.483 533.454 193.266 534.952C192.096 536.449 191.511 538.672 191.511 541.62V560.009H182.247ZM253.286 560.851C249.074 560.851 245.799 559.915 243.459 558.043C241.167 556.172 240.02 553.528 240.02 550.112C240.02 546.369 241.26 543.561 243.74 541.69C246.267 539.771 249.8 538.812 254.338 538.812H262.621C262.293 536.66 261.615 535.022 260.585 533.899C259.556 532.729 258.082 532.144 256.163 532.144C254.666 532.144 253.309 532.472 252.092 533.127C250.876 533.782 249.846 534.788 249.004 536.145L240.862 533.337C241.517 531.84 242.477 530.39 243.74 528.986C245.003 527.535 246.641 526.365 248.653 525.476C250.712 524.541 253.215 524.073 256.163 524.073C259.719 524.073 262.667 524.751 265.007 526.108C267.393 527.465 269.148 529.384 270.271 531.864C271.441 534.297 272.002 537.198 271.956 540.567L271.745 560.009H263.112L262.972 555.938C262.082 557.529 260.819 558.745 259.181 559.588C257.59 560.43 255.625 560.851 253.286 560.851ZM254.83 553.13C256.327 553.13 257.684 552.779 258.901 552.078C260.117 551.376 261.076 550.463 261.778 549.34C262.48 548.217 262.831 547.047 262.831 545.831V545.69H257.567C254.526 545.69 252.42 546.065 251.25 546.813C250.08 547.515 249.495 548.521 249.495 549.832C249.495 550.861 249.963 551.68 250.899 552.288C251.835 552.85 253.145 553.13 254.83 553.13ZM278.361 560.009V524.915H287.626V560.009H278.361ZM282.993 519.23C281.59 519.23 280.35 518.715 279.274 517.686C278.197 516.609 277.659 515.346 277.659 513.895C277.659 512.445 278.197 511.205 279.274 510.176C280.35 509.099 281.59 508.561 282.993 508.561C284.444 508.561 285.684 509.099 286.713 510.176C287.79 511.205 288.328 512.445 288.328 513.895C288.328 515.346 287.79 516.609 286.713 517.686C285.684 518.715 284.444 519.23 282.993 519.23ZM294.629 560.009V510.877H303.894V560.009H294.629ZM323.487 560.851C321.241 560.851 319.135 560.523 317.17 559.868C315.205 559.166 313.474 558.184 311.976 556.92C310.479 555.61 309.309 554.019 308.467 552.148L316.398 548.498C317.1 549.621 318.059 550.604 319.276 551.446C320.492 552.241 321.896 552.639 323.487 552.639C325.031 552.639 326.224 552.428 327.067 552.007C327.909 551.539 328.33 550.884 328.33 550.042C328.33 549.2 327.979 548.592 327.277 548.217C326.622 547.796 325.71 547.445 324.54 547.164L321.311 546.322C317.942 545.433 315.275 544.029 313.31 542.111C311.391 540.146 310.432 537.9 310.432 535.373C310.432 531.77 311.579 528.986 313.871 527.021C316.211 525.055 319.51 524.073 323.768 524.073C325.967 524.073 328.002 524.4 329.874 525.055C331.793 525.71 333.43 526.623 334.787 527.793C336.144 528.962 337.08 530.319 337.595 531.864L329.944 535.373C329.617 534.437 328.821 533.688 327.558 533.127C326.295 532.519 325.031 532.214 323.768 532.214C322.504 532.214 321.522 532.495 320.82 533.057C320.165 533.571 319.837 534.297 319.837 535.233C319.837 535.841 320.165 536.356 320.82 536.777C321.475 537.151 322.411 537.479 323.627 537.759L328.19 538.882C330.482 539.444 332.307 540.356 333.664 541.62C335.068 542.836 336.074 544.217 336.682 545.761C337.337 547.258 337.665 548.732 337.665 550.182C337.665 552.288 337.033 554.16 335.77 555.797C334.553 557.388 332.869 558.628 330.716 559.517C328.611 560.406 326.201 560.851 323.487 560.851Z" fill="#9BE6AA"/>
<path d="M352.351 35.9412L436.172 25.1452C436.211 25.1402 436.251 25.1511 436.282 25.1753L436.283 25.1752L461.851 44.9076C461.883 44.9322 461.903 44.9687 461.908 45.0086L476.411 157.605C476.421 157.688 476.363 157.764 476.28 157.774L369.809 171.488C369.726 171.498 369.651 171.439 369.64 171.357L352.221 36.1096C352.21 36.0271 352.268 35.9521 352.351 35.9412Z" stroke="#9BE6AA" stroke-width="8.40178" stroke-linecap="square" stroke-linejoin="round"/>
<path d="M383.693 86.1696L441.245 78.757" stroke="#9BE6AA" stroke-width="8.40178" stroke-linecap="round" stroke-linejoin="round"/>
<path d="M390.059 127.039L447.61 119.627" stroke="#9BE6AA" stroke-width="8.40178" stroke-linecap="round" stroke-linejoin="round"/>
<path d="M387.396 106.61L416.172 102.904" stroke="#9BE6AA" stroke-width="8.40178" stroke-linecap="round" stroke-linejoin="round"/>
<rect width="45.7799" height="50.4172" transform="translate(334.162 10.9424) rotate(-6.64948)" fill="black"/>
<path d="M351.667 48.411C364.793 48.2514 370.448 42.6591 370.286 29.333C370.448 42.6591 376.198 48.1127 389.364 47.9525C376.198 48.1127 370.585 53.8644 370.745 67.0305C370.585 53.8644 364.793 48.2514 351.667 48.411Z" fill="black" stroke="#9BE6AA" stroke-width="4.16962" stroke-linejoin="round"/>
<path d="M335.231 25.7187C343.67 25.616 347.305 22.0211 347.201 13.4542C347.305 22.0211 351.002 25.5269 359.465 25.4239C351.002 25.5269 347.393 29.2244 347.496 37.6883C347.393 29.2244 343.67 25.616 335.231 25.7187Z" fill="black" stroke="#9BE6AA" stroke-width="4.16962" stroke-linejoin="round"/>
</g>
<rect x="1.41022" y="1.41022" width="420.247" height="618.618" rx="6.92902" stroke="#9BE6AA" stroke-width="2.82045"/>
<defs>
<clipPath id="clip0_532_1244">
<rect width="423.067" height="621.439" rx="8.33924" fill="white"/>
</clipPath>
</defs>
</svg>
