<svg xmlns="http://www.w3.org/2000/svg" width="424" height="622" fill="none" viewBox="0 0 424 622"><g clip-path="url(#a)"><path fill="#9be6aa" d="M56.898 71.578q-2.069 0-3.799-.488-1.692-.49-3.008-1.354-1.278-.865-2.144-1.918-.827-1.091-1.165-2.257l4.287-1.316q.489 1.392 1.918 2.445t3.535 1.09q2.444 0 3.873-1.015 1.43-1.016 1.429-2.67 0-1.505-1.203-2.444-1.203-.978-3.235-1.505l-3.234-.827a12.2 12.2 0 0 1-3.346-1.43 7.25 7.25 0 0 1-2.332-2.368q-.828-1.43-.827-3.385 0-3.685 2.406-5.716 2.407-2.068 6.882-2.068 2.52 0 4.4.79 1.918.751 3.159 2.105a8.5 8.5 0 0 1 1.843 3.009l-4.212 1.354q-.564-1.504-1.956-2.482-1.39-.978-3.46-.978-2.143 0-3.384 1.015-1.203 1.016-1.203 2.82 0 1.468.94 2.295.979.789 2.632 1.203l3.234.79q3.535.865 5.49 2.97 1.956 2.107 1.956 4.664 0 2.256-1.09 3.986t-3.234 2.708q-2.106.977-5.152.977m19.532 0q-2.219 0-3.836-.902-1.578-.903-2.444-2.82-.865-1.919-.865-4.927V52.324h4.212v9.627q0 2.22.526 3.46.528 1.24 1.43 1.73.939.489 2.143.489 2.144.038 3.31-1.392 1.165-1.428 1.165-4.099v-9.815h4.175v18.803h-3.95l-.187-2.67a6.4 6.4 0 0 1-2.37 2.332q-1.428.79-3.309.79m13.783-.45V52.323h3.949l.188 2.52q.864-1.467 2.219-2.219 1.353-.752 3.083-.752 2.256 0 3.836 1.015t2.294 3.084q.828-1.993 2.332-3.046t3.535-1.053q3.271 0 5.039 2.106 1.767 2.068 1.73 6.393v10.755h-4.175V61.5q0-2.256-.489-3.46-.488-1.24-1.316-1.73-.827-.489-1.918-.489-1.955-.036-3.046 1.392-1.053 1.43-1.053 4.099v9.815h-4.212V61.5q0-2.256-.488-3.46-.452-1.24-1.279-1.73-.827-.489-1.918-.489-1.956-.036-3.046 1.392-1.053 1.43-1.053 4.099v9.815zm31.789 0V52.323h3.948l.188 2.52q.866-1.467 2.219-2.219 1.355-.752 3.084-.752 2.256 0 3.836 1.015 1.579 1.015 2.294 3.084.826-1.993 2.331-3.046t3.535-1.053q3.272 0 5.039 2.106 1.768 2.068 1.73 6.393v10.755h-4.174V61.5q0-2.256-.489-3.46-.488-1.24-1.316-1.73-.828-.489-1.918-.489-1.956-.036-3.046 1.392-1.053 1.43-1.053 4.099v9.815h-4.212V61.5q0-2.256-.489-3.46-.451-1.24-1.278-1.73-.828-.489-1.918-.489-1.956-.036-3.046 1.392-1.053 1.43-1.053 4.099v9.815zm37.843.45q-3.384 0-5.265-1.504-1.842-1.505-1.842-4.25 0-2.933 1.955-4.474 1.994-1.542 5.528-1.542h4.776q-.225-2.069-1.166-3.16-.94-1.09-2.783-1.09-1.353 0-2.369.564-1.015.564-1.73 1.768l-3.685-1.354a9.4 9.4 0 0 1 1.58-2.294q1.014-1.09 2.519-1.73 1.542-.64 3.685-.64 2.746 0 4.588 1.092 1.843 1.053 2.708 3.046.903 1.992.903 4.813l-.113 10.304h-3.874l-.112-2.294a5.14 5.14 0 0 1-2.106 2.03q-1.316.715-3.197.715m.527-3.535q1.39 0 2.444-.601 1.09-.639 1.655-1.692.601-1.054.601-2.332v-.376h-3.497q-2.52 0-3.535.714-1.015.677-1.015 1.956 0 1.09.865 1.73.902.601 2.482.602m12.427 3.084V52.324h4.212v3.422q1.128-1.767 2.933-2.632a8.5 8.5 0 0 1 3.723-.865v4.024q-1.73 0-3.271.489-1.505.45-2.445 1.504-.94 1.053-.94 2.783v10.078zm13.212 0V52.324h4.175v18.803zm2.106-22.375a2.48 2.48 0 0 1-1.767-.715 2.48 2.48 0 0 1-.715-1.767q0-1.016.715-1.73a2.48 2.48 0 0 1 1.767-.715q1.016 0 1.73.715.752.714.752 1.73 0 1.015-.752 1.767a2.36 2.36 0 0 1-1.73.715m5.38 22.375v-3.121L203.5 55.859h-10.003v-3.535h15.306v3.084L198.799 67.63h10.079v3.497zm26.792.451q-2.745 0-4.888-1.24-2.106-1.28-3.347-3.498-1.204-2.22-1.204-5.114 0-2.896 1.241-5.115 1.242-2.218 3.385-3.46 2.181-1.278 4.964-1.278 2.519 0 4.55 1.316 2.03 1.278 3.197 3.723 1.203 2.445 1.203 5.829h-14.177q.188 2.37 1.729 3.723 1.58 1.354 3.723 1.354 1.73 0 2.858-.752a5.5 5.5 0 0 0 1.768-2.031l3.723 1.58a9.5 9.5 0 0 1-2.031 2.632q-1.203 1.128-2.895 1.73-1.656.6-3.799.601m-4.813-12.071h9.364q-.114-1.354-.79-2.219a4.3 4.3 0 0 0-1.655-1.354 4.9 4.9 0 0 0-2.068-.45q-1.053 0-2.144.45a4.43 4.43 0 0 0-1.805 1.317q-.752.902-.902 2.256m30.84 12.071q-3.384 0-5.265-1.504-1.842-1.505-1.842-4.25 0-2.933 1.955-4.474 1.994-1.542 5.528-1.542h4.776q-.225-2.069-1.165-3.16-.94-1.09-2.783-1.09-1.355 0-2.369.564-1.016.564-1.73 1.768l-3.686-1.354a9.4 9.4 0 0 1 1.58-2.294q1.016-1.09 2.519-1.73 1.542-.64 3.686-.64 2.745 0 4.588 1.092 1.843 1.053 2.707 3.046.903 1.992.903 4.813l-.113 10.304h-3.873l-.113-2.294a5.14 5.14 0 0 1-2.106 2.03q-1.316.715-3.197.715m.527-3.535q1.39 0 2.444-.601 1.09-.639 1.655-1.692.602-1.054.602-2.332v-.376h-3.498q-2.52 0-3.535.714-1.015.677-1.015 1.956 0 1.09.865 1.73.903.601 2.482.602m30.939 3.535q-1.992 0-3.497-.865-1.505-.864-2.52-2.444l-.15 2.858h-3.986V44.803h4.212v10.304q.977-1.542 2.482-2.37 1.504-.864 3.459-.864 2.557 0 4.438 1.24 1.918 1.204 2.971 3.423 1.09 2.181 1.09 5.19 0 2.97-1.09 5.19-1.054 2.218-2.971 3.459-1.88 1.203-4.438 1.203m-1.053-3.835q1.504 0 2.67-.752 1.167-.79 1.843-2.144.714-1.354.715-3.121 0-1.769-.677-3.122-.64-1.353-1.805-2.106-1.167-.752-2.708-.752-1.43 0-2.557.752-1.128.753-1.768 2.106-.601 1.354-.601 3.122t.601 3.121q.64 1.354 1.73 2.144 1.129.751 2.557.752m12.706 3.384V52.324h4.174v18.803zm2.105-22.375a2.48 2.48 0 0 1-1.767-.715 2.48 2.48 0 0 1-.714-1.767q0-1.016.714-1.73a2.48 2.48 0 0 1 1.767-.715q1.016 0 1.73.715.753.714.752 1.73 0 1.015-.752 1.767a2.36 2.36 0 0 1-1.73.715m14.406 30.385q-1.994 0-3.611-.338-1.58-.34-2.67-.79-1.09-.451-1.692-.865l1.617-3.384a30 30 0 0 0 1.392.639 12 12 0 0 0 2.106.714q1.203.301 2.707.301 1.617 0 2.896-.677 1.278-.639 1.993-1.993.714-1.353.714-3.46v-1.88a7.1 7.1 0 0 1-2.557 2.482q-1.542.865-3.535.865-2.557 0-4.475-1.166-1.88-1.165-2.971-3.234-1.053-2.105-1.053-4.851 0-2.934 1.053-5.077 1.091-2.143 2.971-3.347 1.918-1.203 4.475-1.203 1.993 0 3.535.903 1.58.902 2.557 2.594v-3.046h4.212v16.848q0 3.196-1.203 5.415-1.204 2.256-3.385 3.385-2.181 1.165-5.076 1.165m.526-11.958q1.43 0 2.482-.753 1.09-.752 1.692-2.03.602-1.316.602-3.009 0-1.73-.602-3.008-.601-1.317-1.692-2.031-1.09-.752-2.52-.752-1.503 0-2.67.752-1.128.714-1.805 2.03-.639 1.28-.639 3.01 0 1.69.639 3.008a5.35 5.35 0 0 0 1.843 2.03q1.165.752 2.67.752m-251.567 40.4q-2.558 0-4.476-1.203-1.88-1.241-2.97-3.46-1.054-2.219-1.053-5.19 0-3.008 1.053-5.189 1.09-2.22 2.97-3.422 1.918-1.24 4.475-1.241 1.956 0 3.46.865 1.504.827 2.482 2.369V80.803h4.175v26.324h-3.987l-.15-2.858q-.94 1.58-2.482 2.445-1.504.864-3.498.864m1.053-3.835q1.39 0 2.482-.715 1.09-.752 1.692-2.031.639-1.316.714-3.008v-.527q-.075-1.692-.714-2.97-.602-1.317-1.692-2.031-1.091-.715-2.52-.715-1.505 0-2.708.752-1.165.753-1.843 2.106-.639 1.354-.639 3.122t.677 3.121 1.843 2.144q1.203.752 2.708.752m21.656 3.835q-2.82 0-5.04-1.241a9.17 9.17 0 0 1-3.422-3.497q-1.24-2.219-1.24-5.114t1.203-5.115a8.9 8.9 0 0 1 3.422-3.46q2.181-1.278 5.001-1.278t5.002 1.278a8.64 8.64 0 0 1 3.385 3.46q1.24 2.22 1.24 5.115t-1.203 5.114a8.9 8.9 0 0 1-3.384 3.497q-2.181 1.242-4.964 1.241m0-3.873q1.542 0 2.745-.752a5.46 5.46 0 0 0 1.88-2.106q.677-1.354.677-3.121 0-1.769-.714-3.084-.678-1.355-1.88-2.106-1.204-.79-2.784-.79t-2.782.752q-1.205.753-1.88 2.106-.678 1.354-.678 3.122t.677 3.121a5.76 5.76 0 0 0 1.918 2.106q1.242.752 2.82.752m21.289 3.873q-2.896 0-5.115-1.241a9.36 9.36 0 0 1-3.497-3.497q-1.24-2.219-1.241-5.114 0-2.896 1.241-5.115a9.17 9.17 0 0 1 3.46-3.46q2.219-1.278 5.076-1.278 2.783 0 5.04 1.354 2.256 1.316 3.347 3.798l-3.911 1.504q-.602-1.241-1.843-1.993-1.24-.752-2.82-.752-1.543 0-2.746.79-1.203.752-1.88 2.106-.677 1.315-.677 3.046 0 1.729.677 3.083a5.75 5.75 0 0 0 1.918 2.106q1.24.752 2.783.752 1.58 0 2.82-.789a5 5 0 0 0 1.843-2.219l3.911 1.504q-1.09 2.558-3.347 3.986-2.219 1.43-5.04 1.429m17.674 0q-2.218 0-3.835-.902-1.58-.903-2.445-2.821-.864-1.917-.865-4.926V88.324h4.212v9.627q0 2.22.527 3.46.526 1.24 1.429 1.73.94.489 2.143.489 2.143.038 3.31-1.392 1.165-1.428 1.165-4.099v-9.815h4.175v18.803h-3.949l-.188-2.67q-.903 1.504-2.369 2.332-1.43.789-3.31.789m13.783-.451V88.324h3.949l.188 2.52q.865-1.467 2.219-2.219t3.083-.752q2.257 0 3.836 1.015 1.58 1.016 2.294 3.084.828-1.993 2.332-3.046t3.535-1.053q3.272 0 5.039 2.106 1.767 2.069 1.73 6.393v10.755h-4.175V97.5q0-2.256-.488-3.46-.489-1.24-1.317-1.73-.826-.489-1.918-.489-1.955-.037-3.046 1.392-1.053 1.43-1.053 4.099v9.815h-4.211V97.5q0-2.256-.489-3.46-.451-1.24-1.279-1.73-.827-.489-1.918-.489-1.955-.037-3.046 1.392-1.053 1.43-1.053 4.099v9.815zm40.175.451q-2.745 0-4.889-1.241-2.105-1.278-3.347-3.497-1.203-2.219-1.203-5.114t1.241-5.115q1.241-2.218 3.385-3.46 2.18-1.278 4.964-1.278 2.519 0 4.55 1.316 2.03 1.28 3.196 3.723 1.204 2.445 1.204 5.829h-14.178q.189 2.368 1.73 3.723 1.58 1.354 3.723 1.354 1.73 0 2.858-.752a5.54 5.54 0 0 0 1.768-2.031l3.723 1.579a9.5 9.5 0 0 1-2.031 2.633q-1.203 1.128-2.896 1.73-1.654.601-3.798.601m-4.813-12.071h9.363q-.113-1.354-.789-2.219a4.3 4.3 0 0 0-1.655-1.354 4.9 4.9 0 0 0-2.068-.45q-1.053 0-2.144.45a4.43 4.43 0 0 0-1.805 1.317q-.752.901-.902 2.256m16.427 11.62V88.324h3.949l.188 2.67q.902-1.504 2.331-2.294 1.467-.827 3.347-.827 2.257 0 3.836.902 1.617.903 2.444 2.82.865 1.882.865 4.927v10.605h-4.211V97.5q0-2.256-.527-3.46-.489-1.24-1.429-1.73-.903-.489-2.144-.489-2.105-.037-3.271 1.392-1.166 1.43-1.166 4.099v9.815zm27.998.451q-2.971 0-4.55-1.466-1.542-1.505-1.542-4.287v-9.89h-3.121v-3.61h3.121v-5.867h4.174v5.866h5.077v3.61h-5.077v9.101q0 1.316.602 1.993.639.677 1.842.677.376 0 .828-.15.451-.151 1.015-.564l1.542 3.196a8 8 0 0 1-1.956 1.015 5.4 5.4 0 0 1-1.955.376M70.11 128.476q6.313 0 10.67 2.311 4.445 2.223 7.201 6.224 2.845 4 4.09 9.336 1.335 5.246 1.334 11.291 0 7.202-1.511 13.603-1.513 6.313-4.624 11.203-3.022 4.802-7.824 7.646-4.8 2.757-11.558 2.757-4.89 0-9.602-1.423-4.624-1.512-8.358-4.09l5.957-8.891a24 24 0 0 0 5.957 2.845q3.2.89 5.78.889 6.934 0 10.846-6.046 4.001-6.134 3.645-19.115l2.49 1.6q-2.045 4.89-6.313 7.913-4.267 2.934-10.224 2.934-5.869 0-10.492-2.756-4.623-2.846-7.201-7.557-2.58-4.713-2.579-10.669 0-5.869 2.757-10.314 2.755-4.535 7.735-7.113 5.067-2.578 11.825-2.578m0 10.224q-2.933 0-5.245 1.334a9.8 9.8 0 0 0-3.645 3.645q-1.335 2.312-1.334 5.335t1.334 5.423q1.334 2.401 3.645 3.735 2.312 1.333 5.246 1.333t5.245-1.333q2.312-1.334 3.646-3.735 1.422-2.4 1.422-5.423t-1.422-5.335a9.8 9.8 0 0 0-3.646-3.645q-2.311-1.334-5.245-1.334m35.891 54.324q-2.934 0-5.067-2.133-2.046-2.134-2.045-5.068 0-2.846 2.045-4.979 2.133-2.134 5.067-2.134t4.979 2.134q2.134 2.133 2.134 4.979 0 2.934-2.134 5.068-2.045 2.133-4.979 2.133m36.422-.266q-7.469 0-12.714-2.134-5.246-2.223-8.002-6.046-2.667-3.912-2.667-9.069 0-5.601 2.756-9.78 2.844-4.268 8.091-6.579-4.269-2.046-6.58-5.602-2.223-3.645-2.223-8.268 0-4.98 2.49-8.802 2.579-3.824 7.379-5.957 4.801-2.134 11.47-2.134 6.757 0 11.558 2.134t7.38 5.957q2.578 3.822 2.578 8.802 0 4.623-2.312 8.268-2.312 3.556-6.579 5.602 5.245 2.311 8.091 6.579 2.845 4.179 2.845 9.78 0 5.157-2.756 9.069-2.757 3.823-8.002 6.046-5.246 2.133-12.803 2.134m0-10.136q4.89 0 8.002-2.401 3.111-2.488 3.112-6.312 0-4.179-3.112-6.757-3.112-2.579-8.002-2.579-3.201 0-5.69 1.156-2.401 1.156-3.824 3.29-1.422 2.133-1.422 4.89 0 2.578 1.422 4.534 1.423 1.956 3.824 3.112 2.489 1.067 5.69 1.067m0-27.74q4.268 0 6.935-2.312 2.756-2.312 2.756-5.868 0-3.822-2.756-6.134-2.667-2.401-6.935-2.401-4.179 0-6.846 2.401-2.667 2.312-2.668 6.134 0 3.557 2.668 5.868 2.667 2.312 6.846 2.312m39.698 45.87q-2.425 0-4.296-.341-1.872-.34-3.148-.893t-2.085-1.106l2.212-4.509q.596.34 1.574.765.979.469 2.34.766 1.361.34 3.148.341 1.701 0 2.978-.681 1.318-.639 2.041-2.042.766-1.361.766-3.488v-2.042a7.9 7.9 0 0 1-2.765 2.637q-1.701.936-3.871.936-2.935 0-5.105-1.276-2.127-1.276-3.318-3.573-1.191-2.298-1.191-5.445 0-3.318 1.191-5.743 1.191-2.468 3.318-3.786 2.17-1.361 5.105-1.361 2.17 0 3.871 1.02 1.702.98 2.765 2.808v-3.318h5.615v18.973q0 3.573-1.361 6.125-1.361 2.595-3.871 3.914-2.468 1.319-5.913 1.319m.511-14.379q1.446 0 2.509-.723a5 5 0 0 0 1.702-2.042q.596-1.318.596-2.978 0-1.7-.639-2.977-.595-1.277-1.701-2-1.064-.723-2.51-.723-1.49 0-2.637.723-1.15.723-1.787 2-.637 1.276-.681 2.977.043 1.66.681 2.978a5.2 5.2 0 0 0 1.787 2.042q1.19.723 2.68.723m37.915 5.828q-4.34 0-7.7-1.957-3.361-2-5.275-5.445-1.914-3.488-1.914-7.997t1.914-7.955q1.914-3.487 5.232-5.445 3.361-2 7.7-1.999 3.063 0 5.7 1.106a13.6 13.6 0 0 1 4.595 3.02 13.2 13.2 0 0 1 3.062 4.424l-5.402 1.999a8.9 8.9 0 0 0-1.914-2.722 8.4 8.4 0 0 0-2.723-1.829q-1.531-.681-3.318-.681-2.595 0-4.637 1.319-2 1.276-3.148 3.531-1.106 2.255-1.106 5.232t1.149 5.275q1.149 2.255 3.19 3.573 2.042 1.276 4.68 1.276 1.828 0 3.318-.68a8.7 8.7 0 0 0 2.68-1.957 9.9 9.9 0 0 0 1.914-2.85l5.402 1.957a13.9 13.9 0 0 1-3.062 4.594 13.85 13.85 0 0 1-4.595 3.105q-2.637 1.106-5.742 1.106m30.471 0q-4.51 0-7.997-1.957a14.44 14.44 0 0 1-5.403-5.445q-1.956-3.488-1.956-7.955 0-4.551 1.956-7.997 1.958-3.487 5.36-5.445 3.446-1.957 7.913-1.957 4.509 0 7.912 2 3.445 1.956 5.403 5.445 1.956 3.445 1.956 7.954 0 4.467-1.956 7.955-1.915 3.445-5.36 5.445-3.403 1.957-7.828 1.957m0-5.317q2.723 0 4.765-1.276 2.084-1.32 3.233-3.574 1.191-2.254 1.191-5.19 0-2.978-1.191-5.232t-3.276-3.531q-2.084-1.318-4.849-1.318-2.68 0-4.807 1.318-2.085 1.276-3.276 3.531t-1.191 5.232q0 2.936 1.191 5.19a9.16 9.16 0 0 0 3.318 3.574q2.127 1.276 4.892 1.276m21.348 6.678-4.127-.638q0-.68.511-1.574.51-.935 1.404-1.871a15.6 15.6 0 0 1 2.084-1.744l2.169-1.489a10 10 0 0 0 1.489-1.234q.723-.723.724-1.489 0-.85-.596-1.361-.596-.553-1.787-.553-.893 0-1.531.595a2.8 2.8 0 0 0-.808 1.319l-4.339-.723q.255-1.362 1.106-2.467.893-1.149 2.297-1.872 1.446-.723 3.275-.723 3.106 0 4.892 1.616 1.787 1.575 1.787 4.127 0 1.828-1.021 3.105-.978 1.276-2.595 2.382l-2.169 1.489a9.6 9.6 0 0 0-1.191 1.021q-.596.553-1.064 1.106-.426.596-.51.978m-4.127 2.383v-3.021l3.106-.68h9.784v3.701zm25.435-3.744q-3.149 0-5.573-1.404-2.425-1.446-3.829-3.956-1.36-2.51-1.361-5.785t1.404-5.785q1.447-2.51 3.913-3.914 2.51-1.446 5.743-1.446 2.808 0 5.148 1.488 2.382 1.447 3.786 4.297 1.446 2.808 1.446 6.849h-15.569q.212 2.127 1.829 3.403a5.88 5.88 0 0 0 3.658 1.234q1.745 0 2.85-.724a5.13 5.13 0 0 0 1.702-1.956l5.019 1.956a10.5 10.5 0 0 1-2.339 3.106q-1.404 1.276-3.361 1.957-1.956.68-4.466.68m-4.595-13.825h9.189q-.128-1.319-.851-2.127a4.4 4.4 0 0 0-1.702-1.191 5.2 5.2 0 0 0-1.914-.383q-.893 0-1.957.383-1.02.34-1.829 1.148-.765.808-.936 2.17m-235.568 62.33q-3.384 0-5.265-1.505-1.842-1.504-1.842-4.249 0-2.933 1.955-4.475 1.994-1.542 5.528-1.542h4.776q-.225-2.068-1.166-3.159-.94-1.09-2.782-1.091-1.354 0-2.37.565-1.015.564-1.73 1.767l-3.685-1.354a9.4 9.4 0 0 1 1.58-2.294q1.014-1.09 2.52-1.73 1.54-.639 3.685-.639 2.745 0 4.587 1.091 1.843 1.053 2.708 3.046.903 1.993.903 4.813l-.113 10.304h-3.874l-.112-2.294a5.13 5.13 0 0 1-2.106 2.031q-1.316.715-3.197.715m.527-3.535q1.39 0 2.444-.602a4.3 4.3 0 0 0 1.655-1.692 4.6 4.6 0 0 0 .601-2.332v-.376h-3.497q-2.52 0-3.535.715-1.015.677-1.015 1.955 0 1.09.865 1.73.902.602 2.482.602m19.271 3.535q-1.88 0-3.46-.564-1.579-.565-2.707-1.58a7.25 7.25 0 0 1-1.73-2.444l3.648-1.617q.564 1.053 1.655 1.767a4.55 4.55 0 0 0 2.482.715q1.466 0 2.331-.489.903-.527.903-1.429 0-.866-.677-1.316-.676-.49-1.918-.79l-1.768-.489q-2.67-.677-4.174-2.144-1.504-1.503-1.504-3.422 0-2.82 1.805-4.362Q70.039 221 73.462 221q1.73 0 3.159.527 1.466.488 2.52 1.429 1.052.902 1.466 2.143l-3.497 1.58q-.377-.941-1.43-1.429-1.052-.527-2.331-.527t-1.993.564q-.715.527-.715 1.504 0 .564.64 1.053.639.452 1.842.752l2.22.527q1.842.451 3.008 1.429 1.165.94 1.73 2.144.564 1.165.563 2.369 0 1.692-.977 2.971-.94 1.278-2.595 1.993-1.655.677-3.76.677m18.32-.452v-18.803h3.948l.188 2.52q.866-1.466 2.219-2.219t3.083-.752q2.256 0 3.836 1.015 1.578 1.015 2.293 3.084.828-1.993 2.332-3.046t3.535-1.053q3.272 0 5.039 2.106 1.768 2.068 1.73 6.393v10.755h-4.174v-9.627q0-2.256-.489-3.46-.49-1.241-1.316-1.729-.828-.489-1.918-.489-1.956-.038-3.046 1.391-1.053 1.43-1.053 4.099v9.815h-4.212v-9.627q0-2.256-.489-3.46-.451-1.241-1.279-1.729-.826-.489-1.917-.489-1.956-.038-3.047 1.391-1.052 1.43-1.052 4.099v9.815zm38.52.452q-2.219 0-3.836-.903-1.58-.903-2.444-2.82-.865-1.918-.865-4.927v-10.605h4.212v9.627q0 2.22.526 3.46.526 1.242 1.429 1.73.94.489 2.144.489 2.144.037 3.309-1.391 1.166-1.43 1.166-4.099v-9.816h4.174v18.803h-3.949l-.188-2.67a6.4 6.4 0 0 1-2.369 2.332q-1.43.79-3.309.79m22.582 0q-2.895 0-5.114-1.241a9.37 9.37 0 0 1-3.497-3.498q-1.241-2.219-1.241-5.114t1.241-5.115a9.16 9.16 0 0 1 3.459-3.459q2.22-1.28 5.077-1.279 2.783 0 5.039 1.354 2.257 1.315 3.347 3.798l-3.911 1.504q-.602-1.24-1.842-1.993-1.242-.752-2.821-.752-1.542 0-2.745.79-1.203.751-1.88 2.106-.678 1.316-.677 3.046 0 1.73.677 3.084a5.74 5.74 0 0 0 1.918 2.105q1.24.753 2.782.753 1.58 0 2.821-.79a5 5 0 0 0 1.842-2.219l3.912 1.504q-1.091 2.558-3.347 3.987-2.22 1.428-5.04 1.429m10.981-.452V213.93h4.212v10.079q.94-1.467 2.369-2.219 1.43-.79 3.234-.79 2.22 0 3.836.903 1.617.901 2.445 2.82.865 1.881.865 4.926v10.605h-4.212v-9.627q0-2.256-.527-3.46-.527-1.241-1.466-1.729-.903-.489-2.106-.489-2.144-.038-3.31 1.391-1.128 1.43-1.128 4.099v9.815zm34.927.452q-3.386 0-5.265-1.505-1.843-1.504-1.843-4.249 0-2.933 1.956-4.475 1.992-1.542 5.528-1.542h4.776q-.226-2.068-1.166-3.159t-2.783-1.091q-1.354 0-2.369.565-1.016.564-1.73 1.767l-3.685-1.354a9.4 9.4 0 0 1 1.579-2.294q1.016-1.09 2.52-1.73 1.542-.639 3.685-.639 2.745 0 4.588 1.091 1.842 1.053 2.708 3.046.902 1.993.902 4.813l-.113 10.304h-3.873l-.113-2.294a5.13 5.13 0 0 1-2.106 2.031q-1.316.715-3.196.715m.526-3.535q1.392 0 2.445-.602a4.3 4.3 0 0 0 1.654-1.692 4.6 4.6 0 0 0 .602-2.332v-.376h-3.497q-2.52 0-3.535.715-1.016.677-1.016 1.955 0 1.09.865 1.73.903.602 2.482.602m19.272 3.535q-1.88 0-3.46-.564-1.58-.565-2.707-1.58a7.2 7.2 0 0 1-1.73-2.444l3.647-1.617q.565 1.053 1.655 1.767a4.55 4.55 0 0 0 2.482.715q1.467 0 2.332-.489.902-.527.902-1.429 0-.866-.677-1.316-.676-.49-1.918-.79l-1.767-.489q-2.67-.677-4.174-2.144-1.505-1.503-1.505-3.422 0-2.82 1.806-4.362Q215.168 221 218.59 221q1.731 0 3.159.527 1.467.488 2.52 1.429 1.053.902 1.466 2.143l-3.497 1.58q-.376-.941-1.429-1.429-1.053-.527-2.331-.527t-1.994.564q-.714.527-.714 1.504 0 .564.639 1.053.64.452 1.843.752l2.219.527q1.842.451 3.008 1.429 1.166.94 1.73 2.144.564 1.165.564 2.369 0 1.692-.978 2.971-.94 1.278-2.594 1.993-1.656.677-3.761.677"/><path fill="#9be6aa" stroke="#9be6aa" stroke-linecap="round" stroke-width="2.118" d="M51.15 268.815v-.599a2.394 2.394 0 0 1 2.395-2.394h15.561a2.394 2.394 0 0 1 2.395 2.394v11.971a2.394 2.394 0 0 1-2.395 2.394H53.545a2.394 2.394 0 0 1-2.395-2.394z"/><path stroke="#000" stroke-linecap="round" stroke-linejoin="round" stroke-width="1.556" d="m53.906 268.688 7.024 4.682 7.023-4.682"/><path fill="#9be6aa" stroke="#9be6aa" stroke-linecap="round" stroke-width="2.044" d="M82.19 268.992v-.577a2.31 2.31 0 0 1 2.31-2.311h15.016a2.31 2.31 0 0 1 2.31 2.311v11.55a2.31 2.31 0 0 1-2.31 2.31H84.5a2.31 2.31 0 0 1-2.31-2.31z"/><path stroke="#000" stroke-linecap="round" stroke-linejoin="round" stroke-width="1.501" d="m84.848 268.87 6.777 4.518 6.777-4.518"/><path fill="#9be6aa" stroke="#9be6aa" stroke-linecap="round" stroke-width="2.044" d="M112.342 268.992v-.577a2.31 2.31 0 0 1 2.31-2.311h15.016a2.31 2.31 0 0 1 2.31 2.311v11.55a2.31 2.31 0 0 1-2.31 2.31h-15.016a2.31 2.31 0 0 1-2.31-2.31z"/><path stroke="#000" stroke-linecap="round" stroke-linejoin="round" stroke-width="1.501" d="m115 268.87 6.777 4.518 6.777-4.518"/><path fill="#9be6aa" stroke="#9be6aa" stroke-linecap="round" stroke-width="2.044" d="M142.496 268.992v-.577a2.31 2.31 0 0 1 2.31-2.311h15.016a2.31 2.31 0 0 1 2.31 2.311v11.55a2.31 2.31 0 0 1-2.31 2.31h-15.016a2.31 2.31 0 0 1-2.31-2.31z"/><path stroke="#000" stroke-linecap="round" stroke-linejoin="round" stroke-width="1.501" d="m145.154 268.87 6.777 4.518 6.777-4.518"/><path fill="#9be6aa" stroke="#9be6aa" stroke-linecap="round" stroke-width="2.044" d="M172.648 268.992v-.577a2.31 2.31 0 0 1 2.311-2.311h15.016a2.31 2.31 0 0 1 2.31 2.311v11.55a2.31 2.31 0 0 1-2.31 2.31h-15.016a2.31 2.31 0 0 1-2.311-2.31z"/><path stroke="#000" stroke-linecap="round" stroke-linejoin="round" stroke-width="1.501" d="m175.307 268.87 6.777 4.518 6.777-4.518"/><path fill="#9be6aa" stroke="#9be6aa" stroke-linecap="round" stroke-width="2.044" d="M202.803 268.992v-.577a2.31 2.31 0 0 1 2.31-2.311h15.016a2.31 2.31 0 0 1 2.31 2.311v11.55a2.31 2.31 0 0 1-2.31 2.31h-15.016a2.31 2.31 0 0 1-2.31-2.31z"/><path stroke="#000" stroke-linecap="round" stroke-linejoin="round" stroke-width="1.501" d="m205.461 268.87 6.777 4.518 6.777-4.518"/><path fill="#9be6aa" stroke="#9be6aa" stroke-linecap="round" stroke-width="2.044" d="M232.957 268.992v-.577a2.31 2.31 0 0 1 2.31-2.311h15.016a2.31 2.31 0 0 1 2.31 2.311v11.55a2.31 2.31 0 0 1-2.31 2.31h-15.016a2.31 2.31 0 0 1-2.31-2.31z"/><path stroke="#000" stroke-linecap="round" stroke-linejoin="round" stroke-width="1.501" d="m235.615 268.87 6.777 4.518 6.777-4.518"/><path fill="#9be6aa" stroke="#9be6aa" stroke-linecap="round" stroke-width="2.044" d="M263.109 268.992v-.577a2.31 2.31 0 0 1 2.311-2.311h15.015a2.31 2.31 0 0 1 2.311 2.311v11.55a2.31 2.31 0 0 1-2.311 2.31H265.42a2.31 2.31 0 0 1-2.311-2.31z"/><path stroke="#000" stroke-linecap="round" stroke-linejoin="round" stroke-width="1.501" d="m265.768 268.87 6.777 4.518 6.777-4.518"/><path fill="#9be6aa" stroke="#9be6aa" stroke-linecap="round" stroke-width="2.044" d="M293.264 268.992v-.577a2.31 2.31 0 0 1 2.31-2.311h15.016a2.31 2.31 0 0 1 2.31 2.311v11.55a2.31 2.31 0 0 1-2.31 2.31h-15.016a2.31 2.31 0 0 1-2.31-2.31z"/><path stroke="#000" stroke-linecap="round" stroke-linejoin="round" stroke-width="1.501" d="m295.922 268.87 6.777 4.518 6.777-4.518"/><path fill="#9be6aa" stroke="#9be6aa" stroke-linecap="round" stroke-width="2.044" d="M323.416 268.992v-.577a2.31 2.31 0 0 1 2.31-2.311h15.016a2.31 2.31 0 0 1 2.31 2.311v11.55a2.31 2.31 0 0 1-2.31 2.31h-15.016a2.31 2.31 0 0 1-2.31-2.31z"/><path stroke="#000" stroke-linecap="round" stroke-linejoin="round" stroke-width="1.501" d="m326.074 268.87 6.777 4.518 6.777-4.518"/><path fill="#9be6aa" stroke="#9be6aa" stroke-linecap="round" stroke-width="2.118" d="M51.15 294.255v-.598a2.394 2.394 0 0 1 2.395-2.394h15.561a2.394 2.394 0 0 1 2.395 2.394v11.97a2.394 2.394 0 0 1-2.395 2.395H53.545a2.394 2.394 0 0 1-2.395-2.395z"/><path stroke="#000" stroke-linecap="round" stroke-linejoin="round" stroke-width="1.556" d="m53.906 294.128 7.024 4.683 7.023-4.683"/><path fill="#9be6aa" stroke="#9be6aa" stroke-linecap="round" stroke-width="2.044" d="M82.19 294.433v-.578a2.31 2.31 0 0 1 2.31-2.31h15.016a2.31 2.31 0 0 1 2.31 2.31v11.551a2.31 2.31 0 0 1-2.31 2.31H84.5a2.31 2.31 0 0 1-2.31-2.31z"/><path stroke="#000" stroke-linecap="round" stroke-linejoin="round" stroke-width="1.501" d="m84.848 294.31 6.777 4.518 6.777-4.518"/><path fill="#9be6aa" stroke="#9be6aa" stroke-linecap="round" stroke-width="2.044" d="M112.342 294.433v-.578a2.31 2.31 0 0 1 2.31-2.31h15.016a2.31 2.31 0 0 1 2.31 2.31v11.551a2.31 2.31 0 0 1-2.31 2.31h-15.016a2.31 2.31 0 0 1-2.31-2.31z"/><path stroke="#000" stroke-linecap="round" stroke-linejoin="round" stroke-width="1.501" d="m115 294.31 6.777 4.518 6.777-4.518"/><path fill="#9be6aa" stroke="#9be6aa" stroke-linecap="round" stroke-width="2.044" d="M142.496 294.433v-.578a2.31 2.31 0 0 1 2.31-2.31h15.016a2.31 2.31 0 0 1 2.31 2.31v11.551a2.31 2.31 0 0 1-2.31 2.31h-15.016a2.31 2.31 0 0 1-2.31-2.31z"/><path stroke="#000" stroke-linecap="round" stroke-linejoin="round" stroke-width="1.501" d="m145.154 294.31 6.777 4.518 6.777-4.518"/><path fill="#9be6aa" stroke="#9be6aa" stroke-linecap="round" stroke-width="2.044" d="M172.648 294.433v-.578a2.31 2.31 0 0 1 2.311-2.31h15.016a2.31 2.31 0 0 1 2.31 2.31v11.551a2.31 2.31 0 0 1-2.31 2.31h-15.016a2.31 2.31 0 0 1-2.311-2.31z"/><path stroke="#000" stroke-linecap="round" stroke-linejoin="round" stroke-width="1.501" d="m175.307 294.31 6.777 4.518 6.777-4.518"/><path fill="#9be6aa" stroke="#9be6aa" stroke-linecap="round" stroke-width="2.044" d="M202.803 294.433v-.578a2.31 2.31 0 0 1 2.31-2.31h15.016a2.31 2.31 0 0 1 2.31 2.31v11.551a2.31 2.31 0 0 1-2.31 2.31h-15.016a2.31 2.31 0 0 1-2.31-2.31z"/><path stroke="#000" stroke-linecap="round" stroke-linejoin="round" stroke-width="1.501" d="m205.461 294.31 6.777 4.518 6.777-4.518"/><path fill="#9be6aa" stroke="#9be6aa" stroke-linecap="round" stroke-width="2.044" d="M232.957 294.433v-.578a2.31 2.31 0 0 1 2.31-2.31h15.016a2.31 2.31 0 0 1 2.31 2.31v11.551a2.31 2.31 0 0 1-2.31 2.31h-15.016a2.31 2.31 0 0 1-2.31-2.31z"/><path stroke="#000" stroke-linecap="round" stroke-linejoin="round" stroke-width="1.501" d="m235.615 294.31 6.777 4.518 6.777-4.518"/><path fill="#9be6aa" stroke="#9be6aa" stroke-linecap="round" stroke-width="2.044" d="M263.109 294.433v-.578a2.31 2.31 0 0 1 2.311-2.31h15.015a2.31 2.31 0 0 1 2.311 2.31v11.551a2.31 2.31 0 0 1-2.311 2.31H265.42a2.31 2.31 0 0 1-2.311-2.31z"/><path stroke="#000" stroke-linecap="round" stroke-linejoin="round" stroke-width="1.501" d="m265.768 294.31 6.777 4.518 6.777-4.518"/><path fill="#9be6aa" stroke="#9be6aa" stroke-linecap="round" stroke-width="2.044" d="M293.264 294.433v-.578a2.31 2.31 0 0 1 2.31-2.31h15.016a2.31 2.31 0 0 1 2.31 2.31v11.551a2.31 2.31 0 0 1-2.31 2.31h-15.016a2.31 2.31 0 0 1-2.31-2.31z"/><path stroke="#000" stroke-linecap="round" stroke-linejoin="round" stroke-width="1.501" d="m295.922 294.31 6.777 4.518 6.777-4.518"/><path fill="#9be6aa" stroke="#9be6aa" stroke-linecap="round" stroke-width="2.044" d="M323.416 294.433v-.578a2.31 2.31 0 0 1 2.31-2.31h15.016a2.31 2.31 0 0 1 2.31 2.31v11.551a2.31 2.31 0 0 1-2.31 2.31h-15.016a2.31 2.31 0 0 1-2.31-2.31z"/><path stroke="#000" stroke-linecap="round" stroke-linejoin="round" stroke-width="1.501" d="m326.074 294.31 6.777 4.518 6.777-4.518"/><path fill="#9be6aa" stroke="#9be6aa" stroke-linecap="round" stroke-width="2.118" d="M51.15 319.696v-.599a2.394 2.394 0 0 1 2.395-2.394h15.561a2.394 2.394 0 0 1 2.395 2.394v11.971a2.394 2.394 0 0 1-2.395 2.394H53.545a2.394 2.394 0 0 1-2.395-2.394z"/><path stroke="#000" stroke-linecap="round" stroke-linejoin="round" stroke-width="1.556" d="m53.906 319.569 7.024 4.682 7.023-4.682"/><path fill="#9be6aa" stroke="#9be6aa" stroke-linecap="round" stroke-width="2.044" d="M82.19 319.873v-.578a2.31 2.31 0 0 1 2.31-2.31h15.016a2.31 2.31 0 0 1 2.31 2.31v11.551a2.31 2.31 0 0 1-2.31 2.31H84.5a2.31 2.31 0 0 1-2.31-2.31z"/><path stroke="#000" stroke-linecap="round" stroke-linejoin="round" stroke-width="1.501" d="m84.848 319.75 6.777 4.519 6.777-4.519"/><path fill="#9be6aa" stroke="#9be6aa" stroke-linecap="round" stroke-width="2.044" d="M112.342 319.873v-.578a2.31 2.31 0 0 1 2.31-2.31h15.016a2.31 2.31 0 0 1 2.31 2.31v11.551a2.31 2.31 0 0 1-2.31 2.31h-15.016a2.31 2.31 0 0 1-2.31-2.31z"/><path stroke="#000" stroke-linecap="round" stroke-linejoin="round" stroke-width="1.501" d="m115 319.75 6.777 4.519 6.777-4.519"/><path fill="#9be6aa" stroke="#9be6aa" stroke-linecap="round" stroke-width="2.044" d="M142.496 319.873v-.578a2.31 2.31 0 0 1 2.31-2.31h15.016a2.31 2.31 0 0 1 2.31 2.31v11.551a2.31 2.31 0 0 1-2.31 2.31h-15.016a2.31 2.31 0 0 1-2.31-2.31z"/><path stroke="#000" stroke-linecap="round" stroke-linejoin="round" stroke-width="1.501" d="m145.154 319.75 6.777 4.519 6.777-4.519"/><path fill="#9be6aa" stroke="#9be6aa" stroke-linecap="round" stroke-width="2.044" d="M172.648 319.873v-.578a2.31 2.31 0 0 1 2.311-2.31h15.016a2.31 2.31 0 0 1 2.31 2.31v11.551a2.31 2.31 0 0 1-2.31 2.31h-15.016a2.31 2.31 0 0 1-2.311-2.31z"/><path stroke="#000" stroke-linecap="round" stroke-linejoin="round" stroke-width="1.501" d="m175.307 319.75 6.777 4.519 6.777-4.519"/><path fill="#9be6aa" stroke="#9be6aa" stroke-linecap="round" stroke-width="2.044" d="M202.803 319.873v-.578a2.31 2.31 0 0 1 2.31-2.31h15.016a2.31 2.31 0 0 1 2.31 2.31v11.551a2.31 2.31 0 0 1-2.31 2.31h-15.016a2.31 2.31 0 0 1-2.31-2.31z"/><path stroke="#000" stroke-linecap="round" stroke-linejoin="round" stroke-width="1.501" d="m205.461 319.75 6.777 4.519 6.777-4.519"/><path fill="#9be6aa" stroke="#9be6aa" stroke-linecap="round" stroke-width="2.044" d="M232.957 319.873v-.578a2.31 2.31 0 0 1 2.31-2.31h15.016a2.31 2.31 0 0 1 2.31 2.31v11.551a2.31 2.31 0 0 1-2.31 2.31h-15.016a2.31 2.31 0 0 1-2.31-2.31z"/><path stroke="#000" stroke-linecap="round" stroke-linejoin="round" stroke-width="1.501" d="m235.615 319.75 6.777 4.519 6.777-4.519"/><path fill="#9be6aa" stroke="#9be6aa" stroke-linecap="round" stroke-width="2.044" d="M263.109 319.873v-.578a2.31 2.31 0 0 1 2.311-2.31h15.015a2.31 2.31 0 0 1 2.311 2.31v11.551a2.31 2.31 0 0 1-2.311 2.31H265.42a2.31 2.31 0 0 1-2.311-2.31z"/><path stroke="#000" stroke-linecap="round" stroke-linejoin="round" stroke-width="1.501" d="m265.768 319.75 6.777 4.519 6.777-4.519"/><path fill="#9be6aa" stroke="#9be6aa" stroke-linecap="round" stroke-width="2.044" d="M293.264 319.873v-.578a2.31 2.31 0 0 1 2.31-2.31h15.016a2.31 2.31 0 0 1 2.31 2.31v11.551a2.31 2.31 0 0 1-2.31 2.31h-15.016a2.31 2.31 0 0 1-2.31-2.31z"/><path stroke="#000" stroke-linecap="round" stroke-linejoin="round" stroke-width="1.501" d="m295.922 319.75 6.777 4.519 6.777-4.519"/><path fill="#9be6aa" stroke="#9be6aa" stroke-linecap="round" stroke-width="2.044" d="M323.416 319.873v-.578a2.31 2.31 0 0 1 2.31-2.31h15.016a2.31 2.31 0 0 1 2.31 2.31v11.551a2.31 2.31 0 0 1-2.31 2.31h-15.016a2.31 2.31 0 0 1-2.31-2.31z"/><path stroke="#000" stroke-linecap="round" stroke-linejoin="round" stroke-width="1.501" d="m326.074 319.75 6.777 4.519 6.777-4.519"/><path fill="#9be6aa" stroke="#9be6aa" stroke-linecap="round" stroke-width="2.118" d="M51.15 345.136v-.598a2.394 2.394 0 0 1 2.395-2.394h15.561a2.394 2.394 0 0 1 2.395 2.394v11.97a2.394 2.394 0 0 1-2.395 2.395H53.545a2.394 2.394 0 0 1-2.395-2.395z"/><path stroke="#000" stroke-linecap="round" stroke-linejoin="round" stroke-width="1.556" d="m53.906 345.009 7.024 4.683 7.023-4.683"/><path fill="#9be6aa" stroke="#9be6aa" stroke-linecap="round" stroke-width="2.044" d="M82.19 345.314v-.578a2.31 2.31 0 0 1 2.31-2.31h15.016a2.31 2.31 0 0 1 2.31 2.31v11.551a2.31 2.31 0 0 1-2.31 2.31H84.5a2.31 2.31 0 0 1-2.31-2.31z"/><path stroke="#000" stroke-linecap="round" stroke-linejoin="round" stroke-width="1.501" d="m84.848 345.191 6.777 4.518 6.777-4.518"/><path fill="#9be6aa" stroke="#9be6aa" stroke-linecap="round" stroke-width="2.044" d="M112.342 345.314v-.578a2.31 2.31 0 0 1 2.31-2.31h15.016a2.31 2.31 0 0 1 2.31 2.31v11.551a2.31 2.31 0 0 1-2.31 2.31h-15.016a2.31 2.31 0 0 1-2.31-2.31z"/><path stroke="#000" stroke-linecap="round" stroke-linejoin="round" stroke-width="1.501" d="m115 345.191 6.777 4.518 6.777-4.518"/><path fill="#9be6aa" stroke="#9be6aa" stroke-linecap="round" stroke-width="2.044" d="M142.496 345.314v-.578a2.31 2.31 0 0 1 2.31-2.31h15.016a2.31 2.31 0 0 1 2.31 2.31v11.551a2.31 2.31 0 0 1-2.31 2.31h-15.016a2.31 2.31 0 0 1-2.31-2.31z"/><path stroke="#000" stroke-linecap="round" stroke-linejoin="round" stroke-width="1.501" d="m145.154 345.191 6.777 4.518 6.777-4.518"/><path fill="#9be6aa" stroke="#9be6aa" stroke-linecap="round" stroke-width="2.044" d="M172.648 345.314v-.578a2.31 2.31 0 0 1 2.311-2.31h15.016a2.31 2.31 0 0 1 2.31 2.31v11.551a2.31 2.31 0 0 1-2.31 2.31h-15.016a2.31 2.31 0 0 1-2.311-2.31z"/><path stroke="#000" stroke-linecap="round" stroke-linejoin="round" stroke-width="1.501" d="m175.307 345.191 6.777 4.518 6.777-4.518"/><path fill="#9be6aa" stroke="#9be6aa" stroke-linecap="round" stroke-width="2.044" d="M202.803 345.314v-.578a2.31 2.31 0 0 1 2.31-2.31h15.016a2.31 2.31 0 0 1 2.31 2.31v11.551a2.31 2.31 0 0 1-2.31 2.31h-15.016a2.31 2.31 0 0 1-2.31-2.31z"/><path stroke="#000" stroke-linecap="round" stroke-linejoin="round" stroke-width="1.501" d="m205.461 345.191 6.777 4.518 6.777-4.518"/><path fill="#9be6aa" stroke="#9be6aa" stroke-linecap="round" stroke-width="2.044" d="M232.957 345.314v-.578a2.31 2.31 0 0 1 2.31-2.31h15.016a2.31 2.31 0 0 1 2.31 2.31v11.551a2.31 2.31 0 0 1-2.31 2.31h-15.016a2.31 2.31 0 0 1-2.31-2.31z"/><path stroke="#000" stroke-linecap="round" stroke-linejoin="round" stroke-width="1.501" d="m235.615 345.191 6.777 4.518 6.777-4.518"/><path fill="#9be6aa" stroke="#9be6aa" stroke-linecap="round" stroke-width="2.044" d="M263.109 345.314v-.578a2.31 2.31 0 0 1 2.311-2.31h15.015a2.31 2.31 0 0 1 2.311 2.31v11.551a2.31 2.31 0 0 1-2.311 2.31H265.42a2.31 2.31 0 0 1-2.311-2.31z"/><path stroke="#000" stroke-linecap="round" stroke-linejoin="round" stroke-width="1.501" d="m265.768 345.191 6.777 4.518 6.777-4.518"/><path fill="#9be6aa" stroke="#9be6aa" stroke-linecap="round" stroke-width="2.044" d="M293.264 345.314v-.578a2.31 2.31 0 0 1 2.31-2.31h15.016a2.31 2.31 0 0 1 2.31 2.31v11.551a2.31 2.31 0 0 1-2.31 2.31h-15.016a2.31 2.31 0 0 1-2.31-2.31z"/><path stroke="#000" stroke-linecap="round" stroke-linejoin="round" stroke-width="1.501" d="m295.922 345.191 6.777 4.518 6.777-4.518"/><path fill="#9be6aa" stroke="#9be6aa" stroke-linecap="round" stroke-width="2.044" d="M323.416 345.314v-.578a2.31 2.31 0 0 1 2.31-2.31h15.016a2.31 2.31 0 0 1 2.31 2.31v11.551a2.31 2.31 0 0 1-2.31 2.31h-15.016a2.31 2.31 0 0 1-2.31-2.31z"/><path stroke="#000" stroke-linecap="round" stroke-linejoin="round" stroke-width="1.501" d="m326.074 345.191 6.777 4.518 6.777-4.518"/><path fill="#9be6aa" stroke="#9be6aa" stroke-linecap="round" stroke-width="2.118" d="M51.15 370.577v-.599a2.394 2.394 0 0 1 2.395-2.394h15.561a2.394 2.394 0 0 1 2.395 2.394v11.971a2.394 2.394 0 0 1-2.395 2.394H53.545a2.394 2.394 0 0 1-2.395-2.394z"/><path stroke="#000" stroke-linecap="round" stroke-linejoin="round" stroke-width="1.556" d="m53.906 370.45 7.024 4.682 7.023-4.682"/><path fill="#9be6aa" stroke="#9be6aa" stroke-linecap="round" stroke-width="2.044" d="M82.19 370.754v-.578a2.31 2.31 0 0 1 2.31-2.31h15.016a2.31 2.31 0 0 1 2.31 2.31v11.551a2.31 2.31 0 0 1-2.31 2.31H84.5a2.31 2.31 0 0 1-2.31-2.31z"/><path stroke="#000" stroke-linecap="round" stroke-linejoin="round" stroke-width="1.501" d="m84.848 370.631 6.777 4.518 6.777-4.518"/><path fill="#9be6aa" stroke="#9be6aa" stroke-linecap="round" stroke-width="2.044" d="M112.342 370.754v-.578a2.31 2.31 0 0 1 2.31-2.31h15.016a2.31 2.31 0 0 1 2.31 2.31v11.551a2.31 2.31 0 0 1-2.31 2.31h-15.016a2.31 2.31 0 0 1-2.31-2.31z"/><path stroke="#000" stroke-linecap="round" stroke-linejoin="round" stroke-width="1.501" d="m115 370.631 6.777 4.518 6.777-4.518"/><path fill="#9be6aa" stroke="#9be6aa" stroke-linecap="round" stroke-width="2.044" d="M142.496 370.754v-.578a2.31 2.31 0 0 1 2.31-2.31h15.016a2.31 2.31 0 0 1 2.31 2.31v11.551a2.31 2.31 0 0 1-2.31 2.31h-15.016a2.31 2.31 0 0 1-2.31-2.31z"/><path stroke="#000" stroke-linecap="round" stroke-linejoin="round" stroke-width="1.501" d="m145.154 370.631 6.777 4.518 6.777-4.518"/><path fill="#9be6aa" stroke="#9be6aa" stroke-linecap="round" stroke-width="2.044" d="M172.648 370.754v-.578a2.31 2.31 0 0 1 2.311-2.31h15.016a2.31 2.31 0 0 1 2.31 2.31v11.551a2.31 2.31 0 0 1-2.31 2.31h-15.016a2.31 2.31 0 0 1-2.311-2.31z"/><path stroke="#000" stroke-linecap="round" stroke-linejoin="round" stroke-width="1.501" d="m175.307 370.631 6.777 4.518 6.777-4.518"/><path fill="#9be6aa" stroke="#9be6aa" stroke-linecap="round" stroke-width="2.044" d="M202.803 370.754v-.578a2.31 2.31 0 0 1 2.31-2.31h15.016a2.31 2.31 0 0 1 2.31 2.31v11.551a2.31 2.31 0 0 1-2.31 2.31h-15.016a2.31 2.31 0 0 1-2.31-2.31z"/><path stroke="#000" stroke-linecap="round" stroke-linejoin="round" stroke-width="1.501" d="m205.461 370.631 6.777 4.518 6.777-4.518"/><path fill="#9be6aa" stroke="#9be6aa" stroke-linecap="round" stroke-width="2.044" d="M232.957 370.754v-.578a2.31 2.31 0 0 1 2.31-2.31h15.016a2.31 2.31 0 0 1 2.31 2.31v11.551a2.31 2.31 0 0 1-2.31 2.31h-15.016a2.31 2.31 0 0 1-2.31-2.31z"/><path stroke="#000" stroke-linecap="round" stroke-linejoin="round" stroke-width="1.501" d="m235.615 370.631 6.777 4.518 6.777-4.518"/><path fill="#9be6aa" stroke="#9be6aa" stroke-linecap="round" stroke-width="2.044" d="M263.109 370.754v-.578a2.31 2.31 0 0 1 2.311-2.31h15.015a2.31 2.31 0 0 1 2.311 2.31v11.551a2.31 2.31 0 0 1-2.311 2.31H265.42a2.31 2.31 0 0 1-2.311-2.31z"/><path stroke="#000" stroke-linecap="round" stroke-linejoin="round" stroke-width="1.501" d="m265.768 370.631 6.777 4.518 6.777-4.518"/><path fill="#9be6aa" stroke="#9be6aa" stroke-linecap="round" stroke-width="2.044" d="M293.264 370.754v-.578a2.31 2.31 0 0 1 2.31-2.31h15.016a2.31 2.31 0 0 1 2.31 2.31v11.551a2.31 2.31 0 0 1-2.31 2.31h-15.016a2.31 2.31 0 0 1-2.31-2.31z"/><path stroke="#000" stroke-linecap="round" stroke-linejoin="round" stroke-width="1.501" d="m295.922 370.631 6.777 4.518 6.777-4.518"/><path fill="#9be6aa" stroke="#9be6aa" stroke-linecap="round" stroke-width="2.044" d="M323.416 370.754v-.578a2.31 2.31 0 0 1 2.31-2.31h15.016a2.31 2.31 0 0 1 2.31 2.31v11.551a2.31 2.31 0 0 1-2.31 2.31h-15.016a2.31 2.31 0 0 1-2.31-2.31z"/><path stroke="#000" stroke-linecap="round" stroke-linejoin="round" stroke-width="1.501" d="m326.074 370.631 6.777 4.518 6.777-4.518"/><path fill="#9be6aa" stroke="#9be6aa" stroke-linecap="round" stroke-width="2.118" d="M51.15 396.017v-.598a2.394 2.394 0 0 1 2.395-2.395h15.561a2.394 2.394 0 0 1 2.395 2.395v11.97a2.394 2.394 0 0 1-2.395 2.394H53.545a2.394 2.394 0 0 1-2.395-2.394z"/><path stroke="#000" stroke-linecap="round" stroke-linejoin="round" stroke-width="1.556" d="m53.906 395.89 7.024 4.682 7.023-4.682"/><path fill="#9be6aa" stroke="#9be6aa" stroke-linecap="round" stroke-width="2.044" d="M82.19 396.194v-.577a2.31 2.31 0 0 1 2.31-2.31h15.016a2.31 2.31 0 0 1 2.31 2.31v11.551a2.31 2.31 0 0 1-2.31 2.31H84.5a2.31 2.31 0 0 1-2.31-2.31z"/><path stroke="#000" stroke-linecap="round" stroke-linejoin="round" stroke-width="1.501" d="m84.848 396.072 6.777 4.518 6.777-4.518"/><path fill="#9be6aa" stroke="#9be6aa" stroke-linecap="round" stroke-width="2.044" d="M112.342 396.194v-.577a2.31 2.31 0 0 1 2.31-2.31h15.016a2.31 2.31 0 0 1 2.31 2.31v11.551a2.31 2.31 0 0 1-2.31 2.31h-15.016a2.31 2.31 0 0 1-2.31-2.31z"/><path stroke="#000" stroke-linecap="round" stroke-linejoin="round" stroke-width="1.501" d="m115 396.072 6.777 4.518 6.777-4.518"/><path fill="#9be6aa" stroke="#9be6aa" stroke-linecap="round" stroke-width="2.044" d="M142.496 396.194v-.577a2.31 2.31 0 0 1 2.31-2.31h15.016a2.31 2.31 0 0 1 2.31 2.31v11.551a2.31 2.31 0 0 1-2.31 2.31h-15.016a2.31 2.31 0 0 1-2.31-2.31z"/><path stroke="#000" stroke-linecap="round" stroke-linejoin="round" stroke-width="1.501" d="m145.154 396.072 6.777 4.518 6.777-4.518"/><path fill="#9be6aa" stroke="#9be6aa" stroke-linecap="round" stroke-width="2.044" d="M172.648 396.194v-.577a2.31 2.31 0 0 1 2.311-2.31h15.016a2.31 2.31 0 0 1 2.31 2.31v11.551a2.31 2.31 0 0 1-2.31 2.31h-15.016a2.31 2.31 0 0 1-2.311-2.31z"/><path stroke="#000" stroke-linecap="round" stroke-linejoin="round" stroke-width="1.501" d="m175.307 396.072 6.777 4.518 6.777-4.518"/><path fill="#9be6aa" stroke="#9be6aa" stroke-linecap="round" stroke-width="2.044" d="M202.803 396.194v-.577a2.31 2.31 0 0 1 2.31-2.31h15.016a2.31 2.31 0 0 1 2.31 2.31v11.551a2.31 2.31 0 0 1-2.31 2.31h-15.016a2.31 2.31 0 0 1-2.31-2.31z"/><path stroke="#000" stroke-linecap="round" stroke-linejoin="round" stroke-width="1.501" d="m205.461 396.072 6.777 4.518 6.777-4.518"/><path fill="#9be6aa" stroke="#9be6aa" stroke-linecap="round" stroke-width="2.044" d="M232.957 396.194v-.577a2.31 2.31 0 0 1 2.31-2.31h15.016a2.31 2.31 0 0 1 2.31 2.31v11.551a2.31 2.31 0 0 1-2.31 2.31h-15.016a2.31 2.31 0 0 1-2.31-2.31z"/><path stroke="#000" stroke-linecap="round" stroke-linejoin="round" stroke-width="1.501" d="m235.615 396.072 6.777 4.518 6.777-4.518"/><path fill="#9be6aa" stroke="#9be6aa" stroke-linecap="round" stroke-width="2.044" d="M263.109 396.194v-.577a2.31 2.31 0 0 1 2.311-2.31h15.015a2.31 2.31 0 0 1 2.311 2.31v11.551a2.31 2.31 0 0 1-2.311 2.31H265.42a2.31 2.31 0 0 1-2.311-2.31z"/><path stroke="#000" stroke-linecap="round" stroke-linejoin="round" stroke-width="1.501" d="m265.768 396.072 6.777 4.518 6.777-4.518"/><path fill="#9be6aa" stroke="#9be6aa" stroke-linecap="round" stroke-width="2.044" d="M293.264 396.194v-.577a2.31 2.31 0 0 1 2.31-2.31h15.016a2.31 2.31 0 0 1 2.31 2.31v11.551a2.31 2.31 0 0 1-2.31 2.31h-15.016a2.31 2.31 0 0 1-2.31-2.31z"/><path stroke="#000" stroke-linecap="round" stroke-linejoin="round" stroke-width="1.501" d="m295.922 396.072 6.777 4.518 6.777-4.518"/><path fill="#9be6aa" stroke="#9be6aa" stroke-linecap="round" stroke-width="2.044" d="M323.416 396.194v-.577a2.31 2.31 0 0 1 2.31-2.31h15.016a2.31 2.31 0 0 1 2.31 2.31v11.551a2.31 2.31 0 0 1-2.31 2.31h-15.016a2.31 2.31 0 0 1-2.31-2.31z"/><path stroke="#000" stroke-linecap="round" stroke-linejoin="round" stroke-width="1.501" d="m326.074 396.072 6.777 4.518 6.777-4.518"/><path fill="#9be6aa" stroke="#9be6aa" stroke-linecap="round" stroke-width="2.118" d="M51.15 421.458v-.599a2.394 2.394 0 0 1 2.395-2.394h15.561a2.394 2.394 0 0 1 2.395 2.394v11.971a2.394 2.394 0 0 1-2.395 2.394H53.545a2.394 2.394 0 0 1-2.395-2.394z"/><path stroke="#000" stroke-linecap="round" stroke-linejoin="round" stroke-width="1.556" d="m53.906 421.331 7.024 4.682 7.023-4.682"/><path fill="#9be6aa" stroke="#9be6aa" stroke-linecap="round" stroke-width="2.044" d="M82.19 421.635v-.578a2.31 2.31 0 0 1 2.31-2.31h15.016a2.31 2.31 0 0 1 2.31 2.31v11.551a2.31 2.31 0 0 1-2.31 2.31H84.5a2.31 2.31 0 0 1-2.31-2.31z"/><path stroke="#000" stroke-linecap="round" stroke-linejoin="round" stroke-width="1.501" d="m84.848 421.512 6.777 4.518 6.777-4.518"/><path fill="#9be6aa" stroke="#9be6aa" stroke-linecap="round" stroke-width="2.044" d="M112.342 421.635v-.578a2.31 2.31 0 0 1 2.31-2.31h15.016a2.31 2.31 0 0 1 2.31 2.31v11.551a2.31 2.31 0 0 1-2.31 2.31h-15.016a2.31 2.31 0 0 1-2.31-2.31z"/><path stroke="#000" stroke-linecap="round" stroke-linejoin="round" stroke-width="1.501" d="m115 421.512 6.777 4.518 6.777-4.518"/><path fill="#9be6aa" stroke="#9be6aa" stroke-linecap="round" stroke-width="2.044" d="M142.496 421.635v-.578a2.31 2.31 0 0 1 2.31-2.31h15.016a2.31 2.31 0 0 1 2.31 2.31v11.551a2.31 2.31 0 0 1-2.31 2.31h-15.016a2.31 2.31 0 0 1-2.31-2.31z"/><path stroke="#000" stroke-linecap="round" stroke-linejoin="round" stroke-width="1.501" d="m145.154 421.512 6.777 4.518 6.777-4.518"/><path fill="#9be6aa" stroke="#9be6aa" stroke-linecap="round" stroke-width="2.044" d="M172.648 421.635v-.578a2.31 2.31 0 0 1 2.311-2.31h15.016a2.31 2.31 0 0 1 2.31 2.31v11.551a2.31 2.31 0 0 1-2.31 2.31h-15.016a2.31 2.31 0 0 1-2.311-2.31z"/><path stroke="#000" stroke-linecap="round" stroke-linejoin="round" stroke-width="1.501" d="m175.307 421.512 6.777 4.518 6.777-4.518"/><path fill="#9be6aa" stroke="#9be6aa" stroke-linecap="round" stroke-width="2.044" d="M202.803 421.635v-.578a2.31 2.31 0 0 1 2.31-2.31h15.016a2.31 2.31 0 0 1 2.31 2.31v11.551a2.31 2.31 0 0 1-2.31 2.31h-15.016a2.31 2.31 0 0 1-2.31-2.31z"/><path stroke="#000" stroke-linecap="round" stroke-linejoin="round" stroke-width="1.501" d="m205.461 421.512 6.777 4.518 6.777-4.518"/><path fill="#9be6aa" stroke="#9be6aa" stroke-linecap="round" stroke-width="2.044" d="M232.957 421.635v-.578a2.31 2.31 0 0 1 2.31-2.31h15.016a2.31 2.31 0 0 1 2.31 2.31v11.551a2.31 2.31 0 0 1-2.31 2.31h-15.016a2.31 2.31 0 0 1-2.31-2.31z"/><path stroke="#000" stroke-linecap="round" stroke-linejoin="round" stroke-width="1.501" d="m235.615 421.512 6.777 4.518 6.777-4.518"/><path fill="#9be6aa" stroke="#9be6aa" stroke-linecap="round" stroke-width="2.044" d="M263.109 421.635v-.578a2.31 2.31 0 0 1 2.311-2.31h15.015a2.31 2.31 0 0 1 2.311 2.31v11.551a2.31 2.31 0 0 1-2.311 2.31H265.42a2.31 2.31 0 0 1-2.311-2.31z"/><path stroke="#000" stroke-linecap="round" stroke-linejoin="round" stroke-width="1.501" d="m265.768 421.512 6.777 4.518 6.777-4.518"/><path fill="#9be6aa" stroke="#9be6aa" stroke-linecap="round" stroke-width="2.044" d="M293.264 421.635v-.578a2.31 2.31 0 0 1 2.31-2.31h15.016a2.31 2.31 0 0 1 2.31 2.31v11.551a2.31 2.31 0 0 1-2.31 2.31h-15.016a2.31 2.31 0 0 1-2.31-2.31z"/><path stroke="#000" stroke-linecap="round" stroke-linejoin="round" stroke-width="1.501" d="m295.922 421.512 6.777 4.518 6.777-4.518"/><path fill="#9be6aa" stroke="#9be6aa" stroke-linecap="round" stroke-width="2.044" d="M323.416 421.635v-.578a2.31 2.31 0 0 1 2.31-2.31h15.016a2.31 2.31 0 0 1 2.31 2.31v11.551a2.31 2.31 0 0 1-2.31 2.31h-15.016a2.31 2.31 0 0 1-2.31-2.31z"/><path stroke="#000" stroke-linecap="round" stroke-linejoin="round" stroke-width="1.501" d="m326.074 421.512 6.777 4.518 6.777-4.518"/><path fill="#9be6aa" stroke="#9be6aa" stroke-linecap="round" stroke-width="2.118" d="M51.15 446.898v-.598a2.394 2.394 0 0 1 2.395-2.395h15.561a2.394 2.394 0 0 1 2.395 2.395v11.97a2.394 2.394 0 0 1-2.395 2.394H53.545a2.394 2.394 0 0 1-2.395-2.394z"/><path stroke="#000" stroke-linecap="round" stroke-linejoin="round" stroke-width="1.556" d="m53.906 446.771 7.024 4.682 7.023-4.682"/><path fill="#9be6aa" stroke="#9be6aa" stroke-linecap="round" stroke-width="2.044" d="M82.19 447.075v-.577a2.31 2.31 0 0 1 2.31-2.31h15.016a2.31 2.31 0 0 1 2.31 2.31v11.551a2.31 2.31 0 0 1-2.31 2.31H84.5a2.31 2.31 0 0 1-2.31-2.31z"/><path stroke="#000" stroke-linecap="round" stroke-linejoin="round" stroke-width="1.501" d="m84.848 446.953 6.777 4.518 6.777-4.518"/><path fill="#9be6aa" stroke="#9be6aa" stroke-linecap="round" stroke-width="2.044" d="M112.342 447.075v-.577a2.31 2.31 0 0 1 2.31-2.31h15.016a2.31 2.31 0 0 1 2.31 2.31v11.551a2.31 2.31 0 0 1-2.31 2.31h-15.016a2.31 2.31 0 0 1-2.31-2.31z"/><path stroke="#000" stroke-linecap="round" stroke-linejoin="round" stroke-width="1.501" d="m115 446.953 6.777 4.518 6.777-4.518"/><path fill="#9be6aa" stroke="#9be6aa" stroke-linecap="round" stroke-width="2.044" d="M142.496 447.075v-.577a2.31 2.31 0 0 1 2.31-2.31h15.016a2.31 2.31 0 0 1 2.31 2.31v11.551a2.31 2.31 0 0 1-2.31 2.31h-15.016a2.31 2.31 0 0 1-2.31-2.31z"/><path stroke="#000" stroke-linecap="round" stroke-linejoin="round" stroke-width="1.501" d="m145.154 446.953 6.777 4.518 6.777-4.518"/><path fill="#9be6aa" stroke="#9be6aa" stroke-linecap="round" stroke-width="2.044" d="M172.648 447.075v-.577a2.31 2.31 0 0 1 2.311-2.31h15.016a2.31 2.31 0 0 1 2.31 2.31v11.551a2.31 2.31 0 0 1-2.31 2.31h-15.016a2.31 2.31 0 0 1-2.311-2.31z"/><path stroke="#000" stroke-linecap="round" stroke-linejoin="round" stroke-width="1.501" d="m175.307 446.953 6.777 4.518 6.777-4.518"/><path fill="#9be6aa" stroke="#9be6aa" stroke-linecap="round" stroke-width="2.044" d="M202.803 447.075v-.577a2.31 2.31 0 0 1 2.31-2.31h15.016a2.31 2.31 0 0 1 2.31 2.31v11.551a2.31 2.31 0 0 1-2.31 2.31h-15.016a2.31 2.31 0 0 1-2.31-2.31z"/><path stroke="#000" stroke-linecap="round" stroke-linejoin="round" stroke-width="1.501" d="m205.461 446.953 6.777 4.518 6.777-4.518"/><path fill="#9be6aa" stroke="#9be6aa" stroke-linecap="round" stroke-width="2.044" d="M232.957 447.075v-.577a2.31 2.31 0 0 1 2.31-2.31h15.016a2.31 2.31 0 0 1 2.31 2.31v11.551a2.31 2.31 0 0 1-2.31 2.31h-15.016a2.31 2.31 0 0 1-2.31-2.31z"/><path stroke="#000" stroke-linecap="round" stroke-linejoin="round" stroke-width="1.501" d="m235.615 446.953 6.777 4.518 6.777-4.518"/><path fill="#9be6aa" stroke="#9be6aa" stroke-linecap="round" stroke-width="2.044" d="M263.109 447.075v-.577a2.31 2.31 0 0 1 2.311-2.31h15.015a2.31 2.31 0 0 1 2.311 2.31v11.551a2.31 2.31 0 0 1-2.311 2.31H265.42a2.31 2.31 0 0 1-2.311-2.31z"/><path stroke="#000" stroke-linecap="round" stroke-linejoin="round" stroke-width="1.501" d="m265.768 446.953 6.777 4.518 6.777-4.518"/><path fill="#9be6aa" stroke="#9be6aa" stroke-linecap="round" stroke-width="2.044" d="M293.264 447.075v-.577a2.31 2.31 0 0 1 2.31-2.31h15.016a2.31 2.31 0 0 1 2.31 2.31v11.551a2.31 2.31 0 0 1-2.31 2.31h-15.016a2.31 2.31 0 0 1-2.31-2.31z"/><path stroke="#000" stroke-linecap="round" stroke-linejoin="round" stroke-width="1.501" d="m295.922 446.953 6.777 4.518 6.777-4.518"/><path fill="#9be6aa" stroke="#9be6aa" stroke-linecap="round" stroke-width="2.044" d="M323.416 447.075v-.577a2.31 2.31 0 0 1 2.31-2.31h15.016a2.31 2.31 0 0 1 2.31 2.31v11.551a2.31 2.31 0 0 1-2.31 2.31h-15.016a2.31 2.31 0 0 1-2.31-2.31z"/><path stroke="#000" stroke-linecap="round" stroke-linejoin="round" stroke-width="1.501" d="m326.074 446.953 6.777 4.518 6.777-4.518"/><path fill="#9be6aa" stroke="#9be6aa" stroke-linecap="round" stroke-width="2.118" d="M51.15 472.339v-.599a2.394 2.394 0 0 1 2.395-2.394h15.561a2.394 2.394 0 0 1 2.395 2.394v11.971a2.394 2.394 0 0 1-2.395 2.394H53.545a2.394 2.394 0 0 1-2.395-2.394z"/><path stroke="#000" stroke-linecap="round" stroke-linejoin="round" stroke-width="1.556" d="m53.906 472.212 7.024 4.682 7.023-4.682"/><path fill="#9be6aa" stroke="#9be6aa" stroke-linecap="round" stroke-width="2.044" d="M82.19 472.516v-.578a2.31 2.31 0 0 1 2.31-2.31h15.016a2.31 2.31 0 0 1 2.31 2.31v11.551a2.31 2.31 0 0 1-2.31 2.31H84.5a2.31 2.31 0 0 1-2.31-2.31z"/><path stroke="#000" stroke-linecap="round" stroke-linejoin="round" stroke-width="1.501" d="m84.848 472.393 6.777 4.518 6.777-4.518"/><path fill="#9be6aa" stroke="#9be6aa" stroke-linecap="round" stroke-width="2.044" d="M112.342 472.516v-.578a2.31 2.31 0 0 1 2.31-2.31h15.016a2.31 2.31 0 0 1 2.31 2.31v11.551a2.31 2.31 0 0 1-2.31 2.31h-15.016a2.31 2.31 0 0 1-2.31-2.31z"/><path stroke="#000" stroke-linecap="round" stroke-linejoin="round" stroke-width="1.501" d="m115 472.393 6.777 4.518 6.777-4.518"/><path fill="#9be6aa" stroke="#9be6aa" stroke-linecap="round" stroke-width="2.044" d="M142.496 472.516v-.578a2.31 2.31 0 0 1 2.31-2.31h15.016a2.31 2.31 0 0 1 2.31 2.31v11.551a2.31 2.31 0 0 1-2.31 2.31h-15.016a2.31 2.31 0 0 1-2.31-2.31z"/><path stroke="#000" stroke-linecap="round" stroke-linejoin="round" stroke-width="1.501" d="m145.154 472.393 6.777 4.518 6.777-4.518"/><path fill="#9be6aa" stroke="#9be6aa" stroke-linecap="round" stroke-width="2.044" d="M172.648 472.516v-.578a2.31 2.31 0 0 1 2.311-2.31h15.016a2.31 2.31 0 0 1 2.31 2.31v11.551a2.31 2.31 0 0 1-2.31 2.31h-15.016a2.31 2.31 0 0 1-2.311-2.31z"/><path stroke="#000" stroke-linecap="round" stroke-linejoin="round" stroke-width="1.501" d="m175.307 472.393 6.777 4.518 6.777-4.518"/><path fill="#9be6aa" stroke="#9be6aa" stroke-linecap="round" stroke-width="2.044" d="M202.803 472.516v-.578a2.31 2.31 0 0 1 2.31-2.31h15.016a2.31 2.31 0 0 1 2.31 2.31v11.551a2.31 2.31 0 0 1-2.31 2.31h-15.016a2.31 2.31 0 0 1-2.31-2.31z"/><path stroke="#000" stroke-linecap="round" stroke-linejoin="round" stroke-width="1.501" d="m205.461 472.393 6.777 4.518 6.777-4.518"/><path fill="#9be6aa" stroke="#9be6aa" stroke-linecap="round" stroke-width="2.044" d="M232.957 472.516v-.578a2.31 2.31 0 0 1 2.31-2.31h15.016a2.31 2.31 0 0 1 2.31 2.31v11.551a2.31 2.31 0 0 1-2.31 2.31h-15.016a2.31 2.31 0 0 1-2.31-2.31z"/><path stroke="#000" stroke-linecap="round" stroke-linejoin="round" stroke-width="1.501" d="m235.615 472.393 6.777 4.518 6.777-4.518"/><path fill="#9be6aa" stroke="#9be6aa" stroke-linecap="round" stroke-width="2.044" d="M263.109 472.516v-.578a2.31 2.31 0 0 1 2.311-2.31h15.015a2.31 2.31 0 0 1 2.311 2.31v11.551a2.31 2.31 0 0 1-2.311 2.31H265.42a2.31 2.31 0 0 1-2.311-2.31z"/><path stroke="#000" stroke-linecap="round" stroke-linejoin="round" stroke-width="1.501" d="m265.768 472.393 6.777 4.518 6.777-4.518"/><path fill="#9be6aa" stroke="#9be6aa" stroke-linecap="round" stroke-width="2.044" d="M293.264 472.516v-.578a2.31 2.31 0 0 1 2.31-2.31h15.016a2.31 2.31 0 0 1 2.31 2.31v11.551a2.31 2.31 0 0 1-2.31 2.31h-15.016a2.31 2.31 0 0 1-2.31-2.31z"/><path stroke="#000" stroke-linecap="round" stroke-linejoin="round" stroke-width="1.501" d="m295.922 472.393 6.777 4.518 6.777-4.518"/><path fill="#9be6aa" d="M66.534 560.851q-5.895 0-10.037-1.685-4.14-1.754-6.316-4.772-2.106-3.088-2.106-7.159 0-4.422 2.176-7.721 2.246-3.369 6.387-5.194-3.37-1.614-5.194-4.422-1.755-2.877-1.755-6.527 0-3.931 1.965-6.949 2.036-3.018 5.826-4.702t9.054-1.685q5.334 0 9.125 1.685 3.79 1.684 5.825 4.702t2.036 6.949q0 3.65-1.825 6.527-1.825 2.808-5.194 4.422 4.14 1.825 6.387 5.194 2.246 3.299 2.246 7.721 0 4.07-2.176 7.159-2.175 3.018-6.317 4.772-4.14 1.685-10.107 1.685m0-8.001q3.861 0 6.317-1.895 2.457-1.966 2.457-4.984 0-3.298-2.457-5.334t-6.317-2.035q-2.526 0-4.492.912-1.895.912-3.018 2.597t-1.123 3.86q0 2.035 1.123 3.58 1.124 1.544 3.018 2.456 1.965.843 4.492.843m0-21.899q3.369 0 5.475-1.825 2.175-1.825 2.176-4.632 0-3.019-2.176-4.843-2.106-1.895-5.475-1.895-3.298 0-5.404 1.895-2.106 1.825-2.106 4.843 0 2.807 2.106 4.632t5.404 1.825m39.752-20.846q4.983 0 8.422 1.825 3.51 1.755 5.686 4.913 2.245 3.16 3.228 7.37 1.053 4.141 1.053 8.914 0 5.685-1.193 10.739-1.194 4.983-3.65 8.843-2.387 3.79-6.176 6.036-3.79 2.176-9.125 2.176-3.86 0-7.58-1.123-3.65-1.193-6.598-3.228l4.703-7.019a19 19 0 0 0 4.703 2.246q2.526.702 4.562.702 5.474 0 8.563-4.773 3.158-4.844 2.877-15.09l1.966 1.263q-1.615 3.86-4.984 6.247-3.369 2.316-8.071 2.316-4.634 0-8.282-2.176-3.65-2.246-5.686-5.966t-2.035-8.422q0-4.634 2.176-8.142 2.176-3.58 6.106-5.615 4-2.036 9.335-2.036m0 8.072q-2.316 0-4.141 1.053a7.7 7.7 0 0 0-2.878 2.877q-1.053 1.825-1.053 4.212t1.053 4.281 2.878 2.948 4.141 1.053 4.141-1.053 2.878-2.948q1.123-1.894 1.123-4.281t-1.123-4.212a7.7 7.7 0 0 0-2.878-2.877q-1.825-1.053-4.141-1.053m54.499 42.674q-5.193 0-9.194-2.316-4-2.387-6.317-6.528-2.247-4.14-2.246-9.545 0-5.404 2.316-9.546 2.386-4.14 6.457-6.457 4.141-2.386 9.476-2.386 4.632 0 8.492 2.456 3.931 2.386 6.247 7.089 2.386 4.632 2.386 11.3h-25.688q.351 3.51 3.018 5.615 2.667 2.036 6.036 2.036 2.877 0 4.702-1.193a8.5 8.5 0 0 0 2.808-3.229l8.282 3.229a17.4 17.4 0 0 1-3.86 5.123q-2.317 2.106-5.545 3.229t-7.37 1.123m-7.58-22.811h15.161q-.212-2.176-1.404-3.509a7.3 7.3 0 0 0-2.808-1.966q-1.614-.631-3.158-.631-1.474 0-3.229.631-1.685.562-3.018 1.895-1.263 1.334-1.544 3.58m29.042 21.969v-35.094h8.703l.421 4.562q1.614-2.667 4.141-4.001 2.527-1.403 5.615-1.403 4.282 0 7.159 1.825 2.948 1.824 4.282 5.615 1.544-3.58 4.351-5.475 2.808-1.965 6.528-1.965 6.176 0 9.405 3.93 3.228 3.86 3.228 11.932v20.074h-9.264v-17.968q0-3.58-.772-5.545t-2.106-2.808q-1.334-.912-3.158-.912-3.37-.07-5.194 2.176-1.825 2.246-1.825 6.668v18.389h-9.265v-17.968q0-3.58-.772-5.545-.702-1.965-2.106-2.808-1.333-.912-3.158-.912-3.369-.07-5.194 2.176-1.755 2.246-1.755 6.668v18.389zm71.039.842q-6.317 0-9.827-2.808-3.438-2.807-3.439-7.931 0-5.615 3.72-8.422 3.79-2.878 10.598-2.878h8.283q-.491-3.228-2.036-4.913-1.543-1.755-4.422-1.755-2.245 0-4.071.983-1.825.982-3.088 3.018l-8.142-2.808q.983-2.245 2.878-4.351 1.895-2.176 4.913-3.51 3.088-1.403 7.51-1.403 5.334 0 8.844 2.035 3.58 2.036 5.264 5.756 1.755 3.65 1.685 8.703l-.211 19.442h-8.633l-.14-4.071q-1.335 2.386-3.791 3.65-2.387 1.263-5.895 1.263m1.544-7.721q2.246 0 4.071-1.052t2.877-2.738 1.053-3.509v-.141h-5.264q-4.562 0-6.317 1.123-1.755 1.053-1.755 3.019 0 1.544 1.404 2.456 1.404.842 3.931.842m23.531 6.879v-35.094h9.265v35.094zm4.632-40.779q-2.105 0-3.719-1.544-1.615-1.615-1.615-3.791 0-2.175 1.615-3.719 1.614-1.615 3.719-1.615 2.177 0 3.72 1.615 1.615 1.544 1.615 3.719 0 2.176-1.615 3.791-1.543 1.544-3.72 1.544m11.636 40.779v-49.132h9.265v49.132zm28.858.842q-3.37 0-6.317-.983-2.947-1.053-5.194-2.948-2.246-1.965-3.509-4.772l7.931-3.65q1.053 1.685 2.878 2.948 1.824 1.193 4.211 1.193 2.316 0 3.58-.632 1.263-.702 1.263-1.965t-1.053-1.825q-.982-.632-2.737-1.053l-3.229-.842q-5.054-1.334-8.001-4.211-2.878-2.948-2.878-6.738 0-5.404 3.439-8.352 3.51-2.948 9.897-2.948 3.298 0 6.106.982 2.878.983 4.913 2.738 2.036 1.753 2.808 4.071l-7.651 3.509q-.491-1.404-2.386-2.246-1.895-.912-3.79-.913-1.895 0-2.948.843-.983.772-.983 2.176 0 .912.983 1.544.983.562 2.807.982l4.563 1.123q3.438.842 5.474 2.738 2.106 1.824 3.018 4.141.983 2.246.983 4.421 0 3.16-1.895 5.615-1.825 2.387-5.054 3.72-3.158 1.334-7.229 1.334"/><path stroke="#9be6aa" stroke-linecap="square" stroke-linejoin="round" stroke-width="8.402" d="m352.351 35.941 83.821-10.796a.15.15 0 0 1 .11.03h.001l25.568 19.733a.15.15 0 0 1 .057.1l14.503 112.597a.15.15 0 0 1-.131.169l-106.471 13.714a.15.15 0 0 1-.169-.131L352.221 36.11a.15.15 0 0 1 .13-.169Z"/><path stroke="#9be6aa" stroke-linecap="round" stroke-linejoin="round" stroke-width="8.402" d="m383.693 86.17 57.552-7.413m-51.186 48.282 57.551-7.412m-60.214-13.017 28.776-3.706"/><path fill="#000" d="m334.162 10.942 45.472-5.3 5.838 50.077L340 61.02z"/><path fill="#000" stroke="#9be6aa" stroke-linejoin="round" stroke-width="4.17" d="M351.667 48.411c13.126-.16 18.781-5.752 18.619-19.078.162 13.326 5.912 18.78 19.078 18.62-13.166.16-18.779 5.911-18.619 19.078-.16-13.167-5.952-18.78-19.078-18.62Zm-16.436-22.692c8.439-.103 12.074-3.698 11.97-12.265.104 8.567 3.801 12.073 12.264 11.97-8.463.103-12.072 3.8-11.969 12.264-.103-8.464-3.826-12.072-12.265-11.97Z"/></g><rect width="420.247" height="618.618" x="1.41" y="1.41" stroke="#9be6aa" stroke-width="2.82" rx="6.929"/><defs><clipPath id="a"><rect width="423.067" height="621.439" fill="#fff" rx="8.339"/></clipPath></defs></svg>