<svg xmlns="http://www.w3.org/2000/svg" width="1175" height="510" fill="none" viewBox="0 0 1175 510"><g clip-path="url(#a)"><path stroke="#88f154" stroke-linecap="round" stroke-linejoin="round" stroke-width="7.474" d="m398.947 186.403-12.496 22.442h29.989l-12.496 22.443m704.936-44.885-12.5 22.442h29.99l-12.49 22.443m-771.445-44.885-12.496 22.442h29.989l-12.496 22.443m704.928-44.885-12.49 22.442h29.99l-12.5 22.443m-771.431-44.885-12.495 22.442h29.988l-12.495 22.443m704.936-44.885-12.496 22.442h29.993l-12.5 22.443m-771.439-44.885-12.495 22.442h29.988l-12.495 22.443m704.936-44.885-12.496 22.442h29.989l-12.496 22.443M172.91 186.403l-12.496 22.442h29.989l-12.496 22.443m704.936-44.885-12.495 22.442h29.988l-12.495 22.443m-771.439-44.885-12.496 22.442h29.989l-12.496 22.443m704.936-44.885-12.495 22.442h29.988l-12.495 22.443M59.896 186.403 47.4 208.845h29.99l-12.496 22.443m704.932-44.885-12.496 22.442h29.989l-12.496 22.443"/><path fill="#88f154" d="M495.018 242.041q-1.859 1.546-4.349 2.569a14.7 14.7 0 0 1-5.071 1.071 9.66 9.66 0 0 1-4.829-1.159l3.65-5.459q1.883.531 3.527.146a7.3 7.3 0 0 0 2.962-1.481q2.014-1.674 2.255-3.905.247-2.303-1.459-4.355-1.579-1.897-3.881-2.145-2.263-.28-4.277 1.395a5.96 5.96 0 0 0-1.757 2.378q-.556 1.379-.486 2.566l-5.633 2.916-10.709-16.186 15.337-12.754 3.994 4.802-10.806 8.986 4.636 7.151q.562-1.45 1.551-2.862.955-1.45 2.46-2.636 2.208-1.835 4.93-2.265a9.83 9.83 0 0 1 5.281.522q2.598.918 4.627 3.358 2.287 2.75 2.787 5.872t-.671 6.126q-1.203 2.966-4.069 5.349m37.936-22.612q-2.158 1.089-4.816 1.524a14.6 14.6 0 0 1-5.181-.097 9.65 9.65 0 0 1-4.444-2.216l4.784-4.498q1.715.942 3.404.936a7.3 7.3 0 0 0 3.219-.775q2.34-1.179 3.077-3.299.758-2.187-.442-4.571-1.111-2.204-3.298-2.964-2.142-.782-4.482.397a5.96 5.96 0 0 0-2.246 1.921q-.853 1.22-1.052 2.391l-6.145 1.573-6.79-18.181 17.814-8.974 2.81 5.578-12.551 6.323 2.908 8.011a13.5 13.5 0 0 1 2.155-2.44q1.257-1.197 2.99-2.014 2.563-1.292 5.313-1.097 2.726.15 5.028 1.697 2.325 1.479 3.753 4.314 1.609 3.194 1.393 6.348t-2.032 5.818q-1.84 2.619-5.169 4.295m28.232-10.755q-4.169.977-7.885-.532-3.728-1.557-6.473-5.105-2.757-3.596-3.975-8.794-1.219-5.2-.335-9.596.872-4.447 3.482-7.439 2.648-3.051 6.816-4.028 4.17-.978 7.897.581 3.765 1.497 6.522 5.093 2.745 3.547 3.964 8.746t.346 9.645q-.883 4.398-3.532 7.45-2.658 3.003-6.827 3.979m-1.425-6.081q2.207-.516 3.578-2.39 1.41-1.934 1.781-4.763.361-2.879-.444-6.311-.804-3.434-2.406-5.852-1.6-2.418-3.711-3.476-2.073-1.118-4.329-.589-2.207.517-3.567 2.439-1.372 1.873-1.732 4.752-.311 2.867.493 6.3t2.357 5.862q1.59 2.37 3.663 3.488 2.11 1.058 4.317.54m33.08 4.919q-4.281-.067-7.518-2.436-3.237-2.42-5.036-6.528-1.798-4.16-1.714-9.498t2.012-9.388q1.929-4.1 5.188-6.367 3.312-2.315 7.592-2.248 4.281.067 7.518 2.487 3.287 2.368 5.085 6.528 1.8 4.108 1.715 9.447t-2.012 9.439q-1.928 4.05-5.239 6.366-3.31 2.265-7.591 2.198m.098-6.245q2.267.035 4.053-1.448 1.838-1.533 2.887-4.186 1.05-2.703 1.106-6.229t-.909-6.261q-.965-2.736-2.753-4.275-1.739-1.59-4.055-1.626-2.267-.036-4.054 1.498-1.787 1.483-2.837 4.187-1 2.704-1.055 6.23-.055 3.525.858 6.26.966 2.685 2.704 4.274 1.788 1.54 4.055 1.576m26.992 10.302 10.405-33.689 7.17 2.215 5.33 17.566 14.306-11.502 7.123 2.2-10.404 33.689-6.546-2.021 7.224-23.39-15.122 12.094-5.684-18.467-7.209 23.341zm42.11 16.526 12.479-34.586 5.642 4.146-8.853 24.124 20.096-15.861 5.52 4.057-8.888 23.661 20.171-15.369 5.642 4.146-29.364 22.178-5.844-4.296 9.139-23.663-19.936 15.729zM573.949 350.45l-9.252-.5 7.501-.749.25-2.244-10.003-1.248 11.254-.749 1.751-.998-8.503-9.233 10.504 6.488 4.5-.498 1.25-11.729 2.002 11.229 5.002.749 7.501-5.24-5.751 7.235 2 1.748 11.504-2.995-10.504 5.241.501 1.247 13.754 1.497-14.004 1.997-.501 4.491s1.501 5.489 1.501 7.485-2.5 3.494-1.501 4.492c1 .999 3.752 7.238 3.752 7.238s2.251 2.993 3 2.993c.751 0 4.752 4.991 5.752 9.232 1 4.243 1.75 7.985 3.251 9.233 1.499 1.248 4.001 2.496 4.25 3.493.252.999 3.752 0 3.752 0l1.75-4.241 1.501.25v-2.247l13.504 8.484-1.251 1.498.501 1.996-3.251 4.491s2.251.25 1.751 2.496-2.501 4.99-2.501 4.99l-2.5 3.243s-4.001 3.494-5.002 2.246-.5 17.965-6.252 17.716-3.25-.748-3.25.999 3.75 33.436 2.749 34.684c-.999 1.247-3 2.245-3 2.245l1.001 6.238-1.752 1.497s1.501 16.219.75 17.716c-.75 1.498-2.501-.498-2.501 1.747s-1.75 22.956 5.502 28.446c2.501.999 2.001 8.735 2.001 8.735s4.001.249 3.251 1.996-4.001 14.97.25 15.72c4.251.748 9.002 4.241 9.002 4.241l-.499 7.986-.501 3.494-4.752 4.99 1 33.935 1.251.999-1.75.748 1.75 20.96 2.5 6.987 3.752 4.242.75 5.739-2.751 2.994s2.751 4.741.501 8.484c-1.251 2.993 2 2.744 2 2.744l2.502 2.496v15.72h13.253l8.002 2.994.25 14.223 32.01.749 10.003 4.241.5 17.966-9.252 1.747h-236.07v-23.455h46.014v-16.718h23.257l.999-20.213 4.752-1.247s-2.5-4.492-1.752-6.488c.752-1.996.501-4.742-.25-5.739-.749-.998-.499-6.738-.499-6.738l2.5-1.496 5.253-9.982 1.249-20.96s-2.75-.25-.75-3.243c2.001-2.995 1.251-33.188 1.251-33.188l-4.502-5.489-.251-3.743-.999-9.233 5.5-.499v1.248l1.001-1.748 2.751.251 1.25-5.989-.251-11.478s.751-2.496 1.752-2.496 1.75-7.735 1.75-7.735l4.251-.25s-1.75-.997.25-2.995c2.001-1.995 3.502-1.995 3.502-1.995s5.751-8.983 3.751-13.974.5-7.237.5-7.237-2-15.969.75-23.954c-.249-2.495-1.75-4.491-1.75-4.491s3.502-3.494 2.752-7.486c-.752-3.994-.501-8.483-.501-9.232 0-.75-1.501-6.738-.501-9.982 1.001-3.243-2.75-2.246-2.75-4.74 0-2.496.75-5.49 1.75-8.734s1.25-10.729 1.25-10.729-5.251.499-5.502-.999 2.252-14.223 6.753-18.715c2.5-3.742-.75-8.234-2.251-10.48-1.499-2.246-2.75-3.744-1.499-6.987 1.249-3.244 1.749-7.985-.251-8.234-2.002-.249-4.501-5.24-4.501-5.24s-4.001-5.24-3.752-10.979c.25-5.74 6.502-13.725 6.502-13.725s-3.5-12.225-3.251-22.955-.249-3.993-.249-3.993-3.002-3.992-2.002-5.989 1-3.992 1-3.992-2.75-1.746-2.75-3.992-.75-5.49 0-6.238 2-3.245 2-3.245l-3.501-3.992s-1.5-3.243-.5-4.741 5.252-1.498 5.252-1.498l-.501-4.741s-4.001.5-3-2.745c1-3.244 4.752-6.488 4.501-8.234-.25-1.747 3.751 2.995 3.751 2.995l3.501-1.498.25 1.997s-.25 7.734-2.25 7.734-.75 3.493-.75 3.493l5.751.75.75 6.488-5.25 1.248-1.001 6.487s3.502 4.492 3.502 8.235c0 3.741-1.002 9.481.249 13.724 1.251 4.241 4.752 15.969 3.501 20.461s3.501 1.246 4.001 5.738 2.001 9.483 3.251 8.235c1.251-1.245 5.252-8.232 3.752-11.725"/><path stroke="#88f154" stroke-width="3.679" d="M667.422 403.474h449.368c5.33 0 9.72 4.218 9.99 9.456l.01.51v90.898c0 5.47-4.49 9.965-9.99 9.965h-33.32v17.423a3.207 3.207 0 0 1-3.22 3.208h-40.52a3.207 3.207 0 0 1-3.22-3.208v-17.423H741.433v17.423a3.21 3.21 0 0 1-3.218 3.208h-40.527a3.21 3.21 0 0 1-3.217-3.208v-17.423h-27.049c-5.496 0-9.988-4.494-9.988-9.965v-90.899c0-5.471 4.492-9.965 9.988-9.965Zm38.873 46.466c-5.872 0-10.648 4.762-10.649 10.631s4.777 10.63 10.649 10.631 10.648-4.762 10.648-10.631-4.776-10.631-10.648-10.631Zm36.663 0c-5.872 0-10.648 4.762-10.648 10.631s4.776 10.63 10.648 10.631 10.649-4.762 10.649-10.631-4.777-10.631-10.649-10.631Zm36.664 0c-5.872 0-10.649 4.762-10.649 10.631s4.777 10.631 10.649 10.631c5.872-.001 10.649-4.762 10.649-10.631-.001-5.869-4.777-10.631-10.649-10.631Zm-112.2-169.397h449.368c5.5.001 10 4.495 10 9.97v90.9c0 5.475-4.5 9.969-10 9.969H667.422c-5.495 0-9.988-4.493-9.988-9.969v-90.9c0-5.476 4.493-9.969 9.988-9.97Zm38.873 43.112c-5.872 0-10.649 4.761-10.649 10.631.001 5.869 4.777 10.629 10.649 10.629s10.648-4.76 10.648-10.629c0-5.87-4.776-10.631-10.648-10.631Zm36.663 0c-5.872 0-10.648 4.762-10.648 10.631s4.776 10.629 10.648 10.629 10.649-4.76 10.649-10.629c0-5.87-4.777-10.631-10.649-10.631Zm36.664 0c-5.872 0-10.649 4.761-10.649 10.631 0 5.869 4.777 10.629 10.649 10.629s10.648-4.76 10.649-10.629-4.777-10.631-10.649-10.631ZM507.43 403.474H58.057c-5.325 0-9.713 4.218-9.986 9.456l-.013.51v90.898c0 5.47 4.497 9.965 9.994 9.965h33.32v17.423a3.21 3.21 0 0 0 3.217 3.208h40.526a3.21 3.21 0 0 0 3.218-3.208v-17.423h295.086v17.423a3.21 3.21 0 0 0 3.218 3.208h40.526a3.21 3.21 0 0 0 3.218-3.208v-17.423h27.049c5.495 0 9.988-4.494 9.988-9.965v-90.899c0-5.471-4.493-9.965-9.988-9.965Zm-38.873 46.466c5.872 0 10.648 4.762 10.648 10.631s-4.776 10.63-10.648 10.631-10.649-4.762-10.649-10.631 4.777-10.631 10.649-10.631Zm-36.663 0c5.871 0 10.648 4.762 10.648 10.631s-4.777 10.63-10.648 10.631c-5.873 0-10.65-4.762-10.65-10.631s4.778-10.631 10.65-10.631Zm-36.665 0c5.873 0 10.65 4.762 10.65 10.631s-4.777 10.631-10.65 10.631c-5.871-.001-10.648-4.762-10.648-10.631s4.777-10.631 10.648-10.631ZM507.43 280.543H58.057c-5.496.001-9.995 4.495-9.995 9.97v90.9c0 5.475 4.499 9.969 9.995 9.969H507.43c5.494 0 9.988-4.493 9.988-9.969v-90.9c0-5.476-4.493-9.969-9.988-9.97Zm-38.873 43.112c5.872 0 10.648 4.761 10.648 10.631 0 5.869-4.777 10.629-10.648 10.629-5.872 0-10.649-4.76-10.649-10.629 0-5.87 4.777-10.631 10.649-10.631Zm-36.663 0c5.871 0 10.648 4.762 10.648 10.631s-4.777 10.629-10.648 10.629c-5.872 0-10.65-4.76-10.65-10.629 0-5.87 4.777-10.631 10.65-10.631Zm-36.665 0c5.873 0 10.65 4.761 10.65 10.631 0 5.869-4.778 10.629-10.65 10.629-5.871 0-10.648-4.76-10.648-10.629s4.777-10.631 10.648-10.631Z"/><path fill="#88f154" d="m76.838 327.807 7.902-20.04h4.18l7.9 20.04h-4.15l-1.718-4.409h-8.245l-1.717 4.409zm7.157-7.873h5.669l-2.834-7.271zm14.683 7.873v-14.314h3.55l.171 1.946q.688-1.116 1.747-1.689 1.088-.6 2.462-.601 1.69 0 2.891.687 1.203.687 1.832 2.147.63 1.432.602 3.722v8.102h-3.779v-7.329q0-1.46-.344-2.262-.315-.801-.916-1.145-.601-.372-1.403-.372-1.46-.029-2.261.888-.773.915-.773 2.719v7.501zm22.168.343q-2.376 0-3.607-1.173-1.203-1.174-1.202-3.35v-6.928h-2.319v-3.206h2.319v-4.466h3.779v4.466h3.578v3.206h-3.578v6.098q0 .916.4 1.403.402.458 1.174.458.287 0 .63-.115.344-.143.716-.401l1.317 2.835q-.688.515-1.546.83a4.3 4.3 0 0 1-1.661.343m5.65-.343v-20.04h3.779v7.558q.715-1.06 1.775-1.603 1.059-.573 2.376-.573 1.718 0 2.891.687 1.202.687 1.832 2.147.63 1.432.63 3.722v8.102H136v-7.329q0-1.46-.343-2.262-.344-.801-.945-1.145-.601-.372-1.403-.372-1.46-.029-2.261.888-.773.915-.773 2.719v7.501zm16.298 0v-14.314h3.779v2.634q.888-1.345 2.233-2.004a6.3 6.3 0 0 1 2.834-.688v3.665q-1.317 0-2.491.315-1.144.315-1.86 1.03t-.716 1.833v7.529zm17.575.343q-2.176 0-3.893-.944a7.14 7.14 0 0 1-2.663-2.663q-.945-1.69-.945-3.893 0-2.205.945-3.894a6.7 6.7 0 0 1 2.634-2.633q1.689-.974 3.865-.974 2.204 0 3.893.974a6.7 6.7 0 0 1 2.634 2.633q.945 1.689.945 3.894t-.945 3.893a6.9 6.9 0 0 1-2.634 2.663q-1.66.944-3.836.944m0-3.492q1.059 0 1.861-.516a3.4 3.4 0 0 0 1.231-1.402q.458-.917.458-2.09 0-1.175-.458-2.061a3.5 3.5 0 0 0-1.288-1.432q-.802-.515-1.861-.515a3.46 3.46 0 0 0-1.861.515 3.55 3.55 0 0 0-1.26 1.432q-.458.887-.458 2.061t.458 2.09a3.5 3.5 0 0 0 1.289 1.402q.83.516 1.889.516m10.05 8.874v-20.039h3.55l.172 2.032q.716-1.144 1.803-1.746 1.117-.63 2.577-.63 1.975 0 3.406.916 1.461.916 2.262 2.605.802 1.66.802 3.98 0 2.29-.802 3.979-.801 1.689-2.262 2.605-1.43.916-3.406.916-1.432 0-2.52-.601a5.1 5.1 0 0 1-1.803-1.689v7.672zm7.128-8.846q1.031 0 1.804-.515a3.56 3.56 0 0 0 1.26-1.431q.458-.917.458-2.09 0-1.174-.458-2.09-.43-.916-1.231-1.403-.774-.515-1.804-.515-.974 0-1.746.515-.773.516-1.203 1.432-.429.887-.429 2.061t.429 2.09q.43.915 1.174 1.431a3.07 3.07 0 0 0 1.746.515m10.151 3.121v-14.314h3.779v14.314zm1.89-16.633q-.859 0-1.517-.63-.659-.658-.659-1.546 0-.887.659-1.517.658-.659 1.517-.659.888 0 1.517.659.659.63.659 1.517 0 .888-.659 1.546-.63.63-1.517.63m12.273 16.976q-2.233 0-3.979-.944a7 7 0 0 1-2.72-2.663q-.973-1.718-.973-3.893 0-2.205.973-3.894a6.86 6.86 0 0 1 2.691-2.633q1.717-.974 3.951-.974 2.147 0 3.922 1.059 1.774 1.06 2.577 3.064l-3.55 1.259q-.4-.83-1.26-1.317a3.46 3.46 0 0 0-1.861-.515q-1.059 0-1.861.515a3.4 3.4 0 0 0-1.259 1.375q-.459.887-.458 2.061 0 1.173.458 2.061a3.56 3.56 0 0 0 1.288 1.374q.83.516 1.89.515 1.03 0 1.86-.544a3.25 3.25 0 0 0 1.26-1.431l3.578 1.26q-.83 2.032-2.605 3.149-1.746 1.116-3.922 1.116m8.643-7.243v-3.235h8.588v3.235zm10.369 6.9 7.902-20.04h4.179l7.902 20.04h-4.151l-1.718-4.409h-8.245l-1.718 4.409zm7.157-7.873h5.669l-2.835-7.271zm14.683 7.873v-14.314h3.549l.172 1.861q.658-1.089 1.689-1.632a4.64 4.64 0 0 1 2.291-.573q1.746 0 2.92.745 1.202.744 1.746 2.29.63-1.46 1.775-2.233 1.145-.802 2.662-.802 2.52 0 3.836 1.603 1.317 1.575 1.317 4.867v8.188h-3.779v-7.329q0-1.46-.314-2.262-.315-.801-.859-1.145-.544-.372-1.289-.372-1.374-.029-2.118.888-.744.915-.744 2.719v7.501h-3.779v-7.329q0-1.46-.315-2.262-.286-.801-.859-1.145-.544-.372-1.288-.372-1.374-.029-2.119.888-.715.915-.715 2.719v7.501zm29.603.343q-2.577 0-4.008-1.145-1.403-1.145-1.403-3.235 0-2.29 1.518-3.435 1.545-1.174 4.322-1.174h3.379q-.201-1.317-.831-2.004-.63-.716-1.803-.716-.916 0-1.661.401-.744.401-1.259 1.231l-3.321-1.145q.4-.916 1.174-1.775.772-.887 2.004-1.431 1.259-.573 3.063-.573 2.175 0 3.607.83a5.03 5.03 0 0 1 2.147 2.348q.716 1.489.687 3.55l-.086 7.93h-3.521l-.057-1.661a3.64 3.64 0 0 1-1.546 1.489q-.974.515-2.405.515m.63-3.149q.916 0 1.66-.429a3.3 3.3 0 0 0 1.174-1.117q.429-.687.429-1.431v-.057h-2.147q-1.86 0-2.576.458-.716.429-.716 1.231 0 .63.573 1.002.572.343 1.603.343m9.281 2.806v-2.749l7.071-8.445h-7.071v-3.12h11.795v2.719l-7.071 8.503h7.1v3.092zm21.059.343q-2.177 0-3.894-.944a7.13 7.13 0 0 1-2.662-2.663q-.945-1.69-.945-3.893 0-2.205.945-3.894a6.7 6.7 0 0 1 2.633-2.633q1.69-.974 3.865-.974 2.205 0 3.894.974a6.7 6.7 0 0 1 2.633 2.633q.945 1.689.945 3.894t-.945 3.893a6.9 6.9 0 0 1-2.633 2.663q-1.66.944-3.836.944m0-3.492q1.059 0 1.86-.516a3.37 3.37 0 0 0 1.231-1.402q.459-.917.458-2.09 0-1.175-.458-2.061a3.47 3.47 0 0 0-1.288-1.432q-.801-.515-1.861-.515-1.03 0-1.861.515a3.54 3.54 0 0 0-1.259 1.432q-.459.887-.458 2.061 0 1.173.458 2.09a3.5 3.5 0 0 0 1.288 1.402q.83.516 1.89.516m9.906 3.149v-14.314h3.55l.172 1.946q.687-1.116 1.746-1.689 1.089-.6 2.462-.601 1.689 0 2.892.687t1.832 2.147q.63 1.432.601 3.722v8.102h-3.779v-7.329q0-1.46-.343-2.262-.315-.801-.916-1.145-.602-.372-1.403-.372-1.46-.029-2.262.888-.773.915-.773 2.719v7.501zm-234.407 29v-20.04h4.094l9.79 13.455v-13.455h3.894v20.04H92.67l-9.963-13.713v13.713zm28.068.343q-2.118 0-3.75-.944a7.05 7.05 0 0 1-2.577-2.663q-.916-1.69-.916-3.893 0-2.205.945-3.894a6.97 6.97 0 0 1 2.634-2.633q1.689-.974 3.865-.974a6.3 6.3 0 0 1 3.463 1.002q1.604.974 2.548 2.892.974 1.889.974 4.609h-10.478q.143 1.43 1.231 2.29 1.088.83 2.462.83 1.173 0 1.918-.486a3.5 3.5 0 0 0 1.145-1.317l3.378 1.317a7.1 7.1 0 0 1-1.574 2.089q-.945.86-2.262 1.317-1.317.458-3.006.458m-3.092-9.304h6.184q-.086-.887-.573-1.431a3 3 0 0 0-1.145-.802 3.5 3.5 0 0 0-1.288-.257q-.602 0-1.317.257a3.14 3.14 0 0 0-1.231.773q-.515.544-.63 1.46m15.38 8.961-4.867-14.314h3.836l2.978 9.218 3.006-9.218h3.721l2.949 9.075 3.006-9.075h3.836l-4.867 14.314h-3.721l-3.064-9.677-3.091 9.677zm36.594.343q-2.92 0-5.182-1.317a9.6 9.6 0 0 1-3.55-3.664q-1.288-2.347-1.288-5.382t1.288-5.353q1.289-2.348 3.521-3.665 2.262-1.345 5.182-1.345 2.061 0 3.836.744a9.2 9.2 0 0 1 3.092 2.033 8.9 8.9 0 0 1 2.061 2.977l-3.636 1.345a6 6 0 0 0-1.288-1.832 5.6 5.6 0 0 0-1.832-1.231 5.4 5.4 0 0 0-2.233-.458q-1.746 0-3.12.888-1.347.858-2.119 2.376-.744 1.517-.744 3.521t.773 3.55a6.1 6.1 0 0 0 2.147 2.405q1.374.858 3.149.858 1.231 0 2.233-.458a5.8 5.8 0 0 0 1.803-1.317 6.6 6.6 0 0 0 1.289-1.918l3.635 1.317a9.3 9.3 0 0 1-2.061 3.092 9.3 9.3 0 0 1-3.092 2.09q-1.774.744-3.864.744m15.991 0q-2.576 0-4.007-1.145-1.404-1.145-1.403-3.235 0-2.29 1.517-3.435 1.547-1.174 4.323-1.174h3.378q-.2-1.317-.83-2.004-.63-.716-1.804-.716-.916 0-1.66.401t-1.26 1.231l-3.321-1.145a6.7 6.7 0 0 1 1.174-1.775q.773-.887 2.004-1.431 1.26-.573 3.063-.573 2.176 0 3.607.83a5.02 5.02 0 0 1 2.147 2.348q.717 1.489.688 3.55l-.086 7.93h-3.522l-.057-1.661a3.64 3.64 0 0 1-1.546 1.489q-.973.515-2.405.515m.63-3.149q.917 0 1.661-.429a3.3 3.3 0 0 0 1.173-1.117q.43-.687.43-1.431v-.057h-2.147q-1.862 0-2.577.458-.715.429-.715 1.231 0 .63.572 1.002.573.343 1.603.343m9.997 2.806v-14.314h3.779v2.634q.888-1.345 2.233-2.004a6.3 6.3 0 0 1 2.834-.688v3.665q-1.317 0-2.49.315-1.146.315-1.861 1.03t-.716 1.833v7.529zm10.848 0v-20.04h3.779v20.04zm7.274 0v-14.314h3.779v14.314zm1.889-16.633q-.858 0-1.517-.63-.658-.658-.658-1.546 0-.887.658-1.517.659-.659 1.517-.659.888 0 1.518.659.658.63.658 1.517 0 .888-.658 1.546-.63.63-1.518.63m10.728 16.976a8.1 8.1 0 0 1-2.577-.4 6.8 6.8 0 0 1-2.118-1.203 5.6 5.6 0 0 1-1.432-1.947l3.235-1.488q.43.687 1.174 1.202.744.487 1.718.487.945 0 1.46-.258.515-.287.515-.801 0-.516-.429-.745-.402-.258-1.117-.429l-1.317-.344q-2.061-.544-3.263-1.717-1.174-1.203-1.174-2.749 0-2.204 1.403-3.406 1.431-1.203 4.036-1.203 1.346 0 2.491.401 1.173.4 2.004 1.116.83.716 1.145 1.661l-3.12 1.431q-.201-.572-.974-.916a3.5 3.5 0 0 0-1.546-.372q-.773 0-1.202.344-.4.315-.401.887 0 .372.401.63.4.229 1.145.401l1.861.458q1.402.344 2.233 1.116.858.744 1.231 1.689.4.916.401 1.804a3.65 3.65 0 0 1-.773 2.29q-.745.974-2.062 1.517-1.287.544-2.948.544m7.982-.343v-20.04h3.779v20.04zm13.515.343q-2.118 0-3.75-.944a7.05 7.05 0 0 1-2.577-2.663q-.916-1.69-.916-3.893 0-2.205.945-3.894a6.97 6.97 0 0 1 2.634-2.633q1.689-.974 3.864-.974a6.3 6.3 0 0 1 3.464 1.002q1.603.974 2.548 2.892.974 1.889.974 4.609h-10.478q.142 1.43 1.231 2.29 1.088.83 2.462.83 1.173 0 1.918-.486a3.5 3.5 0 0 0 1.145-1.317l3.378 1.317a7.1 7.1 0 0 1-1.574 2.089q-.945.86-2.262 1.317-1.317.458-3.006.458m-3.092-9.304h6.184q-.085-.887-.573-1.431a3 3 0 0 0-1.145-.802 3.5 3.5 0 0 0-1.288-.257q-.602 0-1.317.257a3.14 3.14 0 0 0-1.231.773q-.516.544-.63 1.46M78.781 451.478v-20.04h4.266l5.84 8.646 5.84-8.646h4.237v20.04h-3.893v-13.914l-6.184 9.104-6.184-9.075v13.885zm30.473.343q-2.12 0-3.751-.945a7.04 7.04 0 0 1-2.576-2.662q-.916-1.69-.916-3.893 0-2.205.944-3.894a7 7 0 0 1 2.634-2.634q1.689-.972 3.865-.973 1.89 0 3.464 1.002 1.603.974 2.548 2.892.973 1.889.973 4.609h-10.478q.144 1.43 1.231 2.29 1.088.83 2.462.83 1.174 0 1.918-.487a3.46 3.46 0 0 0 1.146-1.316l3.378 1.316a7.1 7.1 0 0 1-1.575 2.09q-.945.86-2.262 1.317-1.316.459-3.005.458m-3.092-9.304h6.183q-.086-.888-.572-1.431a3 3 0 0 0-1.145-.802 3.5 3.5 0 0 0-1.289-.258q-.6 0-1.316.258-.688.229-1.232.773-.515.544-.629 1.46m18.371 9.304q-2.376 0-3.608-1.174-1.202-1.173-1.202-3.349v-6.928h-2.319v-3.206h2.319v-4.466h3.779v4.466h3.579v3.206h-3.579v6.098q0 .915.401 1.403.4.458 1.174.458.285 0 .629-.115.344-.143.716-.401l1.317 2.834a6 6 0 0 1-1.546.831 4.3 4.3 0 0 1-1.66.343m10.007 0q-2.577 0-4.008-1.145-1.403-1.145-1.403-3.235 0-2.29 1.517-3.435 1.547-1.174 4.323-1.174h3.378q-.2-1.317-.83-2.004-.63-.716-1.804-.716-.915 0-1.66.401t-1.26 1.231l-3.32-1.145q.4-.916 1.173-1.775.774-.888 2.004-1.431 1.26-.573 3.063-.573 2.176 0 3.608.83a5.03 5.03 0 0 1 2.147 2.348q.715 1.488.687 3.55l-.086 7.93h-3.521l-.058-1.661a3.64 3.64 0 0 1-1.546 1.489q-.972.515-2.404.515m.629-3.149q.917 0 1.661-.429a3.3 3.3 0 0 0 1.174-1.117q.429-.687.429-1.431v-.057h-2.147q-1.86 0-2.577.458-.715.429-.715 1.231 0 .628.572 1.002.573.343 1.603.343m-56.388 31.806v-20.04h7.444q2.118 0 3.75.859a6.2 6.2 0 0 1 2.548 2.347q.916 1.489.916 3.464 0 1.947-.888 3.464a6.54 6.54 0 0 1-2.433 2.405q-1.546.86-3.579.859h-3.836v6.642zm3.922-10.249h3.75q1.317 0 2.148-.859.859-.888.859-2.262t-.945-2.233q-.917-.858-2.376-.858h-3.436zm12.728 10.249v-14.314h3.779v2.633q.887-1.346 2.233-2.004a6.3 6.3 0 0 1 2.834-.687v3.665q-1.317 0-2.491.315-1.145.315-1.86 1.03t-.716 1.832v7.53zm17.575.343q-2.176 0-3.894-.945a7.1 7.1 0 0 1-2.662-2.662q-.945-1.69-.945-3.893 0-2.205.945-3.894a6.73 6.73 0 0 1 2.634-2.634q1.689-.972 3.865-.973 2.204 0 3.893.973a6.73 6.73 0 0 1 2.634 2.634q.944 1.689.944 3.894t-.944 3.893a6.9 6.9 0 0 1-2.634 2.662q-1.66.945-3.836.945m0-3.492q1.059 0 1.861-.516a3.4 3.4 0 0 0 1.231-1.403q.458-.916.458-2.089t-.458-2.062a3.5 3.5 0 0 0-1.289-1.431q-.801-.515-1.86-.515a3.45 3.45 0 0 0-1.861.515 3.54 3.54 0 0 0-1.26 1.431q-.458.888-.458 2.062t.458 2.089a3.5 3.5 0 0 0 1.288 1.403q.831.516 1.89.516m9.907 3.149v-14.314h3.55l.171 1.86q.658-1.088 1.689-1.631a4.64 4.64 0 0 1 2.291-.573q1.746 0 2.92.744 1.202.745 1.746 2.291.63-1.46 1.775-2.233 1.145-.802 2.662-.802 2.52 0 3.836 1.603 1.317 1.575 1.317 4.867v8.188h-3.779v-7.329q0-1.46-.314-2.262-.316-.801-.859-1.145-.544-.372-1.289-.372-1.374-.028-2.118.887-.744.917-.744 2.72v7.501h-3.779v-7.329q0-1.46-.315-2.262-.286-.801-.859-1.145-.544-.372-1.288-.372-1.375-.028-2.119.887-.715.917-.715 2.72v7.501zm31.435.343q-2.118 0-3.75-.945a7.04 7.04 0 0 1-2.577-2.662q-.916-1.69-.916-3.893 0-2.205.945-3.894a7 7 0 0 1 2.634-2.634q1.689-.972 3.865-.973 1.889 0 3.464 1.002 1.602.974 2.548 2.892.973 1.889.973 4.609h-10.478q.143 1.43 1.231 2.29 1.088.83 2.462.83 1.174 0 1.918-.487a3.46 3.46 0 0 0 1.145-1.316l3.378 1.316a7.1 7.1 0 0 1-1.574 2.09q-.945.86-2.262 1.317-1.317.459-3.006.458m-3.092-9.304h6.184q-.086-.888-.572-1.431a3 3 0 0 0-1.146-.802 3.5 3.5 0 0 0-1.288-.258q-.602 0-1.317.258-.687.229-1.231.773-.514.544-.63 1.46m18.371 9.304q-2.376 0-3.607-1.174-1.202-1.173-1.202-3.349v-6.928h-2.319v-3.206h2.319v-4.466h3.779v4.466h3.578v3.206h-3.578v6.098q0 .915.401 1.403.4.458 1.173.458.287 0 .63-.115.344-.143.716-.401l1.317 2.834a6 6 0 0 1-1.546.831 4.3 4.3 0 0 1-1.661.343m5.65-.343v-20.04h3.779v7.558q.716-1.06 1.775-1.603 1.059-.573 2.376-.573 1.718 0 2.891.687 1.203.687 1.833 2.147.629 1.432.629 3.722v8.102h-3.779v-7.329q0-1.46-.343-2.262-.344-.801-.945-1.145-.601-.372-1.403-.372-1.46-.028-2.261.887-.774.917-.773 2.72v7.501zm22.768.343q-2.118 0-3.75-.945a7.04 7.04 0 0 1-2.577-2.662q-.916-1.69-.916-3.893 0-2.205.945-3.894a7 7 0 0 1 2.634-2.634q1.689-.972 3.865-.973 1.889 0 3.464 1.002 1.603.974 2.547 2.892.974 1.889.974 4.609h-10.478q.143 1.43 1.231 2.29 1.088.83 2.462.83 1.173 0 1.918-.487a3.46 3.46 0 0 0 1.145-1.316l3.378 1.316a7.1 7.1 0 0 1-1.574 2.09q-.945.86-2.262 1.317-1.317.459-3.006.458m-3.092-9.304h6.184q-.085-.888-.573-1.431a3 3 0 0 0-1.145-.802 3.5 3.5 0 0 0-1.288-.258q-.601 0-1.317.258-.687.229-1.231.773-.514.544-.63 1.46m17.57 9.304q-1.718 0-2.92-.687-1.174-.687-1.804-2.118-.63-1.46-.63-3.751v-8.101h3.779v7.328q0 1.432.315 2.262.344.801.945 1.174.63.343 1.403.343 1.488.029 2.261-.887.773-.945.773-2.72v-7.5h3.779v14.314h-3.55l-.143-1.947a5.1 5.1 0 0 1-1.804 1.689q-1.059.601-2.404.601m16.528 0a8 8 0 0 1-2.576-.401 6.8 6.8 0 0 1-2.119-1.202 5.6 5.6 0 0 1-1.431-1.947l3.235-1.488q.429.687 1.174 1.202.744.487 1.717.487.945 0 1.46-.258.516-.286.516-.802 0-.514-.43-.744-.4-.258-1.116-.429l-1.317-.344q-2.061-.543-3.264-1.717-1.173-1.203-1.173-2.749 0-2.204 1.402-3.407 1.432-1.202 4.037-1.202a7.5 7.5 0 0 1 2.49.401q1.175.4 2.004 1.116.831.716 1.146 1.661l-3.121 1.431q-.2-.572-.973-.916a3.54 3.54 0 0 0-1.546-.372q-.772 0-1.203.343-.4.315-.4.888 0 .372.4.63.401.228 1.146.401l1.86.458q1.404.344 2.233 1.116.86.744 1.231 1.689.401.916.401 1.804 0 1.288-.773 2.29-.744.974-2.061 1.517-1.288.544-2.949.544m605.87-156.565q-3.035 0-5.382-1.317a9.7 9.7 0 0 1-3.636-3.664q-1.317-2.347-1.317-5.353 0-3.064 1.317-5.382 1.317-2.348 3.607-3.665 2.319-1.317 5.325-1.317 3.034 0 5.325 1.346a9.45 9.45 0 0 1 3.635 3.664q1.317 2.32 1.317 5.354 0 3.006-1.317 5.353a9.5 9.5 0 0 1-3.607 3.664q-2.29 1.317-5.267 1.317m0-3.578q1.832 0 3.206-.859a6.03 6.03 0 0 0 2.176-2.405q.801-1.517.801-3.492 0-2.004-.801-3.522-.802-1.517-2.205-2.376-1.403-.887-3.263-.887-1.804 0-3.235.887-1.402.86-2.205 2.376-.801 1.518-.801 3.522 0 1.975.801 3.492a6.17 6.17 0 0 0 2.233 2.405q1.432.86 3.293.859m12.971 8.96v-20.039h3.55l.172 2.032q.715-1.144 1.804-1.746 1.116-.63 2.576-.63 1.976 0 3.407.916 1.46.916 2.261 2.605.802 1.66.802 3.98 0 2.29-.802 3.979-.801 1.689-2.261 2.605-1.431.916-3.407.916-1.431 0-2.519-.601a5.1 5.1 0 0 1-1.804-1.689v7.672zm7.129-8.846q1.03 0 1.803-.515a3.54 3.54 0 0 0 1.26-1.431q.458-.917.458-2.09 0-1.174-.458-2.09-.43-.916-1.231-1.403-.773-.515-1.804-.515-.974 0-1.746.515-.773.516-1.202 1.432-.43.887-.43 2.061t.43 2.09 1.173 1.431a3.1 3.1 0 0 0 1.747.515m16.392 3.464q-2.12 0-3.751-.944a7.06 7.06 0 0 1-2.576-2.663q-.916-1.69-.916-3.893 0-2.205.945-3.894a6.96 6.96 0 0 1 2.633-2.633q1.69-.974 3.865-.974 1.89 0 3.464 1.002 1.603.974 2.548 2.892.973 1.889.973 4.609H868.12q.144 1.43 1.231 2.29 1.088.83 2.463.83 1.173 0 1.918-.486a3.5 3.5 0 0 0 1.145-1.317l3.378 1.317a7.1 7.1 0 0 1-1.575 2.089 6.5 6.5 0 0 1-2.261 1.317q-1.317.458-3.006.458m-3.092-9.304h6.184q-.087-.887-.573-1.431a3 3 0 0 0-1.145-.802 3.5 3.5 0 0 0-1.288-.257q-.601 0-1.317.257a3.1 3.1 0 0 0-1.231.773q-.516.544-.63 1.46m12.473 8.961v-14.314h3.55l.172 1.946q.687-1.116 1.746-1.689 1.089-.6 2.462-.601 1.689 0 2.892.687t1.832 2.147q.63 1.432.601 3.722v8.102h-3.779v-7.329q0-1.46-.343-2.262-.316-.801-.916-1.145-.602-.372-1.403-.372-1.46-.029-2.262.888-.773.915-.773 2.719v7.501zm14.869 0 7.901-20.04h4.18l7.901 20.04h-4.151l-1.718-4.409h-8.245l-1.717 4.409zm7.157-7.873h5.668l-2.834-7.271zm15.226 7.873v-20.04h3.922v20.04zm21.824.343a10.4 10.4 0 0 1-2.834-.372 8.7 8.7 0 0 1-2.347-1.03 7.9 7.9 0 0 1-1.718-1.518q-.658-.83-.859-1.746l3.836-1.145q.372.974 1.317 1.689.945.687 2.376.716 1.518.028 2.462-.659.974-.687.974-1.775 0-.945-.773-1.574-.745-.659-2.061-1.002l-2.606-.687q-1.46-.373-2.576-1.117a5.7 5.7 0 0 1-1.746-1.889q-.63-1.117-.63-2.605 0-2.835 1.861-4.409 1.889-1.603 5.324-1.603 1.919 0 3.35.572 1.46.544 2.433 1.575a7 7 0 0 1 1.489 2.433l-3.808 1.174q-.344-.974-1.259-1.661-.916-.687-2.319-.687-1.431 0-2.262.659-.801.658-.801 1.861 0 .944.63 1.488.657.545 1.774.83l2.634.659q2.577.63 4.008 2.262 1.431 1.63 1.432 3.635 0 1.776-.859 3.121-.86 1.317-2.491 2.061t-3.951.744m16.016 0q-2.377 0-3.608-1.173-1.202-1.174-1.202-3.35v-6.928h-2.319v-3.206h2.319v-4.466h3.779v4.466h3.578v3.206h-3.578v6.098q0 .916.401 1.403.4.458 1.173.458.287 0 .63-.115.344-.143.716-.401l1.317 2.835q-.687.515-1.546.83a4.3 4.3 0 0 1-1.66.343m10.007 0q-2.577 0-4.008-1.145-1.403-1.145-1.403-3.235 0-2.29 1.517-3.435 1.546-1.174 4.323-1.174h3.378q-.2-1.317-.83-2.004-.63-.716-1.804-.716-.916 0-1.66.401t-1.26 1.231l-3.321-1.145a6.7 6.7 0 0 1 1.174-1.775q.773-.887 2.004-1.431 1.26-.573 3.063-.573 2.176 0 3.608.83a5.03 5.03 0 0 1 2.147 2.348q.716 1.489.687 3.55l-.086 7.93h-3.521l-.058-1.661a3.64 3.64 0 0 1-1.546 1.489q-.973.515-2.404.515m.629-3.149q.917 0 1.661-.429a3.3 3.3 0 0 0 1.174-1.117q.429-.687.429-1.431v-.057h-2.147q-1.86 0-2.577.458-.715.429-.715 1.231 0 .63.572 1.002.573.343 1.603.343m9.997 2.806v-14.314h3.779v2.634q.888-1.345 2.233-2.004a6.3 6.3 0 0 1 2.834-.687v3.664a9.6 9.6 0 0 0-2.49.315q-1.146.315-1.861 1.03t-.716 1.833v7.529zm17.289 6.098q-1.632 0-2.891-.229-1.26-.23-2.119-.602-.858-.372-1.403-.744l1.489-3.035q.4.23 1.059.516.659.314 1.575.515.917.23 2.118.229 1.146 0 2.004-.458.888-.429 1.374-1.374.516-.916.516-2.348v-1.374a5.34 5.34 0 0 1-1.861 1.775q-1.145.63-2.605.63-1.975 0-3.436-.859-1.43-.858-2.233-2.405-.801-1.546-.801-3.664 0-2.233.801-3.865.802-1.66 2.233-2.548 1.46-.916 3.436-.916 1.46 0 2.605.687 1.145.659 1.861 1.89v-2.233h3.78v12.768c0 1.603-.31 2.977-.92 4.122q-.913 1.747-2.603 2.634-1.66.888-3.979.888m.344-9.677q.974 0 1.689-.486a3.37 3.37 0 0 0 1.145-1.375q.4-.887.401-2.004 0-1.145-.43-2.003a3.16 3.16 0 0 0-1.145-1.346q-.715-.487-1.689-.487-1.002 0-1.775.487a3.3 3.3 0 0 0-1.202 1.346q-.43.858-.458 2.003.028 1.118.458 2.004a3.5 3.5 0 0 0 1.202 1.375 3.4 3.4 0 0 0 1.804.486m15.048 3.922c-1.72 0-3.06-.381-4.01-1.145-.93-.763-1.4-1.842-1.4-3.235 0-1.527.5-2.672 1.51-3.435 1.04-.783 2.48-1.174 4.33-1.174h3.38c-.14-.878-.41-1.546-.83-2.004-.42-.477-1.03-.716-1.81-.716-.61 0-1.16.134-1.66.401q-.735.401-1.26 1.231l-3.32-1.145a6.8 6.8 0 0 1 1.17-1.775q.78-.887 2.01-1.431 1.26-.573 3.06-.573c1.45 0 2.65.277 3.61.83a5.06 5.06 0 0 1 2.15 2.348c.47.992.7 2.176.68 3.55l-.08 7.93h-3.52l-.06-1.661a3.6 3.6 0 0 1-1.55 1.489q-.975.515-2.4.515m.63-3.149c.61 0 1.16-.143 1.66-.429.49-.286.89-.659 1.17-1.117.29-.458.43-.935.43-1.431v-.057h-2.15c-1.24 0-2.09.152-2.57.458q-.72.429-.72 1.231 0 .63.57 1.002c.39.229.92.343 1.61.343m15.89 3.149q-2.37 0-3.6-1.173c-.81-.783-1.21-1.899-1.21-3.35v-6.928h-2.32v-3.206h2.32v-4.466h3.78v4.466h3.58v3.206h-3.58v6.098c0 .611.14 1.078.4 1.403.27.305.66.458 1.18.458a2 2 0 0 0 .63-.115c.23-.095.46-.229.71-.401l1.32 2.835c-.46.343-.97.62-1.55.83-.55.229-1.1.343-1.66.343m11.84 0q-2.115 0-3.75-.944a7.04 7.04 0 0 1-2.58-2.663c-.61-1.126-.91-2.424-.91-3.893 0-1.47.31-2.768.94-3.894a7 7 0 0 1 2.64-2.633c1.12-.649 2.41-.974 3.86-.974 1.26 0 2.42.334 3.47 1.002 1.06.649 1.91 1.613 2.54 2.892.65 1.259.98 2.796.98 4.609h-10.48c.09.954.51 1.717 1.23 2.29q1.095.83 2.46.83 1.17 0 1.92-.486c.5-.344.88-.783 1.15-1.317l3.37 1.317c-.4.801-.92 1.498-1.57 2.089a6.45 6.45 0 0 1-2.26 1.317c-.88.306-1.88.458-3.01.458m-3.09-9.304h6.18q-.075-.887-.57-1.431c-.32-.363-.71-.63-1.14-.802a3.5 3.5 0 0 0-1.29-.257q-.6 0-1.32.257-.69.23-1.23.773-.51.544-.63 1.46m-210.657 37.961 7.901-20.04h4.18l7.901 20.04h-4.151l-1.717-4.409h-8.245l-1.718 4.409zm7.157-7.873h5.668l-2.834-7.271zm22.784 8.216q-1.46 0-2.548-.601-1.088-.63-1.832-1.775l-.143 2.033h-3.579v-20.04h3.779v7.672q.716-1.116 1.804-1.689 1.088-.6 2.519-.601 1.976 0 3.407.916 1.46.916 2.261 2.605.802 1.66.802 3.98 0 2.29-.802 3.979-.801 1.689-2.261 2.605-1.431.916-3.407.916m-.973-3.464q1.03 0 1.803-.515a3.54 3.54 0 0 0 1.26-1.431q.458-.917.458-2.09 0-1.174-.458-2.09-.43-.916-1.231-1.403-.773-.515-1.804-.515-.973 0-1.746.515-.773.516-1.202 1.432-.43.887-.43 2.061t.43 2.09 1.173 1.431a3.1 3.1 0 0 0 1.747.515m10.154 3.121v-14.314h3.779v14.314zm1.89-16.633q-.86 0-1.518-.63-.658-.658-.658-1.546 0-.887.658-1.517.659-.659 1.518-.659.887 0 1.517.659.658.63.658 1.517 0 .888-.658 1.546-.63.63-1.517.63m5.374 16.633v-20.04h3.779v20.04zm13.515.343q-2.119 0-3.75-.944a7.05 7.05 0 0 1-2.577-2.663q-.916-1.69-.916-3.893 0-2.205.945-3.894a6.97 6.97 0 0 1 2.633-2.633q1.69-.974 3.865-.974a6.3 6.3 0 0 1 3.464 1.002q1.603.974 2.548 2.892.973 1.889.973 4.609h-10.477q.142 1.43 1.231 2.29 1.088.83 2.462.83 1.173 0 1.918-.486a3.5 3.5 0 0 0 1.145-1.317l3.378 1.317a7.1 7.1 0 0 1-1.575 2.089q-.944.86-2.261 1.317-1.317.458-3.006.458m-3.092-9.304h6.184q-.086-.887-.573-1.431a3 3 0 0 0-1.145-.802 3.5 3.5 0 0 0-1.288-.257q-.601 0-1.317.257a3.1 3.1 0 0 0-1.231.773q-.516.544-.63 1.46m12.474 8.961v-14.314h3.549l.172 1.946q.687-1.116 1.746-1.689 1.088-.6 2.463-.601 1.689 0 2.891.687t1.832 2.147q.63 1.432.601 3.722v8.102h-3.779v-7.329q0-1.46-.343-2.262-.315-.801-.916-1.145-.602-.372-1.403-.372-1.46-.029-2.262.888-.773.916-.773 2.719v7.501zm22.74.343q-2.118 0-3.75-.944a7.05 7.05 0 0 1-2.576-2.663q-.916-1.69-.916-3.893 0-2.205.944-3.894a6.97 6.97 0 0 1 2.634-2.633q1.689-.974 3.865-.974 1.89 0 3.464 1.002 1.603.974 2.548 2.892.973 1.889.973 4.609h-10.478q.144 1.43 1.231 2.29 1.088.83 2.462.83 1.174 0 1.918-.486a3.46 3.46 0 0 0 1.145-1.317l3.379 1.317a7.1 7.1 0 0 1-1.575 2.089q-.945.86-2.262 1.317-1.316.458-3.006.458m-3.091-9.304h6.183q-.086-.887-.572-1.431a3 3 0 0 0-1.145-.802 3.5 3.5 0 0 0-1.289-.257q-.6 0-1.317.257a3.14 3.14 0 0 0-1.231.773q-.515.544-.629 1.46m-85.408 125.621 5.325-7.414-4.953-6.9h4.466l2.577 3.837 2.548-3.837h4.466l-4.924 6.928 5.267 7.386h-4.494l-2.863-4.322-2.892 4.322zm15.291 0 7.902-20.039h4.179l7.902 20.039h-4.151l-1.718-4.408h-8.245l-1.718 4.408zm7.157-7.872h5.669l-2.835-7.272zm15.227 7.872v-20.039h3.922v20.039zm23.942.344q-2.919 0-5.181-1.317a9.6 9.6 0 0 1-3.55-3.664q-1.288-2.348-1.288-5.382 0-3.035 1.288-5.354 1.288-2.347 3.521-3.664 2.262-1.346 5.182-1.346 2.061 0 3.836.745a9.2 9.2 0 0 1 3.092 2.032 8.9 8.9 0 0 1 2.061 2.977l-3.636 1.346a6 6 0 0 0-1.288-1.832 5.6 5.6 0 0 0-1.832-1.231 5.4 5.4 0 0 0-2.233-.458q-1.747 0-3.121.887-1.346.86-2.118 2.376-.744 1.518-.744 3.522t.773 3.549a6.1 6.1 0 0 0 2.147 2.405q1.374.86 3.149.859 1.23 0 2.233-.458a5.8 5.8 0 0 0 1.803-1.317 6.6 6.6 0 0 0 1.289-1.918l3.635 1.317a9.3 9.3 0 0 1-2.061 3.092 9.3 9.3 0 0 1-3.092 2.09q-1.774.744-3.865.744m18.082 0q-2.175 0-3.893-.945a7.13 7.13 0 0 1-2.663-2.662q-.944-1.689-.944-3.894t.944-3.893a6.73 6.73 0 0 1 2.634-2.634q1.689-.973 3.865-.973 2.204 0 3.893.973a6.73 6.73 0 0 1 2.634 2.634q.945 1.69.945 3.893 0 2.205-.945 3.894a6.9 6.9 0 0 1-2.634 2.662q-1.66.945-3.836.945m0-3.493q1.06 0 1.861-.515a3.4 3.4 0 0 0 1.231-1.403q.458-.916.458-2.09t-.458-2.061a3.47 3.47 0 0 0-1.288-1.431q-.802-.516-1.861-.516-1.03 0-1.861.516-.801.514-1.26 1.431-.458.888-.458 2.061t.458 2.09a3.5 3.5 0 0 0 1.289 1.403q.83.515 1.889.515m9.907 3.149v-20.039h3.779v20.039zm13.773.344q-2.176 0-3.894-.945a7.13 7.13 0 0 1-2.662-2.662q-.945-1.689-.945-3.894t.945-3.893a6.73 6.73 0 0 1 2.634-2.634q1.689-.973 3.865-.973 2.204 0 3.893.973a6.73 6.73 0 0 1 2.634 2.634q.944 1.69.944 3.893 0 2.205-.944 3.894a6.9 6.9 0 0 1-2.634 2.662q-1.66.945-3.836.945m0-3.493q1.059 0 1.861-.515a3.4 3.4 0 0 0 1.231-1.403q.458-.916.458-2.09t-.458-2.061a3.47 3.47 0 0 0-1.289-1.431q-.801-.516-1.86-.516a3.45 3.45 0 0 0-1.861.516 3.53 3.53 0 0 0-1.26 1.431q-.458.888-.458 2.061t.458 2.09a3.5 3.5 0 0 0 1.288 1.403q.831.515 1.89.515m15.26 3.493a8.1 8.1 0 0 1-2.576-.401 6.8 6.8 0 0 1-2.119-1.202 5.6 5.6 0 0 1-1.431-1.947l3.235-1.489q.429.687 1.173 1.203.745.486 1.718.486.945 0 1.46-.257.515-.286.515-.802 0-.514-.429-.744-.4-.258-1.116-.43l-1.317-.343q-2.061-.544-3.264-1.718-1.173-1.202-1.174-2.748 0-2.205 1.403-3.407 1.431-1.202 4.037-1.202 1.345 0 2.49.401 1.174.4 2.004 1.116t1.145 1.661l-3.12 1.431q-.2-.573-.973-.916a3.54 3.54 0 0 0-1.546-.372q-.773 0-1.203.343-.4.315-.401.888 0 .372.401.629.4.23 1.145.401l1.861.458q1.403.344 2.233 1.117.86.744 1.231 1.689.4.916.401 1.803 0 1.289-.773 2.291-.744.973-2.061 1.517-1.289.544-2.949.544m13.308 0a8.1 8.1 0 0 1-2.577-.401 6.8 6.8 0 0 1-2.118-1.202 5.6 5.6 0 0 1-1.432-1.947l3.235-1.489q.43.687 1.174 1.203.744.486 1.718.486.944 0 1.46-.257.515-.286.515-.802 0-.514-.429-.744-.402-.258-1.117-.43l-1.317-.343q-2.061-.544-3.263-1.718-1.174-1.202-1.174-2.748 0-2.205 1.403-3.407 1.43-1.202 4.036-1.202 1.345 0 2.491.401 1.173.4 2.004 1.116.83.716 1.145 1.661l-3.121 1.431q-.2-.573-.973-.916a3.5 3.5 0 0 0-1.546-.372q-.773 0-1.202.343-.4.315-.401.888 0 .372.401.629.4.23 1.145.401l1.861.458q1.402.344 2.233 1.117.859.744 1.231 1.689.4.916.401 1.803 0 1.289-.773 2.291-.745.973-2.062 1.517-1.287.544-2.948.544m13.078 0q-1.719 0-2.92-.687-1.174-.687-1.804-2.119-.63-1.46-.63-3.75v-8.102h3.779v7.329q0 1.431.315 2.262.344.801.945 1.173.63.345 1.402.344 1.49.028 2.262-.887.773-.945.773-2.72v-7.501h3.779v14.314h-3.55l-.143-1.946a5.1 5.1 0 0 1-1.804 1.689q-1.059.601-2.404.601m16.528 0a8.1 8.1 0 0 1-2.576-.401 6.8 6.8 0 0 1-2.119-1.202 5.6 5.6 0 0 1-1.431-1.947l3.235-1.489q.429.687 1.174 1.203.744.486 1.717.486.945 0 1.46-.257.516-.286.516-.802 0-.514-.43-.744-.4-.258-1.116-.43l-1.317-.343q-2.061-.544-3.264-1.718-1.173-1.202-1.174-2.748 0-2.205 1.403-3.407 1.431-1.202 4.037-1.202 1.346 0 2.49.401 1.174.4 2.004 1.116t1.145 1.661l-3.12 1.431q-.2-.573-.973-.916a3.54 3.54 0 0 0-1.546-.372q-.773 0-1.203.343-.4.315-.4.888 0 .372.4.629.401.23 1.145.401l1.861.458q1.403.344 2.233 1.117.86.744 1.231 1.689.4.916.401 1.803 0 1.289-.773 2.291-.744.973-2.061 1.517-1.288.544-2.949.544m14.63-.344v-2.891c0-.554.17-1.164.52-1.832.34-.668.82-1.336 1.43-2.004a13 13 0 0 1 2.15-1.861l3.03-2.176q.63-.43 1.17-.973c.39-.363.69-.754.92-1.174.25-.439.37-.859.37-1.26 0-.496-.12-.944-.37-1.345a2.36 2.36 0 0 0-1.03-.945c-.46-.229-1.02-.343-1.69-.343-.57 0-1.09.114-1.55.343-.43.229-.8.535-1.08.916q-.435.573-.6 1.231l-4.04-.687q.285-1.43 1.23-2.662t2.46-1.975c1.03-.516 2.2-.773 3.49-.773q2.235 0 3.84.801 1.605.802 2.46 2.205c.59.916.89 1.984.89 3.206 0 1.24-.34 2.347-1.03 3.321-.67.954-1.59 1.851-2.78 2.691l-2.72 1.975c-.55.382-1.03.802-1.43 1.26s-.7.964-.91 1.517h9.13v3.435zM50.435 85.017V54.725h3.678v30.292zm9.644 0V63.38h3.245l.173 3.245q1.083-1.817 2.813-2.77 1.731-.994 4.025-.994 2.553 0 4.414 1.038 1.904.996 2.942 3.202 1.081 2.207 1.039 5.799v12.117h-3.462V73.939q0-3.202-.736-4.89-.735-1.689-2.034-2.294-1.298-.65-2.942-.649-2.856 0-4.457 2.034-1.559 1.99-1.558 5.669v11.208zm32.042 0v-3.03q0-1.428.562-2.812.606-1.428 1.688-2.813 1.125-1.385 2.726-2.597l6.275-4.716a9.6 9.6 0 0 0 1.947-1.775 9 9 0 0 0 1.342-2.12q.476-1.125.476-2.164 0-1.514-.736-2.726-.736-1.255-2.077-1.99-1.342-.736-3.159-.736-1.775 0-3.116.692a6.1 6.1 0 0 0-2.207 1.774 7.1 7.1 0 0 0-1.255 2.337l-3.721-.735q.519-1.948 1.86-3.635 1.386-1.688 3.506-2.727t4.716-1.038q3.03 0 5.237 1.168 2.206 1.125 3.418 3.116 1.255 1.947 1.255 4.457 0 2.38-1.298 4.5t-3.765 4.111l-5.928 4.501q-1.731 1.298-2.683 2.726-.909 1.428-1.039 2.986h15.146v3.246zm34.444.519q-3.462 0-6.145-1.99-2.682-2.035-4.197-5.54-1.515-3.548-1.515-8.135t1.515-8.092q1.514-3.549 4.154-5.54 2.683-2.033 6.188-2.033t6.145 2.034q2.683 1.99 4.198 5.539 1.557 3.505 1.558 8.092 0 4.587-1.515 8.135-1.515 3.505-4.198 5.54-2.682 1.99-6.188 1.99m0-3.289q2.424 0 4.284-1.601 1.905-1.6 2.943-4.37 1.082-2.77 1.082-6.405t-1.082-6.405q-1.038-2.813-2.943-4.37-1.86-1.601-4.284-1.601-2.422 0-4.284 1.6-1.86 1.56-2.942 4.371-1.04 2.77-1.039 6.405 0 3.635 1.039 6.404 1.082 2.77 2.942 4.371 1.905 1.6 4.284 1.601m15.233 2.77v-3.03q0-1.428.562-2.812.606-1.428 1.688-2.813 1.125-1.385 2.726-2.597l6.275-4.716a9.6 9.6 0 0 0 1.947-1.775 9 9 0 0 0 1.342-2.12q.476-1.125.476-2.164 0-1.514-.736-2.726-.735-1.255-2.077-1.99-1.341-.736-3.159-.736-1.774 0-3.116.692a6.1 6.1 0 0 0-2.207 1.774 7.1 7.1 0 0 0-1.255 2.337l-3.721-.735q.519-1.948 1.861-3.635 1.384-1.688 3.505-2.727t4.717-1.038q3.028 0 5.236 1.168 2.207 1.125 3.418 3.116 1.255 1.947 1.255 4.457 0 2.38-1.298 4.5-1.297 2.12-3.765 4.111l-5.928 4.501q-1.73 1.298-2.683 2.726-.909 1.428-1.039 2.986h15.146v3.246zm33.492.519q-3.115 0-5.236-1.168a9.35 9.35 0 0 1-3.375-3.246q-1.255-2.034-1.817-4.674a29.7 29.7 0 0 1-.52-5.668q0-3.896.779-6.968.822-3.072 2.337-5.192 1.515-2.165 3.678-3.29 2.165-1.124 4.89-1.124 2.25 0 4.457.735 2.25.693 3.981 1.948l-2.033 2.596a11.5 11.5 0 0 0-2.986-1.471q-1.602-.563-3.073-.563-4.413 0-6.707 3.722t-2.034 11.294l-.779-.779q1.038-2.64 3.332-4.154 2.294-1.558 5.409-1.558 2.9 0 5.15 1.255a8.8 8.8 0 0 1 3.548 3.505q1.299 2.208 1.299 5.063 0 2.813-1.299 5.063-1.298 2.208-3.635 3.462-2.293 1.212-5.366 1.212m0-3.202q1.948 0 3.419-.823a6.06 6.06 0 0 0 2.337-2.336q.865-1.515.865-3.462t-.865-3.419a5.7 5.7 0 0 0-2.337-2.337q-1.471-.822-3.419-.822-1.903 0-3.418.822a6 6 0 0 0-2.38 2.337q-.866 1.471-.866 3.419t.866 3.462a6.4 6.4 0 0 0 2.38 2.336q1.515.823 3.418.823m12.238 7.66 2.466-9.132h3.895l-3.375 9.131zm27.67-4.458q-3.159 0-4.89-1.645t-1.731-4.63V66.452h-3.765V63.38h3.765v-6.75h3.462v6.75h6.491v3.072h-6.491v12.463q0 1.644.865 2.553.909.866 2.51.866.52 0 .995-.13.52-.173 1.342-.78l1.341 2.814q-1.125.735-2.034.995a5.9 5.9 0 0 1-1.86.303m7.11-.52v-30.29h3.462V66.54q1.081-1.775 2.812-2.727 1.731-.951 4.025-.951 2.51 0 4.414 1.038 1.904.996 2.942 3.202 1.083 2.207 1.039 5.799v12.117h-3.462V73.939q0-3.202-.779-4.89-.735-1.689-2.034-2.294-1.298-.65-2.942-.649-2.856 0-4.457 2.034-1.558 1.99-1.558 5.669v11.208zm32.498.52q-3.16 0-5.582-1.428-2.424-1.472-3.808-4.025-1.342-2.552-1.342-5.885t1.342-5.885q1.385-2.554 3.765-3.981 2.422-1.471 5.539-1.471 3.028 0 5.236 1.514 2.207 1.471 3.418 4.154t1.212 6.318h-17.007q.217 3.549 2.251 5.54 2.034 1.99 5.149 1.99 2.294 0 3.852-1.082a7.2 7.2 0 0 0 2.466-2.856l2.986 1.515a9.6 9.6 0 0 1-2.207 2.942q-1.341 1.255-3.202 1.948-1.818.692-4.068.692m-6.967-13.588h13.025q-.13-1.86-.995-3.202a5.74 5.74 0 0 0-2.164-2.077q-1.341-.736-3.029-.736a7.15 7.15 0 0 0-3.159.736 6.26 6.26 0 0 0-2.51 2.077q-.995 1.34-1.168 3.202m50.022 13.069v-9.2H276.13v-7.265l20.664-30.196h9.666v29.663h8.132v7.799h-8.132v9.199zm-12.332-16.998h12.332V49.954zm67.38 17.798q-3.4 0-5.932-1.4-2.533-1.467-4.267-4.133l-.333 4.733h-8.332V38.356h8.799V56.22q1.667-2.6 4.199-3.932 2.533-1.4 5.866-1.4 4.6 0 7.932 2.133 3.4 2.133 5.266 6.066 1.867 3.865 1.867 9.265 0 5.333-1.867 9.266t-5.266 6.065q-3.332 2.133-7.932 2.133m-2.266-8.066q2.4 0 4.199-1.2 1.867-1.2 2.933-3.333 1.067-2.133 1.067-4.866t-1.067-4.866q-1-2.132-2.866-3.266-1.8-1.2-4.2-1.2-2.266 0-4.066 1.2t-2.799 3.333q-1 2.066-1 4.8 0 2.732 1 4.865.999 2.133 2.733 3.333 1.8 1.2 4.066 1.2m22.535 7.266v-33.33h8.799v33.33zm4.399-38.729q-2 0-3.532-1.466-1.534-1.533-1.534-3.6 0-2.066 1.534-3.533 1.533-1.533 3.532-1.533 2.067 0 3.533 1.533 1.533 1.467 1.533 3.533 0 2.067-1.533 3.6-1.466 1.466-3.533 1.466m26.403 52.927q-3.8 0-6.733-.534-2.933-.533-4.932-1.4t-3.267-1.732l3.467-7.066q.933.532 2.466 1.2 1.533.732 3.666 1.2 2.133.533 4.933.533 2.666 0 4.666-1.067 2.066-1 3.199-3.2 1.2-2.132 1.2-5.465v-3.2a12.45 12.45 0 0 1-4.332 4.133q-2.667 1.466-6.066 1.466-4.6 0-7.999-2-3.333-1.998-5.2-5.599t-1.866-8.532q0-5.2 1.866-8.999 1.867-3.866 5.2-5.932 3.399-2.133 7.999-2.133 3.399 0 6.066 1.6 2.665 1.533 4.332 4.399v-5.2h8.799v29.73q0 5.6-2.133 9.599-2.133 4.066-6.066 6.132-3.866 2.067-9.265 2.067m.8-22.53q2.266 0 3.932-1.134 1.734-1.2 2.667-3.2.933-2.065.933-4.665 0-2.667-1-4.667-.933-2-2.666-3.133-1.666-1.133-3.933-1.133-2.333 0-4.133 1.133t-2.799 3.133-1.067 4.667q.066 2.6 1.067 4.666.999 2 2.799 3.2 1.866 1.132 4.2 1.132m38.125 22.53q-3.8 0-6.732-.534-2.934-.533-4.933-1.4-2-.866-3.266-1.732l3.466-7.066q.933.532 2.466 1.2 1.533.732 3.666 1.2 2.133.533 4.933.533 2.667 0 4.666-1.067 2.066-1 3.2-3.2 1.2-2.132 1.2-5.465v-3.2a12.45 12.45 0 0 1-4.333 4.133q-2.667 1.466-6.066 1.466-4.6 0-7.999-2-3.333-1.998-5.199-5.599-1.867-3.6-1.867-8.532 0-5.2 1.867-8.999 1.866-3.866 5.199-5.932 3.4-2.133 7.999-2.133 3.399 0 6.066 1.6 2.666 1.533 4.333 4.399v-5.2h8.798v29.73q0 5.6-2.133 9.599-2.133 4.066-6.066 6.132-3.865 2.067-9.265 2.067m.8-22.53q2.267 0 3.933-1.134 1.733-1.2 2.666-3.2.933-2.065.933-4.665 0-2.667-1-4.667-.933-2-2.666-3.133-1.666-1.133-3.933-1.133-2.333 0-4.133 1.133t-2.799 3.133-1.067 4.667q.067 2.6 1.067 4.666 1 2 2.799 3.2 1.867 1.132 4.2 1.132m38.192 9.132q-4.933 0-8.732-2.2-3.8-2.267-6-6.2-2.133-3.932-2.133-9.065t2.2-9.065q2.266-3.933 6.133-6.133 3.933-2.265 8.998-2.266 4.4 0 8.066 2.333 3.733 2.266 5.933 6.732 2.266 4.4 2.266 10.732h-24.397q.333 3.333 2.866 5.333 2.534 1.933 5.733 1.933 2.733 0 4.466-1.133a8.05 8.05 0 0 0 2.666-3.067l7.866 3.067a16.5 16.5 0 0 1-3.666 4.866q-2.2 2-5.266 3.066-3.066 1.067-6.999 1.067m-7.199-21.664h14.398q-.2-2.067-1.333-3.333a6.9 6.9 0 0 0-2.667-1.867q-1.533-.6-2.999-.6-1.4 0-3.066.6-1.6.534-2.867 1.8-1.2 1.267-1.466 3.4m40.4 21.664q-3.2 0-5.999-.934-2.8-1-4.933-2.8-2.133-1.866-3.333-4.532l7.532-3.466q1 1.6 2.733 2.8 1.734 1.132 4 1.132 2.199 0 3.399-.6 1.2-.666 1.2-1.866t-1-1.733q-.933-.6-2.599-1l-3.067-.8q-4.799-1.266-7.599-4-2.733-2.8-2.733-6.398 0-5.133 3.267-7.933 3.333-2.8 9.398-2.8 3.133 0 5.8.934 2.733.933 4.666 2.6 1.933 1.666 2.666 3.866l-7.266 3.333q-.466-1.334-2.266-2.133-1.8-.867-3.6-.867t-2.799.8q-.933.733-.933 2.066 0 .867.933 1.467.933.533 2.666.933l4.333 1.066q3.266.8 5.199 2.6 2 1.733 2.867 3.933.933 2.133.933 4.2 0 3-1.8 5.332-1.733 2.267-4.799 3.533-3 1.266-6.866 1.267m31.208 0q-5.532 0-8.399-2.733-2.799-2.734-2.799-7.8v-16.13h-5.4v-7.466h5.4v-10.4h8.799v10.4h8.332v7.465h-8.332v14.198q0 2.133.933 3.267.933 1.066 2.733 1.066.666 0 1.466-.266a9 9 0 0 0 1.667-.934l3.066 6.6a14 14 0 0 1-3.599 1.933q-1.933.8-3.867.8m40.019 0q-4.599 0-7.999-2.134-3.333-2.133-5.199-6.065t-1.867-9.266q0-5.4 1.867-9.265 1.866-3.933 5.199-6.066 3.4-2.133 7.999-2.133 3.267 0 5.799 1.4 2.6 1.332 4.2 3.866V38.356h8.799v46.66h-8.332l-.267-4.666q-1.666 2.6-4.266 4.067-2.6 1.4-5.933 1.4m2.267-8.066q2.2 0 3.866-1.067 1.733-1.133 2.733-3.133t1.133-4.532v-1.334q-.134-2.532-1.133-4.466-1-2-2.733-3.066-1.734-1.133-3.933-1.133-2.4 0-4.266 1.2-1.8 1.133-2.866 3.266-1 2.133-1 4.866t1.066 4.866 2.866 3.333q1.867 1.2 4.267 1.2m33.802 8.066q-6 0-9.333-2.667-3.266-2.666-3.266-7.532 0-5.333 3.533-8 3.6-2.732 10.065-2.732h7.866q-.466-3.066-1.933-4.666-1.466-1.667-4.199-1.667-2.134 0-3.867.934-1.733.933-2.933 2.866l-7.732-2.666q.933-2.133 2.733-4.133 1.8-2.067 4.666-3.333 2.933-1.333 7.133-1.333 5.066 0 8.398 1.933 3.4 1.932 5 5.466 1.666 3.466 1.6 8.265l-.2 18.465h-8.199l-.134-3.867a8.47 8.47 0 0 1-3.599 3.467q-2.267 1.2-5.599 1.2m1.466-7.333q2.133 0 3.866-1t2.733-2.6 1-3.332v-.134h-4.999q-4.333 0-6 1.067-1.666 1-1.666 2.866 0 1.466 1.333 2.333 1.333.8 3.733.8m35.9 7.333q-5.532 0-8.399-2.733-2.799-2.734-2.799-7.8v-16.13h-5.4v-7.466h5.4v-10.4h8.798v10.4h8.333v7.465h-8.333v14.198q0 2.133.934 3.267.933 1.066 2.733 1.066.666 0 1.466-.266a9 9 0 0 0 1.667-.934l3.066 6.6a14 14 0 0 1-3.6 1.933q-1.932.8-3.866.8m22.192 0q-5.999 0-9.332-2.667-3.266-2.666-3.266-7.532 0-5.333 3.533-8 3.598-2.732 10.065-2.732h7.866q-.467-3.066-1.933-4.666-1.467-1.667-4.2-1.667-2.133 0-3.866.934-1.734.933-2.933 2.866l-7.732-2.666q.933-2.133 2.733-4.133 1.799-2.067 4.666-3.333 2.932-1.333 7.132-1.333 5.066 0 8.399 1.933 3.4 1.932 4.999 5.466 1.667 3.466 1.6 8.265l-.2 18.465h-8.199l-.133-3.867a8.46 8.46 0 0 1-3.6 3.467q-2.266 1.2-5.599 1.2m1.467-7.333q2.133 0 3.866-1 1.732-1 2.733-2.6 1-1.6 1-3.332v-.134h-5q-4.332 0-5.999 1.067-1.666 1-1.666 2.866 0 1.466 1.333 2.333 1.333.8 3.733.8m38.233 7.333q-5.2 0-9.266-2.2-4.066-2.267-6.332-6.2-2.267-4-2.267-9.065 0-5.133 2.267-9.065 2.266-3.933 6.266-6.133 3.999-2.265 9.198-2.266 5 0 9.132 2.466 4.133 2.466 6 7.132l-8.266 2.933q-.933-1.932-2.933-3.066-1.933-1.2-4.333-1.2-2.466 0-4.332 1.2-1.867 1.133-2.933 3.2-1.067 2.066-1.067 4.8 0 2.731 1.067 4.799a8.3 8.3 0 0 0 2.999 3.199q1.933 1.2 4.4 1.2 2.4 0 4.332-1.267 2-1.266 2.933-3.333l8.333 2.933q-1.933 4.734-6.066 7.333-4.067 2.6-9.132 2.6m34.28 0q-4.934 0-8.733-2.2-3.799-2.267-5.999-6.2-2.133-3.932-2.133-9.065t2.2-9.065q2.266-3.933 6.132-6.133 3.933-2.265 8.999-2.266 4.4 0 8.066 2.333 3.732 2.266 5.932 6.732 2.267 4.4 2.267 10.732h-24.397q.333 3.333 2.866 5.333 2.534 1.933 5.733 1.933 2.733 0 4.466-1.133a8.06 8.06 0 0 0 2.666-3.067l7.866 3.067a16.5 16.5 0 0 1-3.666 4.866q-2.2 2-5.266 3.066-3.066 1.067-6.999 1.067m-7.199-21.664h14.398q-.2-2.067-1.333-3.333a6.9 6.9 0 0 0-2.667-1.867q-1.533-.6-2.999-.6-1.4 0-3.067.6-1.6.534-2.866 1.8-1.2 1.267-1.466 3.4m27.935 20.864v-33.33h8.265l.4 4.533q1.6-2.6 4.066-3.932 2.534-1.4 5.733-1.4 3.933 0 6.732 1.6 2.8 1.599 4.266 4.999 1.467 3.333 1.4 8.665v18.865h-8.799V67.952q0-3.4-.8-5.266-.732-1.866-2.133-2.666-1.4-.867-3.266-.867-3.4-.066-5.266 2.067-1.8 2.132-1.8 6.332v17.465zm50.508.8q-5.532 0-8.399-2.733-2.799-2.734-2.799-7.8v-16.13h-5.4v-7.466h5.4v-10.4h8.799v10.4h8.332v7.465h-8.332v14.198q0 2.133.933 3.267.933 1.066 2.733 1.066.666 0 1.466-.266a9 9 0 0 0 1.667-.934l3.066 6.6a14 14 0 0 1-3.6 1.933q-1.932.8-3.866.8m26.458 0q-4.932 0-8.732-2.2-3.8-2.267-5.999-6.2-2.133-3.932-2.133-9.065t2.199-9.065q2.267-3.933 6.133-6.133 3.933-2.265 8.999-2.266 4.4 0 8.065 2.333 3.734 2.266 5.933 6.732 2.266 4.4 2.266 10.732h-24.396q.333 3.333 2.866 5.333 2.533 1.933 5.732 1.933 2.733 0 4.467-1.133a8.06 8.06 0 0 0 2.666-3.067l7.866 3.067a16.5 16.5 0 0 1-3.667 4.866q-2.199 2-5.266 3.066-3.066 1.067-6.999 1.067m-7.199-21.664h14.398q-.2-2.067-1.333-3.333a6.9 6.9 0 0 0-2.666-1.867q-1.533-.6-3-.6-1.4 0-3.066.6-1.6.534-2.866 1.8-1.2 1.267-1.467 3.4m27.935 20.864v-33.33h8.799v6.133q2.067-3.133 5.199-4.666 3.2-1.6 6.6-1.6v8.532q-3.067 0-5.8.734-2.666.733-4.332 2.4-1.667 1.665-1.667 4.266v17.53zm36.614.8q-3.2 0-5.999-.934-2.8-1-4.933-2.8-2.133-1.866-3.333-4.532l7.532-3.466q1 1.6 2.733 2.8 1.734 1.132 4 1.132 2.199 0 3.399-.6 1.2-.666 1.2-1.866t-1-1.733q-.933-.6-2.599-1l-3.067-.8q-4.798-1.266-7.599-4-2.733-2.8-2.733-6.398 0-5.133 3.267-7.933 3.332-2.8 9.398-2.8 3.133 0 5.8.934 2.733.933 4.666 2.6 1.932 1.666 2.666 3.866l-7.266 3.333q-.466-1.334-2.266-2.133-1.8-.867-3.6-.867t-2.799.8q-.933.733-.933 2.066 0 .867.933 1.467.933.533 2.666.933l4.333 1.066q3.265.8 5.199 2.6 2 1.733 2.866 3.933.934 2.133.934 4.2 0 3-1.8 5.332-1.733 2.267-4.799 3.533-3 1.266-6.866 1.267m35.584-.8V58.753h-5.532v-7.065h5.532v-3.333q0-5.332 2.733-8.266 2.733-3 8.333-3 1.932 0 4.066.667 2.199.666 3.999 1.6l-3.266 6.332a13 13 0 0 0-1.933-.8q-.867-.266-1.6-.266-1.8 0-2.666 1.266-.867 1.2-.867 3.933v1.867h8.199v7.065h-8.199v26.264zm36.611.8q-5.066 0-9.066-2.2a16.6 16.6 0 0 1-6.199-6.2q-2.2-3.932-2.2-9.065t2.2-9.065a15.65 15.65 0 0 1 6.133-6.133q3.932-2.265 8.998-2.266 5.133 0 9.066 2.266a15.65 15.65 0 0 1 6.132 6.133q2.199 3.932 2.197 9.065.002 5.133-2.197 9.066-2.199 3.932-6.132 6.199-3.867 2.2-8.932 2.2m0-8.133q2.466 0 4.332-1.2 1.867-1.2 2.867-3.266 1.066-2.133 1.066-4.866t-1.066-4.8q-1.067-2.132-3-3.332-1.866-1.2-4.333-1.2-2.4 0-4.332 1.2-1.867 1.2-2.933 3.333-1.067 2.066-1.067 4.8 0 2.732 1.067 4.865a8.2 8.2 0 0 0 2.999 3.266q1.933 1.2 4.4 1.2m21.961 7.333v-33.33h8.8v6.133c1.37-2.089 3.11-3.644 5.2-4.666 2.13-1.067 4.33-1.6 6.59-1.6v8.532q-3.06 0-5.79.734c-1.78.489-3.23 1.288-4.34 2.4-1.11 1.11-1.66 2.532-1.66 4.266v17.53zm35.65 0 18.4-46.661h9.73l18.4 46.66h-9.66l-4-10.265h-19.2l-4 10.266zm16.67-18.331h13.2l-6.6-16.932zm34.34 18.33v-46.66h9.14v46.66zM54.585 144.018l-7.72-22.708h3.678l5.904 17.621 5.994-17.621h3.634l5.904 17.485 5.903-17.485h3.68l-7.721 22.708h-3.634l-5.949-17.758-5.995 17.758zm29.736 0V121.31h3.633v22.708zm1.862-27.976q-.909 0-1.59-.681-.68-.681-.68-1.59 0-.953.68-1.589.681-.681 1.59-.681.953 0 1.59.681.68.636.68 1.589 0 .909-.68 1.59-.637.681-1.59.681m7.357 27.976v-31.791h3.634v31.791zm8.871 0v-31.791h3.633v31.791zm18.982 0V121.31h3.633v4.042q1.362-2.134 3.497-3.133 2.18-1 4.541-1v3.407a11.2 11.2 0 0 0-3.86.681 6.45 6.45 0 0 0-2.997 2.134q-1.181 1.499-1.181 4.088v12.489zm24.182.545q-3.315 0-5.859-1.499-2.542-1.544-3.996-4.224-1.408-2.68-1.408-6.176t1.408-6.176q1.453-2.68 3.951-4.179 2.543-1.544 5.813-1.544 3.179 0 5.495 1.59 2.316 1.543 3.588 4.36 1.272 2.815 1.272 6.63h-17.848q.227 3.725 2.361 5.813 2.135 2.09 5.405 2.089 2.406 0 4.041-1.135a7.53 7.53 0 0 0 2.589-2.997l3.134 1.589a10.1 10.1 0 0 1-2.316 3.088q-1.408 1.317-3.361 2.044-1.908.727-4.269.727m-7.312-14.261h13.67q-.136-1.953-1.045-3.36a6 6 0 0 0-2.27-2.18q-1.409-.772-3.179-.772a7.5 7.5 0 0 0-3.316.772 6.56 6.56 0 0 0-2.634 2.18q-1.044 1.407-1.226 3.36m37.671 22.799v-12.898a9.14 9.14 0 0 1-3.225 3.224q-1.952 1.136-4.45 1.136-3.043 0-5.359-1.499t-3.633-4.178q-1.272-2.726-1.272-6.222 0-3.543 1.272-6.222 1.317-2.68 3.633-4.178 2.316-1.499 5.359-1.499 2.498 0 4.45 1.181a9.1 9.1 0 0 1 3.225 3.225l.182-3.861h3.451v31.79zm-6.858-11.854q1.998 0 3.543-1.09 1.543-1.09 2.407-3.042.908-1.953.908-4.451t-.908-4.451q-.864-1.953-2.407-3.042-1.545-1.09-3.588-1.09-2.135 0-3.815 1.09-1.635 1.089-2.589 3.042-.953 1.953-.953 4.451t.953 4.451q.954 1.952 2.634 3.042 1.681 1.09 3.815 1.09m23.603 3.316q-2.634 0-4.632-1.045-1.953-1.09-3.089-3.406-1.09-2.361-1.09-6.086V121.31h3.634v11.626q0 3.362.772 5.132.772 1.772 2.134 2.453 1.408.636 3.134.635 2.952 0 4.587-2.134 1.68-2.135 1.68-5.949V121.31h3.633v22.708h-3.406l-.182-3.406q-1.136 1.907-2.952 2.951-1.817 1-4.223 1m16.222-.545V121.31h3.633v22.708zm1.862-27.976q-.908 0-1.589-.681-.682-.681-.682-1.59 0-.953.682-1.589.681-.681 1.589-.681.954 0 1.59.681.681.636.681 1.589 0 .909-.681 1.59-.636.681-1.59.681m7.358 27.976V121.31h3.633v4.042q1.362-2.134 3.497-3.133 2.18-1 4.541-1v3.407a11.2 11.2 0 0 0-3.86.681 6.45 6.45 0 0 0-2.997 2.134q-1.18 1.499-1.181 4.088v12.489zm24.182.545q-3.315 0-5.858-1.499-2.544-1.544-3.997-4.224-1.407-2.68-1.408-6.176t1.408-6.176q1.453-2.68 3.951-4.179 2.543-1.544 5.813-1.544 3.18 0 5.495 1.59 2.316 1.543 3.588 4.36 1.272 2.815 1.272 6.63h-17.848q.227 3.725 2.361 5.813 2.135 2.09 5.405 2.089 2.406 0 4.042-1.135a7.53 7.53 0 0 0 2.588-2.997l3.134 1.589a10.1 10.1 0 0 1-2.316 3.088q-1.408 1.317-3.361 2.044-1.908.727-4.269.727m-7.312-14.261h13.67q-.136-1.953-1.044-3.36a6.03 6.03 0 0 0-2.271-2.18q-1.408-.772-3.179-.772a7.5 7.5 0 0 0-3.315.772 6.56 6.56 0 0 0-2.635 2.18q-1.044 1.407-1.226 3.36m38.337 14.261q-3.998 0-6.267-1.817-2.226-1.862-2.226-5.132 0-3.452 2.271-5.268 2.316-1.862 6.449-1.862h6.312q-.227-3.225-1.589-4.814-1.363-1.635-4.087-1.635-1.862 0-3.225.772-1.317.727-2.18 2.362l-3.27-1.272a10.5 10.5 0 0 1 2.09-2.725 8 8 0 0 1 2.861-1.771q1.635-.636 3.724-.636 3.179 0 5.222 1.272 2.09 1.226 3.134 3.679 1.044 2.406.999 5.994l-.045 12.308h-3.361l-.182-3.043a7.1 7.1 0 0 1-2.679 2.679q-1.68.909-3.951.909m.181-3.179q1.953 0 3.407-.818a5.7 5.7 0 0 0 2.225-2.407q.817-1.544.817-3.724v-.908h-5.586q-3.179 0-4.541 1.044-1.317 1.045-1.317 2.998 0 1.771 1.317 2.815 1.317 1 3.678 1m22.633 3.179q-2.498 0-4.36-.727-1.862-.773-3.133-1.998-1.226-1.227-1.772-2.68l3.179-1.317q.772 1.544 2.317 2.498a6.35 6.35 0 0 0 3.406.954q2.135 0 3.587-.818 1.454-.862 1.454-2.407 0-1.407-1.09-2.27-1.045-.864-3.134-1.408l-2.18-.591q-3.088-.817-4.814-2.452-1.725-1.68-1.725-3.769 0-3.225 2.089-4.996 2.135-1.817 6.312-1.817 1.998 0 3.633.591 1.635.59 2.816 1.68a6.2 6.2 0 0 1 1.726 2.498l-3.179 1.408q-.591-1.544-1.953-2.226t-3.315-.681q-2.09 0-3.27.908-1.18.864-1.181 2.453 0 .908.954 1.726 1 .771 2.906 1.271l2.271.591q2.226.544 3.724 1.635 1.498 1.044 2.271 2.407t.772 2.906q0 2.043-1.09 3.542-1.09 1.5-2.952 2.317-1.862.772-4.269.772m22.211-.545V121.31h3.406l.181 3.179q1.045-1.816 2.68-2.77t3.815-.954q2.724 0 4.632 1.272 1.952 1.271 2.816 3.86.954-2.498 2.77-3.815 1.862-1.317 4.405-1.317 3.815 0 5.995 2.544 2.226 2.543 2.18 7.72v12.989H347.6V132.39q0-3.36-.727-5.131-.681-1.772-1.862-2.407-1.18-.682-2.725-.682-2.68 0-4.178 2.135-1.499 2.09-1.499 5.949v11.763h-3.633V132.39q0-3.36-.726-5.131-.682-1.772-1.908-2.407-1.18-.682-2.725-.682-2.634 0-4.132 2.135-1.5 2.09-1.499 5.949v11.763zm45.74.545q-2.634 0-4.632-1.045-1.953-1.09-3.088-3.406-1.09-2.361-1.09-6.086V121.31h3.633v11.626q0 3.362.772 5.132.772 1.772 2.134 2.453 1.408.636 3.134.635 2.952 0 4.587-2.134 1.68-2.135 1.68-5.949V121.31h3.633v22.708h-3.406l-.181-3.406q-1.135 1.907-2.952 2.951-1.817 1-4.224 1m26.123 0q-3.361 0-5.949-1.499a10.84 10.84 0 0 1-4.042-4.224q-1.454-2.68-1.454-6.176t1.408-6.176q1.453-2.68 4.042-4.179 2.589-1.544 5.904-1.544 3.27 0 5.858 1.499 2.589 1.498 3.952 4.224l-3.316 1.498a6.57 6.57 0 0 0-2.634-2.815q-1.725-1.045-3.951-1.045-2.224 0-3.951 1.09-1.68 1.09-2.679 3.043-.954 1.907-.954 4.405t.954 4.451q.999 1.906 2.725 2.997 1.77 1.09 3.996 1.09t3.951-1.135q1.771-1.136 2.68-3.179l3.315 1.498q-1.363 2.907-3.951 4.542t-5.904 1.635m13.334-.545v-31.791h3.633v12.399q1.135-1.862 2.952-2.862 1.817-.999 4.223-.999 2.634 0 4.633 1.09 1.998 1.045 3.088 3.361 1.135 2.316 1.09 6.086v12.716h-3.633V132.39q0-3.36-.818-5.131-.772-1.772-2.134-2.407-1.363-.682-3.089-.682-2.997 0-4.677 2.135-1.635 2.09-1.635 5.949v11.763zm34.554 9.083V121.31h3.406l.182 3.861q1.27-2.044 3.224-3.225 1.998-1.18 4.496-1.181 3.043 0 5.359 1.499t3.588 4.178q1.317 2.679 1.317 6.222 0 3.496-1.317 6.222-1.272 2.68-3.588 4.178-2.316 1.499-5.359 1.499-2.498 0-4.45-1.136-1.953-1.18-3.225-3.224V153.1zm10.491-11.854q2.134 0 3.769-1.09 1.68-1.09 2.634-3.042.999-1.953.999-4.451t-.953-4.451q-.909-1.953-2.589-3.042-1.68-1.09-3.815-1.09-1.998 0-3.588 1.09-1.543 1.089-2.452 3.042-.863 1.953-.863 4.451t.863 4.451q.909 1.952 2.452 3.042 1.545 1.09 3.543 1.09m25.042 3.316q-3.315 0-5.904-1.499-2.544-1.544-3.997-4.224t-1.453-6.176q0-3.497 1.408-6.176 1.454-2.68 3.996-4.179 2.589-1.544 5.859-1.544 3.36 0 5.904 1.544 2.589 1.5 3.996 4.179 1.454 2.68 1.454 6.176t-1.454 6.176q-1.407 2.68-3.951 4.224-2.543 1.499-5.858 1.499m0-3.361q2.271 0 3.951-1.09t2.634-2.997q.999-1.908.999-4.451t-.999-4.451q-.954-1.906-2.68-2.997-1.725-1.09-3.996-1.09-2.226 0-3.951 1.09-1.68 1.09-2.68 2.997-.953 1.907-.953 4.451 0 2.498.953 4.451 1 1.906 2.725 2.997 1.771 1.09 3.997 1.09m19.618 2.816-7.721-22.708h3.679l5.904 17.621 5.994-17.621h3.633l5.904 17.485 5.904-17.485h3.679l-7.721 22.708h-3.633l-5.949-17.758-5.995 17.758zm38.922.545q-3.315 0-5.858-1.499-2.544-1.544-3.997-4.224-1.408-2.68-1.408-6.176t1.408-6.176q1.453-2.68 3.951-4.179 2.544-1.544 5.813-1.544 3.18 0 5.495 1.59 2.317 1.543 3.588 4.36 1.272 2.815 1.272 6.63h-17.848q.226 3.725 2.361 5.813 2.135 2.09 5.405 2.089 2.406 0 4.042-1.135a7.53 7.53 0 0 0 2.588-2.997l3.134 1.589a10.1 10.1 0 0 1-2.316 3.088q-1.408 1.317-3.361 2.044-1.908.727-4.269.727m-7.312-14.261h13.67q-.136-1.953-1.044-3.36a6.03 6.03 0 0 0-2.271-2.18q-1.408-.772-3.179-.772a7.5 7.5 0 0 0-3.315.772 6.55 6.55 0 0 0-2.634 2.18q-1.046 1.407-1.227 3.36m21.049 13.716V121.31h3.634v4.042q1.362-2.134 3.496-3.133 2.181-1 4.542-1v3.407a11.2 11.2 0 0 0-3.86.681 6.45 6.45 0 0 0-2.998 2.134q-1.18 1.499-1.18 4.088v12.489zm31.524.545q-3.996 0-6.267-1.817-2.225-1.862-2.225-5.132 0-3.452 2.27-5.268 2.317-1.862 6.449-1.862h6.313q-.226-3.225-1.59-4.814-1.362-1.635-4.087-1.635-1.862 0-3.224.772-1.317.727-2.18 2.362l-3.27-1.272a10.5 10.5 0 0 1 2.089-2.725 8 8 0 0 1 2.861-1.771q1.635-.636 3.724-.636 3.18 0 5.223 1.272 2.09 1.226 3.133 3.679 1.045 2.406 1 5.994l-.046 12.308h-3.361l-.181-3.043a7.1 7.1 0 0 1-2.68 2.679q-1.68.909-3.951.909m.182-3.179q1.953 0 3.406-.818a5.7 5.7 0 0 0 2.225-2.407q.818-1.544.818-3.724v-.908h-5.586q-3.18 0-4.542 1.044-1.317 1.045-1.317 2.998 0 1.771 1.317 2.815 1.318 1 3.679 1m22.632 3.179q-2.498 0-4.359-.727-1.862-.773-3.134-1.998-1.226-1.227-1.771-2.68l3.179-1.317q.772 1.544 2.316 2.498a6.35 6.35 0 0 0 3.406.954q2.135 0 3.588-.818 1.453-.862 1.453-2.407 0-1.407-1.09-2.27-1.044-.864-3.133-1.408l-2.18-.591q-3.089-.817-4.814-2.452-1.726-1.68-1.726-3.769 0-3.225 2.089-4.996 2.134-1.817 6.313-1.817 1.998 0 3.633.591 1.635.59 2.816 1.68a6.2 6.2 0 0 1 1.725 2.498l-3.179 1.408q-.59-1.544-1.953-2.226t-3.315-.681q-2.089 0-3.27.908-1.18.864-1.18 2.453 0 .908.953 1.726.999.771 2.907 1.271l2.271.591q2.224.544 3.724 1.635 1.499 1.044 2.27 2.407.772 1.362.772 2.906 0 2.043-1.09 3.542-1.089 1.5-2.952 2.317-1.861.772-4.269.772m30.749 0q-3.315 0-5.132-1.726t-1.816-4.86v-13.442h-3.951v-3.225h3.951v-7.084h3.633v7.084h6.812v3.225h-6.812v13.079q0 1.726.908 2.68.954.908 2.634.908.546 0 1.045-.136.544-.182 1.408-.818l1.407 2.952q-1.18.772-2.134 1.045a6.1 6.1 0 0 1-1.953.318m7.517-.545v-31.791h3.633v12.399q1.135-1.862 2.952-2.862 1.817-.999 4.224-.999 2.634 0 4.632 1.09 1.998 1.045 3.088 3.361 1.135 2.316 1.09 6.086v12.716h-3.633V132.39q0-3.36-.817-5.131-.773-1.772-2.135-2.407-1.362-.682-3.088-.682-2.997 0-4.678 2.135-1.635 2.09-1.635 5.949v11.763zm34.161.545q-3.315 0-5.858-1.499-2.544-1.544-3.997-4.224-1.408-2.68-1.408-6.176t1.408-6.176q1.453-2.68 3.951-4.179 2.544-1.544 5.813-1.544 3.18 0 5.495 1.59 2.317 1.543 3.588 4.36 1.272 2.815 1.272 6.63h-17.848q.226 3.725 2.361 5.813 2.135 2.09 5.405 2.089 2.406 0 4.042-1.135a7.53 7.53 0 0 0 2.588-2.997l3.134 1.589a10.1 10.1 0 0 1-2.316 3.088q-1.408 1.317-3.361 2.044-1.906.727-4.269.727m-7.312-14.261h13.67q-.136-1.953-1.044-3.36a6 6 0 0 0-2.271-2.18q-1.408-.772-3.179-.772a7.5 7.5 0 0 0-3.315.772 6.55 6.55 0 0 0-2.634 2.18q-1.045 1.407-1.227 3.36m45.603 14.261q-4.541 0-8.038-2.089-3.497-2.135-5.495-5.814-1.999-3.723-1.999-8.538 0-4.814 1.953-8.492 1.998-3.724 5.45-5.813 3.497-2.135 7.993-2.135 2.86 0 5.495 1.045a15.1 15.1 0 0 1 4.723 2.861q2.09 1.817 3.225 4.224l-3.316 1.68a10.3 10.3 0 0 0-2.497-3.315 11.9 11.9 0 0 0-3.543-2.18 10.5 10.5 0 0 0-4.087-.818q-3.315 0-5.949 1.681-2.634 1.635-4.133 4.541-1.453 2.907-1.453 6.721 0 3.816 1.498 6.767 1.499 2.952 4.133 4.633 2.68 1.635 6.04 1.634 2.18 0 4.133-.862a12.2 12.2 0 0 0 3.497-2.453 11.6 11.6 0 0 0 2.498-3.542l3.36 1.68a14.6 14.6 0 0 1-3.269 4.451 14.9 14.9 0 0 1-4.724 3.043 14.2 14.2 0 0 1-5.495 1.09m17.407-.545V121.31h3.633v22.708zm1.862-27.976q-.908 0-1.589-.681t-.682-1.59q0-.953.682-1.589.681-.681 1.589-.681.954 0 1.59.681.681.636.681 1.589 0 .909-.681 1.59-.636.681-1.59.681m15.896 28.521q-3.315 0-5.132-1.726t-1.817-4.86v-13.442h-3.951v-3.225h3.951v-7.084h3.633v7.084h6.813v3.225h-6.813v13.079q0 1.726.909 2.68.954.908 2.634.908.545 0 1.044-.136.546-.182 1.408-.818l1.408 2.952q-1.181.772-2.134 1.045a6.1 6.1 0 0 1-1.953.318m9.56 9.083q-.863 0-1.998-.364a19 19 0 0 1-2.407-.863l1.363-3.042a16 16 0 0 0 1.816.681q.817.227 1.272.227 1.225 0 1.998-.681.817-.636 1.362-1.862l1.545-3.815-9.765-22.617h3.861l7.72 18.393 7.63-18.393h3.905l-10.899 25.887q-.863 1.998-1.817 3.451-.908 1.454-2.225 2.225-1.317.773-3.361.773m40.901-9.083q-3.315 0-5.904-1.499-2.543-1.544-3.996-4.224t-1.453-6.176q0-3.497 1.408-6.176 1.453-2.68 3.996-4.179 2.589-1.544 5.859-1.544 3.36 0 5.903 1.544 2.589 1.5 3.997 4.179 1.453 2.68 1.453 6.176t-1.453 6.176q-1.409 2.68-3.951 4.224-2.543 1.499-5.859 1.499m0-3.361q2.271 0 3.951-1.09t2.634-2.997q1-1.908 1-4.451t-1-4.451q-.953-1.906-2.679-2.997t-3.996-1.09q-2.226 0-3.952 1.09-1.68 1.09-2.679 2.997-.954 1.907-.954 4.451 0 2.498.954 4.451.999 1.906 2.725 2.997 1.772 1.09 3.996 1.09m17.47 2.816v-19.574h-4.178v-3.134h4.178v-2.588q0-3.543 1.635-5.314 1.68-1.816 5.086-1.816.909 0 2.044.317 1.135.318 2.407.909l-1.363 2.861a27 27 0 0 0-1.771-.636q-.726-.227-1.226-.227-1.59 0-2.407 1.045-.772.999-.772 3.133v2.316h6.585v3.134h-6.585v19.574zm25.384 0V97.349h9.534l22.801 31.334V97.349h9.067v46.668h-9.067l-23.201-31.935v31.935zm64.256.8q-4.933 0-8.733-2.2-3.801-2.267-6-6.201-2.134-3.933-2.134-9.067 0-5.133 2.2-9.067 2.267-3.933 6.134-6.133 3.933-2.267 9-2.267 4.4 0 8.067 2.334 3.734 2.266 5.933 6.733 2.267 4.4 2.267 10.734h-24.401q.334 3.333 2.867 5.333 2.533 1.934 5.734 1.934 2.733 0 4.466-1.134a8.06 8.06 0 0 0 2.667-3.066l7.867 3.066a16.5 16.5 0 0 1-3.667 4.867q-2.2 2-5.266 3.067-3.067 1.067-7.001 1.067m-7.2-21.668h14.401q-.2-2.067-1.334-3.333a6.9 6.9 0 0 0-2.667-1.867q-1.533-.6-3-.6-1.4 0-3.066.6-1.6.534-2.867 1.8-1.2 1.267-1.467 3.4m34.708 20.868-11.334-33.335h8.933l6.934 21.468 7-21.468h8.667l6.867 21.134 7-21.134h8.934l-11.334 33.335h-8.667l-7.133-22.534-7.2 22.534zm74.336 0V124.35l-16.536-27h10.401l10.665 17.867 10.74-17.867h10.4l-16.54 26.934v19.734zm38.79.8q-5.07 0-9.06-2.2a16.54 16.54 0 0 1-6.2-6.201c-1.47-2.622-2.2-5.644-2.2-9.067s.73-6.444 2.2-9.067c1.46-2.622 3.51-4.666 6.13-6.133q3.93-2.267 9-2.267c3.42 0 6.44.756 9.07 2.267 2.62 1.467 4.66 3.511 6.13 6.133 1.47 2.623 2.2 5.645 2.2 9.067s-.73 6.445-2.2 9.067c-1.47 2.623-3.51 4.689-6.13 6.201q-3.87 2.2-8.94 2.2m0-8.134c1.65 0 3.09-.4 4.34-1.2 1.24-.8 2.2-1.889 2.86-3.267.71-1.422 1.07-3.044 1.07-4.867s-.36-3.422-1.07-4.8q-1.065-2.133-3-3.333c-1.24-.8-2.69-1.2-4.33-1.2-1.6 0-3.05.4-4.33 1.2q-1.875 1.2-2.94 3.333c-.71 1.378-1.06 2.978-1.06 4.8 0 1.823.35 3.445 1.06 4.867a8.17 8.17 0 0 0 3 3.267c1.29.8 2.76 1.2 4.4 1.2m21.96 7.334v-33.335h8.8v6.134c1.38-2.089 3.12-3.645 5.2-4.667 2.14-1.067 4.34-1.6 6.61-1.6v8.533c-2.05 0-3.98.245-5.81.734-1.77.489-3.22 1.289-4.33 2.4s-1.67 2.533-1.67 4.267v17.534zm24.16 0V97.349h8.8v25.734l11.4-12.401h10.46l-12.6 14.067 13.6 19.268h-10.33l-8.87-12.934-3.66 4v8.934zm35.68.635c-.69 0-1.3-.242-1.81-.726-.49-.515-.73-1.105-.73-1.771 0-.697.24-1.287.73-1.772.51-.514 1.12-.772 1.81-.772.7 0 1.29.258 1.78.772q.72.727.72 1.772 0 .999-.72 1.771c-.49.484-1.08.726-1.78.726"/></g><rect width="1172.18" height="507.18" x="1.41" y="1.41" stroke="#88f154" stroke-width="2.82" rx="6.59"/><defs><clipPath id="a"><rect width="1175" height="510" fill="#fff" rx="8"/></clipPath></defs></svg>