<svg xmlns="http://www.w3.org/2000/svg" width="424" height="250" fill="none" viewBox="0 0 424 250"><rect width="420.247" height="246.385" x="1.41" y="1.41" stroke="#48d36e" stroke-width="2.82" rx="6.929"/><path fill="#48d36e" d="M55.109 62.426q-2.664 0-4.73-1.145a8.6 8.6 0 0 1-3.21-3.186q-1.17-2.041-1.17-4.68 0-2.64 1.17-4.655a8.34 8.34 0 0 1 3.21-3.186q2.067-1.17 4.73-1.17 1.593 0 2.937.473a7.6 7.6 0 0 1 2.365 1.319 7.8 7.8 0 0 1 1.742 1.892l-2.788 1.742a4.5 4.5 0 0 0-1.12-1.195 5.5 5.5 0 0 0-1.493-.821 4.8 4.8 0 0 0-1.643-.299q-1.643 0-2.913.772a5.3 5.3 0 0 0-1.99 2.066q-.723 1.32-.723 3.062 0 1.717.697 3.062a5.4 5.4 0 0 0 2.017 2.115q1.293.747 2.987.747 1.269 0 2.265-.473a4.13 4.13 0 0 0 1.593-1.369q.597-.87.672-2.041h-4.033v-2.664H63v2.116q-.05 2.39-1.07 4.083a6.8 6.8 0 0 1-2.788 2.564q-1.768.87-4.033.87m14.68 0q-1.842 0-3.261-.822a6.1 6.1 0 0 1-2.24-2.315q-.797-1.468-.797-3.385t.821-3.385a6.07 6.07 0 0 1 2.29-2.29q1.47-.847 3.36-.847 1.644 0 3.013.871 1.395.847 2.215 2.514.847 1.644.847 4.008h-9.111q.125 1.245 1.07 1.992.947.72 2.141.721 1.02 0 1.668-.423.647-.447.996-1.145l2.937 1.145a6.2 6.2 0 0 1-1.37 1.818 5.6 5.6 0 0 1-1.966 1.145q-1.144.398-2.613.398m-2.689-8.09h5.377q-.075-.773-.498-1.245a2.6 2.6 0 0 0-.995-.697 3.1 3.1 0 0 0-1.12-.224q-.523 0-1.146.224a2.7 2.7 0 0 0-1.07.672q-.448.474-.548 1.27m9.964 7.791V49.681h3.087l.15 1.693q.596-.971 1.517-1.47.947-.522 2.141-.522 1.47 0 2.514.598 1.046.597 1.594 1.867.547 1.244.522 3.236v7.044h-3.285v-6.372q0-1.27-.3-1.967-.273-.696-.796-.996-.522-.323-1.22-.323-1.269-.025-1.966.771-.672.798-.672 2.365v6.522zm18.892.299q-1.842 0-3.261-.822a6.1 6.1 0 0 1-2.24-2.315q-.797-1.468-.797-3.385t.821-3.385a6.07 6.07 0 0 1 2.29-2.29q1.47-.847 3.36-.847 1.644 0 3.013.871 1.394.847 2.215 2.514.846 1.644.847 4.008h-9.111q.125 1.245 1.07 1.992.945.72 2.141.721 1.02 0 1.668-.423a3 3 0 0 0 .996-1.145l2.937 1.145a6.2 6.2 0 0 1-1.369 1.818 5.6 5.6 0 0 1-1.967 1.145q-1.144.398-2.614.398m-2.689-8.09h5.377q-.075-.773-.498-1.245a2.6 2.6 0 0 0-.996-.697 3.1 3.1 0 0 0-1.12-.224q-.522 0-1.145.224a2.7 2.7 0 0 0-1.07.672q-.448.474-.548 1.27m9.964 7.791V49.681h3.286v2.29q.771-1.17 1.941-1.742a5.45 5.45 0 0 1 2.465-.598v3.186q-1.146 0-2.166.274-.996.274-1.618.896t-.622 1.593v6.547zm12.582.299q-2.24 0-3.485-.996-1.22-.996-1.219-2.813 0-1.99 1.319-2.987 1.344-1.02 3.759-1.02h2.937q-.174-1.146-.722-1.743-.548-.622-1.568-.622-.796 0-1.444.348-.647.35-1.095 1.07l-2.888-.995a5.8 5.8 0 0 1 1.021-1.543q.672-.773 1.742-1.245 1.096-.498 2.664-.498 1.892 0 3.136.722a4.36 4.36 0 0 1 1.867 2.041q.622 1.294.598 3.087l-.075 6.895h-3.062l-.05-1.444a3.16 3.16 0 0 1-1.344 1.295q-.846.447-2.091.448m.548-2.738a2.84 2.84 0 0 0 1.444-.374 2.9 2.9 0 0 0 1.02-.97q.374-.599.374-1.245v-.05h-1.867q-1.618 0-2.241.398-.622.374-.622 1.07 0 .548.498.872.498.3 1.394.299m12.938 2.738q-2.066 0-3.136-1.02-1.046-1.022-1.046-2.913v-6.024H123.1V49.68h2.016v-3.883h3.286v3.883h3.112v2.788h-3.112v5.302q0 .797.349 1.22.348.398 1.02.398.25 0 .548-.1.298-.124.622-.348l1.145 2.464q-.597.449-1.344.722-.722.3-1.444.299m9.412 0q-1.842 0-3.26-.822a6.13 6.13 0 0 1-2.241-2.315q-.796-1.468-.796-3.385t.821-3.385a6.07 6.07 0 0 1 2.29-2.29q1.468-.847 3.361-.847a5.5 5.5 0 0 1 3.012.871q1.394.847 2.215 2.514.846 1.644.846 4.008h-9.11q.125 1.245 1.07 1.992a3.44 3.44 0 0 0 2.141.721q1.02 0 1.668-.423a3 3 0 0 0 .995-1.145l2.938 1.145a6.2 6.2 0 0 1-1.369 1.818 5.6 5.6 0 0 1-1.967 1.145q-1.144.398-2.614.398m-2.688-8.09h5.377q-.075-.773-.498-1.245a2.6 2.6 0 0 0-.996-.697 3.1 3.1 0 0 0-1.12-.224q-.522 0-1.145.224a2.7 2.7 0 0 0-1.07.672q-.449.474-.548 1.27m20.141 8.09q-2.066 0-3.137-1.02-1.045-1.022-1.045-2.913v-6.024h-2.016V49.68h2.016v-3.883h3.286v3.883h3.111v2.788h-3.111v5.302q0 .797.348 1.22.35.398 1.021.398.249 0 .548-.1.298-.124.622-.348l1.145 2.464q-.597.449-1.344.722-.723.3-1.444.299m9.412 0q-1.842 0-3.261-.822a6.13 6.13 0 0 1-2.24-2.315q-.797-1.468-.797-3.385t.822-3.385a6.06 6.06 0 0 1 2.29-2.29q1.469-.847 3.36-.847 1.644 0 3.012.871 1.394.847 2.216 2.514.846 1.644.846 4.008h-9.11q.124 1.245 1.07 1.992a3.44 3.44 0 0 0 2.141.721q1.02 0 1.668-.423a3 3 0 0 0 .995-1.145l2.938 1.145a6.2 6.2 0 0 1-1.37 1.818 5.6 5.6 0 0 1-1.966 1.145q-1.145.398-2.614.398m-2.688-8.09h5.377q-.075-.773-.498-1.245a2.6 2.6 0 0 0-.996-.697 3.1 3.1 0 0 0-1.12-.224q-.523 0-1.145.224a2.7 2.7 0 0 0-1.071.672q-.447.474-.547 1.27m8.356 7.791 4.63-6.447-4.306-6h3.883l2.24 3.337 2.216-3.336h3.883l-4.282 6.024 4.581 6.422h-3.908l-2.49-3.759-2.514 3.76zm18.761.299q-2.065 0-3.136-1.02-1.046-1.022-1.046-2.913v-6.024h-2.016V49.68h2.016v-3.883h3.286v3.883h3.112v2.788h-3.112v5.302q0 .797.349 1.22.348.398 1.02.398.25 0 .548-.1.299-.124.622-.348l1.145 2.464q-.597.449-1.344.722-.721.3-1.444.299"/><path stroke="#48d36e" stroke-linecap="round" stroke-linejoin="round" stroke-width="4.721" d="m60.679 156.331-7.093-55.071a1.77 1.77 0 0 1 1.53-1.984l34.132-4.396c.465-.06.936.068 1.308.355l10.411 8.035c.372.287.615.71.675 1.176l5.905 45.848a1.77 1.77 0 0 1-1.531 1.984l-43.353 5.584a1.77 1.77 0 0 1-1.984-1.531m7.417-34.905 23.434-3.018m-20.41 26.449 23.433-3.018m-24.947-8.694 11.717-1.51"/><path stroke="#48d36e" stroke-linecap="round" stroke-linejoin="round" stroke-width="4.721" d="m88.51 94.973 1.282 9.96a1.77 1.77 0 0 0 1.984 1.531l9.96-1.283"/><path fill="#48d36e" d="M52.014 204.078v-18.647a12 12 0 0 1-2.543 1.342 7 7 0 0 1-2.684.388v-4.379q.882.07 1.907-.424 1.025-.53 2.013-1.342a26 26 0 0 0 1.837-1.66h4.096v24.722zm8.154 4.026 2.154-8.335h4.839l-3.461 8.335zm14.051-4.026v-18.647a12 12 0 0 1-2.543 1.342 7 7 0 0 1-2.684.388v-4.379q.884.07 1.907-.424 1.025-.53 2.013-1.342a26 26 0 0 0 1.837-1.66h4.097v24.722zm19.562 0v-4.874H82.268v-3.849l10.948-15.999h5.12v15.716h4.309v4.132h-4.308v4.874zm-6.534-9.006h6.534v-9.571zm22.658 12.269a9 9 0 0 1-1.548-.122 5.2 5.2 0 0 1-1.133-.322 4.6 4.6 0 0 1-.751-.398l.796-1.624q.214.122.567.275.353.17.843.276.49.123 1.134.123a2.25 2.25 0 0 0 1.072-.245q.475-.23.735-.736.276-.49.276-1.256v-.735a2.85 2.85 0 0 1-.996.949 2.84 2.84 0 0 1-1.394.338q-1.057 0-1.838-.46a3.16 3.16 0 0 1-1.195-1.287q-.429-.827-.429-1.961 0-1.195.429-2.068.429-.888 1.195-1.364.781-.49 1.838-.49.782 0 1.394.368.613.353.996 1.011v-1.195h2.022v6.833q0 1.287-.49 2.206a3.26 3.26 0 0 1-1.394 1.409q-.888.475-2.129.475m.183-5.178q.522 0 .904-.26.399-.276.613-.736.215-.475.215-1.072 0-.613-.23-1.073a1.7 1.7 0 0 0-.613-.72 1.57 1.57 0 0 0-.904-.26q-.536 0-.95.26-.414.261-.643.72a2.5 2.5 0 0 0-.245 1.073q.015.597.245 1.072.23.46.643.736.43.26.965.26m12.481 2.099q-1.562 0-2.772-.705a5.15 5.15 0 0 1-1.9-1.961q-.69-1.255-.69-2.88t.69-2.865a5.05 5.05 0 0 1 1.884-1.961q1.21-.72 2.773-.72 1.104 0 2.053.398a4.9 4.9 0 0 1 1.655 1.088q.72.69 1.103 1.593l-1.946.721a3.2 3.2 0 0 0-.689-.981 3 3 0 0 0-.981-.659 2.9 2.9 0 0 0-1.195-.245 3 3 0 0 0-1.67.475q-.72.459-1.133 1.272-.399.811-.399 1.884t.414 1.9q.414.811 1.149 1.287.735.459 1.685.459.659 0 1.195-.245.551-.26.965-.705.429-.444.69-1.026l1.945.705a5 5 0 0 1-1.103 1.654 5 5 0 0 1-1.654 1.119 5.3 5.3 0 0 1-2.069.398m10.388 0q-1.625 0-2.88-.705a5.2 5.2 0 0 1-1.946-1.961q-.705-1.255-.705-2.865 0-1.64.705-2.88a5.1 5.1 0 0 1 1.93-1.961q1.241-.705 2.85-.705 1.623 0 2.849.721a5.05 5.05 0 0 1 1.946 1.96q.705 1.242.705 2.865 0 1.61-.705 2.865a5.1 5.1 0 0 1-1.93 1.961q-1.226.705-2.819.705m0-1.915q.98 0 1.716-.46.75-.474 1.164-1.287.429-.811.429-1.869 0-1.072-.429-1.884a3.23 3.23 0 0 0-1.18-1.272q-.75-.475-1.746-.475a3.22 3.22 0 0 0-2.911 1.747q-.429.811-.429 1.884 0 1.058.429 1.869.429.813 1.195 1.287.766.46 1.762.46m7.101 2.405-1.486-.23q0-.244.184-.567.184-.336.505-.674.337-.337.751-.628l.781-.536a3.6 3.6 0 0 0 .537-.444q.26-.261.26-.536a.61.61 0 0 0-.214-.491q-.215-.199-.644-.199a.78.78 0 0 0-.551.215q-.214.198-.292.475l-1.562-.261q.092-.49.398-.888a2.5 2.5 0 0 1 .827-.675q.522-.26 1.18-.26 1.119 0 1.762.582.643.567.643 1.486 0 .659-.367 1.119a4 4 0 0 1-.935.858l-.781.536a3.4 3.4 0 0 0-.429.367 5 5 0 0 0-.383.399q-.153.214-.184.352m-1.486.858v-1.088l1.118-.245h3.524v1.333zm8.573-1.348q-1.134 0-2.007-.506a3.8 3.8 0 0 1-1.379-1.424q-.49-.905-.49-2.084t.506-2.084a3.74 3.74 0 0 1 1.409-1.409q.904-.52 2.068-.521a3.4 3.4 0 0 1 1.854.536q.858.521 1.364 1.548.52 1.011.52 2.466h-5.607q.077.766.659 1.226.582.444 1.318.444.627 0 1.026-.26.399-.276.613-.705l1.808.705a3.8 3.8 0 0 1-.843 1.118 3.5 3.5 0 0 1-1.21.705q-.705.245-1.609.245m-1.654-4.979h3.309q-.046-.475-.307-.766a1.6 1.6 0 0 0-.613-.429 1.9 1.9 0 0 0-.689-.138 2.1 2.1 0 0 0-.705.138 1.66 1.66 0 0 0-.658.414q-.276.29-.337.781m32.259-6.438v-4.549h22.466v4.549zm0 11.233v-4.549h22.466v4.549z"/><path stroke="#48d36e" stroke-linecap="round" stroke-linejoin="round" stroke-width="9.674" d="m262.307 144.52 14.339 14.34m-52.076-30.566c0 11.88 9.63 21.51 21.51 21.51 5.95 0 11.336-2.416 15.23-6.321a21.45 21.45 0 0 0 6.28-15.189c0-11.879-9.631-21.51-21.51-21.51s-21.51 9.631-21.51 21.51"/><path fill="#48d36e" d="M226.694 204.078v-13.143a8.5 8.5 0 0 1-1.792.946 4.9 4.9 0 0 1-1.892.273v-3.086q.623.05 1.344-.299a8 8 0 0 0 1.419-.946q.722-.597 1.294-1.17h2.888v17.425zm14.295 0-4.232-12.446h3.336l2.589 8.015 2.614-8.015h3.236l2.564 7.891 2.613-7.891h3.336l-4.232 12.446h-3.236l-2.663-8.414-2.689 8.414zm22.077.299q-1.842 0-3.261-.822a6.1 6.1 0 0 1-2.24-2.315q-.797-1.468-.797-3.385t.822-3.386a6.1 6.1 0 0 1 2.29-2.29q1.468-.846 3.361-.846 1.643 0 3.012.871 1.393.847 2.215 2.514.846 1.644.846 4.008h-9.11q.124 1.245 1.07 1.991a3.43 3.43 0 0 0 2.141.722q1.02 0 1.668-.423.647-.448.995-1.145l2.938 1.145a6.2 6.2 0 0 1-1.369 1.817 5.6 5.6 0 0 1-1.967 1.145q-1.145.399-2.614.399m-2.688-8.09h5.377q-.075-.773-.498-1.245a2.6 2.6 0 0 0-.996-.697 3.1 3.1 0 0 0-1.12-.224q-.523 0-1.145.224a2.7 2.7 0 0 0-1.07.672q-.449.473-.548 1.27m17.008 8.09q-1.27 0-2.215-.523-.946-.548-1.593-1.543l-.125 1.767h-3.111v-17.425h3.285v6.671q.623-.97 1.569-1.468.946-.523 2.19-.523 1.718 0 2.963.797 1.269.797 1.966 2.265.697 1.444.697 3.46 0 1.991-.697 3.46t-1.966 2.265q-1.245.797-2.963.797m-.846-3.012q.896 0 1.568-.448.697-.448 1.095-1.245.399-.797.399-1.817t-.399-1.817a2.74 2.74 0 0 0-1.07-1.22q-.672-.448-1.568-.448-.847 0-1.519.448a3 3 0 0 0-1.045 1.245q-.374.77-.374 1.792 0 1.02.374 1.817t1.02 1.245q.673.447 1.519.448m17.452 3.012a7 7 0 0 1-2.24-.349 5.9 5.9 0 0 1-1.842-1.045 4.9 4.9 0 0 1-1.245-1.693l2.813-1.294a3.6 3.6 0 0 0 1.021 1.045q.647.423 1.493.423.822 0 1.27-.224.447-.249.448-.697 0-.447-.374-.647-.348-.224-.97-.373l-1.145-.299q-1.793-.473-2.838-1.494-1.021-1.045-1.021-2.389 0-1.917 1.22-2.963 1.245-1.045 3.51-1.045 1.17 0 2.165.348 1.022.349 1.743.971t.996 1.444l-2.714 1.245q-.174-.498-.846-.797a3.1 3.1 0 0 0-1.344-.323q-.672 0-1.046.298-.348.274-.348.772 0 .323.348.548.35.198.996.348l1.618.398q1.22.299 1.942.971.746.647 1.07 1.469a3.9 3.9 0 0 1 .349 1.568q0 1.12-.673 1.991-.646.847-1.792 1.32-1.12.473-2.564.473m11.684 0q-1.842 0-3.261-.822a6.1 6.1 0 0 1-2.24-2.315q-.796-1.468-.796-3.385t.821-3.386a6.1 6.1 0 0 1 2.29-2.29q1.468-.846 3.361-.846 1.642 0 3.012.871 1.393.847 2.215 2.514.846 1.644.846 4.008h-9.11q.124 1.245 1.07 1.991a3.43 3.43 0 0 0 2.141.722q1.02 0 1.668-.423.647-.448.995-1.145l2.938 1.145a6.2 6.2 0 0 1-1.369 1.817 5.6 5.6 0 0 1-1.967 1.145q-1.145.399-2.614.399m-2.688-8.09h5.377q-.075-.773-.498-1.245a2.6 2.6 0 0 0-.996-.697 3.1 3.1 0 0 0-1.12-.224q-.522 0-1.145.224a2.7 2.7 0 0 0-1.07.672q-.449.473-.548 1.27m13.996 8.09q-2.24 0-3.485-.996-1.22-.995-1.219-2.813 0-1.99 1.319-2.987 1.344-1.02 3.759-1.021h2.937q-.174-1.145-.722-1.742-.548-.622-1.568-.622-.796 0-1.444.348t-1.095 1.071l-2.888-.996a5.8 5.8 0 0 1 1.021-1.544q.672-.771 1.742-1.244 1.096-.498 2.664-.498 1.892 0 3.136.722a4.36 4.36 0 0 1 1.867 2.041q.622 1.294.598 3.087l-.075 6.895h-3.062l-.049-1.444a3.17 3.17 0 0 1-1.345 1.295q-.846.448-2.091.448m.548-2.738q.796 0 1.444-.374a2.9 2.9 0 0 0 1.02-.971q.374-.597.374-1.244V199h-1.867q-1.618 0-2.241.398-.621.374-.622 1.071 0 .547.498.871.498.299 1.394.299m7.81 2.439v-12.446h3.286v2.29q.772-1.17 1.942-1.743a5.45 5.45 0 0 1 2.464-.597v3.186q-1.145 0-2.165.274-.996.274-1.619.896-.621.623-.622 1.593v6.547zm14.549.299q-1.941 0-3.46-.822a6.1 6.1 0 0 1-2.365-2.315q-.846-1.493-.846-3.385 0-1.917.846-3.386a6 6 0 0 1 2.34-2.29q1.494-.846 3.435-.846 1.868 0 3.411.921t2.24 2.664l-3.087 1.095a2.6 2.6 0 0 0-1.095-1.145 3 3 0 0 0-1.618-.448q-.92 0-1.618.448-.697.423-1.095 1.195-.399.77-.398 1.792 0 1.02.398 1.792a3.1 3.1 0 0 0 1.12 1.195 3.05 3.05 0 0 0 1.643.448 2.9 2.9 0 0 0 1.618-.473q.747-.472 1.095-1.245l3.112 1.096q-.723 1.767-2.265 2.738-1.52.97-3.411.971m6.733-.299v-17.425h3.285v6.572a4.1 4.1 0 0 1 1.544-1.394q.921-.498 2.066-.498 1.494 0 2.514.597 1.046.598 1.593 1.867.548 1.245.548 3.236v7.045h-3.286v-6.373q0-1.269-.299-1.966t-.821-.996q-.523-.323-1.22-.323-1.27-.025-1.966.771-.673.797-.673 2.365v6.522z"/></svg>