<svg width="424" height="250" viewBox="0 0 424 250" fill="none" xmlns="http://www.w3.org/2000/svg">
<rect x="1.41022" y="1.41022" width="420.247" height="246.385" rx="6.92902" stroke="#48D36E" stroke-width="2.82045"/>
<path d="M55.1089 62.4259C53.3332 62.4259 51.7567 62.0442 50.3793 61.2808C49.0185 60.5008 47.9481 59.4388 47.1681 58.0946C46.3882 56.7338 45.9982 55.1738 45.9982 53.4147C45.9982 51.6557 46.3882 50.104 47.1681 48.7598C47.9481 47.399 49.0185 46.3369 50.3793 45.5736C51.7567 44.7936 53.3332 44.4036 55.1089 44.4036C56.171 44.4036 57.1501 44.5613 58.0462 44.8766C58.9424 45.1919 59.7306 45.6316 60.411 46.1959C61.108 46.7435 61.6889 47.3741 62.1535 48.0877L59.3655 49.8302C59.0834 49.3821 58.71 48.9839 58.2454 48.6354C57.7973 48.2869 57.2995 48.013 56.7518 47.8139C56.2042 47.6148 55.6565 47.5152 55.1089 47.5152C54.0136 47.5152 53.0428 47.7724 52.1965 48.2869C51.3501 48.7847 50.6863 49.4734 50.2051 50.353C49.7238 51.2325 49.4832 52.2531 49.4832 53.4147C49.4832 54.5598 49.7155 55.5804 50.1802 56.4765C50.6614 57.3727 51.3335 58.078 52.1965 58.5924C53.0594 59.0903 54.0551 59.3392 55.1836 59.3392C56.0299 59.3392 56.785 59.1815 57.4488 58.8662C58.1126 58.5343 58.6437 58.078 59.0419 57.4971C59.4402 56.9163 59.6643 56.2359 59.714 55.4559H55.6814V52.7924H62.9999V54.9083C62.9667 56.5014 62.6099 57.8622 61.9295 58.9907C61.2491 60.1026 60.3198 60.9572 59.1415 61.5546C57.9633 62.1355 56.6191 62.4259 55.1089 62.4259ZM69.7887 62.4259C68.5606 62.4259 67.4737 62.1521 66.5277 61.6044C65.5818 61.0402 64.835 60.2685 64.2874 59.2894C63.7564 58.3103 63.4908 57.1818 63.4908 55.904C63.4908 54.6262 63.7647 53.4977 64.3123 52.5186C64.8765 51.5395 65.6399 50.7761 66.6024 50.2285C67.5815 49.6643 68.7017 49.3821 69.9629 49.3821C71.0582 49.3821 72.0622 49.6726 72.9749 50.2534C73.9043 50.8176 74.6427 51.6557 75.1904 52.7675C75.7546 53.8628 76.0367 55.1987 76.0367 56.7753H66.926C67.009 57.605 67.3658 58.2688 67.9964 58.7667C68.627 59.2479 69.3406 59.4885 70.1372 59.4885C70.8176 59.4885 71.3735 59.3475 71.805 59.0654C72.2364 58.7667 72.5683 58.385 72.8007 57.9203L75.738 59.0654C75.3895 59.7624 74.9331 60.3681 74.3689 60.8825C73.8213 61.3804 73.1658 61.7621 72.4024 62.0276C71.639 62.2931 70.7678 62.4259 69.7887 62.4259ZM67.1003 54.3358H72.4771C72.4273 53.8213 72.2613 53.4064 71.9792 53.0911C71.6971 52.7758 71.3652 52.5435 70.9835 52.3941C70.6018 52.2448 70.2284 52.1701 69.8633 52.1701C69.5149 52.1701 69.1332 52.2448 68.7183 52.3941C68.32 52.5269 67.9632 52.7509 67.6479 53.0662C67.3492 53.3816 67.1666 53.8047 67.1003 54.3358ZM77.0641 62.1272V49.6809H80.1507L80.3001 51.3735C80.6984 50.7263 81.2045 50.2368 81.8185 49.9049C82.4492 49.5564 83.1627 49.3821 83.9593 49.3821C84.9384 49.3821 85.7765 49.5813 86.4735 49.9796C87.1705 50.3778 87.7015 51.0002 88.0666 51.8465C88.4317 52.6763 88.6059 53.7549 88.5893 55.0826V62.1272H85.3035V55.7547C85.3035 54.9083 85.2039 54.2528 85.0048 53.7881C84.8223 53.3235 84.5567 52.9916 84.2082 52.7924C83.8597 52.5767 83.4532 52.4688 82.9885 52.4688C82.1421 52.4522 81.4866 52.7095 81.022 53.2405C80.5739 53.7715 80.3499 54.5598 80.3499 55.6053V62.1272H77.0641ZM95.9555 62.4259C94.7275 62.4259 93.6405 62.1521 92.6946 61.6044C91.7487 61.0402 91.0019 60.2685 90.4543 59.2894C89.9232 58.3103 89.6577 57.1818 89.6577 55.904C89.6577 54.6262 89.9315 53.4977 90.4792 52.5186C91.0434 51.5395 91.8068 50.7761 92.7693 50.2285C93.7484 49.6643 94.8686 49.3821 96.1298 49.3821C97.2251 49.3821 98.2291 49.6726 99.1418 50.2534C100.071 50.8176 100.81 51.6557 101.357 52.7675C101.921 53.8628 102.204 55.1987 102.204 56.7753H93.0929C93.1759 57.605 93.5327 58.2688 94.1633 58.7667C94.7939 59.2479 95.5075 59.4885 96.304 59.4885C96.9844 59.4885 97.5404 59.3475 97.9718 59.0654C98.4033 58.7667 98.7352 58.385 98.9675 57.9203L101.905 59.0654C101.556 59.7624 101.1 60.3681 100.536 60.8825C99.9881 61.3804 99.3326 61.7621 98.5693 62.0276C97.8059 62.2931 96.9346 62.4259 95.9555 62.4259ZM93.2671 54.3358H98.6439C98.5942 53.8213 98.4282 53.4064 98.1461 53.0911C97.864 52.7758 97.5321 52.5435 97.1504 52.3941C96.7687 52.2448 96.3953 52.1701 96.0302 52.1701C95.6817 52.1701 95.3 52.2448 94.8852 52.3941C94.4869 52.5269 94.1301 52.7509 93.8148 53.0662C93.5161 53.3816 93.3335 53.8047 93.2671 54.3358ZM103.231 62.1272V49.6809H106.517V51.971C107.031 51.191 107.678 50.6102 108.458 50.2285C109.255 49.8302 110.076 49.6311 110.923 49.6311V52.8173C110.159 52.8173 109.437 52.9086 108.757 53.0911C108.093 53.2737 107.554 53.5724 107.139 53.9873C106.724 54.4022 106.517 54.9332 106.517 55.5804V62.1272H103.231ZM115.813 62.4259C114.32 62.4259 113.158 62.094 112.328 61.4302C111.515 60.7664 111.109 59.8287 111.109 58.6173C111.109 57.2897 111.548 56.294 112.428 55.6302C113.324 54.9498 114.577 54.6096 116.187 54.6096H119.124C119.008 53.8462 118.767 53.2654 118.402 52.8671C118.037 52.4522 117.514 52.2448 116.834 52.2448C116.303 52.2448 115.822 52.361 115.39 52.5933C114.959 52.8256 114.594 53.1824 114.295 53.6637L111.407 52.668C111.64 52.1369 111.98 51.6225 112.428 51.1246C112.876 50.6102 113.457 50.1953 114.17 49.88C114.901 49.5481 115.788 49.3821 116.834 49.3821C118.095 49.3821 119.141 49.6228 119.97 50.104C120.817 50.5853 121.439 51.2657 121.837 52.1452C122.252 53.0082 122.451 54.0371 122.435 55.2319L122.36 62.1272H119.298L119.248 60.6834C118.933 61.2476 118.485 61.6791 117.904 61.9778C117.34 62.2765 116.643 62.4259 115.813 62.4259ZM116.361 59.6877C116.892 59.6877 117.373 59.5632 117.805 59.3143C118.236 59.0654 118.576 58.7418 118.825 58.3435C119.074 57.9452 119.199 57.5303 119.199 57.0989V57.0491H117.332C116.253 57.0491 115.506 57.1818 115.091 57.4474C114.677 57.6963 114.469 58.0531 114.469 58.5177C114.469 58.8828 114.635 59.1732 114.967 59.389C115.299 59.5881 115.764 59.6877 116.361 59.6877ZM129.299 62.4259C127.922 62.4259 126.876 62.0857 126.163 61.4053C125.466 60.7249 125.117 59.7541 125.117 58.4928V52.4688H123.101V49.6809H125.117V45.7976H128.403V49.6809H131.515V52.4688H128.403V57.771C128.403 58.302 128.519 58.7086 128.752 58.9907C128.984 59.2562 129.324 59.389 129.772 59.389C129.938 59.389 130.121 59.3558 130.32 59.2894C130.519 59.2064 130.726 59.0903 130.942 58.9409L132.087 61.4053C131.689 61.704 131.241 61.9446 130.743 62.1272C130.262 62.3263 129.78 62.4259 129.299 62.4259ZM138.711 62.4259C137.483 62.4259 136.396 62.1521 135.451 61.6044C134.505 61.0402 133.758 60.2685 133.21 59.2894C132.679 58.3103 132.414 57.1818 132.414 55.904C132.414 54.6262 132.687 53.4977 133.235 52.5186C133.799 51.5395 134.563 50.7761 135.525 50.2285C136.504 49.6643 137.624 49.3821 138.886 49.3821C139.981 49.3821 140.985 49.6726 141.898 50.2534C142.827 50.8176 143.566 51.6557 144.113 52.7675C144.677 53.8628 144.959 55.1987 144.959 56.7753H135.849C135.932 57.605 136.289 58.2688 136.919 58.7667C137.55 59.2479 138.263 59.4885 139.06 59.4885C139.74 59.4885 140.296 59.3475 140.728 59.0654C141.159 58.7667 141.491 58.385 141.723 57.9203L144.661 59.0654C144.312 59.7624 143.856 60.3681 143.292 60.8825C142.744 61.3804 142.089 61.7621 141.325 62.0276C140.562 62.2931 139.691 62.4259 138.711 62.4259ZM136.023 54.3358H141.4C141.35 53.8213 141.184 53.4064 140.902 53.0911C140.62 52.7758 140.288 52.5435 139.906 52.3941C139.525 52.2448 139.151 52.1701 138.786 52.1701C138.438 52.1701 138.056 52.2448 137.641 52.3941C137.243 52.5269 136.886 52.7509 136.571 53.0662C136.272 53.3816 136.089 53.8047 136.023 54.3358ZM156.164 62.4259C154.787 62.4259 153.741 62.0857 153.027 61.4053C152.33 60.7249 151.982 59.7541 151.982 58.4928V52.4688H149.966V49.6809H151.982V45.7976H155.268V49.6809H158.379V52.4688H155.268V57.771C155.268 58.302 155.384 58.7086 155.616 58.9907C155.849 59.2562 156.189 59.389 156.637 59.389C156.803 59.389 156.985 59.3558 157.185 59.2894C157.384 59.2064 157.591 59.0903 157.807 58.9409L158.952 61.4053C158.554 61.704 158.106 61.9446 157.608 62.1272C157.126 62.3263 156.645 62.4259 156.164 62.4259ZM165.576 62.4259C164.348 62.4259 163.261 62.1521 162.315 61.6044C161.369 61.0402 160.623 60.2685 160.075 59.2894C159.544 58.3103 159.278 57.1818 159.278 55.904C159.278 54.6262 159.552 53.4977 160.1 52.5186C160.664 51.5395 161.427 50.7761 162.39 50.2285C163.369 49.6643 164.489 49.3821 165.75 49.3821C166.846 49.3821 167.85 49.6726 168.762 50.2534C169.692 50.8176 170.43 51.6557 170.978 52.7675C171.542 53.8628 171.824 55.1987 171.824 56.7753H162.714C162.797 57.605 163.153 58.2688 163.784 58.7667C164.415 59.2479 165.128 59.4885 165.925 59.4885C166.605 59.4885 167.161 59.3475 167.593 59.0654C168.024 58.7667 168.356 58.385 168.588 57.9203L171.526 59.0654C171.177 59.7624 170.721 60.3681 170.156 60.8825C169.609 61.3804 168.953 61.7621 168.19 62.0276C167.427 62.2931 166.555 62.4259 165.576 62.4259ZM162.888 54.3358H168.265C168.215 53.8213 168.049 53.4064 167.767 53.0911C167.485 52.7758 167.153 52.5435 166.771 52.3941C166.389 52.2448 166.016 52.1701 165.651 52.1701C165.302 52.1701 164.921 52.2448 164.506 52.3941C164.108 52.5269 163.751 52.7509 163.435 53.0662C163.137 53.3816 162.954 53.8047 162.888 54.3358ZM171.244 62.1272L175.874 55.68L171.568 49.6809H175.451L177.691 53.0165L179.907 49.6809H183.79L179.508 55.7049L184.089 62.1272H180.181L177.691 58.3684L175.177 62.1272H171.244ZM190.005 62.4259C188.628 62.4259 187.583 62.0857 186.869 61.4053C186.172 60.7249 185.823 59.7541 185.823 58.4928V52.4688H183.807V49.6809H185.823V45.7976H189.109V49.6809H192.221V52.4688H189.109V57.771C189.109 58.302 189.225 58.7086 189.458 58.9907C189.69 59.2562 190.03 59.389 190.478 59.389C190.644 59.389 190.827 59.3558 191.026 59.2894C191.225 59.2064 191.433 59.0903 191.648 58.9409L192.793 61.4053C192.395 61.704 191.947 61.9446 191.449 62.1272C190.968 62.3263 190.487 62.4259 190.005 62.4259Z" fill="#48D36E"/>
<path d="M60.6787 156.331L53.5857 101.26C53.4607 100.289 54.1463 99.4011 55.1169 99.276L89.2475 94.8801C89.7135 94.8201 90.1844 94.9477 90.5564 95.2349L100.967 103.27C101.339 103.557 101.582 103.98 101.642 104.446L107.547 150.294C107.672 151.265 106.987 152.153 106.016 152.278L62.6626 157.862C61.692 157.987 60.8037 157.301 60.6787 156.331Z" stroke="#48D36E" stroke-width="4.72135" stroke-linecap="round" stroke-linejoin="round"/>
<path d="M68.0957 121.426L91.53 118.408" stroke="#48D36E" stroke-width="4.72135" stroke-linecap="round" stroke-linejoin="round"/>
<path d="M71.1191 144.857L94.5534 141.839" stroke="#48D36E" stroke-width="4.72135" stroke-linecap="round" stroke-linejoin="round"/>
<path d="M69.6055 133.145L81.3226 131.635" stroke="#48D36E" stroke-width="4.72135" stroke-linecap="round" stroke-linejoin="round"/>
<path d="M88.5098 94.9732L89.7925 104.933C89.9176 105.903 90.8057 106.589 91.7765 106.464L101.736 105.181" stroke="#48D36E" stroke-width="4.72135" stroke-linecap="round" stroke-linejoin="round"/>
<path d="M52.0137 204.078V185.431C51.1897 185.996 50.3421 186.443 49.4709 186.773C48.5998 187.079 47.7051 187.208 46.7868 187.161V182.782C47.3754 182.829 48.0111 182.688 48.6939 182.358C49.3767 182.005 50.0477 181.558 50.707 181.016C51.3898 180.451 52.0019 179.898 52.5435 179.356H56.6402V204.078H52.0137ZM60.1682 208.104L62.3225 199.769H67.1609L63.6998 208.104H60.1682ZM74.2191 204.078V185.431C73.3951 185.996 72.5475 186.443 71.6763 186.773C70.8052 187.079 69.9105 187.208 68.9922 187.161V182.782C69.5809 182.829 70.2166 182.688 70.8993 182.358C71.5821 182.005 72.2531 181.558 72.9124 181.016C73.5952 180.451 74.2073 179.898 74.7489 179.356H78.8456V204.078H74.2191ZM93.7808 204.078V199.204H82.2676V195.355L93.2158 179.356H98.3367V195.072H102.645V199.204H98.3367V204.078H93.7808ZM87.2473 195.072H93.7808V185.501L87.2473 195.072ZM109.905 207.341C109.322 207.341 108.807 207.3 108.357 207.219C107.908 207.137 107.53 207.03 107.224 206.897C106.917 206.764 106.667 206.631 106.473 206.499L107.269 204.875C107.412 204.956 107.601 205.048 107.836 205.15C108.071 205.263 108.352 205.355 108.679 205.426C109.006 205.508 109.384 205.549 109.813 205.549C110.221 205.549 110.579 205.467 110.885 205.304C111.202 205.15 111.447 204.905 111.62 204.568C111.804 204.241 111.896 203.823 111.896 203.312V202.577C111.641 202.975 111.309 203.292 110.9 203.526C110.492 203.751 110.027 203.864 109.506 203.864C108.801 203.864 108.189 203.71 107.668 203.404C107.157 203.098 106.759 202.669 106.473 202.117C106.187 201.566 106.044 200.912 106.044 200.156C106.044 199.359 106.187 198.67 106.473 198.088C106.759 197.496 107.157 197.041 107.668 196.724C108.189 196.398 108.801 196.234 109.506 196.234C110.027 196.234 110.492 196.357 110.9 196.602C111.309 196.837 111.641 197.174 111.896 197.613V196.418H113.918V203.251C113.918 204.109 113.755 204.844 113.428 205.457C113.101 206.08 112.637 206.55 112.034 206.866C111.442 207.183 110.732 207.341 109.905 207.341ZM110.088 202.163C110.436 202.163 110.737 202.076 110.992 201.903C111.258 201.719 111.462 201.474 111.605 201.167C111.748 200.851 111.82 200.493 111.82 200.095C111.82 199.686 111.743 199.329 111.59 199.022C111.447 198.716 111.242 198.476 110.977 198.302C110.722 198.129 110.42 198.042 110.073 198.042C109.716 198.042 109.399 198.129 109.123 198.302C108.847 198.476 108.633 198.716 108.48 199.022C108.327 199.329 108.245 199.686 108.235 200.095C108.245 200.493 108.327 200.851 108.48 201.167C108.633 201.474 108.847 201.719 109.123 201.903C109.409 202.076 109.731 202.163 110.088 202.163ZM122.569 204.262C121.528 204.262 120.603 204.027 119.797 203.557C118.99 203.077 118.356 202.423 117.897 201.596C117.437 200.759 117.207 199.799 117.207 198.716C117.207 197.633 117.437 196.678 117.897 195.851C118.356 195.014 118.985 194.36 119.781 193.89C120.588 193.41 121.512 193.17 122.554 193.17C123.29 193.17 123.974 193.303 124.607 193.568C125.24 193.824 125.792 194.186 126.262 194.656C126.742 195.116 127.109 195.647 127.365 196.249L125.419 196.97C125.245 196.592 125.016 196.265 124.73 195.989C124.444 195.703 124.117 195.483 123.749 195.33C123.381 195.167 122.983 195.085 122.554 195.085C121.931 195.085 121.375 195.243 120.884 195.56C120.404 195.866 120.026 196.29 119.751 196.832C119.485 197.373 119.352 198.001 119.352 198.716C119.352 199.431 119.49 200.064 119.766 200.616C120.042 201.157 120.425 201.586 120.915 201.903C121.405 202.209 121.967 202.362 122.6 202.362C123.039 202.362 123.438 202.28 123.795 202.117C124.163 201.943 124.484 201.709 124.76 201.412C125.046 201.116 125.276 200.774 125.45 200.386L127.395 201.091C127.14 201.714 126.772 202.265 126.292 202.745C125.822 203.225 125.271 203.598 124.638 203.864C124.004 204.129 123.315 204.262 122.569 204.262ZM132.957 204.262C131.874 204.262 130.914 204.027 130.077 203.557C129.249 203.077 128.601 202.423 128.131 201.596C127.661 200.759 127.426 199.804 127.426 198.731C127.426 197.638 127.661 196.678 128.131 195.851C128.601 195.014 129.244 194.36 130.061 193.89C130.889 193.42 131.838 193.185 132.911 193.185C133.993 193.185 134.943 193.425 135.76 193.906C136.588 194.375 137.236 195.029 137.706 195.866C138.176 196.694 138.411 197.649 138.411 198.731C138.411 199.804 138.176 200.759 137.706 201.596C137.246 202.423 136.603 203.077 135.776 203.557C134.959 204.027 134.019 204.262 132.957 204.262ZM132.957 202.347C133.61 202.347 134.182 202.194 134.673 201.887C135.173 201.571 135.561 201.142 135.837 200.6C136.123 200.059 136.266 199.436 136.266 198.731C136.266 198.016 136.123 197.388 135.837 196.847C135.551 196.306 135.158 195.882 134.657 195.575C134.157 195.259 133.575 195.1 132.911 195.1C132.267 195.1 131.69 195.259 131.18 195.575C130.679 195.882 130.286 196.306 130 196.847C129.714 197.388 129.571 198.016 129.571 198.731C129.571 199.436 129.714 200.059 130 200.6C130.286 201.142 130.684 201.571 131.195 201.887C131.706 202.194 132.293 202.347 132.957 202.347ZM140.058 204.752L138.572 204.522C138.572 204.359 138.633 204.17 138.756 203.955C138.878 203.731 139.047 203.506 139.261 203.281C139.486 203.057 139.736 202.847 140.012 202.653L140.793 202.117C140.977 201.994 141.156 201.846 141.33 201.673C141.503 201.499 141.59 201.32 141.59 201.137C141.59 200.932 141.519 200.769 141.376 200.646C141.233 200.514 141.018 200.447 140.732 200.447C140.518 200.447 140.334 200.519 140.181 200.662C140.038 200.794 139.941 200.953 139.889 201.137L138.327 200.876C138.388 200.549 138.521 200.253 138.725 199.988C138.94 199.712 139.215 199.487 139.552 199.313C139.9 199.14 140.293 199.053 140.732 199.053C141.478 199.053 142.065 199.247 142.494 199.635C142.923 200.013 143.137 200.508 143.137 201.121C143.137 201.56 143.015 201.933 142.77 202.24C142.535 202.546 142.223 202.832 141.835 203.098L141.054 203.634C140.911 203.736 140.768 203.858 140.625 204.001C140.482 204.134 140.354 204.267 140.242 204.4C140.14 204.543 140.078 204.66 140.058 204.752ZM138.572 205.61V204.522L139.69 204.277H143.214V205.61H138.572ZM147.145 204.262C146.389 204.262 145.72 204.093 145.138 203.756C144.556 203.409 144.096 202.934 143.759 202.332C143.433 201.729 143.269 201.034 143.269 200.248C143.269 199.462 143.438 198.767 143.775 198.164C144.122 197.562 144.592 197.092 145.184 196.755C145.787 196.408 146.476 196.234 147.252 196.234C147.926 196.234 148.544 196.413 149.106 196.77C149.678 197.118 150.132 197.633 150.47 198.318C150.817 198.992 150.99 199.814 150.99 200.784H145.383C145.434 201.295 145.654 201.703 146.042 202.01C146.43 202.306 146.869 202.454 147.36 202.454C147.778 202.454 148.12 202.367 148.386 202.194C148.652 202.01 148.856 201.775 148.999 201.489L150.807 202.194C150.592 202.623 150.311 202.995 149.964 203.312C149.627 203.618 149.223 203.853 148.754 204.017C148.284 204.18 147.748 204.262 147.145 204.262ZM145.491 199.283H148.8C148.769 198.966 148.667 198.711 148.493 198.517C148.32 198.323 148.115 198.18 147.88 198.088C147.646 197.996 147.416 197.95 147.191 197.95C146.977 197.95 146.742 197.996 146.486 198.088C146.241 198.17 146.022 198.307 145.828 198.502C145.644 198.696 145.531 198.956 145.491 199.283Z" fill="#48D36E"/>
<path d="M177.75 192.845V188.296H200.216V192.845H177.75ZM177.75 204.078V199.529H200.216V204.078H177.75Z" fill="#48D36E"/>
<path d="M262.307 144.52L276.646 158.86" stroke="#48D36E" stroke-width="9.67352" stroke-linecap="round" stroke-linejoin="round"/>
<path d="M224.57 128.294C224.57 140.174 234.2 149.804 246.08 149.804C252.03 149.804 257.416 147.388 261.31 143.483C265.19 139.592 267.59 134.223 267.59 128.294C267.59 116.415 257.959 106.784 246.08 106.784C234.2 106.784 224.57 116.415 224.57 128.294Z" stroke="#48D36E" stroke-width="9.67352" stroke-linecap="round" stroke-linejoin="round"/>
<path d="M226.694 204.078V190.935C226.113 191.333 225.516 191.648 224.902 191.881C224.288 192.096 223.657 192.188 223.01 192.154V189.068C223.425 189.101 223.873 189.001 224.354 188.769C224.835 188.52 225.308 188.205 225.773 187.823C226.254 187.425 226.686 187.035 227.067 186.653H229.955V204.078H226.694ZM240.989 204.078L236.757 191.632H240.093L242.682 199.647L245.296 191.632H248.532L251.096 199.523L253.709 191.632H257.045L252.813 204.078H249.577L246.914 195.664L244.225 204.078H240.989ZM263.066 204.377C261.838 204.377 260.751 204.103 259.805 203.555C258.859 202.991 258.113 202.219 257.565 201.24C257.034 200.261 256.768 199.133 256.768 197.855C256.768 196.577 257.042 195.449 257.59 194.469C258.154 193.49 258.918 192.727 259.88 192.179C260.859 191.615 261.979 191.333 263.241 191.333C264.336 191.333 265.34 191.623 266.253 192.204C267.182 192.768 267.92 193.607 268.468 194.718C269.032 195.814 269.314 197.15 269.314 198.726H260.204C260.287 199.556 260.643 200.22 261.274 200.717C261.905 201.199 262.618 201.439 263.415 201.439C264.095 201.439 264.651 201.298 265.083 201.016C265.514 200.717 265.846 200.336 266.078 199.871L269.016 201.016C268.667 201.713 268.211 202.319 267.647 202.833C267.099 203.331 266.443 203.713 265.68 203.978C264.917 204.244 264.045 204.377 263.066 204.377ZM260.378 196.287H265.755C265.705 195.772 265.539 195.357 265.257 195.042C264.975 194.727 264.643 194.494 264.261 194.345C263.879 194.196 263.506 194.121 263.141 194.121C262.792 194.121 262.411 194.196 261.996 194.345C261.598 194.478 261.241 194.702 260.926 195.017C260.627 195.332 260.444 195.756 260.378 196.287ZM277.386 204.377C276.54 204.377 275.801 204.202 275.171 203.854C274.54 203.489 274.009 202.974 273.578 202.311L273.453 204.078H270.342V186.653H273.627V193.324C274.042 192.677 274.565 192.188 275.196 191.856C275.826 191.507 276.557 191.333 277.386 191.333C278.531 191.333 279.519 191.598 280.349 192.13C281.195 192.661 281.85 193.416 282.315 194.395C282.78 195.357 283.012 196.511 283.012 197.855C283.012 199.182 282.78 200.336 282.315 201.315C281.85 202.294 281.195 203.049 280.349 203.58C279.519 204.111 278.531 204.377 277.386 204.377ZM276.54 201.365C277.137 201.365 277.66 201.215 278.108 200.917C278.573 200.618 278.938 200.203 279.203 199.672C279.469 199.141 279.602 198.535 279.602 197.855C279.602 197.174 279.469 196.569 279.203 196.038C278.955 195.507 278.598 195.1 278.133 194.818C277.685 194.519 277.162 194.37 276.565 194.37C276.001 194.37 275.494 194.519 275.046 194.818C274.598 195.117 274.25 195.532 274.001 196.063C273.752 196.577 273.627 197.174 273.627 197.855C273.627 198.535 273.752 199.141 274.001 199.672C274.25 200.203 274.59 200.618 275.021 200.917C275.47 201.215 275.976 201.365 276.54 201.365ZM293.992 204.377C293.196 204.377 292.449 204.261 291.752 204.028C291.055 203.779 290.441 203.431 289.91 202.983C289.379 202.518 288.964 201.954 288.665 201.29L291.478 199.996C291.727 200.394 292.067 200.742 292.499 201.041C292.93 201.323 293.428 201.464 293.992 201.464C294.54 201.464 294.963 201.39 295.262 201.24C295.56 201.074 295.71 200.842 295.71 200.543C295.71 200.245 295.585 200.029 295.336 199.896C295.104 199.747 294.781 199.622 294.366 199.523L293.221 199.224C292.026 198.909 291.08 198.411 290.383 197.73C289.702 197.033 289.362 196.237 289.362 195.341C289.362 194.063 289.769 193.075 290.582 192.378C291.412 191.681 292.582 191.333 294.092 191.333C294.872 191.333 295.594 191.449 296.257 191.681C296.938 191.914 297.519 192.237 298 192.652C298.481 193.067 298.813 193.548 298.996 194.096L296.282 195.341C296.166 195.009 295.884 194.743 295.436 194.544C294.988 194.328 294.54 194.221 294.092 194.221C293.644 194.221 293.295 194.32 293.046 194.519C292.814 194.702 292.698 194.959 292.698 195.291C292.698 195.507 292.814 195.689 293.046 195.839C293.279 195.971 293.611 196.087 294.042 196.187L295.66 196.585C296.473 196.784 297.12 197.108 297.602 197.556C298.1 197.988 298.456 198.477 298.672 199.025C298.904 199.556 299.021 200.079 299.021 200.593C299.021 201.34 298.797 202.004 298.348 202.584C297.917 203.149 297.32 203.588 296.556 203.904C295.809 204.219 294.955 204.377 293.992 204.377ZM305.676 204.377C304.448 204.377 303.361 204.103 302.415 203.555C301.469 202.991 300.723 202.219 300.175 201.24C299.644 200.261 299.379 199.133 299.379 197.855C299.379 196.577 299.652 195.449 300.2 194.469C300.764 193.49 301.528 192.727 302.49 192.179C303.469 191.615 304.589 191.333 305.851 191.333C306.946 191.333 307.95 191.623 308.863 192.204C309.792 192.768 310.53 193.607 311.078 194.718C311.642 195.814 311.924 197.15 311.924 198.726H302.814C302.897 199.556 303.253 200.22 303.884 200.717C304.515 201.199 305.228 201.439 306.025 201.439C306.705 201.439 307.261 201.298 307.693 201.016C308.124 200.717 308.456 200.336 308.688 199.871L311.626 201.016C311.277 201.713 310.821 202.319 310.257 202.833C309.709 203.331 309.053 203.713 308.29 203.978C307.527 204.244 306.655 204.377 305.676 204.377ZM302.988 196.287H308.365C308.315 195.772 308.149 195.357 307.867 195.042C307.585 194.727 307.253 194.494 306.871 194.345C306.489 194.196 306.116 194.121 305.751 194.121C305.403 194.121 305.021 194.196 304.606 194.345C304.208 194.478 303.851 194.702 303.536 195.017C303.237 195.332 303.054 195.756 302.988 196.287ZM316.984 204.377C315.491 204.377 314.329 204.045 313.499 203.381C312.686 202.717 312.28 201.78 312.28 200.568C312.28 199.241 312.719 198.245 313.599 197.581C314.495 196.901 315.748 196.56 317.358 196.56H320.295C320.179 195.797 319.938 195.216 319.573 194.818C319.208 194.403 318.685 194.196 318.005 194.196C317.474 194.196 316.993 194.312 316.561 194.544C316.13 194.776 315.765 195.133 315.466 195.615L312.578 194.619C312.811 194.088 313.151 193.573 313.599 193.075C314.047 192.561 314.628 192.146 315.341 191.831C316.072 191.499 316.959 191.333 318.005 191.333C319.266 191.333 320.312 191.574 321.141 192.055C321.988 192.536 322.61 193.217 323.008 194.096C323.423 194.959 323.622 195.988 323.606 197.183L323.531 204.078H320.469L320.42 202.634C320.104 203.198 319.656 203.63 319.075 203.929C318.511 204.227 317.814 204.377 316.984 204.377ZM317.532 201.639C318.063 201.639 318.544 201.514 318.976 201.265C319.407 201.016 319.747 200.693 319.996 200.294C320.245 199.896 320.37 199.481 320.37 199.05V199H318.503C317.424 199 316.677 199.133 316.262 199.398C315.848 199.647 315.64 200.004 315.64 200.469C315.64 200.834 315.806 201.124 316.138 201.34C316.47 201.539 316.935 201.639 317.532 201.639ZM325.342 204.078V191.632H328.628V193.922C329.143 193.142 329.79 192.561 330.57 192.179C331.366 191.781 332.188 191.582 333.034 191.582V194.768C332.271 194.768 331.549 194.859 330.869 195.042C330.205 195.225 329.665 195.523 329.25 195.938C328.836 196.353 328.628 196.884 328.628 197.531V204.078H325.342ZM339.891 204.377C338.597 204.377 337.443 204.103 336.431 203.555C335.419 202.991 334.631 202.219 334.066 201.24C333.502 200.245 333.22 199.116 333.22 197.855C333.22 196.577 333.502 195.449 334.066 194.469C334.631 193.49 335.411 192.727 336.406 192.179C337.402 191.615 338.547 191.333 339.841 191.333C341.086 191.333 342.223 191.64 343.252 192.254C344.281 192.868 345.027 193.756 345.492 194.918L342.405 196.013C342.173 195.532 341.808 195.15 341.31 194.868C340.829 194.569 340.29 194.42 339.692 194.42C339.078 194.42 338.539 194.569 338.074 194.868C337.609 195.15 337.244 195.548 336.979 196.063C336.713 196.577 336.581 197.174 336.581 197.855C336.581 198.535 336.713 199.133 336.979 199.647C337.244 200.145 337.618 200.543 338.099 200.842C338.58 201.141 339.128 201.29 339.742 201.29C340.339 201.29 340.879 201.132 341.36 200.817C341.858 200.502 342.223 200.087 342.455 199.572L345.567 200.668C345.085 201.846 344.33 202.759 343.302 203.406C342.289 204.053 341.152 204.377 339.891 204.377ZM346.624 204.078V186.653H349.909V193.225C350.324 192.611 350.839 192.146 351.453 191.831C352.067 191.499 352.756 191.333 353.519 191.333C354.515 191.333 355.353 191.532 356.033 191.93C356.73 192.329 357.261 192.951 357.626 193.797C357.991 194.627 358.174 195.706 358.174 197.033V204.078H354.888V197.705C354.888 196.859 354.788 196.204 354.589 195.739C354.39 195.274 354.116 194.942 353.768 194.743C353.419 194.528 353.013 194.42 352.548 194.42C351.702 194.403 351.046 194.66 350.582 195.191C350.133 195.722 349.909 196.511 349.909 197.556V204.078H346.624Z" fill="#48D36E"/>
</svg>
