<svg width="424" height="346" viewBox="0 0 424 346" fill="none" xmlns="http://www.w3.org/2000/svg">
<rect x="1.41022" y="1.41022" width="420.247" height="343.18" rx="6.92902" stroke="#8FCE79" stroke-width="2.82045"/>
<path d="M55.1089 62.4259C53.3332 62.4259 51.7567 62.0442 50.3793 61.2808C49.0185 60.5009 47.9481 59.4388 47.1681 58.0946C46.3882 56.7338 45.9982 55.1739 45.9982 53.4148C45.9982 51.6557 46.3882 50.1041 47.1681 48.7599C47.9481 47.3991 49.0185 46.337 50.3793 45.5736C51.7567 44.7936 53.3332 44.4036 55.1089 44.4036C56.171 44.4036 57.1501 44.5613 58.0462 44.8766C58.9424 45.1919 59.7306 45.6317 60.411 46.1959C61.108 46.7435 61.6889 47.3742 62.1535 48.0878L59.3655 49.8302C59.0834 49.3822 58.71 48.9839 58.2454 48.6354C57.7973 48.2869 57.2995 48.0131 56.7518 47.8139C56.2042 47.6148 55.6565 47.5152 55.1089 47.5152C54.0136 47.5152 53.0428 47.7724 52.1965 48.2869C51.3501 48.7847 50.6863 49.4734 50.2051 50.353C49.7238 51.2325 49.4832 52.2531 49.4832 53.4148C49.4832 54.5598 49.7155 55.5804 50.1802 56.4766C50.6614 57.3727 51.3335 58.078 52.1965 58.5924C53.0594 59.0903 54.0551 59.3392 55.1836 59.3392C56.0299 59.3392 56.785 59.1816 57.4488 58.8663C58.1126 58.5344 58.6437 58.078 59.0419 57.4972C59.4402 56.9163 59.6643 56.2359 59.714 55.456H55.6814V52.7925H62.9999V54.9083C62.9667 56.5015 62.6099 57.8623 61.9295 58.9907C61.2491 60.1026 60.3198 60.9572 59.1415 61.5547C57.9633 62.1355 56.6191 62.4259 55.1089 62.4259ZM69.7887 62.4259C68.5606 62.4259 67.4737 62.1521 66.5277 61.6045C65.5818 61.0402 64.835 60.2685 64.2874 59.2894C63.7564 58.3103 63.4908 57.1819 63.4908 55.904C63.4908 54.6262 63.7647 53.4978 64.3123 52.5186C64.8765 51.5395 65.6399 50.7762 66.6024 50.2285C67.5815 49.6643 68.7017 49.3822 69.9629 49.3822C71.0582 49.3822 72.0622 49.6726 72.9749 50.2534C73.9043 50.8176 74.6427 51.6557 75.1904 52.7676C75.7546 53.8628 76.0367 55.1987 76.0367 56.7753H66.926C67.009 57.605 67.3658 58.2688 67.9964 58.7667C68.627 59.2479 69.3406 59.4886 70.1372 59.4886C70.8176 59.4886 71.3735 59.3475 71.805 59.0654C72.2364 58.7667 72.5683 58.385 72.8007 57.9203L75.738 59.0654C75.3895 59.7624 74.9331 60.3681 74.3689 60.8826C73.8213 61.3804 73.1658 61.7621 72.4024 62.0276C71.639 62.2931 70.7678 62.4259 69.7887 62.4259ZM67.1003 54.3358H72.4771C72.4273 53.8214 72.2613 53.4065 71.9792 53.0912C71.6971 52.7759 71.3652 52.5435 70.9835 52.3942C70.6018 52.2448 70.2284 52.1701 69.8633 52.1701C69.5149 52.1701 69.1332 52.2448 68.7183 52.3942C68.32 52.5269 67.9632 52.751 67.6479 53.0663C67.3492 53.3816 67.1666 53.8048 67.1003 54.3358ZM77.0641 62.1272V49.6809H80.1507L80.3001 51.3736C80.6984 50.7264 81.2045 50.2368 81.8185 49.9049C82.4492 49.5564 83.1627 49.3822 83.9593 49.3822C84.9384 49.3822 85.7765 49.5813 86.4735 49.9796C87.1705 50.3779 87.7015 51.0002 88.0666 51.8465C88.4317 52.6763 88.6059 53.755 88.5893 55.0826V62.1272H85.3035V55.7547C85.3035 54.9083 85.2039 54.2528 85.0048 53.7882C84.8223 53.3235 84.5567 52.9916 84.2082 52.7925C83.8597 52.5767 83.4532 52.4689 82.9885 52.4689C82.1421 52.4523 81.4866 52.7095 81.022 53.2405C80.5739 53.7716 80.3499 54.5598 80.3499 55.6053V62.1272H77.0641ZM95.9555 62.4259C94.7275 62.4259 93.6405 62.1521 92.6946 61.6045C91.7487 61.0402 91.0019 60.2685 90.4543 59.2894C89.9232 58.3103 89.6577 57.1819 89.6577 55.904C89.6577 54.6262 89.9315 53.4978 90.4792 52.5186C91.0434 51.5395 91.8068 50.7762 92.7693 50.2285C93.7484 49.6643 94.8686 49.3822 96.1298 49.3822C97.2251 49.3822 98.2291 49.6726 99.1418 50.2534C100.071 50.8176 100.81 51.6557 101.357 52.7676C101.921 53.8628 102.204 55.1987 102.204 56.7753H93.0929C93.1759 57.605 93.5327 58.2688 94.1633 58.7667C94.7939 59.2479 95.5075 59.4886 96.304 59.4886C96.9844 59.4886 97.5404 59.3475 97.9718 59.0654C98.4033 58.7667 98.7352 58.385 98.9675 57.9203L101.905 59.0654C101.556 59.7624 101.1 60.3681 100.536 60.8826C99.9881 61.3804 99.3326 61.7621 98.5693 62.0276C97.8059 62.2931 96.9346 62.4259 95.9555 62.4259ZM93.2671 54.3358H98.6439C98.5942 53.8214 98.4282 53.4065 98.1461 53.0912C97.864 52.7759 97.5321 52.5435 97.1504 52.3942C96.7687 52.2448 96.3953 52.1701 96.0302 52.1701C95.6817 52.1701 95.3 52.2448 94.8852 52.3942C94.4869 52.5269 94.1301 52.751 93.8148 53.0663C93.5161 53.3816 93.3335 53.8048 93.2671 54.3358ZM103.231 62.1272V49.6809H106.517V51.971C107.031 51.191 107.678 50.6102 108.458 50.2285C109.255 49.8302 110.076 49.6311 110.923 49.6311V52.8174C110.159 52.8174 109.437 52.9086 108.757 53.0912C108.093 53.2737 107.554 53.5724 107.139 53.9873C106.724 54.4022 106.517 54.9332 106.517 55.5804V62.1272H103.231ZM115.813 62.4259C114.32 62.4259 113.158 62.094 112.328 61.4302C111.515 60.7664 111.109 59.8288 111.109 58.6173C111.109 57.2897 111.548 56.294 112.428 55.6302C113.324 54.9498 114.577 54.6096 116.187 54.6096H119.124C119.008 53.8462 118.767 53.2654 118.402 52.8671C118.037 52.4523 117.514 52.2448 116.834 52.2448C116.303 52.2448 115.822 52.361 115.39 52.5933C114.959 52.8256 114.594 53.1824 114.295 53.6637L111.407 52.668C111.64 52.137 111.98 51.6225 112.428 51.1247C112.876 50.6102 113.457 50.1953 114.17 49.88C114.901 49.5481 115.788 49.3822 116.834 49.3822C118.095 49.3822 119.141 49.6228 119.97 50.1041C120.817 50.5853 121.439 51.2657 121.837 52.1453C122.252 53.0082 122.451 54.0371 122.435 55.2319L122.36 62.1272H119.298L119.248 60.6834C118.933 61.2477 118.485 61.6791 117.904 61.9778C117.34 62.2766 116.643 62.4259 115.813 62.4259ZM116.361 59.6877C116.892 59.6877 117.373 59.5633 117.805 59.3143C118.236 59.0654 118.576 58.7418 118.825 58.3435C119.074 57.9452 119.199 57.5304 119.199 57.0989V57.0491H117.332C116.253 57.0491 115.506 57.1819 115.091 57.4474C114.677 57.6963 114.469 58.0531 114.469 58.5178C114.469 58.8829 114.635 59.1733 114.967 59.389C115.299 59.5881 115.764 59.6877 116.361 59.6877ZM129.299 62.4259C127.922 62.4259 126.876 62.0857 126.163 61.4053C125.466 60.7249 125.117 59.7541 125.117 58.4929V52.4689H123.101V49.6809H125.117V45.7976H128.403V49.6809H131.515V52.4689H128.403V57.771C128.403 58.302 128.519 58.7086 128.752 58.9907C128.984 59.2562 129.324 59.389 129.772 59.389C129.938 59.389 130.121 59.3558 130.32 59.2894C130.519 59.2065 130.726 59.0903 130.942 58.9409L132.087 61.4053C131.689 61.704 131.241 61.9447 130.743 62.1272C130.262 62.3263 129.78 62.4259 129.299 62.4259ZM138.711 62.4259C137.483 62.4259 136.396 62.1521 135.451 61.6045C134.505 61.0402 133.758 60.2685 133.21 59.2894C132.679 58.3103 132.414 57.1819 132.414 55.904C132.414 54.6262 132.687 53.4978 133.235 52.5186C133.799 51.5395 134.563 50.7762 135.525 50.2285C136.504 49.6643 137.624 49.3822 138.886 49.3822C139.981 49.3822 140.985 49.6726 141.898 50.2534C142.827 50.8176 143.566 51.6557 144.113 52.7676C144.677 53.8628 144.959 55.1987 144.959 56.7753H135.849C135.932 57.605 136.289 58.2688 136.919 58.7667C137.55 59.2479 138.263 59.4886 139.06 59.4886C139.74 59.4886 140.296 59.3475 140.728 59.0654C141.159 58.7667 141.491 58.385 141.723 57.9203L144.661 59.0654C144.312 59.7624 143.856 60.3681 143.292 60.8826C142.744 61.3804 142.089 61.7621 141.325 62.0276C140.562 62.2931 139.691 62.4259 138.711 62.4259ZM136.023 54.3358H141.4C141.35 53.8214 141.184 53.4065 140.902 53.0912C140.62 52.7759 140.288 52.5435 139.906 52.3942C139.525 52.2448 139.151 52.1701 138.786 52.1701C138.438 52.1701 138.056 52.2448 137.641 52.3942C137.243 52.5269 136.886 52.751 136.571 53.0663C136.272 53.3816 136.089 53.8048 136.023 54.3358ZM155.069 62.4259C153.575 62.4259 152.413 62.094 151.584 61.4302C150.771 60.7664 150.364 59.8288 150.364 58.6173C150.364 57.2897 150.804 56.294 151.683 55.6302C152.579 54.9498 153.832 54.6096 155.442 54.6096H158.379C158.263 53.8462 158.023 53.2654 157.658 52.8671C157.292 52.4523 156.77 52.2448 156.089 52.2448C155.558 52.2448 155.077 52.361 154.645 52.5933C154.214 52.8256 153.849 53.1824 153.55 53.6637L150.663 52.668C150.895 52.137 151.235 51.6225 151.683 51.1247C152.131 50.6102 152.712 50.1953 153.426 49.88C154.156 49.5481 155.044 49.3822 156.089 49.3822C157.35 49.3822 158.396 49.6228 159.226 50.1041C160.072 50.5853 160.694 51.2657 161.093 52.1453C161.508 53.0082 161.707 54.0371 161.69 55.2319L161.615 62.1272H158.554L158.504 60.6834C158.189 61.2477 157.74 61.6791 157.16 61.9778C156.595 62.2766 155.898 62.4259 155.069 62.4259ZM155.616 59.6877C156.147 59.6877 156.629 59.5633 157.06 59.3143C157.492 59.0654 157.832 58.7418 158.081 58.3435C158.33 57.9452 158.454 57.5304 158.454 57.0989V57.0491H156.587C155.508 57.0491 154.762 57.1819 154.347 57.4474C153.932 57.6963 153.724 58.0531 153.724 58.5178C153.724 58.8829 153.89 59.1733 154.222 59.389C154.554 59.5881 155.019 59.6877 155.616 59.6877ZM172.334 62.1272L167.231 49.6809H170.617L173.977 58.3684L177.338 49.6809H180.723L175.62 62.1272H172.334ZM181.625 62.1272V49.6809H184.911V62.1272H181.625ZM183.268 47.6646C182.77 47.6646 182.33 47.482 181.948 47.1169C181.567 46.7353 181.376 46.2872 181.376 45.7727C181.376 45.2583 181.567 44.8185 181.948 44.4534C182.33 44.0717 182.77 43.8809 183.268 43.8809C183.782 43.8809 184.222 44.0717 184.587 44.4534C184.969 44.8185 185.16 45.2583 185.16 45.7727C185.16 46.2872 184.969 46.7353 184.587 47.1169C184.222 47.482 183.782 47.6646 183.268 47.6646ZM192.012 62.4259C190.867 62.4259 189.871 62.1604 189.025 61.6293C188.195 61.0983 187.548 60.3432 187.083 59.3641C186.619 58.385 186.386 57.2316 186.386 55.904C186.386 54.5598 186.619 53.4065 187.083 52.444C187.548 51.4649 188.195 50.7098 189.025 50.1787C189.871 49.6477 190.867 49.3822 192.012 49.3822C192.825 49.3822 193.547 49.5564 194.178 49.9049C194.825 50.2368 195.348 50.7181 195.746 51.3487V44.7024H199.032V62.1272H195.92L195.821 60.3847C195.406 61.0319 194.875 61.5381 194.227 61.9032C193.58 62.2517 192.842 62.4259 192.012 62.4259ZM192.858 59.4139C193.406 59.4139 193.887 59.2811 194.302 59.0156C194.734 58.7335 195.074 58.3435 195.323 57.8457C195.572 57.3478 195.713 56.7836 195.746 56.153V55.6551C195.713 55.0245 195.572 54.4686 195.323 53.9873C195.074 53.4895 194.734 53.1078 194.302 52.8422C193.871 52.5601 193.381 52.4191 192.833 52.4191C192.236 52.4191 191.705 52.5684 191.24 52.8671C190.792 53.1493 190.435 53.5558 190.17 54.0869C189.921 54.6179 189.797 55.2236 189.797 55.904C189.797 56.5844 189.929 57.1902 190.195 57.7212C190.46 58.2522 190.817 58.6671 191.265 58.9658C191.73 59.2645 192.261 59.4139 192.858 59.4139ZM206.606 62.4259C205.378 62.4259 204.291 62.1521 203.345 61.6045C202.399 61.0402 201.653 60.2685 201.105 59.2894C200.574 58.3103 200.308 57.1819 200.308 55.904C200.308 54.6262 200.582 53.4978 201.13 52.5186C201.694 51.5395 202.457 50.7762 203.42 50.2285C204.399 49.6643 205.519 49.3822 206.78 49.3822C207.876 49.3822 208.88 49.6726 209.792 50.2534C210.722 50.8176 211.46 51.6557 212.008 52.7676C212.572 53.8628 212.854 55.1987 212.854 56.7753H203.744C203.826 57.605 204.183 58.2688 204.814 58.7667C205.444 59.2479 206.158 59.4886 206.955 59.4886C207.635 59.4886 208.191 59.3475 208.622 59.0654C209.054 58.7667 209.386 58.385 209.618 57.9203L212.555 59.0654C212.207 59.7624 211.751 60.3681 211.186 60.8826C210.639 61.3804 209.983 61.7621 209.22 62.0276C208.457 62.2931 207.585 62.4259 206.606 62.4259ZM203.918 54.3358H209.295C209.245 53.8214 209.079 53.4065 208.797 53.0912C208.515 52.7759 208.183 52.5435 207.801 52.3942C207.419 52.2448 207.046 52.1701 206.681 52.1701C206.332 52.1701 205.951 52.2448 205.536 52.3942C205.137 52.5269 204.781 52.751 204.465 53.0663C204.167 53.3816 203.984 53.8048 203.918 54.3358ZM219.731 62.4259C218.47 62.4259 217.342 62.1521 216.346 61.6045C215.367 61.0402 214.595 60.2685 214.031 59.2894C213.483 58.3103 213.209 57.1819 213.209 55.904C213.209 54.6262 213.483 53.4978 214.031 52.5186C214.579 51.5395 215.342 50.7762 216.321 50.2285C217.3 49.6643 218.42 49.3822 219.682 49.3822C220.959 49.3822 222.088 49.6643 223.067 50.2285C224.046 50.7762 224.809 51.5395 225.357 52.5186C225.905 53.4978 226.178 54.6262 226.178 55.904C226.178 57.1819 225.905 58.3103 225.357 59.2894C224.809 60.2685 224.046 61.0402 223.067 61.6045C222.104 62.1521 220.993 62.4259 219.731 62.4259ZM219.731 59.389C220.345 59.389 220.885 59.2397 221.349 58.9409C221.814 58.6422 222.171 58.2356 222.42 57.7212C222.685 57.1902 222.818 56.5844 222.818 55.904C222.818 55.2236 222.685 54.6262 222.42 54.1118C222.154 53.5807 221.781 53.1658 221.3 52.8671C220.835 52.5684 220.296 52.4191 219.682 52.4191C219.084 52.4191 218.545 52.5684 218.063 52.8671C217.599 53.1658 217.234 53.5807 216.968 54.1118C216.703 54.6262 216.57 55.2236 216.57 55.904C216.57 56.5844 216.703 57.1902 216.968 57.7212C217.234 58.2356 217.607 58.6422 218.088 58.9409C218.57 59.2397 219.117 59.389 219.731 59.389Z" fill="#8FCE79"/>
<path d="M100.553 109.818L107.467 143.479C107.604 144.143 106.925 144.843 105.952 145.043L56.6211 155.176C55.6481 155.376 54.7488 155 54.6124 154.336L47.6981 120.675C47.5617 120.011 48.24 119.31 49.213 119.111L98.5441 108.978C99.5172 108.778 100.417 109.154 100.553 109.818Z" fill="#8FCE79" stroke="#8FCE79" stroke-width="2.90422" stroke-linecap="round" stroke-linejoin="round"/>
<path d="M73.443 125.584C72.5398 125.288 71.6539 126.078 71.8451 127.009L74.3077 138.997C74.4989 139.929 75.6246 140.306 76.338 139.678L85.5966 131.529C86.3156 130.896 86.0743 129.721 85.1641 129.423L73.443 125.584Z" fill="black"/>
<path d="M55.4237 234.773C54.2992 234.773 53.1395 234.585 51.9446 234.211C50.7732 233.836 49.7072 233.273 48.7466 232.524C47.8095 231.774 47.1184 230.849 46.6732 229.747L51.066 228.447C51.5815 229.197 52.1906 229.747 52.8935 230.099C53.6197 230.45 54.3694 230.626 55.1426 230.626C56.3609 230.626 57.3448 230.263 58.0946 229.537C58.8677 228.787 59.2543 227.791 59.2543 226.549C59.2543 225.401 58.8794 224.441 58.1297 223.668C57.4034 222.895 56.4311 222.508 55.2129 222.508C54.4866 222.508 53.8189 222.672 53.2097 223C52.6006 223.328 52.132 223.715 51.804 224.16L47.4815 223.211L48.9575 209.751H62.8739V214.109H53.0692L52.3663 220.013C52.9989 219.661 53.7017 219.38 54.4749 219.169C55.248 218.935 56.0797 218.83 56.97 218.853C58.3054 218.853 59.5237 219.181 60.6248 219.837C61.7259 220.47 62.5928 221.348 63.2254 222.473C63.8814 223.574 64.2094 224.863 64.2094 226.339C64.2094 228.002 63.8345 229.466 63.0848 230.731C62.3351 231.997 61.3042 232.992 59.9922 233.719C58.6803 234.421 57.1574 234.773 55.4237 234.773ZM76.6714 234.351V229.501H65.2149V225.671L76.1091 209.751H81.2048V225.39H85.4922V229.501H81.2048V234.351H76.6714ZM70.17 225.39H76.6714V215.866L70.17 225.39ZM86.3135 238.357L88.4572 230.064H93.2717L89.8278 238.357H86.3135ZM103.582 234.773C101.919 234.773 100.502 234.48 99.3302 233.894C98.1822 233.285 97.2333 232.453 96.4836 231.399C95.7573 230.345 95.2185 229.127 94.867 227.744C94.5391 226.339 94.3751 224.827 94.3751 223.211C94.3751 221.337 94.5742 219.568 94.9725 217.904C95.3708 216.218 95.9682 214.73 96.7647 213.441C97.5847 212.153 98.6273 211.145 99.8924 210.419C101.158 209.693 102.68 209.33 104.461 209.33C105.75 209.33 107.003 209.517 108.221 209.892C109.463 210.267 110.576 210.806 111.56 211.508L109.17 215.023C108.444 214.507 107.659 214.132 106.816 213.898C105.996 213.664 105.234 213.547 104.531 213.547C102.727 213.547 101.31 214.343 100.279 215.936C99.2482 217.53 98.7562 220.048 98.803 223.492L97.8542 222.824C98.393 221.536 99.2247 220.505 100.349 219.732C101.474 218.959 102.809 218.572 104.356 218.572C105.925 218.572 107.308 218.935 108.502 219.661C109.721 220.388 110.669 221.383 111.349 222.649C112.052 223.89 112.403 225.284 112.403 226.831C112.403 228.353 112.04 229.724 111.314 230.942C110.587 232.137 109.557 233.074 108.221 233.754C106.909 234.433 105.363 234.773 103.582 234.773ZM103.582 230.696C104.356 230.696 105.047 230.521 105.656 230.169C106.265 229.818 106.745 229.337 107.097 228.728C107.448 228.119 107.624 227.416 107.624 226.62C107.624 225.823 107.448 225.12 107.097 224.511C106.745 223.879 106.265 223.387 105.656 223.035C105.047 222.66 104.356 222.473 103.582 222.473C102.809 222.473 102.106 222.66 101.474 223.035C100.865 223.387 100.384 223.879 100.033 224.511C99.6816 225.12 99.5059 225.823 99.5059 226.62C99.5059 227.416 99.6816 228.119 100.033 228.728C100.384 229.337 100.865 229.818 101.474 230.169C102.106 230.521 102.809 230.696 103.582 230.696ZM116.727 237.759C116.119 237.759 115.58 237.716 115.111 237.631C114.641 237.546 114.247 237.434 113.927 237.295C113.607 237.156 113.345 237.018 113.143 236.879L113.975 235.183C114.124 235.268 114.321 235.364 114.567 235.471C114.812 235.588 115.105 235.684 115.447 235.759C115.788 235.844 116.183 235.887 116.631 235.887C117.057 235.887 117.431 235.802 117.751 235.631C118.081 235.471 118.337 235.215 118.519 234.863C118.711 234.522 118.807 234.084 118.807 233.551V232.783C118.54 233.199 118.193 233.53 117.767 233.775C117.34 234.01 116.855 234.127 116.311 234.127C115.575 234.127 114.935 233.967 114.391 233.647C113.857 233.327 113.441 232.879 113.143 232.303C112.844 231.727 112.695 231.044 112.695 230.255C112.695 229.423 112.844 228.703 113.143 228.095C113.441 227.476 113.857 227.002 114.391 226.671C114.935 226.33 115.575 226.159 116.311 226.159C116.855 226.159 117.34 226.287 117.767 226.543C118.193 226.788 118.54 227.14 118.807 227.599V226.351H120.919V233.487C120.919 234.383 120.748 235.151 120.407 235.791C120.065 236.442 119.58 236.932 118.951 237.263C118.332 237.594 117.591 237.759 116.727 237.759ZM116.919 232.351C117.281 232.351 117.596 232.26 117.863 232.079C118.14 231.887 118.353 231.631 118.503 231.311C118.652 230.98 118.727 230.607 118.727 230.191C118.727 229.764 118.647 229.391 118.487 229.071C118.337 228.751 118.124 228.5 117.847 228.319C117.58 228.138 117.265 228.047 116.903 228.047C116.529 228.047 116.199 228.138 115.911 228.319C115.623 228.5 115.399 228.751 115.239 229.071C115.079 229.391 114.993 229.764 114.983 230.191C114.993 230.607 115.079 230.98 115.239 231.311C115.399 231.631 115.623 231.887 115.911 232.079C116.209 232.26 116.545 232.351 116.919 232.351ZM129.306 234.543C128.218 234.543 127.252 234.298 126.41 233.807C125.567 233.306 124.906 232.623 124.426 231.759C123.946 230.884 123.706 229.882 123.706 228.751C123.706 227.62 123.946 226.623 124.426 225.759C124.906 224.884 125.562 224.202 126.394 223.711C127.236 223.21 128.202 222.959 129.29 222.959C130.058 222.959 130.772 223.098 131.434 223.375C132.095 223.642 132.671 224.02 133.162 224.511C133.663 224.991 134.047 225.546 134.314 226.175L132.282 226.927C132.1 226.532 131.86 226.191 131.562 225.903C131.263 225.604 130.922 225.375 130.538 225.215C130.154 225.044 129.738 224.959 129.29 224.959C128.639 224.959 128.058 225.124 127.546 225.455C127.044 225.775 126.65 226.218 126.362 226.783C126.084 227.348 125.946 228.004 125.946 228.751C125.946 229.498 126.09 230.159 126.378 230.735C126.666 231.3 127.066 231.748 127.578 232.079C128.09 232.399 128.676 232.559 129.338 232.559C129.796 232.559 130.212 232.474 130.586 232.303C130.97 232.122 131.306 231.876 131.594 231.567C131.892 231.258 132.132 230.9 132.314 230.495L134.346 231.231C134.079 231.882 133.695 232.458 133.194 232.959C132.703 233.46 132.127 233.85 131.466 234.127C130.804 234.404 130.084 234.543 129.306 234.543ZM139.83 234.543C138.699 234.543 137.697 234.298 136.822 233.807C135.958 233.306 135.281 232.623 134.79 231.759C134.299 230.884 134.054 229.887 134.054 228.767C134.054 227.626 134.299 226.623 134.79 225.759C135.281 224.884 135.953 224.202 136.806 223.711C137.67 223.22 138.662 222.975 139.782 222.975C140.913 222.975 141.905 223.226 142.758 223.727C143.622 224.218 144.299 224.9 144.79 225.775C145.281 226.639 145.526 227.636 145.526 228.767C145.526 229.887 145.281 230.884 144.79 231.759C144.31 232.623 143.638 233.306 142.774 233.807C141.921 234.298 140.939 234.543 139.83 234.543ZM139.83 232.543C140.513 232.543 141.11 232.383 141.622 232.063C142.145 231.732 142.55 231.284 142.838 230.719C143.137 230.154 143.286 229.503 143.286 228.767C143.286 228.02 143.137 227.364 142.838 226.799C142.539 226.234 142.129 225.791 141.606 225.471C141.083 225.14 140.475 224.975 139.782 224.975C139.11 224.975 138.507 225.14 137.974 225.471C137.451 225.791 137.041 226.234 136.742 226.799C136.443 227.364 136.294 228.02 136.294 228.767C136.294 229.503 136.443 230.154 136.742 230.719C137.041 231.284 137.457 231.732 137.99 232.063C138.523 232.383 139.137 232.543 139.83 232.543ZM146.922 235.055L145.37 234.815C145.37 234.644 145.434 234.447 145.562 234.223C145.69 233.988 145.866 233.754 146.09 233.519C146.325 233.284 146.586 233.066 146.874 232.863L147.69 232.303C147.882 232.175 148.069 232.02 148.25 231.839C148.432 231.658 148.522 231.471 148.522 231.279C148.522 231.066 148.448 230.895 148.298 230.767C148.149 230.628 147.925 230.559 147.626 230.559C147.402 230.559 147.21 230.634 147.05 230.783C146.901 230.922 146.8 231.087 146.746 231.279L145.114 231.007C145.178 230.666 145.317 230.356 145.53 230.079C145.754 229.791 146.042 229.556 146.394 229.375C146.757 229.194 147.168 229.103 147.626 229.103C148.405 229.103 149.018 229.306 149.466 229.711C149.914 230.106 150.138 230.623 150.138 231.263C150.138 231.722 150.01 232.111 149.754 232.431C149.509 232.751 149.184 233.05 148.778 233.327L147.962 233.887C147.813 233.994 147.664 234.122 147.514 234.271C147.365 234.41 147.232 234.548 147.114 234.687C147.008 234.836 146.944 234.959 146.922 235.055ZM145.37 235.951V234.815L146.538 234.559H150.218V235.951H145.37ZM154 234.543C153.21 234.543 152.512 234.367 151.904 234.015C151.296 233.652 150.816 233.156 150.464 232.527C150.122 231.898 149.952 231.172 149.952 230.351C149.952 229.53 150.128 228.804 150.48 228.175C150.842 227.546 151.333 227.055 151.952 226.703C152.581 226.34 153.301 226.159 154.112 226.159C154.816 226.159 155.461 226.346 156.048 226.719C156.645 227.082 157.12 227.62 157.472 228.335C157.834 229.039 158.016 229.898 158.016 230.911H152.16C152.213 231.444 152.442 231.871 152.848 232.191C153.253 232.5 153.712 232.655 154.224 232.655C154.661 232.655 155.018 232.564 155.296 232.383C155.573 232.191 155.786 231.946 155.936 231.647L157.824 232.383C157.6 232.831 157.306 233.22 156.944 233.551C156.592 233.871 156.17 234.116 155.68 234.287C155.189 234.458 154.629 234.543 154 234.543ZM152.272 229.343H155.728C155.696 229.012 155.589 228.746 155.408 228.543C155.226 228.34 155.013 228.191 154.768 228.095C154.522 227.999 154.282 227.951 154.048 227.951C153.824 227.951 153.578 227.999 153.312 228.095C153.056 228.18 152.826 228.324 152.624 228.527C152.432 228.73 152.314 229.002 152.272 229.343Z" fill="#8FCE79"/>
<path d="M185.57 223.118V218.569H208.036V223.118H185.57ZM185.57 234.351V229.802H208.036V234.351H185.57Z" fill="#8FCE79"/>
<g clip-path="url(#clip0_532_1408)">
<path d="M286.569 100.949L274.175 119.632L255.492 107.239" stroke="#8FCE79" stroke-width="6.3413" stroke-linecap="round" stroke-linejoin="round"/>
<path d="M299.035 114.601L249.313 124.664C245.88 125.359 243.661 128.705 244.356 132.137L251.274 166.322C251.968 169.754 255.314 171.974 258.747 171.279L308.469 161.216C311.902 160.521 314.121 157.176 313.427 153.743L306.508 119.559C305.814 116.126 302.468 113.907 299.035 114.601Z" stroke="#8FCE79" stroke-width="6.3413" stroke-linecap="round" stroke-linejoin="round"/>
<path d="M272.783 151.741L270.458 138.806C269.957 139.3 269.424 139.716 268.861 140.054C268.295 140.375 267.691 140.576 267.048 140.658L266.502 137.62C266.916 137.579 267.339 137.402 267.772 137.088C268.201 136.758 268.611 136.364 269.001 135.906C269.404 135.429 269.76 134.969 270.068 134.525L272.91 134.015L275.993 151.165L272.783 151.741ZM278.894 150.643L275.811 133.493L279.045 132.912L280.208 139.38C280.508 138.702 280.932 138.153 281.481 137.735C282.026 137.299 282.675 137.014 283.426 136.879C284.406 136.703 285.266 136.75 286.006 137.022C286.763 137.291 287.395 137.809 287.904 138.578C288.411 139.33 288.781 140.359 289.016 141.666L290.262 148.599L287.028 149.181L285.901 142.909C285.751 142.076 285.537 141.448 285.259 141.026C284.981 140.604 284.653 140.326 284.274 140.191C283.893 140.041 283.474 140.006 283.017 140.089C282.181 140.222 281.581 140.591 281.218 141.196C280.871 141.798 280.79 142.614 280.975 143.643L282.128 150.062L278.894 150.643Z" fill="#8FCE79"/>
</g>
<path d="M237.335 207.351V194.208C236.754 194.606 236.156 194.921 235.542 195.154C234.928 195.369 234.298 195.461 233.65 195.428V192.341C234.065 192.374 234.513 192.274 234.995 192.042C235.476 191.793 235.949 191.478 236.414 191.096C236.895 190.698 237.326 190.308 237.708 189.926H240.595V207.351H237.335ZM248.593 207.351V189.926H251.879V196.498C252.294 195.884 252.808 195.419 253.422 195.104C254.036 194.772 254.725 194.606 255.488 194.606C256.484 194.606 257.322 194.805 258.002 195.203C258.699 195.602 259.23 196.224 259.595 197.07C259.96 197.9 260.143 198.979 260.143 200.306V207.351H256.857V200.979C256.857 200.132 256.758 199.477 256.558 199.012C256.359 198.547 256.086 198.215 255.737 198.016C255.389 197.801 254.982 197.693 254.517 197.693C253.671 197.676 253.015 197.933 252.551 198.464C252.103 198.995 251.879 199.784 251.879 200.829V207.351H248.593ZM267.732 207.65C266.471 207.65 265.342 207.376 264.347 206.828C263.368 206.264 262.596 205.492 262.032 204.513C261.484 203.534 261.21 202.406 261.21 201.128C261.21 199.85 261.484 198.722 262.032 197.743C262.579 196.763 263.343 196 264.322 195.452C265.301 194.888 266.421 194.606 267.682 194.606C268.96 194.606 270.089 194.888 271.068 195.452C272.047 196 272.81 196.763 273.358 197.743C273.905 198.722 274.179 199.85 274.179 201.128C274.179 202.406 273.905 203.534 273.358 204.513C272.81 205.492 272.047 206.264 271.068 206.828C270.105 207.376 268.993 207.65 267.732 207.65ZM267.732 204.613C268.346 204.613 268.885 204.464 269.35 204.165C269.815 203.866 270.172 203.46 270.421 202.945C270.686 202.414 270.819 201.808 270.819 201.128C270.819 200.448 270.686 199.85 270.421 199.336C270.155 198.805 269.782 198.39 269.3 198.091C268.836 197.792 268.296 197.643 267.682 197.643C267.085 197.643 266.546 197.792 266.064 198.091C265.6 198.39 265.235 198.805 264.969 199.336C264.703 199.85 264.571 200.448 264.571 201.128C264.571 201.808 264.703 202.414 264.969 202.945C265.235 203.46 265.608 203.866 266.089 204.165C266.57 204.464 267.118 204.613 267.732 204.613ZM279.895 207.65C278.899 207.65 278.053 207.451 277.356 207.052C276.676 206.654 276.153 206.04 275.788 205.21C275.423 204.364 275.24 203.277 275.24 201.949V194.905H278.526V201.277C278.526 202.107 278.617 202.763 278.8 203.244C278.999 203.708 279.273 204.049 279.621 204.264C279.986 204.464 280.393 204.563 280.841 204.563C281.704 204.58 282.359 204.322 282.807 203.791C283.255 203.244 283.48 202.456 283.48 201.427V194.905H286.765V207.351H283.679L283.554 205.658C283.139 206.289 282.617 206.779 281.986 207.127C281.372 207.476 280.675 207.65 279.895 207.65ZM288.73 207.351V194.905H292.016V197.195C292.53 196.415 293.177 195.834 293.957 195.452C294.754 195.054 295.575 194.855 296.422 194.855V198.041C295.658 198.041 294.936 198.133 294.256 198.315C293.592 198.498 293.053 198.796 292.638 199.211C292.223 199.626 292.016 200.157 292.016 200.804V207.351H288.73ZM308.179 207.65C306.917 207.65 305.789 207.376 304.793 206.828C303.814 206.264 303.042 205.492 302.478 204.513C301.931 203.534 301.657 202.406 301.657 201.128C301.657 199.85 301.931 198.722 302.478 197.743C303.026 196.763 303.789 196 304.768 195.452C305.747 194.888 306.868 194.606 308.129 194.606C309.407 194.606 310.535 194.888 311.514 195.452C312.493 196 313.257 196.763 313.804 197.743C314.352 198.722 314.626 199.85 314.626 201.128C314.626 202.406 314.352 203.534 313.804 204.513C313.257 205.492 312.493 206.264 311.514 206.828C310.552 207.376 309.44 207.65 308.179 207.65ZM308.179 204.613C308.793 204.613 309.332 204.464 309.797 204.165C310.261 203.866 310.618 203.46 310.867 202.945C311.133 202.414 311.265 201.808 311.265 201.128C311.265 200.448 311.133 199.85 310.867 199.336C310.602 198.805 310.228 198.39 309.747 198.091C309.282 197.792 308.743 197.643 308.129 197.643C307.531 197.643 306.992 197.792 306.511 198.091C306.046 198.39 305.681 198.805 305.416 199.336C305.15 199.85 305.017 200.448 305.017 201.128C305.017 201.808 305.15 202.414 305.416 202.945C305.681 203.46 306.054 203.866 306.536 204.165C307.017 204.464 307.565 204.613 308.179 204.613ZM317.155 207.351V197.543H315.089V194.905H317.155V193.66C317.155 192.333 317.495 191.304 318.176 190.573C318.856 189.827 319.893 189.453 321.287 189.453C321.769 189.453 322.275 189.536 322.806 189.702C323.354 189.868 323.851 190.067 324.299 190.3L323.08 192.664C322.814 192.532 322.574 192.432 322.358 192.366C322.142 192.299 321.943 192.266 321.76 192.266C321.312 192.266 320.98 192.424 320.765 192.739C320.549 193.038 320.441 193.527 320.441 194.208V194.905H323.503V197.543H320.441V207.351H317.155ZM333.708 207.351L328.605 194.905H331.991L335.351 203.592L338.712 194.905H342.097L336.994 207.351H333.708ZM342.999 207.351V194.905H346.285V207.351H342.999ZM344.642 192.888C344.144 192.888 343.704 192.706 343.322 192.341C342.941 191.959 342.75 191.511 342.75 190.997C342.75 190.482 342.941 190.042 343.322 189.677C343.704 189.296 344.144 189.105 344.642 189.105C345.156 189.105 345.596 189.296 345.961 189.677C346.343 190.042 346.534 190.482 346.534 190.997C346.534 191.511 346.343 191.959 345.961 192.341C345.596 192.706 345.156 192.888 344.642 192.888ZM353.386 207.65C352.241 207.65 351.245 207.384 350.399 206.853C349.569 206.322 348.922 205.567 348.457 204.588C347.993 203.609 347.76 202.456 347.76 201.128C347.76 199.784 347.993 198.63 348.457 197.668C348.922 196.689 349.569 195.934 350.399 195.403C351.245 194.872 352.241 194.606 353.386 194.606C354.199 194.606 354.921 194.78 355.552 195.129C356.199 195.461 356.722 195.942 357.12 196.573V189.926H360.406V207.351H357.294L357.195 205.609C356.78 206.256 356.249 206.762 355.601 207.127C354.954 207.476 354.216 207.65 353.386 207.65ZM354.232 204.638C354.78 204.638 355.261 204.505 355.676 204.239C356.108 203.957 356.448 203.567 356.697 203.07C356.946 202.572 357.087 202.007 357.12 201.377V200.879C357.087 200.248 356.946 199.692 356.697 199.211C356.448 198.713 356.108 198.332 355.676 198.066C355.245 197.784 354.755 197.643 354.207 197.643C353.61 197.643 353.079 197.792 352.614 198.091C352.166 198.373 351.809 198.78 351.544 199.311C351.295 199.842 351.171 200.448 351.171 201.128C351.171 201.808 351.303 202.414 351.569 202.945C351.834 203.476 352.191 203.891 352.639 204.19C353.104 204.488 353.635 204.638 354.232 204.638ZM367.98 207.65C366.752 207.65 365.665 207.376 364.719 206.828C363.773 206.264 363.027 205.492 362.479 204.513C361.948 203.534 361.682 202.406 361.682 201.128C361.682 199.85 361.956 198.722 362.504 197.743C363.068 196.763 363.831 196 364.794 195.452C365.773 194.888 366.893 194.606 368.154 194.606C369.25 194.606 370.254 194.896 371.166 195.477C372.096 196.042 372.834 196.88 373.382 197.991C373.946 199.087 374.228 200.423 374.228 201.999H365.118C365.201 202.829 365.557 203.493 366.188 203.991C366.819 204.472 367.532 204.712 368.329 204.712C369.009 204.712 369.565 204.571 369.996 204.289C370.428 203.991 370.76 203.609 370.992 203.144L373.93 204.289C373.581 204.986 373.125 205.592 372.56 206.106C372.013 206.604 371.357 206.986 370.594 207.252C369.831 207.517 368.959 207.65 367.98 207.65ZM365.292 199.56H370.669C370.619 199.045 370.453 198.63 370.171 198.315C369.889 198 369.557 197.767 369.175 197.618C368.793 197.469 368.42 197.394 368.055 197.394C367.706 197.394 367.325 197.469 366.91 197.618C366.512 197.751 366.155 197.975 365.839 198.29C365.541 198.605 365.358 199.029 365.292 199.56ZM381.105 207.65C379.844 207.65 378.716 207.376 377.72 206.828C376.741 206.264 375.969 205.492 375.405 204.513C374.857 203.534 374.583 202.406 374.583 201.128C374.583 199.85 374.857 198.722 375.405 197.743C375.953 196.763 376.716 196 377.695 195.452C378.674 194.888 379.794 194.606 381.056 194.606C382.333 194.606 383.462 194.888 384.441 195.452C385.42 196 386.183 196.763 386.731 197.743C387.279 198.722 387.553 199.85 387.553 201.128C387.553 202.406 387.279 203.534 386.731 204.513C386.183 205.492 385.42 206.264 384.441 206.828C383.478 207.376 382.367 207.65 381.105 207.65ZM381.105 204.613C381.719 204.613 382.259 204.464 382.723 204.165C383.188 203.866 383.545 203.46 383.794 202.945C384.059 202.414 384.192 201.808 384.192 201.128C384.192 200.448 384.059 199.85 383.794 199.336C383.528 198.805 383.155 198.39 382.674 198.091C382.209 197.792 381.67 197.643 381.056 197.643C380.458 197.643 379.919 197.792 379.438 198.091C378.973 198.39 378.608 198.805 378.342 199.336C378.077 199.85 377.944 200.448 377.944 201.128C377.944 201.808 378.077 202.414 378.342 202.945C378.608 203.46 378.981 203.866 379.462 204.165C379.944 204.464 380.491 204.613 381.105 204.613ZM238.554 234.65C237.758 234.65 237.011 234.534 236.314 234.301C235.617 234.052 235.003 233.704 234.472 233.256C233.941 232.791 233.526 232.227 233.227 231.563L236.04 230.269C236.289 230.667 236.629 231.015 237.061 231.314C237.492 231.596 237.99 231.737 238.554 231.737C239.102 231.737 239.525 231.663 239.824 231.513C240.123 231.347 240.272 231.115 240.272 230.816C240.272 230.518 240.147 230.302 239.898 230.169C239.666 230.02 239.343 229.895 238.928 229.796L237.783 229.497C236.588 229.182 235.642 228.684 234.945 228.003C234.264 227.306 233.924 226.51 233.924 225.614C233.924 224.336 234.331 223.349 235.144 222.652C235.974 221.955 237.144 221.606 238.654 221.606C239.434 221.606 240.156 221.722 240.82 221.955C241.5 222.187 242.081 222.51 242.562 222.925C243.043 223.34 243.375 223.821 243.558 224.369L240.844 225.614C240.728 225.282 240.446 225.016 239.998 224.817C239.55 224.601 239.102 224.494 238.654 224.494C238.206 224.494 237.857 224.593 237.608 224.792C237.376 224.975 237.26 225.232 237.26 225.564C237.26 225.78 237.376 225.962 237.608 226.112C237.841 226.244 238.173 226.361 238.604 226.46L240.222 226.858C241.035 227.058 241.682 227.381 242.164 227.829C242.662 228.261 243.018 228.75 243.234 229.298C243.466 229.829 243.583 230.352 243.583 230.866C243.583 231.613 243.359 232.277 242.91 232.858C242.479 233.422 241.882 233.862 241.118 234.177C240.371 234.492 239.517 234.65 238.554 234.65ZM249.741 234.65C248.363 234.65 247.318 234.31 246.604 233.629C245.907 232.949 245.559 231.978 245.559 230.717V224.693H243.542V221.905H245.559V218.022H248.844V221.905H251.956V224.693H248.844V229.995C248.844 230.526 248.961 230.932 249.193 231.215C249.425 231.48 249.765 231.613 250.213 231.613C250.379 231.613 250.562 231.58 250.761 231.513C250.96 231.43 251.168 231.314 251.383 231.165L252.528 233.629C252.13 233.928 251.682 234.169 251.184 234.351C250.703 234.55 250.222 234.65 249.741 234.65ZM253.746 234.351V221.905H257.032V224.195C257.546 223.415 258.193 222.834 258.973 222.452C259.77 222.054 260.591 221.855 261.438 221.855V225.041C260.674 225.041 259.952 225.133 259.272 225.315C258.608 225.498 258.069 225.796 257.654 226.211C257.239 226.626 257.032 227.157 257.032 227.804V234.351H253.746ZM267.921 234.65C266.693 234.65 265.606 234.376 264.66 233.828C263.714 233.264 262.968 232.492 262.42 231.513C261.889 230.534 261.623 229.406 261.623 228.128C261.623 226.85 261.897 225.722 262.445 224.743C263.009 223.763 263.773 223 264.735 222.452C265.714 221.888 266.834 221.606 268.096 221.606C269.191 221.606 270.195 221.896 271.108 222.477C272.037 223.042 272.775 223.88 273.323 224.991C273.887 226.087 274.169 227.423 274.169 228.999H265.059C265.142 229.829 265.498 230.493 266.129 230.991C266.76 231.472 267.473 231.712 268.27 231.712C268.95 231.712 269.506 231.571 269.938 231.289C270.369 230.991 270.701 230.609 270.933 230.144L273.871 231.289C273.522 231.986 273.066 232.592 272.502 233.106C271.954 233.604 271.298 233.986 270.535 234.252C269.772 234.517 268.9 234.65 267.921 234.65ZM265.233 226.56H270.61C270.56 226.045 270.394 225.63 270.112 225.315C269.83 225 269.498 224.767 269.116 224.618C268.734 224.469 268.361 224.394 267.996 224.394C267.648 224.394 267.266 224.469 266.851 224.618C266.453 224.751 266.096 224.975 265.781 225.29C265.482 225.605 265.299 226.029 265.233 226.56ZM279.229 234.65C277.736 234.65 276.574 234.318 275.744 233.654C274.931 232.99 274.525 232.053 274.525 230.841C274.525 229.514 274.964 228.518 275.844 227.854C276.74 227.174 277.993 226.833 279.603 226.833H282.54C282.424 226.07 282.183 225.489 281.818 225.091C281.453 224.676 280.93 224.469 280.25 224.469C279.719 224.469 279.238 224.585 278.806 224.817C278.375 225.05 278.01 225.406 277.711 225.888L274.823 224.892C275.056 224.361 275.396 223.846 275.844 223.349C276.292 222.834 276.873 222.419 277.586 222.104C278.317 221.772 279.204 221.606 280.25 221.606C281.511 221.606 282.557 221.847 283.386 222.328C284.233 222.809 284.855 223.49 285.253 224.369C285.668 225.232 285.867 226.261 285.851 227.456L285.776 234.351H282.714L282.664 232.907C282.349 233.472 281.901 233.903 281.32 234.202C280.756 234.5 280.059 234.65 279.229 234.65ZM279.777 231.912C280.308 231.912 280.789 231.787 281.221 231.538C281.652 231.289 281.992 230.966 282.241 230.567C282.49 230.169 282.615 229.754 282.615 229.323V229.273H280.748C279.669 229.273 278.922 229.406 278.507 229.671C278.093 229.92 277.885 230.277 277.885 230.742C277.885 231.107 278.051 231.397 278.383 231.613C278.715 231.812 279.18 231.912 279.777 231.912ZM287.587 234.351V221.905H290.674L290.823 223.523C291.205 222.892 291.695 222.419 292.292 222.104C292.889 221.772 293.553 221.606 294.283 221.606C295.296 221.606 296.142 221.822 296.822 222.253C297.519 222.685 298.026 223.349 298.341 224.245C298.706 223.398 299.22 222.751 299.884 222.303C300.548 221.838 301.32 221.606 302.199 221.606C303.66 221.606 304.772 222.071 305.535 223C306.298 223.913 306.68 225.323 306.68 227.232V234.351H303.394V227.979C303.394 227.132 303.303 226.477 303.12 226.012C302.938 225.547 302.689 225.215 302.374 225.016C302.058 224.801 301.685 224.693 301.253 224.693C300.457 224.676 299.843 224.933 299.411 225.464C298.98 225.995 298.764 226.784 298.764 227.829V234.351H295.478V227.979C295.478 227.132 295.387 226.477 295.204 226.012C295.039 225.547 294.79 225.215 294.458 225.016C294.142 224.801 293.769 224.693 293.338 224.693C292.541 224.676 291.927 224.933 291.495 225.464C291.081 225.995 290.873 226.784 290.873 227.829V234.351H287.587ZM308.612 234.351V221.905H311.898V234.351H308.612ZM310.255 219.888C309.757 219.888 309.318 219.706 308.936 219.341C308.554 218.959 308.363 218.511 308.363 217.997C308.363 217.482 308.554 217.042 308.936 216.677C309.318 216.296 309.757 216.105 310.255 216.105C310.77 216.105 311.21 216.296 311.575 216.677C311.956 217.042 312.147 217.482 312.147 217.997C312.147 218.511 311.956 218.959 311.575 219.341C311.21 219.706 310.77 219.888 310.255 219.888ZM314.046 234.351V221.905H317.133L317.282 223.597C317.68 222.95 318.186 222.461 318.8 222.129C319.431 221.78 320.145 221.606 320.941 221.606C321.92 221.606 322.758 221.805 323.455 222.203C324.152 222.602 324.683 223.224 325.048 224.07C325.414 224.9 325.588 225.979 325.571 227.306V234.351H322.285V227.979C322.285 227.132 322.186 226.477 321.987 226.012C321.804 225.547 321.539 225.215 321.19 225.016C320.842 224.801 320.435 224.693 319.97 224.693C319.124 224.676 318.468 224.933 318.004 225.464C317.556 225.995 317.332 226.784 317.332 227.829V234.351H314.046ZM332.912 239.653C331.967 239.653 331.129 239.587 330.398 239.454C329.668 239.321 329.054 239.147 328.556 238.931C328.058 238.716 327.652 238.5 327.337 238.284L328.631 235.645C328.863 235.778 329.17 235.928 329.552 236.094C329.934 236.276 330.39 236.425 330.921 236.542C331.452 236.674 332.066 236.741 332.763 236.741C333.427 236.741 334.008 236.608 334.506 236.342C335.02 236.094 335.418 235.695 335.7 235.148C335.999 234.617 336.149 233.936 336.149 233.106V231.912C335.734 232.559 335.194 233.073 334.531 233.455C333.867 233.82 333.112 234.003 332.265 234.003C331.12 234.003 330.125 233.754 329.278 233.256C328.448 232.758 327.801 232.061 327.337 231.165C326.872 230.269 326.64 229.207 326.64 227.979C326.64 226.684 326.872 225.564 327.337 224.618C327.801 223.656 328.448 222.917 329.278 222.403C330.125 221.872 331.12 221.606 332.265 221.606C333.112 221.606 333.867 221.805 334.531 222.203C335.194 222.585 335.734 223.133 336.149 223.846V221.905H339.434V233.007C339.434 234.401 339.169 235.596 338.638 236.591C338.107 237.604 337.352 238.367 336.373 238.882C335.41 239.396 334.257 239.653 332.912 239.653ZM333.211 231.239C333.775 231.239 334.265 231.098 334.68 230.816C335.111 230.518 335.443 230.119 335.676 229.621C335.908 229.107 336.024 228.526 336.024 227.879C336.024 227.215 335.9 226.634 335.651 226.137C335.418 225.639 335.086 225.249 334.655 224.967C334.24 224.684 333.751 224.543 333.186 224.543C332.605 224.543 332.091 224.684 331.643 224.967C331.195 225.249 330.846 225.639 330.597 226.137C330.349 226.634 330.216 227.215 330.199 227.879C330.216 228.526 330.349 229.107 330.597 229.621C330.846 230.119 331.195 230.518 331.643 230.816C332.108 231.098 332.63 231.239 333.211 231.239Z" fill="#8FCE79"/>
<defs>
<clipPath id="clip0_532_1408">
<rect width="76.0956" height="76.0956" fill="white" transform="translate(232.48 105.426) rotate(-11.441)"/>
</clipPath>
</defs>
</svg>
