<svg xmlns="http://www.w3.org/2000/svg" width="424" height="326" fill="none" viewBox="0 0 424 326"><rect width="420.247" height="322.471" x="1.41" y="1.41" stroke="#48d36e" stroke-width="2.82" rx="6.929"/><path fill="#48d36e" d="M55.109 62.426q-2.664 0-4.73-1.145a8.6 8.6 0 0 1-3.21-3.187q-1.17-2.04-1.17-4.68 0-2.638 1.17-4.654a8.34 8.34 0 0 1 3.21-3.187q2.067-1.17 4.73-1.17 1.593 0 2.937.473a7.6 7.6 0 0 1 2.365 1.32 7.8 7.8 0 0 1 1.742 1.892l-2.788 1.742a4.5 4.5 0 0 0-1.12-1.195 5.5 5.5 0 0 0-1.493-.821 4.8 4.8 0 0 0-1.643-.299q-1.643 0-2.913.772a5.3 5.3 0 0 0-1.99 2.066q-.723 1.32-.723 3.061 0 1.718.697 3.062a5.4 5.4 0 0 0 2.017 2.116q1.293.747 2.987.747 1.269 0 2.265-.473a4.13 4.13 0 0 0 1.593-1.37q.597-.87.672-2.04h-4.033v-2.664H63v2.116q-.05 2.39-1.07 4.082a6.8 6.8 0 0 1-2.788 2.564q-1.768.872-4.033.872m14.68 0q-1.842 0-3.261-.822a6.1 6.1 0 0 1-2.24-2.315q-.797-1.468-.797-3.385t.821-3.386a6.07 6.07 0 0 1 2.29-2.29q1.47-.846 3.36-.846 1.644 0 3.013.871 1.395.847 2.215 2.514.847 1.644.847 4.008h-9.111q.125 1.245 1.07 1.991.947.722 2.141.722 1.02 0 1.668-.423.647-.448.996-1.145l2.937 1.145a6.2 6.2 0 0 1-1.37 1.817 5.6 5.6 0 0 1-1.966 1.145q-1.144.399-2.613.399m-2.689-8.09h5.377q-.075-.773-.498-1.245a2.6 2.6 0 0 0-.995-.697 3.1 3.1 0 0 0-1.12-.224q-.523 0-1.146.224a2.7 2.7 0 0 0-1.07.672q-.448.472-.548 1.27m.797-6.199 2.838-3.435h3.684l-3.211 3.435zm9.24 13.99V49.681h3.087l.149 1.692q.597-.97 1.518-1.468.947-.523 2.141-.523 1.47 0 2.514.597 1.045.598 1.593 1.867.549 1.245.523 3.236v7.045h-3.286v-6.373q0-1.269-.298-1.966-.274-.698-.797-.996-.522-.323-1.22-.323-1.269-.025-1.966.771-.672.797-.672 2.365v6.522zm18.891.299q-1.842 0-3.26-.822a6.1 6.1 0 0 1-2.24-2.315q-.797-1.468-.797-3.385t.821-3.386a6.07 6.07 0 0 1 2.29-2.29q1.47-.846 3.36-.846 1.644 0 3.013.871 1.394.847 2.215 2.514.846 1.644.847 4.008h-9.111q.125 1.245 1.07 1.991.945.722 2.141.722 1.02 0 1.668-.423.647-.448.995-1.145l2.938 1.145a6.2 6.2 0 0 1-1.369 1.817 5.6 5.6 0 0 1-1.967 1.145q-1.144.399-2.614.399m-2.688-8.09h5.377q-.075-.773-.498-1.245a2.6 2.6 0 0 0-.996-.697 3.1 3.1 0 0 0-1.12-.224q-.522 0-1.145.224a2.7 2.7 0 0 0-1.07.672q-.449.472-.548 1.27m.797-6.199 2.837-3.435h3.684l-3.21 3.435zm9.24 13.99V49.681h3.286v2.29q.771-1.17 1.941-1.743a5.45 5.45 0 0 1 2.465-.597v3.186q-1.146 0-2.166.274-.996.273-1.618.896t-.622 1.593v6.547zm14.175.299q-1.842 0-3.261-.822a6.13 6.13 0 0 1-2.24-2.315q-.797-1.468-.797-3.385t.822-3.386a6.07 6.07 0 0 1 2.29-2.29q1.468-.846 3.361-.846 1.642 0 3.012.871 1.393.847 2.215 2.514.846 1.644.846 4.008h-9.11q.124 1.245 1.07 1.991a3.44 3.44 0 0 0 2.141.722q1.02 0 1.668-.423a3 3 0 0 0 .995-1.145l2.938 1.145a6.2 6.2 0 0 1-1.369 1.817 5.6 5.6 0 0 1-1.967 1.145q-1.145.399-2.614.399m-2.688-8.09h5.377q-.075-.773-.498-1.245a2.6 2.6 0 0 0-.996-.697 3.1 3.1 0 0 0-1.12-.224q-.523 0-1.145.224a2.7 2.7 0 0 0-1.07.672q-.449.472-.548 1.27m9.964 7.791V49.681h3.285v2.29q.772-1.17 1.942-1.743a5.45 5.45 0 0 1 2.464-.597v3.186q-1.145 0-2.165.274-.996.273-1.618.896t-.623 1.593v6.547zm18.03.299q-1.494 0-2.54-.598-1.02-.597-1.568-1.842-.547-1.27-.547-3.26V49.68h3.285v6.372q0 1.245.274 1.967.299.696.822 1.02.547.3 1.219.299 1.295.026 1.967-.772.672-.821.672-2.364V49.68h3.286v12.446h-3.087l-.124-1.693a4.4 4.4 0 0 1-1.568 1.469q-.921.522-2.091.523m8.834-.299V49.681h3.087l.149 1.692q.598-.97 1.519-1.468.946-.523 2.141-.523 1.469 0 2.514.597 1.046.598 1.593 1.867.547 1.245.523 3.236v7.045h-3.286v-6.373q0-1.269-.299-1.966-.274-.698-.796-.996-.523-.323-1.22-.323-1.27-.025-1.967.771-.672.797-.672 2.365v6.522zm24.315.299q-1.942 0-3.461-.822a6.1 6.1 0 0 1-2.364-2.315q-.847-1.493-.847-3.385 0-1.917.847-3.386a5.97 5.97 0 0 1 2.34-2.29q1.492-.846 3.435-.846 1.866 0 3.41.921t2.24 2.664l-3.086 1.095a2.6 2.6 0 0 0-1.096-1.145 3 3 0 0 0-1.618-.448q-.92 0-1.618.448-.696.423-1.095 1.194-.398.772-.398 1.793t.398 1.792q.399.747 1.12 1.195a3.05 3.05 0 0 0 1.643.448q.897 0 1.618-.473.747-.472 1.095-1.245l3.112 1.096q-.722 1.767-2.265 2.738-1.518.97-3.41.97m12.557 0q-1.892 0-3.386-.822a6.2 6.2 0 0 1-2.315-2.315q-.82-1.468-.821-3.385 0-1.917.821-3.386a5.84 5.84 0 0 1 2.291-2.29q1.469-.846 3.36-.846 1.917 0 3.385.846a5.84 5.84 0 0 1 2.291 2.29q.82 1.47.821 3.386 0 1.917-.821 3.385a6 6 0 0 1-2.291 2.315q-1.443.822-3.335.822m0-3.037q.92 0 1.618-.448a2.95 2.95 0 0 0 1.07-1.22q.399-.797.399-1.817t-.399-1.793a3 3 0 0 0-1.12-1.244q-.697-.448-1.618-.448-.896 0-1.618.448-.698.449-1.095 1.245-.399.77-.399 1.792 0 1.02.399 1.817.398.771 1.12 1.22a3.05 3.05 0 0 0 1.643.448m7.732 2.738V49.681h3.087l.149 1.692q.597-.97 1.518-1.468.947-.523 2.141-.523 1.468 0 2.514.597 1.046.598 1.593 1.867.548 1.245.523 3.236v7.045h-3.286v-6.373q0-1.269-.298-1.966-.274-.698-.797-.996-.522-.323-1.22-.323-1.27-.025-1.966.771-.672.797-.672 2.365v6.522zm18.393.299q-2.065 0-3.136-1.02-1.046-1.021-1.046-2.913v-6.024h-2.016V49.68h2.016v-3.884h3.286v3.884h3.112v2.788h-3.112v5.302q0 .795.349 1.22.348.398 1.02.398.25 0 .548-.1.299-.124.622-.348l1.145 2.464q-.597.449-1.344.722-.721.3-1.444.299m9.413 0q-1.842 0-3.261-.822a6.13 6.13 0 0 1-2.241-2.315q-.796-1.468-.796-3.385t.821-3.386a6.1 6.1 0 0 1 2.29-2.29q1.47-.846 3.361-.846 1.642 0 3.012.871 1.394.847 2.215 2.514.847 1.644.847 4.008h-9.111q.125 1.245 1.07 1.991a3.44 3.44 0 0 0 2.141.722q1.022 0 1.668-.423.647-.448.996-1.145l2.937 1.145a6.2 6.2 0 0 1-1.369 1.817 5.6 5.6 0 0 1-1.967 1.145q-1.144.399-2.613.399m-2.689-8.09h5.377q-.075-.773-.498-1.245a2.6 2.6 0 0 0-.995-.697 3.1 3.1 0 0 0-1.121-.224q-.522 0-1.145.224a2.7 2.7 0 0 0-1.07.672q-.448.472-.548 1.27m9.964 7.791V49.681h3.087l.149 1.692q.597-.97 1.519-1.468.946-.523 2.14-.523 1.469 0 2.515.597 1.045.598 1.593 1.867.548 1.245.522 3.236v7.045h-3.285v-6.373q0-1.269-.299-1.966-.274-.698-.797-.996-.523-.323-1.219-.323-1.27-.025-1.967.771-.672.797-.672 2.365v6.522zm17.697.299q-1.494 0-2.539-.598-1.02-.597-1.569-1.842-.547-1.27-.547-3.26V49.68h3.286v6.372q0 1.245.273 1.967.3.696.822 1.02.548.3 1.22.299 1.294.026 1.966-.772.672-.821.672-2.364V49.68h3.286v12.446h-3.087l-.124-1.693a4.4 4.4 0 0 1-1.568 1.469q-.921.522-2.091.523m17.916 0q-2.24 0-3.485-.996-1.22-.996-1.219-2.813 0-1.992 1.319-2.987 1.344-1.02 3.759-1.02h2.937q-.174-1.146-.722-1.743-.548-.622-1.568-.622-.796 0-1.444.348-.646.349-1.095 1.07l-2.888-.995a5.8 5.8 0 0 1 1.021-1.544q.672-.771 1.743-1.244 1.095-.498 2.663-.498 1.892 0 3.137.722a4.37 4.37 0 0 1 1.866 2.041q.622 1.294.598 3.087l-.075 6.895h-3.062l-.049-1.444a3.17 3.17 0 0 1-1.345 1.295q-.846.448-2.091.448m.548-2.739a2.84 2.84 0 0 0 1.444-.373 2.86 2.86 0 0 0 1.02-.97q.374-.599.374-1.245v-.05h-1.867q-1.619 0-2.24.398-.623.374-.623 1.07 0 .549.498.872.498.298 1.394.298m12.241 2.739q-1.493 0-2.539-.598-1.02-.597-1.568-1.842-.548-1.27-.548-3.26V49.68h3.286v6.372q0 1.245.274 1.967.299.696.822 1.02.547.3 1.219.299 1.295.026 1.967-.772.672-.821.672-2.364V49.68h3.286v12.446h-3.087l-.124-1.693a4.4 4.4 0 0 1-1.569 1.469q-.921.522-2.091.523m13.789 0q-1.718 0-2.987-.797-1.245-.796-1.942-2.265t-.697-3.46q0-2.017.697-3.46.697-1.47 1.942-2.266 1.27-.796 2.987-.796 1.22 0 2.166.523a4 4 0 0 1 1.568 1.443v-6.646h3.286v17.425h-3.112l-.1-1.742a4.5 4.5 0 0 1-1.593 1.518q-.97.522-2.215.523m.846-3.012q.822 0 1.444-.399a2.93 2.93 0 0 0 1.021-1.17q.373-.746.423-1.692v-.498q-.05-.946-.423-1.668a2.75 2.75 0 0 0-1.021-1.145 2.63 2.63 0 0 0-1.469-.423q-.895 0-1.593.448-.672.423-1.07 1.22-.374.795-.374 1.817 0 1.02.399 1.817.398.796 1.07 1.245.697.448 1.593.448m8.321 2.713V49.681h3.286v12.446zm1.643-14.463q-.747 0-1.319-.547-.573-.573-.572-1.344 0-.773.572-1.32.573-.573 1.319-.572.772 0 1.32.572.572.548.572 1.32 0 .771-.572 1.344a1.8 1.8 0 0 1-1.32.547m9.641 14.762q-1.892 0-3.386-.822a6.2 6.2 0 0 1-2.315-2.315q-.82-1.468-.821-3.385 0-1.917.821-3.386a5.85 5.85 0 0 1 2.29-2.29q1.47-.846 3.361-.846 1.917 0 3.385.846a5.84 5.84 0 0 1 2.29 2.29q.822 1.47.822 3.386t-.822 3.385a6 6 0 0 1-2.29 2.315q-1.443.822-3.335.822m0-3.037q.92 0 1.618-.448a2.95 2.95 0 0 0 1.07-1.22q.399-.797.398-1.817 0-1.02-.398-1.793a3 3 0 0 0-1.12-1.244q-.697-.448-1.618-.448-.896 0-1.618.448-.697.449-1.095 1.245-.399.77-.399 1.792 0 1.02.399 1.817.398.771 1.12 1.22a3.05 3.05 0 0 0 1.643.448"/><path stroke="#48d36e" stroke-linecap="round" stroke-linejoin="round" stroke-width="5.938" d="m105.391 151.58-2.307-32.865-32.446 8.282 2.306 32.865"/><path fill="#48d36e" stroke="#48d36e" stroke-linecap="round" stroke-linejoin="round" stroke-width="5.938" d="m97.473 167.15 2.988-.21a5.99 5.99 0 0 0 5.556-6.395l-.629-8.963-8.963.629a5.99 5.99 0 0 0-5.556 6.395l.21 2.988a5.99 5.99 0 0 0 6.394 5.556m-32.445 8.279 2.988-.21a5.99 5.99 0 0 0 5.556-6.395l-.63-8.963-8.962.629a5.99 5.99 0 0 0-5.557 6.395l.21 2.988a5.99 5.99 0 0 0 6.395 5.556"/><path fill="#48d36e" d="M54.461 252.599v-3.567q0-1.024.636-2.26t1.766-2.472a16 16 0 0 1 2.648-2.296l3.744-2.684q.776-.53 1.448-1.201.706-.67 1.13-1.448.46-.811.46-1.554 0-.918-.46-1.66-.423-.74-1.271-1.165-.848-.424-2.084-.424-1.06 0-1.907.424a3.9 3.9 0 0 0-1.342 1.13 4.3 4.3 0 0 0-.742 1.519l-4.98-.848q.353-1.766 1.52-3.284 1.165-1.52 3.036-2.437 1.907-.954 4.31-.954 2.754 0 4.732.989 1.977.989 3.037 2.72 1.095 1.695 1.095 3.955 0 2.295-1.272 4.097-1.236 1.766-3.425 3.32l-3.356 2.436a9.5 9.5 0 0 0-1.765 1.554 6.1 6.1 0 0 0-1.13 1.872h11.266v4.238zm18.793 4.026 2.154-8.335h4.839l-3.461 8.335zm14.05-4.026v-18.647a12 12 0 0 1-2.542 1.342 6.9 6.9 0 0 1-2.684.388v-4.379q.883.07 1.907-.424 1.025-.53 2.013-1.342a26 26 0 0 0 1.837-1.66h4.096v24.722zm11.643 3.408a9 9 0 0 1-1.616-.128 5.4 5.4 0 0 1-1.184-.336 5 5 0 0 1-.784-.416l.832-1.696q.225.127.592.288.368.175.88.288.512.128 1.184.128.64 0 1.12-.256.497-.24.768-.768.288-.512.288-1.312v-.768a3 3 0 0 1-1.04.992 3 3 0 0 1-1.456.352q-1.104 0-1.92-.48a3.3 3.3 0 0 1-1.248-1.344q-.448-.864-.448-2.048 0-1.248.448-2.16.449-.928 1.248-1.424.816-.512 1.92-.512.817 0 1.456.384.64.368 1.04 1.056v-1.248h2.112v7.136q0 1.344-.512 2.304a3.4 3.4 0 0 1-1.456 1.472q-.927.496-2.224.496m.192-5.408q.545 0 .944-.272.417-.288.64-.768.225-.496.224-1.12 0-.64-.24-1.12a1.76 1.76 0 0 0-.64-.752 1.64 1.64 0 0 0-.944-.272q-.56 0-.992.272a1.84 1.84 0 0 0-.672.752q-.24.48-.256 1.12.016.624.256 1.12.24.48.672.768.448.272 1.008.272m13.114 2.192q-1.633 0-2.896-.736a5.4 5.4 0 0 1-1.984-2.048q-.72-1.312-.72-3.008t.72-2.992a5.27 5.27 0 0 1 1.968-2.048q1.264-.752 2.896-.752 1.151 0 2.144.416a5.1 5.1 0 0 1 1.728 1.136q.752.72 1.152 1.664l-2.032.752a3.4 3.4 0 0 0-.72-1.024 3.2 3.2 0 0 0-1.024-.688 3 3 0 0 0-1.248-.256 3.14 3.14 0 0 0-1.744.496q-.752.48-1.184 1.328-.417.848-.416 1.968 0 1.12.432 1.984a3.4 3.4 0 0 0 1.2 1.344q.767.48 1.76.48.687 0 1.248-.256.576-.272 1.008-.736.447-.464.72-1.072l2.032.736a5.2 5.2 0 0 1-1.152 1.728 5.2 5.2 0 0 1-1.728 1.168 5.5 5.5 0 0 1-2.16.416m10.887 0q-1.695 0-3.008-.736a5.43 5.43 0 0 1-2.032-2.048q-.736-1.312-.736-2.992 0-1.712.736-3.008a5.3 5.3 0 0 1 2.016-2.048q1.296-.736 2.976-.736 1.697 0 2.976.752a5.3 5.3 0 0 1 2.032 2.048q.736 1.296.736 2.992 0 1.68-.736 2.992a5.3 5.3 0 0 1-2.016 2.048q-1.28.736-2.944.736m0-2q1.024 0 1.792-.48a3.37 3.37 0 0 0 1.216-1.344q.448-.848.448-1.952 0-1.12-.448-1.968a3.36 3.36 0 0 0-1.232-1.328q-.783-.496-1.824-.496a3.36 3.36 0 0 0-3.04 1.824q-.448.847-.448 1.968 0 1.104.448 1.952a3.45 3.45 0 0 0 1.248 1.344q.8.48 1.84.48m7.456 2.512-1.552-.24q0-.256.192-.592.192-.352.528-.704.352-.352.784-.656l.816-.56q.287-.192.56-.464.272-.272.272-.56a.64.64 0 0 0-.224-.512q-.225-.208-.672-.208a.82.82 0 0 0-.576.224q-.225.208-.304.496l-1.632-.272q.096-.512.416-.928.336-.432.864-.704a2.7 2.7 0 0 1 1.232-.272q1.168 0 1.84.608.672.592.672 1.552 0 .688-.384 1.168a4.2 4.2 0 0 1-.976.896l-.816.56q-.225.16-.448.384-.225.208-.4.416a1.1 1.1 0 0 0-.192.368m-1.552.896v-1.136l1.168-.256h3.68v1.392zm8.993-1.408q-1.184 0-2.096-.528a3.94 3.94 0 0 1-1.44-1.488q-.513-.944-.512-2.176 0-1.232.528-2.176a3.9 3.9 0 0 1 1.472-1.472q.944-.544 2.16-.544 1.056 0 1.936.56.896.544 1.424 1.616.543 1.056.544 2.576h-5.856q.08.8.688 1.28a2.2 2.2 0 0 0 1.376.464q.655 0 1.072-.272a1.94 1.94 0 0 0 .64-.736l1.888.736a4 4 0 0 1-.88 1.168q-.529.48-1.264.736-.737.256-1.68.256m-1.728-5.2h3.456q-.048-.496-.32-.8a1.7 1.7 0 0 0-.64-.448 2 2 0 0 0-.72-.144q-.337 0-.736.144a1.7 1.7 0 0 0-.688.432q-.288.304-.352.816m21.98-6.225v-4.549h22.466v4.549zm0 11.233v-4.549h22.466v4.549z"/><path stroke="#48d36e" stroke-linecap="round" stroke-width="7.015" d="m207.199 176.234-.322-3.483c-1.242-13.464 8.665-25.386 22.129-26.629s25.386 8.664 26.629 22.128l.322 3.483"/><path stroke="#48d36e" stroke-linecap="round" stroke-width="7.015" d="M247.063 151.483c-.888-9.617 6.188-18.133 15.806-19.021 9.617-.887 18.133 6.189 19.021 15.806l.16 1.742"/><path stroke="#48d36e" stroke-linecap="round" stroke-linejoin="round" stroke-width="7.015" d="M229.005 146.124c7.693-.71 13.355-7.523 12.645-15.217s-7.524-13.355-15.217-12.645-13.355 7.523-12.645 15.217 7.523 13.355 15.217 12.645m33.864-13.664c5.771-.533 10.017-5.642 9.484-11.413-.533-5.77-5.642-10.016-11.413-9.483-5.77.533-10.016 5.642-9.483 11.412s5.642 10.017 11.412 9.484"/><path fill="#48d36e" d="M201.51 225.898q-2.09 0-3.559-.598-1.47-.622-2.241-1.692-.747-1.095-.747-2.539 0-1.569.772-2.739.797-1.194 2.265-1.842-1.194-.572-1.842-1.568-.622-1.02-.622-2.315 0-1.394.697-2.464.722-1.071 2.066-1.668 1.345-.597 3.211-.597 1.892 0 3.236.597t2.066 1.668q.723 1.07.722 2.464 0 1.295-.647 2.315-.647.996-1.842 1.568 1.469.648 2.265 1.842.797 1.17.797 2.739 0 1.444-.772 2.539-.771 1.07-2.24 1.692-1.469.598-3.585.598m0-2.838q1.37 0 2.241-.672.87-.698.871-1.767 0-1.17-.871-1.892-.871-.723-2.241-.722-.896 0-1.593.323a2.63 2.63 0 0 0-1.07.921 2.4 2.4 0 0 0-.399 1.37q0 .722.399 1.269.398.548 1.07.871.697.3 1.593.299m0-7.766q1.195 0 1.942-.648.772-.647.772-1.643 0-1.07-.772-1.717-.747-.672-1.942-.672-1.17 0-1.917.672-.746.647-.746 1.717 0 .996.746 1.643.747.648 1.917.648m13.236 10.305v-12.446h3.086l.15 1.618q.572-.946 1.468-1.419a4.03 4.03 0 0 1 1.992-.498q1.519 0 2.539.647 1.046.648 1.518 1.992.548-1.27 1.544-1.942.995-.697 2.315-.697 2.19 0 3.335 1.394 1.146 1.369 1.145 4.232v7.119h-3.285v-6.372q0-1.27-.274-1.967t-.747-.996q-.473-.323-1.12-.323-1.196-.025-1.842.771-.647.797-.647 2.365v6.522h-3.286v-6.372q0-1.27-.274-1.967-.249-.697-.747-.996-.473-.323-1.12-.323-1.196-.025-1.842.771-.622.797-.622 2.365v6.522zm21.025 0v-12.446h3.286v12.446zm1.643-14.462q-.747 0-1.32-.548-.572-.573-.572-1.344t.572-1.32q.573-.572 1.32-.572.771 0 1.319.572.573.548.573 1.32 0 .771-.573 1.344a1.8 1.8 0 0 1-1.319.548m3.79 14.462v-12.446h3.087l.149 1.693q.598-.971 1.519-1.469.945-.523 2.141-.523 1.469 0 2.514.598 1.046.597 1.593 1.866.547 1.245.523 3.237v7.044h-3.286v-6.372q0-1.27-.299-1.967-.273-.697-.796-.996a2.3 2.3 0 0 0-1.22-.323q-1.27-.025-1.967.771-.672.797-.672 2.365v6.522zm17.697.299q-1.494 0-2.539-.598-1.02-.597-1.568-1.842-.548-1.269-.548-3.261v-7.044h3.286v6.372q0 1.245.274 1.967.299.697.821 1.02.548.3 1.22.299 1.294.026 1.966-.772.673-.82.673-2.364v-6.522h3.285v12.446h-3.086l-.125-1.693a4.4 4.4 0 0 1-1.568 1.469q-.921.523-2.091.523m13.963 0q-2.066 0-3.137-1.021-1.045-1.02-1.045-2.912v-6.024h-2.017v-2.788h2.017v-3.883h3.286v3.883h3.111v2.788h-3.111v5.302q0 .797.348 1.22.349.398 1.021.398.249 0 .547-.1.299-.125.623-.348l1.145 2.464q-.598.449-1.345.722a3.8 3.8 0 0 1-1.443.299m9.412 0q-1.842 0-3.261-.822a6.1 6.1 0 0 1-2.24-2.315q-.797-1.468-.797-3.385t.822-3.385a6.06 6.06 0 0 1 2.29-2.291q1.469-.846 3.36-.846 1.644 0 3.012.871 1.394.847 2.216 2.514.846 1.644.846 4.008h-9.111q.125 1.245 1.071 1.992.945.722 2.14.722 1.021 0 1.668-.424.648-.447.996-1.145l2.937 1.145a6.2 6.2 0 0 1-1.369 1.817 5.6 5.6 0 0 1-1.966 1.146q-1.146.398-2.614.398m-2.688-8.09h5.376q-.074-.772-.497-1.245a2.6 2.6 0 0 0-.996-.697 3.1 3.1 0 0 0-1.12-.224q-.524 0-1.145.224a2.7 2.7 0 0 0-1.071.672q-.448.474-.547 1.27m14.618 8.09a7 7 0 0 1-2.24-.349 5.9 5.9 0 0 1-1.842-1.045 4.9 4.9 0 0 1-1.245-1.693l2.813-1.294q.373.598 1.021 1.045.647.423 1.493.423.822 0 1.27-.224.448-.249.448-.697t-.374-.647q-.348-.224-.97-.373l-1.145-.299q-1.792-.472-2.838-1.494-1.021-1.044-1.021-2.389 0-1.917 1.22-2.962 1.245-1.046 3.51-1.046 1.17 0 2.166.349 1.02.349 1.742.97.721.623.996 1.444l-2.714 1.245q-.174-.498-.846-.797a3.1 3.1 0 0 0-1.344-.323q-.672 0-1.046.298-.348.274-.348.772 0 .323.348.548.35.199.996.348l1.618.398q1.22.3 1.942.971.747.647 1.07 1.469a3.9 3.9 0 0 1 .349 1.568 3.17 3.17 0 0 1-.673 1.992q-.646.846-1.792 1.319-1.12.473-2.564.473m16.062 0q-1.718 0-2.988-.797-1.244-.797-1.941-2.265t-.697-3.46q0-2.016.697-3.46.697-1.469 1.941-2.265 1.27-.797 2.988-.797 1.22 0 2.165.523a3.97 3.97 0 0 1 1.568 1.444v-6.647h3.286v17.425h-3.111l-.1-1.742a4.5 4.5 0 0 1-1.593 1.518q-.971.523-2.215.523m.846-3.012q.821 0 1.444-.398a2.94 2.94 0 0 0 1.02-1.17q.374-.747.423-1.693v-.498q-.05-.947-.423-1.668a2.75 2.75 0 0 0-1.02-1.145 2.63 2.63 0 0 0-1.469-.423 2.9 2.9 0 0 0-1.593.448q-.672.423-1.071 1.22-.373.797-.373 1.817t.398 1.817a3.16 3.16 0 0 0 1.071 1.245q.696.448 1.593.448m13.748 3.012q-1.842 0-3.261-.822a6.13 6.13 0 0 1-2.241-2.315q-.796-1.468-.796-3.385t.821-3.385a6.1 6.1 0 0 1 2.29-2.291q1.47-.846 3.361-.846 1.642 0 3.012.871 1.394.847 2.215 2.514.847 1.644.847 4.008h-9.111q.125 1.245 1.07 1.992a3.44 3.44 0 0 0 2.141.722q1.022 0 1.668-.424.647-.447.996-1.145l2.937 1.145a6.2 6.2 0 0 1-1.369 1.817 5.6 5.6 0 0 1-1.967 1.146q-1.144.398-2.613.398m-2.689-8.09h5.377q-.075-.772-.498-1.245a2.6 2.6 0 0 0-.995-.697 3.1 3.1 0 0 0-1.121-.224q-.522 0-1.145.224a2.7 2.7 0 0 0-1.07.672q-.448.474-.548 1.27m-122.978 34.791-5.103-12.446h3.386l3.36 8.687 3.361-8.687h3.385l-5.103 12.446zm9.291 0v-12.446h3.286v12.446zm1.643-14.462q-.747 0-1.32-.548-.572-.573-.572-1.344t.572-1.32q.573-.572 1.32-.572.771 0 1.319.572.573.548.572 1.32 0 .771-.572 1.344a1.8 1.8 0 0 1-1.319.548m8.445 14.761a7 7 0 0 1-2.24-.349 5.9 5.9 0 0 1-1.842-1.045 4.9 4.9 0 0 1-1.245-1.693l2.813-1.294q.373.598 1.021 1.045.647.423 1.493.423.822 0 1.27-.224.447-.249.448-.697 0-.447-.374-.647-.349-.224-.97-.373l-1.146-.299q-1.791-.472-2.837-1.494-1.021-1.044-1.021-2.389 0-1.917 1.22-2.962 1.245-1.046 3.51-1.046 1.17 0 2.165.349a5.2 5.2 0 0 1 1.743.97q.721.623.996 1.444l-2.714 1.245q-.174-.498-.846-.797a3.1 3.1 0 0 0-1.344-.323q-.672 0-1.046.298-.348.274-.348.772 0 .323.348.548.349.199.996.348l1.618.398q1.22.3 1.942.971.746.647 1.07 1.469.348.797.348 1.568 0 1.12-.672 1.992-.647.846-1.792 1.319-1.12.473-2.564.473m6.258-.299v-12.446h3.285v12.446zm1.643-14.462q-.747 0-1.32-.548-.572-.573-.572-1.344t.572-1.32q.573-.572 1.32-.572.771 0 1.319.572.573.548.572 1.32 0 .771-.572 1.344a1.8 1.8 0 0 1-1.319.548m9.64 14.761q-1.892 0-3.385-.822a6.2 6.2 0 0 1-2.315-2.315q-.822-1.468-.822-3.385t.822-3.385a5.84 5.84 0 0 1 2.29-2.291q1.469-.846 3.36-.846 1.916 0 3.386.846a5.85 5.85 0 0 1 2.29 2.291q.82 1.468.821 3.385 0 1.917-.821 3.385a6 6 0 0 1-2.29 2.315q-1.445.822-3.336.822m0-3.037q.92 0 1.618-.448a2.94 2.94 0 0 0 1.07-1.22q.399-.797.399-1.817t-.399-1.792a3 3 0 0 0-1.12-1.245q-.697-.448-1.618-.448-.896 0-1.618.448-.697.448-1.095 1.245-.398.772-.398 1.792t.398 1.817q.398.772 1.12 1.22a3.05 3.05 0 0 0 1.643.448m13.731 3.037q-1.942 0-3.46-.822a6.1 6.1 0 0 1-2.365-2.315q-.846-1.493-.846-3.385 0-1.917.846-3.385a5.97 5.97 0 0 1 2.34-2.291q1.494-.846 3.435-.846 1.868 0 3.411.921t2.24 2.664l-3.087 1.095a2.6 2.6 0 0 0-1.095-1.145 3 3 0 0 0-1.618-.448q-.92 0-1.618.448-.697.423-1.095 1.195-.399.772-.399 1.792t.399 1.792a3.1 3.1 0 0 0 1.12 1.195 3.05 3.05 0 0 0 1.643.448q.895 0 1.618-.473.747-.473 1.095-1.244l3.112 1.095q-.723 1.767-2.266 2.738-1.518.97-3.41.971m12.557 0q-1.891 0-3.385-.822a6.2 6.2 0 0 1-2.315-2.315q-.822-1.468-.822-3.385t.822-3.385a5.85 5.85 0 0 1 2.29-2.291q1.468-.846 3.361-.846 1.916 0 3.385.846a5.85 5.85 0 0 1 2.29 2.291q.822 1.468.822 3.385t-.822 3.385a6 6 0 0 1-2.29 2.315q-1.444.822-3.336.822m0-3.037q.921 0 1.618-.448a2.94 2.94 0 0 0 1.071-1.22q.398-.797.398-1.817t-.398-1.792a3.03 3.03 0 0 0-1.12-1.245q-.697-.448-1.618-.448-.897 0-1.618.448-.697.448-1.096 1.245-.398.772-.398 1.792t.398 1.817a3.06 3.06 0 0 0 1.12 1.22 3.05 3.05 0 0 0 1.643.448m7.732 2.738v-12.446h3.087l.149 1.693q.598-.971 1.519-1.469.945-.523 2.141-.523 1.469 0 2.514.598 1.046.597 1.593 1.866.547 1.245.523 3.237v7.044h-3.286v-6.372q0-1.27-.299-1.967-.274-.697-.796-.996a2.3 2.3 0 0 0-1.22-.323q-1.27-.025-1.967.771-.672.797-.672 2.365v6.522zm14.511 0v-9.808h-2.066v-2.638h2.066v-1.245q0-1.99 1.02-3.087 1.021-1.12 3.112-1.12.721 0 1.518.249a8.7 8.7 0 0 1 1.494.598l-1.22 2.364a5 5 0 0 0-.722-.298 2 2 0 0 0-.597-.1q-.672 0-.996.473-.323.448-.323 1.469v.697h3.061v2.638h-3.061v9.808zm12.979.299q-1.842 0-3.261-.822a6.1 6.1 0 0 1-2.24-2.315q-.797-1.468-.797-3.385t.822-3.385a6.06 6.06 0 0 1 2.29-2.291q1.469-.846 3.36-.846 1.644 0 3.013.871 1.393.847 2.215 2.514.846 1.644.846 4.008h-9.11q.124 1.245 1.07 1.992a3.44 3.44 0 0 0 2.141.722q1.02 0 1.668-.424.647-.447.995-1.145l2.938 1.145a6.2 6.2 0 0 1-1.37 1.817 5.6 5.6 0 0 1-1.966 1.146q-1.145.398-2.614.398m-2.688-8.09h5.377q-.075-.772-.498-1.245a2.6 2.6 0 0 0-.996-.697 3.1 3.1 0 0 0-1.12-.224q-.523 0-1.145.224a2.7 2.7 0 0 0-1.071.672q-.447.474-.547 1.27m.796-6.199 2.838-3.435h3.684l-3.211 3.435zm9.241 13.99v-12.446h3.285v2.29q.772-1.17 1.942-1.743a5.45 5.45 0 0 1 2.464-.597v3.186q-1.145 0-2.165.274-.996.274-1.618.896-.623.623-.623 1.593v6.547zm14.175.299q-1.842 0-3.261-.822a6.1 6.1 0 0 1-2.24-2.315q-.797-1.468-.797-3.385t.822-3.385a6.06 6.06 0 0 1 2.29-2.291q1.469-.846 3.36-.846 1.644 0 3.012.871 1.395.847 2.216 2.514.846 1.644.846 4.008h-9.111q.125 1.245 1.071 1.992.945.722 2.141.722 1.02 0 1.667-.424.648-.447.996-1.145l2.937 1.145a6.1 6.1 0 0 1-1.369 1.817 5.6 5.6 0 0 1-1.966 1.146q-1.146.398-2.614.398m-2.688-8.09h5.376q-.074-.772-.497-1.245a2.6 2.6 0 0 0-.996-.697 3.1 3.1 0 0 0-1.12-.224q-.523 0-1.145.224a2.7 2.7 0 0 0-1.071.672q-.448.474-.547 1.27m9.963 7.791v-12.446h3.087l.149 1.693q.598-.971 1.519-1.469.946-.523 2.141-.523 1.469 0 2.514.598 1.046.597 1.593 1.866.547 1.245.523 3.237v7.044h-3.286v-6.372q0-1.27-.299-1.967-.274-.697-.796-.996-.523-.323-1.22-.323-1.27-.025-1.967.771-.672.797-.672 2.365v6.522zm19.265.299q-1.94 0-3.46-.822a6.1 6.1 0 0 1-2.365-2.315q-.846-1.493-.846-3.385 0-1.917.846-3.385a6 6 0 0 1 2.34-2.291q1.494-.846 3.436-.846 1.866 0 3.41.921 1.543.921 2.24 2.664l-3.087 1.095a2.6 2.6 0 0 0-1.095-1.145 3 3 0 0 0-1.618-.448q-.92 0-1.618.448-.697.423-1.095 1.195-.399.772-.398 1.792 0 1.02.398 1.792a3.1 3.1 0 0 0 1.12 1.195 3.05 3.05 0 0 0 1.643.448 2.9 2.9 0 0 0 1.618-.473q.747-.473 1.095-1.244l3.112 1.095q-.722 1.767-2.265 2.738-1.519.97-3.411.971m12.334 0q-1.842 0-3.261-.822a6.13 6.13 0 0 1-2.241-2.315q-.796-1.468-.796-3.385t.821-3.385a6.07 6.07 0 0 1 2.29-2.291q1.469-.846 3.361-.846 1.643 0 3.012.871 1.394.847 2.215 2.514.847 1.644.847 4.008h-9.111q.125 1.245 1.07 1.992a3.44 3.44 0 0 0 2.141.722q1.02 0 1.668-.424.646-.447.996-1.145l2.937 1.145a6.2 6.2 0 0 1-1.369 1.817 5.6 5.6 0 0 1-1.967 1.146q-1.144.398-2.613.398m-2.689-8.09h5.377q-.075-.772-.498-1.245a2.6 2.6 0 0 0-.996-.697 3.1 3.1 0 0 0-1.12-.224q-.522 0-1.145.224a2.7 2.7 0 0 0-1.07.672q-.448.474-.548 1.27"/></svg>