<svg width="424" height="326" viewBox="0 0 424 326" fill="none" xmlns="http://www.w3.org/2000/svg">
<rect x="1.41022" y="1.41022" width="420.247" height="322.471" rx="6.92902" stroke="#48D36E" stroke-width="2.82045"/>
<path d="M55.1089 62.4257C53.3332 62.4257 51.7567 62.044 50.3793 61.2806C49.0185 60.5006 47.9481 59.4385 47.1681 58.0943C46.3882 56.7335 45.9982 55.1736 45.9982 53.4145C45.9982 51.6555 46.3882 50.1038 47.1681 48.7596C47.9481 47.3988 49.0185 46.3367 50.3793 45.5734C51.7567 44.7934 53.3332 44.4034 55.1089 44.4034C56.171 44.4034 57.1501 44.5611 58.0462 44.8764C58.9424 45.1917 59.7306 45.6314 60.411 46.1957C61.108 46.7433 61.6889 47.3739 62.1535 48.0875L59.3655 49.83C59.0834 49.3819 58.71 48.9836 58.2454 48.6351C57.7973 48.2866 57.2995 48.0128 56.7518 47.8137C56.2042 47.6145 55.6565 47.515 55.1089 47.515C54.0136 47.515 53.0428 47.7722 52.1965 48.2866C51.3501 48.7845 50.6863 49.4732 50.2051 50.3527C49.7238 51.2323 49.4832 52.2529 49.4832 53.4145C49.4832 54.5596 49.7155 55.5802 50.1802 56.4763C50.6614 57.3725 51.3335 58.0778 52.1965 58.5922C53.0594 59.0901 54.0551 59.339 55.1836 59.339C56.0299 59.339 56.785 59.1813 57.4488 58.866C58.1126 58.5341 58.6437 58.0778 59.0419 57.4969C59.4402 56.9161 59.6643 56.2357 59.714 55.4557H55.6814V52.7922H62.9999V54.9081C62.9667 56.5012 62.6099 57.862 61.9295 58.9905C61.2491 60.1024 60.3198 60.957 59.1415 61.5544C57.9633 62.1353 56.6191 62.4257 55.1089 62.4257ZM69.7887 62.4257C68.5606 62.4257 67.4737 62.1518 66.5277 61.6042C65.5818 61.04 64.835 60.2683 64.2874 59.2892C63.7564 58.3101 63.4908 57.1816 63.4908 55.9038C63.4908 54.626 63.7647 53.4975 64.3123 52.5184C64.8765 51.5393 65.6399 50.7759 66.6024 50.2283C67.5815 49.664 68.7017 49.3819 69.9629 49.3819C71.0582 49.3819 72.0622 49.6723 72.9749 50.2532C73.9043 50.8174 74.6427 51.6555 75.1904 52.7673C75.7546 53.8626 76.0367 55.1985 76.0367 56.775H66.926C67.009 57.6048 67.3658 58.2686 67.9964 58.7664C68.627 59.2477 69.3406 59.4883 70.1372 59.4883C70.8176 59.4883 71.3735 59.3473 71.805 59.0652C72.2364 58.7664 72.5683 58.3848 72.8007 57.9201L75.738 59.0652C75.3895 59.7622 74.9331 60.3679 74.3689 60.8823C73.8213 61.3802 73.1658 61.7619 72.4024 62.0274C71.639 62.2929 70.7678 62.4257 69.7887 62.4257ZM67.1003 54.3356H72.4771C72.4273 53.8211 72.2613 53.4062 71.9792 53.0909C71.6971 52.7756 71.3652 52.5433 70.9835 52.3939C70.6018 52.2446 70.2284 52.1699 69.8633 52.1699C69.5149 52.1699 69.1332 52.2446 68.7183 52.3939C68.32 52.5267 67.9632 52.7507 67.6479 53.066C67.3492 53.3813 67.1666 53.8045 67.1003 54.3356ZM67.8968 48.1373L70.7346 44.7021H74.4187L71.2076 48.1373H67.8968ZM77.137 62.127V49.6806H80.2237L80.373 51.3733C80.7713 50.7261 81.2775 50.2366 81.8915 49.9047C82.5221 49.5562 83.2357 49.3819 84.0322 49.3819C85.0113 49.3819 85.8494 49.5811 86.5464 49.9793C87.2434 50.3776 87.7744 50.9999 88.1395 51.8463C88.5046 52.676 88.6789 53.7547 88.6623 55.0823V62.127H85.3764V55.7544C85.3764 54.9081 85.2769 54.2526 85.0777 53.7879C84.8952 53.3233 84.6297 52.9914 84.2812 52.7922C83.9327 52.5765 83.5261 52.4686 83.0614 52.4686C82.2151 52.452 81.5596 52.7092 81.0949 53.2403C80.6468 53.7713 80.4228 54.5596 80.4228 55.6051V62.127H77.137ZM96.0285 62.4257C94.8004 62.4257 93.7134 62.1518 92.7675 61.6042C91.8216 61.04 91.0748 60.2683 90.5272 59.2892C89.9961 58.3101 89.7306 57.1816 89.7306 55.9038C89.7306 54.626 90.0044 53.4975 90.5521 52.5184C91.1163 51.5393 91.8797 50.7759 92.8422 50.2283C93.8213 49.664 94.9415 49.3819 96.2027 49.3819C97.298 49.3819 98.302 49.6723 99.2147 50.2532C100.144 50.8174 100.883 51.6555 101.43 52.7673C101.994 53.8626 102.277 55.1985 102.277 56.775H93.1658C93.2488 57.6048 93.6056 58.2686 94.2362 58.7664C94.8668 59.2477 95.5804 59.4883 96.377 59.4883C97.0574 59.4883 97.6133 59.3473 98.0448 59.0652C98.4762 58.7664 98.8081 58.3848 99.0405 57.9201L101.978 59.0652C101.629 59.7622 101.173 60.3679 100.609 60.8823C100.061 61.3802 99.4056 61.7619 98.6422 62.0274C97.8788 62.2929 97.0076 62.4257 96.0285 62.4257ZM93.3401 54.3356H98.7169C98.6671 53.8211 98.5011 53.4062 98.219 53.0909C97.9369 52.7756 97.605 52.5433 97.2233 52.3939C96.8416 52.2446 96.4682 52.1699 96.1031 52.1699C95.7546 52.1699 95.373 52.2446 94.9581 52.3939C94.5598 52.5267 94.203 52.7507 93.8877 53.066C93.589 53.3813 93.4064 53.8045 93.3401 54.3356ZM94.1366 48.1373L96.9744 44.7021H100.658L97.4473 48.1373H94.1366ZM103.377 62.127V49.6806H106.663V51.9708C107.177 51.1908 107.824 50.61 108.604 50.2283C109.401 49.83 110.222 49.6309 111.069 49.6309V52.8171C110.305 52.8171 109.583 52.9084 108.903 53.0909C108.239 53.2735 107.7 53.5722 107.285 53.9871C106.87 54.4019 106.663 54.933 106.663 55.5802V62.127H103.377ZM117.552 62.4257C116.324 62.4257 115.237 62.1518 114.291 61.6042C113.345 61.04 112.599 60.2683 112.051 59.2892C111.52 58.3101 111.254 57.1816 111.254 55.9038C111.254 54.626 111.528 53.4975 112.076 52.5184C112.64 51.5393 113.404 50.7759 114.366 50.2283C115.345 49.664 116.465 49.3819 117.727 49.3819C118.822 49.3819 119.826 49.6723 120.739 50.2532C121.668 50.8174 122.406 51.6555 122.954 52.7673C123.518 53.8626 123.8 55.1985 123.8 56.775H114.69C114.773 57.6048 115.129 58.2686 115.76 58.7664C116.391 59.2477 117.104 59.4883 117.901 59.4883C118.581 59.4883 119.137 59.3473 119.569 59.0652C120 58.7664 120.332 58.3848 120.564 57.9201L123.502 59.0652C123.153 59.7622 122.697 60.3679 122.133 60.8823C121.585 61.3802 120.929 61.7619 120.166 62.0274C119.403 62.2929 118.531 62.4257 117.552 62.4257ZM114.864 54.3356H120.241C120.191 53.8211 120.025 53.4062 119.743 53.0909C119.461 52.7756 119.129 52.5433 118.747 52.3939C118.365 52.2446 117.992 52.1699 117.627 52.1699C117.278 52.1699 116.897 52.2446 116.482 52.3939C116.084 52.5267 115.727 52.7507 115.412 53.066C115.113 53.3813 114.93 53.8045 114.864 54.3356ZM124.828 62.127V49.6806H128.113V51.9708C128.628 51.1908 129.275 50.61 130.055 50.2283C130.852 49.83 131.673 49.6309 132.519 49.6309V52.8171C131.756 52.8171 131.034 52.9084 130.354 53.0909C129.69 53.2735 129.151 53.5722 128.736 53.9871C128.321 54.4019 128.113 54.933 128.113 55.5802V62.127H124.828ZM142.858 62.4257C141.862 62.4257 141.015 62.2265 140.318 61.8282C139.638 61.43 139.115 60.8159 138.75 59.9862C138.385 59.1398 138.203 58.0529 138.203 56.7253V49.6806H141.488V56.0532C141.488 56.8829 141.58 57.5384 141.762 58.0197C141.961 58.4843 142.235 58.8245 142.584 59.0403C142.949 59.2394 143.355 59.339 143.803 59.339C144.666 59.3556 145.322 59.0983 145.77 58.5673C146.218 58.0197 146.442 57.2314 146.442 56.2025V49.6806H149.728V62.127H146.641L146.517 60.4343C146.102 61.0649 145.579 61.5544 144.949 61.9029C144.335 62.2514 143.638 62.4257 142.858 62.4257ZM151.692 62.127V49.6806H154.779L154.928 51.3733C155.327 50.7261 155.833 50.2366 156.447 49.9047C157.078 49.5562 157.791 49.3819 158.588 49.3819C159.567 49.3819 160.405 49.5811 161.102 49.9793C161.799 50.3776 162.33 50.9999 162.695 51.8463C163.06 52.676 163.234 53.7547 163.218 55.0823V62.127H159.932V55.7544C159.932 54.9081 159.832 54.2526 159.633 53.7879C159.451 53.3233 159.185 52.9914 158.837 52.7922C158.488 52.5765 158.082 52.4686 157.617 52.4686C156.771 52.452 156.115 52.7092 155.65 53.2403C155.202 53.7713 154.978 54.5596 154.978 55.6051V62.127H151.692ZM176.007 62.4257C174.712 62.4257 173.559 62.1518 172.546 61.6042C171.534 61.04 170.746 60.2683 170.182 59.2892C169.617 58.2935 169.335 57.165 169.335 55.9038C169.335 54.626 169.617 53.4975 170.182 52.5184C170.746 51.5393 171.526 50.7759 172.522 50.2283C173.517 49.664 174.662 49.3819 175.957 49.3819C177.201 49.3819 178.338 49.6889 179.367 50.303C180.396 50.917 181.143 51.8048 181.607 52.9665L178.521 54.0617C178.288 53.5805 177.923 53.1988 177.425 52.9167C176.944 52.618 176.405 52.4686 175.807 52.4686C175.193 52.4686 174.654 52.618 174.189 52.9167C173.725 53.1988 173.36 53.5971 173.094 54.1115C172.829 54.626 172.696 55.2234 172.696 55.9038C172.696 56.5842 172.829 57.1816 173.094 57.6961C173.36 58.1939 173.733 58.5922 174.214 58.8909C174.696 59.1896 175.243 59.339 175.857 59.339C176.455 59.339 176.994 59.1813 177.475 58.866C177.973 58.5507 178.338 58.1358 178.57 57.6214L181.682 58.7167C181.201 59.8949 180.446 60.8076 179.417 61.4549C178.405 62.1021 177.268 62.4257 176.007 62.4257ZM188.564 62.4257C187.303 62.4257 186.174 62.1518 185.178 61.6042C184.199 61.04 183.428 60.2683 182.863 59.2892C182.316 58.3101 182.042 57.1816 182.042 55.9038C182.042 54.626 182.316 53.4975 182.863 52.5184C183.411 51.5393 184.174 50.7759 185.154 50.2283C186.133 49.664 187.253 49.3819 188.514 49.3819C189.792 49.3819 190.92 49.664 191.899 50.2283C192.879 50.7759 193.642 51.5393 194.19 52.5184C194.737 53.4975 195.011 54.626 195.011 55.9038C195.011 57.1816 194.737 58.3101 194.19 59.2892C193.642 60.2683 192.879 61.04 191.899 61.6042C190.937 62.1518 189.825 62.4257 188.564 62.4257ZM188.564 59.3888C189.178 59.3888 189.717 59.2394 190.182 58.9407C190.646 58.642 191.003 58.2354 191.252 57.721C191.518 57.1899 191.651 56.5842 191.651 55.9038C191.651 55.2234 191.518 54.626 191.252 54.1115C190.987 53.5805 190.613 53.1656 190.132 52.8669C189.667 52.5682 189.128 52.4188 188.514 52.4188C187.917 52.4188 187.377 52.5682 186.896 52.8669C186.431 53.1656 186.066 53.5805 185.801 54.1115C185.535 54.626 185.402 55.2234 185.402 55.9038C185.402 56.5842 185.535 57.1899 185.801 57.721C186.066 58.2354 186.44 58.642 186.921 58.9407C187.402 59.2394 187.95 59.3888 188.564 59.3888ZM196.296 62.127V49.6806H199.383L199.532 51.3733C199.93 50.7261 200.436 50.2366 201.05 49.9047C201.681 49.5562 202.395 49.3819 203.191 49.3819C204.17 49.3819 205.008 49.5811 205.705 49.9793C206.402 50.3776 206.933 50.9999 207.298 51.8463C207.663 52.676 207.838 53.7547 207.821 55.0823V62.127H204.535V55.7544C204.535 54.9081 204.436 54.2526 204.237 53.7879C204.054 53.3233 203.789 52.9914 203.44 52.7922C203.092 52.5765 202.685 52.4686 202.22 52.4686C201.374 52.452 200.718 52.7092 200.254 53.2403C199.806 53.7713 199.582 54.5596 199.582 55.6051V62.127H196.296ZM214.689 62.4257C213.312 62.4257 212.267 62.0855 211.553 61.4051C210.856 60.7247 210.507 59.7539 210.507 58.4926V52.4686H208.491V49.6806H210.507V45.7974H213.793V49.6806H216.905V52.4686H213.793V57.7707C213.793 58.3018 213.909 58.7084 214.142 58.9905C214.374 59.256 214.714 59.3888 215.162 59.3888C215.328 59.3888 215.511 59.3556 215.71 59.2892C215.909 59.2062 216.117 59.0901 216.332 58.9407L217.477 61.4051C217.079 61.7038 216.631 61.9444 216.133 62.127C215.652 62.3261 215.171 62.4257 214.689 62.4257ZM224.102 62.4257C222.874 62.4257 221.787 62.1518 220.841 61.6042C219.895 61.04 219.148 60.2683 218.6 59.2892C218.069 58.3101 217.804 57.1816 217.804 55.9038C217.804 54.626 218.078 53.4975 218.625 52.5184C219.19 51.5393 219.953 50.7759 220.915 50.2283C221.895 49.664 223.015 49.3819 224.276 49.3819C225.371 49.3819 226.375 49.6723 227.288 50.2532C228.217 50.8174 228.956 51.6555 229.503 52.7673C230.068 53.8626 230.35 55.1985 230.35 56.775H221.239C221.322 57.6048 221.679 58.2686 222.309 58.7664C222.94 59.2477 223.654 59.4883 224.45 59.4883C225.131 59.4883 225.687 59.3473 226.118 59.0652C226.549 58.7664 226.881 58.3848 227.114 57.9201L230.051 59.0652C229.703 59.7622 229.246 60.3679 228.682 60.8823C228.134 61.3802 227.479 61.7619 226.715 62.0274C225.952 62.2929 225.081 62.4257 224.102 62.4257ZM221.413 54.3356H226.79C226.74 53.8211 226.574 53.4062 226.292 53.0909C226.01 52.7756 225.678 52.5433 225.297 52.3939C224.915 52.2446 224.541 52.1699 224.176 52.1699C223.828 52.1699 223.446 52.2446 223.031 52.3939C222.633 52.5267 222.276 52.7507 221.961 53.066C221.662 53.3813 221.48 53.8045 221.413 54.3356ZM231.377 62.127V49.6806H234.464L234.613 51.3733C235.011 50.7261 235.518 50.2366 236.132 49.9047C236.762 49.5562 237.476 49.3819 238.272 49.3819C239.251 49.3819 240.09 49.5811 240.787 49.9793C241.483 50.3776 242.015 50.9999 242.38 51.8463C242.745 52.676 242.919 53.7547 242.902 55.0823V62.127H239.617V55.7544C239.617 54.9081 239.517 54.2526 239.318 53.7879C239.135 53.3233 238.87 52.9914 238.521 52.7922C238.173 52.5765 237.766 52.4686 237.302 52.4686C236.455 52.452 235.8 52.7092 235.335 53.2403C234.887 53.7713 234.663 54.5596 234.663 55.6051V62.127H231.377ZM249.074 62.4257C248.078 62.4257 247.232 62.2265 246.535 61.8282C245.854 61.43 245.332 60.8159 244.966 59.9862C244.601 59.1398 244.419 58.0529 244.419 56.7253V49.6806H247.705V56.0532C247.705 56.8829 247.796 57.5384 247.978 58.0197C248.178 58.4843 248.451 58.8245 248.8 59.0403C249.165 59.2394 249.572 59.339 250.02 59.339C250.883 59.3556 251.538 59.0983 251.986 58.5673C252.434 58.0197 252.658 57.2314 252.658 56.2025V49.6806H255.944V62.127H252.857L252.733 60.4343C252.318 61.0649 251.795 61.5544 251.165 61.9029C250.551 62.2514 249.854 62.4257 249.074 62.4257ZM266.99 62.4257C265.497 62.4257 264.335 62.0938 263.505 61.43C262.692 60.7662 262.286 59.8285 262.286 58.6171C262.286 57.2895 262.726 56.2938 263.605 55.63C264.501 54.9496 265.754 54.6094 267.364 54.6094H270.301C270.185 53.846 269.944 53.2652 269.579 52.8669C269.214 52.452 268.691 52.2446 268.011 52.2446C267.48 52.2446 266.999 52.3607 266.567 52.5931C266.136 52.8254 265.771 53.1822 265.472 53.6635L262.584 52.6678C262.817 52.1367 263.157 51.6223 263.605 51.1244C264.053 50.61 264.634 50.1951 265.348 49.8798C266.078 49.5479 266.966 49.3819 268.011 49.3819C269.272 49.3819 270.318 49.6226 271.148 50.1038C271.994 50.5851 272.616 51.2655 273.014 52.145C273.429 53.008 273.628 54.0368 273.612 55.2317L273.537 62.127H270.475L270.426 60.6832C270.11 61.2474 269.662 61.6789 269.081 61.9776C268.517 62.2763 267.82 62.4257 266.99 62.4257ZM267.538 59.6875C268.069 59.6875 268.55 59.563 268.982 59.3141C269.413 59.0652 269.754 58.7416 270.002 58.3433C270.251 57.945 270.376 57.5301 270.376 57.0986V57.0489H268.509C267.43 57.0489 266.683 57.1816 266.269 57.4471C265.854 57.6961 265.646 58.0529 265.646 58.5175C265.646 58.8826 265.812 59.173 266.144 59.3888C266.476 59.5879 266.941 59.6875 267.538 59.6875ZM279.779 62.4257C278.784 62.4257 277.937 62.2265 277.24 61.8282C276.56 61.43 276.037 60.8159 275.672 59.9862C275.307 59.1398 275.124 58.0529 275.124 56.7253V49.6806H278.41V56.0532C278.41 56.8829 278.502 57.5384 278.684 58.0197C278.883 58.4843 279.157 58.8245 279.506 59.0403C279.871 59.2394 280.277 59.339 280.725 59.339C281.588 59.3556 282.244 59.0983 282.692 58.5673C283.14 58.0197 283.364 57.2314 283.364 56.2025V49.6806H286.65V62.127H283.563L283.439 60.4343C283.024 61.0649 282.501 61.5544 281.87 61.9029C281.256 62.2514 280.559 62.4257 279.779 62.4257ZM293.568 62.4257C292.423 62.4257 291.427 62.1601 290.581 61.6291C289.751 61.0981 289.104 60.343 288.639 59.3639C288.174 58.3848 287.942 57.2314 287.942 55.9038C287.942 54.5596 288.174 53.4062 288.639 52.4437C289.104 51.4646 289.751 50.7095 290.581 50.1785C291.427 49.6474 292.423 49.3819 293.568 49.3819C294.381 49.3819 295.103 49.5562 295.734 49.9047C296.381 50.2366 296.903 50.7178 297.302 51.3484V44.7021H300.588V62.127H297.476L297.376 60.3845C296.962 61.0317 296.43 61.5378 295.783 61.9029C295.136 62.2514 294.398 62.4257 293.568 62.4257ZM294.414 59.4137C294.962 59.4137 295.443 59.2809 295.858 59.0154C296.289 58.7333 296.63 58.3433 296.879 57.8454C297.127 57.3476 297.269 56.7833 297.302 56.1527V55.6549C297.269 55.0243 297.127 54.4683 296.879 53.9871C296.63 53.4892 296.289 53.1075 295.858 52.842C295.426 52.5599 294.937 52.4188 294.389 52.4188C293.792 52.4188 293.261 52.5682 292.796 52.8669C292.348 53.149 291.991 53.5556 291.726 54.0866C291.477 54.6177 291.352 55.2234 291.352 55.9038C291.352 56.5842 291.485 57.1899 291.751 57.721C292.016 58.252 292.373 58.6669 292.821 58.9656C293.286 59.2643 293.817 59.4137 294.414 59.4137ZM302.735 62.127V49.6806H306.021V62.127H302.735ZM304.378 47.6643C303.88 47.6643 303.441 47.4818 303.059 47.1167C302.677 46.735 302.487 46.2869 302.487 45.7725C302.487 45.258 302.677 44.8183 303.059 44.4532C303.441 44.0715 303.88 43.8807 304.378 43.8807C304.893 43.8807 305.333 44.0715 305.698 44.4532C306.079 44.8183 306.27 45.258 306.27 45.7725C306.27 46.2869 306.079 46.735 305.698 47.1167C305.333 47.4818 304.893 47.6643 304.378 47.6643ZM314.019 62.4257C312.758 62.4257 311.629 62.1518 310.633 61.6042C309.654 61.04 308.883 60.2683 308.318 59.2892C307.771 58.3101 307.497 57.1816 307.497 55.9038C307.497 54.626 307.771 53.4975 308.318 52.5184C308.866 51.5393 309.629 50.7759 310.608 50.2283C311.588 49.664 312.708 49.3819 313.969 49.3819C315.247 49.3819 316.375 49.664 317.354 50.2283C318.333 50.7759 319.097 51.5393 319.644 52.5184C320.192 53.4975 320.466 54.626 320.466 55.9038C320.466 57.1816 320.192 58.3101 319.644 59.2892C319.097 60.2683 318.333 61.04 317.354 61.6042C316.392 62.1518 315.28 62.4257 314.019 62.4257ZM314.019 59.3888C314.633 59.3888 315.172 59.2394 315.637 58.9407C316.101 58.642 316.458 58.2354 316.707 57.721C316.973 57.1899 317.105 56.5842 317.105 55.9038C317.105 55.2234 316.973 54.626 316.707 54.1115C316.442 53.5805 316.068 53.1656 315.587 52.8669C315.122 52.5682 314.583 52.4188 313.969 52.4188C313.372 52.4188 312.832 52.5682 312.351 52.8669C311.886 53.1656 311.521 53.5805 311.256 54.1115C310.99 54.626 310.857 55.2234 310.857 55.9038C310.857 56.5842 310.99 57.1899 311.256 57.721C311.521 58.2354 311.895 58.642 312.376 58.9407C312.857 59.2394 313.405 59.3888 314.019 59.3888Z" fill="#48D36E"/>
<path d="M105.391 151.58L103.084 118.715L70.6381 126.997L72.9444 159.862" stroke="#48D36E" stroke-width="5.93843" stroke-linecap="round" stroke-linejoin="round"/>
<path d="M97.4731 167.15L100.461 166.94C103.761 166.709 106.249 163.846 106.017 160.545L105.388 151.582L96.4248 152.211C93.1245 152.443 90.637 155.306 90.8685 158.606L91.0782 161.594C91.3098 164.894 94.1728 167.382 97.4731 167.15Z" fill="#48D36E" stroke="#48D36E" stroke-width="5.93843" stroke-linecap="round" stroke-linejoin="round"/>
<path d="M65.0278 175.429L68.0156 175.219C71.3158 174.988 73.8034 172.125 73.5718 168.824L72.9429 159.861L63.9795 160.49C60.6793 160.721 58.1916 163.584 58.4232 166.885L58.6329 169.873C58.8645 173.173 61.7276 175.66 65.0278 175.429Z" fill="#48D36E" stroke="#48D36E" stroke-width="5.93843" stroke-linecap="round" stroke-linejoin="round"/>
<path d="M54.4612 252.599V249.032C54.4612 248.349 54.6731 247.596 55.0969 246.772C55.5207 245.948 56.1093 245.124 56.8627 244.3C57.6162 243.476 58.4991 242.71 59.5115 242.004L63.2551 239.32C63.773 238.967 64.2557 238.567 64.703 238.119C65.1739 237.672 65.5506 237.189 65.8332 236.671C66.1393 236.13 66.2923 235.612 66.2923 235.117C66.2923 234.505 66.1393 233.952 65.8332 233.457C65.5506 232.963 65.1268 232.575 64.5618 232.292C63.9967 232.009 63.3021 231.868 62.4781 231.868C61.7718 231.868 61.1361 232.009 60.571 232.292C60.0295 232.575 59.5821 232.951 59.229 233.422C58.8758 233.893 58.6286 234.399 58.4873 234.941L53.5076 234.093C53.7431 232.916 54.2493 231.821 55.0263 230.809C55.8032 229.796 56.8156 228.984 58.0635 228.372C59.3349 227.736 60.7711 227.418 62.3721 227.418C64.2086 227.418 65.7861 227.748 67.1046 228.407C68.4231 229.066 69.4355 229.973 70.1418 231.127C70.8717 232.257 71.2366 233.575 71.2366 235.082C71.2366 236.612 70.8128 237.978 69.9652 239.179C69.1412 240.356 67.9993 241.463 66.5395 242.499L63.1844 244.935C62.5016 245.406 61.913 245.924 61.4186 246.489C60.9242 247.054 60.5474 247.678 60.2885 248.361H71.5545V252.599H54.4612ZM73.254 256.625L75.4083 248.29H80.2467L76.7856 256.625H73.254ZM87.3049 252.599V233.952C86.4809 234.517 85.6333 234.964 84.7621 235.294C83.891 235.6 82.9963 235.73 82.0781 235.682V231.303C82.6667 231.35 83.3024 231.209 83.9852 230.879C84.6679 230.526 85.339 230.079 85.9982 229.537C86.681 228.972 87.2932 228.419 87.8347 227.877H91.9314V252.599H87.3049ZM98.9472 256.007C98.3392 256.007 97.8005 255.964 97.3312 255.879C96.8619 255.794 96.4672 255.682 96.1472 255.543C95.8272 255.404 95.5659 255.266 95.3632 255.127L96.1952 253.431C96.3445 253.516 96.5419 253.612 96.7872 253.719C97.0325 253.836 97.3259 253.932 97.6672 254.007C98.0085 254.092 98.4032 254.135 98.8512 254.135C99.2779 254.135 99.6512 254.05 99.9712 253.879C100.302 253.719 100.558 253.463 100.739 253.111C100.931 252.77 101.027 252.332 101.027 251.799V251.031C100.761 251.447 100.414 251.778 99.9872 252.023C99.5605 252.258 99.0752 252.375 98.5312 252.375C97.7952 252.375 97.1552 252.215 96.6112 251.895C96.0779 251.575 95.6619 251.127 95.3632 250.551C95.0645 249.975 94.9152 249.292 94.9152 248.503C94.9152 247.671 95.0645 246.951 95.3632 246.343C95.6619 245.724 96.0779 245.25 96.6112 244.919C97.1552 244.578 97.7952 244.407 98.5312 244.407C99.0752 244.407 99.5605 244.535 99.9872 244.791C100.414 245.036 100.761 245.388 101.027 245.847V244.599H103.139V251.735C103.139 252.631 102.969 253.399 102.627 254.039C102.286 254.69 101.801 255.18 101.171 255.511C100.553 255.842 99.8112 256.007 98.9472 256.007ZM99.1392 250.599C99.5019 250.599 99.8165 250.508 100.083 250.327C100.361 250.135 100.574 249.879 100.723 249.559C100.873 249.228 100.947 248.855 100.947 248.439C100.947 248.012 100.867 247.639 100.707 247.319C100.558 246.999 100.345 246.748 100.067 246.567C99.8005 246.386 99.4859 246.295 99.1232 246.295C98.7499 246.295 98.4192 246.386 98.1312 246.567C97.8432 246.748 97.6192 246.999 97.4592 247.319C97.2992 247.639 97.2139 248.012 97.2032 248.439C97.2139 248.855 97.2992 249.228 97.4592 249.559C97.6192 249.879 97.8432 250.135 98.1312 250.327C98.4299 250.508 98.7659 250.599 99.1392 250.599ZM112.253 252.791C111.165 252.791 110.199 252.546 109.357 252.055C108.514 251.554 107.853 250.871 107.373 250.007C106.893 249.132 106.653 248.13 106.653 246.999C106.653 245.868 106.893 244.871 107.373 244.007C107.853 243.132 108.509 242.45 109.341 241.959C110.183 241.458 111.149 241.207 112.237 241.207C113.005 241.207 113.719 241.346 114.381 241.623C115.042 241.89 115.618 242.268 116.109 242.759C116.61 243.239 116.994 243.794 117.261 244.423L115.229 245.175C115.047 244.78 114.807 244.439 114.509 244.151C114.21 243.852 113.869 243.623 113.485 243.463C113.101 243.292 112.685 243.207 112.237 243.207C111.586 243.207 111.005 243.372 110.493 243.703C109.991 244.023 109.597 244.466 109.309 245.031C109.031 245.596 108.893 246.252 108.893 246.999C108.893 247.746 109.037 248.407 109.325 248.983C109.613 249.548 110.013 249.996 110.525 250.327C111.037 250.647 111.623 250.807 112.285 250.807C112.743 250.807 113.159 250.722 113.533 250.551C113.917 250.37 114.253 250.124 114.541 249.815C114.839 249.506 115.079 249.148 115.261 248.743L117.293 249.479C117.026 250.13 116.642 250.706 116.141 251.207C115.65 251.708 115.074 252.098 114.413 252.375C113.751 252.652 113.031 252.791 112.253 252.791ZM123.14 252.791C122.01 252.791 121.007 252.546 120.132 252.055C119.268 251.554 118.591 250.871 118.1 250.007C117.61 249.132 117.364 248.135 117.364 247.015C117.364 245.874 117.61 244.871 118.1 244.007C118.591 243.132 119.263 242.45 120.116 241.959C120.98 241.468 121.972 241.223 123.092 241.223C124.223 241.223 125.215 241.474 126.068 241.975C126.932 242.466 127.61 243.148 128.1 244.023C128.591 244.887 128.836 245.884 128.836 247.015C128.836 248.135 128.591 249.132 128.1 250.007C127.62 250.871 126.948 251.554 126.084 252.055C125.231 252.546 124.25 252.791 123.14 252.791ZM123.14 250.791C123.823 250.791 124.42 250.631 124.932 250.311C125.455 249.98 125.86 249.532 126.148 248.967C126.447 248.402 126.596 247.751 126.596 247.015C126.596 246.268 126.447 245.612 126.148 245.047C125.85 244.482 125.439 244.039 124.916 243.719C124.394 243.388 123.786 243.223 123.092 243.223C122.42 243.223 121.818 243.388 121.284 243.719C120.762 244.039 120.351 244.482 120.052 245.047C119.754 245.612 119.604 246.268 119.604 247.015C119.604 247.751 119.754 248.402 120.052 248.967C120.351 249.532 120.767 249.98 121.3 250.311C121.834 250.631 122.447 250.791 123.14 250.791ZM130.596 253.303L129.044 253.063C129.044 252.892 129.108 252.695 129.236 252.471C129.364 252.236 129.54 252.002 129.764 251.767C129.998 251.532 130.26 251.314 130.548 251.111L131.364 250.551C131.556 250.423 131.742 250.268 131.924 250.087C132.105 249.906 132.196 249.719 132.196 249.527C132.196 249.314 132.121 249.143 131.972 249.015C131.822 248.876 131.598 248.807 131.3 248.807C131.076 248.807 130.884 248.882 130.724 249.031C130.574 249.17 130.473 249.335 130.42 249.527L128.788 249.255C128.852 248.914 128.99 248.604 129.204 248.327C129.428 248.039 129.716 247.804 130.068 247.623C130.43 247.442 130.841 247.351 131.3 247.351C132.078 247.351 132.692 247.554 133.14 247.959C133.588 248.354 133.812 248.871 133.812 249.511C133.812 249.97 133.684 250.359 133.428 250.679C133.182 250.999 132.857 251.298 132.452 251.575L131.636 252.135C131.486 252.242 131.337 252.37 131.188 252.519C131.038 252.658 130.905 252.796 130.788 252.935C130.681 253.084 130.617 253.207 130.596 253.303ZM129.044 254.199V253.063L130.212 252.807H133.892V254.199H129.044ZM138.037 252.791C137.247 252.791 136.549 252.615 135.941 252.263C135.333 251.9 134.853 251.404 134.501 250.775C134.159 250.146 133.989 249.42 133.989 248.599C133.989 247.778 134.165 247.052 134.517 246.423C134.879 245.794 135.37 245.303 135.989 244.951C136.618 244.588 137.338 244.407 138.149 244.407C138.853 244.407 139.498 244.594 140.085 244.967C140.682 245.33 141.157 245.868 141.509 246.583C141.871 247.287 142.053 248.146 142.053 249.159H136.197C136.25 249.692 136.479 250.119 136.885 250.439C137.29 250.748 137.749 250.903 138.261 250.903C138.698 250.903 139.055 250.812 139.333 250.631C139.61 250.439 139.823 250.194 139.973 249.895L141.861 250.631C141.637 251.079 141.343 251.468 140.981 251.799C140.629 252.119 140.207 252.364 139.717 252.535C139.226 252.706 138.666 252.791 138.037 252.791ZM136.309 247.591H139.765C139.733 247.26 139.626 246.994 139.445 246.791C139.263 246.588 139.05 246.439 138.805 246.343C138.559 246.247 138.319 246.199 138.085 246.199C137.861 246.199 137.615 246.247 137.349 246.343C137.093 246.428 136.863 246.572 136.661 246.775C136.469 246.978 136.351 247.25 136.309 247.591Z" fill="#48D36E"/>
<path d="M158.289 241.366V236.817H180.755V241.366H158.289ZM158.289 252.599V248.05H180.755V252.599H158.289Z" fill="#48D36E"/>
<path d="M207.199 176.234L206.877 172.751C205.635 159.287 215.542 147.365 229.006 146.122C242.47 144.879 254.392 154.786 255.635 168.25L255.957 171.733" stroke="#48D36E" stroke-width="7.01539" stroke-linecap="round"/>
<path d="M247.063 151.483C246.175 141.866 253.251 133.35 262.869 132.462C272.486 131.575 281.002 138.651 281.89 148.268L282.05 150.01" stroke="#48D36E" stroke-width="7.01539" stroke-linecap="round"/>
<path d="M229.005 146.124C236.698 145.414 242.36 138.601 241.65 130.907C240.939 123.213 234.126 117.552 226.433 118.262C218.739 118.973 213.078 125.785 213.788 133.479C214.498 141.173 221.311 146.834 229.005 146.124Z" stroke="#48D36E" stroke-width="7.01539" stroke-linecap="round" stroke-linejoin="round"/>
<path d="M262.869 132.46C268.64 131.927 272.886 126.818 272.353 121.047C271.82 115.277 266.711 111.031 260.94 111.564C255.17 112.097 250.924 117.206 251.457 122.976C251.989 128.747 257.099 132.993 262.869 132.46Z" stroke="#48D36E" stroke-width="7.01539" stroke-linecap="round" stroke-linejoin="round"/>
<path d="M201.51 225.898C200.116 225.898 198.93 225.699 197.951 225.3C196.971 224.886 196.225 224.321 195.71 223.608C195.212 222.878 194.963 222.031 194.963 221.069C194.963 220.023 195.221 219.11 195.735 218.33C196.266 217.534 197.021 216.92 198 216.488C197.204 216.107 196.59 215.584 196.158 214.92C195.743 214.24 195.536 213.468 195.536 212.605C195.536 211.676 195.768 210.854 196.233 210.141C196.714 209.427 197.403 208.871 198.299 208.473C199.195 208.075 200.266 207.876 201.51 207.876C202.771 207.876 203.85 208.075 204.746 208.473C205.642 208.871 206.331 209.427 206.812 210.141C207.294 210.854 207.534 211.676 207.534 212.605C207.534 213.468 207.319 214.24 206.887 214.92C206.456 215.584 205.842 216.107 205.045 216.488C206.024 216.92 206.779 217.534 207.31 218.33C207.841 219.11 208.107 220.023 208.107 221.069C208.107 222.031 207.85 222.878 207.335 223.608C206.821 224.321 206.074 224.886 205.095 225.3C204.116 225.699 202.921 225.898 201.51 225.898ZM201.51 223.06C202.423 223.06 203.17 222.836 203.751 222.388C204.331 221.923 204.622 221.334 204.622 220.621C204.622 219.841 204.331 219.21 203.751 218.729C203.17 218.247 202.423 218.007 201.51 218.007C200.913 218.007 200.382 218.115 199.917 218.33C199.469 218.546 199.112 218.853 198.847 219.251C198.581 219.65 198.448 220.106 198.448 220.621C198.448 221.102 198.581 221.525 198.847 221.89C199.112 222.255 199.469 222.546 199.917 222.761C200.382 222.961 200.913 223.06 201.51 223.06ZM201.51 215.294C202.307 215.294 202.954 215.078 203.452 214.646C203.966 214.215 204.224 213.667 204.224 213.003C204.224 212.29 203.966 211.717 203.452 211.286C202.954 210.838 202.307 210.614 201.51 210.614C200.73 210.614 200.091 210.838 199.593 211.286C199.096 211.717 198.847 212.29 198.847 213.003C198.847 213.667 199.096 214.215 199.593 214.646C200.091 215.078 200.73 215.294 201.51 215.294ZM214.746 225.599V213.153H217.832L217.982 214.771C218.363 214.14 218.853 213.667 219.45 213.352C220.048 213.02 220.712 212.854 221.442 212.854C222.454 212.854 223.301 213.07 223.981 213.501C224.678 213.933 225.184 214.597 225.499 215.493C225.864 214.646 226.379 213.999 227.043 213.551C227.707 213.086 228.478 212.854 229.358 212.854C230.818 212.854 231.93 213.319 232.693 214.248C233.457 215.161 233.838 216.571 233.838 218.48V225.599H230.553V219.227C230.553 218.38 230.461 217.725 230.279 217.26C230.096 216.795 229.847 216.464 229.532 216.264C229.217 216.049 228.843 215.941 228.412 215.941C227.615 215.924 227.001 216.181 226.57 216.712C226.138 217.243 225.923 218.032 225.923 219.077V225.599H222.637V219.227C222.637 218.38 222.545 217.725 222.363 217.26C222.197 216.795 221.948 216.464 221.616 216.264C221.301 216.049 220.927 215.941 220.496 215.941C219.699 215.924 219.085 216.181 218.654 216.712C218.239 217.243 218.032 218.032 218.032 219.077V225.599H214.746ZM235.771 225.599V213.153H239.057V225.599H235.771ZM237.414 211.137C236.916 211.137 236.476 210.954 236.094 210.589C235.713 210.207 235.522 209.759 235.522 209.245C235.522 208.73 235.713 208.29 236.094 207.925C236.476 207.544 236.916 207.353 237.414 207.353C237.928 207.353 238.368 207.544 238.733 207.925C239.115 208.29 239.306 208.73 239.306 209.245C239.306 209.759 239.115 210.207 238.733 210.589C238.368 210.954 237.928 211.137 237.414 211.137ZM241.204 225.599V213.153H244.291L244.44 214.846C244.839 214.198 245.345 213.709 245.959 213.377C246.589 213.028 247.303 212.854 248.1 212.854C249.079 212.854 249.917 213.053 250.614 213.452C251.311 213.85 251.842 214.472 252.207 215.318C252.572 216.148 252.746 217.227 252.73 218.555V225.599H249.444V219.227C249.444 218.38 249.344 217.725 249.145 217.26C248.963 216.795 248.697 216.464 248.349 216.264C248 216.049 247.593 215.941 247.129 215.941C246.282 215.924 245.627 216.181 245.162 216.712C244.714 217.243 244.49 218.032 244.49 219.077V225.599H241.204ZM258.901 225.898C257.905 225.898 257.059 225.699 256.362 225.3C255.682 224.902 255.159 224.288 254.794 223.458C254.429 222.612 254.246 221.525 254.246 220.197V213.153H257.532V219.525C257.532 220.355 257.623 221.011 257.806 221.492C258.005 221.956 258.279 222.297 258.627 222.512C258.992 222.712 259.399 222.811 259.847 222.811C260.71 222.828 261.365 222.571 261.813 222.039C262.261 221.492 262.486 220.704 262.486 219.675V213.153H265.771V225.599H262.685L262.56 223.906C262.145 224.537 261.623 225.027 260.992 225.375C260.378 225.724 259.681 225.898 258.901 225.898ZM272.864 225.898C271.486 225.898 270.441 225.558 269.727 224.877C269.03 224.197 268.682 223.226 268.682 221.965V215.941H266.665V213.153H268.682V209.27H271.968V213.153H275.079V215.941H271.968V221.243C271.968 221.774 272.084 222.181 272.316 222.463C272.548 222.728 272.889 222.861 273.337 222.861C273.503 222.861 273.685 222.828 273.884 222.761C274.083 222.678 274.291 222.562 274.507 222.413L275.652 224.877C275.253 225.176 274.805 225.417 274.307 225.599C273.826 225.798 273.345 225.898 272.864 225.898ZM282.276 225.898C281.048 225.898 279.961 225.624 279.015 225.076C278.069 224.512 277.322 223.74 276.775 222.761C276.244 221.782 275.978 220.654 275.978 219.376C275.978 218.098 276.252 216.97 276.8 215.991C277.364 215.011 278.127 214.248 279.09 213.7C280.069 213.136 281.189 212.854 282.45 212.854C283.546 212.854 284.55 213.145 285.462 213.725C286.392 214.29 287.13 215.128 287.678 216.239C288.242 217.335 288.524 218.671 288.524 220.247H279.413C279.496 221.077 279.853 221.741 280.484 222.239C281.114 222.72 281.828 222.961 282.624 222.961C283.305 222.961 283.861 222.819 284.292 222.537C284.724 222.239 285.056 221.857 285.288 221.392L288.225 222.537C287.877 223.234 287.42 223.84 286.856 224.354C286.309 224.852 285.653 225.234 284.89 225.5C284.126 225.765 283.255 225.898 282.276 225.898ZM279.588 217.808H284.964C284.915 217.293 284.749 216.878 284.467 216.563C284.184 216.248 283.853 216.015 283.471 215.866C283.089 215.717 282.716 215.642 282.351 215.642C282.002 215.642 281.62 215.717 281.206 215.866C280.807 215.999 280.451 216.223 280.135 216.538C279.836 216.854 279.654 217.277 279.588 217.808ZM294.206 225.898C293.41 225.898 292.663 225.782 291.966 225.549C291.269 225.3 290.655 224.952 290.124 224.504C289.593 224.039 289.178 223.475 288.879 222.811L291.692 221.517C291.941 221.915 292.281 222.264 292.713 222.562C293.144 222.844 293.642 222.985 294.206 222.985C294.754 222.985 295.177 222.911 295.476 222.761C295.775 222.595 295.924 222.363 295.924 222.064C295.924 221.766 295.799 221.55 295.55 221.417C295.318 221.268 294.995 221.143 294.58 221.044L293.435 220.745C292.24 220.43 291.294 219.932 290.597 219.251C289.916 218.555 289.576 217.758 289.576 216.862C289.576 215.584 289.983 214.597 290.796 213.9C291.626 213.203 292.796 212.854 294.306 212.854C295.086 212.854 295.808 212.97 296.472 213.203C297.152 213.435 297.733 213.759 298.214 214.173C298.695 214.588 299.027 215.07 299.21 215.617L296.496 216.862C296.38 216.53 296.098 216.264 295.65 216.065C295.202 215.85 294.754 215.742 294.306 215.742C293.858 215.742 293.509 215.841 293.26 216.04C293.028 216.223 292.912 216.48 292.912 216.812C292.912 217.028 293.028 217.21 293.26 217.36C293.493 217.492 293.825 217.609 294.256 217.708L295.874 218.106C296.687 218.306 297.334 218.629 297.816 219.077C298.314 219.509 298.67 219.998 298.886 220.546C299.118 221.077 299.235 221.6 299.235 222.114C299.235 222.861 299.011 223.525 298.562 224.106C298.131 224.67 297.534 225.11 296.77 225.425C296.023 225.74 295.169 225.898 294.206 225.898ZM310.268 225.898C309.122 225.898 308.127 225.632 307.28 225.101C306.451 224.57 305.803 223.815 305.339 222.836C304.874 221.857 304.642 220.704 304.642 219.376C304.642 218.032 304.874 216.878 305.339 215.916C305.803 214.937 306.451 214.182 307.28 213.651C308.127 213.12 309.122 212.854 310.268 212.854C311.081 212.854 311.803 213.028 312.433 213.377C313.08 213.709 313.603 214.19 314.001 214.821V208.174H317.287V225.599H314.176L314.076 223.857C313.661 224.504 313.13 225.01 312.483 225.375C311.836 225.724 311.097 225.898 310.268 225.898ZM311.114 222.886C311.661 222.886 312.143 222.753 312.558 222.488C312.989 222.205 313.329 221.815 313.578 221.318C313.827 220.82 313.968 220.256 314.001 219.625V219.127C313.968 218.496 313.827 217.94 313.578 217.459C313.329 216.961 312.989 216.58 312.558 216.314C312.126 216.032 311.637 215.891 311.089 215.891C310.492 215.891 309.961 216.04 309.496 216.339C309.048 216.621 308.691 217.028 308.425 217.559C308.177 218.09 308.052 218.696 308.052 219.376C308.052 220.056 308.185 220.662 308.45 221.193C308.716 221.724 309.073 222.139 309.521 222.438C309.985 222.736 310.516 222.886 311.114 222.886ZM324.862 225.898C323.634 225.898 322.547 225.624 321.601 225.076C320.655 224.512 319.908 223.74 319.36 222.761C318.829 221.782 318.564 220.654 318.564 219.376C318.564 218.098 318.838 216.97 319.385 215.991C319.95 215.011 320.713 214.248 321.675 213.7C322.655 213.136 323.775 212.854 325.036 212.854C326.131 212.854 327.135 213.145 328.048 213.725C328.977 214.29 329.716 215.128 330.263 216.239C330.828 217.335 331.11 218.671 331.11 220.247H321.999C322.082 221.077 322.439 221.741 323.069 222.239C323.7 222.72 324.414 222.961 325.21 222.961C325.891 222.961 326.447 222.819 326.878 222.537C327.309 222.239 327.641 221.857 327.874 221.392L330.811 222.537C330.463 223.234 330.006 223.84 329.442 224.354C328.894 224.852 328.239 225.234 327.475 225.5C326.712 225.765 325.841 225.898 324.862 225.898ZM322.173 217.808H327.55C327.5 217.293 327.334 216.878 327.052 216.563C326.77 216.248 326.438 216.015 326.057 215.866C325.675 215.717 325.301 215.642 324.936 215.642C324.588 215.642 324.206 215.717 323.791 215.866C323.393 215.999 323.036 216.223 322.721 216.538C322.422 216.854 322.24 217.277 322.173 217.808ZM199.195 252.599L194.092 240.153H197.478L200.838 248.84L204.199 240.153H207.584L202.481 252.599H199.195ZM208.486 252.599V240.153H211.772V252.599H208.486ZM210.129 238.137C209.631 238.137 209.191 237.954 208.809 237.589C208.428 237.207 208.237 236.759 208.237 236.245C208.237 235.73 208.428 235.29 208.809 234.925C209.191 234.544 209.631 234.353 210.129 234.353C210.643 234.353 211.083 234.544 211.448 234.925C211.83 235.29 212.02 235.73 212.02 236.245C212.02 236.759 211.83 237.207 211.448 237.589C211.083 237.954 210.643 238.137 210.129 238.137ZM218.574 252.898C217.778 252.898 217.031 252.782 216.334 252.549C215.637 252.3 215.023 251.952 214.492 251.504C213.961 251.039 213.546 250.475 213.247 249.811L216.06 248.517C216.309 248.915 216.649 249.264 217.081 249.562C217.512 249.844 218.01 249.985 218.574 249.985C219.122 249.985 219.545 249.911 219.844 249.761C220.142 249.595 220.292 249.363 220.292 249.064C220.292 248.766 220.167 248.55 219.918 248.417C219.686 248.268 219.362 248.143 218.948 248.044L217.802 247.745C216.608 247.43 215.662 246.932 214.965 246.251C214.284 245.555 213.944 244.758 213.944 243.862C213.944 242.584 214.351 241.597 215.164 240.9C215.994 240.203 217.164 239.854 218.674 239.854C219.454 239.854 220.176 239.97 220.839 240.203C221.52 240.435 222.101 240.759 222.582 241.173C223.063 241.588 223.395 242.07 223.578 242.617L220.864 243.862C220.748 243.53 220.466 243.264 220.018 243.065C219.57 242.85 219.122 242.742 218.674 242.742C218.226 242.742 217.877 242.841 217.628 243.04C217.396 243.223 217.28 243.48 217.28 243.812C217.28 244.028 217.396 244.21 217.628 244.36C217.861 244.492 218.192 244.609 218.624 244.708L220.242 245.106C221.055 245.306 221.702 245.629 222.184 246.077C222.681 246.509 223.038 246.998 223.254 247.546C223.486 248.077 223.602 248.6 223.602 249.114C223.602 249.861 223.378 250.525 222.93 251.106C222.499 251.67 221.901 252.11 221.138 252.425C220.391 252.74 219.537 252.898 218.574 252.898ZM224.832 252.599V240.153H228.117V252.599H224.832ZM226.475 238.137C225.977 238.137 225.537 237.954 225.155 237.589C224.774 237.207 224.583 236.759 224.583 236.245C224.583 235.73 224.774 235.29 225.155 234.925C225.537 234.544 225.977 234.353 226.475 234.353C226.989 234.353 227.429 234.544 227.794 234.925C228.176 235.29 228.366 235.73 228.366 236.245C228.366 236.759 228.176 237.207 227.794 237.589C227.429 237.954 226.989 238.137 226.475 238.137ZM236.115 252.898C234.854 252.898 233.725 252.624 232.73 252.076C231.75 251.512 230.979 250.74 230.415 249.761C229.867 248.782 229.593 247.654 229.593 246.376C229.593 245.098 229.867 243.97 230.415 242.991C230.962 242.011 231.726 241.248 232.705 240.7C233.684 240.136 234.804 239.854 236.065 239.854C237.343 239.854 238.471 240.136 239.451 240.7C240.43 241.248 241.193 242.011 241.741 242.991C242.288 243.97 242.562 245.098 242.562 246.376C242.562 247.654 242.288 248.782 241.741 249.761C241.193 250.74 240.43 251.512 239.451 252.076C238.488 252.624 237.376 252.898 236.115 252.898ZM236.115 249.861C236.729 249.861 237.268 249.712 237.733 249.413C238.198 249.114 238.554 248.708 238.803 248.193C239.069 247.662 239.202 247.056 239.202 246.376C239.202 245.696 239.069 245.098 238.803 244.584C238.538 244.053 238.164 243.638 237.683 243.339C237.219 243.04 236.679 242.891 236.065 242.891C235.468 242.891 234.928 243.04 234.447 243.339C233.982 243.638 233.617 244.053 233.352 244.584C233.086 245.098 232.954 245.696 232.954 246.376C232.954 247.056 233.086 247.662 233.352 248.193C233.617 248.708 233.991 249.114 234.472 249.413C234.953 249.712 235.501 249.861 236.115 249.861ZM249.846 252.898C248.552 252.898 247.398 252.624 246.386 252.076C245.374 251.512 244.585 250.74 244.021 249.761C243.457 248.766 243.175 247.637 243.175 246.376C243.175 245.098 243.457 243.97 244.021 242.991C244.585 242.011 245.365 241.248 246.361 240.7C247.357 240.136 248.502 239.854 249.796 239.854C251.041 239.854 252.178 240.161 253.207 240.775C254.235 241.389 254.982 242.277 255.447 243.439L252.36 244.534C252.128 244.053 251.763 243.671 251.265 243.389C250.784 243.09 250.244 242.941 249.647 242.941C249.033 242.941 248.494 243.09 248.029 243.389C247.564 243.671 247.199 244.069 246.934 244.584C246.668 245.098 246.535 245.696 246.535 246.376C246.535 247.056 246.668 247.654 246.934 248.168C247.199 248.666 247.573 249.064 248.054 249.363C248.535 249.662 249.083 249.811 249.697 249.811C250.294 249.811 250.833 249.653 251.315 249.338C251.813 249.023 252.178 248.608 252.41 248.094L255.522 249.189C255.04 250.367 254.285 251.28 253.256 251.927C252.244 252.574 251.107 252.898 249.846 252.898ZM262.403 252.898C261.142 252.898 260.014 252.624 259.018 252.076C258.039 251.512 257.267 250.74 256.703 249.761C256.155 248.782 255.881 247.654 255.881 246.376C255.881 245.098 256.155 243.97 256.703 242.991C257.251 242.011 258.014 241.248 258.993 240.7C259.972 240.136 261.092 239.854 262.354 239.854C263.631 239.854 264.76 240.136 265.739 240.7C266.718 241.248 267.481 242.011 268.029 242.991C268.577 243.97 268.851 245.098 268.851 246.376C268.851 247.654 268.577 248.782 268.029 249.761C267.481 250.74 266.718 251.512 265.739 252.076C264.776 252.624 263.665 252.898 262.403 252.898ZM262.403 249.861C263.017 249.861 263.557 249.712 264.021 249.413C264.486 249.114 264.843 248.708 265.092 248.193C265.357 247.662 265.49 247.056 265.49 246.376C265.49 245.696 265.357 245.098 265.092 244.584C264.826 244.053 264.453 243.638 263.972 243.339C263.507 243.04 262.968 242.891 262.354 242.891C261.756 242.891 261.217 243.04 260.736 243.339C260.271 243.638 259.906 244.053 259.64 244.584C259.375 245.098 259.242 245.696 259.242 246.376C259.242 247.056 259.375 247.662 259.64 248.193C259.906 248.708 260.279 249.114 260.76 249.413C261.242 249.712 261.789 249.861 262.403 249.861ZM270.135 252.599V240.153H273.222L273.371 241.846C273.77 241.198 274.276 240.709 274.89 240.377C275.52 240.028 276.234 239.854 277.031 239.854C278.01 239.854 278.848 240.053 279.545 240.452C280.242 240.85 280.773 241.472 281.138 242.318C281.503 243.148 281.677 244.227 281.661 245.555V252.599H278.375V246.227C278.375 245.38 278.275 244.725 278.076 244.26C277.894 243.795 277.628 243.464 277.28 243.264C276.931 243.049 276.524 242.941 276.06 242.941C275.213 242.924 274.558 243.181 274.093 243.712C273.645 244.243 273.421 245.032 273.421 246.077V252.599H270.135ZM284.646 252.599V242.791H282.58V240.153H284.646V238.908C284.646 237.581 284.986 236.552 285.666 235.821C286.347 235.075 287.384 234.701 288.778 234.701C289.259 234.701 289.765 234.784 290.296 234.95C290.844 235.116 291.342 235.315 291.79 235.548L290.57 237.912C290.305 237.78 290.064 237.68 289.848 237.614C289.633 237.547 289.433 237.514 289.251 237.514C288.803 237.514 288.471 237.672 288.255 237.987C288.039 238.286 287.932 238.775 287.932 239.456V240.153H290.993V242.791H287.932V252.599H284.646ZM297.625 252.898C296.397 252.898 295.31 252.624 294.364 252.076C293.418 251.512 292.672 250.74 292.124 249.761C291.593 248.782 291.327 247.654 291.327 246.376C291.327 245.098 291.601 243.97 292.149 242.991C292.713 242.011 293.476 241.248 294.439 240.7C295.418 240.136 296.538 239.854 297.799 239.854C298.895 239.854 299.899 240.145 300.812 240.725C301.741 241.29 302.479 242.128 303.027 243.239C303.591 244.335 303.873 245.671 303.873 247.247H294.763C294.846 248.077 295.202 248.741 295.833 249.239C296.464 249.72 297.177 249.961 297.974 249.961C298.654 249.961 299.21 249.819 299.642 249.537C300.073 249.239 300.405 248.857 300.637 248.392L303.575 249.537C303.226 250.234 302.77 250.84 302.205 251.354C301.658 251.852 301.002 252.234 300.239 252.5C299.476 252.765 298.604 252.898 297.625 252.898ZM294.937 244.808H300.314C300.264 244.293 300.098 243.878 299.816 243.563C299.534 243.248 299.202 243.015 298.82 242.866C298.438 242.717 298.065 242.642 297.7 242.642C297.351 242.642 296.97 242.717 296.555 242.866C296.157 242.999 295.8 243.223 295.484 243.538C295.186 243.854 295.003 244.277 294.937 244.808ZM295.733 238.609L298.571 235.174H302.255L299.044 238.609H295.733ZM304.974 252.599V240.153H308.259V242.443C308.774 241.663 309.421 241.082 310.201 240.7C310.998 240.302 311.819 240.103 312.665 240.103V243.289C311.902 243.289 311.18 243.381 310.5 243.563C309.836 243.746 309.297 244.044 308.882 244.459C308.467 244.874 308.259 245.405 308.259 246.052V252.599H304.974ZM319.149 252.898C317.921 252.898 316.834 252.624 315.888 252.076C314.942 251.512 314.195 250.74 313.648 249.761C313.117 248.782 312.851 247.654 312.851 246.376C312.851 245.098 313.125 243.97 313.673 242.991C314.237 242.011 315 241.248 315.963 240.7C316.942 240.136 318.062 239.854 319.323 239.854C320.419 239.854 321.423 240.145 322.335 240.725C323.265 241.29 324.003 242.128 324.551 243.239C325.115 244.335 325.397 245.671 325.397 247.247H316.286C316.369 248.077 316.726 248.741 317.357 249.239C317.987 249.72 318.701 249.961 319.498 249.961C320.178 249.961 320.734 249.819 321.165 249.537C321.597 249.239 321.929 248.857 322.161 248.392L325.098 249.537C324.75 250.234 324.294 250.84 323.729 251.354C323.182 251.852 322.526 252.234 321.763 252.5C320.999 252.765 320.128 252.898 319.149 252.898ZM316.461 244.808H321.837C321.788 244.293 321.622 243.878 321.34 243.563C321.057 243.248 320.726 243.015 320.344 242.866C319.962 242.717 319.589 242.642 319.224 242.642C318.875 242.642 318.494 242.717 318.079 242.866C317.68 242.999 317.324 243.223 317.008 243.538C316.71 243.854 316.527 244.277 316.461 244.808ZM326.424 252.599V240.153H329.511L329.66 241.846C330.059 241.198 330.565 240.709 331.179 240.377C331.81 240.028 332.523 239.854 333.32 239.854C334.299 239.854 335.137 240.053 335.834 240.452C336.531 240.85 337.062 241.472 337.427 242.318C337.792 243.148 337.966 244.227 337.95 245.555V252.599H334.664V246.227C334.664 245.38 334.564 244.725 334.365 244.26C334.183 243.795 333.917 243.464 333.569 243.264C333.22 243.049 332.814 242.941 332.349 242.941C331.503 242.924 330.847 243.181 330.382 243.712C329.934 244.243 329.71 245.032 329.71 246.077V252.599H326.424ZM345.689 252.898C344.395 252.898 343.242 252.624 342.229 252.076C341.217 251.512 340.429 250.74 339.864 249.761C339.3 248.766 339.018 247.637 339.018 246.376C339.018 245.098 339.3 243.97 339.864 242.991C340.429 242.011 341.209 241.248 342.204 240.7C343.2 240.136 344.345 239.854 345.64 239.854C346.884 239.854 348.021 240.161 349.05 240.775C350.079 241.389 350.825 242.277 351.29 243.439L348.203 244.534C347.971 244.053 347.606 243.671 347.108 243.389C346.627 243.09 346.088 242.941 345.49 242.941C344.876 242.941 344.337 243.09 343.872 243.389C343.407 243.671 343.042 244.069 342.777 244.584C342.511 245.098 342.379 245.696 342.379 246.376C342.379 247.056 342.511 247.654 342.777 248.168C343.042 248.666 343.416 249.064 343.897 249.363C344.378 249.662 344.926 249.811 345.54 249.811C346.137 249.811 346.677 249.653 347.158 249.338C347.656 249.023 348.021 248.608 348.253 248.094L351.365 249.189C350.884 250.367 350.128 251.28 349.1 251.927C348.087 252.574 346.951 252.898 345.689 252.898ZM358.023 252.898C356.795 252.898 355.708 252.624 354.762 252.076C353.816 251.512 353.069 250.74 352.521 249.761C351.99 248.782 351.725 247.654 351.725 246.376C351.725 245.098 351.999 243.97 352.546 242.991C353.11 242.011 353.874 241.248 354.836 240.7C355.815 240.136 356.936 239.854 358.197 239.854C359.292 239.854 360.296 240.145 361.209 240.725C362.138 241.29 362.877 242.128 363.424 243.239C363.989 244.335 364.271 245.671 364.271 247.247H355.16C355.243 248.077 355.6 248.741 356.23 249.239C356.861 249.72 357.574 249.961 358.371 249.961C359.051 249.961 359.607 249.819 360.039 249.537C360.47 249.239 360.802 248.857 361.035 248.392L363.972 249.537C363.623 250.234 363.167 250.84 362.603 251.354C362.055 251.852 361.4 252.234 360.636 252.5C359.873 252.765 359.002 252.898 358.023 252.898ZM355.334 244.808H360.711C360.661 244.293 360.495 243.878 360.213 243.563C359.931 243.248 359.599 243.015 359.217 242.866C358.836 242.717 358.462 242.642 358.097 242.642C357.749 242.642 357.367 242.717 356.952 242.866C356.554 242.999 356.197 243.223 355.882 243.538C355.583 243.854 355.401 244.277 355.334 244.808Z" fill="#48D36E"/>
</svg>
