<svg xmlns="http://www.w3.org/2000/svg" width="600" height="375" fill="none" viewBox="0 0 600 375"><rect width="596.995" height="371.359" x="1.41" y="1.41" stroke="#8fce79" stroke-width="2.82" rx="6.111"/><path fill="#8fce79" d="M483.133 45.127 278.562 75.264l18.979 129.766 204.571-30.137zm-83.987 140.182-91.483-48.007 73.878-72.368 91.483 48.007z"/><path fill="#8fce79" d="M358.46 101.249c25.568 3.647 50.131 14.114 70.449 30.091.614-3.842.636-7.857.043-11.912-3.159-21.6-23.2-36.571-44.808-33.388-10.613 1.564-19.663 7.258-25.684 15.209m-4.992 8.679a39.57 39.57 0 0 0-2.63 21.015c3.159 21.6 23.2 36.571 44.808 33.388 14.023-2.066 25.217-11.26 30.492-23.418-20.7-17.099-46.013-27.935-72.67-30.985m-214.834 74.647v-29.288h-2.911v32.212h20.574a10 10 0 0 1-.111-1.476c0-.503.044-.972.111-1.459h-17.663zm-29.208 5.997v-35.285h-2.928v35.285a8.3 8.3 0 0 1 2.928 0"/><path fill="#8fce79" stroke="#000" stroke-width="8.502" d="M94.425 74.893c12.939 0 24.887 6.581 31.504 17.389h.064c14.438 0 26.977 10.223 29.43 23.963 10.803.612 19.606 9.3 19.606 20.183v10.85l-2.026-2.189a20.1 20.1 0 0 1-4.099 5.615l-.033.031a21.4 21.4 0 0 1-8.659 4.997l-.026.008-.028.008c-.606.169-1.251.327-1.927.456l.001.001c-1.33.252-2.695.377-4.05.377H68.457c-7.553-.001-14.445-2.938-19.438-7.754-5.025-4.83-8.143-11.746-8.143-18.933 0-7.154 2.898-13.905 8.11-18.93a27 27 0 0 1 9.195-5.852c2.627-17.47 18.02-30.22 36.244-30.22Z"/><path fill="#8fce79" d="M110.282 193.831a5.9 5.9 0 0 0-2.325-.469c-.798 0-1.601.173-2.343.469a5.9 5.9 0 0 0-3.497 5.383c0 .816.173 1.587.458 2.275a5.87 5.87 0 0 0 3.112 3.135 6 6 0 0 0 2.27.442 6.4 6.4 0 0 0 2.27-.442 5.86 5.86 0 0 0 3.112-3.135 5.7 5.7 0 0 0 .457-2.275q.001-.426-.056-.861a5.9 5.9 0 0 0-3.458-4.522M51.83 180.239a9 9 0 0 0-.86-.056 5.9 5.9 0 0 0-2.27.458 5.98 5.98 0 0 0-3.129 3.119 6 6 0 0 0-.44 2.275c0 .799.173 1.587.44 2.274a5.95 5.95 0 0 0 3.13 3.136 6 6 0 0 0 2.27.442 5.88 5.88 0 0 0 5.37-3.522 6 6 0 0 0 .469-2.33c0-.8-.173-1.605-.469-2.348a5.92 5.92 0 0 0-4.512-3.448m115.384.402a5.7 5.7 0 0 0-2.27-.458c-2.315 0-4.428 1.386-5.371 3.521a6 6 0 0 0-.468 2.331c0 .799.172 1.604.468 2.358.825 1.845 2.543 3.147 4.512 3.432a6.23 6.23 0 0 0 3.129-.386 5.94 5.94 0 0 0 3.129-3.135 6 6 0 0 0 .441-2.275c0-.799-.173-1.576-.441-2.275a5.95 5.95 0 0 0-3.129-3.119zm-89.938 3.935H59.61c.073.469.112.961.112 1.458 0 .503-.045.99-.112 1.476h20.575v-32.212h-2.911v29.289zm136.314-47.589v-7.596h37.513v7.596zm0 18.757v-7.597h37.513v7.597zM47.925 256.149V235.09h6.408q2.978 0 5.235 1.354 2.286 1.324 3.58 3.7 1.293 2.377 1.293 5.476 0 3.069-1.293 5.445a9.56 9.56 0 0 1-3.58 3.731q-2.258 1.353-5.235 1.353zm2.557-2.346h3.85q1.596 0 2.95-.602a7.3 7.3 0 0 0 2.376-1.775 8.2 8.2 0 0 0 1.624-2.617 8.5 8.5 0 0 0 .602-3.189 8.3 8.3 0 0 0-.602-3.159 8.1 8.1 0 0 0-1.624-2.648 7 7 0 0 0-2.377-1.745q-1.353-.631-2.948-.631h-3.851zm15.063-12.365 1.715-6.348h2.708l-2.347 6.348zm6.315 14.711v-15.042h2.406v15.042zm1.233-18.532q-.6 0-1.053-.451a1.44 1.44 0 0 1-.451-1.053q0-.631.451-1.053.452-.451 1.053-.451.632 0 1.053.451.451.422.451 1.053 0 .602-.45 1.053a1.38 1.38 0 0 1-1.054.451m11.482 18.893q-2.226 0-3.941-.992a7.2 7.2 0 0 1-2.678-2.798q-.963-1.775-.963-4.092t.933-4.091a6.97 6.97 0 0 1 2.678-2.768q1.715-1.023 3.91-1.023 2.167 0 3.882.993a6.53 6.53 0 0 1 2.617 2.798l-2.196.992a4.36 4.36 0 0 0-1.745-1.865q-1.143-.692-2.618-.692t-2.617.722q-1.113.723-1.775 2.016-.632 1.263-.632 2.918t.632 2.949q.662 1.263 1.805 1.985 1.173.722 2.648.722 1.474 0 2.617-.752 1.173-.751 1.775-2.106l2.196.993q-.902 1.925-2.617 3.008t-3.911 1.083m8.882-.361v-15.042h2.407v15.042zm1.234-18.532q-.603 0-1.053-.451a1.44 1.44 0 0 1-.452-1.053q0-.631.451-1.053.452-.451 1.053-.451.633 0 1.053.451.452.422.452 1.053 0 .602-.452 1.053a1.38 1.38 0 0 1-1.052.451m10.978 18.532v-2.106q0-.992.392-1.955a8.7 8.7 0 0 1 1.173-1.956 11 11 0 0 1 1.895-1.805l4.362-3.279a6.7 6.7 0 0 0 1.354-1.233q.601-.723.933-1.474.331-.782.331-1.505a3.6 3.6 0 0 0-.512-1.895 3.7 3.7 0 0 0-1.444-1.384q-.931-.511-2.196-.511-1.233 0-2.166.481a4.2 4.2 0 0 0-1.534 1.233 4.9 4.9 0 0 0-.873 1.625l-2.587-.511a6.9 6.9 0 0 1 1.294-2.528q.962-1.173 2.436-1.895t3.28-.722q2.106 0 3.64.812 1.534.783 2.377 2.166.872 1.354.872 3.099 0 1.655-.902 3.129-.903 1.474-2.618 2.858l-4.121 3.129q-1.204.903-1.866 1.895-.632.993-.722 2.076h10.53v2.256zm23.882.361q-2.406 0-4.272-1.383-1.865-1.415-2.918-3.851-1.053-2.467-1.053-5.656 0-3.19 1.053-5.626 1.053-2.467 2.888-3.851 1.866-1.414 4.302-1.414 2.438 0 4.272 1.414 1.866 1.384 2.918 3.851 1.083 2.436 1.083 5.626 0 3.189-1.053 5.656-1.052 2.436-2.918 3.851-1.865 1.383-4.302 1.383m0-2.286q1.685 0 2.979-1.113 1.323-1.113 2.045-3.039.752-1.925.752-4.452t-.752-4.453q-.722-1.955-2.045-3.038-1.294-1.113-2.979-1.114-1.685 0-2.978 1.114-1.294 1.083-2.046 3.038-.722 1.926-.722 4.453t.722 4.452q.752 1.926 2.046 3.039 1.323 1.113 2.978 1.113m16.903 2.286q-1.534 0-2.798-.451a7.7 7.7 0 0 1-2.136-1.233q-.872-.752-1.384-1.595l2.106-1.173q.332.422.813.963.512.511 1.293.872.782.361 1.926.361 2.045 0 3.279-1.173t1.233-2.949q0-1.353-.752-2.286-.721-.933-2.106-1.414-1.383-.481-3.309-.481h-.572v-2.166h.572q2.588 0 4.092-.873 1.534-.903 1.534-2.557a3 3 0 0 0-.482-1.655q-.48-.781-1.414-1.233-.902-.482-2.105-.482-.813 0-1.535.241-.692.21-1.293.662a5 5 0 0 0-1.053 1.083l-1.986-1.143a6.2 6.2 0 0 1 1.444-1.625 7.2 7.2 0 0 1 2.046-1.083 7.7 7.7 0 0 1 2.497-.391q1.835 0 3.279.722 1.474.721 2.317 1.986.842 1.233.842 2.798 0 1.594-.903 2.767-.902 1.144-2.466 1.836 1.805.781 2.828 2.166 1.052 1.353 1.052 3.309 0 1.865-.932 3.279-.903 1.385-2.467 2.166-1.564.752-3.46.752m17.063 0q-2.406 0-4.272-1.383-1.865-1.415-2.918-3.851-1.053-2.467-1.053-5.656 0-3.19 1.053-5.626 1.053-2.467 2.888-3.851 1.866-1.414 4.302-1.414 2.438 0 4.272 1.414 1.866 1.384 2.918 3.851 1.084 2.436 1.084 5.626 0 3.189-1.053 5.656-1.053 2.436-2.919 3.851-1.864 1.383-4.302 1.383m0-2.286q1.685 0 2.979-1.113 1.323-1.113 2.045-3.039.752-1.925.752-4.452t-.752-4.453q-.722-1.955-2.045-3.038-1.294-1.113-2.979-1.114-1.685 0-2.978 1.114-1.294 1.083-2.046 3.038-.722 1.926-.722 4.453t.722 4.452q.751 1.926 2.046 3.039 1.323 1.113 2.978 1.113m10.014 5.385 1.715-6.348h2.707l-2.346 6.348zm13.451-3.46V235.09h2.406v21.059zm4.21-14.711 1.715-6.348h2.707l-2.346 6.348zm6.856 14.711V235.09h2.557v21.059zm4.804 0 8.575-21.059h2.647l8.574 21.059h-2.677l-2.437-5.986h-9.537l-2.437 5.986zm6.017-8.273h7.762l-3.881-9.597zm22.091 14.29v-21.059h2.256l.12 2.557a6.4 6.4 0 0 1 2.137-2.136q1.323-.782 2.978-.782 2.016 0 3.55.993 1.534.992 2.377 2.768.872 1.775.872 4.121 0 2.317-.872 4.122-.843 1.775-2.377 2.768t-3.55.992q-1.655 0-2.948-.752a6.4 6.4 0 0 1-2.136-2.136v8.544zm6.949-7.852q1.414 0 2.497-.722 1.114-.722 1.745-2.015.663-1.294.662-2.949 0-1.655-.632-2.948-.601-1.294-1.714-2.016-1.114-.722-2.528-.722-1.323 0-2.376.722-1.023.722-1.625 2.016-.571 1.293-.571 2.948t.571 2.949q.602 1.293 1.625 2.015t2.346.722m16.488 2.196q-2.196 0-3.911-.992a7.25 7.25 0 0 1-2.647-2.798q-.963-1.775-.963-4.092t.932-4.091q.963-1.776 2.648-2.768 1.715-1.023 3.881-1.023 2.226 0 3.911 1.023a6.76 6.76 0 0 1 2.647 2.768q.963 1.775.963 4.091t-.963 4.092a7.04 7.04 0 0 1-2.617 2.798q-1.685.992-3.881.992m0-2.226q1.504 0 2.617-.722 1.114-.722 1.745-1.985.662-1.264.662-2.949t-.662-2.948a4.87 4.87 0 0 0-1.775-1.986q-1.143-.722-2.647-.722-1.474 0-2.617.722-1.114.723-1.775 1.986-.632 1.263-.632 2.948 0 1.655.632 2.949.661 1.263 1.805 1.985 1.173.722 2.647.722m15.412 2.226q-1.745 0-3.068-.692-1.294-.721-2.046-2.256-.722-1.565-.722-4.031v-8.424h2.407v7.702q0 2.226.511 3.399.512 1.174 1.414 1.625.933.421 2.076.421 1.956 0 3.039-1.414 1.113-1.414 1.113-3.941v-7.792h2.407v15.042h-2.257l-.12-2.256q-.752 1.263-1.956 1.956-1.203.661-2.798.661m10.495-.361v-15.042h2.407v2.678q.903-1.415 2.316-2.076a7.1 7.1 0 0 1 3.009-.662v2.256a7.4 7.4 0 0 0-2.557.451 4.3 4.3 0 0 0-1.986 1.414q-.782.993-.782 2.708v8.273zm9.33 0v-15.042h2.407v2.678q.901-1.415 2.316-2.076a7.1 7.1 0 0 1 3.009-.662v2.256a7.4 7.4 0 0 0-2.558.451 4.3 4.3 0 0 0-1.985 1.414q-.782.993-.782 2.708v8.273zm14.083.361q-2.648 0-4.152-1.203-1.474-1.233-1.474-3.4 0-2.286 1.504-3.489 1.534-1.234 4.272-1.234h4.182q-.15-2.136-1.053-3.189-.903-1.083-2.708-1.083-1.233 0-2.136.512-.872.48-1.444 1.564l-2.166-.842a7 7 0 0 1 1.384-1.805 5.3 5.3 0 0 1 1.895-1.174q1.084-.421 2.467-.421 2.106 0 3.46.842 1.384.813 2.076 2.437.692 1.595.662 3.971l-.03 8.153h-2.226l-.121-2.015a4.7 4.7 0 0 1-1.775 1.775q-1.113.601-2.617.601m.12-2.106q1.294 0 2.257-.541a3.8 3.8 0 0 0 1.474-1.595q.541-1.022.541-2.466v-.602h-3.7q-2.106 0-3.009.692-.872.692-.872 1.985 0 1.174.872 1.866.873.661 2.437.661m9.777 1.745v-15.042h2.407v15.042zm1.234-18.532q-.602 0-1.053-.451a1.44 1.44 0 0 1-.451-1.053q0-.631.451-1.053a1.44 1.44 0 0 1 1.053-.451q.632 0 1.053.451.451.422.451 1.053 0 .602-.451 1.053a1.38 1.38 0 0 1-1.053.451m10.428 18.893q-2.196 0-3.399-1.143-1.204-1.143-1.204-3.219v-8.905h-2.617v-2.136h2.617v-4.693h2.407v4.693h4.513v2.136h-4.513v8.664q0 1.144.602 1.775.632.602 1.745.602.361 0 .692-.09.361-.12.932-.542l.933 1.956q-.782.511-1.414.692-.631.21-1.294.21m18.185 0q-2.226 0-3.941-.992a7.2 7.2 0 0 1-2.678-2.798q-.962-1.775-.962-4.092t.932-4.091a6.97 6.97 0 0 1 2.678-2.768q1.715-1.023 3.911-1.023 2.166 0 3.881.993a6.54 6.54 0 0 1 2.617 2.798l-2.196.992a4.36 4.36 0 0 0-1.745-1.865q-1.143-.692-2.617-.692-1.475 0-2.618.722-1.113.723-1.775 2.016-.632 1.263-.632 2.918t.632 2.949a5.1 5.1 0 0 0 1.805 1.985q1.174.722 2.648.722t2.617-.752q1.173-.751 1.775-2.106l2.196.993q-.902 1.925-2.617 3.008t-3.911 1.083m15.38 0q-2.196 0-3.911-.992a7.26 7.26 0 0 1-2.647-2.798q-.963-1.775-.963-4.092t.933-4.091q.963-1.776 2.647-2.768 1.715-1.023 3.881-1.023 2.226 0 3.911 1.023a6.77 6.77 0 0 1 2.648 2.768q.962 1.775.962 4.091t-.962 4.092a7.04 7.04 0 0 1-2.618 2.798q-1.685.992-3.881.992m0-2.226q1.505 0 2.618-.722t1.745-1.985q.662-1.264.662-2.949t-.662-2.948a4.9 4.9 0 0 0-1.775-1.986q-1.143-.722-2.648-.722-1.474 0-2.617.722-1.113.723-1.775 1.986-.632 1.263-.632 2.948 0 1.655.632 2.949a5.1 5.1 0 0 0 1.805 1.985q1.174.722 2.647.722m9.967 1.865v-15.042h2.257l.12 2.256q.752-1.263 1.956-1.925 1.203-.692 2.798-.692 1.775 0 3.068.722 1.325.692 2.046 2.226.752 1.535.722 4.032v8.423h-2.407v-7.701q0-2.226-.511-3.4-.512-1.173-1.414-1.594-.903-.452-2.046-.452-1.986 0-3.099 1.414-1.083 1.385-1.083 3.941v7.792zm21.205.361q-1.655 0-2.888-.481-1.233-.511-2.076-1.324-.812-.812-1.173-1.775l2.106-.872a4.06 4.06 0 0 0 1.534 1.655 4.2 4.2 0 0 0 2.257.631q1.414 0 2.376-.541.963-.572.963-1.595 0-.932-.722-1.504-.692-.571-2.076-.933l-1.444-.391q-2.046-.541-3.189-1.624-1.143-1.113-1.143-2.497 0-2.136 1.384-3.31 1.413-1.203 4.182-1.203 1.323 0 2.406.391a5.5 5.5 0 0 1 1.866 1.113 4.1 4.1 0 0 1 1.143 1.655l-2.106.933q-.391-1.023-1.294-1.475-.902-.45-2.196-.451-1.385 0-2.166.602-.782.571-.782 1.624 0 .603.632 1.144.662.511 1.925.842l1.504.391q1.474.362 2.467 1.083.993.692 1.504 1.595a3.84 3.84 0 0 1 .512 1.925q0 1.354-.722 2.347t-1.956 1.534q-1.233.511-2.828.511m14.563 0q-2.197 0-3.911-.992a7.25 7.25 0 0 1-2.648-2.798q-.963-1.775-.963-4.092t.933-4.091q.963-1.776 2.647-2.768 1.716-1.023 3.881-1.023 2.227 0 3.911 1.023a6.77 6.77 0 0 1 2.648 2.768q.963 1.775.963 4.091t-.963 4.092a7.04 7.04 0 0 1-2.617 2.798q-1.686.992-3.881.992m0-2.226q1.504 0 2.617-.722t1.745-1.985q.662-1.264.662-2.949t-.662-2.948a4.9 4.9 0 0 0-1.775-1.986q-1.143-.722-2.648-.722-1.473 0-2.617.722-1.113.723-1.775 1.986-.632 1.263-.632 2.948 0 1.655.632 2.949a5.1 5.1 0 0 0 1.805 1.985q1.173.722 2.648.722m9.967 1.865v-15.042h2.256l.12 2.106q.692-1.203 1.775-1.835 1.084-.632 2.527-.632 1.806 0 3.069.842 1.294.843 1.865 2.558.632-1.655 1.836-2.528 1.233-.872 2.918-.872 2.527 0 3.971 1.685 1.474 1.685 1.444 5.114v8.604h-2.407v-7.701q0-2.226-.481-3.4-.451-1.173-1.234-1.594-.782-.452-1.805-.452-1.775 0-2.767 1.414-.993 1.385-.993 3.941v7.792h-2.407v-7.701q0-2.226-.481-3.4-.451-1.173-1.264-1.594-.782-.452-1.805-.452-1.745 0-2.738 1.414-.993 1.385-.993 3.941v7.792zm24.754 0v-15.042h2.256l.12 2.106q.692-1.203 1.775-1.835t2.527-.632q1.806 0 3.069.842 1.294.843 1.865 2.558.632-1.655 1.836-2.528 1.233-.872 2.918-.872 2.526 0 3.971 1.685 1.474 1.685 1.444 5.114v8.604h-2.407v-7.701q0-2.226-.481-3.4-.451-1.173-1.234-1.594-.782-.452-1.805-.452-1.775 0-2.768 1.414-.992 1.385-.992 3.941v7.792h-2.407v-7.701q0-2.226-.481-3.4-.451-1.173-1.264-1.594-.782-.452-1.805-.452-1.745 0-2.738 1.414-.993 1.385-.993 3.941v7.792zm31.342.361q-2.196 0-3.881-.992a7.26 7.26 0 0 1-2.647-2.798q-.933-1.775-.933-4.092t.933-4.091q.963-1.776 2.617-2.768 1.685-1.023 3.851-1.023 2.106 0 3.64 1.053 1.534 1.023 2.377 2.888.842 1.866.842 4.392h-11.823q.15 2.468 1.564 3.851t3.58 1.384q1.595 0 2.678-.752a5 5 0 0 0 1.715-1.985l2.076 1.052a6.7 6.7 0 0 1-1.535 2.046 6.6 6.6 0 0 1-2.226 1.354q-1.263.481-2.828.481m-4.844-9.446h9.056q-.09-1.294-.692-2.226a4 4 0 0 0-1.504-1.445q-.933-.51-2.106-.511a5 5 0 0 0-2.196.511 4.34 4.34 0 0 0-1.745 1.445q-.692.931-.813 2.226m13.843 9.085v-15.042h2.407v2.678q.903-1.415 2.316-2.076a7.1 7.1 0 0 1 3.009-.662v2.256a7.4 7.4 0 0 0-2.557.451 4.3 4.3 0 0 0-1.986 1.414q-.782.993-.782 2.708v8.273zm16.077 6.017v-21.059h2.257l.12 2.557a6.4 6.4 0 0 1 2.136-2.136q1.324-.782 2.979-.782 2.015 0 3.55.993 1.534.992 2.376 2.768.873 1.775.873 4.121 0 2.317-.873 4.122-.842 1.775-2.376 2.768-1.535.992-3.55.992-1.655 0-2.949-.752a6.4 6.4 0 0 1-2.136-2.136v8.544zm6.95-7.852q1.414 0 2.497-.722 1.113-.722 1.745-2.015.662-1.294.662-2.949t-.632-2.948q-.602-1.294-1.715-2.016t-2.527-.722a4.1 4.1 0 0 0-2.377.722q-1.022.722-1.624 2.016-.572 1.293-.572 2.948t.572 2.949q.602 1.293 1.624 2.015 1.024.722 2.347.722m9.839 1.835V235.09h2.407v21.059zm11.22.361q-1.745 0-3.069-.692-1.293-.721-2.045-2.256-.722-1.565-.722-4.031v-8.424h2.406v7.702q0 2.226.512 3.399.511 1.174 1.414 1.625.933.421 2.076.421 1.955 0 3.038-1.414 1.113-1.414 1.113-3.941v-7.792h2.407v15.042h-2.256l-.121-2.256q-.752 1.263-1.955 1.956-1.203.661-2.798.661m15.76 0q-1.655 0-2.889-.481-1.233-.511-2.075-1.324-.813-.812-1.174-1.775l2.106-.872a4.06 4.06 0 0 0 1.535 1.655 4.2 4.2 0 0 0 2.256.631q1.414 0 2.377-.541.962-.572.962-1.595 0-.932-.722-1.504-.692-.571-2.076-.933l-1.444-.391q-2.045-.541-3.189-1.624-1.143-1.113-1.143-2.497 0-2.136 1.384-3.31 1.414-1.203 4.182-1.203 1.323 0 2.407.391a5.45 5.45 0 0 1 1.865 1.113 4.1 4.1 0 0 1 1.143 1.655l-2.106.933q-.391-1.023-1.294-1.475-.902-.45-2.196-.451-1.383 0-2.166.602-.782.571-.782 1.624 0 .603.632 1.144.662.511 1.925.842l1.504.391q1.475.362 2.467 1.083.993.692 1.505 1.595a3.84 3.84 0 0 1 .511 1.925q0 1.354-.722 2.347t-1.955 1.534q-1.234.511-2.828.511m-486.324 36q-2.016 0-3.55-.992-1.535-.993-2.407-2.768-.843-1.805-.843-4.122 0-2.346.843-4.121.872-1.776 2.407-2.768 1.534-.993 3.55-.993 1.655 0 2.948.782a5.8 5.8 0 0 1 2.136 2.106v-8.544h2.407v21.059h-2.287l-.12-2.557a6.05 6.05 0 0 1-2.136 2.136q-1.293.782-2.948.782m.541-2.196q1.324 0 2.317-.692 1.023-.722 1.594-1.985.602-1.294.632-2.888v-.211q-.03-1.625-.632-2.888-.57-1.294-1.594-1.986-1.023-.722-2.347-.722-1.414 0-2.527.722t-1.745 2.016q-.602 1.293-.602 2.948t.632 2.949q.632 1.293 1.745 2.015t2.527.722m8.76-12.876 1.714-6.348h2.708l-2.347 6.348zm12.752 15.072q-2.196 0-3.88-.992a7.26 7.26 0 0 1-2.648-2.798q-.933-1.775-.933-4.092t.933-4.091q.962-1.776 2.617-2.768 1.685-1.023 3.85-1.023 2.107 0 3.641 1.053 1.534 1.023 2.377 2.888.842 1.866.842 4.392H70.19q.15 2.468 1.564 3.851t3.58 1.384q1.595 0 2.678-.752a5 5 0 0 0 1.715-1.985l2.076 1.052a6.7 6.7 0 0 1-1.535 2.046 6.6 6.6 0 0 1-2.226 1.354q-1.263.481-2.828.481m-4.844-9.446h9.056q-.09-1.295-.692-2.226a4 4 0 0 0-1.504-1.445q-.933-.51-2.106-.511a5 5 0 0 0-2.196.511 4.34 4.34 0 0 0-1.745 1.445q-.692.931-.813 2.226m2.768-8.093 3.52-3.881h3.099l-3.881 3.881zm11.104 17.178v-15.042h2.257l.12 2.256q.752-1.263 1.956-1.925 1.203-.692 2.797-.692 1.776 0 3.07.722 1.323.691 2.045 2.226.752 1.535.722 4.032v8.423H94.8v-7.701q0-2.226-.511-3.4-.512-1.173-1.414-1.594-.903-.452-2.046-.452-1.986 0-3.099 1.414-1.083 1.385-1.083 3.941v7.792zm22.529.361q-2.196 0-3.881-.992a7.25 7.25 0 0 1-2.647-2.798q-.933-1.775-.933-4.092t.933-4.091q.962-1.776 2.617-2.768 1.685-1.023 3.851-1.023 2.106 0 3.64 1.053 1.534 1.023 2.377 2.888.842 1.866.842 4.392h-11.823q.15 2.468 1.564 3.851t3.58 1.384q1.595 0 2.678-.752a5 5 0 0 0 1.715-1.985l2.076 1.052a6.7 6.7 0 0 1-1.535 2.046 6.6 6.6 0 0 1-2.226 1.354q-1.263.481-2.828.481m-4.844-9.446h9.056q-.09-1.295-.692-2.226a4 4 0 0 0-1.504-1.445q-.933-.51-2.106-.511a5 5 0 0 0-2.196.511 4.34 4.34 0 0 0-1.745 1.445q-.692.931-.813 2.226m13.843 9.085v-15.042h2.407v2.678q.902-1.415 2.316-2.076a7.1 7.1 0 0 1 3.009-.662v2.256a7.4 7.4 0 0 0-2.558.451 4.3 4.3 0 0 0-1.985 1.414q-.782.993-.782 2.708v8.273zm15.346 6.378q-1.443 0-2.647-.3a12 12 0 0 1-2.016-.632q-.811-.331-1.173-.572l.903-1.955q.39.21 1.113.511a8.3 8.3 0 0 0 1.684.542 9 9 0 0 0 2.106.24q1.445 0 2.588-.601 1.173-.572 1.805-1.836.662-1.233.662-3.189v-1.594a6.1 6.1 0 0 1-2.136 2.136q-1.325.752-2.979.752-2.016 0-3.55-.963-1.534-.962-2.407-2.677-.842-1.745-.842-3.971 0-2.287.842-4.002.873-1.744 2.407-2.707t3.55-.963q1.655 0 2.979.752 1.323.753 2.136 2.136v-2.527h2.406v13.598q0 2.587-.962 4.333-.963 1.744-2.648 2.617-1.684.872-3.821.872m.482-8.574q1.324 0 2.346-.722t1.595-1.955q.572-1.264.572-2.919 0-1.594-.602-2.828-.572-1.263-1.595-1.955-.992-.722-2.346-.722-1.414 0-2.527.722-1.083.692-1.715 1.955-.602 1.234-.602 2.828 0 1.655.632 2.919.632 1.233 1.715 1.955 1.113.723 2.527.722m10.473 2.196v-15.042h2.407v15.042zm1.234-18.532q-.602 0-1.053-.451a1.44 1.44 0 0 1-.451-1.053q0-.632.451-1.053a1.44 1.44 0 0 1 1.053-.451q.631 0 1.053.451.451.421.451 1.053 0 .602-.451 1.053a1.38 1.38 0 0 1-1.053.451m11.361 18.893q-2.196 0-3.881-.992a7.26 7.26 0 0 1-2.647-2.798q-.933-1.775-.933-4.092t.933-4.091q.963-1.776 2.617-2.768 1.685-1.023 3.851-1.023 2.106 0 3.64 1.053 1.534 1.023 2.377 2.888.843 1.866.842 4.392h-11.823q.15 2.468 1.564 3.851t3.581 1.384q1.594 0 2.677-.752a5 5 0 0 0 1.715-1.985l2.076 1.052a6.7 6.7 0 0 1-1.535 2.046 6.6 6.6 0 0 1-2.226 1.354q-1.263.481-2.828.481m-4.843-9.446h9.055q-.09-1.295-.692-2.226a4 4 0 0 0-1.504-1.445q-.933-.51-2.106-.511a5 5 0 0 0-2.196.511 4.34 4.34 0 0 0-1.745 1.445q-.692.931-.812 2.226m25.042 12.094a30.5 30.5 0 0 1-2.527-3.971 22.6 22.6 0 0 1-1.805-4.573 18.8 18.8 0 0 1-.662-4.994q0-2.618.662-4.994a22 22 0 0 1 1.805-4.543 29.5 29.5 0 0 1 2.527-4.001h2.467a34 34 0 0 0-2.527 4.121 23.6 23.6 0 0 0-1.805 4.573 17.8 17.8 0 0 0-.662 4.844q0 2.466.662 4.843a23.6 23.6 0 0 0 1.805 4.573 37 37 0 0 0 2.527 4.122zm5.499-3.009 9.989-18.742H179.16v-2.317h13.989v2.106l-9.988 18.953zm15.323 0 9.989-18.742h-11.192v-2.317h13.99v2.106l-9.989 18.953zm23.868 0v-5.114h-9.718v-1.956l9.597-13.989h2.588v13.689h4.302v2.256h-4.302v5.114zm-6.8-7.37h6.8v-9.989zm27.276 7.37v-18.742h-6.709v-2.317h15.945v2.317h-6.709v18.742zm15.432 0-6.438-21.059h2.557l5.265 17.178 5.085-17.178h2.527l4.994 17.118 5.325-17.118h2.557l-6.528 21.059h-2.738l-4.874-16.937-5.024 16.937zm23.442 0V271.09h2.407v8.213a5.2 5.2 0 0 1 1.955-1.895q1.203-.662 2.798-.662 1.744 0 3.069.722 1.323.691 2.045 2.226.753 1.535.723 4.032v8.423h-2.407v-7.701q0-2.226-.542-3.4-.511-1.173-1.414-1.594-.902-.452-2.046-.452-1.985 0-3.098 1.414-1.083 1.385-1.083 3.941v7.792zm17.715 3.009h-2.467a32 32 0 0 0 2.527-4.122 23.6 23.6 0 0 0 1.805-4.573q.662-2.377.662-4.843a17.8 17.8 0 0 0-.662-4.844 23.6 23.6 0 0 0-1.805-4.573 29.3 29.3 0 0 0-2.527-4.121h2.467a26 26 0 0 1 2.527 4.001 22 22 0 0 1 1.805 4.543q.662 2.376.662 4.994a18.8 18.8 0 0 1-.662 4.994 22.6 22.6 0 0 1-1.805 4.573 26.7 26.7 0 0 1-2.527 3.971m25.574 3.008v-8.544a6.04 6.04 0 0 1-2.136 2.136q-1.293.752-2.948.752-2.016 0-3.55-.992-1.534-.993-2.407-2.768-.842-1.805-.842-4.122 0-2.346.842-4.121.873-1.776 2.407-2.768 1.534-.993 3.55-.993 1.655 0 2.948.782a6.05 6.05 0 0 1 2.136 2.136l.121-2.557h2.286v21.059zm-4.543-7.852q1.324 0 2.347-.722t1.595-2.015q.601-1.294.601-2.949t-.601-2.948q-.572-1.294-1.595-2.016t-2.377-.722q-1.414 0-2.527.722-1.083.722-1.715 2.016-.631 1.293-.631 2.948t.631 2.949q.633 1.293 1.745 2.015t2.527.722m15.535 2.196q-1.746 0-3.069-.692-1.293-.721-2.046-2.256-.722-1.565-.722-4.031v-8.424h2.407v7.702q0 2.226.511 3.399.512 1.174 1.414 1.625.933.421 2.076.421 1.956 0 3.039-1.414 1.113-1.414 1.113-3.941v-7.792h2.407v15.042h-2.257l-.12-2.256q-.751 1.263-1.956 1.956-1.203.661-2.797.661m17.083 0q-2.196 0-3.881-.992a7.26 7.26 0 0 1-2.648-2.798q-.932-1.775-.932-4.092t.932-4.091q.963-1.776 2.618-2.768 1.685-1.023 3.851-1.023 2.106 0 3.64 1.053 1.534 1.023 2.377 2.888.842 1.866.842 4.392h-11.823q.15 2.468 1.564 3.851t3.58 1.384q1.595 0 2.678-.752a5 5 0 0 0 1.715-1.985l2.075 1.052a6.7 6.7 0 0 1-1.534 2.046 6.6 6.6 0 0 1-2.226 1.354q-1.264.481-2.828.481m-4.844-9.446h9.056q-.09-1.295-.692-2.226a4 4 0 0 0-1.504-1.445q-.933-.51-2.106-.511a5 5 0 0 0-2.197.511 4.34 4.34 0 0 0-1.744 1.445q-.693.931-.813 2.226m20.44 9.085V271.09h2.407v21.059zm12.363.361q-2.196 0-3.881-.992a7.26 7.26 0 0 1-2.647-2.798q-.933-1.775-.933-4.092t.933-4.091q.963-1.776 2.617-2.768 1.685-1.023 3.851-1.023 2.107 0 3.64 1.053 1.535 1.023 2.377 2.888.843 1.866.843 4.392h-11.824q.15 2.468 1.565 3.851 1.413 1.384 3.58 1.384 1.594 0 2.677-.752a5 5 0 0 0 1.715-1.985l2.076 1.052a6.7 6.7 0 0 1-1.534 2.046 6.6 6.6 0 0 1-2.227 1.354q-1.263.481-2.828.481m-4.843-9.446h9.055q-.09-1.295-.692-2.226a4 4 0 0 0-1.504-1.445q-.933-.51-2.106-.511a5 5 0 0 0-2.196.511 4.34 4.34 0 0 0-1.745 1.445q-.692.931-.812 2.226m21.132 9.085V271.09h6.648q2.166 0 3.701.662t2.376 1.955q.843 1.264.843 3.099 0 1.535-.692 2.708-.692 1.143-1.956 1.865 1.565.751 2.407 2.016.873 1.263.873 3.008 0 1.836-.813 3.129-.812 1.263-2.316 1.956-1.474.661-3.55.661zm2.527-2.286h4.873q1.986 0 3.099-.933 1.143-.962 1.143-2.617 0-1.775-1.293-2.768-1.294-1.023-3.61-1.023h-4.212zm0-9.537h4.753q1.745 0 2.738-.933.993-.932.993-2.587 0-1.715-1.174-2.617-1.143-.933-3.249-.933h-4.061zm14.337 11.823v-15.042h2.406v2.678q.903-1.415 2.317-2.076a7.1 7.1 0 0 1 3.008-.662v2.256q-1.324 0-2.557.451a4.3 4.3 0 0 0-1.985 1.414q-.783.993-.783 2.708v8.273zm15.918.361q-2.196 0-3.881-.992a7.26 7.26 0 0 1-2.648-2.798q-.932-1.775-.932-4.092t.932-4.091q.963-1.776 2.618-2.768 1.685-1.023 3.851-1.023 2.106 0 3.64 1.053 1.534 1.023 2.377 2.888.842 1.866.842 4.392h-11.823q.15 2.468 1.564 3.851t3.58 1.384q1.595 0 2.678-.752a5 5 0 0 0 1.714-1.985l2.076 1.052a6.7 6.7 0 0 1-1.534 2.046 6.6 6.6 0 0 1-2.226 1.354q-1.264.481-2.828.481m-4.844-9.446h9.056q-.091-1.295-.692-2.226a4 4 0 0 0-1.505-1.445q-.932-.51-2.105-.511a5 5 0 0 0-2.197.511 4.35 4.35 0 0 0-1.745 1.445q-.692.931-.812 2.226m2.768-8.093 3.52-3.881h3.099l-3.881 3.881zm16.369 17.539q-1.655 0-2.888-.481-1.234-.511-2.076-1.324-.813-.812-1.173-1.775l2.106-.872a4.06 4.06 0 0 0 1.534 1.655 4.2 4.2 0 0 0 2.256.631q1.414 0 2.377-.541.963-.572.963-1.595 0-.932-.722-1.504-.693-.571-2.076-.933l-1.444-.391q-2.046-.541-3.189-1.624-1.144-1.114-1.144-2.497 0-2.136 1.384-3.31 1.414-1.203 4.182-1.203 1.324 0 2.407.391a5.4 5.4 0 0 1 1.865 1.113 4.1 4.1 0 0 1 1.143 1.655l-2.105.933q-.391-1.023-1.294-1.475-.903-.45-2.196-.451-1.385 0-2.166.602-.783.571-.783 1.624 0 .603.632 1.144.661.511 1.926.842l1.504.391q1.474.361 2.467 1.083.993.692 1.504 1.595a3.84 3.84 0 0 1 .511 1.925q0 1.354-.722 2.347t-1.955 1.534q-1.233.511-2.828.511m8.064-.361v-15.042h2.407v15.042zm1.233-18.532q-.602 0-1.053-.451a1.45 1.45 0 0 1-.451-1.053q0-.632.451-1.053a1.44 1.44 0 0 1 1.053-.451q.633 0 1.053.451.452.421.452 1.053 0 .602-.452 1.053-.42.451-1.053.451m4.773 18.532V271.09h2.407v21.059zM51.986 328.51q-2.648 0-4.151-1.203-1.475-1.233-1.475-3.4 0-2.286 1.505-3.489 1.535-1.234 4.272-1.234h4.182q-.15-2.136-1.053-3.189-.903-1.083-2.708-1.083-1.233 0-2.136.512-.873.48-1.444 1.564l-2.166-.842a7 7 0 0 1 1.384-1.805 5.3 5.3 0 0 1 1.895-1.174q1.083-.421 2.467-.421 2.106 0 3.46.842 1.383.813 2.075 2.437.693 1.595.662 3.971l-.03 8.153H56.5l-.12-2.015a4.7 4.7 0 0 1-1.775 1.775q-1.113.601-2.618.601m.12-2.106q1.294 0 2.257-.541a3.8 3.8 0 0 0 1.474-1.595q.542-1.022.542-2.466v-.602h-3.7q-2.107 0-3.01.692-.871.692-.872 1.985 0 1.174.873 1.866.872.661 2.437.661m15.073 2.106q-1.745 0-3.069-.692-1.293-.721-2.046-2.256-.722-1.565-.722-4.031v-8.424h2.407v7.702q0 2.226.511 3.399.512 1.174 1.414 1.625.933.421 2.076.421 1.956 0 3.039-1.414 1.113-1.414 1.113-3.941v-7.792h2.407v15.042h-2.257l-.12-2.256q-.752 1.263-1.955 1.956-1.204.661-2.798.661m12.961-18.923q-.6 0-1.053-.451a1.44 1.44 0 0 1-.45-1.053q0-.661.45-1.083.452-.451 1.053-.451.632 0 1.083.451.452.421.452 1.083 0 .602-.452 1.053-.45.451-1.083.451m-3.34 25.031q-1.112 0-2.827-.783l.903-2.015q.72.27 1.203.421.511.15.812.15 2.046 0 2.046-2.617v-16.667h2.407v16.727q0 2.347-1.143 3.55-1.144 1.234-3.4 1.234m14.766-6.108q-2.196 0-3.911-.992a7.26 7.26 0 0 1-2.648-2.798q-.962-1.775-.962-4.092t.932-4.091q.963-1.776 2.648-2.768 1.715-1.023 3.88-1.023 2.227 0 3.912 1.023a6.77 6.77 0 0 1 2.647 2.768q.963 1.775.963 4.091t-.963 4.092a7.04 7.04 0 0 1-2.617 2.798q-1.685.992-3.881.992m0-2.226q1.504 0 2.617-.722t1.745-1.985q.662-1.264.662-2.949t-.662-2.948a4.9 4.9 0 0 0-1.775-1.986q-1.144-.722-2.647-.722-1.475 0-2.618.722-1.113.723-1.775 1.986-.631 1.263-.632 2.948 0 1.655.632 2.949.663 1.263 1.805 1.985 1.174.722 2.648.722m15.412 2.226q-1.745 0-3.068-.692-1.294-.721-2.046-2.256-.722-1.565-.722-4.031v-8.424h2.407v7.702q0 2.226.511 3.399t1.414 1.625q.933.421 2.076.421 1.955 0 3.038-1.414 1.114-1.414 1.114-3.941v-7.792h2.406v15.042h-2.256l-.12-2.256q-.753 1.263-1.956 1.956-1.203.661-2.798.661m10.495-.361v-15.042h2.407v2.678q.902-1.415 2.316-2.076a7.1 7.1 0 0 1 3.009-.662v2.256a7.4 7.4 0 0 0-2.557.451 4.3 4.3 0 0 0-1.986 1.414q-.782.993-.782 2.708v8.273zm15.256.361q-2.016 0-3.55-.992-1.534-.993-2.407-2.768-.842-1.805-.842-4.122 0-2.346.842-4.121.873-1.776 2.407-2.768 1.534-.993 3.55-.993 1.655 0 2.949.782a5.8 5.8 0 0 1 2.136 2.106v-8.544h2.406v21.059h-2.286l-.12-2.557a6.05 6.05 0 0 1-2.136 2.136q-1.294.782-2.949.782m.542-2.196q1.323 0 2.316-.692 1.023-.722 1.595-1.985.602-1.294.632-2.888v-.211q-.03-1.625-.632-2.888-.572-1.294-1.595-1.986-1.023-.722-2.346-.722-1.414 0-2.527.722t-1.745 2.016q-.602 1.293-.602 2.948t.632 2.949q.632 1.293 1.745 2.015t2.527.722m8.759-12.876 1.715-6.348h2.708l-2.347 6.348zm6.164 14.711V307.09h2.407v8.213a5.2 5.2 0 0 1 1.955-1.895q1.204-.662 2.798-.662 1.745 0 3.069.722 1.323.691 2.046 2.226.752 1.535.722 4.032v8.423h-2.407v-7.701q0-2.226-.542-3.4-.511-1.173-1.414-1.594-.902-.452-2.045-.452-1.986 0-3.099 1.414-1.083 1.385-1.083 3.941v7.792zm21.386.361q-1.746 0-3.069-.692-1.294-.721-2.046-2.256-.722-1.565-.722-4.031v-8.424h2.407v7.702q0 2.226.511 3.399.512 1.174 1.414 1.625.933.421 2.076.421 1.956 0 3.039-1.414 1.113-1.414 1.113-3.941v-7.792h2.407v15.042h-2.257l-.12-2.256q-.751 1.263-1.956 1.956-1.203.661-2.797.661m10.645-.361v-15.042h2.406v15.042zm1.233-18.532q-.602 0-1.053-.451a1.44 1.44 0 0 1-.451-1.053q0-.632.451-1.053a1.44 1.44 0 0 1 1.053-.451q.631 0 1.053.451.451.421.451 1.053 0 .602-.451 1.053a1.38 1.38 0 0 1-1.053.451m15.973 21.541a30.5 30.5 0 0 1-2.527-3.971 22.6 22.6 0 0 1-1.805-4.573 18.8 18.8 0 0 1-.662-4.994q0-2.618.662-4.994a22 22 0 0 1 1.805-4.543 29.5 29.5 0 0 1 2.527-4.001h2.467a34 34 0 0 0-2.527 4.121 23.6 23.6 0 0 0-1.805 4.573 17.8 17.8 0 0 0-.662 4.844q0 2.466.662 4.843a23.6 23.6 0 0 0 1.805 4.573 37 37 0 0 0 2.527 4.122zm11.997-2.648q-2.166 0-3.64-.812a6.5 6.5 0 0 1-2.346-2.256q-.873-1.414-1.264-3.249a20.7 20.7 0 0 1-.361-3.941q0-2.709.542-4.844.571-2.136 1.624-3.61 1.054-1.504 2.557-2.287 1.504-.782 3.4-.782a9.8 9.8 0 0 1 3.099.511 9.4 9.4 0 0 1 2.767 1.354l-1.414 1.805a8 8 0 0 0-2.075-1.022q-1.113-.392-2.136-.392-3.07 0-4.664 2.588t-1.414 7.852l-.541-.542q.721-1.835 2.316-2.888 1.595-1.083 3.761-1.083 2.016 0 3.58.873a6.14 6.14 0 0 1 2.467 2.436q.903 1.535.903 3.52 0 1.956-.903 3.52-.903 1.534-2.527 2.407-1.595.842-3.731.842m0-2.226q1.354 0 2.377-.571a4.2 4.2 0 0 0 1.625-1.625q.601-1.053.601-2.407 0-1.353-.601-2.377a3.97 3.97 0 0 0-1.625-1.624q-1.023-.572-2.377-.572-1.323 0-2.376.572a4.16 4.16 0 0 0-1.655 1.624q-.602 1.024-.602 2.377 0 1.354.602 2.407a4.44 4.44 0 0 0 1.655 1.625q1.053.571 2.376.571m15.964 2.226q-1.264 0-2.587-.361a9.2 9.2 0 0 1-2.467-1.173 6.5 6.5 0 0 1-1.895-2.016l2.045-1.173q1.053 1.324 2.287 1.926a5.8 5.8 0 0 0 2.557.601q2.076 0 3.37-1.263 1.323-1.294 1.323-3.37 0-2.046-1.263-3.339-1.264-1.294-3.31-1.294-1.113 0-2.196.512-1.082.48-1.685 1.203l-2.286-.542 1.023-11.131h11.222v2.287h-8.966l-.631 6.708a7.8 7.8 0 0 1 1.865-.812 7.3 7.3 0 0 1 2.076-.301q1.924 0 3.429.843a6.2 6.2 0 0 1 2.377 2.346q.873 1.504.872 3.46 0 2.046-.932 3.61-.903 1.534-2.527 2.407-1.595.873-3.701.872m17.372 0q-2.407 0-4.272-1.383-1.866-1.415-2.919-3.851-1.053-2.467-1.053-5.656 0-3.19 1.053-5.626 1.053-2.467 2.889-3.851 1.864-1.414 4.302-1.414 2.436 0 4.272 1.414 1.865 1.384 2.918 3.851 1.083 2.437 1.083 5.626t-1.053 5.656q-1.053 2.436-2.918 3.851-1.866 1.383-4.302 1.383m0-2.286q1.685 0 2.978-1.113 1.324-1.113 2.046-3.039.752-1.925.752-4.452t-.752-4.453q-.722-1.955-2.046-3.038-1.293-1.114-2.978-1.114t-2.979 1.114q-1.293 1.083-2.045 3.038-.723 1.926-.722 4.453 0 2.527.722 4.452.752 1.926 2.045 3.039 1.325 1.113 2.979 1.113m22.447 1.925v-18.742h-6.709v-2.317h15.945v2.317h-6.709v18.742zm15.433 0-6.438-21.059h2.557l5.265 17.178 5.084-17.178h2.527l4.994 17.118 5.325-17.118h2.558l-6.529 21.059h-2.738l-4.873-16.937-5.024 16.937zm23.441 0V307.09h2.407v8.213q.752-1.233 1.956-1.895t2.798-.662q1.745 0 3.068.722 1.325.691 2.046 2.226.752 1.535.722 4.032v8.423h-2.407v-7.701q0-2.226-.541-3.4-.512-1.173-1.414-1.594-.903-.452-2.046-.452-1.986 0-3.099 1.414-1.083 1.385-1.083 3.941v7.792zm17.715 3.009h-2.466a32 32 0 0 0 2.527-4.122 23.6 23.6 0 0 0 1.805-4.573q.662-2.377.662-4.843a17.8 17.8 0 0 0-.662-4.844 23.6 23.6 0 0 0-1.805-4.573 29.4 29.4 0 0 0-2.527-4.121h2.466a26 26 0 0 1 2.528 4.001 22 22 0 0 1 1.805 4.543q.662 2.376.662 4.994a18.8 18.8 0 0 1-.662 4.994 22.7 22.7 0 0 1-1.805 4.573 27 27 0 0 1-2.528 3.971m8.989-2.587q-.692 0-1.203-.482a1.66 1.66 0 0 1-.481-1.173q0-.691.481-1.173a1.65 1.65 0 0 1 1.203-.512q.693 0 1.174.512.481.482.481 1.173 0 .661-.481 1.173a1.6 1.6 0 0 1-1.174.482"/></svg>