<svg width="600" height="375" viewBox="0 0 600 375" fill="none" xmlns="http://www.w3.org/2000/svg">
<rect x="1.41022" y="1.41022" width="596.995" height="371.359" rx="6.11097" stroke="#8FCE79" stroke-width="2.82045"/>
<path d="M483.133 45.127L278.562 75.2642L297.541 205.03L502.112 174.893L483.133 45.127ZM399.146 185.309L307.663 137.302L381.541 64.9338L473.024 112.941L399.146 185.309Z" fill="#8FCE79"/>
<path d="M358.46 101.249C384.028 104.896 408.591 115.363 428.909 131.34C429.523 127.498 429.545 123.483 428.952 119.428C425.793 97.8274 405.752 82.8567 384.144 86.0402C373.531 87.6036 364.481 93.2978 358.46 101.249Z" fill="#8FCE79"/>
<path d="M353.468 109.928C350.792 116.34 349.758 123.557 350.838 130.943C353.997 152.543 374.038 167.514 395.646 164.331C409.669 162.265 420.863 153.071 426.138 140.913C405.438 123.814 380.125 112.978 353.468 109.928Z" fill="#8FCE79"/>
<path d="M138.634 184.575V155.287H135.723V187.499H156.297C156.225 187.029 156.186 186.526 156.186 186.023C156.186 185.52 156.23 185.051 156.297 184.564H138.634L138.634 184.575Z" fill="#8FCE79"/>
<path d="M109.426 190.572V155.287H106.498V190.572C107.469 190.399 108.456 190.399 109.426 190.572Z" fill="#8FCE79"/>
<path d="M94.4248 74.8931C107.364 74.8931 119.312 81.4743 125.929 92.2817C125.95 92.2817 125.972 92.2817 125.993 92.2817C140.431 92.2819 152.97 102.505 155.423 116.245C166.226 116.857 175.029 125.545 175.029 136.428V147.278L173.003 145.089C171.991 147.152 170.614 149.052 168.904 150.704L168.871 150.735C166.406 153.066 163.448 154.779 160.212 155.732L160.186 155.74L160.158 155.748C159.552 155.917 158.907 156.075 158.231 156.204L158.232 156.205C156.902 156.457 155.537 156.582 154.182 156.582H68.457C60.9042 156.581 54.0123 153.644 49.0186 148.828C43.9939 143.998 40.8761 137.082 40.876 129.895C40.876 122.741 43.7741 115.99 48.9863 110.965C51.6004 108.419 54.7538 106.42 58.1807 105.113C60.8082 87.6438 76.2014 74.8933 94.4248 74.8931Z" fill="#8FCE79" stroke="black" stroke-width="8.50214"/>
<path d="M110.282 193.831C109.552 193.518 108.754 193.362 107.957 193.362C107.159 193.362 106.356 193.535 105.614 193.831C103.489 194.776 102.117 196.894 102.117 199.214C102.117 200.03 102.29 200.801 102.575 201.489C103.16 202.892 104.276 204.021 105.687 204.624C106.384 204.909 107.159 205.066 107.957 205.066C108.754 205.066 109.53 204.892 110.227 204.624C111.627 204.021 112.753 202.908 113.339 201.489C113.64 200.801 113.796 200.013 113.796 199.214C113.796 198.929 113.779 198.644 113.74 198.353C113.439 196.38 112.156 194.647 110.282 193.831Z" fill="#8FCE79"/>
<path d="M51.8292 180.239C51.5448 180.211 51.2603 180.183 50.9703 180.183C50.156 180.183 49.3863 180.356 48.7004 180.641C47.3004 181.245 46.1739 182.357 45.5715 183.76C45.287 184.458 45.1309 185.235 45.1309 186.035C45.1309 186.834 45.3038 187.622 45.5715 188.309C46.1738 189.712 47.2837 190.841 48.7004 191.445C49.3864 191.73 50.1727 191.887 50.9703 191.887C53.2849 191.887 55.3988 190.512 56.3413 188.365C56.6536 187.633 56.8098 186.834 56.8098 186.035C56.8098 185.235 56.6369 184.43 56.3413 183.687C55.5158 181.826 53.7982 180.54 51.8292 180.239Z" fill="#8FCE79"/>
<path d="M167.213 180.641C166.527 180.339 165.741 180.183 164.943 180.183C162.628 180.183 160.515 181.569 159.572 183.704C159.26 184.436 159.104 185.235 159.104 186.035C159.104 186.834 159.276 187.639 159.572 188.393C160.397 190.238 162.115 191.54 164.084 191.825C164.369 191.87 164.653 191.881 164.943 191.881C165.757 191.881 166.527 191.708 167.213 191.439C168.613 190.836 169.74 189.723 170.342 188.304C170.626 187.616 170.783 186.828 170.783 186.029C170.783 185.23 170.61 184.453 170.342 183.754C169.74 182.368 168.63 181.233 167.213 180.635L167.213 180.641Z" fill="#8FCE79"/>
<path d="M77.2747 184.576H59.6113C59.6838 185.045 59.7229 185.537 59.7229 186.034C59.7229 186.537 59.6783 187.024 59.6113 187.51H80.1861V155.298H77.2746V184.587L77.2747 184.576Z" fill="#8FCE79"/>
<path d="M213.589 136.987V129.391H251.102V136.987H213.589ZM213.589 155.744V148.147H251.102V155.744H213.589Z" fill="#8FCE79"/>
<path d="M47.9248 256.149V235.09H54.3329C56.3185 235.09 58.0634 235.541 59.5676 236.444C61.0919 237.326 62.2853 238.56 63.1477 240.144C64.0102 241.729 64.4414 243.554 64.4414 245.62C64.4414 247.666 64.0102 249.481 63.1477 251.065C62.2853 252.65 61.0919 253.893 59.5676 254.796C58.0634 255.698 56.3185 256.149 54.3329 256.149H47.9248ZM50.482 253.803H54.3329C55.3959 253.803 56.3787 253.602 57.2812 253.201C58.1837 252.78 58.976 252.188 59.6579 251.426C60.3599 250.664 60.9014 249.791 61.2825 248.809C61.6836 247.806 61.8842 246.743 61.8842 245.62C61.8842 244.497 61.6836 243.444 61.2825 242.461C60.9014 241.458 60.3599 240.576 59.6579 239.813C58.976 239.051 58.1837 238.47 57.2812 238.068C56.3787 237.647 55.3959 237.437 54.3329 237.437H50.482V253.803ZM65.5454 241.438L67.2602 235.09H69.9679L67.6213 241.438H65.5454ZM71.8598 256.149V241.107H74.2665V256.149H71.8598ZM73.0932 237.617C72.6921 237.617 72.3411 237.467 72.0403 237.166C71.7394 236.865 71.589 236.514 71.589 236.113C71.589 235.692 71.7394 235.341 72.0403 235.06C72.3411 234.759 72.6921 234.609 73.0932 234.609C73.5144 234.609 73.8654 234.759 74.1462 235.06C74.447 235.341 74.5975 235.692 74.5975 236.113C74.5975 236.514 74.447 236.865 74.1462 237.166C73.8654 237.467 73.5144 237.617 73.0932 237.617ZM84.5749 256.51C83.0907 256.51 81.777 256.179 80.6338 255.518C79.4905 254.836 78.598 253.903 77.9562 252.72C77.3144 251.536 76.9935 250.173 76.9935 248.628C76.9935 247.084 77.3044 245.72 77.9261 244.537C78.5679 243.353 79.4604 242.431 80.6037 241.769C81.7469 241.087 83.0506 240.746 84.5147 240.746C85.9588 240.746 87.2524 241.077 88.3956 241.739C89.5388 242.401 90.4113 243.333 91.013 244.537L88.8168 245.529C88.4157 244.727 87.834 244.105 87.0719 243.664C86.3098 243.203 85.4373 242.972 84.4545 242.972C83.4718 242.972 82.5993 243.213 81.8371 243.694C81.0951 244.176 80.5034 244.848 80.0621 245.71C79.641 246.552 79.4304 247.525 79.4304 248.628C79.4304 249.731 79.641 250.714 80.0621 251.577C80.5034 252.419 81.1051 253.081 81.8672 253.562C82.6494 254.043 83.5319 254.284 84.5147 254.284C85.4975 254.284 86.3699 254.033 87.1321 253.532C87.9143 253.031 88.5059 252.329 88.9071 251.426L91.1033 252.419C90.5016 253.703 89.6291 254.705 88.4859 255.427C87.3427 256.149 86.039 256.51 84.5749 256.51ZM93.457 256.149V241.107H95.8638V256.149H93.457ZM94.6905 237.617C94.2893 237.617 93.9383 237.467 93.6375 237.166C93.3366 236.865 93.1862 236.514 93.1862 236.113C93.1862 235.692 93.3366 235.341 93.6375 235.06C93.9383 234.759 94.2893 234.609 94.6905 234.609C95.1116 234.609 95.4626 234.759 95.7434 235.06C96.0443 235.341 96.1947 235.692 96.1947 236.113C96.1947 236.514 96.0443 236.865 95.7434 237.166C95.4626 237.467 95.1116 237.617 94.6905 237.617ZM105.669 256.149V254.043C105.669 253.382 105.8 252.73 106.061 252.088C106.341 251.426 106.732 250.774 107.234 250.132C107.755 249.491 108.387 248.889 109.129 248.327L113.491 245.048C114.013 244.687 114.464 244.276 114.845 243.815C115.246 243.333 115.557 242.842 115.778 242.341C115.999 241.819 116.109 241.318 116.109 240.836C116.109 240.134 115.938 239.503 115.597 238.941C115.256 238.359 114.775 237.898 114.153 237.557C113.532 237.216 112.8 237.046 111.957 237.046C111.135 237.046 110.413 237.206 109.791 237.527C109.169 237.828 108.658 238.239 108.257 238.76C107.856 239.262 107.565 239.803 107.384 240.385L104.797 239.874C105.038 238.971 105.469 238.129 106.091 237.346C106.732 236.564 107.545 235.932 108.527 235.451C109.51 234.97 110.603 234.729 111.807 234.729C113.211 234.729 114.424 235 115.447 235.541C116.47 236.063 117.262 236.785 117.824 237.707C118.405 238.61 118.696 239.643 118.696 240.806C118.696 241.909 118.395 242.952 117.794 243.935C117.192 244.918 116.319 245.87 115.176 246.793L111.055 249.922C110.252 250.524 109.631 251.155 109.189 251.817C108.768 252.479 108.527 253.171 108.467 253.893H118.997V256.149H105.669ZM129.551 256.51C127.947 256.51 126.523 256.049 125.279 255.127C124.036 254.184 123.063 252.9 122.361 251.276C121.659 249.631 121.308 247.746 121.308 245.62C121.308 243.494 121.659 241.618 122.361 239.994C123.063 238.349 124.026 237.066 125.249 236.143C126.493 235.2 127.927 234.729 129.551 234.729C131.176 234.729 132.6 235.2 133.823 236.143C135.067 237.066 136.039 238.349 136.741 239.994C137.463 241.618 137.824 243.494 137.824 245.62C137.824 247.746 137.473 249.631 136.771 251.276C136.07 252.9 135.097 254.184 133.853 255.127C132.61 256.049 131.176 256.51 129.551 256.51ZM129.551 254.224C130.674 254.224 131.667 253.853 132.53 253.111C133.412 252.369 134.094 251.356 134.575 250.072C135.077 248.789 135.327 247.304 135.327 245.62C135.327 243.935 135.077 242.451 134.575 241.167C134.094 239.864 133.412 238.851 132.53 238.129C131.667 237.387 130.674 237.015 129.551 237.015C128.428 237.015 127.435 237.387 126.573 238.129C125.71 238.851 125.028 239.864 124.527 241.167C124.046 242.451 123.805 243.935 123.805 245.62C123.805 247.304 124.046 248.789 124.527 250.072C125.028 251.356 125.71 252.369 126.573 253.111C127.455 253.853 128.448 254.224 129.551 254.224ZM146.454 256.51C145.431 256.51 144.499 256.36 143.656 256.059C142.834 255.738 142.122 255.327 141.52 254.826C140.939 254.324 140.477 253.793 140.136 253.231L142.242 252.058C142.463 252.339 142.734 252.66 143.055 253.021C143.396 253.362 143.827 253.652 144.348 253.893C144.87 254.134 145.511 254.254 146.274 254.254C147.637 254.254 148.731 253.863 149.553 253.081C150.375 252.299 150.786 251.316 150.786 250.132C150.786 249.23 150.536 248.468 150.034 247.846C149.553 247.224 148.851 246.753 147.928 246.432C147.006 246.111 145.903 245.951 144.619 245.951H144.047V243.785H144.619C146.344 243.785 147.708 243.494 148.711 242.912C149.733 242.31 150.245 241.458 150.245 240.355C150.245 239.753 150.084 239.202 149.763 238.7C149.443 238.179 148.971 237.768 148.349 237.467C147.748 237.146 147.046 236.985 146.244 236.985C145.702 236.985 145.191 237.066 144.709 237.226C144.248 237.366 143.817 237.587 143.416 237.888C143.035 238.169 142.684 238.53 142.363 238.971L140.377 237.828C140.758 237.206 141.239 236.665 141.821 236.203C142.423 235.742 143.105 235.381 143.867 235.12C144.629 234.859 145.461 234.729 146.364 234.729C147.587 234.729 148.68 234.97 149.643 235.451C150.626 235.932 151.398 236.594 151.96 237.437C152.521 238.259 152.802 239.192 152.802 240.235C152.802 241.298 152.501 242.22 151.899 243.002C151.298 243.765 150.475 244.376 149.433 244.838C150.636 245.359 151.579 246.081 152.261 247.004C152.962 247.906 153.313 249.009 153.313 250.313C153.313 251.556 153.003 252.65 152.381 253.592C151.779 254.515 150.957 255.237 149.914 255.758C148.871 256.26 147.718 256.51 146.454 256.51ZM163.517 256.51C161.913 256.51 160.489 256.049 159.245 255.127C158.002 254.184 157.029 252.9 156.327 251.276C155.625 249.631 155.274 247.746 155.274 245.62C155.274 243.494 155.625 241.618 156.327 239.994C157.029 238.349 157.992 237.066 159.215 236.143C160.459 235.2 161.893 234.729 163.517 234.729C165.142 234.729 166.566 235.2 167.789 236.143C169.033 237.066 170.006 238.349 170.707 239.994C171.43 241.618 171.791 243.494 171.791 245.62C171.791 247.746 171.44 249.631 170.738 251.276C170.036 252.9 169.063 254.184 167.819 255.127C166.576 256.049 165.142 256.51 163.517 256.51ZM163.517 254.224C164.64 254.224 165.633 253.853 166.496 253.111C167.378 252.369 168.06 251.356 168.541 250.072C169.043 248.789 169.293 247.304 169.293 245.62C169.293 243.935 169.043 242.451 168.541 241.167C168.06 239.864 167.378 238.851 166.496 238.129C165.633 237.387 164.64 237.015 163.517 237.015C162.394 237.015 161.401 237.387 160.539 238.129C159.676 238.851 158.994 239.864 158.493 241.167C158.012 242.451 157.771 243.935 157.771 245.62C157.771 247.304 158.012 248.789 158.493 250.072C158.994 251.356 159.676 252.369 160.539 253.111C161.421 253.853 162.414 254.224 163.517 254.224ZM173.531 259.609L175.246 253.261H177.953L175.607 259.609H173.531ZM186.982 256.149V235.09H189.388V256.149H186.982ZM191.192 241.438L192.907 235.09H195.614L193.268 241.438H191.192ZM198.048 256.149V235.09H200.605V256.149H198.048ZM202.852 256.149L211.427 235.09H214.074L222.648 256.149H219.971L217.534 250.163H207.997L205.56 256.149H202.852ZM208.869 247.876H216.631L212.75 238.279L208.869 247.876ZM230.96 262.166V241.107H233.216L233.336 243.664C233.898 242.762 234.61 242.05 235.473 241.528C236.355 241.007 237.348 240.746 238.451 240.746C239.795 240.746 240.978 241.077 242.001 241.739C243.024 242.401 243.816 243.323 244.378 244.507C244.959 245.69 245.25 247.064 245.25 248.628C245.25 250.173 244.959 251.546 244.378 252.75C243.816 253.933 243.024 254.856 242.001 255.518C240.978 256.179 239.795 256.51 238.451 256.51C237.348 256.51 236.365 256.26 235.503 255.758C234.64 255.237 233.928 254.525 233.367 253.622V262.166H230.96ZM237.909 254.314C238.852 254.314 239.684 254.074 240.406 253.592C241.149 253.111 241.73 252.439 242.151 251.577C242.593 250.714 242.813 249.731 242.813 248.628C242.813 247.525 242.603 246.542 242.181 245.68C241.78 244.817 241.209 244.146 240.467 243.664C239.724 243.183 238.882 242.942 237.939 242.942C237.057 242.942 236.265 243.183 235.563 243.664C234.881 244.146 234.339 244.817 233.938 245.68C233.557 246.542 233.367 247.525 233.367 248.628C233.367 249.731 233.557 250.714 233.938 251.577C234.339 252.439 234.881 253.111 235.563 253.592C236.245 254.074 237.027 254.314 237.909 254.314ZM254.397 256.51C252.933 256.51 251.629 256.179 250.486 255.518C249.363 254.836 248.48 253.903 247.839 252.72C247.197 251.536 246.876 250.173 246.876 248.628C246.876 247.084 247.187 245.72 247.808 244.537C248.45 243.353 249.333 242.431 250.456 241.769C251.599 241.087 252.893 240.746 254.337 240.746C255.821 240.746 257.125 241.087 258.248 241.769C259.391 242.431 260.274 243.353 260.895 244.537C261.537 245.72 261.858 247.084 261.858 248.628C261.858 250.173 261.537 251.536 260.895 252.72C260.274 253.903 259.401 254.836 258.278 255.518C257.155 256.179 255.861 256.51 254.397 256.51ZM254.397 254.284C255.4 254.284 256.272 254.043 257.014 253.562C257.757 253.081 258.338 252.419 258.759 251.577C259.201 250.734 259.421 249.751 259.421 248.628C259.421 247.505 259.201 246.522 258.759 245.68C258.338 244.838 257.747 244.176 256.984 243.694C256.222 243.213 255.34 242.972 254.337 242.972C253.354 242.972 252.482 243.213 251.72 243.694C250.977 244.176 250.386 244.838 249.945 245.68C249.523 246.522 249.313 247.505 249.313 248.628C249.313 249.731 249.523 250.714 249.945 251.577C250.386 252.419 250.987 253.081 251.75 253.562C252.532 254.043 253.414 254.284 254.397 254.284ZM269.809 256.51C268.646 256.51 267.623 256.28 266.741 255.818C265.878 255.337 265.196 254.585 264.695 253.562C264.214 252.519 263.973 251.175 263.973 249.531V241.107H266.38V248.809C266.38 250.293 266.55 251.426 266.891 252.208C267.232 252.991 267.704 253.532 268.305 253.833C268.927 254.114 269.619 254.254 270.381 254.254C271.685 254.254 272.698 253.783 273.42 252.84C274.162 251.897 274.533 250.584 274.533 248.899V241.107H276.94V256.149H274.683L274.563 253.893C274.061 254.735 273.41 255.387 272.607 255.849C271.805 256.29 270.872 256.51 269.809 256.51ZM280.304 256.149V241.107H282.711V243.785C283.313 242.842 284.085 242.15 285.027 241.709C285.99 241.267 286.993 241.047 288.036 241.047V243.303C287.153 243.303 286.301 243.454 285.479 243.754C284.676 244.035 284.015 244.507 283.493 245.168C282.972 245.83 282.711 246.733 282.711 247.876V256.149H280.304ZM289.634 256.149V241.107H292.041V243.785C292.642 242.842 293.414 242.15 294.357 241.709C295.32 241.267 296.323 241.047 297.366 241.047V243.303C296.483 243.303 295.631 243.454 294.808 243.754C294.006 244.035 293.344 244.507 292.823 245.168C292.301 245.83 292.041 246.733 292.041 247.876V256.149H289.634ZM303.717 256.51C301.952 256.51 300.568 256.109 299.565 255.307C298.582 254.485 298.091 253.352 298.091 251.907C298.091 250.383 298.592 249.22 299.595 248.418C300.618 247.595 302.042 247.184 303.867 247.184H308.049C307.949 245.76 307.598 244.697 306.996 243.995C306.394 243.273 305.492 242.912 304.288 242.912C303.466 242.912 302.754 243.083 302.152 243.424C301.571 243.744 301.089 244.266 300.708 244.988L298.542 244.146C298.923 243.444 299.385 242.842 299.926 242.341C300.468 241.819 301.099 241.428 301.821 241.167C302.544 240.886 303.366 240.746 304.288 240.746C305.692 240.746 306.846 241.027 307.748 241.588C308.671 242.13 309.363 242.942 309.824 244.025C310.285 245.088 310.506 246.412 310.486 247.996L310.456 256.149H308.23L308.109 254.134C307.668 254.896 307.076 255.488 306.334 255.909C305.592 256.31 304.72 256.51 303.717 256.51ZM303.837 254.404C304.7 254.404 305.452 254.224 306.094 253.863C306.735 253.482 307.227 252.95 307.568 252.268C307.929 251.587 308.109 250.764 308.109 249.802V249.2H304.409C303.005 249.2 302.002 249.43 301.4 249.892C300.819 250.353 300.528 251.015 300.528 251.877C300.528 252.66 300.819 253.281 301.4 253.743C301.982 254.184 302.794 254.404 303.837 254.404ZM313.614 256.149V241.107H316.021V256.149H313.614ZM314.848 237.617C314.447 237.617 314.096 237.467 313.795 237.166C313.494 236.865 313.344 236.514 313.344 236.113C313.344 235.692 313.494 235.341 313.795 235.06C314.096 234.759 314.447 234.609 314.848 234.609C315.269 234.609 315.62 234.759 315.901 235.06C316.202 235.341 316.352 235.692 316.352 236.113C316.352 236.514 316.202 236.865 315.901 237.166C315.62 237.467 315.269 237.617 314.848 237.617ZM325.276 256.51C323.812 256.51 322.679 256.129 321.877 255.367C321.075 254.605 320.673 253.532 320.673 252.148V243.243H318.056V241.107H320.673V236.414H323.08V241.107H327.593V243.243H323.08V251.907C323.08 252.67 323.281 253.261 323.682 253.682C324.103 254.084 324.685 254.284 325.427 254.284C325.668 254.284 325.898 254.254 326.119 254.194C326.36 254.114 326.67 253.933 327.051 253.652L327.984 255.608C327.463 255.949 326.991 256.179 326.57 256.3C326.149 256.44 325.718 256.51 325.276 256.51ZM343.461 256.51C341.977 256.51 340.663 256.179 339.52 255.518C338.377 254.836 337.484 253.903 336.842 252.72C336.2 251.536 335.88 250.173 335.88 248.628C335.88 247.084 336.19 245.72 336.812 244.537C337.454 243.353 338.347 242.431 339.49 241.769C340.633 241.087 341.937 240.746 343.401 240.746C344.845 240.746 346.139 241.077 347.282 241.739C348.425 242.401 349.297 243.333 349.899 244.537L347.703 245.529C347.302 244.727 346.72 244.105 345.958 243.664C345.196 243.203 344.323 242.972 343.341 242.972C342.358 242.972 341.485 243.213 340.723 243.694C339.981 244.176 339.389 244.848 338.948 245.71C338.527 246.552 338.316 247.525 338.316 248.628C338.316 249.731 338.527 250.714 338.948 251.577C339.389 252.419 339.991 253.081 340.753 253.562C341.536 254.043 342.418 254.284 343.401 254.284C344.384 254.284 345.256 254.033 346.018 253.532C346.8 253.031 347.392 252.329 347.793 251.426L349.989 252.419C349.388 253.703 348.515 254.705 347.372 255.427C346.229 256.149 344.925 256.51 343.461 256.51ZM358.841 256.51C357.377 256.51 356.074 256.179 354.93 255.518C353.807 254.836 352.925 253.903 352.283 252.72C351.641 251.536 351.32 250.173 351.32 248.628C351.32 247.084 351.631 245.72 352.253 244.537C352.895 243.353 353.777 242.431 354.9 241.769C356.043 241.087 357.337 240.746 358.781 240.746C360.265 240.746 361.569 241.087 362.692 241.769C363.835 242.431 364.718 243.353 365.34 244.537C365.981 245.72 366.302 247.084 366.302 248.628C366.302 250.173 365.981 251.536 365.34 252.72C364.718 253.903 363.845 254.836 362.722 255.518C361.599 256.179 360.305 256.51 358.841 256.51ZM358.841 254.284C359.844 254.284 360.717 254.043 361.459 253.562C362.201 253.081 362.782 252.419 363.204 251.577C363.645 250.734 363.866 249.751 363.866 248.628C363.866 247.505 363.645 246.522 363.204 245.68C362.782 244.838 362.191 244.176 361.429 243.694C360.667 243.213 359.784 242.972 358.781 242.972C357.798 242.972 356.926 243.213 356.164 243.694C355.422 244.176 354.83 244.838 354.389 245.68C353.968 246.522 353.757 247.505 353.757 248.628C353.757 249.731 353.968 250.714 354.389 251.577C354.83 252.419 355.432 253.081 356.194 253.562C356.976 254.043 357.859 254.284 358.841 254.284ZM368.808 256.149V241.107H371.065L371.185 243.363C371.687 242.521 372.338 241.879 373.141 241.438C373.943 240.977 374.876 240.746 375.939 240.746C377.122 240.746 378.145 240.987 379.007 241.468C379.89 241.929 380.572 242.671 381.053 243.694C381.554 244.717 381.795 246.061 381.775 247.726V256.149H379.368V248.448C379.368 246.964 379.198 245.83 378.857 245.048C378.516 244.266 378.044 243.734 377.443 243.454C376.841 243.153 376.159 243.002 375.397 243.002C374.073 243.002 373.04 243.474 372.298 244.416C371.576 245.339 371.215 246.653 371.215 248.357V256.149H368.808ZM390.013 256.51C388.91 256.51 387.947 256.35 387.125 256.029C386.303 255.688 385.611 255.247 385.049 254.705C384.508 254.164 384.117 253.572 383.876 252.93L385.982 252.058C386.323 252.74 386.834 253.291 387.516 253.713C388.198 254.134 388.95 254.344 389.773 254.344C390.715 254.344 391.508 254.164 392.149 253.803C392.791 253.422 393.112 252.89 393.112 252.208C393.112 251.587 392.871 251.085 392.39 250.704C391.929 250.323 391.237 250.012 390.314 249.771L388.87 249.38C387.506 249.019 386.443 248.478 385.681 247.756C384.919 247.014 384.538 246.181 384.538 245.259C384.538 243.835 384.999 242.732 385.922 241.949C386.864 241.147 388.258 240.746 390.104 240.746C390.986 240.746 391.788 240.876 392.51 241.137C393.232 241.398 393.854 241.769 394.376 242.25C394.897 242.712 395.278 243.263 395.519 243.905L393.413 244.838C393.152 244.156 392.721 243.664 392.119 243.363C391.518 243.063 390.785 242.912 389.923 242.912C389 242.912 388.278 243.113 387.757 243.514C387.235 243.895 386.975 244.436 386.975 245.138C386.975 245.54 387.185 245.921 387.607 246.282C388.048 246.623 388.69 246.903 389.532 247.124L391.036 247.515C392.019 247.756 392.841 248.117 393.503 248.598C394.165 249.059 394.666 249.591 395.007 250.193C395.348 250.794 395.519 251.436 395.519 252.118C395.519 253.021 395.278 253.803 394.797 254.465C394.315 255.127 393.664 255.638 392.841 255.999C392.019 256.34 391.076 256.51 390.013 256.51ZM404.576 256.51C403.111 256.51 401.808 256.179 400.665 255.518C399.541 254.836 398.659 253.903 398.017 252.72C397.375 251.536 397.054 250.173 397.054 248.628C397.054 247.084 397.365 245.72 397.987 244.537C398.629 243.353 399.511 242.431 400.634 241.769C401.778 241.087 403.071 240.746 404.515 240.746C406 240.746 407.303 241.087 408.426 241.769C409.57 242.431 410.452 243.353 411.074 244.537C411.716 245.72 412.037 247.084 412.037 248.628C412.037 250.173 411.716 251.536 411.074 252.72C410.452 253.903 409.58 254.836 408.457 255.518C407.333 256.179 406.04 256.51 404.576 256.51ZM404.576 254.284C405.578 254.284 406.451 254.043 407.193 253.562C407.935 253.081 408.517 252.419 408.938 251.577C409.379 250.734 409.6 249.751 409.6 248.628C409.6 247.505 409.379 246.522 408.938 245.68C408.517 244.838 407.925 244.176 407.163 243.694C406.401 243.213 405.518 242.972 404.515 242.972C403.533 242.972 402.66 243.213 401.898 243.694C401.156 244.176 400.564 244.838 400.123 245.68C399.702 246.522 399.491 247.505 399.491 248.628C399.491 249.731 399.702 250.714 400.123 251.577C400.564 252.419 401.166 253.081 401.928 253.562C402.71 254.043 403.593 254.284 404.576 254.284ZM414.543 256.149V241.107H416.799L416.919 243.213C417.381 242.411 417.972 241.799 418.694 241.378C419.416 240.957 420.259 240.746 421.221 240.746C422.425 240.746 423.448 241.027 424.29 241.588C425.153 242.15 425.774 243.002 426.155 244.146C426.577 243.042 427.188 242.2 427.991 241.618C428.813 241.037 429.786 240.746 430.909 240.746C432.594 240.746 433.917 241.308 434.88 242.431C435.863 243.554 436.344 245.259 436.324 247.545V256.149H433.917V248.448C433.917 246.964 433.757 245.83 433.436 245.048C433.135 244.266 432.724 243.734 432.202 243.454C431.681 243.153 431.079 243.002 430.397 243.002C429.214 243.002 428.291 243.474 427.63 244.416C426.968 245.339 426.637 246.653 426.637 248.357V256.149H424.23V248.448C424.23 246.964 424.069 245.83 423.749 245.048C423.448 244.266 423.027 243.734 422.485 243.454C421.964 243.153 421.362 243.002 420.68 243.002C419.517 243.002 418.604 243.474 417.942 244.416C417.28 245.339 416.949 246.653 416.949 248.357V256.149H414.543ZM439.297 256.149V241.107H441.553L441.673 243.213C442.135 242.411 442.726 241.799 443.448 241.378C444.17 240.957 445.013 240.746 445.975 240.746C447.179 240.746 448.202 241.027 449.044 241.588C449.907 242.15 450.528 243.002 450.909 244.146C451.331 243.042 451.942 242.2 452.745 241.618C453.567 241.037 454.54 240.746 455.663 240.746C457.347 240.746 458.671 241.308 459.634 242.431C460.617 243.554 461.098 245.259 461.078 247.545V256.149H458.671V248.448C458.671 246.964 458.511 245.83 458.19 245.048C457.889 244.266 457.478 243.734 456.956 243.454C456.435 243.153 455.833 243.002 455.151 243.002C453.968 243.002 453.045 243.474 452.383 244.416C451.722 245.339 451.391 246.653 451.391 248.357V256.149H448.984V248.448C448.984 246.964 448.823 245.83 448.503 245.048C448.202 244.266 447.781 243.734 447.239 243.454C446.718 243.153 446.116 243.002 445.434 243.002C444.271 243.002 443.358 243.474 442.696 244.416C442.034 245.339 441.703 246.653 441.703 248.357V256.149H439.297ZM470.639 256.51C469.175 256.51 467.881 256.179 466.758 255.518C465.635 254.836 464.753 253.903 464.111 252.72C463.489 251.536 463.178 250.173 463.178 248.628C463.178 247.084 463.489 245.72 464.111 244.537C464.753 243.353 465.625 242.431 466.728 241.769C467.851 241.087 469.135 240.746 470.579 240.746C471.983 240.746 473.196 241.097 474.219 241.799C475.242 242.481 476.034 243.444 476.596 244.687C477.158 245.931 477.438 247.395 477.438 249.079H465.615C465.715 250.724 466.237 252.008 467.179 252.93C468.122 253.853 469.315 254.314 470.759 254.314C471.822 254.314 472.715 254.064 473.437 253.562C474.179 253.061 474.751 252.399 475.152 251.577L477.228 252.629C476.847 253.412 476.335 254.094 475.693 254.675C475.072 255.257 474.33 255.708 473.467 256.029C472.625 256.35 471.682 256.51 470.639 256.51ZM465.795 247.064H474.851C474.791 246.201 474.56 245.459 474.159 244.838C473.778 244.216 473.277 243.734 472.655 243.393C472.033 243.053 471.331 242.882 470.549 242.882C469.787 242.882 469.055 243.053 468.353 243.393C467.651 243.714 467.069 244.196 466.608 244.838C466.146 245.459 465.876 246.201 465.795 247.064ZM479.638 256.149V241.107H482.045V243.785C482.647 242.842 483.419 242.15 484.361 241.709C485.324 241.267 486.327 241.047 487.37 241.047V243.303C486.487 243.303 485.635 243.454 484.813 243.754C484.01 244.035 483.349 244.507 482.827 245.168C482.306 245.83 482.045 246.733 482.045 247.876V256.149H479.638ZM495.715 262.166V241.107H497.972L498.092 243.664C498.654 242.762 499.366 242.05 500.228 241.528C501.111 241.007 502.103 240.746 503.207 240.746C504.55 240.746 505.734 241.077 506.757 241.739C507.779 242.401 508.572 243.323 509.133 244.507C509.715 245.69 510.006 247.064 510.006 248.628C510.006 250.173 509.715 251.546 509.133 252.75C508.572 253.933 507.779 254.856 506.757 255.518C505.734 256.179 504.55 256.51 503.207 256.51C502.103 256.51 501.121 256.26 500.258 255.758C499.396 255.237 498.684 254.525 498.122 253.622V262.166H495.715ZM502.665 254.314C503.608 254.314 504.44 254.074 505.162 253.592C505.904 253.111 506.486 252.439 506.907 251.577C507.348 250.714 507.569 249.731 507.569 248.628C507.569 247.525 507.358 246.542 506.937 245.68C506.536 244.817 505.964 244.146 505.222 243.664C504.48 243.183 503.638 242.942 502.695 242.942C501.813 242.942 501.02 243.183 500.318 243.664C499.637 244.146 499.095 244.817 498.694 245.68C498.313 246.542 498.122 247.525 498.122 248.628C498.122 249.731 498.313 250.714 498.694 251.577C499.095 252.439 499.637 253.111 500.318 253.592C501 254.074 501.783 254.314 502.665 254.314ZM512.504 256.149V235.09H514.911V256.149H512.504ZM523.724 256.51C522.561 256.51 521.538 256.28 520.655 255.818C519.793 255.337 519.111 254.585 518.61 253.562C518.128 252.519 517.888 251.175 517.888 249.531V241.107H520.294V248.809C520.294 250.293 520.465 251.426 520.806 252.208C521.147 252.991 521.618 253.532 522.22 253.833C522.842 254.114 523.534 254.254 524.296 254.254C525.599 254.254 526.612 253.783 527.334 252.84C528.076 251.897 528.447 250.584 528.447 248.899V241.107H530.854V256.149H528.598L528.477 253.893C527.976 254.735 527.324 255.387 526.522 255.849C525.72 256.29 524.787 256.51 523.724 256.51ZM539.484 256.51C538.38 256.51 537.418 256.35 536.595 256.029C535.773 255.688 535.081 255.247 534.52 254.705C533.978 254.164 533.587 253.572 533.346 252.93L535.452 252.058C535.793 252.74 536.305 253.291 536.987 253.713C537.668 254.134 538.421 254.344 539.243 254.344C540.186 254.344 540.978 254.164 541.62 253.803C542.261 253.422 542.582 252.89 542.582 252.208C542.582 251.587 542.342 251.085 541.86 250.704C541.399 250.323 540.707 250.012 539.784 249.771L538.34 249.38C536.976 249.019 535.914 248.478 535.151 247.756C534.389 247.014 534.008 246.181 534.008 245.259C534.008 243.835 534.469 242.732 535.392 241.949C536.335 241.147 537.729 240.746 539.574 240.746C540.456 240.746 541.259 240.876 541.981 241.137C542.703 241.398 543.324 241.769 543.846 242.25C544.367 242.712 544.748 243.263 544.989 243.905L542.883 244.838C542.622 244.156 542.191 243.664 541.589 243.363C540.988 243.063 540.256 242.912 539.393 242.912C538.471 242.912 537.749 243.113 537.227 243.514C536.706 243.895 536.445 244.436 536.445 245.138C536.445 245.54 536.656 245.921 537.077 246.282C537.518 246.623 538.16 246.903 539.002 247.124L540.506 247.515C541.489 247.756 542.312 248.117 542.973 248.598C543.635 249.059 544.137 249.591 544.478 250.193C544.819 250.794 544.989 251.436 544.989 252.118C544.989 253.021 544.748 253.803 544.267 254.465C543.786 255.127 543.134 255.638 542.312 255.999C541.489 256.34 540.547 256.51 539.484 256.51ZM53.1596 292.51C51.8158 292.51 50.6325 292.179 49.6096 291.518C48.5867 290.856 47.7844 289.933 47.2028 288.75C46.6412 287.546 46.3604 286.173 46.3604 284.628C46.3604 283.064 46.6412 281.69 47.2028 280.507C47.7844 279.323 48.5867 278.401 49.6096 277.739C50.6325 277.077 51.8158 276.746 53.1596 276.746C54.2627 276.746 55.2455 277.007 56.1079 277.528C56.9904 278.03 57.7024 278.732 58.2439 279.634V271.09H60.6507V292.149H58.3643L58.2439 289.592C57.7024 290.495 56.9904 291.207 56.1079 291.728C55.2455 292.25 54.2627 292.51 53.1596 292.51ZM53.7011 290.314C54.5836 290.314 55.3558 290.084 56.0176 289.622C56.6996 289.141 57.2311 288.479 57.6121 287.637C58.0133 286.774 58.2239 285.812 58.2439 284.749V284.538C58.2239 283.455 58.0133 282.492 57.6121 281.65C57.2311 280.787 56.6996 280.126 56.0176 279.664C55.3357 279.183 54.5535 278.942 53.671 278.942C52.7284 278.942 51.886 279.183 51.1439 279.664C50.4018 280.146 49.8202 280.817 49.399 281.68C48.9979 282.542 48.7973 283.525 48.7973 284.628C48.7973 285.731 49.0079 286.714 49.4291 287.577C49.8503 288.439 50.4319 289.111 51.174 289.592C51.9161 290.074 52.7585 290.314 53.7011 290.314ZM62.4605 277.438L64.1754 271.09H66.883L64.5364 277.438H62.4605ZM75.213 292.51C73.7489 292.51 72.4553 292.179 71.3321 291.518C70.2089 290.836 69.3264 289.903 68.6846 288.72C68.0629 287.536 67.752 286.173 67.752 284.628C67.752 283.084 68.0629 281.72 68.6846 280.537C69.3264 279.353 70.1989 278.431 71.302 277.769C72.4252 277.087 73.7088 276.746 75.1529 276.746C76.5568 276.746 77.7702 277.097 78.7931 277.799C79.816 278.481 80.6082 279.444 81.1698 280.687C81.7314 281.931 82.0122 283.395 82.0122 285.079H70.1889C70.2892 286.724 70.8106 288.008 71.7533 288.93C72.6959 289.853 73.8893 290.314 75.3334 290.314C76.3964 290.314 77.2889 290.064 78.0109 289.562C78.753 289.061 79.3246 288.399 79.7257 287.577L81.8016 288.629C81.4205 289.412 80.9091 290.094 80.2673 290.675C79.6455 291.257 78.9034 291.708 78.041 292.029C77.1986 292.35 76.256 292.51 75.213 292.51ZM70.3694 283.064H79.4249C79.3647 282.201 79.1341 281.459 78.7329 280.838C78.3519 280.216 77.8505 279.734 77.2287 279.393C76.607 279.053 75.905 278.882 75.1228 278.882C74.3606 278.882 73.6286 279.053 72.9266 279.393C72.2246 279.714 71.643 280.196 71.1817 280.838C70.7204 281.459 70.4496 282.201 70.3694 283.064ZM73.1372 274.971L76.6571 271.09H79.7558L75.8749 274.971H73.1372ZM84.2413 292.149V277.107H86.4977L86.618 279.363C87.1195 278.521 87.7713 277.879 88.5735 277.438C89.3758 276.977 90.3084 276.746 91.3714 276.746C92.5548 276.746 93.5777 276.987 94.4401 277.468C95.3226 277.929 96.0045 278.671 96.4858 279.694C96.9873 280.717 97.2279 282.061 97.2079 283.726V292.149H94.8011V284.448C94.8011 282.964 94.6306 281.83 94.2897 281.048C93.9487 280.266 93.4774 279.734 92.8757 279.454C92.274 279.153 91.5921 279.002 90.8299 279.002C89.5062 279.002 88.4733 279.474 87.7312 280.416C87.0091 281.339 86.6481 282.653 86.6481 284.357V292.149H84.2413ZM106.77 292.51C105.306 292.51 104.012 292.179 102.889 291.518C101.766 290.836 100.883 289.903 100.242 288.72C99.6198 287.536 99.3089 286.173 99.3089 284.628C99.3089 283.084 99.6198 281.72 100.242 280.537C100.883 279.353 101.756 278.431 102.859 277.769C103.982 277.087 105.266 276.746 106.71 276.746C108.114 276.746 109.327 277.097 110.35 277.799C111.373 278.481 112.165 279.444 112.727 280.687C113.288 281.931 113.569 283.395 113.569 285.079H101.746C101.846 286.724 102.368 288.008 103.31 288.93C104.253 289.853 105.446 290.314 106.89 290.314C107.953 290.314 108.846 290.064 109.568 289.562C110.31 289.061 110.882 288.399 111.283 287.577L113.359 288.629C112.977 289.412 112.466 290.094 111.824 290.675C111.202 291.257 110.46 291.708 109.598 292.029C108.756 292.35 107.813 292.51 106.77 292.51ZM101.926 283.064H110.982C110.922 282.201 110.691 281.459 110.29 280.838C109.909 280.216 109.407 279.734 108.786 279.393C108.164 279.053 107.462 278.882 106.68 278.882C105.918 278.882 105.186 279.053 104.484 279.393C103.782 279.714 103.2 280.196 102.739 280.838C102.277 281.459 102.007 282.201 101.926 283.064ZM115.769 292.149V277.107H118.176V279.785C118.777 278.842 119.55 278.15 120.492 277.709C121.455 277.267 122.458 277.047 123.501 277.047V279.303C122.618 279.303 121.766 279.454 120.943 279.754C120.141 280.035 119.479 280.507 118.958 281.168C118.436 281.83 118.176 282.733 118.176 283.876V292.149H115.769ZM131.115 298.527C130.153 298.527 129.27 298.427 128.468 298.227C127.686 298.046 127.014 297.835 126.452 297.595C125.911 297.374 125.52 297.184 125.279 297.023L126.182 295.068C126.442 295.208 126.813 295.379 127.295 295.579C127.776 295.8 128.338 295.98 128.979 296.121C129.641 296.281 130.343 296.361 131.085 296.361C132.048 296.361 132.911 296.161 133.673 295.76C134.455 295.379 135.057 294.767 135.478 293.924C135.919 293.102 136.14 292.039 136.14 290.735V289.141C135.598 290.043 134.886 290.755 134.004 291.277C133.121 291.778 132.128 292.029 131.025 292.029C129.681 292.029 128.498 291.708 127.475 291.066C126.452 290.425 125.65 289.532 125.068 288.389C124.507 287.226 124.226 285.902 124.226 284.418C124.226 282.893 124.507 281.56 125.068 280.416C125.65 279.253 126.452 278.351 127.475 277.709C128.498 277.067 129.681 276.746 131.025 276.746C132.128 276.746 133.121 276.997 134.004 277.498C134.886 278 135.598 278.712 136.14 279.634V277.107H138.546V290.705C138.546 292.43 138.226 293.874 137.584 295.038C136.942 296.201 136.059 297.073 134.936 297.655C133.813 298.237 132.54 298.527 131.115 298.527ZM131.597 289.953C132.479 289.953 133.262 289.713 133.943 289.231C134.625 288.75 135.157 288.098 135.538 287.276C135.919 286.433 136.11 285.461 136.11 284.357C136.11 283.294 135.909 282.352 135.508 281.529C135.127 280.687 134.595 280.035 133.913 279.574C133.252 279.093 132.469 278.852 131.567 278.852C130.624 278.852 129.782 279.093 129.04 279.574C128.318 280.035 127.746 280.687 127.325 281.529C126.924 282.352 126.723 283.294 126.723 284.357C126.723 285.461 126.934 286.433 127.355 287.276C127.776 288.098 128.348 288.75 129.07 289.231C129.812 289.713 130.654 289.953 131.597 289.953ZM142.07 292.149V277.107H144.477V292.149H142.07ZM143.304 273.617C142.903 273.617 142.552 273.467 142.251 273.166C141.95 272.865 141.8 272.514 141.8 272.113C141.8 271.692 141.95 271.341 142.251 271.06C142.552 270.759 142.903 270.609 143.304 270.609C143.725 270.609 144.076 270.759 144.357 271.06C144.658 271.341 144.808 271.692 144.808 272.113C144.808 272.514 144.658 272.865 144.357 273.166C144.076 273.467 143.725 273.617 143.304 273.617ZM154.665 292.51C153.201 292.51 151.907 292.179 150.784 291.518C149.661 290.836 148.779 289.903 148.137 288.72C147.515 287.536 147.204 286.173 147.204 284.628C147.204 283.084 147.515 281.72 148.137 280.537C148.779 279.353 149.651 278.431 150.754 277.769C151.877 277.087 153.161 276.746 154.605 276.746C156.009 276.746 157.222 277.097 158.245 277.799C159.268 278.481 160.06 279.444 160.622 280.687C161.184 281.931 161.464 283.395 161.464 285.079H149.641C149.741 286.724 150.263 288.008 151.205 288.93C152.148 289.853 153.341 290.314 154.786 290.314C155.849 290.314 156.741 290.064 157.463 289.562C158.205 289.061 158.777 288.399 159.178 287.577L161.254 288.629C160.873 289.412 160.361 290.094 159.719 290.675C159.098 291.257 158.356 291.708 157.493 292.029C156.651 292.35 155.708 292.51 154.665 292.51ZM149.822 283.064H158.877C158.817 282.201 158.586 281.459 158.185 280.838C157.804 280.216 157.303 279.734 156.681 279.393C156.059 279.053 155.357 278.882 154.575 278.882C153.813 278.882 153.081 279.053 152.379 279.393C151.677 279.714 151.095 280.196 150.634 280.838C150.173 281.459 149.902 282.201 149.822 283.064ZM174.864 295.158C173.942 293.934 173.099 292.611 172.337 291.187C171.575 289.743 170.973 288.218 170.532 286.614C170.091 285.009 169.87 283.345 169.87 281.62C169.87 279.875 170.091 278.21 170.532 276.626C170.973 275.021 171.575 273.507 172.337 272.083C173.099 270.639 173.942 269.305 174.864 268.082H177.331C176.409 269.365 175.566 270.739 174.804 272.203C174.042 273.667 173.44 275.192 172.999 276.776C172.558 278.341 172.337 279.955 172.337 281.62C172.337 283.264 172.558 284.879 172.999 286.463C173.44 288.048 174.042 289.572 174.804 291.036C175.566 292.48 176.409 293.854 177.331 295.158H174.864ZM180.363 292.149L190.352 273.407H179.16V271.09H193.149V273.196L183.161 292.149H180.363ZM195.686 292.149L205.675 273.407H194.483V271.09H208.473V273.196L198.484 292.149H195.686ZM219.554 292.149V287.035H209.836V285.079L219.433 271.09H222.021V284.779H226.323V287.035H222.021V292.149H219.554ZM212.754 284.779H219.554V274.79L212.754 284.779ZM240.03 292.149V273.407H233.321V271.09H249.266V273.407H242.557V292.149H240.03ZM255.462 292.149L249.024 271.09H251.581L256.846 288.268L261.931 271.09H264.458L269.452 288.208L274.777 271.09H277.334L270.806 292.149H268.068L263.194 275.212L258.17 292.149H255.462ZM278.904 292.149V271.09H281.311V279.303C281.812 278.481 282.464 277.849 283.266 277.408C284.068 276.967 285.001 276.746 286.064 276.746C287.227 276.746 288.25 276.987 289.133 277.468C290.015 277.929 290.697 278.671 291.178 279.694C291.68 280.717 291.921 282.061 291.901 283.726V292.149H289.494V284.448C289.494 282.964 289.313 281.83 288.952 281.048C288.611 280.266 288.14 279.734 287.538 279.454C286.937 279.153 286.255 279.002 285.492 279.002C284.169 279.002 283.136 279.474 282.394 280.416C281.672 281.339 281.311 282.653 281.311 284.357V292.149H278.904ZM296.619 295.158H294.152C295.095 293.854 295.937 292.48 296.679 291.036C297.441 289.572 298.043 288.048 298.484 286.463C298.925 284.879 299.146 283.264 299.146 281.62C299.146 279.955 298.925 278.341 298.484 276.776C298.043 275.192 297.441 273.667 296.679 272.203C295.937 270.739 295.095 269.365 294.152 268.082H296.619C297.562 269.305 298.404 270.639 299.146 272.083C299.908 273.507 300.51 275.021 300.951 276.626C301.392 278.21 301.613 279.875 301.613 281.62C301.613 283.345 301.392 285.009 300.951 286.614C300.51 288.218 299.908 289.743 299.146 291.187C298.404 292.611 297.562 293.934 296.619 295.158ZM322.193 298.166V289.622C321.652 290.525 320.94 291.237 320.057 291.758C319.195 292.26 318.212 292.51 317.109 292.51C315.765 292.51 314.582 292.179 313.559 291.518C312.536 290.856 311.734 289.933 311.152 288.75C310.591 287.546 310.31 286.173 310.31 284.628C310.31 283.064 310.591 281.69 311.152 280.507C311.734 279.323 312.536 278.401 313.559 277.739C314.582 277.077 315.765 276.746 317.109 276.746C318.212 276.746 319.195 277.007 320.057 277.528C320.94 278.05 321.652 278.762 322.193 279.664L322.314 277.107H324.6V298.166H322.193ZM317.65 290.314C318.533 290.314 319.315 290.074 319.997 289.592C320.679 289.111 321.21 288.439 321.592 287.577C321.993 286.714 322.193 285.731 322.193 284.628C322.193 283.525 321.993 282.542 321.592 281.68C321.21 280.817 320.679 280.146 319.997 279.664C319.315 279.183 318.523 278.942 317.62 278.942C316.678 278.942 315.835 279.183 315.093 279.664C314.371 280.146 313.8 280.817 313.378 281.68C312.957 282.542 312.747 283.525 312.747 284.628C312.747 285.731 312.957 286.714 313.378 287.577C313.8 288.439 314.381 289.111 315.123 289.592C315.865 290.074 316.708 290.314 317.65 290.314ZM333.185 292.51C332.021 292.51 330.998 292.28 330.116 291.818C329.254 291.337 328.572 290.585 328.07 289.562C327.589 288.519 327.348 287.175 327.348 285.531V277.107H329.755V284.809C329.755 286.293 329.925 287.426 330.266 288.208C330.607 288.991 331.079 289.532 331.68 289.833C332.302 290.114 332.994 290.254 333.756 290.254C335.06 290.254 336.073 289.783 336.795 288.84C337.537 287.897 337.908 286.584 337.908 284.899V277.107H340.315V292.149H338.058L337.938 289.893C337.437 290.735 336.785 291.387 335.982 291.849C335.18 292.29 334.248 292.51 333.185 292.51ZM350.268 292.51C348.804 292.51 347.51 292.179 346.387 291.518C345.264 290.836 344.381 289.903 343.739 288.72C343.118 287.536 342.807 286.173 342.807 284.628C342.807 283.084 343.118 281.72 343.739 280.537C344.381 279.353 345.254 278.431 346.357 277.769C347.48 277.087 348.764 276.746 350.208 276.746C351.612 276.746 352.825 277.097 353.848 277.799C354.871 278.481 355.663 279.444 356.225 280.687C356.786 281.931 357.067 283.395 357.067 285.079H345.244C345.344 286.724 345.865 288.008 346.808 288.93C347.751 289.853 348.944 290.314 350.388 290.314C351.451 290.314 352.344 290.064 353.066 289.562C353.808 289.061 354.379 288.399 354.781 287.577L356.856 288.629C356.475 289.412 355.964 290.094 355.322 290.675C354.7 291.257 353.958 291.708 353.096 292.029C352.253 292.35 351.311 292.51 350.268 292.51ZM345.424 283.064H354.48C354.42 282.201 354.189 281.459 353.788 280.838C353.407 280.216 352.905 279.734 352.284 279.393C351.662 279.053 350.96 278.882 350.178 278.882C349.415 278.882 348.683 279.053 347.981 279.393C347.279 279.714 346.698 280.196 346.237 280.838C345.775 281.459 345.504 282.201 345.424 283.064ZM365.864 292.149V271.09H368.271V292.149H365.864ZM378.227 292.51C376.763 292.51 375.47 292.179 374.346 291.518C373.223 290.836 372.341 289.903 371.699 288.72C371.077 287.536 370.766 286.173 370.766 284.628C370.766 283.084 371.077 281.72 371.699 280.537C372.341 279.353 373.213 278.431 374.316 277.769C375.44 277.087 376.723 276.746 378.167 276.746C379.571 276.746 380.785 277.097 381.807 277.799C382.83 278.481 383.623 279.444 384.184 280.687C384.746 281.931 385.027 283.395 385.027 285.079H373.203C373.303 286.724 373.825 288.008 374.768 288.93C375.71 289.853 376.904 290.314 378.348 290.314C379.411 290.314 380.303 290.064 381.025 289.562C381.767 289.061 382.339 288.399 382.74 287.577L384.816 288.629C384.435 289.412 383.923 290.094 383.282 290.675C382.66 291.257 381.918 291.708 381.055 292.029C380.213 292.35 379.27 292.51 378.227 292.51ZM373.384 283.064H382.439C382.379 282.201 382.148 281.459 381.747 280.838C381.366 280.216 380.865 279.734 380.243 279.393C379.621 279.053 378.919 278.882 378.137 278.882C377.375 278.882 376.643 279.053 375.941 279.393C375.239 279.714 374.657 280.196 374.196 280.838C373.735 281.459 373.464 282.201 373.384 283.064ZM394.516 292.149V271.09H401.164C402.608 271.09 403.842 271.311 404.865 271.752C405.888 272.193 406.68 272.845 407.241 273.707C407.803 274.55 408.084 275.583 408.084 276.806C408.084 277.829 407.853 278.732 407.392 279.514C406.931 280.276 406.279 280.898 405.436 281.379C406.479 281.88 407.282 282.552 407.843 283.395C408.425 284.237 408.716 285.24 408.716 286.403C408.716 287.627 408.445 288.67 407.903 289.532C407.362 290.374 406.59 291.026 405.587 291.488C404.604 291.929 403.421 292.149 402.037 292.149H394.516ZM397.043 289.863H401.916C403.24 289.863 404.273 289.552 405.015 288.93C405.777 288.289 406.158 287.416 406.158 286.313C406.158 285.13 405.727 284.207 404.865 283.545C404.002 282.863 402.799 282.522 401.255 282.522H397.043V289.863ZM397.043 280.326H401.796C402.959 280.326 403.872 280.015 404.534 279.393C405.196 278.772 405.527 277.909 405.527 276.806C405.527 275.663 405.136 274.79 404.353 274.189C403.591 273.567 402.508 273.256 401.104 273.256H397.043V280.326ZM411.38 292.149V277.107H413.786V279.785C414.388 278.842 415.16 278.15 416.103 277.709C417.066 277.267 418.068 277.047 419.111 277.047V279.303C418.229 279.303 417.376 279.454 416.554 279.754C415.752 280.035 415.09 280.507 414.569 281.168C414.047 281.83 413.786 282.733 413.786 283.876V292.149H411.38ZM427.298 292.51C425.834 292.51 424.54 292.179 423.417 291.518C422.294 290.836 421.411 289.903 420.769 288.72C420.148 287.536 419.837 286.173 419.837 284.628C419.837 283.084 420.148 281.72 420.769 280.537C421.411 279.353 422.284 278.431 423.387 277.769C424.51 277.087 425.794 276.746 427.238 276.746C428.642 276.746 429.855 277.097 430.878 277.799C431.901 278.481 432.693 279.444 433.255 280.687C433.816 281.931 434.097 283.395 434.097 285.079H422.274C422.374 286.724 422.895 288.008 423.838 288.93C424.781 289.853 425.974 290.314 427.418 290.314C428.481 290.314 429.374 290.064 430.096 289.562C430.838 289.061 431.409 288.399 431.81 287.577L433.886 288.629C433.505 289.412 432.994 290.094 432.352 290.675C431.73 291.257 430.988 291.708 430.126 292.029C429.283 292.35 428.341 292.51 427.298 292.51ZM422.454 283.064H431.51C431.449 282.201 431.219 281.459 430.818 280.838C430.437 280.216 429.935 279.734 429.313 279.393C428.692 279.053 427.99 278.882 427.208 278.882C426.445 278.882 425.713 279.053 425.011 279.393C424.309 279.714 423.728 280.196 423.266 280.838C422.805 281.459 422.534 282.201 422.454 283.064ZM425.222 274.971L428.742 271.09H431.841L427.96 274.971H425.222ZM441.591 292.51C440.488 292.51 439.525 292.35 438.703 292.029C437.88 291.688 437.189 291.247 436.627 290.705C436.085 290.164 435.694 289.572 435.454 288.93L437.56 288.058C437.901 288.74 438.412 289.291 439.094 289.713C439.776 290.134 440.528 290.344 441.35 290.344C442.293 290.344 443.085 290.164 443.727 289.803C444.369 289.422 444.69 288.89 444.69 288.208C444.69 287.587 444.449 287.085 443.968 286.704C443.506 286.323 442.814 286.012 441.892 285.771L440.448 285.38C439.084 285.019 438.021 284.478 437.259 283.756C436.497 283.014 436.115 282.181 436.115 281.259C436.115 279.835 436.577 278.732 437.499 277.949C438.442 277.147 439.836 276.746 441.681 276.746C442.564 276.746 443.366 276.876 444.088 277.137C444.81 277.398 445.432 277.769 445.953 278.25C446.475 278.712 446.856 279.263 447.096 279.905L444.991 280.838C444.73 280.156 444.299 279.664 443.697 279.363C443.095 279.063 442.363 278.912 441.501 278.912C440.578 278.912 439.856 279.113 439.335 279.514C438.813 279.895 438.552 280.436 438.552 281.138C438.552 281.54 438.763 281.921 439.184 282.282C439.625 282.623 440.267 282.903 441.11 283.124L442.614 283.515C443.597 283.756 444.419 284.117 445.081 284.598C445.743 285.059 446.244 285.591 446.585 286.193C446.926 286.794 447.096 287.436 447.096 288.118C447.096 289.021 446.856 289.803 446.374 290.465C445.893 291.127 445.241 291.638 444.419 291.999C443.597 292.34 442.654 292.51 441.591 292.51ZM449.655 292.149V277.107H452.062V292.149H449.655ZM450.888 273.617C450.487 273.617 450.136 273.467 449.835 273.166C449.535 272.865 449.384 272.514 449.384 272.113C449.384 271.692 449.535 271.341 449.835 271.06C450.136 270.759 450.487 270.609 450.888 270.609C451.31 270.609 451.661 270.759 451.941 271.06C452.242 271.341 452.393 271.692 452.393 272.113C452.393 272.514 452.242 272.865 451.941 273.166C451.661 273.467 451.31 273.617 450.888 273.617ZM455.661 292.149V271.09H458.068V292.149H455.661ZM51.9863 328.51C50.2213 328.51 48.8374 328.109 47.8346 327.307C46.8518 326.485 46.3604 325.352 46.3604 323.907C46.3604 322.383 46.8618 321.22 47.8647 320.418C48.8876 319.595 50.3116 319.184 52.1367 319.184H56.3185C56.2182 317.76 55.8672 316.697 55.2655 315.995C54.6638 315.273 53.7613 314.912 52.5579 314.912C51.7356 314.912 51.0236 315.083 50.4219 315.424C49.8402 315.744 49.3589 316.266 48.9778 316.988L46.8117 316.146C47.1928 315.444 47.6541 314.842 48.1956 314.341C48.7371 313.819 49.3689 313.428 50.0909 313.167C50.813 312.886 51.6353 312.746 52.5579 312.746C53.9618 312.746 55.1151 313.027 56.0176 313.588C56.9402 314.13 57.6322 314.942 58.0935 316.025C58.5548 317.088 58.7754 318.412 58.7554 319.996L58.7253 328.149H56.499L56.3787 326.134C55.9374 326.896 55.3457 327.488 54.6037 327.909C53.8616 328.31 52.9891 328.51 51.9863 328.51ZM52.1066 326.404C52.9691 326.404 53.7212 326.224 54.363 325.863C55.0048 325.482 55.4962 324.95 55.8371 324.268C56.1982 323.587 56.3787 322.764 56.3787 321.802V321.2H52.6782C51.2743 321.2 50.2715 321.43 49.6698 321.892C49.0881 322.353 48.7973 323.015 48.7973 323.877C48.7973 324.66 49.0881 325.281 49.6698 325.743C50.2514 326.184 51.0637 326.404 52.1066 326.404ZM67.1787 328.51C66.0154 328.51 64.9925 328.28 64.11 327.818C63.2476 327.337 62.5657 326.585 62.0643 325.562C61.5829 324.519 61.3422 323.175 61.3422 321.531V313.107H63.749V320.809C63.749 322.293 63.9195 323.426 64.2605 324.208C64.6014 324.991 65.0728 325.532 65.6744 325.833C66.2962 326.114 66.9881 326.254 67.7503 326.254C69.054 326.254 70.0668 325.783 70.7889 324.84C71.531 323.897 71.902 322.584 71.902 320.899V313.107H74.3088V328.149H72.0524L71.9321 325.893C71.4307 326.735 70.7788 327.387 69.9766 327.849C69.1743 328.29 68.2417 328.51 67.1787 328.51ZM80.1403 309.587C79.7392 309.587 79.3882 309.437 79.0874 309.136C78.7865 308.835 78.6361 308.484 78.6361 308.083C78.6361 307.642 78.7865 307.281 79.0874 307C79.3882 306.699 79.7392 306.549 80.1403 306.549C80.5615 306.549 80.9226 306.699 81.2234 307C81.5242 307.281 81.6747 307.642 81.6747 308.083C81.6747 308.484 81.5242 308.835 81.2234 309.136C80.9226 309.437 80.5615 309.587 80.1403 309.587ZM76.8009 334.618C76.0588 334.618 75.1162 334.357 73.973 333.835L74.8755 331.82C75.3569 332 75.758 332.141 76.0789 332.241C76.4199 332.341 76.6906 332.391 76.8912 332.391C78.255 332.391 78.937 331.519 78.937 329.774V313.107H81.3437V329.834C81.3437 331.399 80.9627 332.582 80.2005 333.384C79.4384 334.206 78.3052 334.618 76.8009 334.618ZM91.5658 328.51C90.1017 328.51 88.798 328.179 87.6548 327.518C86.5316 326.836 85.6491 325.903 85.0073 324.72C84.3655 323.536 84.0446 322.173 84.0446 320.628C84.0446 319.084 84.3555 317.72 84.9772 316.537C85.6191 315.353 86.5015 314.431 87.6247 313.769C88.7679 313.087 90.0616 312.746 91.5056 312.746C92.9898 312.746 94.2935 313.087 95.4167 313.769C96.5599 314.431 97.4424 315.353 98.0641 316.537C98.7059 317.72 99.0268 319.084 99.0268 320.628C99.0268 322.173 98.7059 323.536 98.0641 324.72C97.4424 325.903 96.5699 326.836 95.4467 327.518C94.3236 328.179 93.0299 328.51 91.5658 328.51ZM91.5658 326.284C92.5686 326.284 93.4411 326.043 94.1832 325.562C94.9253 325.081 95.5069 324.419 95.9281 323.577C96.3693 322.734 96.59 321.751 96.59 320.628C96.59 319.505 96.3693 318.522 95.9281 317.68C95.5069 316.838 94.9152 316.176 94.1531 315.694C93.391 315.213 92.5085 314.972 91.5056 314.972C90.5229 314.972 89.6504 315.213 88.8883 315.694C88.1462 316.176 87.5545 316.838 87.1133 317.68C86.6921 318.522 86.4815 319.505 86.4815 320.628C86.4815 321.731 86.6921 322.714 87.1133 323.577C87.5545 324.419 88.1562 325.081 88.9183 325.562C89.7006 326.043 90.583 326.284 91.5658 326.284ZM106.978 328.51C105.815 328.51 104.792 328.28 103.91 327.818C103.047 327.337 102.365 326.585 101.864 325.562C101.382 324.519 101.142 323.175 101.142 321.531V313.107H103.549V320.809C103.549 322.293 103.719 323.426 104.06 324.208C104.401 324.991 104.872 325.532 105.474 325.833C106.096 326.114 106.788 326.254 107.55 326.254C108.853 326.254 109.866 325.783 110.588 324.84C111.33 323.897 111.702 322.584 111.702 320.899V313.107H114.108V328.149H111.852L111.732 325.893C111.23 326.735 110.578 327.387 109.776 327.849C108.974 328.29 108.041 328.51 106.978 328.51ZM117.473 328.149V313.107H119.88V315.785C120.481 314.842 121.254 314.15 122.196 313.709C123.159 313.267 124.162 313.047 125.205 313.047V315.303C124.322 315.303 123.47 315.454 122.648 315.754C121.845 316.035 121.183 316.507 120.662 317.168C120.14 317.83 119.88 318.733 119.88 319.876V328.149H117.473ZM132.729 328.51C131.385 328.51 130.202 328.179 129.179 327.518C128.156 326.856 127.354 325.933 126.772 324.75C126.211 323.546 125.93 322.173 125.93 320.628C125.93 319.064 126.211 317.69 126.772 316.507C127.354 315.323 128.156 314.401 129.179 313.739C130.202 313.077 131.385 312.746 132.729 312.746C133.832 312.746 134.815 313.007 135.678 313.528C136.56 314.03 137.272 314.732 137.814 315.634V307.09H140.22V328.149H137.934L137.814 325.592C137.272 326.495 136.56 327.207 135.678 327.728C134.815 328.25 133.832 328.51 132.729 328.51ZM133.271 326.314C134.153 326.314 134.925 326.084 135.587 325.622C136.269 325.141 136.801 324.479 137.182 323.637C137.583 322.774 137.794 321.812 137.814 320.749V320.538C137.794 319.455 137.583 318.492 137.182 317.65C136.801 316.787 136.269 316.126 135.587 315.664C134.905 315.183 134.123 314.942 133.241 314.942C132.298 314.942 131.456 315.183 130.714 315.664C129.971 316.146 129.39 316.817 128.969 317.68C128.568 318.542 128.367 319.525 128.367 320.628C128.367 321.731 128.578 322.714 128.999 323.577C129.42 324.439 130.002 325.111 130.744 325.592C131.486 326.074 132.328 326.314 133.271 326.314ZM142.03 313.438L143.745 307.09H146.453L144.106 313.438H142.03ZM148.194 328.149V307.09H150.601V315.303C151.102 314.481 151.754 313.849 152.556 313.408C153.359 312.967 154.291 312.746 155.354 312.746C156.518 312.746 157.54 312.987 158.423 313.468C159.305 313.929 159.987 314.671 160.469 315.694C160.97 316.717 161.211 318.061 161.191 319.726V328.149H158.784V320.448C158.784 318.964 158.603 317.83 158.242 317.048C157.901 316.266 157.43 315.734 156.828 315.454C156.227 315.153 155.545 315.002 154.783 315.002C153.459 315.002 152.426 315.474 151.684 316.416C150.962 317.339 150.601 318.653 150.601 320.357V328.149H148.194ZM169.58 328.51C168.416 328.51 167.393 328.28 166.511 327.818C165.648 327.337 164.967 326.585 164.465 325.562C163.984 324.519 163.743 323.175 163.743 321.531V313.107H166.15V320.809C166.15 322.293 166.32 323.426 166.661 324.208C167.002 324.991 167.474 325.532 168.075 325.833C168.697 326.114 169.389 326.254 170.151 326.254C171.455 326.254 172.468 325.783 173.19 324.84C173.932 323.897 174.303 322.584 174.303 320.899V313.107H176.71V328.149H174.453L174.333 325.893C173.832 326.735 173.18 327.387 172.377 327.849C171.575 328.29 170.643 328.51 169.58 328.51ZM180.225 328.149V313.107H182.631V328.149H180.225ZM181.458 309.617C181.057 309.617 180.706 309.467 180.405 309.166C180.104 308.865 179.954 308.514 179.954 308.113C179.954 307.692 180.104 307.341 180.405 307.06C180.706 306.759 181.057 306.609 181.458 306.609C181.879 306.609 182.23 306.759 182.511 307.06C182.812 307.341 182.962 307.692 182.962 308.113C182.962 308.514 182.812 308.865 182.511 309.166C182.23 309.467 181.879 309.617 181.458 309.617ZM197.431 331.158C196.509 329.934 195.666 328.611 194.904 327.187C194.142 325.743 193.54 324.218 193.099 322.614C192.658 321.009 192.437 319.345 192.437 317.62C192.437 315.875 192.658 314.21 193.099 312.626C193.54 311.021 194.142 309.507 194.904 308.083C195.666 306.639 196.509 305.305 197.431 304.082H199.898C198.976 305.365 198.133 306.739 197.371 308.203C196.609 309.667 196.007 311.192 195.566 312.776C195.125 314.341 194.904 315.955 194.904 317.62C194.904 319.264 195.125 320.879 195.566 322.463C196.007 324.048 196.609 325.572 197.371 327.036C198.133 328.48 198.976 329.854 199.898 331.158H197.431ZM209.428 328.51C207.984 328.51 206.771 328.24 205.788 327.698C204.805 327.137 204.023 326.384 203.442 325.442C202.86 324.499 202.439 323.416 202.178 322.193C201.937 320.949 201.817 319.635 201.817 318.252C201.817 316.446 201.998 314.832 202.359 313.408C202.74 311.984 203.281 310.78 203.983 309.798C204.685 308.795 205.538 308.033 206.54 307.511C207.543 306.99 208.676 306.729 209.94 306.729C210.983 306.729 212.016 306.9 213.039 307.24C214.082 307.561 215.004 308.013 215.806 308.594L214.392 310.399C213.751 309.958 213.059 309.617 212.317 309.377C211.575 309.116 210.863 308.985 210.181 308.985C208.135 308.985 206.58 309.848 205.517 311.573C204.454 313.298 203.983 315.915 204.103 319.425L203.562 318.883C204.043 317.66 204.815 316.697 205.878 315.995C206.941 315.273 208.195 314.912 209.639 314.912C210.983 314.912 212.176 315.203 213.219 315.785C214.282 316.366 215.104 317.178 215.686 318.221C216.288 319.244 216.589 320.418 216.589 321.741C216.589 323.045 216.288 324.218 215.686 325.261C215.084 326.284 214.242 327.086 213.159 327.668C212.096 328.23 210.852 328.51 209.428 328.51ZM209.428 326.284C210.331 326.284 211.123 326.094 211.805 325.713C212.507 325.311 213.049 324.77 213.43 324.088C213.831 323.386 214.031 322.584 214.031 321.681C214.031 320.779 213.831 319.986 213.43 319.304C213.049 318.603 212.507 318.061 211.805 317.68C211.123 317.299 210.331 317.108 209.428 317.108C208.546 317.108 207.754 317.299 207.052 317.68C206.35 318.061 205.798 318.603 205.397 319.304C204.996 319.986 204.795 320.779 204.795 321.681C204.795 322.584 204.996 323.386 205.397 324.088C205.798 324.77 206.35 325.311 207.052 325.713C207.754 326.094 208.546 326.284 209.428 326.284ZM225.392 328.51C224.55 328.51 223.687 328.39 222.805 328.149C221.943 327.889 221.12 327.498 220.338 326.976C219.576 326.455 218.944 325.783 218.443 324.96L220.488 323.787C221.19 324.67 221.953 325.311 222.775 325.713C223.597 326.114 224.45 326.314 225.332 326.314C226.716 326.314 227.839 325.893 228.702 325.051C229.584 324.188 230.025 323.065 230.025 321.681C230.025 320.317 229.604 319.204 228.762 318.342C227.919 317.479 226.816 317.048 225.452 317.048C224.71 317.048 223.978 317.219 223.256 317.56C222.534 317.88 221.973 318.282 221.571 318.763L219.285 318.221L220.308 307.09H231.53V309.377H222.564L221.933 316.085C222.494 315.744 223.116 315.474 223.798 315.273C224.48 315.073 225.172 314.972 225.874 314.972C227.157 314.972 228.3 315.253 229.303 315.815C230.306 316.376 231.098 317.158 231.68 318.161C232.262 319.164 232.552 320.317 232.552 321.621C232.552 322.985 232.242 324.188 231.62 325.231C231.018 326.254 230.176 327.056 229.093 327.638C228.03 328.22 226.796 328.51 225.392 328.51ZM242.764 328.51C241.159 328.51 239.735 328.049 238.492 327.127C237.248 326.184 236.275 324.9 235.573 323.276C234.871 321.631 234.52 319.746 234.52 317.62C234.52 315.494 234.871 313.618 235.573 311.994C236.275 310.349 237.238 309.066 238.462 308.143C239.705 307.2 241.139 306.729 242.764 306.729C244.388 306.729 245.812 307.2 247.036 308.143C248.279 309.066 249.252 310.349 249.954 311.994C250.676 313.618 251.037 315.494 251.037 317.62C251.037 319.746 250.686 321.631 249.984 323.276C249.282 324.9 248.309 326.184 247.066 327.127C245.822 328.049 244.388 328.51 242.764 328.51ZM242.764 326.224C243.887 326.224 244.88 325.853 245.742 325.111C246.625 324.369 247.306 323.356 247.788 322.072C248.289 320.789 248.54 319.304 248.54 317.62C248.54 315.935 248.289 314.451 247.788 313.167C247.306 311.864 246.625 310.851 245.742 310.129C244.88 309.387 243.887 309.015 242.764 309.015C241.641 309.015 240.648 309.387 239.785 310.129C238.923 310.851 238.241 311.864 237.74 313.167C237.258 314.451 237.018 315.935 237.018 317.62C237.018 319.304 237.258 320.789 237.74 322.072C238.241 323.356 238.923 324.369 239.785 325.111C240.668 325.853 241.661 326.224 242.764 326.224ZM265.211 328.149V309.407H258.502V307.09H274.447V309.407H267.738V328.149H265.211ZM280.644 328.149L274.206 307.09H276.763L282.028 324.268L287.112 307.09H289.639L294.633 324.208L299.958 307.09H302.516L295.987 328.149H293.249L288.376 311.212L283.352 328.149H280.644ZM304.085 328.149V307.09H306.492V315.303C306.994 314.481 307.645 313.849 308.448 313.408C309.25 312.967 310.183 312.746 311.246 312.746C312.409 312.746 313.432 312.987 314.314 313.468C315.197 313.929 315.879 314.671 316.36 315.694C316.861 316.717 317.102 318.061 317.082 319.726V328.149H314.675V320.448C314.675 318.964 314.495 317.83 314.134 317.048C313.793 316.266 313.321 315.734 312.72 315.454C312.118 315.153 311.436 315.002 310.674 315.002C309.35 315.002 308.317 315.474 307.575 316.416C306.853 317.339 306.492 318.653 306.492 320.357V328.149H304.085ZM321.8 331.158H319.334C320.276 329.854 321.119 328.48 321.861 327.036C322.623 325.572 323.224 324.048 323.666 322.463C324.107 320.879 324.328 319.264 324.328 317.62C324.328 315.955 324.107 314.341 323.666 312.776C323.224 311.192 322.623 309.667 321.861 308.203C321.119 306.739 320.276 305.365 319.334 304.082H321.8C322.743 305.305 323.585 306.639 324.328 308.083C325.09 309.507 325.691 311.021 326.133 312.626C326.574 314.21 326.795 315.875 326.795 317.62C326.795 319.345 326.574 321.009 326.133 322.614C325.691 324.218 325.09 325.743 324.328 327.187C323.585 328.611 322.743 329.934 321.8 331.158ZM330.789 328.571C330.328 328.571 329.927 328.41 329.586 328.089C329.265 327.748 329.105 327.357 329.105 326.916C329.105 326.455 329.265 326.064 329.586 325.743C329.927 325.402 330.328 325.231 330.789 325.231C331.251 325.231 331.642 325.402 331.963 325.743C332.284 326.064 332.444 326.455 332.444 326.916C332.444 327.357 332.284 327.748 331.963 328.089C331.642 328.41 331.251 328.571 330.789 328.571Z" fill="#8FCE79"/>
</svg>
