<svg xmlns="http://www.w3.org/2000/svg" width="643" height="780" fill="none" viewBox="0 0 643 780"><rect width="639.302" height="776.563" x="1.41" y="1.41" stroke="#90ce79" stroke-width="2.82" rx="6.111"/><path fill="#90ce79" d="m45.398 66.127 8.393-21.06h3.7l8.424 21.06h-3.7l-2.076-5.174h-8.995l-2.046 5.174zm6.92-8.273h6.648l-3.31-8.424zm3.038-14.23-3.911-4.092h3.91l3.52 4.092zm19.026 22.503v-21.06h3.37v21.06zm5.214-14.23 1.805-6.83h3.55l-2.708 6.83zm13.841 14.591q-2.196 0-3.91-.993a7.5 7.5 0 0 1-2.678-2.798q-.963-1.775-.963-4.091t.993-4.092a7.2 7.2 0 0 1 2.708-2.767q1.745-1.023 3.97-1.023 2.017 0 3.641 1.053 1.625 1.023 2.557 2.978.963 1.956.963 4.663H89.376q.15 1.896 1.384 2.979 1.263 1.083 2.978 1.083 1.384 0 2.287-.602a4.4 4.4 0 0 0 1.414-1.624l2.978 1.263a7.6 7.6 0 0 1-1.624 2.106q-.963.903-2.317 1.384-1.323.48-3.038.481m-3.85-9.657h7.49q-.09-1.083-.631-1.775a3.44 3.44 0 0 0-1.324-1.083 3.9 3.9 0 0 0-1.654-.361q-.843 0-1.715.36a3.55 3.55 0 0 0-1.444 1.054q-.602.722-.722 1.805m1.654-7.702 3.49-4.061h3.911l-3.88 4.061zm18.705 17.36q-2.317 0-4.092-.994a7.5 7.5 0 0 1-2.798-2.798q-.992-1.775-.992-4.091t.992-4.092a7.34 7.34 0 0 1 2.768-2.767q1.775-1.023 4.062-1.023 2.226 0 4.031 1.083 1.805 1.053 2.677 3.038l-3.128 1.204a3.76 3.76 0 0 0-1.474-1.595q-.993-.6-2.257-.601-1.233 0-2.196.631-.963.602-1.504 1.685-.542 1.053-.542 2.437t.542 2.467a4.6 4.6 0 0 0 1.534 1.685 4.2 4.2 0 0 0 2.226.601q1.264 0 2.257-.631a4 4 0 0 0 1.474-1.775l3.129 1.203q-.873 2.046-2.678 3.189-1.775 1.143-4.031 1.143m8.903-.362v-21.06h3.369v8.064q.753-1.174 1.896-1.775 1.143-.633 2.587-.632 1.775 0 3.069.722 1.293.721 1.955 2.256.692 1.505.692 3.941v8.484h-3.369v-7.701q0-1.805-.422-2.768-.42-.993-1.173-1.384-.722-.39-1.685-.391-1.714-.03-2.647 1.113-.903 1.143-.903 3.28v7.851zm23.238.361q-2.196 0-3.911-.993a7.5 7.5 0 0 1-2.678-2.798q-.962-1.775-.962-4.091t.992-4.092a7.2 7.2 0 0 1 2.708-2.767q1.745-1.023 3.971-1.023 2.015 0 3.641 1.053 1.624 1.023 2.557 2.978.963 1.956.962 4.663h-11.342q.151 1.896 1.384 2.979 1.264 1.083 2.979 1.083 1.383 0 2.286-.602a4.4 4.4 0 0 0 1.414-1.624l2.979 1.263a7.6 7.6 0 0 1-1.625 2.106q-.963.903-2.317 1.384-1.323.48-3.038.481m-3.851-9.657h7.491q-.09-1.083-.632-1.775a3.44 3.44 0 0 0-1.323-1.083 3.9 3.9 0 0 0-1.655-.361q-.843 0-1.715.36a3.55 3.55 0 0 0-1.444 1.054q-.602.722-.722 1.805m13.261 9.296v-21.06h3.369v21.06zm6.658 0v-21.06h3.369v21.06zm13.367.361q-2.196 0-3.911-.993a7.5 7.5 0 0 1-2.678-2.798q-.962-1.775-.962-4.091t.992-4.092a7.2 7.2 0 0 1 2.708-2.767q1.745-1.023 3.971-1.023 2.016 0 3.641 1.053 1.624 1.023 2.557 2.978.962 1.956.962 4.663h-11.341q.15 1.896 1.383 2.979 1.264 1.083 2.979 1.083 1.384 0 2.286-.602a4.4 4.4 0 0 0 1.414-1.624l2.979 1.263a7.6 7.6 0 0 1-1.625 2.106q-.963.903-2.316 1.384-1.325.48-3.039.481m-3.851-9.657h7.491q-.09-1.083-.632-1.775a3.44 3.44 0 0 0-1.323-1.083 3.9 3.9 0 0 0-1.655-.361q-.843 0-1.715.36a3.55 3.55 0 0 0-1.444 1.054q-.602.722-.722 1.805m20.066 9.296V51.085h3.159l.15 2.015q.692-1.172 1.775-1.775 1.083-.6 2.467-.601 1.805 0 3.069.812 1.263.813 1.835 2.467.662-1.594 1.865-2.437t2.828-.842q2.618 0 4.031 1.685 1.414 1.655 1.384 5.114v8.604h-3.339v-7.701q0-1.805-.391-2.768-.391-.993-1.053-1.384t-1.534-.391q-1.565-.03-2.437 1.113-.843 1.143-.843 3.28v7.851h-3.369v-7.701q0-1.805-.391-2.768-.362-.993-1.023-1.384-.662-.39-1.535-.391-1.564-.03-2.436 1.113-.843 1.143-.843 3.28v7.851zm32.469.361q-2.257 0-4.032-.993a7.33 7.33 0 0 1-2.737-2.798q-.993-1.775-.993-4.091t.962-4.092a7.1 7.1 0 0 1 2.738-2.767q1.745-1.023 4.001-1.023t4.002 1.023a6.9 6.9 0 0 1 2.707 2.767q.993 1.776.993 4.092t-.963 4.091a7.1 7.1 0 0 1-2.707 2.798q-1.745.993-3.971.993m0-3.099q1.233 0 2.196-.601a4.36 4.36 0 0 0 1.504-1.685q.542-1.083.542-2.497t-.572-2.467q-.541-1.083-1.504-1.685-.963-.631-2.227-.632-1.263 0-2.226.602t-1.504 1.685-.542 2.497.542 2.497a4.6 4.6 0 0 0 1.534 1.685q.993.601 2.257.602m10.109 2.738V51.085h3.159l.151 2.136q.722-1.203 1.865-1.835 1.173-.663 2.678-.662 1.805 0 3.068.722 1.294.721 1.956 2.256.692 1.505.692 3.941v8.484h-3.37v-7.701q0-1.805-.421-2.768-.391-.993-1.143-1.384-.722-.39-1.715-.391-1.685-.03-2.617 1.113-.933 1.143-.933 3.28v7.851zm22.487.361q-2.046 0-3.58-.963-1.504-.992-2.377-2.767-.842-1.776-.842-4.152 0-2.407.842-4.152.873-1.775 2.377-2.737 1.534-.993 3.58-.993 1.565 0 2.768.692 1.203.662 1.985 1.895v-8.243h3.34v21.06h-3.189l-.12-2.287a5.3 5.3 0 0 1-1.986 1.955q-1.203.692-2.798.692m.842-3.068q1.114 0 1.986-.572a4 4 0 0 0 1.354-1.625q.511-1.053.571-2.406v-.422q-.06-1.353-.571-2.376-.481-1.053-1.354-1.625-.872-.571-2.016-.572-1.203 0-2.166.602-.932.602-1.474 1.685-.511 1.083-.511 2.497t.541 2.497q.542 1.083 1.474 1.715a4 4 0 0 0 2.166.602m10.735 2.707V51.085h3.339v15.042zm1.685-17.9q-.813 0-1.414-.572a2 2 0 0 1-.572-1.414q0-.812.572-1.384a2 2 0 0 1 1.414-.571q.812 0 1.384.571.601.572.601 1.384 0 .813-.601 1.414a1.9 1.9 0 0 1-1.384.572m10.018 18.261q-2.708 0-4.212-1.203-1.474-1.204-1.474-3.4 0-2.347 1.564-3.58 1.594-1.233 4.422-1.233h3.821q-.18-1.655-.932-2.527-.753-.873-2.227-.873-1.082 0-1.895.451-.813.452-1.384 1.414l-2.948-1.083a7.5 7.5 0 0 1 1.263-1.835q.813-.872 2.016-1.384 1.233-.51 2.948-.511 2.196 0 3.671.872 1.473.843 2.166 2.437.722 1.595.722 3.851l-.09 8.243h-3.099l-.09-1.835a4.1 4.1 0 0 1-1.685 1.625q-1.053.57-2.557.571m.421-2.828q1.113 0 1.955-.481a3.43 3.43 0 0 0 1.324-1.354 3.7 3.7 0 0 0 .481-1.865v-.301h-2.797q-2.016 0-2.828.572-.813.54-.813 1.564 0 .873.692 1.384.722.48 1.986.481m10.06 2.467v-21.06h3.37v21.06zm13.367.361q-2.195 0-3.911-.993a7.5 7.5 0 0 1-2.677-2.798q-.963-1.775-.963-4.091t.993-4.092a7.2 7.2 0 0 1 2.708-2.767q1.745-1.023 3.971-1.023 2.016 0 3.64 1.053 1.624 1.023 2.557 2.978.963 1.956.963 4.663H295.87q.15 1.896 1.384 2.979 1.263 1.083 2.978 1.083 1.384 0 2.287-.602a4.4 4.4 0 0 0 1.414-1.624l2.978 1.263a7.6 7.6 0 0 1-1.625 2.106q-.962.903-2.316 1.384-1.324.48-3.039.481m-3.85-9.657h7.491q-.091-1.083-.632-1.775a3.44 3.44 0 0 0-1.324-1.083 3.9 3.9 0 0 0-1.655-.361 4.5 4.5 0 0 0-1.714.36 3.54 3.54 0 0 0-1.444 1.054q-.603.722-.722 1.805m12.388 12.756 1.805-6.83h3.55l-2.708 6.83zm-261.476 32.54v-21.06h3.37v21.06zm5.214-14.23 1.805-6.83h3.55l-2.707 6.83zm12.518 14.591q-1.775 0-3.068-.722-1.264-.722-1.956-2.256-.692-1.535-.692-3.941v-8.484h3.37v7.702q0 1.774.421 2.767.42.993 1.143 1.384.752.39 1.715.391 1.715.03 2.648-1.113.932-1.143.932-3.28v-7.851h3.34v15.042h-3.16l-.15-2.136a5.1 5.1 0 0 1-1.895 1.865q-1.143.632-2.648.632m17.132 0q-2.377 0-3.64-1.173-1.234-1.204-1.234-3.43v-7.912h-2.497v-2.888h2.497v-4.693h3.34v4.693h4.061v2.888h-4.061v7.28q0 1.053.481 1.595.51.541 1.474.541.3 0 .662-.12.36-.12.812-.451l1.234 2.557a6.5 6.5 0 0 1-1.565.812 4.3 4.3 0 0 1-1.564.301m5.583-.361V87.085h3.34v15.042zm1.684-17.9q-.811 0-1.414-.572a2 2 0 0 1-.571-1.414q0-.812.571-1.384a2 2 0 0 1 1.414-.571q.813 0 1.384.571.602.572.602 1.384 0 .813-.602 1.414a1.9 1.9 0 0 1-1.384.572m5.175 17.9v-21.06h3.37v21.06zm6.869 0V87.085h3.339v15.042zm1.684-17.9q-.812 0-1.414-.572a2 2 0 0 1-.571-1.414q0-.812.571-1.384a2 2 0 0 1 1.414-.571q.813 0 1.384.571.602.572.602 1.384 0 .813-.602 1.414a1.88 1.88 0 0 1-1.384.572m10.65 18.261q-1.504 0-2.768-.451t-2.166-1.264a5.8 5.8 0 0 1-1.384-1.955l2.918-1.294a3.9 3.9 0 0 0 1.324 1.414 3.64 3.64 0 0 0 1.986.572q1.173 0 1.865-.391.722-.421.722-1.144 0-.691-.542-1.052-.541-.392-1.534-.632l-1.414-.391q-2.136-.542-3.339-1.715-1.204-1.203-1.204-2.738 0-2.256 1.444-3.49 1.475-1.233 4.212-1.233 1.384 0 2.527.421 1.174.39 2.016 1.143a3.8 3.8 0 0 1 1.173 1.715l-2.797 1.264q-.301-.753-1.144-1.144a4.1 4.1 0 0 0-1.865-.42q-1.023 0-1.594.45-.573.421-.572 1.204 0 .451.511.842.512.361 1.475.602l1.775.421q1.474.36 2.406 1.143.933.752 1.384 1.715.451.933.451 1.895 0 1.354-.782 2.377-.752 1.023-2.076 1.595-1.323.541-3.008.541m12.931 0q-2.708 0-4.212-1.203-1.474-1.204-1.474-3.4 0-2.346 1.564-3.58 1.594-1.233 4.423-1.233h3.82q-.18-1.655-.932-2.527-.753-.873-2.227-.873-1.082 0-1.895.451t-1.384 1.414l-2.948-1.083a7.5 7.5 0 0 1 1.263-1.835q.813-.873 2.016-1.384 1.233-.51 2.948-.511 2.197 0 3.671.872 1.474.843 2.166 2.437.722 1.595.722 3.851l-.09 8.243h-3.099l-.09-1.835a4.1 4.1 0 0 1-1.685 1.625q-1.054.571-2.557.571m.421-2.828q1.113 0 1.955-.481a3.43 3.43 0 0 0 1.324-1.354 3.7 3.7 0 0 0 .481-1.865v-.301h-2.797q-2.016 0-2.828.572-.813.54-.813 1.564 0 .873.692 1.384.722.48 1.986.481m16.047 2.828q-2.376 0-3.64-1.173-1.233-1.204-1.234-3.43v-7.912h-2.497v-2.888h2.497v-4.693h3.34v4.693h4.061v2.888h-4.061v7.28q0 1.053.481 1.595.512.541 1.474.541.302 0 .662-.12.362-.12.813-.451l1.233 2.557a6.5 6.5 0 0 1-1.564.812 4.3 4.3 0 0 1-1.565.301m5.583-.361V87.085h3.339v15.042zm1.685-17.9q-.813 0-1.414-.572a2 2 0 0 1-.572-1.414q0-.812.572-1.384a2 2 0 0 1 1.414-.571q.811 0 1.384.571.601.572.601 1.384 0 .813-.601 1.414a1.9 1.9 0 0 1-1.384.572m12.093 18.261q-2.256 0-4.031-.993a7.34 7.34 0 0 1-2.738-2.797q-.993-1.776-.992-4.092 0-2.316.962-4.091a7.1 7.1 0 0 1 2.738-2.768q1.745-1.023 4.001-1.023t4.001 1.023a6.9 6.9 0 0 1 2.708 2.767q.993 1.776.993 4.092t-.963 4.092a7.1 7.1 0 0 1-2.707 2.797q-1.745.993-3.972.993m0-3.099q1.234 0 2.197-.601a4.37 4.37 0 0 0 1.504-1.685q.541-1.083.541-2.497t-.571-2.467q-.542-1.083-1.505-1.685-.962-.63-2.226-.631-1.263 0-2.226.601-.963.602-1.504 1.685-.542 1.083-.542 2.497t.542 2.497a4.6 4.6 0 0 0 1.534 1.685q.993.601 2.256.602m10.11 2.738V87.085h3.159l.151 2.136q.722-1.203 1.865-1.835 1.173-.663 2.677-.662 1.806 0 3.069.722 1.293.721 1.955 2.256.692 1.505.692 3.941v8.484h-3.369v-7.701q0-1.806-.421-2.768-.392-.994-1.143-1.384-.722-.39-1.715-.391-1.685-.03-2.618 1.113t-.932 3.28v7.851zm29.292.361q-2.046 0-3.58-.962-1.504-.993-2.377-2.768-.842-1.775-.842-4.152 0-2.407.842-4.152.873-1.775 2.377-2.737 1.534-.993 3.58-.993 1.565 0 2.768.692 1.203.662 1.985 1.895v-8.243h3.34v21.059h-3.189l-.121-2.286a5.3 5.3 0 0 1-1.985 1.955q-1.203.692-2.798.692m.842-3.068q1.113 0 1.986-.572a4 4 0 0 0 1.354-1.625q.511-1.053.571-2.406v-.422q-.06-1.353-.571-2.376-.481-1.053-1.354-1.625-.873-.571-2.016-.572-1.203 0-2.166.602-.933.602-1.474 1.685-.511 1.083-.511 2.497t.541 2.497q.542 1.083 1.474 1.715a4 4 0 0 0 2.166.602m17.233 3.068q-2.196 0-3.911-.993a7.47 7.47 0 0 1-2.677-2.797q-.963-1.776-.963-4.092t.993-4.091a7.2 7.2 0 0 1 2.707-2.768q1.745-1.023 3.972-1.023 2.015 0 3.64 1.053 1.624 1.023 2.557 2.978.963 1.956.963 4.663h-11.342q.15 1.896 1.384 2.979 1.263 1.083 2.978 1.083 1.385 0 2.286-.602a4.4 4.4 0 0 0 1.414-1.624l2.979 1.263a7.6 7.6 0 0 1-1.625 2.106q-.963.903-2.316 1.384-1.325.481-3.039.481m-3.851-9.657h7.491q-.09-1.083-.631-1.775a3.45 3.45 0 0 0-1.324-1.083 3.9 3.9 0 0 0-1.655-.361 4.5 4.5 0 0 0-1.715.36 3.56 3.56 0 0 0-1.444 1.054q-.601.722-.722 1.805m20.066 9.296v-21.06h3.369v21.06zm5.214-14.23 1.805-6.83h3.55l-2.707 6.83zm7.765 14.23v-21.06h3.49v21.06zm5.813 0 8.393-21.06h3.701l8.423 21.06h-3.7l-2.076-5.174h-8.995l-2.046 5.174zm6.919-8.273h6.649l-3.309-8.424zm22.215 14.29v-21.06h3.159l.15 2.287q.783-1.263 1.986-1.955 1.233-.693 2.828-.692 2.046 0 3.55.993 1.534.962 2.377 2.737.872 1.745.872 4.152 0 2.377-.872 4.152-.843 1.775-2.377 2.768-1.504.962-3.55.962-1.565 0-2.768-.692a5.8 5.8 0 0 1-1.986-1.895v8.243zm7.28-8.724q1.204 0 2.136-.602.933-.632 1.475-1.715.571-1.083.571-2.497t-.541-2.497q-.512-1.083-1.444-1.685-.933-.601-2.166-.602-1.144 0-2.046.602-.903.602-1.414 1.685-.482 1.083-.482 2.497t.482 2.497q.511 1.083 1.384 1.715a3.6 3.6 0 0 0 2.045.602m16.988 3.068q-2.256 0-4.031-.993a7.34 7.34 0 0 1-2.738-2.797q-.993-1.776-.992-4.092 0-2.316.962-4.091a7.1 7.1 0 0 1 2.738-2.768q1.745-1.023 4.001-1.023t4.001 1.023a6.9 6.9 0 0 1 2.708 2.767q.993 1.776.993 4.092t-.963 4.092a7.1 7.1 0 0 1-2.707 2.797q-1.745.993-3.972.993m0-3.099q1.234 0 2.197-.601a4.37 4.37 0 0 0 1.504-1.685q.541-1.083.541-2.497t-.571-2.467q-.542-1.083-1.505-1.685-.962-.63-2.226-.631-1.263 0-2.226.601-.963.602-1.504 1.685-.542 1.083-.542 2.497t.542 2.497a4.6 4.6 0 0 0 1.534 1.685q.993.601 2.256.602m15.495 3.099q-1.775 0-3.068-.722-1.264-.722-1.956-2.256-.692-1.535-.692-3.941v-8.484h3.37v7.702q0 1.774.421 2.767.422.993 1.143 1.384.752.39 1.715.391 1.715.03 2.647-1.113.933-1.143.933-3.28v-7.851h3.339v15.042h-3.158l-.151-2.136a5.1 5.1 0 0 1-1.895 1.865q-1.143.632-2.648.632m11.145-.361V87.085h3.37v2.738q.901-1.414 2.346-2.106a6.8 6.8 0 0 1 2.979-.692v3.219q-1.385 0-2.618.39-1.203.363-1.955 1.204-.752.843-.752 2.227v8.062zm10.478 0V87.085h3.369v2.738q.903-1.414 2.347-2.106a6.8 6.8 0 0 1 2.978-.692v3.219a8.6 8.6 0 0 0-2.617.39q-1.203.363-1.956 1.204-.752.843-.752 2.227v8.062zm15.321.361q-2.707 0-4.212-1.203-1.474-1.204-1.474-3.4 0-2.346 1.564-3.58 1.594-1.233 4.423-1.233h3.821q-.182-1.655-.933-2.527-.753-.873-2.226-.873-1.083 0-1.896.451t-1.384 1.414l-2.948-1.083a7.5 7.5 0 0 1 1.264-1.835q.812-.873 2.015-1.384 1.234-.51 2.949-.511 2.196 0 3.67.872 1.474.843 2.166 2.437.722 1.595.722 3.851l-.09 8.243h-3.099l-.09-1.835a4.1 4.1 0 0 1-1.685 1.625q-1.053.571-2.557.571m.421-2.828q1.113 0 1.956-.481a3.44 3.44 0 0 0 1.323-1.354 3.7 3.7 0 0 0 .482-1.865v-.301h-2.798q-2.016 0-2.828.572-.812.54-.812 1.564 0 .873.692 1.384.722.48 1.985.481m10.271 2.467V87.085h3.34v15.042zm1.685-17.9q-.813 0-1.414-.572a2 2 0 0 1-.572-1.414q0-.812.572-1.384a2 2 0 0 1 1.414-.571q.812 0 1.384.571.601.572.601 1.384 0 .813-.601 1.414a1.9 1.9 0 0 1-1.384.572m11.161 18.261q-2.376 0-3.64-1.173-1.234-1.204-1.234-3.43v-7.912h-2.497v-2.888h2.497v-4.693h3.34v4.693h4.061v2.888h-4.061v7.28q0 1.053.481 1.595.511.541 1.474.541.301 0 .662-.12t.812-.451l1.234 2.557a6.5 6.5 0 0 1-1.565.812 4.3 4.3 0 0 1-1.564.301m19.217 0q-2.316 0-4.091-.993a7.5 7.5 0 0 1-2.798-2.797q-.993-1.776-.993-4.092t.993-4.091a7.33 7.33 0 0 1 2.768-2.768q1.775-1.023 4.061-1.023 2.226 0 4.031 1.083 1.806 1.053 2.678 3.038l-3.129 1.204a3.76 3.76 0 0 0-1.474-1.595q-.993-.6-2.256-.601-1.234 0-2.197.631-.962.602-1.504 1.685-.541 1.053-.541 2.437t.541 2.467a4.6 4.6 0 0 0 1.534 1.685q.993.6 2.227.601 1.263 0 2.256-.631a4 4 0 0 0 1.474-1.775l3.129 1.203q-.873 2.046-2.677 3.189-1.776 1.143-4.032 1.143m15.793 0q-2.257 0-4.032-.993a7.33 7.33 0 0 1-2.737-2.797q-.993-1.776-.993-4.092t.963-4.091a7.1 7.1 0 0 1 2.737-2.768q1.745-1.023 4.002-1.023t4.001 1.023a6.9 6.9 0 0 1 2.707 2.767q.993 1.776.993 4.092t-.962 4.092a7.1 7.1 0 0 1-2.708 2.797q-1.745.993-3.971.993m0-3.099q1.233 0 2.196-.601a4.36 4.36 0 0 0 1.504-1.685q.542-1.083.542-2.497t-.572-2.467q-.541-1.083-1.504-1.685-.963-.63-2.226-.631-1.264 0-2.227.601-.963.602-1.504 1.685-.542 1.083-.542 2.497t.542 2.497a4.6 4.6 0 0 0 1.534 1.685q.993.601 2.257.602m10.109 2.738V87.085h3.159l.151 2.136q.722-1.203 1.865-1.835 1.173-.663 2.678-.662 1.805 0 3.068.722 1.294.721 1.956 2.256.692 1.505.692 3.941v8.484h-3.37v-7.701q0-1.806-.421-2.768-.392-.994-1.143-1.384-.723-.39-1.715-.391-1.685-.03-2.617 1.113-.933 1.143-.933 3.28v7.851zm22.006.361q-1.505 0-2.768-.451t-2.166-1.264a5.8 5.8 0 0 1-1.384-1.955l2.918-1.294a3.9 3.9 0 0 0 1.324 1.414 3.64 3.64 0 0 0 1.985.572q1.174 0 1.866-.391.722-.421.722-1.144 0-.691-.542-1.052-.541-.392-1.534-.632l-1.414-.391q-2.136-.542-3.339-1.715-1.204-1.203-1.204-2.738 0-2.256 1.444-3.49 1.475-1.233 4.212-1.233 1.384 0 2.527.421 1.173.39 2.016 1.143a3.8 3.8 0 0 1 1.173 1.715l-2.798 1.264q-.3-.753-1.143-1.144a4.1 4.1 0 0 0-1.865-.42q-1.023 0-1.595.45-.571.421-.571 1.204 0 .451.511.842.512.361 1.474.602l1.775.421q1.474.36 2.407 1.143.933.752 1.384 1.715.451.933.451 1.895 0 1.354-.782 2.377-.752 1.023-2.076 1.595-1.323.541-3.008.541m15.006 0q-2.256 0-4.031-.993a7.34 7.34 0 0 1-2.738-2.797q-.993-1.776-.993-4.092t.963-4.091a7.1 7.1 0 0 1 2.738-2.768q1.745-1.023 4.001-1.023t4.001 1.023a6.9 6.9 0 0 1 2.708 2.767q.993 1.776.993 4.092t-.963 4.092a7.1 7.1 0 0 1-2.708 2.797q-1.745.993-3.971.993m0-3.099q1.235 0 2.196-.601a4.36 4.36 0 0 0 1.505-1.685q.541-1.083.541-2.497t-.571-2.467q-.542-1.083-1.505-1.685-.962-.63-2.226-.631-1.263 0-2.226.601-.963.602-1.504 1.685-.542 1.083-.542 2.497t.542 2.497A4.6 4.6 0 0 0 464 98.791q.993.601 2.256.602m10.11 2.738V87.085h3.159l.15 2.016q.692-1.174 1.775-1.775 1.083-.602 2.467-.602 1.806 0 3.069.812t1.835 2.467q.662-1.594 1.865-2.437 1.204-.842 2.828-.842 2.618 0 4.032 1.685 1.413 1.654 1.384 5.114v8.604h-3.34v-7.701q0-1.806-.391-2.768-.392-.994-1.053-1.384t-1.534-.391q-1.564-.03-2.437 1.113-.842 1.143-.842 3.28v7.851h-3.37v-7.701q0-1.806-.391-2.768-.361-.994-1.023-1.384t-1.534-.391q-1.564-.03-2.437 1.113-.842 1.143-.842 3.28v7.851zm25.55 0V87.085h3.158l.151 2.016q.692-1.174 1.775-1.775 1.083-.602 2.467-.602 1.805 0 3.068.812t1.836 2.467q.662-1.594 1.865-2.437t2.828-.842q2.618 0 4.031 1.685 1.414 1.654 1.384 5.114v8.604h-3.339v-7.701q0-1.806-.391-2.768-.391-.994-1.053-1.384-.663-.39-1.535-.391-1.564-.03-2.437 1.113-.842 1.143-.842 3.28v7.851h-3.369v-7.701q0-1.806-.392-2.768-.36-.994-1.022-1.384t-1.535-.391q-1.564-.03-2.437 1.113-.842 1.143-.842 3.28v7.851zm32.258.361q-2.196 0-3.911-.993a7.5 7.5 0 0 1-2.678-2.797q-.962-1.776-.962-4.092t.992-4.091a7.2 7.2 0 0 1 2.708-2.768q1.745-1.023 3.971-1.023 2.016 0 3.64 1.053 1.625 1.023 2.558 2.978.962 1.956.962 4.663h-11.342q.151 1.896 1.384 2.979 1.264 1.083 2.979 1.083 1.383 0 2.286-.602a4.4 4.4 0 0 0 1.414-1.624l2.978 1.263a7.6 7.6 0 0 1-1.624 2.106q-.963.903-2.317 1.384-1.323.481-3.038.481m-3.851-9.657h7.491q-.09-1.083-.632-1.775a3.44 3.44 0 0 0-1.323-1.083 3.9 3.9 0 0 0-1.655-.361q-.843 0-1.715.36a3.54 3.54 0 0 0-1.444 1.054q-.602.722-.722 1.805m13.26 9.296V87.085h3.37v2.738q.903-1.414 2.347-2.106a6.8 6.8 0 0 1 2.978-.692v3.219q-1.384 0-2.617.39-1.204.363-1.956 1.204-.752.843-.752 2.227v8.062zm-480.32 79.325q-4.742 0-8.395-2.115-3.653-2.178-5.768-5.96-2.05-3.78-2.05-8.715t2.114-8.716q2.18-3.781 5.896-5.896 3.782-2.178 8.652-2.179 4.23 0 7.754 2.243 3.59 2.18 5.704 6.473 2.18 4.23 2.179 10.318H55.893q.321 3.204 2.756 5.127 2.435 1.858 5.511 1.858 2.628 0 4.294-1.089a7.75 7.75 0 0 0 2.564-2.948l7.562 2.948a15.9 15.9 0 0 1-3.525 4.678q-2.115 1.923-5.063 2.948t-6.729 1.025m-6.921-20.828h13.843q-.193-1.986-1.282-3.204a6.65 6.65 0 0 0-2.564-1.794q-1.474-.577-2.883-.577-1.346 0-2.949.577-1.537.513-2.755 1.73-1.155 1.218-1.41 3.268m27.471 20.059v-32.043h7.947l.384 4.358q1.539-2.499 3.91-3.781 2.435-1.346 5.511-1.346 3.781 0 6.473 1.538t4.101 4.807q1.41 3.204 1.346 8.331v18.136h-8.459v-16.406q0-3.268-.769-5.062-.705-1.795-2.051-2.564-1.346-.833-3.14-.833-3.27-.065-5.063 1.987-1.73 2.05-1.73 6.088v16.79zm49.174.769q-5.32 0-8.075-2.627-2.691-2.628-2.691-7.498v-15.509h-5.191v-7.178h5.191v-9.997h8.459v9.997h8.011v7.178h-8.011v13.65q0 2.05.897 3.14.897 1.026 2.628 1.026.64 0 1.41-.257a8.7 8.7 0 0 0 1.602-.897l2.948 6.345a13.5 13.5 0 0 1-3.461 1.858q-1.858.77-3.717.769m12.131-.769v-32.043h8.46v5.896q1.986-3.012 4.998-4.486 3.076-1.538 6.345-1.538v8.203q-2.949 0-5.576.705-2.563.705-4.165 2.307t-1.602 4.102v16.854zm38.315.769q-4.743 0-8.396-2.115-3.653-2.178-5.767-5.96-2.052-3.78-2.051-8.715t2.115-8.716q2.178-3.781 5.896-5.896 3.78-2.178 8.651-2.179 4.23 0 7.755 2.243 3.588 2.18 5.703 6.473 2.18 4.23 2.179 10.318h-23.455q.32 3.204 2.755 5.127 2.436 1.858 5.512 1.858 2.627 0 4.294-1.089a7.76 7.76 0 0 0 2.563-2.948l7.562 2.948a15.9 15.9 0 0 1-3.525 4.678q-2.115 1.923-5.062 2.948-2.949 1.025-6.729 1.025m-6.922-20.828h13.843q-.192-1.986-1.282-3.204a6.65 6.65 0 0 0-2.563-1.794q-1.474-.577-2.884-.577-1.346 0-2.948.577-1.538.513-2.756 1.73-1.154 1.218-1.41 3.268m44.597 20.059 18.009-36.849h-21.854v-8.011h31.595v6.473l-18.008 38.387zm47.207.769q-3.973 0-7.177-1.153-3.205-1.218-5.384-3.397a12.34 12.34 0 0 1-2.948-5.255l8.075-2.371q.448.77 1.218 1.923.769 1.089 2.115 1.858t3.524.769q3.205 0 5.063-1.73 1.923-1.796 1.923-4.614 0-1.923-.962-3.397-.96-1.474-3.14-2.243-2.115-.833-5.575-.833h-2.692v-7.178h2.692q4.485 0 6.665-1.538 2.178-1.538 2.179-4.229 0-1.538-.769-2.756-.77-1.218-2.179-1.923-1.41-.705-3.269-.705-1.217 0-2.499.449-1.282.384-2.371 1.346-1.026.897-1.666 2.627l-7.947-2.371q.897-3.14 3.076-5.255 2.243-2.18 5.319-3.268a17.9 17.9 0 0 1 6.345-1.154q4.165 0 7.498 1.602 3.332 1.539 5.255 4.294 1.922 2.755 1.922 6.345 0 3.523-1.986 6.024-1.923 2.434-5.191 3.909 3.717 1.73 5.896 4.614 2.178 2.82 2.179 6.665 0 4.038-2.115 6.985-2.115 2.885-5.576 4.422-3.46 1.539-7.498 1.538m29.647-.769V146.85a21.8 21.8 0 0 1-4.614 2.435 12.6 12.6 0 0 1-4.87.705v-7.946q1.602.128 3.46-.769a21 21 0 0 0 3.653-2.436 48 48 0 0 0 3.333-3.012h7.434v44.86zm47.043.769q-4.742 0-8.395-2.115-3.653-2.178-5.768-5.96-2.05-3.78-2.05-8.715t2.114-8.716q2.18-3.781 5.896-5.896 3.782-2.178 8.652-2.179 4.23 0 7.754 2.243 3.59 2.18 5.704 6.473 2.18 4.23 2.179 10.318h-23.456q.321 3.204 2.756 5.127 2.436 1.858 5.512 1.858 2.626 0 4.293-1.089a7.75 7.75 0 0 0 2.564-2.948l7.562 2.948a15.9 15.9 0 0 1-3.525 4.678q-2.115 1.923-5.063 2.948t-6.729 1.025m-6.921-20.828h13.843q-.193-1.986-1.282-3.204a6.65 6.65 0 0 0-2.564-1.794q-1.473-.577-2.883-.577-1.346 0-2.948.577-1.538.513-2.756 1.73-1.154 1.218-1.41 3.268m40.673 20.828q-5.32 0-8.075-2.627-2.691-2.628-2.691-7.498v-15.509H362.8v-7.178h5.191v-9.997h8.459v9.997h8.011v7.178h-8.011v13.65q0 2.05.897 3.14.897 1.026 2.628 1.026.64 0 1.41-.257a8.7 8.7 0 0 0 1.602-.897l2.948 6.345a13.5 13.5 0 0 1-3.461 1.858q-1.859.77-3.717.769m35.794-.769V146.85a21.8 21.8 0 0 1-4.614 2.435 12.6 12.6 0 0 1-4.871.705v-7.946q1.602.128 3.461-.769a21 21 0 0 0 3.653-2.436 48 48 0 0 0 3.332-3.012h7.434v44.86zm41.403 0V146.85a21.8 21.8 0 0 1-4.614 2.435 12.6 12.6 0 0 1-4.87.705v-7.946q1.602.128 3.46-.769a21 21 0 0 0 3.653-2.436 48 48 0 0 0 3.333-3.012h7.434v44.86zm17.357 0v-6.472q0-1.859 1.153-4.102t3.204-4.486q2.052-2.243 4.807-4.165l6.793-4.871a18 18 0 0 0 2.627-2.179 10.7 10.7 0 0 0 2.051-2.627q.834-1.475.833-2.82 0-1.667-.833-3.012-.77-1.345-2.307-2.115-1.538-.77-3.781-.769-1.922 0-3.461.769a7.1 7.1 0 0 0-2.435 2.051 7.9 7.9 0 0 0-1.346 2.755l-9.036-1.538q.64-3.204 2.756-5.96t5.511-4.422q3.461-1.73 7.819-1.73 4.999 0 8.587 1.794 3.59 1.796 5.512 4.935 1.986 3.076 1.986 7.178 0 4.166-2.307 7.434-2.243 3.204-6.216 6.024l-6.088 4.422q-1.858 1.281-3.205 2.819a11.1 11.1 0 0 0-2.05 3.397h20.443v7.69zm52.169.769q-3.077 0-6.345-1.025a18.6 18.6 0 0 1-5.831-3.076 12.3 12.3 0 0 1-3.781-5.063l8.01-2.371q1.41 2.05 3.333 3.012 1.986.961 4.101.961 3.333 0 5.383-1.986 2.115-2.051 2.115-5.448 0-3.14-2.051-5.255-1.986-2.115-5.319-2.115-1.986 0-3.653.898-1.665.897-2.563 2.114l-7.883-1.73 2.692-24.545h25.378v7.947h-17.88l-1.282 10.766q1.731-.961 3.846-1.538 2.114-.64 4.55-.577 3.653 0 6.665 1.795 3.012 1.73 4.742 4.806 1.794 3.012 1.794 7.05 0 4.55-2.05 8.01-2.051 3.461-5.64 5.448-3.59 1.922-8.331 1.922M47.537 231.687v-21.141h5.243l.254 2.748q.972-1.607 2.495-2.41 1.522-.846 3.382-.846 2.58 0 4.313 1.1 1.776 1.099 2.58 3.382.93-2.156 2.621-3.298 1.691-1.184 3.933-1.184 3.72 0 5.665 2.368 1.946 2.325 1.946 7.188v12.093h-5.582v-10.824q0-2.156-.465-3.341-.465-1.184-1.269-1.691-.803-.55-1.902-.55-2.03-.042-3.13 1.311-1.099 1.353-1.099 4.017v11.078h-5.581v-10.824q0-2.156-.465-3.341-.423-1.184-1.269-1.691-.803-.55-1.902-.55-2.03-.042-3.13 1.311-1.056 1.353-1.056 4.017v11.078zm36.76 0v-21.141h5.582v21.141zm2.792-24.566q-1.269 0-2.242-.931-.972-.972-.972-2.283t.972-2.241q.973-.972 2.242-.972 1.31 0 2.24.972.973.93.973 2.241t-.972 2.283a3.05 3.05 0 0 1-2.241.931m7.485 24.566v-29.598h5.582v29.598zm9.954 0v-29.598h5.582v29.598zm10.293 0v-21.141h5.581v21.141zm2.79-24.566q-1.267 0-2.241-.931-.972-.972-.972-2.283t.972-2.241q.974-.972 2.241-.972 1.311 0 2.241.972.973.93.973 2.241t-.973 2.283a3.05 3.05 0 0 1-2.241.931m17.423 25.074q-3.214 0-5.751-1.396a10.5 10.5 0 0 1-3.932-3.932q-1.395-2.495-1.395-5.751 0-3.255 1.395-5.75a9.93 9.93 0 0 1 3.89-3.89q2.495-1.438 5.708-1.438 3.256 0 5.751 1.438a9.93 9.93 0 0 1 3.89 3.89q1.395 2.495 1.395 5.75t-1.395 5.751a10.2 10.2 0 0 1-3.89 3.932q-2.453 1.396-5.666 1.396m0-5.159q1.565 0 2.748-.761a5 5 0 0 0 1.818-2.072q.677-1.353.677-3.087 0-1.733-.677-3.044-.677-1.353-1.902-2.114-1.185-.762-2.749-.761-1.523 0-2.748.761-1.184.76-1.861 2.114-.676 1.311-.676 3.044t.676 3.087a5.2 5.2 0 0 0 1.903 2.072q1.227.76 2.791.761m14.181 4.651v-21.141h5.243l.253 2.875q1.015-1.65 2.58-2.495 1.606-.888 3.636-.888 2.495 0 4.271 1.015t2.706 3.171q.93 2.115.888 5.497v11.966h-5.582v-10.824q0-2.156-.507-3.341-.465-1.184-1.353-1.691-.888-.55-2.072-.55-2.157-.042-3.34 1.311-1.142 1.353-1.142 4.017v11.078zm31.487.508q-2.03 0-3.805-.592a10 10 0 0 1-3.129-1.776 8.3 8.3 0 0 1-2.114-2.875l4.778-2.199q.633 1.014 1.733 1.776 1.1.718 2.537.718 1.395 0 2.157-.38.76-.423.761-1.184 0-.761-.635-1.099-.591-.38-1.649-.635l-1.945-.507q-3.044-.803-4.82-2.537-1.734-1.776-1.734-4.059 0-3.256 2.072-5.032 2.115-1.776 5.962-1.776 1.987 0 3.679.592 1.733.592 2.96 1.649t1.691 2.453l-4.609 2.114q-.295-.846-1.437-1.353-1.143-.55-2.284-.55-1.142 0-1.776.507-.592.466-.592 1.311 0 .55.592.93.593.339 1.692.592l2.748.677q2.072.507 3.298 1.649 1.269 1.099 1.818 2.495.592 1.353.592 2.664 0 1.902-1.141 3.382-1.1 1.439-3.045 2.241-1.902.804-4.355.804m29.376 0q-2.917 0-5.074-1.353-2.114-1.353-3.298-3.848t-1.184-5.878q0-3.424 1.184-5.877 1.184-2.495 3.298-3.848 2.157-1.353 5.074-1.353 2.072 0 3.679.888a6.75 6.75 0 0 1 2.664 2.453v-11.29h5.581v29.598h-5.285l-.169-2.96a7.6 7.6 0 0 1-2.707 2.58q-1.648.888-3.763.888m1.438-5.117q1.395 0 2.452-.676 1.1-.719 1.734-1.987.634-1.27.719-2.876v-.845q-.085-1.608-.719-2.833-.635-1.269-1.734-1.945-1.1-.72-2.494-.719-1.522 0-2.707.761-1.141.719-1.818 2.072-.634 1.353-.634 3.086 0 1.734.676 3.087.677 1.353 1.819 2.114 1.184.762 2.706.761m24.399 5.117q-3.129 0-5.539-1.396-2.41-1.437-3.805-3.932-1.353-2.495-1.353-5.751 0-3.255 1.395-5.75 1.437-2.495 3.89-3.89 2.495-1.438 5.708-1.438 2.791 0 5.117 1.48 2.368 1.437 3.763 4.271 1.437 2.79 1.437 6.807h-15.475q.212 2.114 1.818 3.383a5.84 5.84 0 0 0 3.636 1.226q1.734 0 2.833-.719a5.1 5.1 0 0 0 1.692-1.945l4.989 1.945a10.5 10.5 0 0 1-2.326 3.087q-1.395 1.269-3.34 1.945t-4.44.677m-4.566-13.742h9.133q-.127-1.311-.846-2.115a4.4 4.4 0 0 0-1.691-1.184 5.2 5.2 0 0 0-1.903-.38q-.888 0-1.945.38a4.6 4.6 0 0 0-1.818 1.142q-.762.804-.93 2.157m27.595 13.234v-21.141h5.243l.254 2.748q.972-1.607 2.495-2.41 1.522-.846 3.382-.846 2.58 0 4.313 1.1 1.776 1.099 2.58 3.382.93-2.156 2.621-3.298 1.691-1.184 3.932-1.184 3.722 0 5.666 2.368 1.945 2.325 1.945 7.188v12.093h-5.581v-10.824q0-2.156-.465-3.341-.465-1.184-1.269-1.691-.803-.55-1.902-.55-2.03-.042-3.129 1.311t-1.1 4.017v11.078h-5.581v-10.824q0-2.156-.465-3.341-.423-1.184-1.269-1.691-.803-.55-1.902-.55-2.03-.042-3.129 1.311-1.057 1.353-1.057 4.017v11.078zm41.75-15.771q-2.579 0-4.397-1.142-1.776-1.184-2.199-3.34l3.975-.888q.253.55.719 1.183.507.592 1.649.592.972 0 1.564-.549.592-.55.592-1.48 0-.507-.254-.973-.212-.507-.888-.761-.634-.296-1.902-.296h-1.396v-2.706h1.227q1.944 0 3.636.677 1.691.634 2.748 1.818 1.057 1.183 1.057 2.791 0 1.648-.888 2.79-.888 1.1-2.283 1.692a7.5 7.5 0 0 1-2.96.592m-2.537-8.542v-2.494h1.396q1.521 0 2.156-.508.634-.549.634-1.437 0-.762-.549-1.269-.508-.507-1.396-.507-.677 0-1.31.38-.634.38-.931 1.396l-3.89-.888q.254-1.48 1.184-2.453a6.3 6.3 0 0 1 2.283-1.522 7.9 7.9 0 0 1 2.791-.507q1.65 0 3.002.634 1.396.635 2.199 1.733.803 1.058.803 2.537 0 1.692-1.057 2.791-1.056 1.057-2.706 1.607a11.4 11.4 0 0 1-3.382.507zm29.827 24.821q-2.918 0-5.074-1.353-2.115-1.353-3.299-3.848t-1.184-5.878q0-3.424 1.184-5.877 1.185-2.495 3.299-3.848 2.156-1.353 5.074-1.353 2.072 0 3.678.888a6.74 6.74 0 0 1 2.664 2.453v-11.29h5.581v29.598h-5.285l-.169-2.96a7.64 7.64 0 0 1-2.706 2.58q-1.65.888-3.763.888m1.437-5.117q1.395 0 2.453-.676 1.099-.719 1.733-1.987.635-1.27.719-2.876v-.845q-.084-1.608-.719-2.833-.634-1.269-1.733-1.945-1.1-.72-2.495-.719-1.522 0-2.706.761-1.142.719-1.818 2.072-.635 1.353-.635 3.086 0 1.734.677 3.087t1.818 2.114q1.183.762 2.706.761m12.983-15.01 2.579-9.979h5.793l-4.144 9.979zm20.215 20.127q-3.13 0-5.54-1.396-2.41-1.437-3.805-3.932-1.353-2.495-1.353-5.751 0-3.255 1.395-5.75 1.438-2.495 3.89-3.89 2.495-1.438 5.709-1.438 2.79 0 5.116 1.48 2.368 1.437 3.763 4.271 1.438 2.79 1.438 6.807h-15.476q.212 2.114 1.818 3.383a5.84 5.84 0 0 0 3.637 1.226q1.733 0 2.833-.719a5.1 5.1 0 0 0 1.691-1.945l4.989 1.945a10.5 10.5 0 0 1-2.325 3.087q-1.396 1.269-3.341 1.945-1.944.677-4.439.677m-4.567-13.742h9.133q-.126-1.311-.846-2.115a4.4 4.4 0 0 0-1.691-1.184 5.2 5.2 0 0 0-1.903-.38q-.888 0-1.945.38a4.6 4.6 0 0 0-1.818 1.142q-.76.804-.93 2.157m24.822 13.742q-3.806 0-5.92-1.692-2.072-1.69-2.072-4.778 0-3.382 2.241-5.074 2.284-1.733 6.385-1.733h4.989q-.296-1.946-1.226-2.96-.93-1.057-2.664-1.057-1.353 0-2.452.592-1.1.591-1.861 1.818l-4.905-1.691q.592-1.353 1.734-2.622 1.142-1.311 2.96-2.114 1.86-.846 4.524-.846 3.214 0 5.328 1.226 2.157 1.227 3.171 3.468 1.057 2.198 1.015 5.243l-.127 11.712h-5.201l-.084-2.452a5.4 5.4 0 0 1-2.284 2.199q-1.437.76-3.551.761m.93-4.652q1.353 0 2.452-.634a4.9 4.9 0 0 0 1.734-1.649q.634-1.014.634-2.114v-.085h-3.171q-2.748 0-3.806.677-1.056.634-1.057 1.818 0 .93.846 1.48.846.507 2.368.507m21.84 4.652q-2.537 0-4.313-1.015-1.733-1.016-2.664-3.129-.93-2.157-.93-5.539v-11.966h5.582v10.824q0 2.115.465 3.34.507 1.185 1.395 1.734.93.508 2.072.508 2.199.042 3.34-1.311 1.142-1.396 1.142-4.017v-11.078h5.581v21.141h-5.243l-.211-2.875q-1.058 1.607-2.664 2.495-1.564.888-3.552.888m25.889 7.949v-29.598h5.244l.253 3.002q1.058-1.692 2.664-2.58 1.649-.93 3.806-.93 2.918 0 5.031 1.353 2.156 1.353 3.341 3.848 1.184 2.452 1.184 5.877 0 3.384-1.184 5.878-1.185 2.495-3.341 3.848-2.113 1.353-5.031 1.353-2.115 0-3.721-.888-1.607-.888-2.664-2.495v11.332zm10.529-13.066q1.522 0 2.664-.761 1.183-.76 1.86-2.114t.677-3.087-.677-3.086q-.635-1.353-1.818-2.072-1.142-.762-2.664-.761-1.437 0-2.579.761-1.142.76-1.776 2.114-.634 1.311-.634 3.044t.634 3.087 1.734 2.114q1.142.762 2.579.761m21.053 5.117q-3.805 0-5.92-1.692-2.071-1.69-2.071-4.778 0-3.382 2.241-5.074 2.283-1.733 6.384-1.733h4.99q-.296-1.946-1.226-2.96-.931-1.057-2.664-1.057-1.353 0-2.453.592-1.1.591-1.86 1.818l-4.905-1.691q.592-1.353 1.734-2.622 1.141-1.311 2.959-2.114 1.861-.846 4.525-.846 3.213 0 5.327 1.226a7.43 7.43 0 0 1 3.172 3.468q1.057 2.198 1.014 5.243l-.126 11.712h-5.201l-.085-2.452a5.37 5.37 0 0 1-2.283 2.199q-1.438.76-3.552.761m.93-4.652q1.353 0 2.453-.634a4.86 4.86 0 0 0 1.733-1.649q.635-1.014.635-2.114v-.085h-3.172q-2.748 0-3.805.677-1.057.634-1.057 1.818 0 .93.845 1.48.846.507 2.368.507m14.314 4.144v-21.141h5.582v3.89q1.31-1.988 3.298-2.96 2.03-1.015 4.186-1.015v5.412q-1.945 0-3.679.465-1.691.465-2.748 1.523-1.057 1.056-1.057 2.706v11.12zm32.044.508q-3.806 0-5.92-1.692-2.072-1.69-2.072-4.778 0-3.382 2.241-5.074 2.284-1.733 6.385-1.733h4.989q-.296-1.946-1.226-2.96-.93-1.057-2.664-1.057-1.353 0-2.452.592-1.1.591-1.861 1.818l-4.904-1.691q.591-1.353 1.733-2.622 1.142-1.311 2.96-2.114 1.86-.846 4.524-.846 3.215 0 5.328 1.226 2.157 1.227 3.171 3.468 1.057 2.198 1.015 5.243l-.127 11.712h-5.201l-.084-2.452a5.4 5.4 0 0 1-2.283 2.199q-1.438.76-3.552.761m.93-4.652q1.353 0 2.452-.634a4.9 4.9 0 0 0 1.734-1.649q.634-1.014.634-2.114v-.085h-3.171q-2.748 0-3.806.677-1.056.634-1.057 1.818 0 .93.846 1.48.846.507 2.368.507m14.314 4.144v-21.141h5.243l.254 2.875q1.014-1.65 2.579-2.495 1.607-.888 3.636-.888 2.495 0 4.271 1.015t2.706 3.171q.93 2.115.888 5.497v11.966h-5.581v-10.824q0-2.156-.508-3.341-.465-1.184-1.353-1.691-.888-.55-2.072-.55-2.156-.042-3.34 1.311-1.142 1.353-1.142 4.017v11.078z"/><path fill="#90ce79" stroke="#90ce79" stroke-linecap="round" stroke-linejoin="round" stroke-width="4.269" d="M49.817 362.489c-.666 0-1.206-.54-1.206-1.206v-3.064c0-16.504 13.38-29.884 29.885-29.884s29.885 13.38 29.885 29.884v3.064"/><path fill="#90ce79" d="M78.493 329.542c9.431 0 17.077-7.645 17.077-17.077 0-9.431-7.646-17.077-17.077-17.077s-17.077 7.646-17.077 17.077 7.646 17.077 17.077 17.077"/><path fill="#90ce79" stroke="#90ce79" stroke-linecap="round" stroke-linejoin="round" stroke-width="4.269" d="M128.184 362.497a1.204 1.204 0 0 1-1.205-1.205v-3.064c0-16.505 13.379-29.884 29.884-29.884s29.885 13.379 29.885 29.884v3.064"/><path fill="#90ce79" d="M156.86 329.551c9.431 0 17.077-7.646 17.077-17.077s-7.646-17.077-17.077-17.077-17.077 7.646-17.077 17.077 7.646 17.077 17.077 17.077"/><path fill="#90ce79" stroke="#90ce79" stroke-linecap="round" stroke-linejoin="round" stroke-width="4.269" d="M206.532 362.497a1.205 1.205 0 0 1-1.206-1.205v-3.064c0-16.505 13.38-29.884 29.885-29.884s29.885 13.379 29.885 29.884v3.064"/><path fill="#90ce79" d="M235.212 329.551c9.431 0 17.077-7.646 17.077-17.077s-7.646-17.077-17.077-17.077-17.077 7.646-17.077 17.077 7.645 17.077 17.077 17.077"/><path fill="#90ce79" stroke="#90ce79" stroke-linecap="round" stroke-linejoin="round" stroke-width="4.269" d="M284.887 362.497a1.204 1.204 0 0 1-1.205-1.205v-3.064c0-16.505 13.379-29.884 29.884-29.884s29.885 13.379 29.885 29.884v3.064"/><path fill="#90ce79" d="M313.567 329.551c9.431 0 17.077-7.646 17.077-17.077s-7.646-17.077-17.077-17.077-17.077 7.646-17.077 17.077 7.646 17.077 17.077 17.077"/><path fill="#90ce79" stroke="#90ce79" stroke-linecap="round" stroke-linejoin="round" stroke-width="4.269" d="M363.244 362.497a1.205 1.205 0 0 1-1.205-1.205v-3.064c0-16.505 13.38-29.884 29.885-29.884s29.884 13.379 29.884 29.884v3.064"/><path fill="#90ce79" d="M391.921 329.551c9.431 0 17.077-7.646 17.077-17.077s-7.646-17.077-17.077-17.077-17.077 7.646-17.077 17.077 7.645 17.077 17.077 17.077"/><path fill="#90ce79" stroke="#90ce79" stroke-linecap="round" stroke-linejoin="round" stroke-width="4.269" d="M49.817 449.197c-.666 0-1.206-.54-1.206-1.206v-3.063c0-16.505 13.38-29.885 29.885-29.885s29.885 13.38 29.885 29.885v3.063"/><path fill="#90ce79" d="M78.493 416.251c9.431 0 17.077-7.646 17.077-17.077s-7.646-17.077-17.077-17.077-17.077 7.645-17.077 17.077c0 9.431 7.646 17.077 17.077 17.077"/><path fill="#90ce79" stroke="#90ce79" stroke-linecap="round" stroke-linejoin="round" stroke-width="4.269" d="M128.182 448.438c-.666 0-1.205-.54-1.205-1.206v-3.064c0-16.504 13.379-29.884 29.884-29.884s29.885 13.38 29.885 29.884v3.064"/><path fill="#90ce79" d="M156.858 415.491c9.431 0 17.077-7.645 17.077-17.077 0-9.431-7.646-17.077-17.077-17.077s-17.077 7.646-17.077 17.077 7.646 17.077 17.077 17.077"/><path fill="#90ce79" stroke="#90ce79" stroke-linecap="round" stroke-linejoin="round" stroke-width="4.269" d="M206.532 448.438c-.666 0-1.206-.54-1.206-1.206v-3.064c0-16.504 13.38-29.884 29.885-29.884s29.885 13.38 29.885 29.884v3.064"/><path fill="#90ce79" d="M235.212 415.491c9.431 0 17.077-7.645 17.077-17.077 0-9.431-7.646-17.077-17.077-17.077s-17.077 7.646-17.077 17.077 7.645 17.077 17.077 17.077"/><path fill="#90ce79" stroke="#90ce79" stroke-linecap="round" stroke-linejoin="round" stroke-width="4.269" d="M284.887 448.438c-.666 0-1.205-.54-1.205-1.206v-3.064c0-16.504 13.379-29.884 29.884-29.884s29.885 13.38 29.885 29.884v3.064"/><path fill="#90ce79" d="M313.567 415.491c9.431 0 17.077-7.645 17.077-17.077 0-9.431-7.646-17.077-17.077-17.077s-17.077 7.646-17.077 17.077 7.646 17.077 17.077 17.077"/><path fill="#90ce79" stroke="#90ce79" stroke-linecap="round" stroke-linejoin="round" stroke-width="4.269" d="M363.244 448.438c-.665 0-1.205-.54-1.205-1.206v-3.064c0-16.504 13.38-29.884 29.885-29.884s29.884 13.38 29.884 29.884v3.064"/><path fill="#90ce79" d="M391.921 415.491c9.431 0 17.077-7.645 17.077-17.077 0-9.431-7.646-17.077-17.077-17.077s-17.077 7.646-17.077 17.077 7.645 17.077 17.077 17.077M52.468 532.978q-1.505 0-2.768-.451-1.265-.451-2.166-1.264a5.8 5.8 0 0 1-1.384-1.955l2.918-1.294q.45.843 1.324 1.414a3.64 3.64 0 0 0 1.985.572q1.174 0 1.866-.391.722-.421.722-1.144 0-.692-.542-1.052-.54-.392-1.534-.632l-1.414-.391q-2.136-.542-3.34-1.715-1.203-1.203-1.203-2.738 0-2.256 1.444-3.49 1.474-1.233 4.212-1.233 1.384 0 2.527.421a5.7 5.7 0 0 1 2.016 1.143 3.83 3.83 0 0 1 1.173 1.715l-2.798 1.264q-.3-.753-1.143-1.144a4.1 4.1 0 0 0-1.865-.421q-1.023 0-1.595.451-.57.421-.571 1.204 0 .451.511.842.511.361 1.474.602l1.775.421q1.474.361 2.407 1.143.933.752 1.384 1.715.45.933.451 1.895 0 1.354-.782 2.377-.751 1.023-2.076 1.595-1.323.541-3.008.541m15.006 0q-2.256 0-4.031-.993a7.34 7.34 0 0 1-2.738-2.797q-.993-1.776-.993-4.092t.963-4.092a7.1 7.1 0 0 1 2.738-2.767q1.745-1.023 4.001-1.023t4.001 1.023a6.9 6.9 0 0 1 2.708 2.767q.993 1.776.993 4.092t-.963 4.092a7.1 7.1 0 0 1-2.708 2.797q-1.745.993-3.97.993m0-3.099q1.234 0 2.196-.601a4.36 4.36 0 0 0 1.505-1.685q.54-1.083.541-2.497 0-1.414-.572-2.467-.54-1.083-1.504-1.685-.962-.631-2.226-.631-1.263 0-2.226.601-.963.602-1.505 1.685-.54 1.083-.541 2.497 0 1.414.541 2.497a4.6 4.6 0 0 0 1.535 1.685q.993.601 2.256.601m10.32 2.738v-15.042h3.34v15.042zm1.685-17.9a2 2 0 0 1-1.414-.572 2 2 0 0 1-.571-1.414q0-.812.571-1.384a2 2 0 0 1 1.414-.571q.813 0 1.384.571.602.572.602 1.384 0 .813-.602 1.414a1.9 1.9 0 0 1-1.384.572m11.162 18.261q-2.377 0-3.64-1.173-1.234-1.204-1.234-3.43v-7.912H83.27v-2.888h2.497v-4.693h3.34v4.693h4.06v2.888h-4.06v7.28q0 1.053.48 1.595.512.541 1.475.541.3 0 .662-.12.36-.12.812-.451l1.233 2.557a6.5 6.5 0 0 1-1.564.812 4.3 4.3 0 0 1-1.564.301m12.177-.361v-21.059h3.369v21.059zm5.214-14.23 1.805-6.829h3.55l-2.708 6.829zm13.842 14.591q-2.196 0-3.911-.993a7.5 7.5 0 0 1-2.678-2.797q-.963-1.776-.963-4.092t.993-4.092a7.2 7.2 0 0 1 2.708-2.767q1.745-1.023 3.971-1.023 2.016 0 3.64 1.053 1.625 1.023 2.557 2.978.963 1.956.963 4.663h-11.342q.151 1.896 1.384 2.979 1.264 1.083 2.979 1.083 1.383 0 2.286-.602a4.4 4.4 0 0 0 1.414-1.625l2.978 1.264a7.6 7.6 0 0 1-1.624 2.106q-.963.903-2.317 1.384-1.323.481-3.038.481m-3.851-9.657h7.491q-.09-1.083-.632-1.775a3.44 3.44 0 0 0-1.324-1.083 3.9 3.9 0 0 0-1.654-.361q-.843 0-1.715.361a3.55 3.55 0 0 0-1.444 1.053q-.602.722-.722 1.805m1.655-7.702 3.489-4.061h3.911l-3.881 4.061zm22.374 23.015v-8.243a5.45 5.45 0 0 1-1.985 1.895q-1.204.692-2.768.692-2.046 0-3.58-.963-1.504-.992-2.377-2.767-.843-1.776-.842-4.152 0-2.407.842-4.152.873-1.775 2.377-2.737 1.534-.993 3.58-.993 1.594 0 2.798.722a5.5 5.5 0 0 1 2.015 1.955l.121-2.316h3.189v21.059zm-3.911-8.724q1.143 0 2.016-.602.903-.632 1.384-1.715.511-1.083.511-2.497t-.511-2.497q-.481-1.083-1.384-1.685-.873-.601-2.046-.601-1.203 0-2.136.601-.933.602-1.474 1.685-.511 1.083-.542 2.497.031 1.414.542 2.497.541 1.083 1.474 1.715a4 4 0 0 0 2.166.602m15.762 3.068q-1.775 0-3.068-.722-1.264-.721-1.956-2.256t-.692-3.941v-8.484h3.37v7.702q0 1.774.421 2.767.422.993 1.143 1.384.753.391 1.715.391 1.715.03 2.648-1.113.932-1.143.932-3.279v-7.852h3.34v15.042h-3.159l-.151-2.136a5.1 5.1 0 0 1-1.895 1.865q-1.143.632-2.648.632m11.356-.361v-15.042h3.339v15.042zm1.684-17.9a2 2 0 0 1-1.414-.572 2 2 0 0 1-.571-1.414q0-.812.571-1.384a2 2 0 0 1 1.414-.571q.813 0 1.384.571.602.572.602 1.384 0 .813-.602 1.414a1.9 1.9 0 0 1-1.384.572m9.778 17.9-6.228-15.042h3.46l4.452 11.191 4.423-11.191h3.49l-6.198 15.042zm15.683.361q-2.707 0-4.212-1.203-1.474-1.204-1.474-3.4 0-2.346 1.565-3.58 1.595-1.233 4.422-1.233h3.821q-.18-1.655-.933-2.527-.751-.873-2.226-.873-1.083 0-1.896.451-.812.452-1.383 1.414l-2.949-1.083a7.5 7.5 0 0 1 1.264-1.835q.811-.873 2.016-1.384 1.233-.511 2.948-.511 2.196 0 3.67.872 1.475.843 2.166 2.437.723 1.595.722 3.851l-.09 8.243h-3.099l-.09-1.835a4.1 4.1 0 0 1-1.685 1.625q-1.053.571-2.557.571m.421-2.828q1.113 0 1.956-.481a3.44 3.44 0 0 0 1.324-1.354q.48-.842.481-1.865v-.301h-2.798q-2.015 0-2.828.572-.812.541-.812 1.564 0 .873.692 1.384.722.481 1.985.481m10.061 2.467v-21.059h3.369v21.059zm13.367.361q-2.196 0-3.911-.993a7.5 7.5 0 0 1-2.678-2.797q-.962-1.776-.962-4.092t.992-4.092a7.2 7.2 0 0 1 2.708-2.767q1.745-1.023 3.971-1.023 2.015 0 3.641 1.053 1.624 1.023 2.557 2.978.962 1.956.962 4.663h-11.342q.151 1.896 1.384 2.979 1.264 1.083 2.979 1.083 1.384 0 2.286-.602a4.4 4.4 0 0 0 1.414-1.625l2.979 1.264a7.6 7.6 0 0 1-1.625 2.106q-.963.903-2.317 1.384-1.323.481-3.038.481m-3.851-9.657h7.491q-.09-1.083-.632-1.775a3.45 3.45 0 0 0-1.323-1.083 3.9 3.9 0 0 0-1.655-.361q-.843 0-1.715.361a3.56 3.56 0 0 0-1.444 1.053q-.602.722-.722 1.805m13.261 9.296v-15.042h3.158l.151 2.136q.722-1.203 1.865-1.835 1.173-.663 2.678-.662 1.805 0 3.068.722 1.294.721 1.956 2.256.692 1.505.692 3.941v8.484h-3.37v-7.702q0-1.805-.421-2.767-.392-.993-1.143-1.384-.722-.391-1.715-.391-1.685-.03-2.617 1.113-.933 1.143-.933 3.279v7.852zm22.516.361q-2.376 0-3.64-1.173-1.233-1.204-1.233-3.43v-7.912h-2.498v-2.888h2.498v-4.693h3.339v4.693h4.061v2.888h-4.061v7.28q0 1.053.481 1.595.512.541 1.474.541.302 0 .662-.12.362-.12.813-.451l1.233 2.557a6.5 6.5 0 0 1-1.564.812 4.3 4.3 0 0 1-1.565.301m18.134 0q-2.045 0-3.58-.963-1.505-.992-2.376-2.767-.843-1.776-.843-4.152 0-2.407.843-4.152.872-1.775 2.376-2.737 1.535-.993 3.58-.993 1.565 0 2.768.692 1.203.662 1.986 1.895v-8.243h3.339v21.059h-3.189l-.12-2.286a5.3 5.3 0 0 1-1.986 1.955q-1.203.692-2.798.692m.843-3.068q1.113 0 1.985-.572a4 4 0 0 0 1.354-1.625q.512-1.053.572-2.406v-.422q-.06-1.353-.572-2.376-.481-1.053-1.354-1.625-.872-.571-2.015-.571-1.204 0-2.166.601-.933.602-1.475 1.685-.511 1.083-.511 2.497t.541 2.497 1.475 1.715a4 4 0 0 0 2.166.602m17.233 3.068q-2.197 0-3.911-.993a7.5 7.5 0 0 1-2.678-2.797q-.963-1.776-.963-4.092t.993-4.092a7.2 7.2 0 0 1 2.708-2.767q1.745-1.023 3.971-1.023 2.016 0 3.64 1.053 1.625 1.023 2.557 2.978.963 1.956.963 4.663h-11.342q.15 1.896 1.384 2.979 1.263 1.083 2.978 1.083 1.384 0 2.287-.602a4.4 4.4 0 0 0 1.414-1.625l2.978 1.264a7.6 7.6 0 0 1-1.624 2.106q-.963.903-2.317 1.384-1.323.481-3.038.481m-3.851-9.657h7.491q-.09-1.083-.632-1.775a3.44 3.44 0 0 0-1.324-1.083 3.9 3.9 0 0 0-1.654-.361q-.843 0-1.715.361a3.55 3.55 0 0 0-1.444 1.053q-.602.722-.722 1.805m20.065 9.296v-21.059h3.37v21.059zm11.502.361q-2.707 0-4.212-1.203-1.474-1.204-1.474-3.4 0-2.346 1.565-3.58 1.594-1.233 4.422-1.233h3.821q-.18-1.655-.933-2.527-.751-.873-2.226-.873-1.083 0-1.895.451-.813.452-1.384 1.414l-2.949-1.083a7.5 7.5 0 0 1 1.264-1.835q.812-.873 2.016-1.384 1.233-.511 2.948-.511 2.197 0 3.67.872 1.474.843 2.166 2.437.723 1.595.722 3.851l-.09 8.243h-3.099l-.09-1.835a4.1 4.1 0 0 1-1.685 1.625q-1.053.571-2.557.571m.421-2.828q1.114 0 1.956-.481a3.43 3.43 0 0 0 1.324-1.354 3.7 3.7 0 0 0 .481-1.865v-.301h-2.798q-2.016 0-2.828.572-.812.541-.812 1.564 0 .873.692 1.384.722.481 1.985.481m23.906 2.828q-2.316 0-4.092-.993a7.5 7.5 0 0 1-2.797-2.797q-.993-1.776-.993-4.092t.993-4.092a7.33 7.33 0 0 1 2.767-2.767q1.775-1.023 4.062-1.023 2.226 0 4.031 1.083 1.806 1.053 2.678 3.038l-3.129 1.204a3.76 3.76 0 0 0-1.474-1.595q-.993-.601-2.257-.601-1.233 0-2.196.631-.963.602-1.504 1.685-.542 1.053-.542 2.437t.542 2.467a4.6 4.6 0 0 0 1.534 1.685q.993.601 2.226.601 1.264 0 2.257-.631a4 4 0 0 0 1.474-1.775l3.129 1.203q-.872 2.046-2.678 3.189-1.775 1.143-4.031 1.143m15.792 0q-2.256 0-4.031-.993a7.34 7.34 0 0 1-2.738-2.797q-.993-1.776-.992-4.092 0-2.316.962-4.092a7.13 7.13 0 0 1 2.738-2.767q1.745-1.023 4.001-1.023t4.002 1.023a6.9 6.9 0 0 1 2.707 2.767q.993 1.776.993 4.092t-.963 4.092a7.1 7.1 0 0 1-2.707 2.797q-1.745.993-3.972.993m0-3.099q1.234 0 2.197-.601a4.37 4.37 0 0 0 1.504-1.685q.541-1.083.541-2.497t-.571-2.467q-.542-1.083-1.504-1.685-.963-.631-2.227-.631t-2.226.601-1.504 1.685-.542 2.497.542 2.497a4.6 4.6 0 0 0 1.534 1.685q.993.601 2.256.601m10.11 2.738v-15.042h3.159l.151 2.136q.722-1.203 1.865-1.835 1.173-.663 2.677-.662 1.806 0 3.069.722 1.293.721 1.956 2.256.691 1.505.691 3.941v8.484h-3.369v-7.702q0-1.805-.421-2.767-.392-.993-1.143-1.384-.723-.391-1.715-.391-1.685-.03-2.618 1.113t-.932 3.279v7.852zm22.005.361q-1.503 0-2.767-.451t-2.166-1.264a5.8 5.8 0 0 1-1.384-1.955l2.918-1.294q.451.843 1.324 1.414a3.64 3.64 0 0 0 1.985.572q1.173 0 1.865-.391.723-.421.723-1.144 0-.692-.542-1.052-.541-.392-1.534-.632l-1.414-.391q-2.136-.542-3.34-1.715-1.203-1.203-1.203-2.738 0-2.256 1.444-3.49 1.474-1.233 4.212-1.233 1.383 0 2.527.421a5.7 5.7 0 0 1 2.016 1.143 3.84 3.84 0 0 1 1.173 1.715l-2.798 1.264q-.301-.753-1.143-1.144a4.1 4.1 0 0 0-1.865-.421q-1.023 0-1.595.451-.572.421-.572 1.204 0 .451.512.842.511.361 1.474.602l1.775.421q1.474.361 2.407 1.143.933.752 1.384 1.715a4.3 4.3 0 0 1 .451 1.895q0 1.354-.782 2.377-.753 1.023-2.076 1.595-1.324.541-3.009.541m15.007 0q-2.256 0-4.031-.993a7.33 7.33 0 0 1-2.738-2.797q-.993-1.776-.993-4.092t.963-4.092a7.1 7.1 0 0 1 2.738-2.767q1.745-1.023 4.001-1.023t4.001 1.023a6.9 6.9 0 0 1 2.708 2.767q.993 1.776.993 4.092t-.963 4.092a7.1 7.1 0 0 1-2.708 2.797q-1.745.993-3.971.993m0-3.099q1.233 0 2.196-.601a4.36 4.36 0 0 0 1.504-1.685q.543-1.083.542-2.497 0-1.414-.572-2.467-.541-1.083-1.504-1.685-.963-.631-2.226-.631-1.264 0-2.226.601-.963.602-1.505 1.685t-.541 2.497.541 2.497a4.6 4.6 0 0 0 1.535 1.685q.993.601 2.256.601m10.11 2.738v-15.042h3.159l.15 2.015q.692-1.173 1.775-1.775 1.084-.601 2.467-.601 1.805 0 3.069.812 1.263.813 1.835 2.467.662-1.594 1.865-2.437t2.828-.842q2.618 0 4.032 1.685 1.414 1.654 1.383 5.114v8.604h-3.339v-7.702q0-1.805-.391-2.767-.392-.993-1.053-1.384-.662-.391-1.534-.391-1.565-.03-2.437 1.113-.843 1.143-.843 3.279v7.852h-3.369v-7.702q0-1.805-.391-2.767-.361-.993-1.023-1.384t-1.534-.391q-1.565-.03-2.437 1.113-.843 1.143-.843 3.279v7.852zm25.549 0v-15.042h3.159l.151 2.015q.692-1.173 1.775-1.775t2.467-.601q1.805 0 3.068.812t1.835 2.467q.662-1.594 1.866-2.437 1.203-.842 2.828-.842 2.616 0 4.031 1.685 1.414 1.654 1.384 5.114v8.604h-3.34v-7.702q0-1.805-.391-2.767-.39-.993-1.053-1.384-.661-.391-1.534-.391-1.564-.03-2.437 1.113-.842 1.143-.842 3.279v7.852h-3.37v-7.702q0-1.805-.391-2.767-.36-.993-1.023-1.384-.661-.391-1.534-.391-1.564-.03-2.437 1.113-.842 1.143-.842 3.279v7.852zm30.393.361q-2.708 0-4.212-1.203-1.474-1.204-1.474-3.4 0-2.346 1.565-3.58 1.594-1.233 4.422-1.233h3.821q-.18-1.655-.933-2.527-.751-.873-2.226-.873-1.083 0-1.895.451-.813.452-1.384 1.414l-2.949-1.083a7.5 7.5 0 0 1 1.264-1.835q.812-.873 2.016-1.384 1.233-.511 2.948-.511 2.197 0 3.67.872 1.474.843 2.166 2.437.723 1.595.722 3.851l-.09 8.243h-3.098l-.091-1.835a4.1 4.1 0 0 1-1.684 1.625q-1.053.571-2.558.571m.421-2.828q1.114 0 1.956-.481a3.43 3.43 0 0 0 1.324-1.354 3.7 3.7 0 0 0 .481-1.865v-.301h-2.798q-2.016 0-2.828.572-.812.541-.812 1.564 0 .873.692 1.384.722.481 1.985.481m16.048 2.828q-2.377 0-3.64-1.173-1.234-1.204-1.234-3.43v-7.912h-2.497v-2.888h2.497v-4.693h3.339v4.693h4.062v2.888h-4.062v7.28q0 1.053.482 1.595.511.541 1.474.541.301 0 .662-.12t.812-.451l1.234 2.557a6.5 6.5 0 0 1-1.565.812 4.3 4.3 0 0 1-1.564.301m5.583-.361v-15.042h3.339v15.042zm1.684-17.9a2 2 0 0 1-1.414-.572 2 2 0 0 1-.571-1.414q0-.812.571-1.384a2 2 0 0 1 1.414-.571q.813 0 1.384.571.602.572.602 1.384 0 .813-.602 1.414a1.9 1.9 0 0 1-1.384.572m12.094 18.261q-2.256 0-4.031-.993a7.33 7.33 0 0 1-2.738-2.797q-.993-1.776-.993-4.092t.963-4.092a7.1 7.1 0 0 1 2.738-2.767q1.745-1.023 4.001-1.023t4.001 1.023a6.9 6.9 0 0 1 2.708 2.767q.993 1.776.993 4.092t-.963 4.092a7.1 7.1 0 0 1-2.708 2.797q-1.745.993-3.971.993m0-3.099q1.233 0 2.196-.601a4.36 4.36 0 0 0 1.504-1.685q.542-1.083.542-2.497t-.572-2.467q-.541-1.083-1.504-1.685-.963-.631-2.226-.631-1.264 0-2.226.601-.963.602-1.505 1.685t-.541 2.497.541 2.497a4.6 4.6 0 0 0 1.535 1.685q.993.601 2.256.601m10.11 2.738v-15.042h3.159l.15 2.136q.722-1.203 1.865-1.835 1.174-.663 2.678-.662 1.804 0 3.069.722 1.293.721 1.955 2.256.692 1.505.692 3.941v8.484h-3.369v-7.702q0-1.805-.422-2.767-.39-.993-1.143-1.384-.722-.391-1.715-.391-1.684-.03-2.617 1.113t-.933 3.279v7.852zM51.836 568.978q-2.708 0-4.212-1.203-1.474-1.204-1.474-3.4 0-2.346 1.564-3.58 1.594-1.233 4.423-1.233h3.82q-.18-1.655-.932-2.527-.753-.873-2.226-.873-1.083 0-1.896.451-.812.452-1.384 1.414l-2.948-1.083a7.5 7.5 0 0 1 1.264-1.835q.812-.873 2.015-1.384 1.234-.511 2.949-.511 2.196 0 3.67.872 1.474.843 2.166 2.437.722 1.595.722 3.851l-.09 8.243h-3.099l-.09-1.835a4.1 4.1 0 0 1-1.685 1.625q-1.053.571-2.557.571m.421-2.828q1.113 0 1.956-.481a3.43 3.43 0 0 0 1.323-1.354q.482-.842.482-1.865v-.301H53.22q-2.016 0-2.828.572-.812.541-.812 1.564 0 .873.691 1.384.723.481 1.986.481m10.06 2.467v-15.042h3.16l.15 2.136q.722-1.203 1.865-1.835 1.173-.663 2.678-.662 1.805 0 3.068.722 1.294.721 1.956 2.256.692 1.505.692 3.941v8.484h-3.37v-7.702q0-1.805-.421-2.767-.39-.993-1.143-1.384-.722-.391-1.715-.391-1.685-.03-2.617 1.113-.933 1.143-.933 3.279v7.852zm16.53 0v-15.042h3.16l.15 2.136q.722-1.203 1.865-1.835 1.173-.663 2.677-.662 1.806 0 3.07.722 1.292.721 1.955 2.256.691 1.505.692 3.941v8.484h-3.37v-7.702q0-1.805-.421-2.767-.39-.993-1.143-1.384-.722-.391-1.715-.391-1.685-.03-2.618 1.113t-.932 3.279v7.852zm21.915.361q-1.775 0-3.068-.722-1.265-.721-1.956-2.256t-.692-3.941v-8.484h3.37v7.702q0 1.774.42 2.767.423.993 1.144 1.384.752.391 1.715.391 1.715.03 2.647-1.113.933-1.143.933-3.279v-7.852h3.339v15.042h-3.158l-.151-2.136a5.1 5.1 0 0 1-1.895 1.865q-1.143.632-2.648.632m17.854 0q-2.196 0-3.911-.993a7.5 7.5 0 0 1-2.678-2.797q-.962-1.776-.962-4.092t.992-4.092a7.2 7.2 0 0 1 2.708-2.767q1.745-1.023 3.971-1.023 2.016 0 3.64 1.053 1.626 1.023 2.558 2.978.962 1.956.962 4.663h-11.342q.151 1.896 1.384 2.979 1.265 1.083 2.979 1.083 1.383 0 2.286-.602a4.4 4.4 0 0 0 1.414-1.625l2.979 1.264a7.6 7.6 0 0 1-1.625 2.106q-.963.903-2.317 1.384-1.323.481-3.038.481m-3.851-9.657h7.491q-.09-1.083-.632-1.775a3.45 3.45 0 0 0-1.323-1.083 3.9 3.9 0 0 0-1.655-.361q-.843 0-1.715.361a3.56 3.56 0 0 0-1.444 1.053q-.602.722-.722 1.805m13.261 9.296v-21.059h3.369v21.059zm6.658 0v-21.059h3.369v21.059zm13.367.361q-2.196 0-3.911-.993a7.5 7.5 0 0 1-2.678-2.797q-.962-1.776-.962-4.092t.992-4.092a7.2 7.2 0 0 1 2.708-2.767q1.745-1.023 3.971-1.023 2.016 0 3.641 1.053 1.624 1.023 2.557 2.978.962 1.956.962 4.663H143.99q.15 1.896 1.383 2.979 1.264 1.083 2.979 1.083 1.384 0 2.286-.602a4.4 4.4 0 0 0 1.414-1.625l2.979 1.264a7.6 7.6 0 0 1-1.625 2.106q-.963.903-2.316 1.384-1.325.481-3.039.481m-3.851-9.657h7.491q-.09-1.083-.632-1.775a3.45 3.45 0 0 0-1.323-1.083 3.9 3.9 0 0 0-1.655-.361q-.843 0-1.715.361a3.56 3.56 0 0 0-1.444 1.053q-.602.722-.722 1.805m26.023 9.657q-2.046 0-3.581-.963-1.504-.992-2.376-2.767-.843-1.776-.843-4.152 0-2.407.843-4.152.872-1.775 2.376-2.737 1.535-.993 3.581-.993 1.564 0 2.767.692 1.204.662 1.986 1.895v-8.243h3.339v21.059h-3.189l-.12-2.286a5.3 5.3 0 0 1-1.986 1.955q-1.203.692-2.797.692m.842-3.068q1.113 0 1.986-.572a4 4 0 0 0 1.353-1.625q.512-1.053.572-2.406v-.422q-.06-1.353-.572-2.376-.481-1.053-1.353-1.625-.873-.571-2.016-.571-1.203 0-2.166.601-.933.602-1.474 1.685-.512 1.083-.512 2.497t.542 2.497q.541 1.083 1.474 1.715a4 4 0 0 0 2.166.602m9.08-11.523 1.805-6.829h3.55l-2.708 6.829zm13.842 14.591q-2.197 0-3.912-.993a7.5 7.5 0 0 1-2.677-2.797q-.963-1.776-.963-4.092t.993-4.092a7.2 7.2 0 0 1 2.708-2.767q1.745-1.023 3.971-1.023 2.016 0 3.64 1.053 1.625 1.023 2.557 2.978.963 1.956.963 4.663h-11.342q.15 1.896 1.384 2.979 1.263 1.083 2.978 1.083 1.384 0 2.287-.602a4.4 4.4 0 0 0 1.414-1.625l2.978 1.264a7.6 7.6 0 0 1-1.624 2.106q-.963.903-2.317 1.384-1.323.481-3.038.481m-3.851-9.657h7.491q-.09-1.083-.632-1.775a3.44 3.44 0 0 0-1.324-1.083 3.9 3.9 0 0 0-1.654-.361q-.843 0-1.715.361a3.55 3.55 0 0 0-1.444 1.053q-.602.722-.722 1.805m18.104 9.657q-2.707 0-4.212-1.203-1.474-1.204-1.474-3.4 0-2.346 1.564-3.58 1.594-1.233 4.423-1.233h3.82q-.18-1.655-.932-2.527-.753-.873-2.227-.873-1.083 0-1.895.451-.812.452-1.384 1.414l-2.948-1.083a7.5 7.5 0 0 1 1.263-1.835q.813-.873 2.016-1.384 1.233-.511 2.948-.511 2.197 0 3.671.872 1.475.843 2.166 2.437.722 1.595.722 3.851l-.09 8.243h-3.099l-.09-1.835a4.1 4.1 0 0 1-1.685 1.625q-1.053.571-2.557.571m.421-2.828q1.113 0 1.955-.481a3.43 3.43 0 0 0 1.324-1.354 3.7 3.7 0 0 0 .482-1.865v-.301h-2.798q-2.016 0-2.828.572-.813.541-.813 1.564 0 .873.692 1.384.723.481 1.986.481m15.446 2.828q-1.776 0-3.069-.722-1.263-.721-1.956-2.256-.692-1.535-.692-3.941v-8.484h3.37v7.702q0 1.774.421 2.767.422.993 1.143 1.384.752.391 1.715.391 1.715.03 2.648-1.113.932-1.143.932-3.279v-7.852h3.34v15.042H228.8l-.151-2.136a5.1 5.1 0 0 1-1.895 1.865q-1.143.632-2.647.632m23.906 0q-2.046 0-3.58-.963-1.504-.992-2.377-2.767-.842-1.776-.842-4.152 0-2.407.842-4.152.873-1.775 2.377-2.737 1.534-.993 3.58-.993 1.565 0 2.768.692 1.203.662 1.986 1.895v-8.243h3.339v21.059h-3.189l-.12-2.286a5.3 5.3 0 0 1-1.986 1.955q-1.203.692-2.798.692m.843-3.068q1.113 0 1.985-.572a4 4 0 0 0 1.354-1.625q.511-1.053.572-2.406v-.422q-.061-1.353-.572-2.376-.481-1.053-1.354-1.625-.871-.571-2.016-.571-1.203 0-2.166.601-.932.602-1.474 1.685-.511 1.083-.511 2.497t.541 2.497q.542 1.083 1.474 1.715a4 4 0 0 0 2.167.602m17.443 3.068q-2.256 0-4.031-.993a7.33 7.33 0 0 1-2.738-2.797q-.993-1.776-.993-4.092t.963-4.092a7.1 7.1 0 0 1 2.738-2.767q1.745-1.023 4.001-1.023t4.001 1.023a6.9 6.9 0 0 1 2.708 2.767q.993 1.776.993 4.092t-.963 4.092a7.1 7.1 0 0 1-2.708 2.797q-1.745.993-3.971.993m0-3.099q1.233 0 2.196-.601a4.36 4.36 0 0 0 1.504-1.685q.542-1.083.542-2.497t-.572-2.467q-.541-1.083-1.504-1.685-.963-.631-2.226-.631-1.264 0-2.226.601-.963.602-1.505 1.685t-.541 2.497.541 2.497a4.6 4.6 0 0 0 1.535 1.685q.992.601 2.256.601m10.11 2.738v-15.042h3.159l.15 2.015q.692-1.173 1.775-1.775t2.467-.601q1.804 0 3.069.812 1.263.813 1.835 2.467.662-1.594 1.865-2.437t2.828-.842q2.618 0 4.031 1.685 1.414 1.654 1.384 5.114v8.604h-3.339v-7.702q0-1.805-.391-2.767-.392-.993-1.053-1.384-.662-.391-1.534-.391-1.565-.03-2.437 1.113-.843 1.143-.843 3.279v7.852h-3.369v-7.702q0-1.805-.391-2.767-.361-.993-1.023-1.384t-1.534-.391q-1.565-.03-2.437 1.113-.843 1.143-.843 3.279v7.852zm32.258.361q-2.196 0-3.911-.993a7.5 7.5 0 0 1-2.677-2.797q-.963-1.776-.963-4.092t.993-4.092a7.2 7.2 0 0 1 2.707-2.767q1.745-1.023 3.971-1.023 2.016 0 3.641 1.053 1.624 1.023 2.557 2.978.963 1.956.963 4.663h-11.342q.15 1.896 1.384 2.979 1.263 1.083 2.978 1.083 1.384 0 2.286-.602a4.4 4.4 0 0 0 1.414-1.625l2.979 1.264a7.6 7.6 0 0 1-1.625 2.106q-.963.903-2.316 1.384-1.325.481-3.039.481m-3.851-9.657h7.491q-.09-1.083-.631-1.775a3.45 3.45 0 0 0-1.324-1.083 3.9 3.9 0 0 0-1.655-.361q-.842 0-1.715.361a3.56 3.56 0 0 0-1.444 1.053q-.602.722-.722 1.805m18.736 9.657q-1.504 0-2.768-.451t-2.166-1.264a5.8 5.8 0 0 1-1.384-1.955l2.919-1.294q.45.843 1.323 1.414a3.64 3.64 0 0 0 1.986.572q1.173 0 1.865-.391.723-.421.722-1.144 0-.692-.541-1.052-.542-.392-1.535-.632l-1.414-.391q-2.136-.542-3.339-1.715-1.203-1.203-1.203-2.738 0-2.256 1.444-3.49 1.473-1.233 4.211-1.233 1.384 0 2.528.421a5.7 5.7 0 0 1 2.015 1.143 3.83 3.83 0 0 1 1.174 1.715l-2.798 1.264q-.301-.753-1.144-1.144a4.1 4.1 0 0 0-1.865-.421q-1.023 0-1.594.451-.572.421-.572 1.204 0 .451.512.842.511.361 1.474.602l1.775.421q1.474.361 2.407 1.143.932.752 1.383 1.715a4.3 4.3 0 0 1 .452 1.895q0 1.354-.783 2.377-.752 1.023-2.075 1.595-1.325.541-3.009.541m14.074 0q-2.376 0-3.64-1.173-1.234-1.204-1.234-3.43v-7.912h-2.497v-2.888h2.497v-4.693h3.34v4.693h4.061v2.888h-4.061v7.28q0 1.053.481 1.595.511.541 1.474.541.301 0 .662-.12t.812-.451l1.234 2.557a6.5 6.5 0 0 1-1.565.812 4.3 4.3 0 0 1-1.564.301m5.583-.361v-15.042h3.339v15.042zm1.685-17.9a2 2 0 0 1-1.414-.572 2 2 0 0 1-.572-1.414q0-.812.572-1.384a2 2 0 0 1 1.414-.571q.812 0 1.383.571.602.572.602 1.384 0 .813-.602 1.414a1.88 1.88 0 0 1-1.383.572m15.884 23.917v-8.243a5.44 5.44 0 0 1-1.986 1.895q-1.203.692-2.767.692-2.046 0-3.581-.963-1.504-.992-2.376-2.767-.843-1.776-.843-4.152 0-2.407.843-4.152.872-1.775 2.376-2.737 1.535-.993 3.581-.993 1.594 0 2.797.722a5.5 5.5 0 0 1 2.016 1.955l.12-2.316h3.189v21.059zm-3.911-8.724q1.143 0 2.016-.602.902-.632 1.384-1.715.511-1.083.511-2.497t-.511-2.497q-.482-1.083-1.384-1.685-.873-.601-2.046-.601-1.203 0-2.136.601-.933.602-1.474 1.685-.512 1.083-.542 2.497.03 1.414.542 2.497.541 1.083 1.474 1.715a4 4 0 0 0 2.166.602m15.762 3.068q-1.775 0-3.068-.722-1.264-.721-1.956-2.256t-.692-3.941v-8.484h3.37v7.702q0 1.774.421 2.767t1.143 1.384q.752.391 1.715.391 1.714.03 2.647-1.113t.933-3.279v-7.852h3.339v15.042h-3.159l-.15-2.136a5.1 5.1 0 0 1-1.895 1.865q-1.144.632-2.648.632m17.854 0q-2.196 0-3.911-.993a7.5 7.5 0 0 1-2.678-2.797q-.963-1.776-.963-4.092t.993-4.092a7.2 7.2 0 0 1 2.708-2.767q1.745-1.023 3.971-1.023 2.016 0 3.64 1.053 1.625 1.023 2.558 2.978.962 1.956.962 4.663h-11.342q.151 1.896 1.384 2.979 1.264 1.083 2.979 1.083 1.383 0 2.286-.602a4.4 4.4 0 0 0 1.414-1.625l2.978 1.264a7.6 7.6 0 0 1-1.624 2.106q-.963.903-2.317 1.384-1.323.481-3.038.481m-3.851-9.657h7.491q-.09-1.083-.632-1.775a3.44 3.44 0 0 0-1.324-1.083 3.9 3.9 0 0 0-1.654-.361q-.843 0-1.715.361a3.55 3.55 0 0 0-1.444 1.053q-.602.722-.722 1.805m26.022 9.657q-2.046 0-3.58-.963-1.505-.992-2.376-2.767-.843-1.776-.843-4.152 0-2.407.843-4.152.872-1.775 2.376-2.737 1.534-.993 3.58-.993 1.565 0 2.768.692 1.203.662 1.986 1.895v-8.243h3.339v21.059h-3.189l-.12-2.286a5.3 5.3 0 0 1-1.986 1.955q-1.203.692-2.798.692m.843-3.068q1.113 0 1.985-.572a4 4 0 0 0 1.354-1.625q.512-1.053.572-2.406v-.422q-.06-1.353-.572-2.376-.481-1.053-1.354-1.625-.872-.571-2.015-.571-1.204 0-2.166.601-.933.602-1.475 1.685-.511 1.083-.511 2.497t.541 2.497 1.475 1.715a4 4 0 0 0 2.166.602m17.233 3.068q-2.197 0-3.911-.993a7.5 7.5 0 0 1-2.678-2.797q-.963-1.776-.963-4.092t.993-4.092a7.2 7.2 0 0 1 2.708-2.767q1.745-1.023 3.971-1.023 2.016 0 3.64 1.053 1.625 1.023 2.557 2.978.963 1.956.963 4.663h-11.342q.15 1.896 1.384 2.979 1.263 1.083 2.978 1.083 1.384 0 2.287-.602a4.4 4.4 0 0 0 1.414-1.625l2.978 1.264a7.6 7.6 0 0 1-1.624 2.106q-.963.903-2.317 1.384-1.323.481-3.038.481m-3.851-9.657h7.491q-.09-1.083-.632-1.775a3.44 3.44 0 0 0-1.324-1.083 3.9 3.9 0 0 0-1.654-.361q-.843 0-1.715.361a3.55 3.55 0 0 0-1.444 1.053q-.602.722-.722 1.805m-362.59 88.625q-4.551 0-7.755-1.602a14.8 14.8 0 0 1-5.19-4.55q-1.988-2.884-2.949-6.665-.897-3.845-.897-8.267 0-5.127 1.09-9.677 1.089-4.614 3.268-8.139 2.242-3.525 5.704-5.511 3.46-1.987 8.33-1.987 3.525 0 6.858 1.026 3.397 1.025 6.088 2.947l-4.358 6.409a13.7 13.7 0 0 0-4.293-2.051q-2.243-.64-4.166-.641-4.935 0-7.755 4.358t-2.691 13.779l-1.73-1.218q1.473-3.525 4.55-5.639t7.305-2.115q4.294 0 7.563 1.986 3.332 1.988 5.19 5.448 1.923 3.396 1.923 7.626 0 4.165-1.986 7.498-1.987 3.269-5.64 5.127-3.589 1.858-8.46 1.858m0-7.434q2.115 0 3.78-.961a7.06 7.06 0 0 0 2.628-2.627q.962-1.667.962-3.846 0-2.178-.962-3.845a6.9 6.9 0 0 0-2.627-2.691q-1.666-1.026-3.781-1.026t-3.846 1.026a6.9 6.9 0 0 0-2.627 2.691q-.96 1.667-.961 3.845 0 2.18.96 3.846a7.06 7.06 0 0 0 2.629 2.627q1.73.961 3.845.961m46.415 7.434q-5.768 0-8.972-2.563-3.14-2.563-3.14-7.242 0-5.127 3.396-7.69 3.46-2.628 9.677-2.628h7.562q-.448-2.947-1.858-4.486-1.41-1.602-4.038-1.602-2.05 0-3.717.897-1.666.898-2.82 2.756l-7.433-2.563q.897-2.052 2.627-3.974 1.73-1.986 4.486-3.204 2.82-1.282 6.857-1.282 4.87 0 8.075 1.859 3.269 1.858 4.806 5.255 1.603 3.332 1.539 7.946l-.193 17.752h-7.882l-.128-3.717a8.14 8.14 0 0 1-3.461 3.333q-2.18 1.153-5.383 1.153m1.41-7.049q2.05 0 3.717-.961 1.665-.961 2.627-2.5.961-1.538.961-3.204v-.128h-4.806q-4.166 0-5.768 1.025-1.602.962-1.602 2.756 0 1.41 1.282 2.243 1.281.769 3.589.769m-.834-29.736-8.395-8.908h9.485l7.434 8.908zm46.111 36.016V613.34a21.8 21.8 0 0 1-4.614 2.435 12.6 12.6 0 0 1-4.871.705v-7.946q1.602.128 3.461-.77a21 21 0 0 0 3.653-2.435 48 48 0 0 0 3.332-3.012h7.434v44.86zm34.851.769q-5.446 0-9.613-2.948-4.165-3.012-6.536-8.203-2.371-5.255-2.371-12.048t2.371-11.984q2.371-5.254 6.472-8.203 4.166-3.012 9.613-3.012 5.448 0 9.613 3.012 4.23 2.949 6.601 8.203 2.371 5.191 2.371 11.984t-2.371 12.048q-2.372 5.191-6.537 8.203-4.165 2.949-9.613 2.948m0-7.946q2.885 0 5.127-1.923 2.308-1.986 3.589-5.383 1.282-3.46 1.282-7.947 0-4.485-1.282-7.946t-3.589-5.384q-2.242-1.986-5.191-1.986-2.883 0-5.127 1.986-2.243 1.923-3.524 5.384-1.218 3.46-1.218 7.946 0 4.487 1.218 7.947 1.281 3.396 3.524 5.383 2.308 1.923 5.191 1.923m38.812 7.177v-32.043H239l.384 4.166q1.474-2.436 3.782-3.653 2.307-1.282 5.126-1.282 3.91 0 6.537 1.667 2.692 1.665 3.909 5.126 1.41-3.268 3.974-4.998 2.563-1.795 5.96-1.795 5.639 0 8.587 3.589 2.948 3.524 2.948 10.895v18.328h-8.459v-16.406q0-3.268-.705-5.062t-1.923-2.564q-1.217-.833-2.884-.833-3.075-.065-4.742 1.987-1.666 2.05-1.666 6.088v16.79h-8.46v-16.406q0-3.268-.704-5.062-.642-1.795-1.923-2.564-1.218-.833-2.884-.833-3.076-.065-4.742 1.987-1.602 2.05-1.602 6.088v16.79zm55.949 0v-32.043h8.459v32.043zm4.229-37.234q-1.922 0-3.396-1.409-1.474-1.475-1.474-3.461 0-1.987 1.474-3.397 1.474-1.473 3.396-1.474 1.987 0 3.397 1.474 1.474 1.41 1.474 3.397t-1.474 3.461q-1.41 1.409-3.397 1.409m11.579 37.234v-44.86h8.459v44.86zm15.319 0v-44.86h8.46v44.86zm15.833 0v-32.043h8.459v32.043zm4.229-37.234q-1.923 0-3.396-1.409-1.474-1.475-1.474-3.461 0-1.987 1.474-3.397 1.473-1.473 3.396-1.474 1.987 0 3.397 1.474 1.474 1.41 1.474 3.397t-1.474 3.461q-1.41 1.409-3.397 1.409m26.639 38.003q-4.87 0-8.716-2.115a15.96 15.96 0 0 1-5.96-5.96q-2.115-3.78-2.115-8.715t2.115-8.716a15.05 15.05 0 0 1 5.896-5.896q3.781-2.178 8.652-2.179 4.934 0 8.715 2.179a15.05 15.05 0 0 1 5.896 5.896q2.115 3.781 2.115 8.716t-2.115 8.715q-2.115 3.782-5.896 5.96-3.717 2.115-8.587 2.115m0-7.818q2.371 0 4.165-1.154t2.756-3.14q1.025-2.051 1.025-4.678 0-2.628-1.025-4.614-1.025-2.052-2.884-3.205-1.794-1.153-4.165-1.153-2.307 0-4.166 1.153-1.794 1.153-2.82 3.205-1.025 1.986-1.025 4.614 0 2.627 1.025 4.678a7.87 7.87 0 0 0 2.884 3.14q1.858 1.154 4.23 1.154m21.725 7.049v-32.043h7.947l.385 4.358q1.537-2.499 3.909-3.781 2.434-1.346 5.511-1.346 3.781 0 6.473 1.538t4.101 4.807q1.41 3.204 1.346 8.331v18.136h-8.459v-16.406q0-3.268-.769-5.062-.705-1.795-2.051-2.564-1.346-.833-3.14-.833-3.269-.065-5.063 1.987-1.73 2.05-1.73 6.088v16.79zm47.957.769q-3.077 0-5.768-.897-2.692-.961-4.742-2.692a12.55 12.55 0 0 1-3.205-4.357l7.242-3.333q.962 1.539 2.627 2.692 1.666 1.089 3.846 1.089 2.114 0 3.268-.577 1.154-.64 1.154-1.794t-.962-1.666q-.897-.577-2.499-.961l-2.948-.769q-4.614-1.218-7.306-3.846-2.628-2.691-2.627-6.152 0-4.935 3.14-7.626 3.204-2.691 9.036-2.692 3.012 0 5.575.898 2.628.897 4.486 2.499 1.859 1.602 2.564 3.717l-6.986 3.204q-.448-1.281-2.178-2.051-1.731-.833-3.461-.833t-2.692.769q-.897.705-.897 1.987 0 .832.897 1.41.897.513 2.564.897l4.165 1.025q3.14.77 4.999 2.5 1.922 1.666 2.756 3.781.897 2.05.897 4.037 0 2.885-1.73 5.127-1.666 2.18-4.615 3.397-2.883 1.217-6.6 1.217m-378.56 50.739q-2.918 0-5.074-1.353-2.115-1.353-3.299-3.848t-1.184-5.878q0-3.424 1.184-5.877 1.185-2.495 3.298-3.848 2.157-1.353 5.075-1.353 2.07 0 3.678.888a6.75 6.75 0 0 1 2.664 2.453v-11.29h5.581v29.598H62.59l-.17-2.96a7.64 7.64 0 0 1-2.705 2.58q-1.65.888-3.764.888m1.437-5.117q1.395 0 2.453-.676 1.099-.719 1.733-1.987.635-1.27.719-2.876v-.845q-.084-1.608-.719-2.833-.634-1.269-1.733-1.945-1.1-.72-2.495-.719-1.523 0-2.706.761-1.141.719-1.819 2.072-.633 1.353-.634 3.086 0 1.734.677 3.087.676 1.353 1.818 2.114 1.184.761 2.706.761m24.4 5.117q-3.13 0-5.54-1.396-2.41-1.437-3.805-3.932-1.353-2.495-1.353-5.751 0-3.255 1.395-5.75 1.438-2.495 3.89-3.89 2.495-1.438 5.709-1.438 2.79 0 5.116 1.48 2.368 1.437 3.763 4.271 1.438 2.79 1.438 6.807H76.926q.212 2.114 1.818 3.383a5.84 5.84 0 0 0 3.637 1.226q1.733 0 2.833-.719a5.1 5.1 0 0 0 1.69-1.945l4.99 1.945a10.5 10.5 0 0 1-2.325 3.087q-1.396 1.269-3.34 1.945-1.945.677-4.44.677m-4.567-13.742h9.133q-.126-1.311-.846-2.115a4.4 4.4 0 0 0-1.69-1.184 5.2 5.2 0 0 0-1.904-.38q-.888 0-1.945.38a4.6 4.6 0 0 0-1.818 1.142q-.76.803-.93 2.157m29.71 13.234v-16.659h-3.51v-4.482h3.51v-2.115q0-3.382 1.733-5.243 1.734-1.903 5.286-1.903 1.226 0 2.579.423 1.395.423 2.537 1.015l-2.072 4.017a8 8 0 0 0-1.226-.507 3.5 3.5 0 0 0-1.015-.169q-1.142 0-1.691.803-.55.76-.55 2.495v1.184h5.201v4.482h-5.201v16.659zm23.474.508q-3.213 0-5.75-1.396a10.5 10.5 0 0 1-3.932-3.932q-1.396-2.495-1.396-5.751 0-3.255 1.396-5.75a9.93 9.93 0 0 1 3.89-3.89q2.495-1.438 5.708-1.438 3.255 0 5.75 1.438a9.93 9.93 0 0 1 3.891 3.89q1.395 2.495 1.395 5.75t-1.395 5.751a10.2 10.2 0 0 1-3.891 3.932q-2.451 1.396-5.666 1.396m0-5.159q1.565 0 2.749-.761a5 5 0 0 0 1.818-2.072q.677-1.353.677-3.087 0-1.733-.677-3.044-.676-1.353-1.903-2.114-1.184-.761-2.748-.761-1.522 0-2.748.761-1.185.76-1.861 2.114-.677 1.311-.677 3.044t.677 3.087a5.2 5.2 0 0 0 1.903 2.072q1.226.76 2.79.761m17.501 13.615q-1.142 0-2.537-.465a12.6 12.6 0 0 1-2.41-1.015l2.072-4.524q.719.38 1.311.592.634.254 1.099.254.888 0 1.565-.508.676-.465 1.099-1.395l.888-2.156-9.556-20.888h6.131l6.004 14.587 5.751-14.587h6.131l-9.599 22.959q-.888 2.115-1.86 3.721-.972 1.65-2.41 2.537-1.396.888-3.679.888m28.578-8.456q-3.129 0-5.539-1.396-2.41-1.437-3.806-3.932-1.353-2.495-1.353-5.751 0-3.255 1.396-5.75 1.437-2.495 3.89-3.89 2.495-1.438 5.708-1.438 2.791 0 5.116 1.48 2.368 1.437 3.764 4.271 1.437 2.79 1.437 6.807h-15.476q.212 2.114 1.819 3.383a5.84 5.84 0 0 0 3.636 1.226q1.734 0 2.833-.719a5.1 5.1 0 0 0 1.691-1.945l4.99 1.945a10.5 10.5 0 0 1-2.326 3.087q-1.395 1.269-3.34 1.945t-4.44.677m-4.567-13.742h9.134q-.127-1.311-.846-2.115a4.4 4.4 0 0 0-1.691-1.184 5.2 5.2 0 0 0-1.903-.38q-.888 0-1.945.38a4.6 4.6 0 0 0-1.818 1.142q-.762.803-.931 2.157m17.972 13.234v-21.141h5.582v3.89q1.31-1.988 3.298-2.96 2.03-1.015 4.186-1.015v5.412q-1.945 0-3.679.465-1.691.465-2.748 1.523-1.057 1.056-1.057 2.706v11.12zm23.477.508q-2.03 0-3.805-.592a10 10 0 0 1-3.129-1.776 8.3 8.3 0 0 1-2.115-2.875l4.778-2.199q.635 1.014 1.734 1.776 1.1.718 2.537.718 1.395 0 2.156-.38.762-.423.762-1.184t-.635-1.099q-.591-.38-1.649-.635l-1.945-.507q-3.044-.803-4.82-2.537-1.734-1.776-1.734-4.059 0-3.256 2.072-5.032 2.115-1.776 5.962-1.776 1.987 0 3.679.592 1.734.592 2.96 1.649t1.691 2.453l-4.609 2.114q-.295-.846-1.438-1.353-1.141-.55-2.283-.55t-1.776.507q-.592.465-.592 1.311 0 .55.592.93.593.339 1.692.592l2.748.677q2.072.507 3.298 1.649 1.269 1.099 1.818 2.495.592 1.353.592 2.664 0 1.903-1.141 3.382-1.1 1.438-3.045 2.241-1.902.804-4.355.804m31.152 0q-3.298 0-5.877-1.396-2.58-1.437-4.017-3.932-1.438-2.536-1.438-5.751 0-3.255 1.438-5.75a10.14 10.14 0 0 1 3.974-3.89q2.538-1.438 5.835-1.438 3.172 0 5.793 1.565t3.806 4.524l-5.243 1.86q-.592-1.225-1.861-1.945-1.226-.76-2.748-.761-1.564 0-2.749.761-1.184.72-1.86 2.03-.677 1.311-.677 3.044t.677 3.045a5.26 5.26 0 0 0 1.903 2.029q1.226.762 2.79.762a4.9 4.9 0 0 0 2.749-.804q1.267-.803 1.86-2.114l5.286 1.86q-1.227 3.002-3.848 4.652-2.58 1.649-5.793 1.649m19.29 0q-3.805 0-5.919-1.692-2.073-1.69-2.072-4.778 0-3.382 2.241-5.074 2.283-1.733 6.385-1.733h4.989q-.296-1.946-1.226-2.96-.93-1.057-2.664-1.057-1.354 0-2.452.592-1.1.591-1.861 1.818l-4.905-1.691q.592-1.353 1.734-2.622 1.142-1.311 2.96-2.114 1.86-.846 4.524-.846 3.213 0 5.328 1.226a7.43 7.43 0 0 1 3.171 3.468q1.057 2.198 1.015 5.243l-.127 11.712h-5.201l-.085-2.452a5.37 5.37 0 0 1-2.283 2.199q-1.437.76-3.552.761m.931-4.652q1.353 0 2.452-.634a4.9 4.9 0 0 0 1.734-1.649q.634-1.014.634-2.114v-.085h-3.171q-2.749 0-3.806.677-1.057.635-1.057 1.818 0 .93.846 1.48.846.507 2.368.507m14.314 4.144v-21.141h5.243l.253 2.875q1.016-1.65 2.58-2.495 1.606-.888 3.636-.888 2.495 0 4.271 1.015t2.706 3.171q.93 2.115.888 5.497v11.966h-5.582v-10.824q0-2.156-.507-3.341-.465-1.184-1.353-1.691-.888-.55-2.072-.55-2.157-.042-3.34 1.311-1.142 1.353-1.142 4.017v11.078zm30.43.508q-3.805 0-5.92-1.692-2.072-1.69-2.072-4.778 0-3.382 2.241-5.074 2.284-1.733 6.385-1.733h4.99q-.296-1.946-1.227-2.96-.93-1.057-2.663-1.057-1.353 0-2.453.592-1.1.591-1.86 1.818L302 682.11q.591-1.353 1.733-2.622 1.142-1.311 2.96-2.114 1.861-.846 4.525-.846 3.213 0 5.327 1.226a7.43 7.43 0 0 1 3.172 3.468q1.057 2.198 1.014 5.243l-.126 11.712h-5.201l-.085-2.452a5.4 5.4 0 0 1-2.283 2.199q-1.438.76-3.552.761m.93-4.652q1.353 0 2.453-.634a4.9 4.9 0 0 0 1.733-1.649q.635-1.014.635-2.114v-.085h-3.172q-2.749 0-3.805.677-1.057.635-1.057 1.818 0 .93.845 1.48.846.507 2.368.507m22.728 4.652q-2.917 0-5.074-1.353-2.113-1.353-3.298-3.848-1.184-2.494-1.184-5.878 0-3.424 1.184-5.877 1.185-2.495 3.298-3.848 2.157-1.353 5.074-1.353 2.073 0 3.679.888a6.74 6.74 0 0 1 2.664 2.453v-11.29h5.581v29.598h-5.285l-.169-2.96a7.64 7.64 0 0 1-2.706 2.58q-1.65.888-3.764.888m1.438-5.117q1.395 0 2.453-.676 1.098-.719 1.733-1.987.635-1.27.719-2.876v-.845q-.084-1.608-.719-2.833-.635-1.269-1.733-1.945-1.1-.72-2.495-.719-1.522 0-2.706.761-1.142.719-1.818 2.072-.635 1.353-.635 3.086 0 1.734.677 3.087.676 1.353 1.818 2.114 1.183.761 2.706.761m15.182 4.609v-21.141h5.581v21.141zm2.791-24.566q-1.269 0-2.241-.931-.973-.972-.973-2.283t.973-2.241q.972-.972 2.241-.972 1.31 0 2.241.972.972.93.972 2.241t-.972 2.283a3.06 3.06 0 0 1-2.241.931m17.041 25.074q-3.129 0-5.539-1.396-2.41-1.437-3.805-3.932-1.353-2.495-1.353-5.751 0-3.255 1.395-5.75 1.437-2.495 3.89-3.89 2.495-1.438 5.708-1.438 2.791 0 5.117 1.48 2.367 1.437 3.763 4.271 1.437 2.79 1.437 6.807h-15.475q.212 2.114 1.818 3.383a5.84 5.84 0 0 0 3.636 1.226q1.734 0 2.833-.719a5.1 5.1 0 0 0 1.692-1.945l4.989 1.945a10.5 10.5 0 0 1-2.326 3.087q-1.395 1.269-3.34 1.945-1.946.677-4.44.677m-4.566-13.742h9.133q-.127-1.311-.846-2.115a4.4 4.4 0 0 0-1.691-1.184 5.2 5.2 0 0 0-1.903-.38q-.888 0-1.945.38a4.6 4.6 0 0 0-1.818 1.142q-.761.803-.93 2.157m17.971 13.234v-21.141h5.244l.253 2.875q1.015-1.65 2.58-2.495 1.607-.888 3.636-.888 2.495 0 4.271 1.015t2.706 3.171q.93 2.115.888 5.497v11.966h-5.582v-10.824q0-2.156-.507-3.341-.465-1.184-1.353-1.691-.888-.55-2.072-.55-2.157-.042-3.34 1.311-1.142 1.353-1.142 4.017v11.078zm31.488.508q-2.03 0-3.805-.592a10 10 0 0 1-3.129-1.776 8.3 8.3 0 0 1-2.115-2.875l4.778-2.199q.634 1.014 1.734 1.776 1.1.718 2.537.718 1.395 0 2.156-.38.762-.423.762-1.184t-.635-1.099q-.591-.38-1.649-.635l-1.945-.507q-3.044-.803-4.82-2.537-1.734-1.776-1.734-4.059 0-3.256 2.072-5.032 2.115-1.776 5.962-1.776 1.987 0 3.679.592 1.733.592 2.96 1.649t1.691 2.453l-4.609 2.114q-.295-.846-1.438-1.353-1.141-.55-2.283-.55t-1.776.507q-.591.465-.592 1.311 0 .55.592.93.592.339 1.692.592l2.748.677q2.072.507 3.298 1.649 1.269 1.099 1.818 2.495.592 1.353.592 2.664 0 1.903-1.141 3.382-1.1 1.438-3.045 2.241-1.902.804-4.355.804m14.171.126q-1.395 0-2.41-1.014a3.36 3.36 0 0 1-.973-2.41q0-1.354.973-2.368 1.014-1.015 2.41-1.015 1.395 0 2.368 1.015 1.014 1.014 1.015 2.368 0 1.395-1.015 2.41-.973 1.014-2.368 1.014"/></svg>