<svg xmlns="http://www.w3.org/2000/svg" width="1000" height="375" fill="none" viewBox="0 0 1000 375"><rect width="996.559" height="371.359" x="1.41" y="1.41" stroke="#48d36e" stroke-width="2.82" rx="6.111"/><path fill="#48d36e" d="M47.805 107.59V86.53H60.47v2.708h-9.717v6.258h8.755v2.647h-8.755v6.739h9.777v2.708zm16.247 0V92.547h2.677l.12 2.197q.753-1.234 1.926-1.896 1.204-.661 2.737-.662 1.776 0 3.07.722 1.323.723 2.015 2.257.722 1.504.722 3.971v8.454H74.46v-7.702q0-2.046-.481-3.099-.452-1.083-1.294-1.504-.813-.42-1.896-.451-1.835 0-2.858 1.293-1.022 1.294-1.022 3.64v7.823zm22.236 0v-2.377q0-.933.421-1.925.451-1.023 1.264-2.016a11.6 11.6 0 0 1 1.985-1.835l4.062-3.009a7.2 7.2 0 0 0 1.294-1.173q.601-.691.932-1.414.36-.752.361-1.474 0-.963-.481-1.745a3.3 3.3 0 0 0-1.354-1.263q-.873-.482-2.076-.482-1.143 0-2.016.451a4.14 4.14 0 0 0-1.414 1.144 4.5 4.5 0 0 0-.812 1.534l-3.038-.572q.33-1.383 1.293-2.587.963-1.203 2.467-1.925 1.504-.752 3.4-.752 2.166 0 3.73.812 1.595.782 2.467 2.196.873 1.385.873 3.189a5.77 5.77 0 0 1-.963 3.219q-.933 1.475-2.708 2.858l-3.76 2.828q-1.113.843-1.775 1.745a4.46 4.46 0 0 0-.782 1.925h10.258v2.648zm24.118.361q-2.436 0-4.332-1.384-1.895-1.414-2.978-3.851-1.053-2.467-1.053-5.656t1.053-5.626q1.082-2.467 2.948-3.85 1.895-1.415 4.362-1.415t4.332 1.415q1.896 1.384 2.979 3.85 1.083 2.437 1.083 5.626t-1.083 5.656q-1.053 2.437-2.948 3.851-1.896 1.384-4.363 1.384m0-2.708q1.595 0 2.828-1.053 1.264-1.053 1.956-2.888t.692-4.242-.692-4.242q-.692-1.865-1.956-2.918-1.233-1.053-2.828-1.053t-2.828 1.053-1.925 2.918q-.692 1.836-.692 4.242 0 2.407.692 4.272.692 1.835 1.925 2.888a4.3 4.3 0 0 0 2.828 1.023m10.524 2.347v-2.377q0-.933.421-1.925a8.8 8.8 0 0 1 1.264-2.016 11.6 11.6 0 0 1 1.985-1.835l4.062-3.009a7.2 7.2 0 0 0 1.293-1.173q.601-.691.933-1.414.361-.752.361-1.474a3.27 3.27 0 0 0-.481-1.745 3.3 3.3 0 0 0-1.354-1.263q-.873-.482-2.076-.482-1.143 0-2.016.451a4.14 4.14 0 0 0-1.414 1.144 4.5 4.5 0 0 0-.812 1.534l-3.039-.572q.331-1.383 1.294-2.587.963-1.203 2.467-1.925 1.504-.752 3.4-.752 2.166 0 3.73.812 1.594.782 2.467 2.196.873 1.385.872 3.189 0 1.745-.962 3.219-.933 1.475-2.708 2.858l-3.76 2.828q-1.114.843-1.775 1.745a4.46 4.46 0 0 0-.783 1.925h10.259v2.648zm23.426.361q-2.166 0-3.64-.812a6.6 6.6 0 0 1-2.377-2.197q-.873-1.413-1.263-3.249a18.7 18.7 0 0 1-.392-3.91q0-2.618.542-4.754t1.594-3.67q1.053-1.535 2.588-2.347 1.534-.843 3.52-.843 1.595 0 3.159.512a9.8 9.8 0 0 1 2.797 1.354l-1.594 2.136a7.3 7.3 0 0 0-2.076-.993q-1.113-.36-2.076-.361-2.857 0-4.392 2.437-1.534 2.406-1.384 7.43l-.602-.51q.723-1.776 2.257-2.829 1.564-1.083 3.67-1.083 2.046 0 3.61.903a6.4 6.4 0 0 1 2.437 2.467q.873 1.534.873 3.55 0 1.955-.903 3.49-.903 1.534-2.557 2.406-1.625.873-3.791.873m.03-2.587q1.234 0 2.196-.542a3.87 3.87 0 0 0 1.505-1.504q.571-.993.571-2.226 0-1.264-.571-2.227a3.8 3.8 0 0 0-1.505-1.534q-.962-.542-2.196-.542-1.263 0-2.256.542a4.03 4.03 0 0 0-1.535 1.534q-.541.963-.541 2.227 0 1.233.541 2.226a4.1 4.1 0 0 0 1.535 1.504q.993.542 2.256.542m8.411 5.686 1.744-6.559h3.099l-2.527 6.559zm13.626-3.46V86.53h2.858v21.06zm4.476-14.501 1.745-6.558h3.099l-2.527 6.558zm7.119 14.501V86.53h2.948v21.06zm5.072 0 8.484-21.06h3.159l8.484 21.06h-3.159l-2.257-5.626h-9.296l-2.256 5.626zm6.438-8.273h7.25l-3.61-9.056zm28.463 8.634q-2.256 0-4.001-.993a7.34 7.34 0 0 1-2.738-2.798q-.962-1.775-.962-4.091 0-2.318.962-4.092a7.2 7.2 0 0 1 2.708-2.768q1.745-1.023 3.971-1.023 2.196 0 3.941 1.023 1.776 1.023 2.648 2.918l-2.587 1.084a4.2 4.2 0 0 0-1.655-1.745q-1.053-.632-2.437-.632-1.354 0-2.407.662t-1.654 1.865q-.602 1.173-.602 2.708 0 1.534.602 2.707a4.74 4.74 0 0 0 1.684 1.866q1.083.661 2.437.661 1.384 0 2.467-.692a4.47 4.47 0 0 0 1.625-1.925l2.617 1.053q-.873 1.986-2.647 3.099-1.745 1.113-3.972 1.113m15.41 0q-2.256 0-3.971-.993a7.4 7.4 0 0 1-2.708-2.798q-.962-1.775-.962-4.091 0-2.318.962-4.092a7 7 0 0 1 2.678-2.768q1.715-1.023 3.941-1.023t3.941 1.023a7 7 0 0 1 2.678 2.768q.962 1.775.962 4.092t-.962 4.091a7.2 7.2 0 0 1-2.678 2.798q-1.685.993-3.881.993m0-2.618q1.354 0 2.407-.661a4.6 4.6 0 0 0 1.625-1.866q.601-1.173.601-2.737t-.601-2.738a4.3 4.3 0 0 0-1.655-1.835q-1.083-.692-2.437-.692-1.384 0-2.437.692-1.053.662-1.654 1.835-.602 1.173-.602 2.738t.602 2.737a4.73 4.73 0 0 0 1.684 1.866q1.083.661 2.467.661m9.817 2.257V92.547h2.677l.121 2.197q.752-1.234 1.925-1.896 1.203-.661 2.738-.662 1.775 0 3.069.722 1.323.723 2.015 2.257.722 1.504.722 3.971v8.454h-2.858v-7.702q0-2.046-.481-3.099-.451-1.083-1.294-1.504-.812-.42-1.895-.451-1.835 0-2.858 1.293-1.023 1.294-1.023 3.64v7.823zm21.413.361q-1.594 0-2.858-.481a6.6 6.6 0 0 1-2.106-1.294 5.4 5.4 0 0 1-1.263-1.835l2.467-1.083q.481.932 1.444 1.534a3.95 3.95 0 0 0 2.136.602q1.293 0 2.136-.482.842-.481.842-1.354 0-.842-.632-1.323-.632-.482-1.835-.782l-1.414-.361q-2.106-.573-3.279-1.715-1.143-1.143-1.143-2.588 0-2.196 1.414-3.4 1.413-1.202 4.181-1.203 1.354 0 2.467.391 1.144.391 1.926 1.114a3.93 3.93 0 0 1 1.143 1.715l-2.407 1.083a2.42 2.42 0 0 0-1.233-1.324q-.873-.451-2.046-.451-1.203 0-1.895.541-.692.511-.692 1.444 0 .511.571.993.603.451 1.745.752l1.625.391q1.474.36 2.437 1.113.963.722 1.444 1.655a4 4 0 0 1 .481 1.895q0 1.354-.752 2.377-.722.993-2.016 1.534-1.263.542-2.888.542m14.593 0q-2.257 0-3.972-.993a7.4 7.4 0 0 1-2.707-2.798q-.963-1.775-.963-4.091 0-2.318.963-4.092a7 7 0 0 1 2.677-2.768q1.716-1.023 3.941-1.023 2.227 0 3.942 1.023a7 7 0 0 1 2.677 2.768q.963 1.775.963 4.092t-.963 4.091a7.2 7.2 0 0 1-2.677 2.798q-1.686.993-3.881.993m0-2.618q1.353 0 2.406-.661a4.6 4.6 0 0 0 1.625-1.866q.602-1.173.602-2.737t-.602-2.738a4.3 4.3 0 0 0-1.655-1.835q-1.083-.692-2.437-.692-1.383 0-2.436.692-1.053.662-1.655 1.835t-.602 2.738q0 1.564.602 2.737a4.73 4.73 0 0 0 1.685 1.866q1.083.661 2.467.661m9.816 2.257V92.547h2.678l.12 2.076q.722-1.203 1.805-1.805 1.083-.632 2.497-.632 1.805 0 3.069.843 1.263.812 1.835 2.497.662-1.624 1.865-2.467 1.204-.873 2.858-.873 2.557 0 4.002 1.685 1.444 1.654 1.414 5.115v8.604h-2.828v-7.702q0-2.046-.452-3.099-.42-1.083-1.143-1.504-.722-.42-1.685-.451-1.684 0-2.617 1.293-.903 1.294-.903 3.64v7.823h-2.858v-7.702q0-2.046-.421-3.099-.422-1.083-1.173-1.504-.722-.42-1.685-.451-1.684 0-2.617 1.293-.903 1.294-.903 3.64v7.823zm24.96 0V92.547h2.677l.121 2.076q.722-1.203 1.805-1.805 1.083-.632 2.497-.632 1.805 0 3.068.843 1.264.812 1.836 2.497.662-1.624 1.865-2.467 1.203-.873 2.858-.873 2.558 0 4.001 1.685 1.444 1.654 1.414 5.115v8.604h-2.828v-7.702q0-2.046-.451-3.099-.421-1.083-1.143-1.504-.723-.42-1.685-.451-1.685 0-2.617 1.293-.903 1.294-.903 3.64v7.823h-2.858v-7.702q0-2.046-.421-3.099-.422-1.083-1.173-1.504-.722-.42-1.685-.451-1.685 0-2.618 1.293-.902 1.294-.902 3.64v7.823zm31.608.361q-2.196 0-3.881-.993a7.25 7.25 0 0 1-2.647-2.798q-.963-1.775-.963-4.091 0-2.318.963-4.092.963-1.775 2.647-2.768 1.715-1.023 3.911-1.023 2.076 0 3.641 1.053 1.564 1.023 2.436 2.949.903 1.895.903 4.482h-11.583q.151 2.227 1.474 3.49 1.354 1.233 3.31 1.234 1.504 0 2.497-.692a5.1 5.1 0 0 0 1.594-1.805l2.467 1.143a7.5 7.5 0 0 1-1.564 2.076 6.9 6.9 0 0 1-2.287 1.354q-1.293.48-2.918.481m-4.392-9.537h8.333q-.09-1.203-.662-2.016a3.65 3.65 0 0 0-1.414-1.293q-.842-.452-1.895-.452a4.6 4.6 0 0 0-1.986.452 4.16 4.16 0 0 0-1.624 1.263q-.632.843-.752 2.046m13.39 9.176V92.547h2.858v2.708q.902-1.414 2.316-2.076a6.9 6.9 0 0 1 3.009-.692v2.708q-1.354 0-2.588.421a4.24 4.24 0 0 0-1.985 1.324q-.752.903-.752 2.467v8.183zm14.466.361q-2.678 0-4.182-1.204-1.473-1.233-1.474-3.399 0-2.317 1.534-3.52 1.564-1.233 4.333-1.234h4.031q-.18-1.925-1.023-2.888-.812-.993-2.467-.992-1.173 0-2.046.48-.841.482-1.414 1.505l-2.527-.963a7.1 7.1 0 0 1 1.354-1.805 5.7 5.7 0 0 1 1.956-1.263q1.143-.482 2.677-.482 2.136 0 3.55.843 1.414.842 2.106 2.437.722 1.594.692 3.94l-.03 8.184h-2.647l-.091-1.926a4.7 4.7 0 0 1-1.745 1.685q-1.083.602-2.587.602m.241-2.437q1.233 0 2.136-.511a3.85 3.85 0 0 0 1.414-1.475q.511-.962.511-2.196v-.481h-3.309q-2.076 0-2.918.662-.843.632-.843 1.775 0 1.053.782 1.654.813.572 2.227.572m16.282 8.093v-21.06h2.677l.151 2.437q.812-1.323 2.076-2.045 1.263-.753 2.888-.753 2.016 0 3.55.993t2.377 2.768q.872 1.744.872 4.122 0 2.346-.872 4.121-.843 1.775-2.377 2.768t-3.55.993q-1.625 0-2.888-.722a6.2 6.2 0 0 1-2.046-2.046v8.424zm7.1-8.243q1.353 0 2.377-.662a4.7 4.7 0 0 0 1.594-1.866q.602-1.203.602-2.767 0-1.565-.572-2.738-.571-1.203-1.594-1.865-1.024-.692-2.377-.692-1.233 0-2.226.692-.963.661-1.505 1.865t-.541 2.738q0 1.564.541 2.767.542 1.174 1.505 1.866.962.662 2.196.662m9.777 2.226V86.53h2.858v21.06zm11.395.361q-1.745 0-3.038-.722-1.294-.723-2.016-2.257-.722-1.533-.722-3.971v-8.454h2.858v7.702q0 2.016.451 3.099.481 1.083 1.324 1.504.842.421 1.895.451 1.835 0 2.858-1.293 1.023-1.294 1.023-3.641v-7.821h2.828v15.042h-2.647l-.121-2.196a5.2 5.2 0 0 1-1.955 1.895q-1.173.662-2.738.662m15.998 0q-1.594 0-2.858-.481a6.6 6.6 0 0 1-2.106-1.294 5.4 5.4 0 0 1-1.263-1.835l2.467-1.083q.481.932 1.444 1.534a3.95 3.95 0 0 0 2.136.602q1.293 0 2.136-.482.842-.481.842-1.354 0-.842-.632-1.323-.632-.482-1.835-.782l-1.414-.361q-2.106-.573-3.279-1.715-1.143-1.143-1.143-2.588 0-2.196 1.414-3.4 1.413-1.202 4.182-1.203 1.353 0 2.466.391 1.144.391 1.926 1.114a3.93 3.93 0 0 1 1.143 1.715l-2.407 1.083a2.42 2.42 0 0 0-1.233-1.324q-.873-.451-2.046-.451-1.203 0-1.895.541-.693.511-.692 1.444 0 .511.571.993.602.451 1.745.752l1.625.391q1.474.36 2.437 1.113.963.722 1.444 1.655a4 4 0 0 1 .481 1.895q0 1.354-.752 2.377-.721.993-2.016 1.534-1.263.542-2.888.542m-376.796 36q-2.046 0-3.58-.993-1.505-.993-2.376-2.768-.843-1.775-.843-4.121 0-2.378.842-4.122.873-1.775 2.377-2.768 1.535-.993 3.58-.993 1.595 0 2.858.722 1.264.723 2.076 2.046v-8.424h2.828v21.06h-2.707l-.09-2.437a6.06 6.06 0 0 1-2.076 2.076q-1.264.722-2.889.722m.662-2.587q1.234 0 2.166-.662.963-.663 1.505-1.805.57-1.174.601-2.678v-.301q-.03-1.504-.602-2.647-.54-1.173-1.504-1.835-.931-.663-2.196-.662-1.324 0-2.346.692-1.023.662-1.595 1.865-.572 1.173-.572 2.738t.572 2.767a4.9 4.9 0 0 0 1.625 1.866q1.022.662 2.346.662m8.728-12.275 1.745-6.559h3.099l-2.527 6.559zm13.076 14.862q-2.196 0-3.881-.993a7.25 7.25 0 0 1-2.648-2.798q-.962-1.775-.962-4.091t.962-4.092 2.648-2.768q1.715-1.023 3.91-1.023 2.077 0 3.641 1.053 1.564 1.023 2.437 2.949.903 1.894.903 4.482H70.962q.15 2.227 1.474 3.49 1.354 1.234 3.31 1.234 1.504 0 2.496-.692a5.1 5.1 0 0 0 1.595-1.805l2.467 1.143a7.6 7.6 0 0 1-1.564 2.076 6.9 6.9 0 0 1-2.287 1.354q-1.293.48-2.918.481m-4.393-9.537h8.334q-.09-1.203-.662-2.016a3.66 3.66 0 0 0-1.414-1.293q-.843-.452-1.895-.452-1.023 0-1.986.452a4.16 4.16 0 0 0-1.625 1.263q-.63.843-.752 2.046m2.257-7.912 3.52-3.972h3.46l-3.882 3.972zM84.59 143.59v-15.043h2.678l.12 2.197q.752-1.234 1.925-1.896 1.204-.662 2.738-.662 1.775 0 3.069.722 1.323.723 2.015 2.257.723 1.504.723 3.971v8.454H95v-7.702q0-2.046-.48-3.099-.453-1.083-1.295-1.504-.812-.421-1.895-.451-1.835 0-2.858 1.294-1.023 1.293-1.023 3.64v7.822zm22.677.361q-2.196 0-3.881-.993a7.24 7.24 0 0 1-2.647-2.798q-.963-1.775-.963-4.091t.963-4.092q.962-1.775 2.647-2.768 1.715-1.023 3.911-1.023 2.076 0 3.64 1.053 1.565 1.023 2.437 2.949.903 1.894.903 4.482h-11.583q.15 2.227 1.474 3.49 1.354 1.234 3.31 1.234 1.504 0 2.497-.692a5.1 5.1 0 0 0 1.594-1.805l2.467 1.143a7.6 7.6 0 0 1-1.564 2.076 6.9 6.9 0 0 1-2.287 1.354q-1.293.48-2.918.481m-4.392-9.537h8.333q-.09-1.203-.662-2.016a3.65 3.65 0 0 0-1.414-1.293q-.842-.452-1.895-.452a4.6 4.6 0 0 0-1.986.452 4.16 4.16 0 0 0-1.624 1.263q-.632.843-.752 2.046m13.39 9.176v-15.043h2.858v2.708q.901-1.415 2.316-2.076a6.9 6.9 0 0 1 3.009-.692v2.708a8 8 0 0 0-2.588.421 4.25 4.25 0 0 0-1.985 1.324q-.752.903-.752 2.467v8.183zm15.88 6.408q-1.505 0-2.738-.301-1.233-.27-2.076-.632-.841-.36-1.263-.632l1.083-2.316q.391.24 1.113.541a8.3 8.3 0 0 0 1.685.542q.963.24 2.136.241 1.383 0 2.467-.572 1.083-.542 1.684-1.715.632-1.173.632-3.008v-1.565a5.7 5.7 0 0 1-2.076 2.076q-1.293.722-2.918.722-2.046 0-3.58-.932-1.504-.963-2.377-2.648-.842-1.715-.842-3.941 0-2.316.842-4.031.873-1.716 2.377-2.678 1.534-.963 3.58-.963 1.625 0 2.918.753 1.295.722 2.076 2.105v-2.497h2.858v13.539q0 2.587-.993 4.332-.962 1.775-2.677 2.677-1.685.903-3.911.903m.451-9.026q1.264 0 2.196-.661.933-.692 1.475-1.836.541-1.173.541-2.677t-.541-2.648q-.542-1.143-1.505-1.775-.932-.661-2.196-.661-1.324 0-2.347.661-.992.632-1.564 1.775-.572 1.144-.572 2.648t.572 2.677a5.1 5.1 0 0 0 1.595 1.836q1.022.661 2.346.661m10.441 2.618v-15.043h2.858v15.043zm1.444-18.232q-.692 0-1.204-.511-.51-.541-.511-1.233 0-.723.511-1.204a1.65 1.65 0 0 1 1.204-.511q.722 0 1.203.511.512.481.512 1.204 0 .692-.512 1.233a1.58 1.58 0 0 1-1.203.511m11.416 18.593q-2.196 0-3.881-.993a7.25 7.25 0 0 1-2.648-2.798q-.962-1.775-.962-4.091t.962-4.092q.963-1.775 2.648-2.768 1.715-1.023 3.911-1.023 2.076 0 3.64 1.053 1.564 1.023 2.437 2.949.903 1.894.902 4.482h-11.582q.15 2.227 1.474 3.49 1.355 1.234 3.309 1.234 1.504 0 2.497-.692a5.1 5.1 0 0 0 1.595-1.805l2.467 1.143a7.6 7.6 0 0 1-1.565 2.076 6.9 6.9 0 0 1-2.286 1.354q-1.293.48-2.918.481m-4.393-9.537h8.334q-.09-1.203-.662-2.016a3.65 3.65 0 0 0-1.414-1.293q-.843-.452-1.895-.452a4.6 4.6 0 0 0-1.986.452 4.16 4.16 0 0 0-1.625 1.263q-.631.843-.752 2.046m24.532 12.184a30.6 30.6 0 0 1-2.527-3.971 22.7 22.7 0 0 1-1.805-4.573 18.8 18.8 0 0 1-.662-4.994q0-2.617.662-4.994a22 22 0 0 1 1.805-4.543 29.6 29.6 0 0 1 2.527-4.001h2.889a34 34 0 0 0-2.528 4.122 23.6 23.6 0 0 0-1.805 4.573 17.8 17.8 0 0 0-.661 4.843q0 2.467.661 4.844a23.6 23.6 0 0 0 1.805 4.573 37 37 0 0 0 2.528 4.121zm5.944-3.008 9.567-18.352h-10.95v-2.708h14.23v2.377l-9.567 18.683zm21.096.361q-1.625 0-2.948-.481-1.325-.482-2.226-1.324a6.3 6.3 0 0 1-1.384-1.835l2.557-1.174q.301.421.752.963.451.512 1.203.872.753.361 1.866.361 1.895 0 3.008-1.083 1.143-1.083 1.143-2.737 0-1.234-.661-2.076-.663-.873-1.956-1.324-1.263-.451-3.099-.451h-.752v-2.497h.752q2.468 0 3.851-.843 1.384-.841 1.384-2.376 0-.873-.481-1.565-.451-.721-1.294-1.143-.812-.451-1.955-.451-.723 0-1.414.241-.663.21-1.234.661a3.8 3.8 0 0 0-.993 1.114l-2.467-1.114a5.4 5.4 0 0 1 1.444-1.895 6.7 6.7 0 0 1 2.167-1.203 8 8 0 0 1 2.617-.422q1.895 0 3.369.723 1.474.722 2.317 1.985.873 1.263.872 2.858 0 1.625-.902 2.798-.903 1.143-2.467 1.835 1.805.783 2.828 2.136 1.053 1.355 1.053 3.279 0 1.866-.963 3.28-.933 1.383-2.527 2.136-1.564.752-3.46.752m20.893-.361v-18.352h-6.589v-2.708h16.156v2.708h-6.589v18.352zm15.727 0-6.378-21.06h3.009l4.964 16.487 4.813-16.487h2.979l4.723 16.397 5.054-16.397h2.979l-6.469 21.06h-3.159l-4.633-16.306-4.723 16.306zm23.617 0v-21.06h2.828v8.153q.752-1.203 1.926-1.835 1.173-.662 2.707-.662 1.775 0 3.069.722 1.293.723 2.016 2.257.722 1.504.692 3.971v8.454h-2.828v-7.702q0-2.046-.482-3.099-.481-1.083-1.324-1.504-.812-.421-1.865-.451-1.865 0-2.888 1.294-1.023 1.293-1.023 3.64v7.822zm18.225 3.008h-2.889a32 32 0 0 0 2.528-4.121 23.6 23.6 0 0 0 1.805-4.573q.662-2.377.662-4.844 0-2.497-.662-4.843a23.6 23.6 0 0 0-1.805-4.573 29.4 29.4 0 0 0-2.528-4.122h2.889a26 26 0 0 1 2.527 4.001 22 22 0 0 1 1.805 4.543q.662 2.377.662 4.994 0 2.588-.662 4.994a22.6 22.6 0 0 1-1.805 4.573 27 27 0 0 1-2.527 3.971m25.179 3.009v-8.424a5.8 5.8 0 0 1-2.076 2.046q-1.264.722-2.858.722-2.047 0-3.58-.993-1.504-.993-2.377-2.768-.842-1.775-.842-4.121 0-2.378.842-4.122.873-1.775 2.377-2.768 1.533-.993 3.58-.993 1.624 0 2.888.753a5.7 5.7 0 0 1 2.076 2.075l.12-2.467h2.678v21.06zm-4.272-8.243q1.263 0 2.226-.662.963-.692 1.504-1.866.542-1.203.542-2.767 0-1.565-.542-2.738-.541-1.203-1.504-1.865-.963-.692-2.257-.692-1.323 0-2.346.692-1.023.662-1.595 1.865-.571 1.173-.571 2.738t.571 2.767q.603 1.174 1.625 1.866 1.023.662 2.347.662m15.441 2.587q-1.745 0-3.038-.722-1.295-.723-2.016-2.257-.722-1.533-.722-3.971v-8.454h2.858v7.702q0 2.016.451 3.099.482 1.083 1.324 1.504t1.895.451q1.836 0 2.859-1.293 1.022-1.294 1.022-3.641v-7.822h2.828v15.043H322.7l-.12-2.196a5.2 5.2 0 0 1-1.956 1.895q-1.173.662-2.738.662m17.262 0q-2.196 0-3.881-.993a7.24 7.24 0 0 1-2.647-2.798q-.963-1.775-.963-4.091t.963-4.092 2.647-2.768q1.715-1.023 3.911-1.023 2.076 0 3.64 1.053 1.565 1.023 2.437 2.949.903 1.894.903 4.482h-11.583q.15 2.227 1.474 3.49 1.354 1.234 3.31 1.234 1.504 0 2.497-.692a5.1 5.1 0 0 0 1.594-1.805l2.467 1.143a7.6 7.6 0 0 1-1.564 2.076 6.9 6.9 0 0 1-2.287 1.354q-1.293.48-2.918.481m-4.392-9.537h8.333q-.09-1.203-.662-2.016a3.65 3.65 0 0 0-1.414-1.293q-.842-.452-1.895-.452a4.6 4.6 0 0 0-1.986.452 4.16 4.16 0 0 0-1.624 1.263q-.632.843-.752 2.046m19.899 9.176v-21.06h2.858v21.06zm12.629.361q-2.196 0-3.881-.993a7.25 7.25 0 0 1-2.648-2.798q-.962-1.775-.962-4.091t.962-4.092q.963-1.775 2.648-2.768 1.715-1.023 3.911-1.023 2.076 0 3.64 1.053 1.564 1.023 2.437 2.949.903 1.894.903 4.482h-11.583q.15 2.227 1.474 3.49 1.354 1.234 3.309 1.234 1.505 0 2.497-.692a5.1 5.1 0 0 0 1.595-1.805l2.467 1.143a7.6 7.6 0 0 1-1.565 2.076 6.8 6.8 0 0 1-2.286 1.354q-1.293.48-2.918.481m-4.393-9.537h8.334q-.09-1.203-.662-2.016a3.65 3.65 0 0 0-1.414-1.293q-.842-.452-1.895-.452a4.6 4.6 0 0 0-1.986.452 4.15 4.15 0 0 0-1.624 1.263q-.632.843-.753 2.046M47.805 179.59v-21.06h6.498q3.008 0 5.325 1.354a9.44 9.44 0 0 1 3.67 3.701q1.324 2.376 1.324 5.475 0 3.069-1.324 5.446a9.65 9.65 0 0 1-3.67 3.73q-2.317 1.354-5.325 1.354zm2.948-2.768h3.55q1.534 0 2.858-.572a7.3 7.3 0 0 0 2.316-1.654 7.5 7.5 0 0 0 1.565-2.497 8 8 0 0 0 .571-3.039q0-1.625-.571-3.038a7.2 7.2 0 0 0-1.565-2.467 6.7 6.7 0 0 0-2.316-1.655 6.8 6.8 0 0 0-2.858-.602h-3.55zm21.138 3.129q-2.678 0-4.182-1.204-1.474-1.233-1.474-3.399 0-2.316 1.535-3.52 1.565-1.233 4.332-1.234h4.031q-.18-1.925-1.023-2.888-.812-.993-2.467-.992-1.173 0-2.046.481-.841.481-1.413 1.504l-2.528-.963a7.1 7.1 0 0 1 1.354-1.805 5.7 5.7 0 0 1 1.956-1.263q1.143-.482 2.677-.482 2.136 0 3.55.843 1.414.842 2.106 2.437.723 1.594.692 3.941l-.03 8.183h-2.647l-.09-1.926a4.7 4.7 0 0 1-1.746 1.685q-1.083.602-2.587.602m.24-2.437q1.234 0 2.137-.511a3.84 3.84 0 0 0 1.414-1.475q.51-.961.511-2.196v-.481h-3.309q-2.076 0-2.918.662-.843.632-.843 1.775 0 1.053.783 1.654.812.572 2.226.572m9.623 2.076v-15.043h2.678l.12 2.197q.752-1.234 1.926-1.896 1.204-.662 2.737-.662 1.776 0 3.069.722 1.323.723 2.016 2.257.722 1.504.722 3.971v8.454h-2.858v-7.702q0-2.046-.482-3.099-.45-1.083-1.293-1.504-.813-.421-1.896-.451-1.835 0-2.858 1.294-1.023 1.293-1.023 3.64v7.822zm22.677.361q-2.195 0-3.881-.993a7.25 7.25 0 0 1-2.647-2.798q-.963-1.775-.963-4.091t.963-4.092 2.647-2.768q1.715-1.023 3.911-1.023 2.076 0 3.641 1.053 1.565 1.023 2.436 2.949.903 1.895.903 4.482H99.858q.15 2.227 1.475 3.49 1.353 1.234 3.309 1.234 1.504 0 2.497-.692a5.1 5.1 0 0 0 1.594-1.805l2.467 1.143a7.5 7.5 0 0 1-1.564 2.076 6.9 6.9 0 0 1-2.286 1.354q-1.294.48-2.919.481m-4.392-9.537h8.333q-.09-1.203-.661-2.016a3.66 3.66 0 0 0-1.414-1.293q-.843-.452-1.896-.452-1.023 0-1.985.452a4.16 4.16 0 0 0-1.625 1.263q-.632.843-.752 2.046m13.39 9.176v-15.043h2.677l.121 2.076q.722-1.203 1.805-1.805 1.083-.632 2.497-.632 1.805 0 3.068.843 1.264.812 1.836 2.497.662-1.625 1.865-2.467 1.203-.873 2.858-.873 2.558 0 4.001 1.685 1.444 1.655 1.414 5.115v8.604h-2.828v-7.702q0-2.046-.451-3.099-.422-1.083-1.143-1.504-.723-.421-1.685-.451-1.685 0-2.617 1.294-.903 1.293-.903 3.64v7.822h-2.858v-7.702q0-2.046-.421-3.099-.422-1.083-1.173-1.504-.723-.421-1.685-.451-1.685 0-2.618 1.294-.902 1.293-.902 3.64v7.822zm29.773.361q-2.678 0-4.182-1.204-1.474-1.233-1.474-3.399 0-2.316 1.534-3.52 1.564-1.233 4.333-1.234h4.031q-.18-1.925-1.023-2.888-.812-.993-2.467-.992-1.173 0-2.046.481-.842.481-1.414 1.504l-2.527-.963a7.1 7.1 0 0 1 1.354-1.805 5.7 5.7 0 0 1 1.956-1.263q1.143-.482 2.677-.482 2.136 0 3.55.843 1.415.842 2.106 2.437.722 1.594.692 3.941l-.03 8.183h-2.648l-.09-1.926a4.7 4.7 0 0 1-1.745 1.685q-1.083.602-2.587.602m.241-2.437q1.233 0 2.136-.511a3.85 3.85 0 0 0 1.414-1.475q.511-.961.511-2.196v-.481h-3.309q-2.076 0-2.918.662-.843.632-.843 1.775 0 1.053.782 1.654.813.572 2.227.572m9.622 2.076v-15.043h2.858v2.708q.903-1.415 2.317-2.076a6.9 6.9 0 0 1 3.008-.692v2.708q-1.353 0-2.587.421a4.25 4.25 0 0 0-1.986 1.324q-.752.903-.752 2.467v8.183zm9.653 0v-21.06h2.858v12.486l6.047-6.469h3.49l-5.596 6.108 6.168 8.935h-3.43l-4.603-6.89-2.076 2.227v4.663zm27.365.361q-2.197 0-3.881-.993a7.25 7.25 0 0 1-2.648-2.798q-.963-1.775-.963-4.091t.963-4.092 2.648-2.768q1.715-1.023 3.911-1.023 2.076 0 3.64 1.053 1.564 1.023 2.437 2.949.902 1.895.902 4.482H185.51q.15 2.227 1.474 3.49 1.353 1.234 3.309 1.234 1.504 0 2.497-.692a5.1 5.1 0 0 0 1.595-1.805l2.467 1.143a7.6 7.6 0 0 1-1.565 2.076 6.9 6.9 0 0 1-2.286 1.354q-1.294.48-2.918.481m-4.393-9.537h8.334q-.091-1.203-.662-2.016a3.66 3.66 0 0 0-1.414-1.293q-.843-.452-1.896-.452-1.022 0-1.985.452a4.16 4.16 0 0 0-1.625 1.263q-.632.843-.752 2.046m19.196 9.537q-2.256 0-3.489-1.143-1.234-1.174-1.234-3.34v-8.454h-2.557v-2.467h2.557v-4.693h2.858v4.693h4.272v2.467h-4.272v8.033q0 1.113.542 1.715.571.571 1.624.571.301 0 .662-.12t.873-.481l1.083 2.226a6.6 6.6 0 0 1-1.505.752 4.3 4.3 0 0 1-1.414.241m11.564 5.656v-21.06h2.678l.15 2.437q.813-1.323 2.076-2.045 1.263-.753 2.888-.753 2.016 0 3.55.993t2.377 2.768q.872 1.745.872 4.122 0 2.346-.872 4.121-.843 1.775-2.377 2.768t-3.55.993q-1.625 0-2.888-.722a6.25 6.25 0 0 1-2.046-2.046v8.424zm7.1-8.243q1.354 0 2.377-.662a4.67 4.67 0 0 0 1.594-1.866q.602-1.203.602-2.767 0-1.565-.572-2.738-.571-1.203-1.594-1.865-1.023-.692-2.377-.692-1.233 0-2.226.692-.963.662-1.504 1.865-.542 1.203-.542 2.738 0 1.564.542 2.767.541 1.174 1.504 1.866.963.662 2.196.662m9.777 2.226v-15.043h2.858v2.708q.903-1.415 2.316-2.076a6.9 6.9 0 0 1 3.009-.692v2.708a8 8 0 0 0-2.587.421 4.24 4.24 0 0 0-1.986 1.324q-.752.903-.752 2.467v8.183zm16.301.361q-2.195 0-3.881-.993a7.25 7.25 0 0 1-2.647-2.798q-.963-1.775-.963-4.091t.963-4.092 2.647-2.768q1.716-1.023 3.911-1.023 2.076 0 3.641 1.053 1.564 1.023 2.437 2.949.902 1.895.902 4.482h-11.583q.151 2.227 1.475 3.49 1.353 1.234 3.309 1.234 1.504 0 2.497-.692a5.1 5.1 0 0 0 1.595-1.805l2.466 1.143a7.5 7.5 0 0 1-1.564 2.076 6.9 6.9 0 0 1-2.286 1.354q-1.294.48-2.919.481m-4.392-9.537h8.333q-.09-1.203-.661-2.016a3.66 3.66 0 0 0-1.414-1.293q-.843-.452-1.896-.452-1.022 0-1.985.452a4.16 4.16 0 0 0-1.625 1.263q-.632.843-.752 2.046m18.775 9.537q-1.595 0-2.858-.481a6.6 6.6 0 0 1-2.106-1.294 5.4 5.4 0 0 1-1.263-1.835l2.466-1.083q.482.932 1.445 1.534a3.95 3.95 0 0 0 2.136.602q1.293 0 2.136-.482.842-.481.842-1.354 0-.842-.632-1.323-.632-.482-1.835-.782l-1.414-.361q-2.106-.573-3.279-1.715-1.143-1.143-1.143-2.588 0-2.196 1.414-3.399t4.181-1.204q1.354 0 2.467.392 1.143.39 1.926 1.113a3.93 3.93 0 0 1 1.143 1.715l-2.407 1.083a2.42 2.42 0 0 0-1.233-1.324q-.873-.451-2.046-.451-1.203 0-1.895.541-.693.511-.692 1.444 0 .512.571.993.602.452 1.745.752l1.625.391q1.474.362 2.437 1.113.962.722 1.444 1.655a4 4 0 0 1 .481 1.895q0 1.354-.752 2.377-.721.993-2.016 1.534-1.263.542-2.888.542m18.684 5.656v-8.424a5.8 5.8 0 0 1-2.076 2.046q-1.263.722-2.858.722-2.046 0-3.58-.993-1.504-.993-2.377-2.768-.842-1.775-.842-4.121 0-2.378.842-4.122.873-1.775 2.377-2.768 1.534-.993 3.58-.993 1.625 0 2.888.753a5.7 5.7 0 0 1 2.076 2.075l.12-2.467h2.678v21.06zm-4.272-8.243q1.263 0 2.226-.662.963-.692 1.504-1.866.542-1.203.542-2.767 0-1.565-.542-2.738-.541-1.203-1.504-1.865-.963-.692-2.256-.692-1.324 0-2.347.692-1.023.662-1.594 1.865-.572 1.173-.572 2.738t.572 2.767a4.9 4.9 0 0 0 1.624 1.866q1.023.662 2.347.662m15.442 2.587q-1.745 0-3.039-.722-1.293-.723-2.016-2.257-.722-1.533-.722-3.971v-8.454h2.858v7.702q0 2.016.452 3.099.481 1.083 1.323 1.504.843.421 1.896.451 1.835 0 2.858-1.293 1.023-1.294 1.023-3.641v-7.822h2.828v15.043h-2.648l-.12-2.196a5.2 5.2 0 0 1-1.956 1.895q-1.173.662-2.737.662m17.261 0q-2.196 0-3.881-.993a7.25 7.25 0 0 1-2.647-2.798q-.963-1.775-.963-4.091t.963-4.092 2.647-2.768q1.716-1.023 3.911-1.023 2.076 0 3.641 1.053 1.564 1.023 2.437 2.949.902 1.895.902 4.482h-11.583q.151 2.227 1.475 3.49 1.353 1.234 3.309 1.234 1.504 0 2.497-.692a5.1 5.1 0 0 0 1.594-1.805l2.467 1.143a7.5 7.5 0 0 1-1.564 2.076 6.9 6.9 0 0 1-2.286 1.354q-1.295.48-2.919.481m-4.392-9.537h8.333q-.09-1.203-.661-2.016a3.66 3.66 0 0 0-1.414-1.293q-.843-.452-1.896-.452-1.023 0-1.985.452a4.16 4.16 0 0 0-1.625 1.263q-.632.843-.752 2.046m24.713 9.537q-2.678 0-4.182-1.204-1.474-1.233-1.474-3.399 0-2.316 1.534-3.52 1.565-1.233 4.332-1.234h4.032q-.181-1.925-1.023-2.888-.813-.993-2.467-.992-1.173 0-2.046.481-.843.481-1.414 1.504l-2.527-.963a7.1 7.1 0 0 1 1.354-1.805 5.7 5.7 0 0 1 1.955-1.263q1.143-.482 2.678-.482 2.136 0 3.55.843 1.413.842 2.106 2.437.722 1.594.692 3.941l-.03 8.183h-2.648l-.09-1.926a4.7 4.7 0 0 1-1.745 1.685q-1.083.602-2.587.602m.24-2.437q1.235 0 2.136-.511a3.84 3.84 0 0 0 1.414-1.475q.512-.961.512-2.196v-.481h-3.31q-2.075 0-2.918.662-.842.632-.842 1.775 0 1.053.782 1.654.813.572 2.226.572m15.038 2.437q-1.745 0-3.038-.722-1.295-.723-2.016-2.257-.723-1.533-.722-3.971v-8.454h2.858v7.702q0 2.016.451 3.099.481 1.083 1.324 1.504.842.421 1.895.451 1.835 0 2.858-1.293 1.023-1.294 1.023-3.641v-7.822h2.828v15.043h-2.647l-.121-2.196a5.2 5.2 0 0 1-1.955 1.895q-1.173.662-2.738.662m16.419 0q-2.256 0-3.489-1.143-1.234-1.174-1.234-3.34v-8.454h-2.557v-2.467h2.557v-4.693h2.858v4.693h4.272v2.467h-4.272v8.033q0 1.113.542 1.715.571.571 1.624.571.301 0 .662-.12t.873-.481l1.083 2.226a6.6 6.6 0 0 1-1.505.752 4.3 4.3 0 0 1-1.414.241m9.601 0q-2.678 0-4.182-1.204-1.474-1.233-1.474-3.399 0-2.316 1.534-3.52 1.565-1.233 4.332-1.234h4.031q-.18-1.925-1.022-2.888-.813-.993-2.467-.992-1.174 0-2.046.481-.843.481-1.414 1.504l-2.527-.963a7.1 7.1 0 0 1 1.354-1.805 5.7 5.7 0 0 1 1.955-1.263q1.143-.482 2.678-.482 2.136 0 3.55.843 1.413.842 2.106 2.437.722 1.594.692 3.941l-.031 8.183h-2.647l-.09-1.926a4.7 4.7 0 0 1-1.745 1.685q-1.084.602-2.587.602m.24-2.437q1.235 0 2.136-.511a3.84 3.84 0 0 0 1.414-1.475q.512-.961.512-2.196v-.481h-3.31q-2.076 0-2.918.662-.842.632-.842 1.775 0 1.053.782 1.654.812.572 2.226.572m9.623 2.076v-15.043h2.677l.121 2.197q.752-1.234 1.925-1.896 1.203-.662 2.738-.662 1.775 0 3.068.722 1.325.723 2.016 2.257.722 1.504.722 3.971v8.454h-2.858v-7.702q0-2.046-.481-3.099-.451-1.083-1.294-1.504-.812-.421-1.895-.451-1.836 0-2.858 1.294-1.023 1.293-1.023 3.64v7.822zm21.834.361q-2.256 0-3.49-1.143-1.233-1.174-1.233-3.34v-8.454h-2.557v-2.467h2.557v-4.693h2.858v4.693h4.272v2.467h-4.272v8.033q0 1.113.542 1.715.571.571 1.624.571.301 0 .662-.12t.872-.481l1.083 2.226a6.5 6.5 0 0 1-1.504.752 4.3 4.3 0 0 1-1.414.241m22.304 5.656v-8.424a5.8 5.8 0 0 1-2.076 2.046q-1.263.722-2.858.722-2.045 0-3.58-.993-1.504-.993-2.376-2.768-.843-1.775-.843-4.121 0-2.378.843-4.122.872-1.775 2.376-2.768 1.535-.993 3.58-.993 1.625 0 2.888.753a5.7 5.7 0 0 1 2.076 2.075l.121-2.467h2.677v21.06zm-4.272-8.243q1.264 0 2.226-.662.963-.692 1.505-1.866.541-1.203.541-2.767 0-1.565-.541-2.738-.542-1.203-1.505-1.865-.962-.692-2.256-.692-1.324 0-2.346.692-1.023.662-1.595 1.865-.572 1.173-.572 2.738t.572 2.767a4.9 4.9 0 0 0 1.625 1.866q1.023.662 2.346.662m15.442 2.587q-1.744 0-3.039-.722-1.293-.723-2.015-2.257-.723-1.533-.722-3.971v-8.454h2.858v7.702q0 2.016.451 3.099.481 1.083 1.324 1.504.842.421 1.895.451 1.835 0 2.858-1.293 1.023-1.294 1.023-3.641v-7.822h2.828v15.043h-2.647l-.121-2.196a5.2 5.2 0 0 1-1.955 1.895q-1.173.662-2.738.662m17.262 0q-2.196 0-3.881-.993a7.25 7.25 0 0 1-2.648-2.798q-.962-1.775-.962-4.091t.962-4.092q.963-1.775 2.648-2.768 1.715-1.023 3.911-1.023 2.076 0 3.64 1.053 1.564 1.023 2.437 2.949.902 1.895.902 4.482h-11.582q.15 2.227 1.474 3.49 1.354 1.234 3.309 1.234 1.504 0 2.497-.692a5.1 5.1 0 0 0 1.595-1.805l2.467 1.143a7.6 7.6 0 0 1-1.565 2.076 6.9 6.9 0 0 1-2.286 1.354q-1.294.48-2.918.481m-4.393-9.537h8.334q-.09-1.203-.662-2.016a3.65 3.65 0 0 0-1.414-1.293q-.842-.452-1.895-.452a4.6 4.6 0 0 0-1.986.452 4.16 4.16 0 0 0-1.625 1.263q-.631.843-.752 2.046M47.113 215.59v-21.06h2.858v21.06zm10.794.361q-2.679 0-4.182-1.204-1.474-1.233-1.474-3.399 0-2.316 1.534-3.52 1.565-1.234 4.332-1.234h4.031q-.18-1.925-1.023-2.888-.811-.992-2.466-.992-1.175 0-2.046.481-.843.481-1.414 1.504l-2.527-.963a7.1 7.1 0 0 1 1.354-1.805 5.7 5.7 0 0 1 1.955-1.263q1.143-.482 2.678-.482 2.136 0 3.55.843 1.413.842 2.105 2.437.723 1.594.693 3.941l-.03 8.183h-2.648l-.09-1.926a4.7 4.7 0 0 1-1.745 1.685q-1.083.602-2.587.602m.24-2.437q1.234 0 2.136-.511a3.84 3.84 0 0 0 1.414-1.475q.512-.961.512-2.196v-.481h-3.31q-2.076 0-2.918.662-.843.632-.842 1.775 0 1.053.782 1.654.812.572 2.226.572m16.824 2.076v-21.06h12.756v2.708h-9.808v6.619h8.544v2.707H77.92v9.026zm15.076 0v-15.043h2.858v15.043zm1.444-18.232q-.691 0-1.204-.511-.51-.541-.51-1.233 0-.723.51-1.204a1.65 1.65 0 0 1 1.204-.511q.721 0 1.203.511.512.481.512 1.204 0 .692-.512 1.233-.48.511-1.203.511m4.767 18.232v-15.043h2.678l.12 2.197q.752-1.234 1.925-1.896 1.204-.662 2.738-.662 1.775 0 3.069.722 1.323.723 2.015 2.257.723 1.504.722 3.971v8.454h-2.858v-7.702q0-2.046-.481-3.099-.451-1.083-1.294-1.504-.812-.421-1.895-.451-1.835 0-2.858 1.294-1.023 1.293-1.023 3.64v7.822zm16.028 0v-21.06h2.858v21.06zm10.794.361q-2.677 0-4.182-1.204-1.474-1.233-1.474-3.399 0-2.316 1.534-3.52 1.564-1.234 4.333-1.234h4.031q-.18-1.925-1.023-2.888-.812-.992-2.467-.992-1.173 0-2.046.481-.841.481-1.414 1.504l-2.527-.963a7.1 7.1 0 0 1 1.354-1.805 5.7 5.7 0 0 1 1.956-1.263q1.143-.482 2.677-.482 2.137 0 3.55.843 1.415.842 2.106 2.437.722 1.594.692 3.941l-.03 8.183h-2.647l-.091-1.926a4.7 4.7 0 0 1-1.745 1.685q-1.083.602-2.587.602m.241-2.437q1.233 0 2.136-.511a3.85 3.85 0 0 0 1.414-1.475q.511-.961.511-2.196v-.481h-3.309q-2.076 0-2.918.662-.843.632-.843 1.775 0 1.053.783 1.654.812.572 2.226.572m9.622 2.076v-15.043h2.678l.12 2.197q.752-1.234 1.926-1.896 1.203-.662 2.737-.662 1.776 0 3.069.722 1.323.723 2.016 2.257.722 1.504.722 3.971v8.454h-2.858v-7.702q0-2.046-.482-3.099-.451-1.083-1.293-1.504-.813-.421-1.896-.451-1.835 0-2.858 1.294-1.023 1.293-1.023 3.64v7.822zm21.985.361q-2.046 0-3.58-.993-1.504-.993-2.377-2.768-.842-1.775-.842-4.121 0-2.377.842-4.122.873-1.775 2.377-2.768 1.534-.993 3.58-.993 1.595 0 2.858.722 1.264.723 2.076 2.046v-8.424h2.828v21.06h-2.708l-.09-2.437a6.05 6.05 0 0 1-2.076 2.076q-1.263.722-2.888.722m.662-2.587q1.233 0 2.166-.662.963-.663 1.504-1.805.572-1.174.602-2.678v-.301q-.03-1.504-.602-2.647-.541-1.173-1.504-1.835-.933-.663-2.196-.662-1.323 0-2.347.692-1.023.662-1.594 1.865-.572 1.173-.572 2.738t.572 2.767a4.9 4.9 0 0 0 1.624 1.866q1.024.662 2.347.662m16.881 2.587q-2.196 0-3.881-.993a7.24 7.24 0 0 1-2.647-2.798q-.963-1.775-.963-4.091t.963-4.092q.962-1.775 2.647-2.768 1.715-1.023 3.911-1.023 2.076 0 3.64 1.053 1.565 1.023 2.437 2.949.903 1.895.903 4.482h-11.583q.15 2.227 1.474 3.49 1.354 1.234 3.31 1.234 1.504 0 2.497-.692a5.1 5.1 0 0 0 1.594-1.805l2.467 1.143a7.6 7.6 0 0 1-1.564 2.076 6.9 6.9 0 0 1-2.287 1.354q-1.293.48-2.918.481m-4.392-9.537h8.333q-.09-1.203-.662-2.016a3.65 3.65 0 0 0-1.414-1.293q-.842-.452-1.895-.452a4.6 4.6 0 0 0-1.986.452 4.16 4.16 0 0 0-1.624 1.263q-.632.843-.752 2.046m26.698 9.537q-2.256 0-3.971-.993a7.4 7.4 0 0 1-2.708-2.798q-.963-1.775-.963-4.091t.963-4.092a6.97 6.97 0 0 1 2.678-2.768q1.715-1.023 3.941-1.023t3.941 1.023a6.97 6.97 0 0 1 2.677 2.768q.963 1.775.963 4.092t-.963 4.091a7.2 7.2 0 0 1-2.677 2.798q-1.685.993-3.881.993m0-2.618q1.353 0 2.407-.661a4.6 4.6 0 0 0 1.624-1.866q.602-1.173.602-2.737t-.602-2.738a4.3 4.3 0 0 0-1.654-1.835q-1.084-.692-2.437-.692-1.384 0-2.437.692-1.053.662-1.655 1.835-.601 1.173-.601 2.738t.601 2.737a4.73 4.73 0 0 0 1.685 1.866q1.083.661 2.467.661m15.232 2.618q-1.745 0-3.039-.722-1.293-.723-2.015-2.257-.722-1.533-.722-3.971v-8.454h2.858v7.702q0 2.016.451 3.099.481 1.083 1.324 1.504.842.421 1.895.451 1.835 0 2.858-1.293 1.023-1.294 1.023-3.641v-7.822h2.828v15.043h-2.648l-.12-2.196a5.2 5.2 0 0 1-1.956 1.895q-1.173.662-2.737.662m17.122-.361v-21.06h2.858v21.06zm10.794.361q-2.678 0-4.182-1.204-1.474-1.233-1.474-3.399 0-2.316 1.534-3.52 1.565-1.234 4.332-1.234h4.032q-.182-1.925-1.023-2.888-.813-.992-2.467-.992-1.173 0-2.046.481-.842.481-1.414 1.504l-2.527-.963a7.1 7.1 0 0 1 1.354-1.805 5.7 5.7 0 0 1 1.955-1.263q1.144-.482 2.678-.482 2.136 0 3.55.843 1.415.842 2.106 2.437.722 1.594.692 3.941l-.03 8.183h-2.648l-.09-1.926a4.7 4.7 0 0 1-1.745 1.685q-1.083.602-2.587.602m.24-2.437q1.234 0 2.137-.511a3.84 3.84 0 0 0 1.413-1.475q.512-.961.512-2.196v-.481h-3.309q-2.076 0-2.919.662-.842.632-.842 1.775 0 1.053.782 1.654.813.572 2.226.572m16.824 2.076v-21.06h6.769q2.166 0 3.701.662 1.565.662 2.406 1.956.873 1.293.873 3.189 0 1.444-.692 2.587-.662 1.113-1.865 1.835 1.565.753 2.376 2.016.843 1.263.843 3.008 0 1.836-.843 3.159-.812 1.294-2.316 1.986-1.504.662-3.61.662zm2.918-2.678h4.543q1.866 0 2.888-.872 1.053-.903 1.053-2.407 0-1.685-1.203-2.587-1.173-.933-3.309-.933h-3.972zm0-9.326h4.333q1.624 0 2.557-.872.962-.873.962-2.407 0-1.595-1.083-2.437-1.082-.873-3.038-.873h-3.731zm20.595 12.365q-2.196 0-3.881-.993a7.25 7.25 0 0 1-2.648-2.798q-.962-1.775-.962-4.091t.962-4.092q.963-1.775 2.648-2.768 1.715-1.023 3.911-1.023 2.076 0 3.64 1.053 1.564 1.023 2.437 2.949.903 1.895.903 4.482h-11.583q.15 2.227 1.474 3.49 1.354 1.234 3.309 1.234 1.505 0 2.497-.692a5.1 5.1 0 0 0 1.595-1.805l2.467 1.143a7.6 7.6 0 0 1-1.564 2.076 6.9 6.9 0 0 1-2.287 1.354q-1.293.48-2.918.481m-4.393-9.537h8.334q-.09-1.203-.662-2.016a3.65 3.65 0 0 0-1.414-1.293q-.842-.452-1.895-.452a4.6 4.6 0 0 0-1.986.452 4.15 4.15 0 0 0-1.624 1.263q-.632.843-.753 2.046m13.39 9.176v-21.06h2.858v21.06zm12.208 6.408q-1.504 0-2.737-.301-1.234-.27-2.076-.632-.843-.36-1.264-.632l1.083-2.316q.392.24 1.113.541a8.3 8.3 0 0 0 1.685.542q.963.24 2.136.241 1.384 0 2.467-.572 1.083-.542 1.685-1.715.632-1.173.632-3.008v-1.565a5.7 5.7 0 0 1-2.076 2.076q-1.294.722-2.918.722-2.046 0-3.581-.932-1.504-.963-2.376-2.648-.843-1.715-.843-3.941 0-2.316.843-4.031.872-1.715 2.376-2.678 1.535-.963 3.581-.963 1.624 0 2.918.753 1.293.722 2.076 2.105v-2.497h2.858v13.539q0 2.587-.993 4.332-.962 1.775-2.678 2.677-1.685.903-3.911.903m.452-9.026q1.263 0 2.196-.661.932-.692 1.474-1.836.541-1.173.541-2.677t-.541-2.648q-.542-1.143-1.504-1.775-.933-.661-2.197-.661-1.323 0-2.346.661-.993.632-1.565 1.775-.571 1.144-.571 2.648t.571 2.677a5.1 5.1 0 0 0 1.595 1.836q1.023.661 2.347.661m10.44 2.618v-15.043h2.858v15.043zm1.444-18.232q-.692 0-1.203-.511-.512-.541-.512-1.233 0-.723.512-1.204a1.65 1.65 0 0 1 1.203-.511q.723 0 1.204.511.511.481.511 1.204 0 .692-.511 1.233a1.58 1.58 0 0 1-1.204.511m15.658 24.249v-8.424a5.8 5.8 0 0 1-2.076 2.046q-1.263.722-2.858.722-2.046 0-3.58-.993-1.504-.993-2.377-2.768-.842-1.775-.842-4.121 0-2.377.842-4.122.873-1.775 2.377-2.768 1.534-.993 3.58-.993 1.625 0 2.888.753a5.7 5.7 0 0 1 2.076 2.075l.12-2.467h2.678v21.06zm-4.272-8.243q1.263 0 2.226-.662.963-.692 1.505-1.866.541-1.203.541-2.767 0-1.565-.541-2.738-.542-1.203-1.505-1.865-.963-.692-2.256-.692-1.324 0-2.347.692-1.023.662-1.594 1.865-.572 1.173-.572 2.738t.572 2.767a4.9 4.9 0 0 0 1.624 1.866q1.024.662 2.347.662m15.442 2.587q-1.745 0-3.039-.722-1.293-.723-2.015-2.257-.723-1.533-.722-3.971v-8.454h2.858v7.702q0 2.016.451 3.099.481 1.083 1.324 1.504.842.421 1.895.451 1.835 0 2.858-1.293 1.023-1.294 1.023-3.641v-7.822h2.828v15.043h-2.648l-.12-2.196a5.2 5.2 0 0 1-1.955 1.895q-1.174.662-2.738.662m17.261 0q-2.196 0-3.88-.993a7.25 7.25 0 0 1-2.648-2.798q-.963-1.775-.963-4.091t.963-4.092 2.648-2.768q1.714-1.023 3.911-1.023 2.075 0 3.64 1.053 1.564 1.023 2.437 2.949.902 1.895.902 4.482H351.56q.15 2.227 1.474 3.49 1.353 1.234 3.309 1.234 1.504 0 2.497-.692a5.1 5.1 0 0 0 1.595-1.805l2.467 1.143a7.6 7.6 0 0 1-1.565 2.076 6.9 6.9 0 0 1-2.286 1.354q-1.294.48-2.919.481m-4.392-9.537h8.334q-.091-1.203-.662-2.016a3.66 3.66 0 0 0-1.414-1.293q-.843-.452-1.896-.452-1.023 0-1.985.452a4.16 4.16 0 0 0-1.625 1.263q-.632.843-.752 2.046m14.684 9.597q-.753 0-1.324-.541a1.8 1.8 0 0 1-.542-1.324 1.8 1.8 0 0 1 .542-1.324 1.87 1.87 0 0 1 1.324-.541 1.8 1.8 0 0 1 1.323.541q.572.541.572 1.324 0 .781-.572 1.324a1.8 1.8 0 0 1-1.323.541M45.398 251.59l8.484-21.06h3.159l8.483 21.06h-3.159l-2.256-5.626h-9.296l-2.256 5.626zm6.438-8.273h7.25l-3.61-9.056zm3.73-14.2-3.94-4.002h3.459l3.58 4.002zm23.68 22.834q-2.256 0-3.49-1.143-1.233-1.174-1.233-3.34v-8.454h-2.557v-2.467h2.557v-4.693h2.858v4.693h4.272v2.467h-4.272v8.033q0 1.113.541 1.715.572.571 1.625.571.3 0 .662-.12.36-.12.872-.481l1.084 2.226a6.6 6.6 0 0 1-1.505.752 4.3 4.3 0 0 1-1.414.241m5.085-.361v-15.043h2.858v15.043zm1.444-18.232q-.692 0-1.203-.511-.512-.541-.512-1.233 0-.723.512-1.204.51-.511 1.203-.511.721 0 1.203.511.512.481.512 1.204 0 .692-.512 1.233a1.58 1.58 0 0 1-1.203.511m10.573 18.593q-2.256 0-3.49-1.143-1.233-1.174-1.233-3.34v-8.454h-2.557v-2.467h2.557v-4.693h2.858v4.693h4.272v2.467h-4.272v8.033q0 1.113.542 1.715.57.571 1.624.571.3 0 .662-.12.36-.12.873-.481l1.083 2.226a6.6 6.6 0 0 1-1.505.752 4.3 4.3 0 0 1-1.414.241m4.905-.361v-15.043h2.858v2.708q.901-1.415 2.316-2.076a6.9 6.9 0 0 1 3.009-.692v2.708a8 8 0 0 0-2.588.421 4.25 4.25 0 0 0-1.985 1.324q-.752.903-.752 2.467v8.183zm16.301.361q-2.196 0-3.881-.993a7.24 7.24 0 0 1-2.647-2.798q-.963-1.775-.963-4.091t.963-4.092 2.647-2.768q1.715-1.023 3.911-1.023 2.076 0 3.64 1.053 1.565 1.023 2.437 2.949.903 1.895.903 4.482h-11.583q.15 2.227 1.474 3.49 1.354 1.234 3.31 1.234 1.503 0 2.497-.692a5.1 5.1 0 0 0 1.594-1.805l2.467 1.143a7.5 7.5 0 0 1-1.564 2.076 6.9 6.9 0 0 1-2.287 1.354q-1.293.48-2.918.481m-4.392-9.537h8.333q-.09-1.203-.662-2.016a3.65 3.65 0 0 0-1.414-1.293q-.842-.452-1.895-.452a4.6 4.6 0 0 0-1.986.452 4.16 4.16 0 0 0-1.624 1.263q-.632.843-.752 2.046m25.856 9.537q-2.046 0-3.581-.993-1.504-.993-2.376-2.768-.843-1.775-.843-4.121 0-2.377.843-4.122.872-1.775 2.376-2.768 1.535-.993 3.581-.993 1.594 0 2.858.722 1.263.723 2.075 2.046v-8.424h2.828v21.06h-2.707l-.09-2.437a6.06 6.06 0 0 1-2.076 2.076q-1.264.722-2.888.722m.661-2.587q1.234 0 2.167-.662.962-.663 1.504-1.805.571-1.174.601-2.678v-.301q-.03-1.504-.601-2.647-.542-1.173-1.504-1.835-.933-.663-2.197-.662-1.323 0-2.346.692-1.023.662-1.595 1.865-.571 1.173-.571 2.738t.571 2.767a4.9 4.9 0 0 0 1.625 1.866q1.023.662 2.346.662m16.881 2.587q-2.195 0-3.881-.993a7.25 7.25 0 0 1-2.647-2.798q-.963-1.775-.963-4.091t.963-4.092 2.647-2.768q1.716-1.023 3.911-1.023 2.076 0 3.641 1.053 1.564 1.023 2.437 2.949.902 1.895.902 4.482h-11.583q.151 2.227 1.475 3.49 1.353 1.234 3.309 1.234 1.504 0 2.497-.692a5.1 5.1 0 0 0 1.594-1.805l2.467 1.143a7.5 7.5 0 0 1-1.564 2.076 6.9 6.9 0 0 1-2.286 1.354q-1.294.48-2.919.481m-4.392-9.537h8.333q-.09-1.203-.661-2.016a3.66 3.66 0 0 0-1.414-1.293q-.843-.452-1.896-.452-1.023 0-1.985.452a4.16 4.16 0 0 0-1.625 1.263q-.632.843-.752 2.046m26.758 9.537q-2.256 0-4.001-.993a7.34 7.34 0 0 1-2.738-2.798q-.962-1.775-.962-4.091t.962-4.092a7.2 7.2 0 0 1 2.708-2.768q1.745-1.023 3.971-1.023 2.196 0 3.941 1.023 1.775 1.023 2.648 2.919l-2.588 1.083a4.2 4.2 0 0 0-1.654-1.745q-1.053-.632-2.437-.632-1.354 0-2.407.662t-1.654 1.865q-.602 1.173-.602 2.708 0 1.534.602 2.707a4.74 4.74 0 0 0 1.684 1.866q1.084.661 2.437.661 1.384 0 2.467-.692a4.47 4.47 0 0 0 1.625-1.925l2.617 1.053q-.873 1.986-2.647 3.099-1.745 1.113-3.972 1.113m15.41 0q-2.256 0-3.971-.993a7.4 7.4 0 0 1-2.708-2.798q-.962-1.775-.962-4.091t.962-4.092a7 7 0 0 1 2.678-2.768q1.715-1.023 3.941-1.023t3.941 1.023a7 7 0 0 1 2.678 2.768q.962 1.775.962 4.092t-.962 4.091a7.2 7.2 0 0 1-2.678 2.798q-1.685.993-3.881.993m0-2.618q1.354 0 2.407-.661a4.6 4.6 0 0 0 1.625-1.866q.601-1.173.601-2.737t-.601-2.738a4.3 4.3 0 0 0-1.655-1.835q-1.083-.692-2.437-.692-1.384 0-2.437.692-1.052.662-1.655 1.835-.601 1.173-.601 2.738t.601 2.737a4.74 4.74 0 0 0 1.685 1.866q1.083.661 2.467.661m9.817 2.257v-15.043h2.677l.121 2.076q.722-1.203 1.805-1.805 1.083-.632 2.497-.632 1.805 0 3.068.843 1.264.812 1.836 2.497.662-1.625 1.865-2.467 1.203-.873 2.858-.873 2.558 0 4.001 1.685 1.444 1.655 1.414 5.115v8.604h-2.828v-7.702q0-2.046-.451-3.099-.422-1.083-1.143-1.504t-1.685-.451q-1.685 0-2.617 1.294-.903 1.293-.903 3.64v7.822h-2.858v-7.702q0-2.046-.421-3.099-.421-1.083-1.173-1.504-.723-.421-1.685-.451-1.685 0-2.618 1.294-.902 1.293-.902 3.64v7.822zm25.11 6.017v-21.06h2.677l.151 2.437q.811-1.323 2.076-2.045 1.263-.753 2.888-.753 2.016 0 3.55.993t2.377 2.768q.872 1.745.872 4.122 0 2.346-.872 4.121-.843 1.775-2.377 2.768t-3.55.993q-1.625 0-2.888-.722a6.2 6.2 0 0 1-2.046-2.046v8.424zm7.1-8.243q1.353 0 2.377-.662a4.7 4.7 0 0 0 1.594-1.866q.602-1.203.602-2.767 0-1.565-.572-2.738-.571-1.203-1.594-1.865-1.023-.692-2.377-.692-1.233 0-2.226.692-.963.662-1.505 1.865t-.541 2.738q0 1.564.541 2.767.542 1.174 1.505 1.866.962.662 2.196.662m14.59 2.587q-2.677 0-4.182-1.204-1.474-1.233-1.474-3.399 0-2.316 1.534-3.52 1.564-1.234 4.333-1.234h4.031q-.18-1.925-1.023-2.888-.812-.992-2.467-.992-1.173 0-2.046.481-.841.481-1.414 1.504l-2.527-.963a7.1 7.1 0 0 1 1.354-1.805 5.7 5.7 0 0 1 1.956-1.263q1.143-.482 2.677-.482 2.137 0 3.55.843 1.414.842 2.106 2.437.722 1.594.692 3.941l-.03 8.183h-2.647l-.091-1.926a4.7 4.7 0 0 1-1.745 1.685q-1.083.602-2.587.602m.241-2.437q1.233 0 2.136-.511a3.85 3.85 0 0 0 1.414-1.475q.511-.961.511-2.196v-.481h-3.309q-2.076 0-2.918.662-.843.632-.843 1.775 0 1.053.783 1.654.811.572 2.226.572m9.622 2.076v-15.043h2.858v2.708q.903-1.415 2.317-2.076a6.9 6.9 0 0 1 3.008-.692v2.708q-1.353 0-2.587.421a4.25 4.25 0 0 0-1.986 1.324q-.752.903-.752 2.467v8.183zm14.467.361q-2.678 0-4.182-1.204-1.474-1.233-1.474-3.399 0-2.316 1.534-3.52 1.565-1.234 4.332-1.234h4.032q-.181-1.925-1.023-2.888-.813-.992-2.467-.992-1.173 0-2.046.481-.843.481-1.414 1.504l-2.527-.963a7.1 7.1 0 0 1 1.354-1.805 5.7 5.7 0 0 1 1.955-1.263q1.143-.482 2.678-.482 2.136 0 3.55.843 1.413.842 2.106 2.437.722 1.594.692 3.941l-.03 8.183h-2.648l-.09-1.926a4.7 4.7 0 0 1-1.745 1.685q-1.083.602-2.587.602m.24-2.437q1.235 0 2.136-.511a3.84 3.84 0 0 0 1.414-1.475q.512-.961.512-2.196v-.481h-3.31q-2.075 0-2.918.662-.842.632-.842 1.775 0 1.053.782 1.654.813.572 2.226.572m9.803 2.076v-15.043h2.858v15.043zm1.444-18.232q-.692 0-1.203-.511-.511-.541-.511-1.233 0-.723.511-1.204a1.65 1.65 0 0 1 1.203-.511q.723 0 1.204.511.511.481.511 1.204 0 .692-.511 1.233a1.58 1.58 0 0 1-1.204.511m10.153 18.593q-1.595 0-2.858-.481-1.234-.482-2.106-1.294a5.4 5.4 0 0 1-1.264-1.835l2.467-1.083q.481.932 1.444 1.534a3.95 3.95 0 0 0 2.136.602q1.295 0 2.136-.482.843-.481.843-1.354 0-.842-.632-1.323-.632-.482-1.835-.782l-1.414-.361q-2.106-.573-3.28-1.715-1.143-1.143-1.143-2.588 0-2.196 1.414-3.399t4.182-1.204q1.353 0 2.467.392 1.143.39 1.925 1.113a3.9 3.9 0 0 1 1.144 1.715l-2.407 1.083a2.42 2.42 0 0 0-1.234-1.324q-.871-.451-2.046-.451-1.203 0-1.895.541-.692.511-.692 1.444 0 .512.572.993.602.452 1.745.752l1.624.391q1.474.362 2.437 1.113.963.722 1.444 1.655.482.902.482 1.895 0 1.354-.753 2.377-.722.993-2.015 1.534-1.264.542-2.888.542m14.592 0q-2.256 0-3.971-.993a7.4 7.4 0 0 1-2.708-2.798q-.963-1.775-.963-4.091t.963-4.092a7 7 0 0 1 2.678-2.768q1.715-1.023 3.941-1.023t3.941 1.023a6.97 6.97 0 0 1 2.677 2.768q.963 1.775.963 4.092t-.963 4.091a7.2 7.2 0 0 1-2.677 2.798q-1.685.993-3.881.993m0-2.618q1.354 0 2.407-.661a4.6 4.6 0 0 0 1.624-1.866q.603-1.173.602-2.737 0-1.565-.602-2.738a4.3 4.3 0 0 0-1.654-1.835q-1.084-.692-2.437-.692-1.384 0-2.437.692-1.053.662-1.655 1.835-.601 1.173-.601 2.738t.601 2.737a4.73 4.73 0 0 0 1.685 1.866q1.083.661 2.467.661m9.817 2.257v-15.043h2.677l.121 2.197q.752-1.234 1.925-1.896 1.203-.662 2.738-.662 1.775 0 3.068.722 1.325.723 2.016 2.257.722 1.504.722 3.971v8.454h-2.858v-7.702q0-2.046-.481-3.099-.451-1.083-1.294-1.504-.812-.421-1.895-.451-1.836 0-2.858 1.294-1.023 1.293-1.023 3.64v7.822zm15.155 3.46 1.745-6.559h3.099l-2.527 6.559zm13.627-3.46v-21.06h2.858v21.06zm12.629.361q-2.196 0-3.881-.993a7.25 7.25 0 0 1-2.648-2.798q-.962-1.775-.962-4.091t.962-4.092q.963-1.775 2.648-2.768 1.715-1.023 3.911-1.023 2.076 0 3.64 1.053 1.564 1.023 2.437 2.949.903 1.895.903 4.482H358.17q.15 2.227 1.474 3.49 1.354 1.234 3.309 1.234 1.505 0 2.498-.692a5.1 5.1 0 0 0 1.594-1.805l2.467 1.143a7.6 7.6 0 0 1-1.564 2.076 6.9 6.9 0 0 1-2.287 1.354q-1.293.48-2.918.481m-4.392-9.537h8.333q-.09-1.203-.662-2.016a3.65 3.65 0 0 0-1.414-1.293q-.842-.452-1.895-.452a4.6 4.6 0 0 0-1.986.452 4.15 4.15 0 0 0-1.624 1.263q-.633.843-.752 2.046m29.556 9.537q-3.009 0-5.355-1.384a9.97 9.97 0 0 1-3.671-3.851q-1.323-2.467-1.323-5.656t1.323-5.626q1.324-2.466 3.641-3.851 2.316-1.413 5.325-1.414 1.955 0 3.73.723a10.1 10.1 0 0 1 3.159 1.955 8.4 8.4 0 0 1 2.166 2.888l-2.647 1.204a6.6 6.6 0 0 0-1.565-2.136 7.5 7.5 0 0 0-2.256-1.414 6.7 6.7 0 0 0-2.587-.512q-2.106 0-3.761 1.053-1.654 1.053-2.587 2.888-.933 1.836-.933 4.242 0 2.408.933 4.272.963 1.865 2.617 2.918 1.685 1.023 3.821 1.023 1.384 0 2.617-.541a7.6 7.6 0 0 0 2.196-1.535 8.1 8.1 0 0 0 1.595-2.256l2.647 1.173a9.4 9.4 0 0 1-2.136 3.039 10.3 10.3 0 0 1-3.189 2.076 9.9 9.9 0 0 1-3.76.722m16.032 0q-2.678 0-4.182-1.204-1.474-1.233-1.474-3.399 0-2.316 1.534-3.52 1.564-1.234 4.333-1.234h4.031q-.18-1.925-1.023-2.888-.812-.992-2.467-.992-1.173 0-2.046.481-.842.481-1.414 1.504l-2.527-.963a7.1 7.1 0 0 1 1.354-1.805 5.7 5.7 0 0 1 1.956-1.263q1.143-.482 2.677-.482 2.136 0 3.55.843 1.414.842 2.106 2.437.722 1.594.692 3.941l-.03 8.183h-2.648l-.09-1.926a4.7 4.7 0 0 1-1.745 1.685q-1.083.602-2.587.602m.241-2.437q1.233 0 2.136-.511a3.85 3.85 0 0 0 1.414-1.475q.511-.961.511-2.196v-.481h-3.309q-2.076 0-2.918.662-.843.632-.843 1.775 0 1.053.782 1.654.813.572 2.227.572m9.622 2.076v-15.043h2.678l.12 2.197q.752-1.234 1.925-1.896 1.204-.662 2.738-.662 1.775 0 3.069.722 1.323.723 2.016 2.257.722 1.504.722 3.971v8.454h-2.859v-7.702q0-2.046-.481-3.099-.451-1.083-1.294-1.504-.812-.421-1.895-.451-1.835 0-2.858 1.294-1.023 1.293-1.023 3.64v7.822zm20.842.361q-2.678 0-4.182-1.204-1.474-1.233-1.474-3.399 0-2.316 1.534-3.52 1.564-1.234 4.333-1.234h4.031q-.18-1.925-1.023-2.888-.813-.992-2.467-.992-1.173 0-2.046.481-.842.481-1.414 1.504l-2.527-.963a7.1 7.1 0 0 1 1.354-1.805 5.7 5.7 0 0 1 1.955-1.263q1.144-.482 2.678-.482 2.136 0 3.55.843 1.414.842 2.106 2.437.722 1.594.692 3.941l-.03 8.183h-2.648l-.09-1.926a4.7 4.7 0 0 1-1.745 1.685q-1.083.602-2.587.602m.241-2.437q1.233 0 2.136-.511a3.85 3.85 0 0 0 1.414-1.475q.511-.961.511-2.196v-.481h-3.309q-2.076 0-2.919.662-.842.632-.842 1.775 0 1.053.782 1.654.813.572 2.227.572m15.579 2.437q-2.046 0-3.58-.993-1.504-.993-2.377-2.768-.842-1.775-.842-4.121 0-2.377.842-4.122.873-1.775 2.377-2.768 1.534-.993 3.58-.993 1.595 0 2.858.722 1.263.723 2.076 2.046v-8.424h2.828v21.06h-2.708l-.09-2.437a6.06 6.06 0 0 1-2.076 2.076q-1.263.722-2.888.722m.662-2.587q1.233 0 2.166-.662.963-.663 1.504-1.805.572-1.174.602-2.678v-.301q-.03-1.504-.602-2.647-.541-1.173-1.504-1.835-.933-.663-2.196-.662-1.324 0-2.347.692-1.023.662-1.594 1.865-.572 1.173-.572 2.738t.572 2.767a4.9 4.9 0 0 0 1.624 1.866q1.023.662 2.347.662m15.045 2.587q-2.677 0-4.181-1.204-1.474-1.233-1.474-3.399 0-2.316 1.534-3.52 1.565-1.234 4.332-1.234h4.031q-.18-1.925-1.022-2.888-.813-.992-2.467-.992-1.175 0-2.046.481-.843.481-1.414 1.504l-2.527-.963a7.1 7.1 0 0 1 1.354-1.805 5.7 5.7 0 0 1 1.955-1.263q1.143-.482 2.678-.482 2.136 0 3.55.843 1.413.842 2.106 2.437.722 1.594.691 3.941l-.03 8.183h-2.647l-.09-1.926a4.7 4.7 0 0 1-1.745 1.685q-1.083.602-2.588.602m.241-2.437q1.233 0 2.136-.511a3.84 3.84 0 0 0 1.414-1.475q.512-.961.512-2.196v-.481h-3.31q-2.076 0-2.918.662-.842.632-.842 1.775 0 1.053.782 1.654.812.572 2.226.572M51.926 287.951q-2.677 0-4.182-1.204-1.474-1.233-1.474-3.399 0-2.317 1.534-3.52 1.564-1.234 4.333-1.234h4.031q-.18-1.925-1.023-2.888-.812-.992-2.467-.992-1.173 0-2.045.481-.843.481-1.415 1.504l-2.527-.963a7.1 7.1 0 0 1 1.354-1.805 5.7 5.7 0 0 1 1.956-1.263q1.143-.482 2.677-.482 2.136 0 3.55.843 1.415.842 2.106 2.437.722 1.594.692 3.941l-.03 8.183h-2.647l-.09-1.926a4.7 4.7 0 0 1-1.746 1.685q-1.083.602-2.587.602m.24-2.437q1.234 0 2.137-.511a3.84 3.84 0 0 0 1.414-1.475q.51-.962.511-2.196v-.481h-3.31q-2.075 0-2.917.662-.843.632-.843 1.775 0 1.053.782 1.654.813.572 2.227.572m22.992 2.437q-2.256 0-4.002-.993a7.33 7.33 0 0 1-2.737-2.798q-.963-1.775-.963-4.091 0-2.318.963-4.092a7.2 7.2 0 0 1 2.707-2.768q1.745-1.023 3.972-1.023 2.197 0 3.94 1.023 1.776 1.023 2.648 2.919l-2.587 1.083a4.2 4.2 0 0 0-1.655-1.745q-1.053-.633-2.437-.632-1.353 0-2.406.662t-1.655 1.865q-.602 1.173-.602 2.708 0 1.534.602 2.707a4.74 4.74 0 0 0 1.685 1.866q1.083.661 2.436.661 1.385 0 2.468-.692a4.47 4.47 0 0 0 1.624-1.925l2.617 1.053q-.872 1.986-2.647 3.099-1.745 1.113-3.971 1.113m15.41 0q-2.257 0-3.972-.993a7.4 7.4 0 0 1-2.707-2.798q-.963-1.775-.963-4.091 0-2.318.963-4.092a7 7 0 0 1 2.677-2.768q1.715-1.023 3.941-1.023t3.941 1.023a7 7 0 0 1 2.678 2.768q.963 1.774.963 4.092 0 2.316-.963 4.091a7.2 7.2 0 0 1-2.678 2.798q-1.684.993-3.88.993m0-2.618q1.353 0 2.406-.661a4.6 4.6 0 0 0 1.625-1.866q.602-1.173.602-2.737t-.602-2.738a4.3 4.3 0 0 0-1.655-1.835q-1.083-.692-2.437-.692-1.384 0-2.436.692-1.053.662-1.655 1.835t-.602 2.738.602 2.737a4.73 4.73 0 0 0 1.685 1.866q1.083.661 2.467.661m9.816 2.257v-15.043h2.678l.12 2.197q.752-1.234 1.926-1.896 1.203-.662 2.737-.662 1.775 0 3.069.722 1.323.723 2.016 2.257.722 1.504.722 3.971v8.454h-2.858v-7.702q0-2.046-.482-3.099-.451-1.083-1.293-1.504-.813-.421-1.896-.451-1.835 0-2.858 1.294-1.023 1.293-1.023 3.64v7.822zm21.414.361q-1.595 0-2.858-.481-1.234-.482-2.106-1.294a5.4 5.4 0 0 1-1.264-1.835l2.467-1.083q.481.932 1.444 1.534a3.95 3.95 0 0 0 2.136.602q1.294 0 2.136-.482.842-.481.842-1.354 0-.841-.631-1.323-.632-.482-1.835-.782l-1.414-.361q-2.106-.572-3.28-1.715-1.143-1.143-1.143-2.588 0-2.196 1.414-3.399t4.182-1.204q1.353 0 2.467.392 1.143.39 1.925 1.113a3.9 3.9 0 0 1 1.143 1.715l-2.406 1.083a2.42 2.42 0 0 0-1.234-1.324q-.872-.451-2.046-.451-1.203 0-1.895.541-.692.511-.692 1.444 0 .512.572.993.602.452 1.745.752l1.624.391q1.474.361 2.437 1.113.963.723 1.444 1.655.482.902.482 1.895 0 1.354-.753 2.377-.722.993-2.015 1.534-1.264.542-2.888.542m14.592 0q-2.256 0-3.971-.993a7.4 7.4 0 0 1-2.708-2.798q-.963-1.775-.963-4.091 0-2.318.963-4.092a6.97 6.97 0 0 1 2.678-2.768q1.715-1.023 3.941-1.023t3.941 1.023a6.97 6.97 0 0 1 2.677 2.768q.963 1.774.963 4.092 0 2.316-.963 4.091a7.2 7.2 0 0 1-2.677 2.798q-1.685.993-3.881.993m0-2.618q1.354 0 2.407-.661a4.6 4.6 0 0 0 1.624-1.866q.602-1.173.602-2.737t-.602-2.738a4.3 4.3 0 0 0-1.654-1.835q-1.083-.692-2.437-.692-1.384 0-2.437.692-1.053.662-1.655 1.835-.601 1.173-.601 2.738t.601 2.737a4.73 4.73 0 0 0 1.685 1.866q1.083.661 2.467.661m9.817 2.257v-15.043h2.677l.12 2.076q.723-1.203 1.806-1.805 1.083-.632 2.497-.632 1.805 0 3.068.843 1.264.812 1.835 2.497.662-1.625 1.866-2.467 1.203-.873 2.858-.873 2.557 0 4.001 1.685 1.444 1.654 1.414 5.115v8.604h-2.828v-7.702q0-2.046-.451-3.099-.422-1.083-1.143-1.504t-1.685-.451q-1.685 0-2.618 1.294-.902 1.293-.902 3.64v7.822h-2.858v-7.702q0-2.046-.421-3.099-.421-1.083-1.174-1.504-.722-.421-1.684-.451-1.686 0-2.618 1.294-.903 1.293-.902 3.64v7.822zm24.959 0v-15.043h2.678l.12 2.076q.722-1.203 1.805-1.805 1.084-.632 2.497-.632 1.805 0 3.069.843 1.263.812 1.835 2.497.662-1.625 1.865-2.467 1.204-.873 2.858-.873 2.558 0 4.002 1.685 1.444 1.654 1.414 5.115v8.604h-2.828v-7.702q0-2.046-.452-3.099-.42-1.083-1.143-1.504-.722-.421-1.685-.451-1.684 0-2.617 1.294-.903 1.293-.903 3.64v7.822h-2.858v-7.702q0-2.046-.421-3.099-.422-1.083-1.173-1.504-.722-.421-1.685-.451-1.684 0-2.617 1.294-.903 1.293-.903 3.64v7.822zm31.609.361q-2.197 0-3.881-.993a7.25 7.25 0 0 1-2.648-2.798q-.963-1.775-.963-4.091 0-2.318.963-4.092.963-1.775 2.648-2.768 1.715-1.023 3.911-1.023 2.076 0 3.64 1.053 1.564 1.023 2.437 2.949.902 1.894.902 4.482h-11.582q.15 2.227 1.474 3.49 1.353 1.233 3.309 1.234 1.504 0 2.497-.692a5.1 5.1 0 0 0 1.595-1.805l2.467 1.143a7.6 7.6 0 0 1-1.565 2.076 6.9 6.9 0 0 1-2.286 1.354q-1.294.48-2.918.481m-4.393-9.537h8.334q-.091-1.203-.662-2.016a3.66 3.66 0 0 0-1.414-1.293q-.843-.452-1.896-.452-1.022 0-1.985.452a4.16 4.16 0 0 0-1.625 1.263q-.632.843-.752 2.046m2.257-7.912 3.519-3.972h3.46l-3.881 3.972zm24.47 17.449a10 10 0 0 1-2.708-.391 9.3 9.3 0 0 1-2.527-1.234 6.2 6.2 0 0 1-1.865-2.136l2.497-1.143q.963 1.203 2.106 1.775a5.5 5.5 0 0 0 2.377.542q1.954 0 3.159-1.174 1.203-1.173 1.203-3.129 0-1.895-1.173-3.098-1.173-1.204-3.069-1.204-1.083 0-2.076.482-.993.452-1.534 1.143l-2.678-.602 1.083-11.252h11.403v2.708h-8.815l-.632 6.228a8.7 8.7 0 0 1 1.865-.783q1.023-.3 2.076-.3 1.896 0 3.37.842a6.07 6.07 0 0 1 2.316 2.347q.873 1.474.873 3.399 0 2.077-.933 3.64a6.7 6.7 0 0 1-2.557 2.467q-1.625.873-3.761.873m16.95 0q-2.347 0-4.062-.722-1.715-.753-2.677-2.046-.933-1.323-.933-3.069 0-1.865.993-3.279 1.022-1.445 2.798-2.196-1.414-.692-2.227-1.925t-.812-2.828q0-1.685.843-2.979.871-1.293 2.436-2.015t3.641-.723q2.106 0 3.67.723 1.564.722 2.407 2.015.872 1.294.872 2.979 0 1.594-.812 2.828-.783 1.233-2.226 1.925 1.775.751 2.767 2.196 1.023 1.414 1.023 3.279 0 1.746-.962 3.069-.933 1.293-2.648 2.046-1.715.722-4.091.722m0-2.557q2.076 0 3.369-.993 1.324-1.023 1.324-2.618 0-1.654-1.324-2.677-1.293-1.023-3.369-1.023-1.354 0-2.407.451t-1.655 1.324q-.571.843-.571 1.925 0 1.053.571 1.896.602.812 1.655 1.263 1.053.452 2.407.452m0-9.928q1.775 0 2.888-.903 1.143-.933 1.143-2.377 0-1.564-1.143-2.527-1.113-.992-2.888-.992-1.745 0-2.858.992-1.114.963-1.114 2.527 0 1.444 1.114 2.377 1.112.903 2.858.903m14.786 12.124v-17.239a11 11 0 0 1-2.287 1.444 5.54 5.54 0 0 1-2.376.482v-2.678q.661.03 1.534-.421a10.3 10.3 0 0 0 1.805-1.173 14 14 0 0 0 1.594-1.475h2.618v21.06zm18.791 0v-18.352h-6.589v-2.708h16.156v2.708h-6.589v18.352zm15.727 0-6.378-21.06h3.008l4.964 16.487 4.814-16.487h2.978l4.724 16.397 5.054-16.397h2.978l-6.468 21.06h-3.159l-4.633-16.306-4.723 16.306zm23.617 0v-21.06h2.828v8.153q.752-1.203 1.925-1.835 1.174-.662 2.708-.662 1.774 0 3.069.722 1.293.723 2.015 2.257.722 1.504.692 3.971v8.454h-2.828v-7.702q0-2.046-.481-3.099-.481-1.083-1.324-1.504-.812-.421-1.865-.451-1.866 0-2.888 1.294-1.023 1.293-1.023 3.64v7.822zm29.156.361q-2.196 0-3.881-.993a7.24 7.24 0 0 1-2.647-2.798q-.963-1.775-.963-4.091 0-2.318.963-4.092.962-1.775 2.647-2.768 1.715-1.023 3.911-1.023 2.076 0 3.64 1.053 1.565 1.023 2.437 2.949.903 1.894.903 4.482h-11.583q.15 2.227 1.474 3.49 1.354 1.233 3.31 1.234 1.503 0 2.497-.692a5.1 5.1 0 0 0 1.594-1.805l2.467 1.143a7.6 7.6 0 0 1-1.564 2.076 6.9 6.9 0 0 1-2.287 1.354q-1.293.48-2.918.481m-4.392-9.537h8.333q-.09-1.203-.662-2.016a3.65 3.65 0 0 0-1.414-1.293q-.842-.452-1.895-.452a4.6 4.6 0 0 0-1.986.452 4.16 4.16 0 0 0-1.624 1.263q-.632.843-.752 2.046m13.39 9.176v-15.043h2.677l.12 2.197q.753-1.234 1.926-1.896 1.203-.662 2.738-.662 1.775 0 3.068.722 1.324.723 2.016 2.257.722 1.504.722 3.971v8.454h-2.858v-7.702q0-2.046-.481-3.099-.452-1.083-1.294-1.504-.813-.421-1.895-.451-1.836 0-2.859 1.294-1.022 1.293-1.022 3.64v7.822zm22.236 0v-2.377q0-.933.421-1.925a8.8 8.8 0 0 1 1.264-2.016 11.6 11.6 0 0 1 1.985-1.835l4.062-3.009a7.3 7.3 0 0 0 1.294-1.173q.602-.692.932-1.414.361-.752.361-1.474a3.26 3.26 0 0 0-.481-1.745 3.3 3.3 0 0 0-1.354-1.264q-.873-.48-2.076-.481-1.143 0-2.016.451a4.15 4.15 0 0 0-1.414 1.144 4.5 4.5 0 0 0-.812 1.534l-3.038-.572q.33-1.384 1.293-2.587t2.467-1.925q1.504-.753 3.4-.753 2.166 0 3.73.813 1.595.781 2.467 2.196.873 1.385.873 3.189a5.77 5.77 0 0 1-.963 3.219q-.933 1.474-2.708 2.858l-3.76 2.828q-1.113.842-1.775 1.745a4.45 4.45 0 0 0-.782 1.925h10.258v2.648zm24.118.361q-2.436 0-4.332-1.384-1.896-1.414-2.978-3.851-1.053-2.467-1.053-5.656t1.053-5.626q1.082-2.466 2.948-3.851 1.896-1.414 4.362-1.414t4.332 1.414q1.896 1.385 2.979 3.851 1.083 2.437 1.083 5.626t-1.083 5.656q-1.053 2.437-2.948 3.851-1.896 1.384-4.363 1.384m0-2.708q1.595 0 2.828-1.053 1.264-1.053 1.956-2.888t.692-4.242q0-2.406-.692-4.242-.692-1.865-1.956-2.918-1.233-1.053-2.828-1.053t-2.828 1.053-1.925 2.918q-.692 1.836-.692 4.242 0 2.408.692 4.272.692 1.835 1.925 2.888a4.3 4.3 0 0 0 2.828 1.023m10.524 2.347v-2.377q0-.933.421-1.925a8.8 8.8 0 0 1 1.264-2.016 11.6 11.6 0 0 1 1.985-1.835l4.062-3.009a7.2 7.2 0 0 0 1.293-1.173q.601-.692.933-1.414.361-.752.361-1.474a3.27 3.27 0 0 0-.481-1.745 3.3 3.3 0 0 0-1.354-1.264q-.873-.48-2.076-.481-1.143 0-2.016.451a4.14 4.14 0 0 0-1.414 1.144 4.5 4.5 0 0 0-.812 1.534l-3.039-.572q.331-1.384 1.294-2.587t2.467-1.925q1.504-.753 3.4-.753 2.166 0 3.73.813 1.594.781 2.467 2.196.873 1.385.873 3.189a5.77 5.77 0 0 1-.963 3.219q-.933 1.474-2.708 2.858l-3.76 2.828q-1.114.842-1.775 1.745a4.46 4.46 0 0 0-.783 1.925h10.259v2.648zm25.352 0v-4.844h-9.718v-2.316l9.507-13.9h3.069v13.599h4.121v2.617h-4.121v4.844zm-6.469-7.461h6.469v-9.477zm16.795 7.882q-.752 0-1.324-.541a1.8 1.8 0 0 1-.541-1.324q0-.783.541-1.324a1.87 1.87 0 0 1 1.324-.541q.782 0 1.324.541.571.541.571 1.324 0 .781-.571 1.324a1.8 1.8 0 0 1-1.324.541"/><rect width="129.561" height="28.025" x="622.943" y="93.636" stroke="#48d36e" stroke-width="3" rx="4.5"/><rect width="259.302" height="27.085" x="622.943" y="146.868" fill="#48d36e" stroke="#48d36e" stroke-width="3" rx="4.5"/><rect width="287.506" height="28.025" x="622.943" y="199.159" stroke="#48d36e" stroke-width="3" rx="4.5"/><rect width="291.267" height="28.025" x="622.943" y="252.39" stroke="#48d36e" stroke-width="3" rx="4.5"/><path fill="#48d36e" d="M499.547 115.729V98.531h5.503q2.628 0 4.643 1.106 2.04 1.105 3.169 3.046 1.155 1.917 1.155 4.447 0 2.506-1.155 4.447-1.13 1.94-3.169 3.046-2.015 1.106-4.643 1.106zm3.366-3.145h2.137q1.18 0 2.186-.418a5.3 5.3 0 0 0 1.745-1.154 5.2 5.2 0 0 0 1.179-1.72 5.6 5.6 0 0 0 .418-2.162q0-1.155-.418-2.137a5.1 5.1 0 0 0-1.179-1.745 5.3 5.3 0 0 0-1.745-1.154 5.6 5.6 0 0 0-2.186-.418h-2.137zm16.77 3.439q-2.211 0-3.44-.982-1.203-.984-1.203-2.776 0-1.966 1.302-2.949 1.327-1.007 3.709-1.007h2.899q-.171-1.13-.712-1.72-.54-.614-1.548-.614-.786 0-1.425.344t-1.081 1.057l-2.85-.983a5.7 5.7 0 0 1 1.008-1.523q.663-.761 1.719-1.229 1.081-.49 2.629-.491 1.868 0 3.096.712a4.3 4.3 0 0 1 1.842 2.015q.615 1.278.59 3.046l-.074 6.806h-3.022l-.049-1.425a3.13 3.13 0 0 1-1.326 1.277q-.836.442-2.064.442m.54-2.702q.786 0 1.425-.369a2.8 2.8 0 0 0 1.008-.958q.368-.59.368-1.228v-.049h-1.843q-1.596 0-2.211.393-.614.369-.614 1.056 0 .541.492.86.491.295 1.375.295m8 2.408v-12.284h3.047l.147 1.67q.59-.958 1.499-1.449.933-.516 2.112-.516 1.45 0 2.482.59t1.572 1.842q.54 1.229.516 3.194v6.953h-3.243v-6.29q0-1.252-.295-1.941-.27-.687-.786-.982-.516-.32-1.204-.32-1.253-.024-1.94.762-.664.786-.664 2.334v6.437zm18.937.294q-1.818 0-3.219-.81a6.06 6.06 0 0 1-2.211-2.285q-.786-1.45-.786-3.341t.811-3.342a6 6 0 0 1 2.26-2.26q1.45-.835 3.317-.835 1.621 0 2.972.86 1.375.836 2.187 2.481.835 1.622.835 3.956h-8.992q.123 1.228 1.057 1.965a3.4 3.4 0 0 0 2.113.712q1.007 0 1.646-.417a3 3 0 0 0 .982-1.13l2.899 1.13a6.1 6.1 0 0 1-1.351 1.793 5.6 5.6 0 0 1-1.941 1.13q-1.13.393-2.579.393m-2.654-7.984h5.307q-.074-.762-.491-1.228a2.54 2.54 0 0 0-.983-.688 3 3 0 0 0-1.106-.221q-.516 0-1.13.221a2.7 2.7 0 0 0-1.056.663q-.442.467-.541 1.253m10.126 7.69v-12.284h3.046l.147 1.597q.565-.934 1.45-1.401a4 4 0 0 1 1.965-.491q1.499 0 2.506.639 1.032.639 1.499 1.965.54-1.253 1.523-1.916.983-.688 2.285-.688 2.161 0 3.292 1.376 1.13 1.351 1.13 4.176v7.027h-3.243v-6.29q0-1.252-.27-1.941-.271-.687-.737-.982a1.9 1.9 0 0 0-1.106-.32q-1.179-.024-1.818.762t-.639 2.334v6.437h-3.243v-6.29q0-1.252-.27-1.941-.245-.687-.737-.982-.467-.32-1.105-.32-1.18-.024-1.818.762-.615.786-.615 2.334v6.437zm24.825.294q-2.211 0-3.44-.982-1.203-.984-1.203-2.776 0-1.966 1.302-2.949 1.327-1.007 3.709-1.007h2.899q-.172-1.13-.712-1.72-.54-.614-1.548-.614-.786 0-1.425.344t-1.081 1.057l-2.85-.983a5.7 5.7 0 0 1 1.008-1.523q.663-.761 1.719-1.229 1.081-.49 2.629-.491 1.868 0 3.096.712a4.3 4.3 0 0 1 1.842 2.015q.615 1.278.59 3.046l-.074 6.806h-3.022l-.049-1.425a3.13 3.13 0 0 1-1.326 1.277q-.835.442-2.064.442m.54-2.702q.786 0 1.425-.369a2.8 2.8 0 0 0 1.008-.958q.368-.59.368-1.228v-.049h-1.843q-1.596 0-2.211.393-.614.369-.614 1.056 0 .541.492.86.491.295 1.375.295m8 2.408v-12.284h3.243v2.26q.762-1.155 1.916-1.72a5.4 5.4 0 0 1 2.433-.589v3.144q-1.13 0-2.138.271-.982.27-1.597.884-.614.614-.614 1.572v6.462zm8.73 0V98.531h3.243v9.483l4.201-4.569h3.857l-4.643 5.184 5.012 7.1h-3.808l-3.268-4.767-1.351 1.474v3.293zm-11.18 53.346v-17.197h3.366v17.197zm4.852 0 6.78-17.197h3.587l6.781 17.197h-3.563l-1.474-3.784h-7.075l-1.474 3.784zm6.142-6.756h4.864l-2.432-6.24zm-77.994 60.102v-17.197h11.031v3.071h-7.665v4.127h6.387v3.071h-6.387v6.928zm12.754 0v-12.284h3.243v12.284zm1.621-14.274q-.736 0-1.302-.54-.565-.565-.565-1.327t.565-1.302q.566-.565 1.302-.565.762 0 1.302.565.565.54.565 1.302t-.565 1.327q-.54.54-1.302.54m4.033 14.274v-12.284h3.046l.148 1.671q.59-.958 1.498-1.45.934-.516 2.113-.516 1.449 0 2.481.59t1.573 1.843q.54 1.227.516 3.193v6.953h-3.243v-6.289q0-1.254-.295-1.941-.27-.688-.786-.983-.516-.32-1.204-.319-1.253-.025-1.941.761-.663.786-.663 2.334v6.437zm13.384 0v-17.197h3.243v17.197zm9.447.295q-2.211 0-3.44-.983-1.203-.982-1.204-2.776 0-1.965 1.303-2.948 1.326-1.007 3.709-1.007h2.899q-.172-1.13-.712-1.72-.541-.615-1.548-.614a2.95 2.95 0 0 0-1.425.344q-.639.344-1.081 1.056l-2.85-.983a5.7 5.7 0 0 1 1.008-1.523q.663-.762 1.719-1.228 1.081-.492 2.629-.492 1.868 0 3.095.713a4.3 4.3 0 0 1 1.843 2.014q.614 1.278.59 3.047l-.074 6.805h-3.022l-.049-1.425a3.1 3.1 0 0 1-1.327 1.277q-.835.443-2.063.443m.54-2.703q.786 0 1.425-.368a2.8 2.8 0 0 0 1.007-.958q.369-.59.369-1.229v-.049h-1.843q-1.596 0-2.211.393-.614.369-.614 1.057 0 .54.491.859.492.295 1.376.295m8 2.408v-12.284h3.046l.148 1.671q.59-.958 1.498-1.45.934-.516 2.113-.516 1.45 0 2.482.59 1.031.59 1.572 1.843.54 1.227.516 3.193v6.953h-3.243v-6.289q0-1.254-.295-1.941-.27-.688-.786-.983-.516-.32-1.204-.319-1.253-.025-1.941.761-.663.786-.663 2.334v6.437zm18.273.295q-1.695 0-2.948-.786-1.229-.787-1.916-2.236-.688-1.45-.688-3.415 0-1.99.688-3.415.687-1.449 1.916-2.235 1.253-.787 2.948-.787 1.204 0 2.137.516a3.9 3.9 0 0 1 1.548 1.425v-6.559h3.243v17.197h-3.071l-.098-1.72a4.45 4.45 0 0 1-1.572 1.499q-.959.516-2.187.516m.835-2.973q.812 0 1.425-.393a2.9 2.9 0 0 0 1.008-1.155 4.2 4.2 0 0 0 .417-1.67v-.492q-.05-.933-.417-1.646a2.7 2.7 0 0 0-1.008-1.13 2.6 2.6 0 0 0-1.449-.417q-.885 0-1.573.442-.663.418-1.056 1.204-.369.786-.368 1.793 0 1.007.393 1.793.393.787 1.056 1.229.688.442 1.572.442m13.86 2.973q-1.818 0-3.218-.811a6.04 6.04 0 0 1-2.211-2.285q-.786-1.45-.786-3.341t.81-3.341a6 6 0 0 1 2.261-2.26q1.449-.836 3.316-.836a5.43 5.43 0 0 1 2.973.86q1.376.835 2.186 2.482.836 1.621.836 3.955h-8.992q.123 1.228 1.056 1.965a3.4 3.4 0 0 0 2.113.713q1.008 0 1.646-.418.64-.442.983-1.13l2.899 1.13a6.1 6.1 0 0 1-1.351 1.794 5.6 5.6 0 0 1-1.941 1.13q-1.13.393-2.58.393m-2.653-7.985h5.306q-.073-.761-.491-1.228a2.55 2.55 0 0 0-.983-.688 3 3 0 0 0-1.105-.221q-.516 0-1.13.221a2.7 2.7 0 0 0-1.057.663q-.442.468-.54 1.253m-82.094 61.036V258.57h5.822q1.77 0 3.096.54 1.326.541 2.063 1.646.737 1.082.737 2.703 0 1.007-.515 1.867-.492.836-1.401 1.449 1.204.615 1.843 1.646.663 1.008.663 2.433 0 1.572-.712 2.677-.713 1.106-1.99 1.671t-2.998.565zm3.292-2.973h2.997q1.204 0 1.892-.589.688-.615.688-1.622 0-1.056-.762-1.646-.762-.614-2.088-.614h-2.727zm0-7.222h2.604q1.105 0 1.744-.565t.639-1.597q0-1.033-.712-1.597-.713-.565-1.941-.565h-2.334zm16.257 10.49q-1.818 0-3.218-.811a6.04 6.04 0 0 1-2.211-2.285q-.787-1.45-.787-3.341t.811-3.341a6 6 0 0 1 2.26-2.26q1.45-.835 3.317-.835 1.621 0 2.973.859 1.376.835 2.186 2.482.835 1.621.835 3.955h-8.991q.123 1.228 1.056 1.965a3.4 3.4 0 0 0 2.113.713q1.007 0 1.646-.418.639-.442.983-1.13l2.899 1.13a6.1 6.1 0 0 1-1.352 1.794 5.6 5.6 0 0 1-1.94 1.13q-1.131.393-2.58.393m-2.653-7.985h5.306q-.074-.761-.491-1.228a2.6 2.6 0 0 0-.983-.688 3 3 0 0 0-1.105-.221q-.516 0-1.13.221a2.7 2.7 0 0 0-1.057.664q-.442.466-.54 1.252m10.125 7.69V258.57h3.243v17.197zM554.562 281q-1.4 0-2.481-.197-1.082-.197-1.818-.516a7 7 0 0 1-1.204-.638l1.278-2.604q.343.196.909.442.565.27 1.351.442.786.197 1.818.197.982 0 1.72-.394.76-.368 1.179-1.179.442-.786.442-2.014v-1.18a4.6 4.6 0 0 1-1.597 1.524q-.982.54-2.235.54-1.695 0-2.948-.737a5.07 5.07 0 0 1-1.917-2.064q-.687-1.326-.688-3.144 0-1.917.688-3.317.688-1.425 1.917-2.186 1.253-.786 2.948-.786 1.253 0 2.235.589.983.565 1.597 1.622v-1.917h3.243v10.957q0 2.064-.786 3.538-.786 1.499-2.236 2.26-1.425.762-3.415.762m.295-8.304q.835 0 1.45-.417a2.9 2.9 0 0 0 .982-1.18q.345-.761.344-1.719 0-.984-.368-1.72a2.7 2.7 0 0 0-.983-1.155q-.614-.417-1.449-.417-.86 0-1.524.417a2.8 2.8 0 0 0-1.031 1.155q-.369.736-.393 1.72.024.958.393 1.719.368.738 1.031 1.18a2.93 2.93 0 0 0 1.548.417m8.55 3.071v-12.284h3.243v12.284zm1.621-14.274q-.736 0-1.302-.54-.565-.565-.565-1.327 0-.76.565-1.302.565-.565 1.302-.565.762 0 1.303.565.564.541.565 1.302 0 .762-.565 1.327-.541.54-1.303.54m12.632 19.188v-6.584a4.4 4.4 0 0 1-1.548 1.449q-.933.516-2.162.516-1.695 0-2.948-.786-1.229-.786-1.916-2.236-.688-1.45-.688-3.415 0-1.99.688-3.415.687-1.449 1.916-2.235 1.253-.786 2.948-.786 1.253 0 2.211.54.959.54 1.548 1.499l.123-1.745h3.071v17.198zm-2.875-7.592q.836 0 1.474-.442a2.9 2.9 0 0 0 1.032-1.228q.369-.786.369-1.794 0-1.007-.369-1.793-.367-.786-1.032-1.204-.638-.442-1.498-.442-.885 0-1.548.442-.663.418-1.056 1.204t-.393 1.793.393 1.794 1.056 1.228q.688.442 1.572.442m12.609 2.973q-1.474 0-2.506-.59-1.007-.59-1.548-1.818-.54-1.253-.54-3.218v-6.953h3.243v6.29q0 1.228.27 1.94.295.689.811 1.008.54.294 1.204.295 1.277.024 1.94-.762.664-.812.664-2.334v-6.437h3.243v12.284h-3.047l-.123-1.67a4.36 4.36 0 0 1-1.547 1.449q-.909.516-2.064.516m14.563 0q-1.817 0-3.218-.811a6.04 6.04 0 0 1-2.211-2.285q-.786-1.45-.786-3.341t.81-3.341a6 6 0 0 1 2.261-2.26q1.45-.835 3.316-.835 1.622 0 2.973.859 1.376.835 2.186 2.482.836 1.621.836 3.955h-8.992q.123 1.228 1.056 1.965a3.4 3.4 0 0 0 2.113.713q1.008 0 1.646-.418.64-.442.983-1.13l2.899 1.13a6.1 6.1 0 0 1-1.351 1.794 5.6 5.6 0 0 1-1.941 1.13q-1.13.393-2.58.393m-2.653-7.985h5.307q-.074-.761-.492-1.228a2.56 2.56 0 0 0-.982-.688 3 3 0 0 0-1.106-.221q-.516 0-1.13.221a2.7 2.7 0 0 0-1.057.664q-.441.466-.54 1.252"/></svg>