<svg xmlns="http://www.w3.org/2000/svg" width="518" height="779" fill="none" viewBox="0 0 518 779"><rect width="515.18" height="776.18" x="1.41" y="1.41" stroke="#48d36e" stroke-width="2.82" rx="7.621"/><path fill="#48d36e" d="M48.557 77.127V45.538h6.182v25.948h13.9v5.641zm30.24.542q-4.062 0-6.318-1.805-2.212-1.806-2.212-5.1 0-3.61 2.392-5.415 2.437-1.85 6.814-1.85h5.325q-.316-2.076-1.308-3.16-.993-1.127-2.843-1.127-1.445 0-2.618.631-1.173.632-1.985 1.941l-5.235-1.805q.632-1.444 1.85-2.798 1.218-1.4 3.159-2.256 1.986-.903 4.829-.903 3.429 0 5.686 1.309 2.301 1.309 3.384 3.7 1.128 2.347 1.083 5.596l-.135 12.5h-5.55l-.091-2.617a5.73 5.73 0 0 1-2.437 2.346q-1.534.813-3.79.813m.992-4.964q1.444 0 2.618-.677a5.2 5.2 0 0 0 1.85-1.76q.677-1.083.677-2.257v-.09h-3.385q-2.933 0-4.061.722-1.128.677-1.128 1.94 0 .995.902 1.58.903.542 2.527.542m36.484 4.964q-3.519 0-6.273-1.49-2.752-1.533-4.287-4.196-1.534-2.708-1.534-6.138 0-3.474 1.534-6.137a10.83 10.83 0 0 1 4.242-4.152q2.708-1.534 6.228-1.534 3.384 0 6.182 1.67t4.062 4.828l-5.596 1.986q-.632-1.309-1.986-2.076-1.308-.812-2.933-.812-1.67 0-2.933.812-1.264.768-1.986 2.166-.722 1.4-.722 3.25t.722 3.249a5.63 5.63 0 0 0 2.031 2.166q1.308.812 2.978.812 1.624 0 2.934-.857 1.353-.858 1.985-2.257l5.641 1.986q-1.308 3.204-4.106 4.964-2.753 1.76-6.183 1.76m23.913 0q-3.43 0-6.138-1.49a11.23 11.23 0 0 1-4.196-4.196q-1.49-2.662-1.49-6.138 0-3.474 1.49-6.137a10.6 10.6 0 0 1 4.151-4.152q2.663-1.534 6.092-1.534 3.475 0 6.138 1.534a10.6 10.6 0 0 1 4.151 4.152q1.49 2.662 1.49 6.137t-1.49 6.138a10.9 10.9 0 0 1-4.151 4.197q-2.618 1.489-6.047 1.489m0-5.506q1.67 0 2.933-.812a5.33 5.33 0 0 0 1.94-2.211q.722-1.444.722-3.295t-.722-3.249q-.722-1.444-2.03-2.256-1.264-.812-2.934-.812-1.624 0-2.933.812-1.263.811-1.985 2.256-.723 1.4-.723 3.25t.723 3.294a5.54 5.54 0 0 0 2.03 2.21q1.31.813 2.979.813m15.165 4.964V54.564h5.595l.271 3.068q1.083-1.76 2.753-2.662 1.715-.948 3.881-.948 2.662 0 4.558 1.083t2.888 3.385q.992 2.257.947 5.866v12.771h-5.956V65.575q0-2.302-.542-3.565-.496-1.264-1.444-1.805-.948-.588-2.211-.587-2.302-.045-3.565 1.399-1.22 1.443-1.219 4.287v11.823zm33.635.542q-2.166 0-4.061-.632a10.7 10.7 0 0 1-3.34-1.895 8.85 8.85 0 0 1-2.256-3.069l5.099-2.347q.678 1.083 1.85 1.896 1.174.767 2.708.767 1.49 0 2.302-.406.812-.451.812-1.264 0-.811-.677-1.173-.632-.406-1.76-.677l-2.076-.542q-3.25-.857-5.144-2.707-1.851-1.896-1.851-4.332 0-3.475 2.212-5.37 2.256-1.896 6.363-1.896 2.12 0 3.926.632 1.85.632 3.159 1.76t1.805 2.617l-4.919 2.257q-.316-.903-1.534-1.444-1.22-.588-2.437-.587-1.219 0-1.896.541-.631.497-.631 1.4 0 .585.631.992.632.36 1.805.632l2.934.722q2.21.541 3.52 1.76 1.353 1.173 1.94 2.662.632 1.444.632 2.843 0 2.032-1.219 3.61-1.173 1.534-3.249 2.392-2.03.858-4.648.858m22.736 0q-3.43 0-6.138-1.49a11.24 11.24 0 0 1-4.196-4.196q-1.49-2.662-1.49-6.138 0-3.474 1.49-6.137a10.6 10.6 0 0 1 4.151-4.152q2.663-1.534 6.093-1.534 3.474 0 6.137 1.534a10.6 10.6 0 0 1 4.152 4.152q1.488 2.662 1.489 6.137 0 3.475-1.489 6.138a10.9 10.9 0 0 1-4.152 4.197q-2.618 1.489-6.047 1.489m0-5.506q1.67 0 2.933-.812a5.33 5.33 0 0 0 1.94-2.211q.723-1.444.723-3.295t-.723-3.249q-.722-1.444-2.03-2.256-1.264-.812-2.933-.812-1.625 0-2.934.812-1.263.811-1.985 2.256-.722 1.4-.722 3.25t.722 3.294a5.54 5.54 0 0 0 2.03 2.21q1.31.813 2.979.813m15.165 4.964V54.564h5.595l.271 2.933q1.038-1.714 2.663-2.572 1.624-.903 3.61-.903 2.752 0 4.603 1.173 1.895 1.174 2.753 3.61.992-2.3 2.797-3.52 1.806-1.263 4.197-1.263 3.971 0 6.047 2.527 2.076 2.482 2.076 7.672v12.906h-5.957V65.575q0-2.302-.496-3.565-.496-1.264-1.354-1.805-.856-.588-2.031-.587-2.166-.045-3.339 1.399t-1.173 4.287v11.823h-5.957V65.575q0-2.302-.496-3.565-.452-1.264-1.354-1.805-.858-.588-2.031-.587-2.166-.045-3.339 1.399-1.13 1.443-1.129 4.287v11.823zm38.902 0V54.564h5.596l.271 2.933q1.038-1.714 2.662-2.572 1.625-.903 3.61-.903 2.753 0 4.603 1.173 1.896 1.174 2.753 3.61.993-2.3 2.798-3.52 1.804-1.263 4.197-1.263 3.97 0 6.047 2.527 2.076 2.482 2.076 7.672v12.906h-5.957V65.575q0-2.302-.497-3.565-.496-1.264-1.353-1.805-.858-.588-2.031-.587-2.166-.045-3.34 1.399t-1.173 4.287v11.823h-5.957V65.575q0-2.302-.496-3.565-.451-1.264-1.354-1.805-.856-.588-2.031-.587-2.166-.045-3.339 1.399-1.128 1.443-1.128 4.287v11.823zm46.213.542q-4.06 0-6.318-1.805-2.211-1.806-2.211-5.1 0-3.61 2.392-5.415 2.437-1.85 6.814-1.85h5.325q-.316-2.076-1.309-3.16-.992-1.127-2.843-1.127-1.443 0-2.617.631-1.173.632-1.986 1.941l-5.234-1.805q.632-1.444 1.85-2.798 1.218-1.4 3.159-2.256 1.985-.903 4.828-.903 3.43 0 5.686 1.309 2.302 1.309 3.385 3.7 1.128 2.347 1.083 5.596l-.135 12.5h-5.551l-.09-2.617a5.74 5.74 0 0 1-2.437 2.346q-1.535.813-3.791.813m.993-4.964q1.444 0 2.617-.677a5.2 5.2 0 0 0 1.851-1.76q.676-1.083.676-2.257v-.09h-3.384q-2.933 0-4.062.722-1.128.677-1.128 1.94 0 .995.903 1.58.903.542 2.527.542m24.603 4.964q-3.745 0-5.686-1.85-1.896-1.851-1.895-5.28V59.618h-3.656v-5.054h3.656v-7.04h5.956v7.04h5.641v5.054h-5.641v9.612q0 1.444.632 2.211.632.722 1.85.722.451 0 .993-.18.542-.225 1.128-.632l2.076 4.468a9.5 9.5 0 0 1-2.437 1.308 6.8 6.8 0 0 1-2.617.542m8.77-.542V54.564h5.957v22.563zm2.978-26.219q-1.353 0-2.391-.992-1.038-1.039-1.038-2.437 0-1.4 1.038-2.392 1.038-1.038 2.391-1.038 1.4 0 2.392 1.038 1.038.993 1.038 2.392 0 1.398-1.038 2.437a3.26 3.26 0 0 1-2.392.992m18.625 26.76q-3.43 0-6.137-1.489a11.24 11.24 0 0 1-4.197-4.196q-1.49-2.662-1.49-6.138 0-3.474 1.49-6.137a10.6 10.6 0 0 1 4.151-4.152q2.662-1.534 6.093-1.534 3.474 0 6.137 1.534a10.6 10.6 0 0 1 4.152 4.152q1.488 2.662 1.489 6.137 0 3.475-1.489 6.138a10.9 10.9 0 0 1-4.152 4.197q-2.618 1.489-6.047 1.489m0-5.505q1.67 0 2.933-.812a5.34 5.34 0 0 0 1.941-2.211q.722-1.444.722-3.295t-.722-3.249q-.723-1.444-2.031-2.256-1.264-.812-2.933-.812-1.625 0-2.934.812-1.263.811-1.985 2.256-.723 1.4-.722 3.25 0 1.85.722 3.294a5.54 5.54 0 0 0 2.03 2.21q1.31.813 2.979.813m15.165 4.964V54.564h5.595l.271 3.068q1.083-1.76 2.753-2.662 1.715-.948 3.881-.948 2.662 0 4.558 1.083t2.888 3.385q.993 2.257.948 5.866v12.771h-5.957V65.575q0-2.302-.542-3.565-.496-1.264-1.444-1.805-.948-.588-2.211-.587-2.302-.045-3.565 1.399-1.219 1.443-1.219 4.287v11.823zM56.68 123.67q-3.114 0-5.416-1.444-2.256-1.445-3.52-4.107-1.263-2.662-1.263-6.273 0-3.654 1.263-6.272 1.264-2.663 3.52-4.107 2.303-1.444 5.415-1.444 2.212 0 3.927.948a7.2 7.2 0 0 1 2.843 2.617v-12.05h5.956v31.589h-5.64l-.181-3.159a8.15 8.15 0 0 1-2.888 2.753q-1.76.948-4.017.948m1.534-5.461q1.49 0 2.617-.722 1.174-.767 1.85-2.121.677-1.353.768-3.068v-.903q-.09-1.715-.768-3.023-.676-1.355-1.85-2.076-1.173-.768-2.662-.767-1.625 0-2.888.812-1.22.767-1.94 2.211-.678 1.444-.678 3.294t.722 3.295q.723 1.444 1.94 2.256 1.264.813 2.889.812m13.886-16.02 2.753-10.65h6.183l-4.423 10.65zm21.605 21.481q-3.34 0-5.912-1.489-2.572-1.535-4.062-4.197-1.444-2.662-1.444-6.138 0-3.474 1.49-6.137 1.533-2.662 4.151-4.152 2.663-1.534 6.093-1.534 2.977 0 5.46 1.58 2.527 1.534 4.016 4.557 1.535 2.979 1.535 7.266H88.515q.225 2.256 1.94 3.61a6.24 6.24 0 0 0 3.881 1.309q1.851 0 3.024-.767a5.46 5.46 0 0 0 1.805-2.076l5.325 2.076a11.2 11.2 0 0 1-2.482 3.294q-1.49 1.353-3.565 2.076-2.076.722-4.738.722m-4.874-14.667h9.747q-.135-1.398-.902-2.256a4.7 4.7 0 0 0-1.805-1.264 5.6 5.6 0 0 0-2.031-.406q-.948 0-2.076.406a4.9 4.9 0 0 0-1.94 1.219q-.813.858-.993 2.301m26.521 14.667q-4.06 0-6.318-1.805-2.211-1.806-2.211-5.1 0-3.61 2.392-5.415 2.437-1.85 6.814-1.85h5.325q-.316-2.076-1.308-3.159-.993-1.128-2.844-1.128-1.444 0-2.617.631-1.173.633-1.985 1.941l-5.235-1.805q.632-1.444 1.85-2.798 1.218-1.4 3.159-2.256 1.986-.903 4.828-.903 3.43 0 5.687 1.309 2.301 1.308 3.384 3.7 1.128 2.347 1.083 5.596l-.135 12.5h-5.551l-.09-2.617a5.73 5.73 0 0 1-2.437 2.346q-1.534.813-3.791.813m.993-4.964q1.444 0 2.617-.677a5.2 5.2 0 0 0 1.851-1.76q.677-1.083.677-2.256v-.091h-3.385q-2.933 0-4.061.722-1.13.677-1.129 1.941 0 .993.903 1.579.903.542 2.527.542m23.34 4.964q-2.708 0-4.603-1.083-1.85-1.084-2.843-3.34-.993-2.301-.993-5.911v-12.771h5.957v11.552q0 2.257.496 3.565.541 1.264 1.489 1.85.993.542 2.211.542 2.347.045 3.566-1.399 1.218-1.49 1.218-4.287v-11.823h5.957v22.563h-5.596l-.226-3.068q-1.128 1.714-2.843 2.662-1.67.948-3.79.948m36.446 0q-3.114 0-5.416-1.444-2.256-1.445-3.52-4.107-1.263-2.662-1.263-6.273 0-3.654 1.263-6.272 1.264-2.663 3.52-4.107 2.302-1.444 5.416-1.444 2.21 0 3.926.948a7.2 7.2 0 0 1 2.843 2.617V91.538h5.956v31.589h-5.641l-.18-3.159a8.15 8.15 0 0 1-2.888 2.753q-1.76.948-4.016.948m1.534-5.461q1.49 0 2.617-.722 1.173-.767 1.85-2.121.677-1.353.768-3.068v-.903q-.09-1.715-.768-3.023-.677-1.355-1.85-2.076-1.173-.768-2.662-.767-1.625 0-2.888.812-1.22.767-1.941 2.211-.677 1.444-.677 3.294t.722 3.295q.722 1.444 1.941 2.256 1.263.813 2.888.812m26.071 5.461q-3.34 0-5.912-1.489-2.573-1.535-4.061-4.197-1.445-2.662-1.445-6.138 0-3.474 1.49-6.137 1.534-2.662 4.151-4.152 2.663-1.534 6.093-1.534 2.977 0 5.46 1.58 2.527 1.534 4.016 4.557 1.535 2.979 1.535 7.266h-16.517q.225 2.256 1.941 3.61a6.23 6.23 0 0 0 3.88 1.309q1.851 0 3.024-.767a5.46 5.46 0 0 0 1.805-2.076l5.325 2.076a11.2 11.2 0 0 1-2.482 3.294q-1.49 1.353-3.565 2.076-2.076.722-4.738.722m-4.874-14.667h9.747q-.135-1.398-.902-2.256a4.7 4.7 0 0 0-1.805-1.264 5.6 5.6 0 0 0-2.031-.406q-.948 0-2.076.406a4.9 4.9 0 0 0-1.94 1.219q-.813.858-.993 2.301m27.65 14.667q-2.167 0-4.062-.632a10.7 10.7 0 0 1-3.339-1.895 8.9 8.9 0 0 1-2.257-3.069l5.1-2.347q.677 1.083 1.85 1.896 1.173.767 2.708.767 1.488 0 2.301-.406.813-.451.812-1.264 0-.811-.677-1.173-.631-.407-1.76-.677l-2.075-.542q-3.25-.857-5.145-2.707-1.85-1.896-1.85-4.332 0-3.475 2.211-5.371 2.256-1.895 6.363-1.895 2.121 0 3.926.632 1.851.632 3.159 1.76t1.805 2.617l-4.919 2.257q-.316-.903-1.534-1.445-1.219-.586-2.437-.586t-1.895.541q-.632.497-.632 1.399 0 .587.632.993.632.361 1.805.632l2.933.722q2.21.542 3.52 1.76 1.354 1.173 1.94 2.662.632 1.445.632 2.843 0 2.031-1.218 3.611-1.173 1.534-3.249 2.391-2.032.858-4.648.858m33.307 0q-3.52 0-6.272-1.489-2.754-1.535-4.287-4.197-1.535-2.708-1.535-6.138 0-3.474 1.535-6.137a10.8 10.8 0 0 1 4.241-4.152q2.708-1.534 6.228-1.534 3.384 0 6.182 1.67t4.062 4.828l-5.596 1.986q-.632-1.308-1.985-2.076-1.31-.812-2.934-.812-1.67 0-2.933.812-1.263.768-1.986 2.166-.722 1.4-.722 3.249t.722 3.25a5.64 5.64 0 0 0 2.031 2.166q1.309.812 2.979.812 1.624 0 2.933-.857 1.353-.858 1.985-2.257l5.641 1.986q-1.308 3.203-4.106 4.964-2.752 1.76-6.183 1.76m23.507 0q-3.34 0-5.912-1.489-2.572-1.535-4.062-4.197-1.443-2.662-1.444-6.138 0-3.474 1.49-6.137 1.534-2.662 4.151-4.152 2.663-1.534 6.092-1.534 2.979 0 5.461 1.58 2.527 1.534 4.016 4.557 1.535 2.979 1.535 7.266h-16.517q.225 2.256 1.94 3.61a6.24 6.24 0 0 0 3.881 1.309q1.851 0 3.024-.767a5.46 5.46 0 0 0 1.805-2.076l5.325 2.076a11.2 11.2 0 0 1-2.482 3.294q-1.49 1.353-3.565 2.076-2.076.722-4.738.722m-4.874-14.667h9.747q-.135-1.398-.902-2.256a4.7 4.7 0 0 0-1.805-1.264 5.6 5.6 0 0 0-2.031-.406q-.948 0-2.076.406a4.9 4.9 0 0 0-1.94 1.219q-.813.858-.993 2.301m19.211 14.125v-22.563h5.595l.271 3.068q1.083-1.76 2.753-2.662 1.715-.948 3.881-.948 2.662 0 4.558 1.083t2.888 3.385q.993 2.256.948 5.866v12.771H312.6v-11.552q0-2.302-.542-3.565-.496-1.264-1.444-1.805-.948-.587-2.211-.587-2.302-.045-3.565 1.399-1.219 1.444-1.219 4.287v11.823zm34.493.542q-3.746 0-5.686-1.85-1.896-1.851-1.896-5.28v-10.921h-3.655v-5.054h3.655v-7.04h5.957v7.04h5.641v5.054h-5.641v9.612q0 1.444.632 2.211.632.722 1.85.722.451 0 .993-.18a6.2 6.2 0 0 0 1.128-.632l2.076 4.468a9.5 9.5 0 0 1-2.437 1.308 6.8 6.8 0 0 1-2.617.542m8.409-.542v-22.563h5.956v4.151q1.4-2.121 3.52-3.159 2.166-1.083 4.468-1.083v5.777q-2.076 0-3.926.496-1.805.496-2.934 1.625-1.128 1.127-1.128 2.888v11.868zm26.846.542q-3.34 0-5.912-1.489-2.573-1.535-4.061-4.197-1.445-2.662-1.445-6.138 0-3.474 1.49-6.137 1.534-2.662 4.151-4.152 2.662-1.534 6.093-1.534 2.978 0 5.46 1.58 2.527 1.534 4.016 4.557 1.535 2.979 1.535 7.266h-16.517q.225 2.256 1.94 3.61a6.24 6.24 0 0 0 3.881 1.309q1.851 0 3.024-.767a5.46 5.46 0 0 0 1.805-2.076l5.325 2.076a11.2 11.2 0 0 1-2.482 3.294q-1.49 1.353-3.565 2.076-2.076.722-4.738.722m-4.874-14.667h9.747q-.135-1.398-.902-2.256a4.7 4.7 0 0 0-1.805-1.264 5.6 5.6 0 0 0-2.031-.406q-.948 0-2.076.406a4.9 4.9 0 0 0-1.94 1.219q-.813.858-.993 2.301m27.649 14.667q-2.166 0-4.061-.632a10.7 10.7 0 0 1-3.339-1.895 8.9 8.9 0 0 1-2.257-3.069l5.1-2.347q.677 1.083 1.85 1.896 1.173.767 2.707.767 1.49 0 2.302-.406.812-.451.812-1.264 0-.811-.677-1.173-.631-.407-1.76-.677l-2.075-.542q-3.25-.857-5.145-2.707-1.85-1.896-1.85-4.332 0-3.475 2.211-5.371 2.256-1.895 6.363-1.895 2.121 0 3.926.632 1.85.632 3.159 1.76t1.805 2.617l-4.919 2.257q-.315-.903-1.534-1.445-1.219-.586-2.437-.586t-1.895.541q-.632.497-.632 1.399 0 .587.632.993.632.361 1.805.632l2.933.722q2.21.542 3.52 1.76 1.353 1.173 1.94 2.662.632 1.445.632 2.843 0 2.031-1.218 3.611-1.174 1.534-3.249 2.391-2.031.858-4.649.858m-333.506 46q-3.114 0-5.416-1.444-2.256-1.444-3.52-4.107-1.263-2.663-1.263-6.273 0-3.654 1.263-6.272 1.264-2.662 3.52-4.107 2.303-1.444 5.415-1.444 2.212 0 3.927.948a7.2 7.2 0 0 1 2.843 2.617v-12.049h5.956v31.589h-5.64l-.181-3.159a8.15 8.15 0 0 1-2.888 2.753q-1.76.948-4.017.948m1.534-5.461q1.49 0 2.617-.722 1.174-.767 1.85-2.121.677-1.353.768-3.068v-.903q-.09-1.715-.768-3.023-.676-1.355-1.85-2.076-1.173-.768-2.662-.767-1.625 0-2.888.812-1.22.766-1.94 2.211-.678 1.445-.678 3.294 0 1.85.722 3.295.723 1.444 1.94 2.256 1.264.813 2.889.812m26.07 5.461q-3.339 0-5.911-1.489-2.573-1.535-4.061-4.197-1.444-2.663-1.444-6.138t1.489-6.137q1.534-2.662 4.151-4.152 2.662-1.534 6.093-1.534 2.978 0 5.46 1.58 2.527 1.534 4.016 4.557 1.535 2.979 1.535 7.266H79.095q.225 2.256 1.94 3.61a6.24 6.24 0 0 0 3.881 1.309q1.851 0 3.024-.767a5.46 5.46 0 0 0 1.805-2.076l5.325 2.076a11.2 11.2 0 0 1-2.482 3.294q-1.49 1.353-3.565 2.076-2.076.722-4.738.722m-4.873-14.667h9.747q-.135-1.398-.902-2.256a4.7 4.7 0 0 0-1.805-1.264 5.6 5.6 0 0 0-2.031-.406q-.948 0-2.076.406a4.9 4.9 0 0 0-1.94 1.219q-.813.858-.993 2.301m38.492 14.667q-3.113 0-5.415-1.444-2.256-1.444-3.52-4.107-1.263-2.663-1.263-6.273 0-3.654 1.263-6.272 1.264-2.662 3.52-4.107 2.302-1.444 5.415-1.444 2.212 0 3.926.948a7.2 7.2 0 0 1 2.843 2.617v-12.049h5.957v31.589h-5.641l-.18-3.159a8.15 8.15 0 0 1-2.888 2.753q-1.76.948-4.017.948m1.535-5.461q1.489 0 2.617-.722 1.173-.767 1.85-2.121.678-1.353.767-3.068v-.903q-.09-1.715-.767-3.023-.677-1.355-1.85-2.076-1.173-.768-2.662-.767-1.625 0-2.889.812-1.218.766-1.94 2.211-.677 1.445-.677 3.294 0 1.85.722 3.295t1.941 2.256q1.263.813 2.888.812m26.477 5.461q-3.43 0-6.138-1.489a11.23 11.23 0 0 1-4.196-4.197q-1.49-2.663-1.49-6.138t1.49-6.137a10.6 10.6 0 0 1 4.151-4.152q2.663-1.534 6.092-1.534 3.476 0 6.138 1.534a10.6 10.6 0 0 1 4.151 4.152q1.49 2.663 1.49 6.137 0 3.475-1.49 6.138a10.9 10.9 0 0 1-4.151 4.197q-2.618 1.488-6.047 1.489m0-5.506q1.67 0 2.933-.812a5.34 5.34 0 0 0 1.94-2.211q.723-1.444.722-3.295 0-1.85-.722-3.249-.722-1.444-2.03-2.256-1.264-.813-2.934-.812-1.624 0-2.933.812-1.263.812-1.985 2.256-.722 1.4-.722 3.249t.722 3.295a5.55 5.55 0 0 0 2.03 2.211q1.31.812 2.979.812m15.165 4.964v-22.563h5.595l.271 3.068q1.083-1.76 2.753-2.662 1.715-.948 3.881-.948 2.662 0 4.558 1.083t2.888 3.385q.993 2.256.947 5.866v12.771h-5.956v-11.552q0-2.302-.542-3.565-.496-1.264-1.444-1.805-.948-.588-2.211-.587-2.302-.045-3.565 1.399-1.22 1.445-1.219 4.287v11.823zm25.196 0v-22.563h5.596l.271 3.068q1.083-1.76 2.753-2.662 1.715-.948 3.881-.948 2.663 0 4.557 1.083 1.896 1.083 2.889 3.385.992 2.256.947 5.866v12.771h-5.957v-11.552q0-2.302-.541-3.565-.496-1.264-1.444-1.805-.948-.588-2.211-.587-2.302-.045-3.565 1.399-1.22 1.445-1.219 4.287v11.823zm35.396.542q-3.34 0-5.912-1.489-2.572-1.535-4.061-4.197-1.444-2.663-1.444-6.138t1.489-6.137q1.534-2.662 4.152-4.152 2.662-1.534 6.092-1.534 2.978 0 5.46 1.58 2.528 1.534 4.017 4.557 1.533 2.979 1.534 7.266h-16.517q.227 2.256 1.941 3.61a6.24 6.24 0 0 0 3.881 1.309q1.85 0 3.023-.767a5.46 5.46 0 0 0 1.805-2.076l5.325 2.076a11.2 11.2 0 0 1-2.482 3.294q-1.488 1.353-3.565 2.076-2.076.722-4.738.722m-4.874-14.667h9.748q-.136-1.398-.903-2.256a4.7 4.7 0 0 0-1.805-1.264 5.6 5.6 0 0 0-2.031-.406q-.946 0-2.076.406a4.9 4.9 0 0 0-1.94 1.219q-.812.858-.993 2.301m1.444-11.236 5.145-6.228h6.679l-5.822 6.228zm28.098 25.903q-3.34 0-5.912-1.489-2.572-1.535-4.061-4.197-1.444-2.663-1.444-6.138t1.489-6.137q1.535-2.662 4.152-4.152 2.662-1.534 6.092-1.534 2.978 0 5.46 1.58 2.528 1.534 4.017 4.557 1.534 2.979 1.534 7.266H241.15q.227 2.256 1.941 3.61a6.24 6.24 0 0 0 3.881 1.309q1.85 0 3.023-.767a5.46 5.46 0 0 0 1.805-2.076l5.325 2.076a11.2 11.2 0 0 1-2.482 3.294q-1.489 1.353-3.565 2.076-2.076.722-4.738.722m-4.874-14.667h9.748q-.136-1.398-.903-2.256a4.7 4.7 0 0 0-1.805-1.264 5.6 5.6 0 0 0-2.031-.406q-.947 0-2.076.406a4.9 4.9 0 0 0-1.94 1.219q-.812.858-.993 2.301m27.65 14.667q-2.166 0-4.062-.632a10.7 10.7 0 0 1-3.339-1.895 8.85 8.85 0 0 1-2.256-3.069l5.099-2.347q.677 1.083 1.85 1.896 1.173.767 2.708.767 1.49 0 2.301-.406.813-.451.813-1.264 0-.811-.677-1.173-.633-.407-1.76-.677l-2.076-.542q-3.249-.857-5.145-2.707-1.85-1.896-1.85-4.332 0-3.475 2.211-5.371 2.257-1.895 6.363-1.895 2.121 0 3.926.632 1.851.632 3.159 1.76 1.309 1.128 1.805 2.617l-4.918 2.257q-.317-.903-1.535-1.445-1.218-.586-2.437-.586t-1.895.541q-.632.497-.632 1.399 0 .587.632.993.632.361 1.805.632l2.933.722q2.212.542 3.52 1.76 1.355 1.174 1.941 2.662.631 1.445.631 2.843 0 2.031-1.218 3.611-1.173 1.534-3.249 2.391-2.03.858-4.648.858m31.412 0q-3.114 0-5.415-1.444-2.257-1.444-3.52-4.107t-1.264-6.273q0-3.654 1.264-6.272 1.264-2.662 3.52-4.107 2.301-1.444 5.415-1.444 2.211 0 3.926.948a7.2 7.2 0 0 1 2.843 2.617v-12.049h5.957v31.589h-5.641l-.18-3.159a8.15 8.15 0 0 1-2.888 2.753q-1.761.948-4.017.948m1.535-5.461q1.489 0 2.617-.722 1.173-.767 1.85-2.121.677-1.353.767-3.068v-.903q-.09-1.715-.767-3.023-.677-1.355-1.85-2.076-1.173-.768-2.663-.767-1.624 0-2.888.812-1.218.766-1.94 2.211-.677 1.445-.677 3.294 0 1.85.722 3.295t1.94 2.256q1.264.813 2.889.812m26.07 5.461q-3.339 0-5.911-1.489-2.572-1.535-4.062-4.197-1.444-2.663-1.444-6.138t1.489-6.137q1.535-2.662 4.152-4.152 2.663-1.534 6.092-1.534 2.979 0 5.461 1.58 2.526 1.534 4.016 4.557 1.534 2.979 1.534 7.266h-16.516q.225 2.256 1.94 3.61a6.24 6.24 0 0 0 3.881 1.309q1.85 0 3.024-.767a5.46 5.46 0 0 0 1.805-2.076l5.325 2.076a11.2 11.2 0 0 1-2.482 3.294q-1.49 1.353-3.565 2.076-2.076.722-4.739.722m-4.873-14.667h9.747q-.135-1.398-.902-2.256a4.7 4.7 0 0 0-1.806-1.264 5.6 5.6 0 0 0-2.03-.406q-.948 0-2.076.406a4.9 4.9 0 0 0-1.941 1.219q-.812.858-.992 2.301m25.236 14.125-9.251-22.563h6.137l6.092 15.749 6.092-15.749h6.137l-9.251 22.563zm17.629 0v-22.563h5.957v4.151q1.398-2.121 3.52-3.159 2.166-1.083 4.467-1.083v5.777q-2.075 0-3.926.496-1.805.496-2.933 1.625-1.128 1.127-1.128 2.888v11.868zm23.958.542q-4.062 0-6.318-1.805-2.211-1.806-2.211-5.1 0-3.61 2.392-5.415 2.436-1.85 6.814-1.85h5.325q-.316-2.076-1.309-3.159-.993-1.128-2.843-1.128-1.444 0-2.617.631-1.174.633-1.986 1.941l-5.235-1.805q.631-1.444 1.851-2.798 1.218-1.4 3.158-2.256 1.986-.903 4.829-.903 3.43 0 5.686 1.309 2.301 1.309 3.385 3.7 1.128 2.347 1.083 5.596l-.136 12.5h-5.55l-.091-2.617a5.7 5.7 0 0 1-2.437 2.346q-1.534.813-3.79.813m.993-4.964q1.443 0 2.617-.677a5.2 5.2 0 0 0 1.85-1.76q.677-1.083.677-2.256v-.091h-3.384q-2.934 0-4.062.722-1.128.677-1.128 1.941 0 .993.902 1.579.903.542 2.528.542m15.668 4.422v-22.563h5.956v22.563zm2.978-26.219q-1.354 0-2.392-.992-1.038-1.038-1.038-2.437 0-1.4 1.038-2.392 1.038-1.038 2.392-1.038 1.4 0 2.392 1.038 1.038.993 1.038 2.392 0 1.398-1.038 2.437a3.26 3.26 0 0 1-2.392.992m17.316 26.761q-3.746 0-5.686-1.85-1.896-1.851-1.896-5.28v-10.921h-3.655v-5.054h3.655v-7.04h5.957v7.04h5.641v5.054h-5.641v9.612q0 1.444.632 2.211.632.722 1.85.722.452 0 .993-.18a6.2 6.2 0 0 0 1.128-.632l2.076 4.468a9.5 9.5 0 0 1-2.437 1.308 6.8 6.8 0 0 1-2.617.542m-370.358 46q-3.114 0-5.416-1.444-2.256-1.444-3.52-4.107-1.263-2.663-1.263-6.273 0-3.654 1.263-6.272 1.264-2.662 3.52-4.107 2.303-1.444 5.415-1.444 2.212 0 3.927.948a7.2 7.2 0 0 1 2.843 2.617v-12.049h5.956v31.589h-5.64l-.181-3.159a8.15 8.15 0 0 1-2.888 2.753q-1.76.948-4.017.948m1.534-5.461q1.49 0 2.617-.722 1.174-.767 1.85-2.121.677-1.353.768-3.068v-.903q-.09-1.715-.768-3.023-.676-1.355-1.85-2.076-1.173-.768-2.662-.767-1.625 0-2.888.812-1.22.766-1.94 2.211-.678 1.445-.678 3.294 0 1.85.722 3.295.723 1.444 1.94 2.256 1.264.813 2.889.812m26.477 5.461q-3.43 0-6.138-1.489a11.24 11.24 0 0 1-4.196-4.197q-1.49-2.663-1.49-6.138t1.49-6.137a10.6 10.6 0 0 1 4.151-4.152q2.662-1.534 6.093-1.534 3.474 0 6.137 1.534a10.6 10.6 0 0 1 4.151 4.152q1.49 2.663 1.49 6.137 0 3.475-1.49 6.138a10.9 10.9 0 0 1-4.151 4.197q-2.617 1.488-6.047 1.489m0-5.506q1.669 0 2.933-.812a5.34 5.34 0 0 0 1.94-2.211q.723-1.444.723-3.295t-.723-3.249q-.721-1.444-2.03-2.256-1.264-.813-2.933-.812-1.625 0-2.934.812-1.263.812-1.985 2.256-.722 1.4-.722 3.249t.722 3.295a5.55 5.55 0 0 0 2.03 2.211q1.31.812 2.979.812m23.197 5.506q-2.707 0-4.603-1.083-1.85-1.084-2.843-3.34-.992-2.301-.992-5.911v-12.771h5.956v11.552q0 2.257.497 3.565.541 1.264 1.489 1.85.993.542 2.211.542 2.347.045 3.565-1.399 1.218-1.49 1.219-4.287v-11.823h5.956v22.563h-5.595l-.226-3.068q-1.128 1.714-2.843 2.662-1.67.948-3.791.948m29.935 0q-2.301 0-4.016-.948-1.715-.992-2.888-2.798l-.226 3.204h-5.64v-31.589h5.956v12.094q1.128-1.76 2.843-2.662 1.716-.948 3.971-.948 3.114 0 5.371 1.444 2.3 1.445 3.565 4.107 1.263 2.618 1.263 6.272 0 3.61-1.263 6.273-1.264 2.663-3.565 4.107-2.257 1.443-5.371 1.444m-1.534-5.461q1.625 0 2.843-.812 1.264-.812 1.986-2.256t.722-3.295q0-1.85-.722-3.294-.677-1.444-1.941-2.211-1.218-.813-2.843-.812-1.534 0-2.752.812-1.22.812-1.896 2.256-.677 1.4-.677 3.249t.677 3.295q.677 1.444 1.85 2.256 1.219.813 2.753.812m15.194 4.919v-31.589h5.957v31.589zm20.853.542q-3.34 0-5.912-1.489-2.572-1.535-4.061-4.197-1.444-2.663-1.444-6.138t1.489-6.137q1.535-2.662 4.152-4.152 2.662-1.534 6.092-1.534 2.978 0 5.46 1.58 2.528 1.534 4.017 4.557 1.533 2.979 1.534 7.266h-16.517q.227 2.256 1.941 3.61a6.24 6.24 0 0 0 3.881 1.309q1.85 0 3.023-.767a5.46 5.46 0 0 0 1.805-2.076l5.325 2.076a11.2 11.2 0 0 1-2.482 3.294q-1.488 1.353-3.565 2.076-2.076.722-4.738.722m-4.874-14.667h9.748q-.136-1.398-.903-2.256a4.7 4.7 0 0 0-1.805-1.264 5.6 5.6 0 0 0-2.031-.406q-.947 0-2.076.406a4.9 4.9 0 0 0-1.94 1.219q-.812.858-.993 2.301m19.211 14.125v-22.563h5.957v4.151q1.398-2.121 3.52-3.159 2.166-1.083 4.467-1.083v5.777q-2.075 0-3.926.496-1.805.496-2.933 1.625-1.128 1.127-1.128 2.888v11.868zm35.929.542q-3.114 0-5.415-1.444-2.256-1.444-3.52-4.107t-1.264-6.273q0-3.654 1.264-6.272 1.263-2.662 3.52-4.107 2.301-1.444 5.415-1.444 2.211 0 3.926.948a7.2 7.2 0 0 1 2.843 2.617v-12.049h5.957v31.589h-5.641l-.181-3.159a8.14 8.14 0 0 1-2.888 2.753q-1.76.948-4.016.948m1.534-5.461q1.49 0 2.618-.722 1.173-.767 1.85-2.121.677-1.353.767-3.068v-.903q-.09-1.715-.767-3.023-.677-1.355-1.85-2.076-1.173-.768-2.663-.767-1.625 0-2.888.812-1.218.766-1.94 2.211-.678 1.445-.677 3.294 0 1.85.722 3.295t1.94 2.256q1.264.813 2.888.812m13.887-16.02 2.753-10.65h6.182l-4.422 10.65zm11.766 20.939v-22.563h5.957v22.563zm2.979-26.219q-1.354 0-2.392-.992-1.038-1.038-1.038-2.437 0-1.4 1.038-2.392 1.038-1.038 2.392-1.038 1.398 0 2.392 1.038 1.037.993 1.037 2.392 0 1.398-1.037 2.437a3.26 3.26 0 0 1-2.392.992m18.895 26.761q-3.52 0-6.273-1.489-2.753-1.535-4.287-4.197-1.534-2.708-1.534-6.138 0-3.474 1.534-6.137a10.83 10.83 0 0 1 4.242-4.152q2.707-1.534 6.228-1.534 3.384 0 6.182 1.67t4.062 4.828l-5.596 1.986q-.631-1.308-1.986-2.076-1.308-.812-2.933-.812-1.67 0-2.933.812-1.264.768-1.986 2.166-.722 1.4-.722 3.249t.722 3.25a5.63 5.63 0 0 0 2.031 2.166q1.308.812 2.978.812 1.625 0 2.934-.857 1.353-.858 1.985-2.257l5.641 1.986q-1.308 3.203-4.107 4.964-2.752 1.76-6.182 1.76m13.669-.542v-22.563h5.956v22.563zm2.978-26.219q-1.353 0-2.392-.992-1.038-1.038-1.038-2.437 0-1.4 1.038-2.392 1.038-1.038 2.392-1.038 1.4 0 2.392 1.038 1.038.993 1.038 2.392 0 1.398-1.038 2.437a3.26 3.26 0 0 1-2.392.992m18.05 26.219v-4.558q0-1.308.813-2.888t2.256-3.159a20.3 20.3 0 0 1 3.384-2.933l4.784-3.43a13 13 0 0 0 1.85-1.534 7.5 7.5 0 0 0 1.444-1.85q.587-1.038.587-1.986a3.95 3.95 0 0 0-.587-2.121q-.541-.948-1.624-1.489t-2.663-.541q-1.353 0-2.437.541a5 5 0 0 0-1.715 1.444 5.6 5.6 0 0 0-.947 1.941l-6.363-1.083q.451-2.257 1.94-4.197 1.49-1.941 3.881-3.114 2.437-1.218 5.506-1.218 3.52 0 6.047 1.263t3.881 3.475q1.399 2.166 1.399 5.054 0 2.934-1.625 5.235-1.58 2.256-4.377 4.242l-4.287 3.114a12 12 0 0 0-2.257 1.985 7.8 7.8 0 0 0-1.444 2.392h14.396v5.415zm38.002.542q-3.837 0-6.769-2.076-2.934-2.121-4.603-5.776-1.67-3.7-1.67-8.484t1.67-8.439q1.67-3.7 4.557-5.776 2.934-2.121 6.769-2.121t6.77 2.121q2.977 2.076 4.648 5.776 1.67 3.656 1.669 8.439 0 4.784-1.669 8.484-1.67 3.654-4.603 5.776-2.934 2.076-6.769 2.076m0-5.596q2.03 0 3.61-1.354 1.624-1.398 2.527-3.791.902-2.436.902-5.595 0-3.16-.902-5.596-.903-2.437-2.527-3.791-1.58-1.399-3.656-1.399-2.03 0-3.61 1.399-1.58 1.354-2.482 3.791-.857 2.437-.857 5.596t.857 5.595q.903 2.393 2.482 3.791 1.625 1.354 3.656 1.354m26.87 5.596q-2.798 0-5.055-.813-2.256-.857-3.79-2.391a8.7 8.7 0 0 1-2.076-3.701l5.686-1.669q.316.541.857 1.353.542.768 1.49 1.309.947.542 2.482.542 2.256 0 3.565-1.219 1.353-1.263 1.353-3.249 0-1.354-.677-2.392-.676-1.038-2.211-1.579-1.489-.587-3.926-.587h-1.895v-5.054h1.895q3.16 0 4.693-1.083 1.535-1.083 1.535-2.979 0-1.082-.542-1.94-.541-.858-1.534-1.354t-2.302-.496q-.857 0-1.76.316a4.4 4.4 0 0 0-1.669.947q-.723.632-1.174 1.851l-5.595-1.67q.631-2.211 2.166-3.701a10.2 10.2 0 0 1 3.745-2.301 12.6 12.6 0 0 1 4.468-.812q2.933 0 5.28 1.128 2.346 1.083 3.7 3.023t1.354 4.468q0 2.483-1.399 4.242-1.353 1.715-3.655 2.753 2.618 1.218 4.151 3.249 1.535 1.986 1.535 4.693 0 2.843-1.489 4.919-1.49 2.031-3.926 3.114t-5.28 1.083m26.564 0q-3.835 0-6.769-2.076-2.934-2.121-4.603-5.776-1.67-3.7-1.67-8.484t1.67-8.439q1.67-3.7 4.558-5.776 2.933-2.121 6.769-2.121t6.769 2.121q2.979 2.076 4.648 5.776 1.67 3.656 1.67 8.439 0 4.784-1.67 8.484-1.67 3.654-4.603 5.776-2.933 2.076-6.769 2.076m0-5.596q2.03 0 3.61-1.354 1.625-1.398 2.527-3.791.903-2.436.903-5.595 0-3.16-.903-5.596-.902-2.437-2.527-3.791-1.58-1.399-3.655-1.399-2.03 0-3.61 1.399-1.58 1.354-2.482 3.791-.858 2.437-.858 5.596t.858 5.595q.902 2.393 2.482 3.791 1.624 1.354 3.655 1.354m19.785 5.731q-1.49 0-2.572-1.083a3.6 3.6 0 0 1-1.038-2.572q0-1.444 1.038-2.527 1.083-1.083 2.572-1.083t2.527 1.083q1.083 1.083 1.083 2.527 0 1.49-1.083 2.572-1.038 1.083-2.527 1.083"/><path stroke="#48d36e" stroke-width="5.593" d="M233.845 539.124v92.287c0 .773-.626 1.399-1.399 1.399H136.43a1.4 1.4 0 0 1-1.399-1.399v-92.287m242.372-82.258v174.542c0 .772-.626 1.399-1.398 1.399h-96.017a1.4 1.4 0 0 1-1.398-1.399V456.866"/><path stroke="#48d36e" stroke-width="28.432" d="M104.266 358.319h57.796c10.297 0 18.644 8.347 18.644 18.644v30.763"/><path stroke="#48d36e" stroke-linecap="round" stroke-width="6.992" d="M165.558 408.889h29.365"/><path stroke="#48d36e" stroke-width="28.432" d="M248.295 358.32h57.796c10.297 0 18.644 8.347 18.644 18.644v30.762"/><path stroke="#48d36e" stroke-linecap="round" stroke-width="6.992" d="M309.582 408.889h29.364"/><path stroke="#48d36e" stroke-linecap="round" stroke-linejoin="round" stroke-width="7.069" d="M148.623 573.379c2.121 1.768 4.242 3.535 8.837 3.535 8.836 0 8.836-7.069 17.673-7.069 9.189 0 8.483 7.069 17.673 7.069 8.836 0 8.836-7.069 17.672-7.069 4.595 0 6.716 1.767 8.837 3.534m-70.692 21.209c2.121 1.767 4.242 3.534 8.837 3.534 8.836 0 8.836-7.069 17.673-7.069 9.189 0 8.483 7.069 17.673 7.069 8.836 0 8.836-7.069 17.672-7.069 4.595 0 6.716 1.768 8.837 3.535m-70.692 21.211c2.121 1.767 4.242 3.534 8.837 3.534 8.836 0 8.836-7.069 17.673-7.069 9.189 0 8.483 7.069 17.673 7.069 8.836 0 8.836-7.069 17.672-7.069 4.595 0 6.716 1.767 8.837 3.535m72.4-42.42c2.121 1.768 4.241 3.535 8.836 3.535 8.837 0 8.837-7.069 17.673-7.069 9.19 0 8.483 7.069 17.673 7.069 8.837 0 8.837-7.069 17.673-7.069 4.595 0 6.716 1.767 8.837 3.534m-70.692 21.209c2.121 1.767 4.241 3.534 8.836 3.534 8.837 0 8.837-7.069 17.673-7.069 9.19 0 8.483 7.069 17.673 7.069 8.837 0 8.837-7.069 17.673-7.069 4.595 0 6.716 1.768 8.837 3.535m-70.692 21.211c2.121 1.767 4.241 3.534 8.836 3.534 8.837 0 8.837-7.069 17.673-7.069 9.19 0 8.483 7.069 17.673 7.069 8.837 0 8.837-7.069 17.673-7.069 4.595 0 6.716 1.767 8.837 3.535m-213.784-63.861c2.121 1.767 4.242 3.535 8.837 3.535 8.836 0 8.836-7.069 17.673-7.069 9.189 0 8.483 7.069 17.673 7.069 8.836 0 8.836-7.069 17.672-7.069 4.595 0 6.716 1.767 8.837 3.534m72.4-42.415c2.121 1.767 4.241 3.534 8.836 3.534 8.837 0 8.837-7.069 17.673-7.069 9.19 0 8.483 7.069 17.673 7.069 8.837 0 8.837-7.069 17.673-7.069 4.595 0 6.716 1.768 8.837 3.535m-70.692-23.302c2.121 1.767 4.241 3.534 8.836 3.534 8.837 0 8.837-7.069 17.673-7.069 9.19 0 8.483 7.069 17.673 7.069 8.837 0 8.837-7.069 17.673-7.069 4.595 0 6.716 1.767 8.837 3.535m-70.692-21c2.121 1.767 4.241 3.534 8.836 3.534 8.837 0 8.837-7.069 17.673-7.069 9.19 0 8.483 7.069 17.673 7.069 8.837 0 8.837-7.069 17.673-7.069 4.595 0 6.716 1.767 8.837 3.535m-70.692 65.51c2.121 1.768 4.241 3.535 8.836 3.535 8.837 0 8.837-7.069 17.673-7.069 9.19 0 8.483 7.069 17.673 7.069 8.837 0 8.837-7.069 17.673-7.069 4.595 0 6.716 1.767 8.837 3.534m-70.692 21.207c2.121 1.767 4.241 3.535 8.836 3.535 8.837 0 8.837-7.069 17.673-7.069 9.19 0 8.483 7.069 17.673 7.069 8.837 0 8.837-7.069 17.673-7.069 4.595 0 6.716 1.767 8.837 3.534"/><path fill="#48d36e" stroke="#48d36e" stroke-width=".796" d="M186.379 436.101c0-2.925-6.37-7.945-6.37-7.945s-6.37 5.02-6.37 7.945 2.852 5.297 6.37 5.297 6.37-2.372 6.37-5.297Zm145.422-.941c0-2.926-6.37-7.945-6.37-7.945s-6.37 5.019-6.37 7.945c0 2.925 2.852 5.297 6.37 5.297s6.37-2.372 6.37-5.297Z"/><path fill="#48d36e" d="M149.653 688.742v-2.877q0-1.001.517-2.068.518-1.098 1.455-2.197a15 15 0 0 1 2.262-2.069l3.942-2.844a8 8 0 0 0 1.358-1.195 6.3 6.3 0 0 0 1.034-1.422q.387-.776.388-1.519a3.17 3.17 0 0 0-.485-1.713q-.452-.775-1.325-1.228-.84-.453-2.068-.453-1.1 0-1.972.453a4 4 0 0 0-1.389 1.131 4.4 4.4 0 0 0-.776 1.551l-3.846-.711a6.9 6.9 0 0 1 1.358-2.876q1.066-1.358 2.714-2.165 1.681-.808 3.814-.808 2.391 0 4.136.872 1.778.873 2.715 2.424.969 1.52.969 3.49 0 2.004-1.098 3.62-1.067 1.584-3.006 3.038l-3.619 2.682q-1.067.775-1.745 1.681a5.1 5.1 0 0 0-.938 1.874h10.697v3.329zm27.124.388q-2.65 0-4.719-1.487-2.068-1.52-3.264-4.137-1.163-2.65-1.163-6.075t1.163-6.044q1.196-2.65 3.232-4.136 2.068-1.52 4.751-1.519 2.682 0 4.75 1.519 2.068 1.487 3.232 4.136 1.196 2.618 1.196 6.044t-1.196 6.075q-1.164 2.617-3.232 4.137-2.036 1.487-4.75 1.487m.032-3.394q1.584 0 2.812-1.066 1.26-1.067 1.939-2.941.711-1.875.711-4.298t-.711-4.299q-.68-1.906-1.939-2.973a4.2 4.2 0 0 0-2.844-1.066 4.2 4.2 0 0 0-2.844 1.066q-1.228 1.067-1.939 2.941-.68 1.875-.679 4.331 0 2.423.679 4.298.71 1.874 1.939 2.941 1.26 1.066 2.876 1.066m12.136 3.006v-2.877q0-1.001.517-2.068.518-1.098 1.454-2.197a15 15 0 0 1 2.263-2.069l3.942-2.844a8 8 0 0 0 1.358-1.195 6.3 6.3 0 0 0 1.034-1.422q.388-.776.388-1.519a3.17 3.17 0 0 0-.485-1.713q-.452-.775-1.325-1.228-.84-.453-2.068-.453-1.1 0-1.972.453a4 4 0 0 0-1.389 1.131 4.4 4.4 0 0 0-.776 1.551l-3.846-.711a6.9 6.9 0 0 1 1.358-2.876q1.066-1.358 2.714-2.165 1.681-.808 3.814-.808 2.391 0 4.136.872 1.777.873 2.715 2.424.969 1.52.969 3.49 0 2.004-1.098 3.62-1.066 1.584-3.006 3.038l-3.619 2.682q-1.067.775-1.746 1.681a5.1 5.1 0 0 0-.937 1.874h10.697v3.329zm26.154.388q-1.487 0-3.038-.453a9.9 9.9 0 0 1-2.811-1.422 6.34 6.34 0 0 1-1.972-2.424l3.329-1.228q.84 1.196 1.971 1.745 1.131.517 2.327.517 1.906 0 3.103-1.131 1.195-1.163 1.195-3.07 0-1.841-1.163-3.038-1.163-1.195-3.038-1.195-1.099 0-2.068.484-.938.485-1.454 1.164l-3.394-.743 1.261-12.216h12.506v3.393h-9.275l-.646 6.14a7.8 7.8 0 0 1 1.939-.808 8.1 8.1 0 0 1 2.295-.323q1.939 0 3.49.905a6.64 6.64 0 0 1 2.456 2.488q.905 1.552.905 3.588 0 2.262-1.034 3.975a7.1 7.1 0 0 1-2.78 2.682q-1.778.97-4.104.97m76.629-.388v-2.877q0-1.001.517-2.068.517-1.098 1.454-2.197a15 15 0 0 1 2.262-2.069l3.943-2.844a8 8 0 0 0 1.358-1.195q.645-.68 1.034-1.422.387-.776.387-1.519 0-.937-.484-1.713-.453-.775-1.325-1.228-.84-.453-2.069-.453-1.098 0-1.971.453-.84.42-1.39 1.131a4.4 4.4 0 0 0-.775 1.551l-3.846-.711q.323-1.551 1.357-2.876 1.066-1.358 2.715-2.165 1.68-.808 3.813-.808 2.392 0 4.137.872 1.778.873 2.715 2.424.969 1.52.969 3.49 0 2.004-1.099 3.62-1.066 1.584-3.005 3.038l-3.62 2.682q-1.066.775-1.745 1.681a5.1 5.1 0 0 0-.937 1.874h10.697v3.329zm27.123.388q-2.65 0-4.718-1.487-2.068-1.52-3.264-4.137-1.163-2.65-1.163-6.075t1.163-6.044q1.195-2.65 3.232-4.136 2.068-1.52 4.75-1.519 2.683 0 4.751 1.519 2.068 1.487 3.232 4.136 1.196 2.618 1.196 6.044t-1.196 6.075q-1.164 2.617-3.232 4.137-2.036 1.487-4.751 1.487m.033-3.394q1.583 0 2.811-1.066 1.261-1.067 1.939-2.941.711-1.875.711-4.298t-.711-4.299q-.678-1.906-1.939-2.973a4.2 4.2 0 0 0-2.844-1.066 4.2 4.2 0 0 0-2.843 1.066q-1.229 1.067-1.94 2.941-.678 1.875-.678 4.331 0 2.423.678 4.298.711 1.874 1.94 2.941 1.26 1.066 2.876 1.066m19.31 3.394q-1.842 0-3.361-.55-1.518-.549-2.553-1.551t-1.486-2.262l3.361-1.261q.258.453.711 1.002.452.55 1.195.97.743.387 1.907.387 1.842 0 2.909-1.034 1.098-1.067 1.098-2.682 0-1.164-.614-2.004-.58-.84-1.842-1.292-1.228-.453-3.102-.453h-1.034v-3.102h1.034q2.488 0 3.781-.841 1.293-.84 1.293-2.359 0-.871-.453-1.551-.42-.711-1.228-1.131-.807-.42-1.907-.42-.711 0-1.389.226a3.9 3.9 0 0 0-1.261.711 3.9 3.9 0 0 0-.969 1.26l-3.264-1.195q.485-1.357 1.551-2.295a7 7 0 0 1 2.489-1.454 8.6 8.6 0 0 1 2.973-.517q2.068 0 3.684.775 1.648.776 2.585 2.166.97 1.357.97 3.134 0 1.746-1.002 3.006-.97 1.228-2.618 1.971 1.875.873 2.973 2.327 1.132 1.422 1.132 3.426 0 2.035-1.067 3.522-1.034 1.486-2.747 2.295-1.712.776-3.749.776m19.287 0q-2.65 0-4.719-1.487-2.069-1.52-3.264-4.137-1.163-2.65-1.163-6.075t1.163-6.044q1.196-2.65 3.232-4.136 2.068-1.52 4.751-1.519 2.682 0 4.75 1.519 2.068 1.487 3.232 4.136 1.196 2.618 1.196 6.044t-1.196 6.075q-1.164 2.617-3.232 4.137-2.036 1.487-4.75 1.487m.032-3.394q1.584 0 2.812-1.066 1.26-1.067 1.939-2.941.711-1.875.711-4.298t-.711-4.299q-.68-1.906-1.939-2.973a4.2 4.2 0 0 0-2.844-1.066 4.2 4.2 0 0 0-2.844 1.066q-1.228 1.067-1.939 2.941-.68 1.875-.679 4.331 0 2.423.679 4.298.71 1.874 1.939 2.941 1.26 1.066 2.876 1.066"/></svg>