<svg width="518" height="779" viewBox="0 0 518 779" fill="none" xmlns="http://www.w3.org/2000/svg">
<rect x="1.41022" y="1.41022" width="515.18" height="776.18" rx="7.62096" stroke="#48D36E" stroke-width="2.82045"/>
<path d="M48.5566 77.1272V45.5382H54.739V71.4863H68.6382V77.1272H48.5566ZM78.7964 77.6687C76.0888 77.6687 73.9829 77.067 72.4786 75.8636C71.0045 74.6602 70.2674 72.9605 70.2674 70.7643C70.2674 68.3575 71.0646 66.5524 72.6591 65.349C74.2837 64.1155 76.5551 63.4988 79.4733 63.4988H84.7983C84.5877 62.1149 84.1515 61.0619 83.4896 60.3399C82.8278 59.5878 81.8801 59.2117 80.6466 59.2117C79.6839 59.2117 78.8115 59.4223 78.0293 59.8435C77.2471 60.2647 76.5852 60.9115 76.0437 61.784L70.8089 59.9789C71.2301 59.0162 71.8468 58.0835 72.6591 57.181C73.4714 56.2484 74.5244 55.4962 75.818 54.9246C77.1418 54.3229 78.7513 54.0221 80.6466 54.0221C82.9331 54.0221 84.8284 54.4583 86.3327 55.3308C87.867 56.2032 88.9952 57.4367 89.7172 59.0312C90.4693 60.5956 90.8303 62.4609 90.8002 64.627L90.6649 77.1272H85.1142L85.024 74.5098C84.4524 75.5327 83.6401 76.3149 82.5871 76.8564C81.5642 77.398 80.3007 77.6687 78.7964 77.6687ZM79.7892 72.7047C80.7519 72.7047 81.6244 72.4791 82.4066 72.0278C83.1888 71.5766 83.8055 70.9899 84.2568 70.2679C84.7081 69.5458 84.9337 68.7937 84.9337 68.0115V67.9213H81.5492C79.5937 67.9213 78.2399 68.1619 77.4877 68.6433C76.7356 69.0946 76.3596 69.7414 76.3596 70.5838C76.3596 71.2456 76.6604 71.7721 77.2621 72.1632C77.8638 72.5242 78.7062 72.7047 79.7892 72.7047ZM116.273 77.6687C113.927 77.6687 111.836 77.1723 110 76.1795C108.165 75.1566 106.736 73.7577 105.713 71.9827C104.691 70.1776 104.179 68.1318 104.179 65.8454C104.179 63.5289 104.691 61.4831 105.713 59.7081C106.736 57.9331 108.15 56.5492 109.955 55.5564C111.76 54.5335 113.836 54.0221 116.183 54.0221C118.439 54.0221 120.5 54.5787 122.365 55.6918C124.231 56.8049 125.584 58.4145 126.427 60.5204L120.831 62.506C120.41 61.6335 119.748 60.9416 118.845 60.4301C117.973 59.8886 116.995 59.6179 115.912 59.6179C114.799 59.6179 113.821 59.8886 112.979 60.4301C112.136 60.9416 111.475 61.6636 110.993 62.5962C110.512 63.5289 110.271 64.6119 110.271 65.8454C110.271 67.0789 110.512 68.1619 110.993 69.0946C111.475 69.9971 112.152 70.7191 113.024 71.2607C113.896 71.8022 114.889 72.073 116.002 72.073C117.085 72.073 118.063 71.7871 118.936 71.2155C119.838 70.6439 120.5 69.8918 120.921 68.9592L126.562 70.9448C125.69 73.0808 124.321 74.7355 122.456 75.9088C120.62 77.0821 118.56 77.6687 116.273 77.6687ZM140.186 77.6687C137.899 77.6687 135.853 77.1723 134.048 76.1795C132.273 75.1566 130.874 73.7577 129.852 71.9827C128.859 70.2077 128.362 68.1619 128.362 65.8454C128.362 63.5289 128.859 61.4831 129.852 59.7081C130.844 57.9331 132.228 56.5492 134.003 55.5564C135.778 54.5335 137.809 54.0221 140.095 54.0221C142.412 54.0221 144.458 54.5335 146.233 55.5564C148.008 56.5492 149.392 57.9331 150.384 59.7081C151.377 61.4831 151.874 63.5289 151.874 65.8454C151.874 68.1619 151.377 70.2077 150.384 71.9827C149.392 73.7577 148.008 75.1566 146.233 76.1795C144.488 77.1723 142.472 77.6687 140.186 77.6687ZM140.186 72.1632C141.299 72.1632 142.277 71.8924 143.119 71.3509C143.961 70.8094 144.608 70.0723 145.059 69.1397C145.541 68.177 145.781 67.0789 145.781 65.8454C145.781 64.6119 145.541 63.5289 145.059 62.5962C144.578 61.6335 143.901 60.8814 143.029 60.3399C142.186 59.7984 141.209 59.5276 140.095 59.5276C139.012 59.5276 138.035 59.7984 137.162 60.3399C136.32 60.8814 135.658 61.6335 135.177 62.5962C134.695 63.5289 134.454 64.6119 134.454 65.8454C134.454 67.0789 134.695 68.177 135.177 69.1397C135.658 70.0723 136.335 70.8094 137.207 71.3509C138.08 71.8924 139.073 72.1632 140.186 72.1632ZM155.351 77.1272V54.5636H160.946L161.217 57.6323C161.939 56.459 162.857 55.5715 163.97 54.9698C165.113 54.338 166.407 54.0221 167.851 54.0221C169.626 54.0221 171.145 54.3831 172.409 55.1051C173.672 55.8272 174.635 56.9554 175.297 58.4897C175.959 59.9939 176.274 61.9494 176.244 64.3562V77.1272H170.288V65.5746C170.288 64.0403 170.107 62.852 169.746 62.0096C169.415 61.1672 168.934 60.5655 168.302 60.2045C167.67 59.8134 166.933 59.6179 166.091 59.6179C164.556 59.5878 163.368 60.0541 162.526 61.0168C161.713 61.9795 161.307 63.4085 161.307 65.3039V77.1272H155.351ZM188.986 77.6687C187.542 77.6687 186.188 77.4581 184.925 77.0369C183.661 76.5857 182.548 75.9539 181.585 75.1416C180.623 74.2992 179.87 73.2763 179.329 72.073L184.428 69.7263C184.88 70.4484 185.496 71.0802 186.278 71.6217C187.061 72.1331 187.963 72.3888 188.986 72.3888C189.979 72.3888 190.746 72.2535 191.288 71.9827C191.829 71.6819 192.1 71.2607 192.1 70.7191C192.1 70.1776 191.874 69.7865 191.423 69.5458C191.002 69.2751 190.415 69.0494 189.663 68.8689L187.587 68.3274C185.421 67.7558 183.706 66.8532 182.443 65.6198C181.209 64.3562 180.592 62.9121 180.592 61.2876C180.592 58.971 181.33 57.181 182.804 55.9174C184.308 54.6539 186.429 54.0221 189.167 54.0221C190.581 54.0221 191.889 54.2327 193.093 54.6539C194.326 55.0751 195.379 55.6617 196.252 56.4138C197.124 57.1659 197.726 58.0384 198.057 59.0312L193.138 61.2876C192.927 60.6859 192.416 60.2045 191.604 59.8435C190.791 59.4524 189.979 59.2568 189.167 59.2568C188.354 59.2568 187.723 59.4373 187.271 59.7984C186.85 60.1293 186.64 60.5956 186.64 61.1973C186.64 61.5884 186.85 61.9193 187.271 62.1901C187.692 62.4308 188.294 62.6414 189.076 62.8219L192.01 63.5439C193.484 63.9049 194.657 64.4916 195.53 65.3039C196.432 66.0861 197.079 66.9736 197.47 67.9664C197.891 68.9291 198.102 69.8768 198.102 70.8094C198.102 72.1632 197.696 73.3666 196.883 74.4196C196.101 75.4424 195.018 76.2397 193.634 76.8113C192.28 77.3829 190.731 77.6687 188.986 77.6687ZM211.722 77.6687C209.435 77.6687 207.39 77.1723 205.584 76.1795C203.809 75.1566 202.411 73.7577 201.388 71.9827C200.395 70.2077 199.898 68.1619 199.898 65.8454C199.898 63.5289 200.395 61.4831 201.388 59.7081C202.38 57.9331 203.764 56.5492 205.539 55.5564C207.314 54.5335 209.345 54.0221 211.632 54.0221C213.948 54.0221 215.994 54.5335 217.769 55.5564C219.544 56.5492 220.928 57.9331 221.921 59.7081C222.913 61.4831 223.41 63.5289 223.41 65.8454C223.41 68.1619 222.913 70.2077 221.921 71.9827C220.928 73.7577 219.544 75.1566 217.769 76.1795C216.024 77.1723 214.008 77.6687 211.722 77.6687ZM211.722 72.1632C212.835 72.1632 213.813 71.8924 214.655 71.3509C215.497 70.8094 216.144 70.0723 216.595 69.1397C217.077 68.177 217.318 67.0789 217.318 65.8454C217.318 64.6119 217.077 63.5289 216.595 62.5962C216.114 61.6335 215.437 60.8814 214.565 60.3399C213.722 59.7984 212.745 59.5276 211.632 59.5276C210.548 59.5276 209.571 59.7984 208.698 60.3399C207.856 60.8814 207.194 61.6335 206.713 62.5962C206.231 63.5289 205.991 64.6119 205.991 65.8454C205.991 67.0789 206.231 68.177 206.713 69.1397C207.194 70.0723 207.871 70.8094 208.743 71.3509C209.616 71.8924 210.609 72.1632 211.722 72.1632ZM226.887 77.1272V54.5636H232.482L232.753 57.4969C233.445 56.3537 234.333 55.4962 235.416 54.9246C236.499 54.3229 237.702 54.0221 239.026 54.0221C240.861 54.0221 242.395 54.4132 243.629 55.1954C244.892 55.9776 245.81 57.181 246.382 58.8056C247.043 57.2712 247.976 56.0979 249.179 55.2856C250.383 54.4433 251.782 54.0221 253.376 54.0221C256.024 54.0221 258.039 54.8645 259.423 56.5492C260.807 58.2039 261.499 60.7611 261.499 64.2208V77.1272H255.542V65.5746C255.542 64.0403 255.377 62.852 255.046 62.0096C254.715 61.1672 254.264 60.5655 253.692 60.2045C253.121 59.8134 252.444 59.6179 251.661 59.6179C250.217 59.5878 249.104 60.0541 248.322 61.0168C247.54 61.9795 247.149 63.4085 247.149 65.3039V77.1272H241.192V65.5746C241.192 64.0403 241.026 62.852 240.696 62.0096C240.395 61.1672 239.943 60.5655 239.342 60.2045C238.77 59.8134 238.093 59.6179 237.311 59.6179C235.867 59.5878 234.754 60.0541 233.972 61.0168C233.219 61.9795 232.843 63.4085 232.843 65.3039V77.1272H226.887ZM265.789 77.1272V54.5636H271.385L271.656 57.4969C272.348 56.3537 273.235 55.4962 274.318 54.9246C275.401 54.3229 276.605 54.0221 277.928 54.0221C279.763 54.0221 281.298 54.4132 282.531 55.1954C283.795 55.9776 284.712 57.181 285.284 58.8056C285.946 57.2712 286.879 56.0979 288.082 55.2856C289.285 54.4433 290.684 54.0221 292.279 54.0221C294.926 54.0221 296.942 54.8645 298.326 56.5492C299.71 58.2039 300.402 60.7611 300.402 64.2208V77.1272H294.445V65.5746C294.445 64.0403 294.279 62.852 293.948 62.0096C293.617 61.1672 293.166 60.5655 292.595 60.2045C292.023 59.8134 291.346 59.6179 290.564 59.6179C289.12 59.5878 288.007 60.0541 287.224 61.0168C286.442 61.9795 286.051 63.4085 286.051 65.3039V77.1272H280.094V65.5746C280.094 64.0403 279.929 62.852 279.598 62.0096C279.297 61.1672 278.846 60.5655 278.244 60.2045C277.673 59.8134 276.996 59.6179 276.213 59.6179C274.769 59.5878 273.656 60.0541 272.874 61.0168C272.122 61.9795 271.746 63.4085 271.746 65.3039V77.1272H265.789ZM312.002 77.6687C309.295 77.6687 307.189 77.067 305.684 75.8636C304.21 74.6602 303.473 72.9605 303.473 70.7643C303.473 68.3575 304.27 66.5524 305.865 65.349C307.489 64.1155 309.761 63.4988 312.679 63.4988H318.004C317.793 62.1149 317.357 61.0619 316.695 60.3399C316.034 59.5878 315.086 59.2117 313.852 59.2117C312.89 59.2117 312.017 59.4223 311.235 59.8435C310.453 60.2647 309.791 60.9115 309.249 61.784L304.015 59.9789C304.436 59.0162 305.053 58.0835 305.865 57.181C306.677 56.2484 307.73 55.4962 309.024 54.9246C310.347 54.3229 311.957 54.0221 313.852 54.0221C316.139 54.0221 318.034 54.4583 319.538 55.3308C321.073 56.2032 322.201 57.4367 322.923 59.0312C323.675 60.5956 324.036 62.4609 324.006 64.627L323.871 77.1272H318.32L318.23 74.5098C317.658 75.5327 316.846 76.3149 315.793 76.8564C314.77 77.398 313.506 77.6687 312.002 77.6687ZM312.995 72.7047C313.958 72.7047 314.83 72.4791 315.612 72.0278C316.395 71.5766 317.011 70.9899 317.463 70.2679C317.914 69.5458 318.139 68.7937 318.139 68.0115V67.9213H314.755C312.799 67.9213 311.446 68.1619 310.693 68.6433C309.941 69.0946 309.565 69.7414 309.565 70.5838C309.565 71.2456 309.866 71.7721 310.468 72.1632C311.07 72.5242 311.912 72.7047 312.995 72.7047ZM337.598 77.6687C335.101 77.6687 333.206 77.052 331.912 75.8185C330.648 74.585 330.017 72.8251 330.017 70.5386V59.6179H326.361V54.5636H330.017V47.5238H335.973V54.5636H341.614V59.6179H335.973V69.2299C335.973 70.1927 336.184 70.9297 336.605 71.4412C337.026 71.9225 337.643 72.1632 338.455 72.1632C338.756 72.1632 339.087 72.103 339.448 71.9827C339.809 71.8323 340.185 71.6217 340.576 71.3509L342.652 75.8185C341.93 76.36 341.118 76.7963 340.215 77.1272C339.343 77.4882 338.471 77.6687 337.598 77.6687ZM346.368 77.1272V54.5636H352.325V77.1272H346.368ZM349.346 50.9083C348.444 50.9083 347.647 50.5774 346.955 49.9155C346.263 49.2236 345.917 48.4113 345.917 47.4786C345.917 46.546 346.263 45.7488 346.955 45.0869C347.647 44.395 348.444 44.049 349.346 44.049C350.279 44.049 351.076 44.395 351.738 45.0869C352.43 45.7488 352.776 46.546 352.776 47.4786C352.776 48.4113 352.43 49.2236 351.738 49.9155C351.076 50.5774 350.279 50.9083 349.346 50.9083ZM367.971 77.6687C365.684 77.6687 363.639 77.1723 361.834 76.1795C360.059 75.1566 358.66 73.7577 357.637 71.9827C356.644 70.2077 356.147 68.1619 356.147 65.8454C356.147 63.5289 356.644 61.4831 357.637 59.7081C358.629 57.9331 360.013 56.5492 361.788 55.5564C363.563 54.5335 365.594 54.0221 367.881 54.0221C370.197 54.0221 372.243 54.5335 374.018 55.5564C375.793 56.5492 377.177 57.9331 378.17 59.7081C379.162 61.4831 379.659 63.5289 379.659 65.8454C379.659 68.1619 379.162 70.2077 378.17 71.9827C377.177 73.7577 375.793 75.1566 374.018 76.1795C372.273 77.1723 370.257 77.6687 367.971 77.6687ZM367.971 72.1632C369.084 72.1632 370.062 71.8924 370.904 71.3509C371.746 70.8094 372.393 70.0723 372.845 69.1397C373.326 68.177 373.567 67.0789 373.567 65.8454C373.567 64.6119 373.326 63.5289 372.845 62.5962C372.363 61.6335 371.686 60.8814 370.814 60.3399C369.971 59.7984 368.994 59.5276 367.881 59.5276C366.797 59.5276 365.82 59.7984 364.947 60.3399C364.105 60.8814 363.443 61.6335 362.962 62.5962C362.48 63.5289 362.24 64.6119 362.24 65.8454C362.24 67.0789 362.48 68.177 362.962 69.1397C363.443 70.0723 364.12 70.8094 364.992 71.3509C365.865 71.8924 366.858 72.1632 367.971 72.1632ZM383.136 77.1272V54.5636H388.731L389.002 57.6323C389.724 56.459 390.642 55.5715 391.755 54.9698C392.898 54.338 394.192 54.0221 395.636 54.0221C397.411 54.0221 398.93 54.3831 400.194 55.1051C401.457 55.8272 402.42 56.9554 403.082 58.4897C403.744 59.9939 404.06 61.9494 404.03 64.3562V77.1272H398.073V65.5746C398.073 64.0403 397.892 62.852 397.531 62.0096C397.2 61.1672 396.719 60.5655 396.087 60.2045C395.455 59.8134 394.718 59.6179 393.876 59.6179C392.342 59.5878 391.153 60.0541 390.311 61.0168C389.499 61.9795 389.092 63.4085 389.092 65.3039V77.1272H383.136ZM56.6795 123.669C54.6037 123.669 52.7986 123.187 51.2642 122.225C49.76 121.262 48.5867 119.893 47.7443 118.118C46.902 116.343 46.4808 114.252 46.4808 111.845C46.4808 109.409 46.902 107.318 47.7443 105.573C48.5867 103.798 49.76 102.429 51.2642 101.466C52.7986 100.503 54.6037 100.022 56.6795 100.022C58.1537 100.022 59.4624 100.338 60.6056 100.97C61.7789 101.571 62.7265 102.444 63.4486 103.587V91.5382H69.4054V123.127H63.7645L63.584 119.968C62.8318 121.142 61.8691 122.059 60.6958 122.721C59.5225 123.353 58.1837 123.669 56.6795 123.669ZM58.2138 118.208C59.2066 118.208 60.0791 117.968 60.8312 117.486C61.6134 116.975 62.2302 116.268 62.6814 115.365C63.1327 114.463 63.3884 113.44 63.4486 112.297V111.394C63.3884 110.251 63.1327 109.243 62.6814 108.371C62.2302 107.468 61.6134 106.776 60.8312 106.295C60.049 105.783 59.1615 105.528 58.1687 105.528C57.0857 105.528 56.1229 105.798 55.2806 106.34C54.4683 106.851 53.8215 107.588 53.3401 108.551C52.8888 109.514 52.6632 110.612 52.6632 111.845C52.6632 113.079 52.9039 114.177 53.3852 115.14C53.8666 116.102 54.5134 116.855 55.3257 117.396C56.1681 117.938 57.1308 118.208 58.2138 118.208ZM72.1003 102.188L74.8531 91.5382H81.0355L76.613 102.188H72.1003ZM93.7046 123.669C91.4783 123.669 89.5078 123.172 87.793 122.18C86.0781 121.157 84.7243 119.758 83.7315 117.983C82.7688 116.208 82.2874 114.162 82.2874 111.845C82.2874 109.529 82.7838 107.483 83.7766 105.708C84.7995 103.933 86.1834 102.549 87.9283 101.556C89.7033 100.534 91.7341 100.022 94.0205 100.022C96.0061 100.022 97.8262 100.549 99.4809 101.602C101.166 102.624 102.504 104.144 103.497 106.159C104.52 108.145 105.032 110.567 105.032 113.425H88.515C88.6654 114.929 89.3122 116.132 90.4555 117.035C91.5987 117.907 92.8923 118.344 94.3364 118.344C95.5699 118.344 96.5777 118.088 97.3599 117.577C98.1421 117.035 98.7438 116.343 99.165 115.501L104.49 117.577C103.858 118.84 103.031 119.938 102.008 120.871C101.015 121.773 99.8269 122.465 98.443 122.947C97.0591 123.428 95.4796 123.669 93.7046 123.669ZM88.8309 109.002H98.5784C98.4881 108.07 98.1873 107.318 97.6758 106.746C97.1644 106.174 96.5627 105.753 95.8707 105.482C95.1788 105.212 94.5019 105.076 93.84 105.076C93.2082 105.076 92.5163 105.212 91.7642 105.482C91.0421 105.723 90.3953 106.129 89.8237 106.701C89.2822 107.273 88.9512 108.04 88.8309 109.002ZM115.352 123.669C112.645 123.669 110.539 123.067 109.034 121.864C107.56 120.66 106.823 118.96 106.823 116.764C106.823 114.357 107.62 112.552 109.215 111.349C110.84 110.116 113.111 109.499 116.029 109.499H121.354C121.144 108.115 120.707 107.062 120.046 106.34C119.384 105.588 118.436 105.212 117.202 105.212C116.24 105.212 115.367 105.422 114.585 105.843C113.803 106.265 113.141 106.912 112.6 107.784L107.365 105.979C107.786 105.016 108.403 104.084 109.215 103.181C110.027 102.248 111.08 101.496 112.374 100.925C113.698 100.323 115.307 100.022 117.202 100.022C119.489 100.022 121.384 100.458 122.889 101.331C124.423 102.203 125.551 103.437 126.273 105.031C127.025 106.596 127.386 108.461 127.356 110.627L127.221 123.127H121.67L121.58 120.51C121.008 121.533 120.196 122.315 119.143 122.856C118.12 123.398 116.857 123.669 115.352 123.669ZM116.345 118.705C117.308 118.705 118.18 118.479 118.962 118.028C119.745 117.577 120.361 116.99 120.813 116.268C121.264 115.546 121.49 114.794 121.49 114.012V113.921H118.105C116.15 113.921 114.796 114.162 114.044 114.643C113.291 115.095 112.915 115.741 112.915 116.584C112.915 117.246 113.216 117.772 113.818 118.163C114.42 118.524 115.262 118.705 116.345 118.705ZM139.685 123.669C137.88 123.669 136.345 123.308 135.082 122.586C133.848 121.864 132.901 120.75 132.239 119.246C131.577 117.712 131.246 115.741 131.246 113.335V100.564H137.203V112.116C137.203 113.62 137.368 114.809 137.699 115.681C138.06 116.524 138.556 117.14 139.188 117.531C139.85 117.892 140.587 118.073 141.399 118.073C142.964 118.103 144.152 117.637 144.965 116.674C145.777 115.681 146.183 114.252 146.183 112.387V100.564H152.14V123.127H146.544L146.318 120.059C145.566 121.202 144.619 122.089 143.475 122.721C142.362 123.353 141.099 123.669 139.685 123.669ZM176.131 123.669C174.055 123.669 172.25 123.187 170.715 122.225C169.211 121.262 168.038 119.893 167.195 118.118C166.353 116.343 165.932 114.252 165.932 111.845C165.932 109.409 166.353 107.318 167.195 105.573C168.038 103.798 169.211 102.429 170.715 101.466C172.25 100.503 174.055 100.022 176.131 100.022C177.605 100.022 178.913 100.338 180.057 100.97C181.23 101.571 182.178 102.444 182.9 103.587V91.5382H188.856V123.127H183.215L183.035 119.968C182.283 121.142 181.32 122.059 180.147 122.721C178.974 123.353 177.635 123.669 176.131 123.669ZM177.665 118.208C178.658 118.208 179.53 117.968 180.282 117.486C181.064 116.975 181.681 116.268 182.132 115.365C182.584 114.463 182.839 113.44 182.9 112.297V111.394C182.839 110.251 182.584 109.243 182.132 108.371C181.681 107.468 181.064 106.776 180.282 106.295C179.5 105.783 178.613 105.528 177.62 105.528C176.537 105.528 175.574 105.798 174.732 106.34C173.919 106.851 173.272 107.588 172.791 108.551C172.34 109.514 172.114 110.612 172.114 111.845C172.114 113.079 172.355 114.177 172.836 115.14C173.318 116.102 173.964 116.855 174.777 117.396C175.619 117.938 176.582 118.208 177.665 118.208ZM203.736 123.669C201.509 123.669 199.539 123.172 197.824 122.18C196.109 121.157 194.755 119.758 193.763 117.983C192.8 116.208 192.318 114.162 192.318 111.845C192.318 109.529 192.815 107.483 193.808 105.708C194.831 103.933 196.214 102.549 197.959 101.556C199.734 100.534 201.765 100.022 204.052 100.022C206.037 100.022 207.857 100.549 209.512 101.602C211.197 102.624 212.535 104.144 213.528 106.159C214.551 108.145 215.063 110.567 215.063 113.425H198.546C198.696 114.929 199.343 116.132 200.487 117.035C201.63 117.907 202.923 118.344 204.367 118.344C205.601 118.344 206.609 118.088 207.391 117.577C208.173 117.035 208.775 116.343 209.196 115.501L214.521 117.577C213.889 118.84 213.062 119.938 212.039 120.871C211.046 121.773 209.858 122.465 208.474 122.947C207.09 123.428 205.511 123.669 203.736 123.669ZM198.862 109.002H208.609C208.519 108.07 208.218 107.318 207.707 106.746C207.195 106.174 206.594 105.753 205.902 105.482C205.21 105.212 204.533 105.076 203.871 105.076C203.239 105.076 202.547 105.212 201.795 105.482C201.073 105.723 200.426 106.129 199.855 106.701C199.313 107.273 198.982 108.04 198.862 109.002ZM226.512 123.669C225.067 123.669 223.714 123.458 222.45 123.037C221.187 122.586 220.073 121.954 219.111 121.142C218.148 120.299 217.396 119.276 216.854 118.073L221.954 115.726C222.405 116.448 223.022 117.08 223.804 117.622C224.586 118.133 225.489 118.389 226.512 118.389C227.504 118.389 228.271 118.253 228.813 117.983C229.355 117.682 229.625 117.261 229.625 116.719C229.625 116.178 229.4 115.787 228.948 115.546C228.527 115.275 227.941 115.049 227.188 114.869L225.113 114.327C222.946 113.756 221.232 112.853 219.968 111.62C218.735 110.356 218.118 108.912 218.118 107.288C218.118 104.971 218.855 103.181 220.329 101.917C221.833 100.654 223.954 100.022 226.692 100.022C228.106 100.022 229.415 100.233 230.618 100.654C231.852 101.075 232.905 101.662 233.777 102.414C234.649 103.166 235.251 104.038 235.582 105.031L230.663 107.288C230.453 106.686 229.941 106.205 229.129 105.843C228.317 105.452 227.504 105.257 226.692 105.257C225.88 105.257 225.248 105.437 224.797 105.798C224.375 106.129 224.165 106.596 224.165 107.197C224.165 107.588 224.375 107.919 224.797 108.19C225.218 108.431 225.82 108.641 226.602 108.822L229.535 109.544C231.009 109.905 232.182 110.492 233.055 111.304C233.958 112.086 234.604 112.974 234.995 113.966C235.417 114.929 235.627 115.877 235.627 116.809C235.627 118.163 235.221 119.367 234.409 120.42C233.627 121.442 232.544 122.24 231.16 122.811C229.806 123.383 228.256 123.669 226.512 123.669ZM259.819 123.669C257.473 123.669 255.382 123.172 253.547 122.18C251.711 121.157 250.282 119.758 249.26 117.983C248.237 116.178 247.725 114.132 247.725 111.845C247.725 109.529 248.237 107.483 249.26 105.708C250.282 103.933 251.696 102.549 253.501 101.556C255.307 100.534 257.382 100.022 259.729 100.022C261.985 100.022 264.046 100.579 265.911 101.692C267.777 102.805 269.131 104.414 269.973 106.52L264.377 108.506C263.956 107.634 263.294 106.942 262.392 106.43C261.519 105.889 260.541 105.618 259.458 105.618C258.345 105.618 257.367 105.889 256.525 106.43C255.683 106.942 255.021 107.664 254.539 108.596C254.058 109.529 253.817 110.612 253.817 111.845C253.817 113.079 254.058 114.162 254.539 115.095C255.021 115.997 255.698 116.719 256.57 117.261C257.443 117.802 258.435 118.073 259.549 118.073C260.632 118.073 261.609 117.787 262.482 117.216C263.384 116.644 264.046 115.892 264.467 114.959L270.108 116.945C269.236 119.081 267.867 120.735 266.002 121.909C264.167 123.082 262.106 123.669 259.819 123.669ZM283.326 123.669C281.099 123.669 279.129 123.172 277.414 122.18C275.699 121.157 274.345 119.758 273.352 117.983C272.39 116.208 271.908 114.162 271.908 111.845C271.908 109.529 272.405 107.483 273.398 105.708C274.421 103.933 275.804 102.549 277.549 101.556C279.324 100.534 281.355 100.022 283.641 100.022C285.627 100.022 287.447 100.549 289.102 101.602C290.787 102.624 292.125 104.144 293.118 106.159C294.141 108.145 294.653 110.567 294.653 113.425H278.136C278.286 114.929 278.933 116.132 280.076 117.035C281.22 117.907 282.513 118.344 283.957 118.344C285.191 118.344 286.199 118.088 286.981 117.577C287.763 117.035 288.365 116.343 288.786 115.501L294.111 117.577C293.479 118.84 292.652 119.938 291.629 120.871C290.636 121.773 289.448 122.465 288.064 122.947C286.68 123.428 285.101 123.669 283.326 123.669ZM278.452 109.002H288.199C288.109 108.07 287.808 107.318 287.297 106.746C286.785 106.174 286.184 105.753 285.492 105.482C284.8 105.212 284.123 105.076 283.461 105.076C282.829 105.076 282.137 105.212 281.385 105.482C280.663 105.723 280.016 106.129 279.445 106.701C278.903 107.273 278.572 108.04 278.452 109.002ZM297.663 123.127V100.564H303.258L303.529 103.632C304.251 102.459 305.169 101.571 306.282 100.97C307.425 100.338 308.719 100.022 310.163 100.022C311.938 100.022 313.457 100.383 314.721 101.105C315.984 101.827 316.947 102.955 317.609 104.49C318.271 105.994 318.587 107.949 318.557 110.356V123.127H312.6V111.575C312.6 110.04 312.419 108.852 312.058 108.01C311.727 107.167 311.246 106.566 310.614 106.205C309.982 105.813 309.245 105.618 308.403 105.618C306.869 105.588 305.68 106.054 304.838 107.017C304.026 107.98 303.619 109.409 303.619 111.304V123.127H297.663ZM332.156 123.669C329.659 123.669 327.763 123.052 326.47 121.819C325.206 120.585 324.574 118.825 324.574 116.539V105.618H320.919V100.564H324.574V93.5238H330.531V100.564H336.172V105.618H330.531V115.23C330.531 116.193 330.742 116.93 331.163 117.441C331.584 117.923 332.201 118.163 333.013 118.163C333.314 118.163 333.645 118.103 334.006 117.983C334.367 117.832 334.743 117.622 335.134 117.351L337.21 121.819C336.488 122.36 335.676 122.796 334.773 123.127C333.901 123.488 333.028 123.669 332.156 123.669ZM340.565 123.127V100.564H346.521V104.715C347.454 103.301 348.627 102.248 350.041 101.556C351.485 100.834 352.974 100.473 354.509 100.473V106.25C353.125 106.25 351.816 106.415 350.583 106.746C349.379 107.077 348.402 107.618 347.649 108.371C346.897 109.123 346.521 110.085 346.521 111.259V123.127H340.565ZM367.411 123.669C365.184 123.669 363.214 123.172 361.499 122.18C359.784 121.157 358.43 119.758 357.438 117.983C356.475 116.208 355.993 114.162 355.993 111.845C355.993 109.529 356.49 107.483 357.483 105.708C358.506 103.933 359.889 102.549 361.634 101.556C363.409 100.534 365.44 100.022 367.727 100.022C369.712 100.022 371.532 100.549 373.187 101.602C374.872 102.624 376.21 104.144 377.203 106.159C378.226 108.145 378.738 110.567 378.738 113.425H362.221C362.371 114.929 363.018 116.132 364.161 117.035C365.305 117.907 366.598 118.344 368.042 118.344C369.276 118.344 370.284 118.088 371.066 117.577C371.848 117.035 372.45 116.343 372.871 115.501L378.196 117.577C377.564 118.84 376.737 119.938 375.714 120.871C374.721 121.773 373.533 122.465 372.149 122.947C370.765 123.428 369.186 123.669 367.411 123.669ZM362.537 109.002H372.284C372.194 108.07 371.893 107.318 371.382 106.746C370.87 106.174 370.269 105.753 369.577 105.482C368.885 105.212 368.208 105.076 367.546 105.076C366.914 105.076 366.222 105.212 365.47 105.482C364.748 105.723 364.101 106.129 363.53 106.701C362.988 107.273 362.657 108.04 362.537 109.002ZM390.186 123.669C388.742 123.669 387.389 123.458 386.125 123.037C384.861 122.586 383.748 121.954 382.786 121.142C381.823 120.299 381.071 119.276 380.529 118.073L385.629 115.726C386.08 116.448 386.697 117.08 387.479 117.622C388.261 118.133 389.164 118.389 390.186 118.389C391.179 118.389 391.946 118.253 392.488 117.983C393.029 117.682 393.3 117.261 393.3 116.719C393.3 116.178 393.075 115.787 392.623 115.546C392.202 115.275 391.616 115.049 390.863 114.869L388.788 114.327C386.621 113.756 384.907 112.853 383.643 111.62C382.41 110.356 381.793 108.912 381.793 107.288C381.793 104.971 382.53 103.181 384.004 101.917C385.508 100.654 387.629 100.022 390.367 100.022C391.781 100.022 393.09 100.233 394.293 100.654C395.527 101.075 396.579 101.662 397.452 102.414C398.324 103.166 398.926 104.038 399.257 105.031L394.338 107.288C394.128 106.686 393.616 106.205 392.804 105.843C391.992 105.452 391.179 105.257 390.367 105.257C389.555 105.257 388.923 105.437 388.472 105.798C388.05 106.129 387.84 106.596 387.84 107.197C387.84 107.588 388.05 107.919 388.472 108.19C388.893 108.431 389.495 108.641 390.277 108.822L393.21 109.544C394.684 109.905 395.857 110.492 396.73 111.304C397.632 112.086 398.279 112.974 398.67 113.966C399.092 114.929 399.302 115.877 399.302 116.809C399.302 118.163 398.896 119.367 398.084 120.42C397.302 121.442 396.218 122.24 394.835 122.811C393.481 123.383 391.931 123.669 390.186 123.669ZM56.6795 169.669C54.6037 169.669 52.7986 169.187 51.2642 168.225C49.76 167.262 48.5867 165.893 47.7443 164.118C46.902 162.343 46.4808 160.252 46.4808 157.845C46.4808 155.409 46.902 153.318 47.7443 151.573C48.5867 149.798 49.76 148.429 51.2642 147.466C52.7986 146.503 54.6037 146.022 56.6795 146.022C58.1537 146.022 59.4624 146.338 60.6056 146.97C61.7789 147.571 62.7265 148.444 63.4486 149.587V137.538H69.4054V169.127H63.7645L63.584 165.968C62.8318 167.142 61.8691 168.059 60.6958 168.721C59.5225 169.353 58.1837 169.669 56.6795 169.669ZM58.2138 164.208C59.2066 164.208 60.0791 163.968 60.8312 163.486C61.6134 162.975 62.2302 162.268 62.6814 161.365C63.1327 160.463 63.3884 159.44 63.4486 158.297V157.394C63.3884 156.251 63.1327 155.243 62.6814 154.371C62.2302 153.468 61.6134 152.776 60.8312 152.295C60.049 151.783 59.1615 151.528 58.1687 151.528C57.0857 151.528 56.1229 151.798 55.2806 152.34C54.4683 152.851 53.8215 153.588 53.3401 154.551C52.8888 155.514 52.6632 156.612 52.6632 157.845C52.6632 159.079 52.9039 160.177 53.3852 161.14C53.8666 162.102 54.5134 162.855 55.3257 163.396C56.1681 163.938 57.1308 164.208 58.2138 164.208ZM84.2847 169.669C82.0584 169.669 80.0878 169.172 78.373 168.18C76.6582 167.157 75.3044 165.758 74.3116 163.983C73.3488 162.208 72.8675 160.162 72.8675 157.845C72.8675 155.529 73.3639 153.483 74.3567 151.708C75.3796 149.933 76.7635 148.549 78.5084 147.556C80.2834 146.534 82.3141 146.022 84.6006 146.022C86.5861 146.022 88.4063 146.549 90.0609 147.602C91.7457 148.624 93.0845 150.144 94.0773 152.159C95.1001 154.145 95.6116 156.567 95.6116 159.425H79.095C79.2455 160.929 79.8923 162.132 81.0355 163.035C82.1787 163.907 83.4724 164.344 84.9164 164.344C86.1499 164.344 87.1578 164.088 87.94 163.577C88.7222 163.035 89.3239 162.343 89.745 161.501L95.0701 163.577C94.4383 164.84 93.6109 165.938 92.5881 166.871C91.5953 167.773 90.4069 168.465 89.023 168.947C87.6391 169.428 86.0597 169.669 84.2847 169.669ZM79.4109 155.002H89.1584C89.0681 154.07 88.7673 153.318 88.2559 152.746C87.7444 152.174 87.1427 151.753 86.4508 151.482C85.7588 151.212 85.0819 151.076 84.42 151.076C83.7883 151.076 83.0963 151.212 82.3442 151.482C81.6222 151.723 80.9753 152.129 80.4037 152.701C79.8622 153.273 79.5313 154.04 79.4109 155.002ZM117.903 169.669C115.828 169.669 114.022 169.187 112.488 168.225C110.984 167.262 109.811 165.893 108.968 164.118C108.126 162.343 107.705 160.252 107.705 157.845C107.705 155.409 108.126 153.318 108.968 151.573C109.811 149.798 110.984 148.429 112.488 147.466C114.022 146.503 115.828 146.022 117.903 146.022C119.378 146.022 120.686 146.338 121.829 146.97C123.003 147.571 123.95 148.444 124.672 149.587V137.538H130.629V169.127H124.988L124.808 165.968C124.056 167.142 123.093 168.059 121.92 168.721C120.746 169.353 119.408 169.669 117.903 169.669ZM119.438 164.208C120.43 164.208 121.303 163.968 122.055 163.486C122.837 162.975 123.454 162.268 123.905 161.365C124.357 160.463 124.612 159.44 124.672 158.297V157.394C124.612 156.251 124.357 155.243 123.905 154.371C123.454 153.468 122.837 152.776 122.055 152.295C121.273 151.783 120.385 151.528 119.393 151.528C118.31 151.528 117.347 151.798 116.504 152.34C115.692 152.851 115.045 153.588 114.564 154.551C114.113 155.514 113.887 156.612 113.887 157.845C113.887 159.079 114.128 160.177 114.609 161.14C115.09 162.102 115.737 162.855 116.55 163.396C117.392 163.938 118.355 164.208 119.438 164.208ZM145.915 169.669C143.628 169.669 141.582 169.172 139.777 168.18C138.002 167.157 136.603 165.758 135.581 163.983C134.588 162.208 134.091 160.162 134.091 157.845C134.091 155.529 134.588 153.483 135.581 151.708C136.573 149.933 137.957 148.549 139.732 147.556C141.507 146.534 143.538 146.022 145.824 146.022C148.141 146.022 150.187 146.534 151.962 147.556C153.737 148.549 155.121 149.933 156.113 151.708C157.106 153.483 157.603 155.529 157.603 157.845C157.603 160.162 157.106 162.208 156.113 163.983C155.121 165.758 153.737 167.157 151.962 168.18C150.217 169.172 148.201 169.669 145.915 169.669ZM145.915 164.163C147.028 164.163 148.006 163.892 148.848 163.351C149.69 162.809 150.337 162.072 150.788 161.14C151.27 160.177 151.51 159.079 151.51 157.845C151.51 156.612 151.27 155.529 150.788 154.596C150.307 153.634 149.63 152.881 148.758 152.34C147.915 151.798 146.938 151.528 145.824 151.528C144.741 151.528 143.764 151.798 142.891 152.34C142.049 152.881 141.387 153.634 140.906 154.596C140.424 155.529 140.184 156.612 140.184 157.845C140.184 159.079 140.424 160.177 140.906 161.14C141.387 162.072 142.064 162.809 142.936 163.351C143.809 163.892 144.802 164.163 145.915 164.163ZM161.08 169.127V146.564H166.675L166.946 149.632C167.668 148.459 168.586 147.571 169.699 146.97C170.842 146.338 172.136 146.022 173.58 146.022C175.355 146.022 176.874 146.383 178.138 147.105C179.401 147.827 180.364 148.955 181.026 150.49C181.688 151.994 182.003 153.949 181.973 156.356V169.127H176.017V157.575C176.017 156.04 175.836 154.852 175.475 154.01C175.144 153.167 174.663 152.566 174.031 152.205C173.399 151.813 172.662 151.618 171.82 151.618C170.285 151.588 169.097 152.054 168.255 153.017C167.442 153.98 167.036 155.409 167.036 157.304V169.127H161.08ZM186.276 169.127V146.564H191.872L192.143 149.632C192.865 148.459 193.783 147.571 194.896 146.97C196.039 146.338 197.333 146.022 198.777 146.022C200.552 146.022 202.071 146.383 203.334 147.105C204.598 147.827 205.561 148.955 206.223 150.49C206.884 151.994 207.2 153.949 207.17 156.356V169.127H201.213V157.575C201.213 156.04 201.033 154.852 200.672 154.01C200.341 153.167 199.86 152.566 199.228 152.205C198.596 151.813 197.859 151.618 197.017 151.618C195.482 151.588 194.294 152.054 193.452 153.017C192.639 153.98 192.233 155.409 192.233 157.304V169.127H186.276ZM221.672 169.669C219.446 169.669 217.475 169.172 215.76 168.18C214.045 167.157 212.692 165.758 211.699 163.983C210.736 162.208 210.255 160.162 210.255 157.845C210.255 155.529 210.751 153.483 211.744 151.708C212.767 149.933 214.151 148.549 215.896 147.556C217.671 146.534 219.701 146.022 221.988 146.022C223.973 146.022 225.794 146.549 227.448 147.602C229.133 148.624 230.472 150.144 231.465 152.159C232.487 154.145 232.999 156.567 232.999 159.425H216.482C216.633 160.929 217.28 162.132 218.423 163.035C219.566 163.907 220.86 164.344 222.304 164.344C223.537 164.344 224.545 164.088 225.327 163.577C226.109 163.035 226.711 162.343 227.132 161.501L232.457 163.577C231.826 164.84 230.998 165.938 229.975 166.871C228.983 167.773 227.794 168.465 226.41 168.947C225.026 169.428 223.447 169.669 221.672 169.669ZM216.798 155.002H226.546C226.455 154.07 226.155 153.318 225.643 152.746C225.132 152.174 224.53 151.753 223.838 151.482C223.146 151.212 222.469 151.076 221.807 151.076C221.176 151.076 220.484 151.212 219.731 151.482C219.009 151.723 218.363 152.129 217.791 152.701C217.249 153.273 216.919 154.04 216.798 155.002ZM218.242 143.766L223.387 137.538H230.066L224.244 143.766H218.242ZM246.34 169.669C244.114 169.669 242.143 169.172 240.428 168.18C238.713 167.157 237.36 165.758 236.367 163.983C235.404 162.208 234.923 160.162 234.923 157.845C234.923 155.529 235.419 153.483 236.412 151.708C237.435 149.933 238.819 148.549 240.564 147.556C242.339 146.534 244.369 146.022 246.656 146.022C248.641 146.022 250.462 146.549 252.116 147.602C253.801 148.624 255.14 150.144 256.133 152.159C257.155 154.145 257.667 156.567 257.667 159.425H241.15C241.301 160.929 241.948 162.132 243.091 163.035C244.234 163.907 245.528 164.344 246.972 164.344C248.205 164.344 249.213 164.088 249.995 163.577C250.777 163.035 251.379 162.343 251.8 161.501L257.125 163.577C256.494 164.84 255.666 165.938 254.643 166.871C253.651 167.773 252.462 168.465 251.078 168.947C249.694 169.428 248.115 169.669 246.34 169.669ZM241.466 155.002H251.214C251.123 154.07 250.823 153.318 250.311 152.746C249.8 152.174 249.198 151.753 248.506 151.482C247.814 151.212 247.137 151.076 246.475 151.076C245.844 151.076 245.152 151.212 244.399 151.482C243.677 151.723 243.031 152.129 242.459 152.701C241.917 153.273 241.587 154.04 241.466 155.002ZM269.116 169.669C267.672 169.669 266.318 169.458 265.054 169.037C263.791 168.586 262.678 167.954 261.715 167.142C260.752 166.299 260 165.276 259.459 164.073L264.558 161.726C265.009 162.448 265.626 163.08 266.408 163.622C267.19 164.133 268.093 164.389 269.116 164.389C270.109 164.389 270.876 164.253 271.417 163.983C271.959 163.682 272.23 163.261 272.23 162.719C272.23 162.178 272.004 161.787 271.553 161.546C271.131 161.275 270.545 161.049 269.793 160.869L267.717 160.327C265.551 159.756 263.836 158.853 262.572 157.62C261.339 156.356 260.722 154.912 260.722 153.288C260.722 150.971 261.459 149.181 262.933 147.917C264.438 146.654 266.559 146.022 269.296 146.022C270.71 146.022 272.019 146.233 273.222 146.654C274.456 147.075 275.509 147.662 276.381 148.414C277.254 149.166 277.855 150.038 278.186 151.031L273.268 153.288C273.057 152.686 272.545 152.205 271.733 151.843C270.921 151.452 270.109 151.257 269.296 151.257C268.484 151.257 267.852 151.437 267.401 151.798C266.98 152.129 266.769 152.596 266.769 153.197C266.769 153.588 266.98 153.919 267.401 154.19C267.822 154.431 268.424 154.641 269.206 154.822L272.139 155.544C273.613 155.905 274.787 156.492 275.659 157.304C276.562 158.086 277.209 158.974 277.6 159.966C278.021 160.929 278.231 161.877 278.231 162.809C278.231 164.163 277.825 165.367 277.013 166.42C276.231 167.442 275.148 168.24 273.764 168.811C272.41 169.383 270.861 169.669 269.116 169.669ZM300.528 169.669C298.452 169.669 296.647 169.187 295.113 168.225C293.609 167.262 292.435 165.893 291.593 164.118C290.751 162.343 290.329 160.252 290.329 157.845C290.329 155.409 290.751 153.318 291.593 151.573C292.435 149.798 293.609 148.429 295.113 147.466C296.647 146.503 298.452 146.022 300.528 146.022C302.002 146.022 303.311 146.338 304.454 146.97C305.628 147.571 306.575 148.444 307.297 149.587V137.538H313.254V169.127H307.613L307.433 165.968C306.681 167.142 305.718 168.059 304.545 168.721C303.371 169.353 302.032 169.669 300.528 169.669ZM302.063 164.208C303.055 164.208 303.928 163.968 304.68 163.486C305.462 162.975 306.079 162.268 306.53 161.365C306.981 160.463 307.237 159.44 307.297 158.297V157.394C307.237 156.251 306.981 155.243 306.53 154.371C306.079 153.468 305.462 152.776 304.68 152.295C303.898 151.783 303.01 151.528 302.017 151.528C300.934 151.528 299.972 151.798 299.129 152.34C298.317 152.851 297.67 153.588 297.189 154.551C296.738 155.514 296.512 156.612 296.512 157.845C296.512 159.079 296.753 160.177 297.234 161.14C297.715 162.102 298.362 162.855 299.174 163.396C300.017 163.938 300.979 164.208 302.063 164.208ZM328.133 169.669C325.907 169.669 323.937 169.172 322.222 168.18C320.507 167.157 319.153 165.758 318.16 163.983C317.198 162.208 316.716 160.162 316.716 157.845C316.716 155.529 317.213 153.483 318.205 151.708C319.228 149.933 320.612 148.549 322.357 147.556C324.132 146.534 326.163 146.022 328.449 146.022C330.435 146.022 332.255 146.549 333.91 147.602C335.594 148.624 336.933 150.144 337.926 152.159C338.949 154.145 339.46 156.567 339.46 159.425H322.944C323.094 160.929 323.741 162.132 324.884 163.035C326.027 163.907 327.321 164.344 328.765 164.344C329.999 164.344 331.006 164.088 331.789 163.577C332.571 163.035 333.173 162.343 333.594 161.501L338.919 163.577C338.287 164.84 337.46 165.938 336.437 166.871C335.444 167.773 334.256 168.465 332.872 168.947C331.488 169.428 329.908 169.669 328.133 169.669ZM323.26 155.002H333.007C332.917 154.07 332.616 153.318 332.105 152.746C331.593 152.174 330.991 151.753 330.299 151.482C329.608 151.212 328.931 151.076 328.269 151.076C327.637 151.076 326.945 151.212 326.193 151.482C325.471 151.723 324.824 152.129 324.252 152.701C323.711 153.273 323.38 154.04 323.26 155.002ZM348.496 169.127L339.245 146.564H345.382L351.474 162.313L357.566 146.564H363.703L354.452 169.127H348.496ZM366.125 169.127V146.564H372.082V150.715C373.014 149.301 374.188 148.248 375.602 147.556C377.046 146.834 378.535 146.473 380.069 146.473V152.25C378.685 152.25 377.377 152.415 376.143 152.746C374.94 153.077 373.962 153.618 373.21 154.371C372.458 155.123 372.082 156.085 372.082 157.259V169.127H366.125ZM390.083 169.669C387.375 169.669 385.269 169.067 383.765 167.864C382.291 166.66 381.554 164.96 381.554 162.764C381.554 160.357 382.351 158.552 383.946 157.349C385.57 156.116 387.841 155.499 390.76 155.499H396.085C395.874 154.115 395.438 153.062 394.776 152.34C394.114 151.588 393.166 151.212 391.933 151.212C390.97 151.212 390.098 151.422 389.316 151.843C388.533 152.265 387.872 152.912 387.33 153.784L382.095 151.979C382.516 151.016 383.133 150.084 383.946 149.181C384.758 148.248 385.811 147.496 387.104 146.925C388.428 146.323 390.038 146.022 391.933 146.022C394.219 146.022 396.115 146.458 397.619 147.331C399.153 148.203 400.282 149.437 401.004 151.031C401.756 152.596 402.117 154.461 402.087 156.627L401.951 169.127H396.401L396.31 166.51C395.739 167.533 394.926 168.315 393.873 168.856C392.851 169.398 391.587 169.669 390.083 169.669ZM391.076 164.705C392.038 164.705 392.911 164.479 393.693 164.028C394.475 163.577 395.092 162.99 395.543 162.268C395.994 161.546 396.22 160.794 396.22 160.012V159.921H392.836C390.88 159.921 389.526 160.162 388.774 160.643C388.022 161.095 387.646 161.741 387.646 162.584C387.646 163.246 387.947 163.772 388.548 164.163C389.15 164.524 389.993 164.705 391.076 164.705ZM406.744 169.127V146.564H412.7V169.127H406.744ZM409.722 142.908C408.819 142.908 408.022 142.577 407.33 141.916C406.638 141.224 406.292 140.411 406.292 139.479C406.292 138.546 406.638 137.749 407.33 137.087C408.022 136.395 408.819 136.049 409.722 136.049C410.655 136.049 411.452 136.395 412.114 137.087C412.806 137.749 413.152 138.546 413.152 139.479C413.152 140.411 412.806 141.224 412.114 141.916C411.452 142.577 410.655 142.908 409.722 142.908ZM427.038 169.669C424.541 169.669 422.645 169.052 421.352 167.819C420.088 166.585 419.456 164.825 419.456 162.539V151.618H415.801V146.564H419.456V139.524H425.413V146.564H431.054V151.618H425.413V161.23C425.413 162.193 425.624 162.93 426.045 163.441C426.466 163.923 427.083 164.163 427.895 164.163C428.196 164.163 428.527 164.103 428.888 163.983C429.249 163.832 429.625 163.622 430.016 163.351L432.092 167.819C431.37 168.36 430.558 168.796 429.655 169.127C428.783 169.488 427.91 169.669 427.038 169.669ZM56.6795 215.669C54.6037 215.669 52.7986 215.187 51.2642 214.225C49.76 213.262 48.5867 211.893 47.7443 210.118C46.902 208.343 46.4808 206.252 46.4808 203.845C46.4808 201.409 46.902 199.318 47.7443 197.573C48.5867 195.798 49.76 194.429 51.2642 193.466C52.7986 192.503 54.6037 192.022 56.6795 192.022C58.1537 192.022 59.4624 192.338 60.6056 192.97C61.7789 193.571 62.7265 194.444 63.4486 195.587V183.538H69.4054V215.127H63.7645L63.584 211.968C62.8318 213.142 61.8691 214.059 60.6958 214.721C59.5225 215.353 58.1837 215.669 56.6795 215.669ZM58.2138 210.208C59.2066 210.208 60.0791 209.968 60.8312 209.486C61.6134 208.975 62.2302 208.268 62.6814 207.365C63.1327 206.463 63.3884 205.44 63.4486 204.297V203.394C63.3884 202.251 63.1327 201.243 62.6814 200.371C62.2302 199.468 61.6134 198.776 60.8312 198.295C60.049 197.783 59.1615 197.528 58.1687 197.528C57.0857 197.528 56.1229 197.798 55.2806 198.34C54.4683 198.851 53.8215 199.588 53.3401 200.551C52.8888 201.514 52.6632 202.612 52.6632 203.845C52.6632 205.079 52.9039 206.177 53.3852 207.14C53.8666 208.102 54.5134 208.855 55.3257 209.396C56.1681 209.938 57.1308 210.208 58.2138 210.208ZM84.6908 215.669C82.4044 215.669 80.3586 215.172 78.5535 214.18C76.7785 213.157 75.3796 211.758 74.3567 209.983C73.3639 208.208 72.8675 206.162 72.8675 203.845C72.8675 201.529 73.3639 199.483 74.3567 197.708C75.3495 195.933 76.7334 194.549 78.5084 193.556C80.2834 192.534 82.3141 192.022 84.6006 192.022C86.9171 192.022 88.9628 192.534 90.7378 193.556C92.5128 194.549 93.8967 195.933 94.8895 197.708C95.8823 199.483 96.3787 201.529 96.3787 203.845C96.3787 206.162 95.8823 208.208 94.8895 209.983C93.8967 211.758 92.5128 213.157 90.7378 214.18C88.9929 215.172 86.9772 215.669 84.6908 215.669ZM84.6908 210.163C85.8039 210.163 86.7817 209.892 87.6241 209.351C88.4664 208.809 89.1133 208.072 89.5645 207.14C90.0459 206.177 90.2866 205.079 90.2866 203.845C90.2866 202.612 90.0459 201.529 89.5645 200.596C89.0832 199.634 88.4063 198.881 87.5338 198.34C86.6914 197.798 85.7137 197.528 84.6006 197.528C83.5175 197.528 82.5397 197.798 81.6673 198.34C80.8249 198.881 80.163 199.634 79.6817 200.596C79.2003 201.529 78.9597 202.612 78.9597 203.845C78.9597 205.079 79.2003 206.177 79.6817 207.14C80.163 208.072 80.84 208.809 81.7124 209.351C82.5849 209.892 83.5777 210.163 84.6908 210.163ZM107.888 215.669C106.083 215.669 104.549 215.308 103.285 214.586C102.052 213.864 101.104 212.75 100.442 211.246C99.7805 209.712 99.4495 207.741 99.4495 205.335V192.564H105.406V204.116C105.406 205.62 105.572 206.809 105.903 207.681C106.264 208.524 106.76 209.14 107.392 209.531C108.054 209.892 108.791 210.073 109.603 210.073C111.168 210.103 112.356 209.637 113.168 208.674C113.98 207.681 114.387 206.252 114.387 204.387V192.564H120.343V215.127H114.748L114.522 212.059C113.77 213.202 112.822 214.089 111.679 214.721C110.566 215.353 109.302 215.669 107.888 215.669ZM137.823 215.669C136.289 215.669 134.95 215.353 133.807 214.721C132.664 214.059 131.701 213.127 130.919 211.923L130.693 215.127H125.053V183.538H131.009V195.632C131.761 194.459 132.709 193.571 133.852 192.97C134.996 192.338 136.319 192.022 137.823 192.022C139.899 192.022 141.689 192.503 143.194 193.466C144.728 194.429 145.916 195.798 146.759 197.573C147.601 199.318 148.022 201.409 148.022 203.845C148.022 206.252 147.601 208.343 146.759 210.118C145.916 211.893 144.728 213.262 143.194 214.225C141.689 215.187 139.899 215.669 137.823 215.669ZM136.289 210.208C137.372 210.208 138.32 209.938 139.132 209.396C139.975 208.855 140.636 208.102 141.118 207.14C141.599 206.177 141.84 205.079 141.84 203.845C141.84 202.612 141.599 201.514 141.118 200.551C140.667 199.588 140.02 198.851 139.177 198.34C138.365 197.798 137.417 197.528 136.334 197.528C135.311 197.528 134.394 197.798 133.582 198.34C132.769 198.881 132.137 199.634 131.686 200.596C131.235 201.529 131.009 202.612 131.009 203.845C131.009 205.079 131.235 206.177 131.686 207.14C132.137 208.102 132.754 208.855 133.536 209.396C134.349 209.938 135.266 210.208 136.289 210.208ZM151.483 215.127V183.538H157.44V215.127H151.483ZM172.336 215.669C170.11 215.669 168.139 215.172 166.424 214.18C164.709 213.157 163.356 211.758 162.363 209.983C161.4 208.208 160.919 206.162 160.919 203.845C160.919 201.529 161.415 199.483 162.408 197.708C163.431 195.933 164.815 194.549 166.56 193.556C168.335 192.534 170.365 192.022 172.652 192.022C174.637 192.022 176.458 192.549 178.112 193.602C179.797 194.624 181.136 196.144 182.129 198.159C183.151 200.145 183.663 202.567 183.663 205.425H167.146C167.297 206.929 167.944 208.132 169.087 209.035C170.23 209.907 171.524 210.344 172.968 210.344C174.201 210.344 175.209 210.088 175.991 209.577C176.773 209.035 177.375 208.343 177.796 207.501L183.121 209.577C182.49 210.84 181.662 211.938 180.639 212.871C179.647 213.773 178.458 214.465 177.074 214.947C175.69 215.428 174.111 215.669 172.336 215.669ZM167.462 201.002H177.21C177.119 200.07 176.819 199.318 176.307 198.746C175.796 198.174 175.194 197.753 174.502 197.482C173.81 197.212 173.133 197.076 172.471 197.076C171.84 197.076 171.148 197.212 170.395 197.482C169.673 197.723 169.027 198.129 168.455 198.701C167.913 199.273 167.583 200.04 167.462 201.002ZM186.673 215.127V192.564H192.63V196.715C193.562 195.301 194.736 194.248 196.15 193.556C197.594 192.834 199.083 192.473 200.617 192.473V198.25C199.233 198.25 197.925 198.415 196.691 198.746C195.488 199.077 194.51 199.618 193.758 200.371C193.006 201.123 192.63 202.085 192.63 203.259V215.127H186.673ZM222.602 215.669C220.526 215.669 218.721 215.187 217.187 214.225C215.683 213.262 214.509 211.893 213.667 210.118C212.824 208.343 212.403 206.252 212.403 203.845C212.403 201.409 212.824 199.318 213.667 197.573C214.509 195.798 215.683 194.429 217.187 193.466C218.721 192.503 220.526 192.022 222.602 192.022C224.076 192.022 225.385 192.338 226.528 192.97C227.701 193.571 228.649 194.444 229.371 195.587V183.538H235.328V215.127H229.687L229.506 211.968C228.754 213.142 227.792 214.059 226.618 214.721C225.445 215.353 224.106 215.669 222.602 215.669ZM224.136 210.208C225.129 210.208 226.002 209.968 226.754 209.486C227.536 208.975 228.153 208.268 228.604 207.365C229.055 206.463 229.311 205.44 229.371 204.297V203.394C229.311 202.251 229.055 201.243 228.604 200.371C228.153 199.468 227.536 198.776 226.754 198.295C225.972 197.783 225.084 197.528 224.091 197.528C223.008 197.528 222.045 197.798 221.203 198.34C220.391 198.851 219.744 199.588 219.263 200.551C218.811 201.514 218.586 202.612 218.586 203.845C218.586 205.079 218.826 206.177 219.308 207.14C219.789 208.102 220.436 208.855 221.248 209.396C222.091 209.938 223.053 210.208 224.136 210.208ZM238.023 194.188L240.776 183.538H246.958L242.536 194.188H238.023ZM249.789 215.127V192.564H255.746V215.127H249.789ZM252.768 188.908C251.865 188.908 251.068 188.577 250.376 187.916C249.684 187.224 249.338 186.411 249.338 185.479C249.338 184.546 249.684 183.749 250.376 183.087C251.068 182.395 251.865 182.049 252.768 182.049C253.7 182.049 254.498 182.395 255.16 183.087C255.851 183.749 256.197 184.546 256.197 185.479C256.197 186.411 255.851 187.224 255.16 187.916C254.498 188.577 253.7 188.908 252.768 188.908ZM271.663 215.669C269.316 215.669 267.226 215.172 265.39 214.18C263.555 213.157 262.126 211.758 261.103 209.983C260.08 208.178 259.569 206.132 259.569 203.845C259.569 201.529 260.08 199.483 261.103 197.708C262.126 195.933 263.54 194.549 265.345 193.556C267.15 192.534 269.226 192.022 271.573 192.022C273.829 192.022 275.89 192.579 277.755 193.692C279.62 194.805 280.974 196.414 281.817 198.52L276.221 200.506C275.8 199.634 275.138 198.942 274.235 198.43C273.363 197.889 272.385 197.618 271.302 197.618C270.189 197.618 269.211 197.889 268.369 198.43C267.526 198.942 266.865 199.664 266.383 200.596C265.902 201.529 265.661 202.612 265.661 203.845C265.661 205.079 265.902 206.162 266.383 207.095C266.865 207.997 267.541 208.719 268.414 209.261C269.286 209.802 270.279 210.073 271.392 210.073C272.475 210.073 273.453 209.787 274.326 209.216C275.228 208.644 275.89 207.892 276.311 206.959L281.952 208.945C281.08 211.081 279.711 212.735 277.845 213.909C276.01 215.082 273.95 215.669 271.663 215.669ZM285.332 215.127V192.564H291.288V215.127H285.332ZM288.31 188.908C287.408 188.908 286.61 188.577 285.918 187.916C285.226 187.224 284.88 186.411 284.88 185.479C284.88 184.546 285.226 183.749 285.918 183.087C286.61 182.395 287.408 182.049 288.31 182.049C289.243 182.049 290.04 182.395 290.702 183.087C291.394 183.749 291.74 184.546 291.74 185.479C291.74 186.411 291.394 187.224 290.702 187.916C290.04 188.577 289.243 188.908 288.31 188.908ZM306.36 215.127V210.569C306.36 209.697 306.631 208.734 307.173 207.681C307.714 206.628 308.466 205.575 309.429 204.522C310.392 203.469 311.52 202.492 312.813 201.589L317.597 198.159C318.259 197.708 318.876 197.197 319.447 196.625C320.049 196.053 320.53 195.437 320.891 194.775C321.282 194.083 321.478 193.421 321.478 192.789C321.478 192.007 321.282 191.3 320.891 190.668C320.53 190.036 319.989 189.54 319.267 189.179C318.545 188.818 317.657 188.638 316.604 188.638C315.702 188.638 314.889 188.818 314.167 189.179C313.475 189.54 312.904 190.021 312.452 190.623C312.001 191.225 311.685 191.872 311.505 192.564L305.142 191.481C305.443 189.976 306.089 188.577 307.082 187.284C308.075 185.99 309.369 184.952 310.963 184.17C312.588 183.358 314.423 182.952 316.469 182.952C318.815 182.952 320.831 183.373 322.516 184.215C324.201 185.057 325.494 186.216 326.397 187.69C327.329 189.134 327.796 190.819 327.796 192.744C327.796 194.7 327.254 196.445 326.171 197.979C325.118 199.483 323.659 200.897 321.794 202.221L317.507 205.335C316.634 205.936 315.882 206.598 315.25 207.32C314.619 208.042 314.137 208.839 313.806 209.712H328.202V215.127H306.36ZM344.362 215.669C341.804 215.669 339.548 214.977 337.593 213.593C335.637 212.179 334.103 210.253 332.99 207.817C331.876 205.35 331.32 202.522 331.32 199.333C331.32 196.144 331.876 193.331 332.99 190.894C334.103 188.427 335.622 186.502 337.547 185.118C339.503 183.704 341.759 182.997 344.316 182.997C346.874 182.997 349.13 183.704 351.086 185.118C353.071 186.502 354.62 188.427 355.734 190.894C356.847 193.331 357.403 196.144 357.403 199.333C357.403 202.522 356.847 205.35 355.734 207.817C354.62 210.253 353.086 212.179 351.131 213.593C349.175 214.977 346.919 215.669 344.362 215.669ZM344.362 210.073C345.715 210.073 346.919 209.622 347.972 208.719C349.055 207.787 349.897 206.523 350.499 204.928C351.101 203.304 351.401 201.439 351.401 199.333C351.401 197.227 351.101 195.361 350.499 193.737C349.897 192.112 349.055 190.849 347.972 189.946C346.919 189.014 345.7 188.547 344.316 188.547C342.963 188.547 341.759 189.014 340.706 189.946C339.653 190.849 338.826 192.112 338.224 193.737C337.653 195.361 337.367 197.227 337.367 199.333C337.367 201.439 337.653 203.304 338.224 204.928C338.826 206.523 339.653 207.787 340.706 208.719C341.789 209.622 343.008 210.073 344.362 210.073ZM371.232 215.669C369.366 215.669 367.682 215.398 366.177 214.856C364.673 214.285 363.41 213.488 362.387 212.465C361.394 211.412 360.702 210.178 360.311 208.764L365.997 207.095C366.208 207.456 366.493 207.907 366.854 208.448C367.215 208.96 367.712 209.396 368.344 209.757C368.975 210.118 369.803 210.299 370.826 210.299C372.33 210.299 373.518 209.892 374.391 209.08C375.293 208.238 375.744 207.155 375.744 205.831C375.744 204.928 375.519 204.131 375.067 203.439C374.616 202.747 373.879 202.221 372.856 201.86C371.863 201.469 370.555 201.273 368.93 201.273H367.035V196.219H368.93C371.036 196.219 372.601 195.858 373.623 195.136C374.646 194.414 375.158 193.421 375.158 192.157C375.158 191.435 374.977 190.789 374.616 190.217C374.255 189.645 373.744 189.194 373.082 188.863C372.42 188.532 371.653 188.367 370.78 188.367C370.209 188.367 369.622 188.472 369.02 188.683C368.419 188.863 367.862 189.179 367.351 189.63C366.869 190.052 366.478 190.668 366.177 191.481L360.582 189.811C361.003 188.337 361.725 187.103 362.748 186.11C363.801 185.088 365.049 184.32 366.493 183.809C367.937 183.267 369.427 182.997 370.961 182.997C372.916 182.997 374.676 183.373 376.241 184.125C377.805 184.847 379.039 185.855 379.941 187.148C380.844 188.442 381.295 189.931 381.295 191.616C381.295 193.271 380.829 194.685 379.896 195.858C378.994 197.001 377.775 197.919 376.241 198.611C377.986 199.423 379.37 200.506 380.392 201.86C381.415 203.184 381.927 204.748 381.927 206.553C381.927 208.448 381.43 210.088 380.438 211.472C379.445 212.826 378.136 213.864 376.512 214.586C374.887 215.308 373.127 215.669 371.232 215.669ZM397.796 215.669C395.239 215.669 392.983 214.977 391.027 213.593C389.071 212.179 387.537 210.253 386.424 207.817C385.311 205.35 384.754 202.522 384.754 199.333C384.754 196.144 385.311 193.331 386.424 190.894C387.537 188.427 389.056 186.502 390.982 185.118C392.937 183.704 395.194 182.997 397.751 182.997C400.308 182.997 402.565 183.704 404.52 185.118C406.506 186.502 408.055 188.427 409.168 190.894C410.281 193.331 410.838 196.144 410.838 199.333C410.838 202.522 410.281 205.35 409.168 207.817C408.055 210.253 406.521 212.179 404.565 213.593C402.61 214.977 400.353 215.669 397.796 215.669ZM397.796 210.073C399.15 210.073 400.353 209.622 401.406 208.719C402.489 207.787 403.332 206.523 403.933 204.928C404.535 203.304 404.836 201.439 404.836 199.333C404.836 197.227 404.535 195.361 403.933 193.737C403.332 192.112 402.489 190.849 401.406 189.946C400.353 189.014 399.135 188.547 397.751 188.547C396.397 188.547 395.194 189.014 394.141 189.946C393.088 190.849 392.26 192.112 391.659 193.737C391.087 195.361 390.801 197.227 390.801 199.333C390.801 201.439 391.087 203.304 391.659 204.928C392.26 206.523 393.088 207.787 394.141 208.719C395.224 209.622 396.442 210.073 397.796 210.073ZM417.581 215.804C416.588 215.804 415.731 215.443 415.009 214.721C414.317 213.999 413.971 213.142 413.971 212.149C413.971 211.186 414.317 210.344 415.009 209.622C415.731 208.9 416.588 208.539 417.581 208.539C418.574 208.539 419.416 208.9 420.108 209.622C420.83 210.344 421.191 211.186 421.191 212.149C421.191 213.142 420.83 213.999 420.108 214.721C419.416 215.443 418.574 215.804 417.581 215.804Z" fill="#48D36E"/>
<path d="M233.845 539.124V631.411C233.845 632.184 233.219 632.81 232.446 632.81H136.43C135.657 632.81 135.031 632.184 135.031 631.411V539.124" stroke="#48D36E" stroke-width="5.59321"/>
<path d="M377.403 456.866V631.408C377.403 632.18 376.777 632.807 376.005 632.807H279.988C279.216 632.807 278.59 632.18 278.59 631.408V456.866" stroke="#48D36E" stroke-width="5.59321"/>
<path d="M104.266 358.319H162.062C172.359 358.319 180.706 366.666 180.706 376.963V407.726" stroke="#48D36E" stroke-width="28.4321"/>
<line x1="165.558" y1="408.889" x2="194.923" y2="408.889" stroke="#48D36E" stroke-width="6.99151" stroke-linecap="round"/>
<path d="M248.295 358.32H306.091C316.388 358.32 324.735 366.667 324.735 376.964V407.726" stroke="#48D36E" stroke-width="28.4321"/>
<line x1="309.582" y1="408.889" x2="338.946" y2="408.889" stroke="#48D36E" stroke-width="6.99151" stroke-linecap="round"/>
<path d="M148.623 573.379C150.744 575.147 152.865 576.914 157.46 576.914C166.296 576.914 166.296 569.845 175.133 569.845C184.322 569.845 183.616 576.914 192.806 576.914C201.642 576.914 201.642 569.845 210.478 569.845C215.073 569.845 217.194 571.612 219.315 573.379" stroke="#48D36E" stroke-width="7.06919" stroke-linecap="round" stroke-linejoin="round"/>
<path d="M148.623 594.588C150.744 596.355 152.865 598.122 157.46 598.122C166.296 598.122 166.296 591.053 175.133 591.053C184.322 591.053 183.616 598.122 192.806 598.122C201.642 598.122 201.642 591.053 210.478 591.053C215.073 591.053 217.194 592.821 219.315 594.588" stroke="#48D36E" stroke-width="7.06919" stroke-linecap="round" stroke-linejoin="round"/>
<path d="M148.623 615.799C150.744 617.566 152.865 619.333 157.46 619.333C166.296 619.333 166.296 612.264 175.133 612.264C184.322 612.264 183.616 619.333 192.806 619.333C201.642 619.333 201.642 612.264 210.478 612.264C215.073 612.264 217.194 614.031 219.315 615.799" stroke="#48D36E" stroke-width="7.06919" stroke-linecap="round" stroke-linejoin="round"/>
<path d="M291.715 573.379C293.836 575.147 295.956 576.914 300.551 576.914C309.388 576.914 309.388 569.845 318.224 569.845C327.414 569.845 326.707 576.914 335.897 576.914C344.734 576.914 344.734 569.845 353.57 569.845C358.165 569.845 360.286 571.612 362.407 573.379" stroke="#48D36E" stroke-width="7.06919" stroke-linecap="round" stroke-linejoin="round"/>
<path d="M291.715 594.588C293.836 596.355 295.956 598.122 300.551 598.122C309.388 598.122 309.388 591.053 318.224 591.053C327.414 591.053 326.707 598.122 335.897 598.122C344.734 598.122 344.734 591.053 353.57 591.053C358.165 591.053 360.286 592.821 362.407 594.588" stroke="#48D36E" stroke-width="7.06919" stroke-linecap="round" stroke-linejoin="round"/>
<path d="M291.715 615.799C293.836 617.566 295.956 619.333 300.551 619.333C309.388 619.333 309.388 612.264 318.224 612.264C327.414 612.264 326.707 619.333 335.897 619.333C344.734 619.333 344.734 612.264 353.57 612.264C358.165 612.264 360.286 614.031 362.407 615.799" stroke="#48D36E" stroke-width="7.06919" stroke-linecap="round" stroke-linejoin="round"/>
<path d="M148.623 551.938C150.744 553.705 152.865 555.473 157.46 555.473C166.296 555.473 166.296 548.404 175.133 548.404C184.322 548.404 183.616 555.473 192.806 555.473C201.642 555.473 201.642 548.404 210.478 548.404C215.073 548.404 217.194 550.171 219.315 551.938" stroke="#48D36E" stroke-width="7.06919" stroke-linecap="round" stroke-linejoin="round"/>
<path d="M291.715 509.523C293.836 511.29 295.956 513.057 300.551 513.057C309.388 513.057 309.388 505.988 318.224 505.988C327.414 505.988 326.707 513.057 335.897 513.057C344.734 513.057 344.734 505.988 353.57 505.988C358.165 505.988 360.286 507.756 362.407 509.523" stroke="#48D36E" stroke-width="7.06919" stroke-linecap="round" stroke-linejoin="round"/>
<path d="M291.715 486.221C293.836 487.988 295.956 489.755 300.551 489.755C309.388 489.755 309.388 482.686 318.224 482.686C327.414 482.686 326.707 489.755 335.897 489.755C344.734 489.755 344.734 482.686 353.57 482.686C358.165 482.686 360.286 484.453 362.407 486.221" stroke="#48D36E" stroke-width="7.06919" stroke-linecap="round" stroke-linejoin="round"/>
<path d="M291.715 465.221C293.836 466.988 295.956 468.755 300.551 468.755C309.388 468.755 309.388 461.686 318.224 461.686C327.414 461.686 326.707 468.755 335.897 468.755C344.734 468.755 344.734 461.686 353.57 461.686C358.165 461.686 360.286 463.453 362.407 465.221" stroke="#48D36E" stroke-width="7.06919" stroke-linecap="round" stroke-linejoin="round"/>
<path d="M291.715 530.731C293.836 532.499 295.956 534.266 300.551 534.266C309.388 534.266 309.388 527.197 318.224 527.197C327.414 527.197 326.707 534.266 335.897 534.266C344.734 534.266 344.734 527.197 353.57 527.197C358.165 527.197 360.286 528.964 362.407 530.731" stroke="#48D36E" stroke-width="7.06919" stroke-linecap="round" stroke-linejoin="round"/>
<path d="M291.715 551.938C293.836 553.705 295.956 555.473 300.551 555.473C309.388 555.473 309.388 548.404 318.224 548.404C327.414 548.404 326.707 555.473 335.897 555.473C344.734 555.473 344.734 548.404 353.57 548.404C358.165 548.404 360.286 550.171 362.407 551.938" stroke="#48D36E" stroke-width="7.06919" stroke-linecap="round" stroke-linejoin="round"/>
<path d="M186.379 436.101C186.379 433.176 180.009 428.156 180.009 428.156C180.009 428.156 173.639 433.176 173.639 436.101C173.639 439.026 176.491 441.398 180.009 441.398C183.527 441.398 186.379 439.026 186.379 436.101Z" fill="#48D36E" stroke="#48D36E" stroke-width="0.796255"/>
<path d="M331.801 435.16C331.801 432.234 325.431 427.215 325.431 427.215C325.431 427.215 319.061 432.234 319.061 435.16C319.061 438.085 321.913 440.457 325.431 440.457C328.949 440.457 331.801 438.085 331.801 435.16Z" fill="#48D36E" stroke="#48D36E" stroke-width="0.796255"/>
<path d="M149.653 688.742V685.865C149.653 685.198 149.826 684.508 150.17 683.797C150.515 683.065 151 682.332 151.625 681.6C152.271 680.867 153.025 680.178 153.887 679.531L157.829 676.687C158.325 676.343 158.777 675.944 159.187 675.492C159.618 675.039 159.962 674.565 160.221 674.07C160.479 673.553 160.609 673.046 160.609 672.551C160.609 671.926 160.447 671.355 160.124 670.838C159.822 670.321 159.381 669.912 158.799 669.61C158.239 669.308 157.549 669.157 156.731 669.157C155.998 669.157 155.341 669.308 154.759 669.61C154.199 669.89 153.736 670.267 153.37 670.741C153.003 671.215 152.745 671.732 152.594 672.292L148.748 671.581C148.964 670.547 149.416 669.588 150.106 668.705C150.817 667.8 151.721 667.078 152.82 666.54C153.941 666.001 155.212 665.732 156.634 665.732C158.228 665.732 159.607 666.023 160.77 666.604C161.955 667.186 162.86 667.994 163.485 669.028C164.131 670.041 164.454 671.204 164.454 672.518C164.454 673.854 164.088 675.061 163.356 676.138C162.645 677.194 161.643 678.206 160.35 679.176L156.731 681.858C156.02 682.375 155.438 682.935 154.986 683.539C154.533 684.12 154.221 684.745 154.048 685.413H164.745V688.742H149.653ZM176.777 689.13C175.01 689.13 173.437 688.634 172.058 687.643C170.679 686.63 169.591 685.251 168.794 683.506C168.019 681.74 167.631 679.714 167.631 677.431C167.631 675.147 168.019 673.132 168.794 671.387C169.591 669.621 170.669 668.242 172.026 667.251C173.405 666.238 174.988 665.732 176.777 665.732C178.565 665.732 180.148 666.238 181.527 667.251C182.906 668.242 183.983 669.621 184.759 671.387C185.556 673.132 185.955 675.147 185.955 677.431C185.955 679.714 185.556 681.74 184.759 683.506C183.983 685.251 182.906 686.63 181.527 687.643C180.17 688.634 178.586 689.13 176.777 689.13ZM176.809 685.736C177.865 685.736 178.802 685.381 179.621 684.67C180.461 683.959 181.107 682.978 181.56 681.729C182.034 680.479 182.271 679.047 182.271 677.431C182.271 675.815 182.034 674.382 181.56 673.132C181.107 671.861 180.461 670.87 179.621 670.159C178.802 669.448 177.854 669.093 176.777 669.093C175.699 669.093 174.751 669.448 173.933 670.159C173.114 670.87 172.468 671.851 171.994 673.1C171.541 674.35 171.315 675.793 171.315 677.431C171.315 679.047 171.541 680.479 171.994 681.729C172.468 682.978 173.114 683.959 173.933 684.67C174.773 685.381 175.732 685.736 176.809 685.736ZM188.945 688.742V685.865C188.945 685.198 189.117 684.508 189.462 683.797C189.807 683.065 190.292 682.332 190.916 681.6C191.563 680.867 192.317 680.178 193.179 679.531L197.121 676.687C197.617 676.343 198.069 675.944 198.479 675.492C198.91 675.039 199.254 674.565 199.513 674.07C199.771 673.553 199.901 673.046 199.901 672.551C199.901 671.926 199.739 671.355 199.416 670.838C199.114 670.321 198.673 669.912 198.091 669.61C197.531 669.308 196.841 669.157 196.023 669.157C195.29 669.157 194.633 669.308 194.051 669.61C193.491 669.89 193.028 670.267 192.662 670.741C192.295 671.215 192.037 671.732 191.886 672.292L188.04 671.581C188.256 670.547 188.708 669.588 189.398 668.705C190.109 667.8 191.013 667.078 192.112 666.54C193.233 666.001 194.504 665.732 195.926 665.732C197.52 665.732 198.899 666.023 200.062 666.604C201.247 667.186 202.152 667.994 202.777 669.028C203.423 670.041 203.746 671.204 203.746 672.518C203.746 673.854 203.38 675.061 202.648 676.138C201.937 677.194 200.935 678.206 199.642 679.176L196.023 681.858C195.312 682.375 194.73 682.935 194.277 683.539C193.825 684.12 193.513 684.745 193.34 685.413H204.037V688.742H188.945ZM215.099 689.13C214.108 689.13 213.095 688.979 212.061 688.677C211.049 688.354 210.111 687.88 209.25 687.255C208.388 686.609 207.731 685.801 207.278 684.831L210.607 683.603C211.167 684.4 211.824 684.982 212.578 685.348C213.332 685.693 214.108 685.865 214.905 685.865C216.176 685.865 217.21 685.488 218.008 684.734C218.805 683.959 219.203 682.935 219.203 681.664C219.203 680.436 218.816 679.424 218.04 678.626C217.264 677.829 216.252 677.431 215.002 677.431C214.27 677.431 213.58 677.592 212.934 677.915C212.309 678.239 211.824 678.626 211.48 679.079L208.086 678.336L209.347 666.12H221.853V669.513H212.578L211.932 675.653C212.514 675.308 213.16 675.039 213.871 674.845C214.604 674.63 215.368 674.522 216.166 674.522C217.458 674.522 218.622 674.824 219.656 675.427C220.69 676.03 221.509 676.86 222.112 677.915C222.715 678.95 223.017 680.145 223.017 681.503C223.017 683.011 222.672 684.336 221.983 685.478C221.315 686.62 220.388 687.514 219.203 688.16C218.018 688.806 216.65 689.13 215.099 689.13Z" fill="#48D36E"/>
<path d="M291.728 688.742V685.865C291.728 685.198 291.9 684.508 292.245 683.797C292.59 683.065 293.074 682.332 293.699 681.6C294.346 680.867 295.1 680.178 295.961 679.531L299.904 676.687C300.4 676.343 300.852 675.944 301.262 675.492C301.692 675.039 302.037 674.565 302.296 674.07C302.554 673.553 302.683 673.046 302.683 672.551C302.683 671.926 302.522 671.355 302.199 670.838C301.897 670.321 301.455 669.912 300.874 669.61C300.314 669.308 299.624 669.157 298.805 669.157C298.073 669.157 297.416 669.308 296.834 669.61C296.274 669.89 295.811 670.267 295.444 670.741C295.078 671.215 294.82 671.732 294.669 672.292L290.823 671.581C291.038 670.547 291.491 669.588 292.18 668.705C292.891 667.8 293.796 667.078 294.895 666.54C296.015 666.001 297.286 665.732 298.708 665.732C300.303 665.732 301.682 666.023 302.845 666.604C304.03 667.186 304.935 667.994 305.56 669.028C306.206 670.041 306.529 671.204 306.529 672.518C306.529 673.854 306.163 675.061 305.43 676.138C304.719 677.194 303.718 678.206 302.425 679.176L298.805 681.858C298.094 682.375 297.513 682.935 297.06 683.539C296.608 684.12 296.295 684.745 296.123 685.413H306.82V688.742H291.728ZM318.851 689.13C317.085 689.13 315.512 688.634 314.133 687.643C312.754 686.63 311.666 685.251 310.869 683.506C310.093 681.74 309.706 679.714 309.706 677.431C309.706 675.147 310.093 673.132 310.869 671.387C311.666 669.621 312.743 668.242 314.101 667.251C315.48 666.238 317.063 665.732 318.851 665.732C320.64 665.732 322.223 666.238 323.602 667.251C324.981 668.242 326.058 669.621 326.834 671.387C327.631 673.132 328.03 675.147 328.03 677.431C328.03 679.714 327.631 681.74 326.834 683.506C326.058 685.251 324.981 686.63 323.602 687.643C322.245 688.634 320.661 689.13 318.851 689.13ZM318.884 685.736C319.939 685.736 320.877 685.381 321.695 684.67C322.536 683.959 323.182 682.978 323.634 681.729C324.108 680.479 324.345 679.047 324.345 677.431C324.345 675.815 324.108 674.382 323.634 673.132C323.182 671.861 322.536 670.87 321.695 670.159C320.877 669.448 319.929 669.093 318.851 669.093C317.774 669.093 316.826 669.448 316.008 670.159C315.189 670.87 314.542 671.851 314.068 673.1C313.616 674.35 313.39 675.793 313.39 677.431C313.39 679.047 313.616 680.479 314.068 681.729C314.542 682.978 315.189 683.959 316.008 684.67C316.848 685.381 317.806 685.736 318.884 685.736ZM338.194 689.13C336.966 689.13 335.846 688.946 334.833 688.58C333.821 688.214 332.97 687.697 332.28 687.029C331.591 686.361 331.095 685.607 330.794 684.767L334.155 683.506C334.327 683.808 334.564 684.142 334.866 684.508C335.167 684.874 335.566 685.198 336.061 685.478C336.557 685.736 337.192 685.865 337.968 685.865C339.196 685.865 340.166 685.521 340.877 684.831C341.609 684.12 341.975 683.226 341.975 682.149C341.975 681.373 341.771 680.705 341.361 680.145C340.974 679.585 340.36 679.154 339.519 678.853C338.701 678.551 337.666 678.4 336.417 678.4H335.383V675.298H336.417C338.076 675.298 339.336 675.018 340.198 674.457C341.06 673.897 341.491 673.111 341.491 672.098C341.491 671.517 341.34 671 341.038 670.547C340.758 670.073 340.349 669.696 339.81 669.416C339.272 669.136 338.636 668.996 337.903 668.996C337.429 668.996 336.966 669.071 336.514 669.222C336.061 669.373 335.641 669.61 335.253 669.933C334.866 670.256 334.542 670.676 334.284 671.193L331.02 669.998C331.343 669.093 331.86 668.328 332.571 667.703C333.282 667.057 334.112 666.572 335.06 666.249C336.007 665.904 336.999 665.732 338.033 665.732C339.412 665.732 340.64 665.99 341.717 666.507C342.816 667.025 343.677 667.746 344.302 668.673C344.949 669.578 345.272 670.622 345.272 671.807C345.272 672.971 344.938 673.973 344.27 674.813C343.624 675.632 342.751 676.289 341.652 676.784C342.902 677.366 343.893 678.142 344.625 679.111C345.379 680.059 345.757 681.201 345.757 682.537C345.757 683.894 345.401 685.068 344.69 686.059C344.001 687.05 343.085 687.815 341.943 688.354C340.801 688.871 339.552 689.13 338.194 689.13ZM357.481 689.13C355.714 689.13 354.141 688.634 352.762 687.643C351.383 686.63 350.295 685.251 349.498 683.506C348.723 681.74 348.335 679.714 348.335 677.431C348.335 675.147 348.723 673.132 349.498 671.387C350.295 669.621 351.373 668.242 352.73 667.251C354.109 666.238 355.692 665.732 357.481 665.732C359.269 665.732 360.852 666.238 362.231 667.251C363.61 668.242 364.687 669.621 365.463 671.387C366.26 673.132 366.659 675.147 366.659 677.431C366.659 679.714 366.26 681.74 365.463 683.506C364.687 685.251 363.61 686.63 362.231 687.643C360.874 688.634 359.29 689.13 357.481 689.13ZM357.513 685.736C358.569 685.736 359.506 685.381 360.325 684.67C361.165 683.959 361.811 682.978 362.264 681.729C362.738 680.479 362.975 679.047 362.975 677.431C362.975 675.815 362.738 674.382 362.264 673.132C361.811 671.861 361.165 670.87 360.325 670.159C359.506 669.448 358.558 669.093 357.481 669.093C356.403 669.093 355.455 669.448 354.637 670.159C353.818 670.87 353.172 671.851 352.698 673.1C352.245 674.35 352.019 675.793 352.019 677.431C352.019 679.047 352.245 680.479 352.698 681.729C353.172 682.978 353.818 683.959 354.637 684.67C355.477 685.381 356.436 685.736 357.513 685.736Z" fill="#48D36E"/>
</svg>
