<svg width="345" height="541" viewBox="0 0 345 541" fill="none" xmlns="http://www.w3.org/2000/svg">
<rect x="1.44" y="1.44" width="342.12" height="538.12" rx="6.08119" stroke="#88F154" stroke-width="2.88"/>
<path opacity="0.3" d="M62.2736 67.9126V87.5012C62.2735 93.0483 60.6312 98.4713 57.5538 103.086L52.9464 109.998C49.8676 114.615 48.2253 120.04 48.2266 125.59V194.336C48.2266 198.062 49.7065 201.635 52.3409 204.269C54.9752 206.903 58.5481 208.383 62.2736 208.383H104.415C108.14 208.383 111.713 206.903 114.348 204.269C116.982 201.635 118.462 198.062 118.462 194.336V125.583C118.462 120.036 116.819 114.613 113.742 109.998L109.135 103.086C106.056 98.4693 104.414 93.0437 104.415 87.4942V67.9126" fill="#88F154" stroke="#88F154" stroke-width="4.32217" stroke-linecap="round" stroke-linejoin="round"/>
<mask id="mask0_633_3815" style="mask-type:alpha" maskUnits="userSpaceOnUse" x="46" y="65" width="75" height="146">
<path d="M62.2736 67.9136V87.5022C62.2735 93.0493 60.6312 98.4722 57.5538 103.087L52.9464 109.999C49.8676 114.616 48.2253 120.041 48.2266 125.591V194.337C48.2266 198.063 49.7065 201.636 52.3409 204.27C54.9752 206.904 58.5481 208.384 62.2736 208.384H104.415C108.14 208.384 111.713 206.904 114.348 204.27C116.982 201.636 118.462 198.063 118.462 194.337V125.584C118.462 120.037 116.819 114.614 113.742 109.999L109.135 103.087C106.056 98.4702 104.414 93.0447 104.415 87.4952V67.9136" fill="white" stroke="white" stroke-width="4.32217" stroke-linecap="round" stroke-linejoin="round"/>
</mask>
<g mask="url(#mask0_633_3815)">
<path d="M83.5804 139.685C61.2951 133.234 48.8103 134.504 26.5241 139.685L15.1602 218.995H156.736V139.685C128.707 146.485 112.98 150.005 83.5804 139.685Z" fill="#88F154"/>
</g>
<path d="M55.2475 276.529C53.7289 276.529 52.3834 276.212 51.2108 275.577C50.0575 274.924 49.154 274.03 48.5005 272.896C47.8469 271.742 47.5201 270.416 47.5201 268.917V255.913H49.971V268.917C49.971 269.974 50.192 270.916 50.6341 271.742C51.0955 272.55 51.7298 273.184 52.5371 273.645C53.3445 274.087 54.2672 274.309 55.3052 274.309C56.3624 274.309 57.2947 274.087 58.102 273.645C58.9286 273.184 59.5629 272.55 60.005 271.742C60.4663 270.916 60.697 269.974 60.697 268.917V255.913H63.119V268.917C63.119 270.416 62.7922 271.742 62.1387 272.896C61.4851 274.03 60.5625 274.924 59.3707 275.577C58.1789 276.212 56.8045 276.529 55.2475 276.529ZM67.0261 276.096V261.679H69.1886L69.3039 263.842C69.7845 263.035 70.4092 262.42 71.1781 261.997C71.947 261.555 72.8408 261.333 73.8596 261.333C74.9937 261.333 75.9741 261.564 76.8006 262.025C77.6464 262.468 78.3 263.179 78.7613 264.159C79.2419 265.139 79.4725 266.427 79.4533 268.023V276.096H77.1466V268.715C77.1466 267.292 76.9832 266.206 76.6565 265.457C76.3297 264.707 75.878 264.198 75.3013 263.928C74.7246 263.64 74.0711 263.496 73.3406 263.496C72.0719 263.496 71.082 263.948 70.3708 264.851C69.6788 265.735 69.3328 266.994 69.3328 268.628V276.096H67.0261ZM88.9133 276.442C87.51 276.442 86.2702 276.125 85.1938 275.491C84.1173 274.837 83.2715 273.943 82.6564 272.809C82.0605 271.675 81.7626 270.368 81.7626 268.888C81.7626 267.408 82.0605 266.101 82.6564 264.966C83.2715 263.832 84.1077 262.948 85.1649 262.314C86.2414 261.66 87.4716 261.333 88.8556 261.333C90.2012 261.333 91.3641 261.67 92.3445 262.343C93.3248 262.996 94.0841 263.919 94.6223 265.111C95.1605 266.302 95.4296 267.706 95.4296 269.32H84.0981C84.1942 270.897 84.694 272.127 85.5974 273.011C86.5009 273.895 87.6446 274.337 89.0286 274.337C90.0474 274.337 90.9028 274.097 91.5948 273.617C92.306 273.136 92.8538 272.502 93.2383 271.714L95.2278 272.723C94.8626 273.472 94.3724 274.126 93.7573 274.683C93.1614 275.241 92.4502 275.673 91.6236 275.981C90.8163 276.288 89.9128 276.442 88.9133 276.442ZM84.2711 267.388H92.95C92.8923 266.562 92.6712 265.851 92.2868 265.255C91.9216 264.659 91.441 264.198 90.8451 263.871C90.2492 263.544 89.5764 263.381 88.8268 263.381C88.0963 263.381 87.3947 263.544 86.7219 263.871C86.0492 264.178 85.4917 264.64 85.0496 265.255C84.6075 265.851 84.348 266.562 84.2711 267.388ZM111.026 276.442C109.527 276.442 108.191 276.125 107.018 275.491C105.846 274.837 104.933 273.943 104.279 272.809C103.625 271.656 103.299 270.349 103.299 268.888C103.299 267.408 103.625 266.101 104.279 264.966C104.933 263.832 105.836 262.948 106.989 262.314C108.143 261.66 109.469 261.333 110.968 261.333C112.41 261.333 113.727 261.689 114.919 262.4C116.11 263.112 116.975 264.14 117.514 265.485L113.938 266.754C113.669 266.197 113.246 265.755 112.67 265.428C112.112 265.082 111.487 264.909 110.795 264.909C110.084 264.909 109.459 265.082 108.921 265.428C108.383 265.755 107.96 266.216 107.653 266.812C107.345 267.408 107.191 268.1 107.191 268.888C107.191 269.676 107.345 270.368 107.653 270.964C107.96 271.541 108.393 272.002 108.95 272.348C109.508 272.694 110.142 272.867 110.853 272.867C111.545 272.867 112.17 272.684 112.727 272.319C113.304 271.954 113.727 271.473 113.996 270.877L117.6 272.146C117.043 273.511 116.168 274.568 114.976 275.318C113.804 276.067 112.487 276.442 111.026 276.442ZM126.088 276.442C124.627 276.442 123.32 276.125 122.166 275.491C121.032 274.837 120.139 273.943 119.485 272.809C118.851 271.675 118.533 270.368 118.533 268.888C118.533 267.408 118.851 266.101 119.485 264.966C120.119 263.832 121.004 262.948 122.138 262.314C123.272 261.66 124.569 261.333 126.03 261.333C127.51 261.333 128.817 261.66 129.952 262.314C131.086 262.948 131.97 263.832 132.604 264.966C133.239 266.101 133.556 267.408 133.556 268.888C133.556 270.368 133.239 271.675 132.604 272.809C131.97 273.943 131.086 274.837 129.952 275.491C128.837 276.125 127.549 276.442 126.088 276.442ZM126.088 272.925C126.799 272.925 127.424 272.752 127.962 272.406C128.5 272.06 128.914 271.589 129.202 270.993C129.509 270.378 129.663 269.676 129.663 268.888C129.663 268.1 129.509 267.408 129.202 266.812C128.894 266.197 128.462 265.716 127.904 265.37C127.366 265.024 126.741 264.851 126.03 264.851C125.338 264.851 124.713 265.024 124.156 265.37C123.618 265.716 123.195 266.197 122.887 266.812C122.58 267.408 122.426 268.1 122.426 268.888C122.426 269.676 122.58 270.378 122.887 270.993C123.195 271.589 123.627 272.06 124.185 272.406C124.742 272.752 125.377 272.925 126.088 272.925ZM140.693 276.442C139.539 276.442 138.559 276.212 137.752 275.75C136.964 275.289 136.358 274.578 135.935 273.617C135.512 272.636 135.301 271.377 135.301 269.839V261.679H139.107V269.061C139.107 270.022 139.213 270.781 139.424 271.339C139.655 271.877 139.972 272.271 140.376 272.521C140.799 272.752 141.269 272.867 141.788 272.867C142.788 272.886 143.547 272.588 144.066 271.973C144.585 271.339 144.845 270.426 144.845 269.234V261.679H148.651V276.096H145.075L144.931 274.136C144.451 274.866 143.845 275.433 143.115 275.837C142.404 276.24 141.596 276.442 140.693 276.442ZM151.443 276.096V261.679H155.249V264.332C155.845 263.429 156.594 262.756 157.498 262.314C158.421 261.852 159.372 261.622 160.352 261.622V265.312C159.468 265.312 158.632 265.418 157.844 265.63C157.075 265.841 156.45 266.187 155.97 266.668C155.489 267.148 155.249 267.763 155.249 268.513V276.096H151.443ZM167.802 276.442C166.207 276.442 164.996 276.048 164.169 275.26C163.362 274.472 162.958 273.347 162.958 271.887V264.909H160.623V261.679H162.958V257.181H166.764V261.679H170.369V264.909H166.764V271.05C166.764 271.665 166.899 272.136 167.168 272.463C167.437 272.771 167.831 272.925 168.35 272.925C168.542 272.925 168.754 272.886 168.985 272.809C169.215 272.713 169.455 272.579 169.705 272.406L171.032 275.26C170.57 275.606 170.051 275.885 169.475 276.096C168.917 276.327 168.36 276.442 167.802 276.442ZM179.221 276.442C177.799 276.442 176.54 276.125 175.444 275.491C174.348 274.837 173.483 273.943 172.849 272.809C172.234 271.675 171.926 270.368 171.926 268.888C171.926 267.408 172.243 266.101 172.878 264.966C173.531 263.832 174.416 262.948 175.531 262.314C176.665 261.66 177.962 261.333 179.423 261.333C180.692 261.333 181.855 261.67 182.912 262.343C183.988 262.996 184.844 263.967 185.478 265.255C186.132 266.523 186.458 268.071 186.458 269.897H175.905C176.001 270.858 176.415 271.627 177.145 272.204C177.876 272.761 178.702 273.04 179.625 273.04C180.413 273.04 181.057 272.876 181.557 272.55C182.056 272.204 182.441 271.762 182.71 271.223L186.112 272.55C185.709 273.357 185.18 274.059 184.527 274.655C183.892 275.231 183.133 275.673 182.249 275.981C181.364 276.288 180.355 276.442 179.221 276.442ZM176.107 267.071H182.335C182.278 266.475 182.085 265.995 181.759 265.63C181.432 265.264 181.047 264.995 180.605 264.822C180.163 264.649 179.731 264.563 179.308 264.563C178.904 264.563 178.462 264.649 177.981 264.822C177.52 264.976 177.107 265.236 176.742 265.601C176.396 265.966 176.184 266.456 176.107 267.071ZM53.7193 311.442C52.22 311.442 50.884 311.125 49.7115 310.491C48.5389 309.837 47.6259 308.943 46.9723 307.809C46.3187 306.656 45.992 305.349 45.992 303.888C45.992 302.408 46.3187 301.101 46.9723 299.966C47.6259 298.832 48.5293 297.948 49.6826 297.314C50.836 296.66 52.1623 296.333 53.6617 296.333C55.1033 296.333 56.4201 296.689 57.6118 297.4C58.8036 298.112 59.6686 299.14 60.2068 300.485L56.6315 301.754C56.3624 301.197 55.9395 300.755 55.3628 300.428C54.8054 300.082 54.1807 299.909 53.4887 299.909C52.7774 299.909 52.1527 300.082 51.6145 300.428C51.0763 300.755 50.6534 301.216 50.3458 301.812C50.0383 302.408 49.8845 303.1 49.8845 303.888C49.8845 304.676 50.0383 305.368 50.3458 305.964C50.6534 306.541 51.0859 307.002 51.6433 307.348C52.2008 307.694 52.8351 307.867 53.5463 307.867C54.2383 307.867 54.863 307.684 55.4205 307.319C55.9972 306.954 56.4201 306.473 56.6892 305.877L60.2933 307.146C59.7359 308.511 58.8613 309.568 57.6695 310.318C56.4969 311.067 55.1802 311.442 53.7193 311.442ZM68.7811 311.442C67.3202 311.442 66.0131 311.125 64.8597 310.491C63.7256 309.837 62.8318 308.943 62.1782 307.809C61.5439 306.675 61.2267 305.368 61.2267 303.888C61.2267 302.408 61.5439 301.101 62.1782 299.966C62.8126 298.832 63.6968 297.948 64.8309 297.314C65.965 296.66 67.2625 296.333 68.7234 296.333C70.2035 296.333 71.5107 296.66 72.6448 297.314C73.7789 297.948 74.6631 298.832 75.2975 299.966C75.9318 301.101 76.249 302.408 76.249 303.888C76.249 305.368 75.9318 306.675 75.2975 307.809C74.6631 308.943 73.7789 309.837 72.6448 310.491C71.5299 311.125 70.242 311.442 68.7811 311.442ZM68.7811 307.925C69.4923 307.925 70.117 307.752 70.6553 307.406C71.1935 307.06 71.6068 306.589 71.8951 305.993C72.2027 305.378 72.3564 304.676 72.3564 303.888C72.3564 303.1 72.2027 302.408 71.8951 301.812C71.5876 301.197 71.155 300.716 70.5976 300.37C70.0594 300.024 69.4347 299.851 68.7234 299.851C68.0314 299.851 67.4067 300.024 66.8493 300.37C66.311 300.716 65.8881 301.197 65.5806 301.812C65.273 302.408 65.1192 303.1 65.1192 303.888C65.1192 304.676 65.273 305.378 65.5806 305.993C65.8881 306.589 66.3206 307.06 66.8781 307.406C67.4355 307.752 68.0699 307.925 68.7811 307.925ZM78.2537 311.096V296.679H81.829L82.002 298.64C82.4634 297.89 83.0496 297.323 83.7609 296.939C84.4913 296.535 85.3179 296.333 86.2405 296.333C87.3747 296.333 88.3454 296.564 89.1527 297.025C89.9601 297.487 90.5752 298.208 90.9981 299.188C91.421 300.149 91.6228 301.399 91.6036 302.936V311.096H87.7976V303.715C87.7976 302.734 87.6822 301.975 87.4516 301.437C87.2401 300.899 86.9326 300.514 86.5289 300.284C86.1252 300.034 85.6543 299.909 85.116 299.909C84.1357 299.89 83.3764 300.188 82.8382 300.803C82.3192 301.418 82.0597 302.331 82.0597 303.542V311.096H78.2537ZM98.2111 311.096L92.3002 296.679H96.2215L100.114 306.742L104.007 296.679H107.928L102.017 311.096H98.2111ZM115.324 311.442C113.902 311.442 112.643 311.125 111.547 310.491C110.451 309.837 109.586 308.943 108.952 307.809C108.337 306.675 108.029 305.368 108.029 303.888C108.029 302.408 108.346 301.101 108.981 299.966C109.634 298.832 110.518 297.948 111.633 297.314C112.767 296.66 114.065 296.333 115.526 296.333C116.795 296.333 117.958 296.67 119.015 297.343C120.091 297.996 120.947 298.967 121.581 300.255C122.234 301.523 122.561 303.071 122.561 304.897H112.008C112.104 305.858 112.518 306.627 113.248 307.204C113.979 307.761 114.805 308.04 115.728 308.04C116.516 308.04 117.16 307.876 117.66 307.55C118.159 307.204 118.544 306.762 118.813 306.223L122.215 307.55C121.812 308.357 121.283 309.059 120.629 309.655C119.995 310.231 119.236 310.673 118.352 310.981C117.467 311.288 116.458 311.442 115.324 311.442ZM112.21 302.071H118.438C118.38 301.475 118.188 300.995 117.861 300.63C117.535 300.264 117.15 299.995 116.708 299.822C116.266 299.649 115.833 299.563 115.411 299.563C115.007 299.563 114.565 299.649 114.084 299.822C113.623 299.976 113.21 300.236 112.844 300.601C112.498 300.966 112.287 301.456 112.21 302.071ZM124.268 311.096V296.679H128.074V299.332C128.67 298.429 129.419 297.756 130.323 297.314C131.245 296.852 132.197 296.622 133.177 296.622V300.312C132.293 300.312 131.457 300.418 130.669 300.63C129.9 300.841 129.275 301.187 128.795 301.668C128.314 302.148 128.074 302.763 128.074 303.513V311.096H124.268ZM140.079 311.442C139.157 311.442 138.292 311.308 137.484 311.039C136.677 310.75 135.966 310.347 135.351 309.828C134.736 309.289 134.255 308.636 133.909 307.867L137.167 306.368C137.456 306.829 137.85 307.233 138.349 307.579C138.849 307.905 139.426 308.069 140.079 308.069C140.714 308.069 141.204 307.982 141.55 307.809C141.896 307.617 142.069 307.348 142.069 307.002C142.069 306.656 141.925 306.406 141.636 306.252C141.367 306.079 140.992 305.935 140.512 305.82L139.186 305.474C137.802 305.108 136.706 304.532 135.899 303.744C135.11 302.936 134.716 302.014 134.716 300.976C134.716 299.496 135.187 298.352 136.129 297.544C137.09 296.737 138.446 296.333 140.195 296.333C141.098 296.333 141.934 296.468 142.703 296.737C143.491 297.006 144.164 297.381 144.722 297.862C145.279 298.342 145.663 298.9 145.875 299.534L142.732 300.976C142.598 300.591 142.271 300.284 141.752 300.053C141.233 299.803 140.714 299.678 140.195 299.678C139.676 299.678 139.272 299.793 138.984 300.024C138.715 300.236 138.58 300.534 138.58 300.918C138.58 301.168 138.715 301.379 138.984 301.552C139.253 301.706 139.637 301.841 140.137 301.956L142.011 302.417C142.953 302.648 143.703 303.023 144.26 303.542C144.837 304.042 145.25 304.609 145.5 305.243C145.769 305.858 145.904 306.464 145.904 307.06C145.904 307.925 145.644 308.693 145.125 309.366C144.625 310.02 143.933 310.529 143.049 310.894C142.184 311.26 141.194 311.442 140.079 311.442ZM152.284 311.442C150.554 311.442 149.209 311.058 148.248 310.289C147.306 309.52 146.835 308.434 146.835 307.031C146.835 305.493 147.344 304.34 148.363 303.571C149.401 302.783 150.852 302.388 152.717 302.388H156.119C155.985 301.504 155.706 300.831 155.283 300.37C154.86 299.89 154.255 299.649 153.467 299.649C152.851 299.649 152.294 299.784 151.794 300.053C151.294 300.322 150.872 300.735 150.526 301.293L147.181 300.139C147.45 299.524 147.844 298.928 148.363 298.352C148.882 297.756 149.555 297.275 150.381 296.91C151.227 296.526 152.256 296.333 153.467 296.333C154.927 296.333 156.138 296.612 157.1 297.17C158.08 297.727 158.801 298.515 159.262 299.534C159.743 300.534 159.973 301.725 159.954 303.109L159.868 311.096H156.321L156.263 309.424C155.898 310.077 155.379 310.577 154.706 310.923C154.053 311.269 153.246 311.442 152.284 311.442ZM152.919 308.271C153.534 308.271 154.091 308.126 154.591 307.838C155.091 307.55 155.485 307.175 155.773 306.714C156.062 306.252 156.206 305.772 156.206 305.272V305.214H154.043C152.794 305.214 151.929 305.368 151.448 305.676C150.968 305.964 150.727 306.377 150.727 306.915C150.727 307.338 150.92 307.675 151.304 307.925C151.689 308.155 152.227 308.271 152.919 308.271ZM168.422 311.442C166.826 311.442 165.615 311.048 164.789 310.26C163.981 309.472 163.578 308.347 163.578 306.887V299.909H161.242V296.679H163.578V292.181H167.384V296.679H170.988V299.909H167.384V306.05C167.384 306.665 167.518 307.136 167.787 307.463C168.057 307.771 168.451 307.925 168.97 307.925C169.162 307.925 169.373 307.886 169.604 307.809C169.835 307.713 170.075 307.579 170.325 307.406L171.651 310.26C171.19 310.606 170.671 310.885 170.094 311.096C169.537 311.327 168.979 311.442 168.422 311.442ZM173.808 311.096V296.679H177.614V311.096H173.808ZM175.711 294.344C175.135 294.344 174.625 294.133 174.183 293.71C173.741 293.268 173.52 292.749 173.52 292.153C173.52 291.557 173.741 291.047 174.183 290.624C174.625 290.182 175.135 289.961 175.711 289.961C176.307 289.961 176.817 290.182 177.24 290.624C177.682 291.047 177.903 291.557 177.903 292.153C177.903 292.749 177.682 293.268 177.24 293.71C176.817 294.133 176.307 294.344 175.711 294.344ZM187.394 311.442C185.934 311.442 184.626 311.125 183.473 310.491C182.339 309.837 181.445 308.943 180.792 307.809C180.157 306.675 179.84 305.368 179.84 303.888C179.84 302.408 180.157 301.101 180.792 299.966C181.426 298.832 182.31 297.948 183.444 297.314C184.578 296.66 185.876 296.333 187.337 296.333C188.817 296.333 190.124 296.66 191.258 297.314C192.392 297.948 193.276 298.832 193.911 299.966C194.545 301.101 194.862 302.408 194.862 303.888C194.862 305.368 194.545 306.675 193.911 307.809C193.276 308.943 192.392 309.837 191.258 310.491C190.143 311.125 188.855 311.442 187.394 311.442ZM187.394 307.925C188.106 307.925 188.73 307.752 189.269 307.406C189.807 307.06 190.22 306.589 190.508 305.993C190.816 305.378 190.97 304.676 190.97 303.888C190.97 303.1 190.816 302.408 190.508 301.812C190.201 301.197 189.768 300.716 189.211 300.37C188.673 300.024 188.048 299.851 187.337 299.851C186.645 299.851 186.02 300.024 185.463 300.37C184.924 300.716 184.502 301.197 184.194 301.812C183.886 302.408 183.733 303.1 183.733 303.888C183.733 304.676 183.886 305.378 184.194 305.993C184.502 306.589 184.934 307.06 185.491 307.406C186.049 307.752 186.683 307.925 187.394 307.925ZM196.867 311.096V296.679H200.442L200.615 298.64C201.077 297.89 201.663 297.323 202.374 296.939C203.105 296.535 203.931 296.333 204.854 296.333C205.988 296.333 206.959 296.564 207.766 297.025C208.573 297.487 209.189 298.208 209.611 299.188C210.034 300.149 210.236 301.399 210.217 302.936V311.096H206.411V303.715C206.411 302.734 206.296 301.975 206.065 301.437C205.853 300.899 205.546 300.514 205.142 300.284C204.739 300.034 204.268 299.909 203.729 299.909C202.749 299.89 201.99 300.188 201.452 300.803C200.933 301.418 200.673 302.331 200.673 303.542V311.096H196.867ZM51.701 346.442C50.0094 346.442 48.6831 346.058 47.722 345.289C46.7801 344.501 46.3091 343.415 46.3091 342.031C46.3091 340.57 46.7897 339.455 47.7508 338.686C48.7311 337.898 50.0959 337.504 51.8451 337.504H55.853C55.7569 336.139 55.4205 335.12 54.8438 334.447C54.2672 333.755 53.4022 333.409 52.2488 333.409C51.4607 333.409 50.7783 333.573 50.2016 333.9C49.6442 334.207 49.1829 334.707 48.8176 335.399L46.7416 334.592C47.1069 333.919 47.549 333.342 48.068 332.862C48.587 332.362 49.1925 331.987 49.8845 331.737C50.5765 331.468 51.3646 331.333 52.2488 331.333C53.5944 331.333 54.6997 331.603 55.5647 332.141C56.4489 332.66 57.1121 333.438 57.5542 334.476C57.9963 335.495 58.2077 336.764 58.1885 338.282L58.1597 346.096H56.026L55.9107 344.164C55.4878 344.895 54.9207 345.462 54.2095 345.866C53.4983 346.25 52.6621 346.442 51.701 346.442ZM51.8163 344.424C52.6429 344.424 53.3637 344.251 53.9788 343.905C54.5939 343.54 55.0649 343.03 55.3917 342.377C55.7377 341.723 55.9107 340.935 55.9107 340.012V339.436H52.3641C51.0186 339.436 50.0575 339.657 49.4808 340.099C48.9234 340.541 48.6446 341.175 48.6446 342.002C48.6446 342.752 48.9234 343.347 49.4808 343.79C50.0383 344.212 50.8168 344.424 51.8163 344.424ZM65.3803 346.096L59.3541 331.679H61.7473L66.5913 343.415L71.4065 331.679H73.8285L67.8023 346.096H65.3803ZM81.5641 346.442C80.1609 346.442 78.9211 346.125 77.8446 345.491C76.7682 344.837 75.9224 343.943 75.3073 342.809C74.7114 341.675 74.4134 340.368 74.4134 338.888C74.4134 337.408 74.7114 336.101 75.3073 334.966C75.9224 333.832 76.7585 332.948 77.8158 332.314C78.8922 331.66 80.1225 331.333 81.5065 331.333C82.852 331.333 84.015 331.67 84.9953 332.343C85.9756 332.996 86.7349 333.919 87.2731 335.111C87.8114 336.302 88.0805 337.706 88.0805 339.32H76.7489C76.845 340.897 77.3448 342.127 78.2483 343.011C79.1517 343.895 80.2955 344.337 81.6795 344.337C82.6982 344.337 83.5536 344.097 84.2456 343.617C84.9569 343.136 85.5047 342.502 85.8891 341.714L87.8786 342.723C87.5134 343.472 87.0233 344.126 86.4081 344.683C85.8123 345.241 85.101 345.673 84.2745 345.981C83.4671 346.288 82.5637 346.442 81.5641 346.442ZM76.9219 337.388H85.6008C85.5431 336.562 85.3221 335.851 84.9376 335.255C84.5724 334.659 84.0919 334.198 83.496 333.871C82.9001 333.544 82.2273 333.381 81.4776 333.381C80.7472 333.381 80.0456 333.544 79.3728 333.871C78.7 334.178 78.1426 334.64 77.7004 335.255C77.2583 335.851 76.9988 336.562 76.9219 337.388ZM96.9142 346.442C95.4918 346.442 94.2327 346.125 93.137 345.491C92.0414 344.837 91.186 343.943 90.5709 342.809C89.9558 341.675 89.6482 340.368 89.6482 338.888C89.6482 337.408 89.9461 336.101 90.542 334.966C91.1572 333.832 92.0125 332.948 93.1082 332.314C94.2039 331.66 95.4533 331.333 96.8566 331.333C98.2406 331.333 99.4804 331.651 100.576 332.285C101.672 332.919 102.508 333.813 103.085 334.966L100.98 335.918C100.595 335.149 100.038 334.553 99.3074 334.13C98.577 333.688 97.7408 333.467 96.7989 333.467C95.857 333.467 95.0208 333.698 94.2904 334.159C93.5792 334.62 93.0121 335.264 92.5892 336.091C92.1855 336.898 91.9837 337.831 91.9837 338.888C91.9837 339.945 92.1855 340.887 92.5892 341.714C93.0121 342.521 93.5888 343.155 94.3192 343.617C95.0689 344.078 95.9147 344.309 96.8566 344.309C97.7985 344.309 98.6346 344.068 99.3651 343.588C100.115 343.107 100.682 342.434 101.066 341.569L103.171 342.521C102.594 343.751 101.758 344.712 100.663 345.404C99.5669 346.096 98.3175 346.442 96.9142 346.442ZM117.416 346.442C116.301 346.442 115.321 346.221 114.475 345.779C113.648 345.318 112.995 344.597 112.514 343.617C112.053 342.617 111.822 341.329 111.822 339.753V331.679H114.129V339.061C114.129 340.483 114.292 341.569 114.619 342.319C114.946 343.069 115.397 343.588 115.974 343.876C116.57 344.145 117.233 344.28 117.964 344.28C119.213 344.28 120.184 343.828 120.876 342.925C121.587 342.021 121.943 340.762 121.943 339.147V331.679H124.249V346.096H122.087L121.971 343.934C121.491 344.741 120.866 345.366 120.097 345.808C119.328 346.231 118.435 346.442 117.416 346.442ZM127.77 346.096V331.679H129.932L130.047 333.842C130.528 333.035 131.153 332.42 131.922 331.997C132.69 331.555 133.584 331.333 134.603 331.333C135.737 331.333 136.718 331.564 137.544 332.025C138.39 332.468 139.043 333.179 139.505 334.159C139.985 335.139 140.216 336.427 140.197 338.023V346.096H137.89V338.715C137.89 337.292 137.727 336.206 137.4 335.457C137.073 334.707 136.621 334.198 136.045 333.928C135.468 333.64 134.815 333.496 134.084 333.496C132.815 333.496 131.825 333.948 131.114 334.851C130.422 335.735 130.076 336.994 130.076 338.628V346.096H127.77ZM154.516 346.442C152.825 346.442 151.499 346.058 150.537 345.289C149.596 344.501 149.125 343.415 149.125 342.031C149.125 340.57 149.605 339.455 150.566 338.686C151.547 337.898 152.911 337.504 154.661 337.504H158.668C158.572 336.139 158.236 335.12 157.659 334.447C157.083 333.755 156.218 333.409 155.064 333.409C154.276 333.409 153.594 333.573 153.017 333.9C152.46 334.207 151.998 334.707 151.633 335.399L149.557 334.592C149.922 333.919 150.364 333.342 150.883 332.862C151.402 332.362 152.008 331.987 152.7 331.737C153.392 331.468 154.18 331.333 155.064 331.333C156.41 331.333 157.515 331.603 158.38 332.141C159.264 332.66 159.928 333.438 160.37 334.476C160.812 335.495 161.023 336.764 161.004 338.282L160.975 346.096H158.841L158.726 344.164C158.303 344.895 157.736 345.462 157.025 345.866C156.314 346.25 155.478 346.442 154.516 346.442ZM154.632 344.424C155.458 344.424 156.179 344.251 156.794 343.905C157.409 343.54 157.88 343.03 158.207 342.377C158.553 341.723 158.726 340.935 158.726 340.012V339.436H155.18C153.834 339.436 152.873 339.657 152.296 340.099C151.739 340.541 151.46 341.175 151.46 342.002C151.46 342.752 151.739 343.347 152.296 343.79C152.854 344.212 153.632 344.424 154.632 344.424ZM169.92 352.209C168.998 352.209 168.152 352.113 167.383 351.921C166.633 351.748 165.989 351.546 165.451 351.315C164.932 351.104 164.557 350.921 164.327 350.767L165.192 348.893C165.442 349.028 165.797 349.191 166.259 349.383C166.72 349.595 167.258 349.768 167.873 349.902C168.508 350.056 169.18 350.133 169.892 350.133C170.814 350.133 171.641 349.941 172.371 349.556C173.121 349.191 173.698 348.605 174.101 347.797C174.524 347.009 174.736 345.99 174.736 344.741V343.213C174.217 344.078 173.534 344.76 172.688 345.26C171.843 345.741 170.891 345.981 169.834 345.981C168.546 345.981 167.412 345.673 166.432 345.058C165.451 344.443 164.682 343.588 164.125 342.492C163.587 341.377 163.318 340.108 163.318 338.686C163.318 337.225 163.587 335.947 164.125 334.851C164.682 333.736 165.451 332.871 166.432 332.256C167.412 331.641 168.546 331.333 169.834 331.333C170.891 331.333 171.843 331.574 172.688 332.054C173.534 332.535 174.217 333.217 174.736 334.101V331.679H177.042V344.712C177.042 346.365 176.735 347.749 176.12 348.864C175.504 349.979 174.659 350.815 173.582 351.373C172.506 351.93 171.285 352.209 169.92 352.209ZM170.382 343.991C171.227 343.991 171.977 343.761 172.631 343.299C173.284 342.838 173.794 342.213 174.159 341.425C174.524 340.618 174.707 339.686 174.707 338.628C174.707 337.61 174.515 336.706 174.13 335.918C173.765 335.111 173.255 334.486 172.602 334.044C171.968 333.582 171.218 333.352 170.353 333.352C169.449 333.352 168.642 333.582 167.931 334.044C167.239 334.486 166.691 335.111 166.287 335.918C165.903 336.706 165.711 337.61 165.711 338.628C165.711 339.686 165.913 340.618 166.316 341.425C166.72 342.213 167.268 342.838 167.96 343.299C168.671 343.761 169.478 343.991 170.382 343.991ZM186.886 346.442C185.482 346.442 184.243 346.125 183.166 345.491C182.09 344.837 181.244 343.943 180.629 342.809C180.033 341.675 179.735 340.368 179.735 338.888C179.735 337.408 180.033 336.101 180.629 334.966C181.244 333.832 182.08 332.948 183.137 332.314C184.214 331.66 185.444 331.333 186.828 331.333C188.173 331.333 189.336 331.67 190.317 332.343C191.297 332.996 192.056 333.919 192.595 335.111C193.133 336.302 193.402 337.706 193.402 339.32H182.07C182.167 340.897 182.666 342.127 183.57 343.011C184.473 343.895 185.617 344.337 187.001 344.337C188.02 344.337 188.875 344.097 189.567 343.617C190.278 343.136 190.826 342.502 191.211 341.714L193.2 342.723C192.835 343.472 192.345 344.126 191.73 344.683C191.134 345.241 190.423 345.673 189.596 345.981C188.789 346.288 187.885 346.442 186.886 346.442ZM182.243 337.388H190.922C190.865 336.562 190.644 335.851 190.259 335.255C189.894 334.659 189.413 334.198 188.817 333.871C188.222 333.544 187.549 333.381 186.799 333.381C186.069 333.381 185.367 333.544 184.694 333.871C184.021 334.178 183.464 334.64 183.022 335.255C182.58 335.851 182.32 336.562 182.243 337.388ZM195.806 346.096V331.679H197.968L198.084 333.842C198.564 333.035 199.189 332.42 199.958 331.997C200.727 331.555 201.621 331.333 202.639 331.333C203.773 331.333 204.754 331.564 205.58 332.025C206.426 332.468 207.08 333.179 207.541 334.159C208.022 335.139 208.252 336.427 208.233 338.023V346.096H205.926V338.715C205.926 337.292 205.763 336.206 205.436 335.457C205.109 334.707 204.658 334.198 204.081 333.928C203.504 333.64 202.851 333.496 202.12 333.496C200.852 333.496 199.862 333.948 199.151 334.851C198.459 335.735 198.113 336.994 198.113 338.628V346.096H195.806ZM216.799 346.442C215.396 346.442 214.31 346.077 213.541 345.347C212.772 344.616 212.388 343.588 212.388 342.261V333.727H209.879V331.679H212.388V327.181H214.694V331.679H219.019V333.727H214.694V342.031C214.694 342.761 214.887 343.328 215.271 343.732C215.675 344.116 216.232 344.309 216.943 344.309C217.174 344.309 217.395 344.28 217.607 344.222C217.837 344.145 218.135 343.972 218.5 343.703L219.394 345.577C218.894 345.904 218.443 346.125 218.039 346.24C217.635 346.375 217.222 346.442 216.799 346.442ZM53.5752 381.442C52.1527 381.442 50.8936 381.125 49.798 380.491C48.7023 379.837 47.8469 378.943 47.2318 377.809C46.6167 376.675 46.3091 375.368 46.3091 373.888C46.3091 372.408 46.6071 371.101 47.203 369.966C47.8181 368.832 48.6735 367.948 49.7691 367.314C50.8648 366.66 52.1143 366.333 53.5175 366.333C54.9015 366.333 56.1413 366.651 57.237 367.285C58.3327 367.919 59.1688 368.813 59.7455 369.966L57.6407 370.918C57.2562 370.149 56.6988 369.553 55.9683 369.13C55.2379 368.688 54.4017 368.467 53.4598 368.467C52.5179 368.467 51.6818 368.698 50.9513 369.159C50.2401 369.62 49.673 370.264 49.2501 371.091C48.8465 371.898 48.6446 372.831 48.6446 373.888C48.6446 374.945 48.8465 375.887 49.2501 376.714C49.673 377.521 50.2497 378.155 50.9801 378.617C51.7298 379.078 52.5756 379.309 53.5175 379.309C54.4594 379.309 55.2956 379.068 56.026 378.588C56.7757 378.107 57.3427 377.434 57.7272 376.569L59.832 377.521C59.2553 378.751 58.4192 379.712 57.3235 380.404C56.2278 381.096 54.9784 381.442 53.5752 381.442ZM68.6115 381.442C67.2082 381.442 65.9588 381.125 64.8631 380.491C63.7867 379.837 62.9409 378.943 62.3258 377.809C61.7107 376.675 61.4031 375.368 61.4031 373.888C61.4031 372.408 61.7011 371.101 62.2969 369.966C62.9121 368.832 63.7578 367.948 64.8343 367.314C65.93 366.66 67.1698 366.333 68.5538 366.333C69.9763 366.333 71.2257 366.66 72.3022 367.314C73.3978 367.948 74.2436 368.832 74.8395 369.966C75.4546 371.101 75.7622 372.408 75.7622 373.888C75.7622 375.368 75.4546 376.675 74.8395 377.809C74.2436 378.943 73.4074 379.837 72.331 380.491C71.2545 381.125 70.0147 381.442 68.6115 381.442ZM68.6115 379.309C69.5726 379.309 70.4088 379.078 71.12 378.617C71.8312 378.155 72.3887 377.521 72.7923 376.714C73.2152 375.906 73.4267 374.964 73.4267 373.888C73.4267 372.811 73.2152 371.869 72.7923 371.062C72.3887 370.255 71.8216 369.62 71.0911 369.159C70.3607 368.698 69.5149 368.467 68.5538 368.467C67.6119 368.467 66.7757 368.698 66.0453 369.159C65.3341 369.62 64.767 370.255 64.3441 371.062C63.9405 371.869 63.7386 372.811 63.7386 373.888C63.7386 374.945 63.9405 375.887 64.3441 376.714C64.767 377.521 65.3437 378.155 66.0741 378.617C66.8238 379.078 67.6696 379.309 68.6115 379.309ZM78.4596 381.096V366.679H80.6221L80.7374 368.842C81.218 368.035 81.8427 367.42 82.6116 366.997C83.3805 366.555 84.2743 366.333 85.2931 366.333C86.4272 366.333 87.4076 366.564 88.2341 367.025C89.0799 367.468 89.7335 368.179 90.1948 369.159C90.6753 370.139 90.906 371.427 90.8868 373.023V381.096H88.5801V373.715C88.5801 372.292 88.4167 371.206 88.0899 370.457C87.7632 369.707 87.3114 369.198 86.7348 368.928C86.1581 368.64 85.5045 368.496 84.7741 368.496C83.5054 368.496 82.5155 368.948 81.8043 369.851C81.1122 370.735 80.7662 371.994 80.7662 373.628V381.096H78.4596ZM98.0743 381.096L92.0481 366.679H94.4413L99.2853 378.415L104.101 366.679H106.523L100.496 381.096H98.0743ZM114.258 381.442C112.855 381.442 111.615 381.125 110.539 380.491C109.462 379.837 108.616 378.943 108.001 377.809C107.405 376.675 107.107 375.368 107.107 373.888C107.107 372.408 107.405 371.101 108.001 369.966C108.616 368.832 109.453 367.948 110.51 367.314C111.586 366.66 112.816 366.333 114.2 366.333C115.546 366.333 116.709 366.67 117.689 367.343C118.67 367.996 119.429 368.919 119.967 370.111C120.505 371.302 120.774 372.706 120.774 374.32H109.443C109.539 375.897 110.039 377.127 110.942 378.011C111.846 378.895 112.989 379.337 114.373 379.337C115.392 379.337 116.248 379.097 116.94 378.617C117.651 378.136 118.199 377.502 118.583 376.714L120.573 377.723C120.207 378.472 119.717 379.126 119.102 379.683C118.506 380.241 117.795 380.673 116.968 380.981C116.161 381.288 115.258 381.442 114.258 381.442ZM109.616 372.388H118.295C118.237 371.562 118.016 370.851 117.632 370.255C117.266 369.659 116.786 369.198 116.19 368.871C115.594 368.544 114.921 368.381 114.172 368.381C113.441 368.381 112.74 368.544 112.067 368.871C111.394 369.178 110.837 369.64 110.394 370.255C109.952 370.851 109.693 371.562 109.616 372.388ZM123.178 381.096V366.679H125.485V369.246C126.062 368.342 126.802 367.679 127.705 367.256C128.628 366.833 129.589 366.622 130.589 366.622V368.784C129.743 368.784 128.926 368.928 128.138 369.217C127.369 369.486 126.735 369.938 126.235 370.572C125.735 371.206 125.485 372.071 125.485 373.167V381.096H123.178ZM137.461 381.442C136.404 381.442 135.482 381.288 134.693 380.981C133.905 380.654 133.242 380.231 132.704 379.712C132.185 379.193 131.81 378.626 131.579 378.011L133.598 377.175C133.925 377.828 134.415 378.357 135.068 378.761C135.722 379.164 136.443 379.366 137.231 379.366C138.134 379.366 138.893 379.193 139.509 378.847C140.124 378.482 140.431 377.973 140.431 377.319C140.431 376.723 140.201 376.243 139.739 375.877C139.297 375.512 138.634 375.214 137.75 374.983L136.366 374.609C135.059 374.263 134.04 373.744 133.309 373.052C132.579 372.34 132.214 371.543 132.214 370.658C132.214 369.294 132.656 368.236 133.54 367.487C134.444 366.718 135.779 366.333 137.548 366.333C138.394 366.333 139.163 366.458 139.855 366.708C140.547 366.958 141.142 367.314 141.642 367.775C142.142 368.217 142.507 368.746 142.738 369.361L140.72 370.255C140.47 369.601 140.056 369.13 139.48 368.842C138.903 368.554 138.201 368.409 137.375 368.409C136.491 368.409 135.799 368.602 135.299 368.986C134.799 369.351 134.549 369.87 134.549 370.543C134.549 370.928 134.751 371.293 135.155 371.639C135.578 371.966 136.193 372.235 137 372.446L138.442 372.821C139.384 373.052 140.172 373.398 140.806 373.859C141.44 374.301 141.921 374.81 142.248 375.387C142.575 375.964 142.738 376.579 142.738 377.233C142.738 378.098 142.507 378.847 142.046 379.482C141.585 380.116 140.96 380.606 140.172 380.952C139.384 381.279 138.48 381.442 137.461 381.442ZM149.897 381.442C148.206 381.442 146.879 381.058 145.918 380.289C144.976 379.501 144.505 378.415 144.505 377.031C144.505 375.57 144.986 374.455 145.947 373.686C146.927 372.898 148.292 372.504 150.041 372.504H154.049C153.953 371.139 153.617 370.12 153.04 369.447C152.463 368.755 151.598 368.409 150.445 368.409C149.657 368.409 148.974 368.573 148.398 368.9C147.84 369.207 147.379 369.707 147.014 370.399L144.938 369.592C145.303 368.919 145.745 368.342 146.264 367.862C146.783 367.362 147.389 366.987 148.081 366.737C148.773 366.468 149.561 366.333 150.445 366.333C151.79 366.333 152.896 366.603 153.761 367.141C154.645 367.66 155.308 368.438 155.75 369.476C156.192 370.495 156.404 371.764 156.385 373.282L156.356 381.096H154.222L154.107 379.164C153.684 379.895 153.117 380.462 152.406 380.866C151.694 381.25 150.858 381.442 149.897 381.442ZM150.012 379.424C150.839 379.424 151.56 379.251 152.175 378.905C152.79 378.54 153.261 378.03 153.588 377.377C153.934 376.723 154.107 375.935 154.107 375.012V374.436H150.56C149.215 374.436 148.254 374.657 147.677 375.099C147.119 375.541 146.841 376.175 146.841 377.002C146.841 377.752 147.119 378.347 147.677 378.79C148.234 379.212 149.013 379.424 150.012 379.424ZM164.955 381.442C163.552 381.442 162.466 381.077 161.697 380.347C160.928 379.616 160.544 378.588 160.544 377.261V368.727H158.035V366.679H160.544V362.181H162.85V366.679H167.175V368.727H162.85V377.031C162.85 377.761 163.042 378.328 163.427 378.732C163.831 379.116 164.388 379.309 165.099 379.309C165.33 379.309 165.551 379.28 165.762 379.222C165.993 379.145 166.291 378.972 166.656 378.703L167.55 380.577C167.05 380.904 166.599 381.125 166.195 381.24C165.791 381.375 165.378 381.442 164.955 381.442ZM170.07 381.096V366.679H172.377V381.096H170.07ZM171.252 363.335C170.868 363.335 170.532 363.191 170.243 362.902C169.955 362.614 169.811 362.278 169.811 361.893C169.811 361.489 169.955 361.153 170.243 360.884C170.532 360.596 170.868 360.451 171.252 360.451C171.656 360.451 171.992 360.596 172.262 360.884C172.55 361.153 172.694 361.489 172.694 361.893C172.694 362.278 172.55 362.614 172.262 362.902C171.992 363.191 171.656 363.335 171.252 363.335ZM182.494 381.442C181.091 381.442 179.842 381.125 178.746 380.491C177.67 379.837 176.824 378.943 176.209 377.809C175.594 376.675 175.286 375.368 175.286 373.888C175.286 372.408 175.584 371.101 176.18 369.966C176.795 368.832 177.641 367.948 178.717 367.314C179.813 366.66 181.053 366.333 182.437 366.333C183.859 366.333 185.109 366.66 186.185 367.314C187.281 367.948 188.126 368.832 188.722 369.966C189.337 371.101 189.645 372.408 189.645 373.888C189.645 375.368 189.337 376.675 188.722 377.809C188.126 378.943 187.29 379.837 186.214 380.491C185.137 381.125 183.898 381.442 182.494 381.442ZM182.494 379.309C183.455 379.309 184.292 379.078 185.003 378.617C185.714 378.155 186.272 377.521 186.675 376.714C187.098 375.906 187.31 374.964 187.31 373.888C187.31 372.811 187.098 371.869 186.675 371.062C186.272 370.255 185.704 369.62 184.974 369.159C184.244 368.698 183.398 368.467 182.437 368.467C181.495 368.467 180.659 368.698 179.928 369.159C179.217 369.62 178.65 370.255 178.227 371.062C177.823 371.869 177.622 372.811 177.622 373.888C177.622 374.945 177.823 375.887 178.227 376.714C178.65 377.521 179.227 378.155 179.957 378.617C180.707 379.078 181.552 379.309 182.494 379.309ZM192.342 381.096V366.679H194.505L194.62 368.842C195.101 368.035 195.726 367.42 196.494 366.997C197.263 366.555 198.157 366.333 199.176 366.333C200.31 366.333 201.29 366.564 202.117 367.025C202.963 367.468 203.616 368.179 204.078 369.159C204.558 370.139 204.789 371.427 204.77 373.023V381.096H202.463V373.715C202.463 372.292 202.3 371.206 201.973 370.457C201.646 369.707 201.194 369.198 200.618 368.928C200.041 368.64 199.387 368.496 198.657 368.496C197.388 368.496 196.398 368.948 195.687 369.851C194.995 370.735 194.649 371.994 194.649 373.628V381.096H192.342ZM207.915 381.096V366.679H210.078L210.193 368.842C210.674 368.035 211.298 367.42 212.067 366.997C212.836 366.555 213.73 366.333 214.749 366.333C215.883 366.333 216.863 366.564 217.69 367.025C218.535 367.468 219.189 368.179 219.65 369.159C220.131 370.139 220.362 371.427 220.342 373.023V381.096H218.036V373.715C218.036 372.292 217.872 371.206 217.546 370.457C217.219 369.707 216.767 369.198 216.19 368.928C215.614 368.64 214.96 368.496 214.23 368.496C212.961 368.496 211.971 368.948 211.26 369.851C210.568 370.735 210.222 371.994 210.222 373.628V381.096H207.915ZM229.802 381.442C228.399 381.442 227.159 381.125 226.083 380.491C225.006 379.837 224.161 378.943 223.545 377.809C222.95 376.675 222.652 375.368 222.652 373.888C222.652 372.408 222.95 371.101 223.545 369.966C224.161 368.832 224.997 367.948 226.054 367.314C227.13 366.66 228.361 366.333 229.745 366.333C231.09 366.333 232.253 366.67 233.234 367.343C234.214 367.996 234.973 368.919 235.511 370.111C236.05 371.302 236.319 372.706 236.319 374.32H224.987C225.083 375.897 225.583 377.127 226.486 378.011C227.39 378.895 228.534 379.337 229.918 379.337C230.936 379.337 231.792 379.097 232.484 378.617C233.195 378.136 233.743 377.502 234.127 376.714L236.117 377.723C235.752 378.472 235.261 379.126 234.646 379.683C234.05 380.241 233.339 380.673 232.513 380.981C231.705 381.288 230.802 381.442 229.802 381.442ZM225.16 372.388H233.839C233.781 371.562 233.56 370.851 233.176 370.255C232.811 369.659 232.33 369.198 231.734 368.871C231.138 368.544 230.465 368.381 229.716 368.381C228.985 368.381 228.284 368.544 227.611 368.871C226.938 369.178 226.381 369.64 225.939 370.255C225.497 370.851 225.237 371.562 225.16 372.388ZM238.723 381.096V360.913H241.029V381.096H238.723ZM53.5752 416.442C52.1527 416.442 50.8936 416.125 49.798 415.491C48.7023 414.837 47.8469 413.943 47.2318 412.809C46.6167 411.675 46.3091 410.368 46.3091 408.888C46.3091 407.408 46.6071 406.101 47.203 404.966C47.8181 403.832 48.6735 402.948 49.7691 402.314C50.8648 401.66 52.1143 401.333 53.5175 401.333C54.9015 401.333 56.1413 401.651 57.237 402.285C58.3327 402.919 59.1688 403.813 59.7455 404.966L57.6407 405.918C57.2562 405.149 56.6988 404.553 55.9683 404.13C55.2379 403.688 54.4017 403.467 53.4598 403.467C52.5179 403.467 51.6818 403.698 50.9513 404.159C50.2401 404.62 49.673 405.264 49.2501 406.091C48.8465 406.898 48.6446 407.831 48.6446 408.888C48.6446 409.945 48.8465 410.887 49.2501 411.714C49.673 412.521 50.2497 413.155 50.9801 413.617C51.7298 414.078 52.5756 414.309 53.5175 414.309C54.4594 414.309 55.2956 414.068 56.026 413.588C56.7757 413.107 57.3427 412.434 57.7272 411.569L59.832 412.521C59.2553 413.751 58.4192 414.712 57.3235 415.404C56.2278 416.096 54.9784 416.442 53.5752 416.442ZM68.6115 416.442C67.2082 416.442 65.9588 416.125 64.8631 415.491C63.7867 414.837 62.9409 413.943 62.3258 412.809C61.7107 411.675 61.4031 410.368 61.4031 408.888C61.4031 407.408 61.7011 406.101 62.2969 404.966C62.9121 403.832 63.7578 402.948 64.8343 402.314C65.93 401.66 67.1698 401.333 68.5538 401.333C69.9763 401.333 71.2257 401.66 72.3022 402.314C73.3978 402.948 74.2436 403.832 74.8395 404.966C75.4546 406.101 75.7622 407.408 75.7622 408.888C75.7622 410.368 75.4546 411.675 74.8395 412.809C74.2436 413.943 73.4074 414.837 72.331 415.491C71.2545 416.125 70.0147 416.442 68.6115 416.442ZM68.6115 414.309C69.5726 414.309 70.4088 414.078 71.12 413.617C71.8312 413.155 72.3887 412.521 72.7923 411.714C73.2152 410.906 73.4267 409.964 73.4267 408.888C73.4267 407.811 73.2152 406.869 72.7923 406.062C72.3887 405.255 71.8216 404.62 71.0911 404.159C70.3607 403.698 69.5149 403.467 68.5538 403.467C67.6119 403.467 66.7757 403.698 66.0453 404.159C65.3341 404.62 64.767 405.255 64.3441 406.062C63.9405 406.869 63.7386 407.811 63.7386 408.888C63.7386 409.945 63.9405 410.887 64.3441 411.714C64.767 412.521 65.3437 413.155 66.0741 413.617C66.8238 414.078 67.6696 414.309 68.6115 414.309ZM78.4596 416.096V401.679H80.6221L80.7374 403.842C81.218 403.035 81.8427 402.42 82.6116 401.997C83.3805 401.555 84.2743 401.333 85.2931 401.333C86.4272 401.333 87.4076 401.564 88.2341 402.025C89.0799 402.468 89.7335 403.179 90.1948 404.159C90.6753 405.139 90.906 406.427 90.8868 408.023V416.096H88.5801V408.715C88.5801 407.292 88.4167 406.206 88.0899 405.457C87.7632 404.707 87.3114 404.198 86.7348 403.928C86.1581 403.64 85.5045 403.496 84.7741 403.496C83.5054 403.496 82.5155 403.948 81.8043 404.851C81.1122 405.735 80.7662 406.994 80.7662 408.628V416.096H78.4596ZM99.0781 416.442C98.0209 416.442 97.0982 416.288 96.3101 415.981C95.522 415.654 94.8588 415.231 94.3206 414.712C93.8016 414.193 93.4267 413.626 93.1961 413.011L95.2144 412.175C95.5412 412.828 96.0314 413.357 96.6849 413.761C97.3385 414.164 98.0593 414.366 98.8474 414.366C99.7509 414.366 100.51 414.193 101.125 413.847C101.74 413.482 102.048 412.973 102.048 412.319C102.048 411.723 101.817 411.243 101.356 410.877C100.914 410.512 100.251 410.214 99.3664 409.983L97.9824 409.609C96.6753 409.263 95.6565 408.744 94.9261 408.052C94.1956 407.34 93.8304 406.543 93.8304 405.658C93.8304 404.294 94.2725 403.236 95.1567 402.487C96.0602 401.718 97.3961 401.333 99.1646 401.333C100.01 401.333 100.779 401.458 101.471 401.708C102.163 401.958 102.759 402.314 103.259 402.775C103.759 403.217 104.124 403.746 104.355 404.361L102.336 405.255C102.086 404.601 101.673 404.13 101.096 403.842C100.52 403.554 99.8182 403.409 98.9916 403.409C98.1074 403.409 97.4154 403.602 96.9156 403.986C96.4158 404.351 96.1659 404.87 96.1659 405.543C96.1659 405.928 96.3677 406.293 96.7714 406.639C97.1943 406.966 97.8094 407.235 98.6168 407.446L100.058 407.821C101 408.052 101.788 408.398 102.423 408.859C103.057 409.301 103.538 409.81 103.864 410.387C104.191 410.964 104.355 411.579 104.355 412.233C104.355 413.098 104.124 413.847 103.663 414.482C103.201 415.116 102.577 415.606 101.788 415.952C101 416.279 100.097 416.442 99.0781 416.442ZM113.33 416.442C111.927 416.442 110.678 416.125 109.582 415.491C108.505 414.837 107.66 413.943 107.045 412.809C106.429 411.675 106.122 410.368 106.122 408.888C106.122 407.408 106.42 406.101 107.016 404.966C107.631 403.832 108.477 402.948 109.553 402.314C110.649 401.66 111.889 401.333 113.273 401.333C114.695 401.333 115.945 401.66 117.021 402.314C118.117 402.948 118.962 403.832 119.558 404.966C120.173 406.101 120.481 407.408 120.481 408.888C120.481 410.368 120.173 411.675 119.558 412.809C118.962 413.943 118.126 414.837 117.05 415.491C115.973 416.125 114.734 416.442 113.33 416.442ZM113.33 414.309C114.291 414.309 115.128 414.078 115.839 413.617C116.55 413.155 117.107 412.521 117.511 411.714C117.934 410.906 118.145 409.964 118.145 408.888C118.145 407.811 117.934 406.869 117.511 406.062C117.107 405.255 116.54 404.62 115.81 404.159C115.08 403.698 114.234 403.467 113.273 403.467C112.331 403.467 111.495 403.698 110.764 404.159C110.053 404.62 109.486 405.255 109.063 406.062C108.659 406.869 108.457 407.811 108.457 408.888C108.457 409.945 108.659 410.887 109.063 411.714C109.486 412.521 110.062 413.155 110.793 413.617C111.543 414.078 112.388 414.309 113.33 414.309ZM123.178 416.096V401.679H125.341L125.456 403.698C125.898 402.929 126.465 402.343 127.157 401.939C127.849 401.535 128.657 401.333 129.579 401.333C130.733 401.333 131.713 401.603 132.52 402.141C133.347 402.679 133.943 403.496 134.308 404.592C134.712 403.534 135.298 402.727 136.067 402.17C136.855 401.612 137.787 401.333 138.864 401.333C140.478 401.333 141.747 401.872 142.67 402.948C143.612 404.025 144.073 405.658 144.054 407.85V416.096H141.747V408.715C141.747 407.292 141.593 406.206 141.286 405.457C140.997 404.707 140.603 404.198 140.104 403.928C139.604 403.64 139.027 403.496 138.374 403.496C137.239 403.496 136.355 403.948 135.721 404.851C135.087 405.735 134.769 406.994 134.769 408.628V416.096H132.463V408.715C132.463 407.292 132.309 406.206 132.001 405.457C131.713 404.707 131.309 404.198 130.79 403.928C130.291 403.64 129.714 403.496 129.06 403.496C127.946 403.496 127.071 403.948 126.437 404.851C125.802 405.735 125.485 406.994 125.485 408.628V416.096H123.178ZM147.198 416.096V401.679H149.361L149.476 403.698C149.918 402.929 150.485 402.343 151.177 401.939C151.869 401.535 152.677 401.333 153.599 401.333C154.753 401.333 155.733 401.603 156.54 402.141C157.367 402.679 157.963 403.496 158.328 404.592C158.732 403.534 159.318 402.727 160.087 402.17C160.875 401.612 161.807 401.333 162.884 401.333C164.498 401.333 165.767 401.872 166.69 402.948C167.632 404.025 168.093 405.658 168.074 407.85V416.096H165.767V408.715C165.767 407.292 165.613 406.206 165.306 405.457C165.017 404.707 164.623 404.198 164.124 403.928C163.624 403.64 163.047 403.496 162.394 403.496C161.259 403.496 160.375 403.948 159.741 404.851C159.107 405.735 158.789 406.994 158.789 408.628V416.096H156.483V408.715C156.483 407.292 156.329 406.206 156.021 405.457C155.733 404.707 155.329 404.198 154.81 403.928C154.311 403.64 153.734 403.496 153.08 403.496C151.965 403.496 151.091 403.948 150.457 404.851C149.822 405.735 149.505 406.994 149.505 408.628V416.096H147.198ZM177.533 416.442C176.13 416.442 174.89 416.125 173.813 415.491C172.737 414.837 171.891 413.943 171.276 412.809C170.68 411.675 170.382 410.368 170.382 408.888C170.382 407.408 170.68 406.101 171.276 404.966C171.891 403.832 172.727 402.948 173.784 402.314C174.861 401.66 176.091 401.333 177.475 401.333C178.821 401.333 179.984 401.67 180.964 402.343C181.944 402.996 182.704 403.919 183.242 405.111C183.78 406.302 184.049 407.706 184.049 409.32H172.718C172.814 410.897 173.314 412.127 174.217 413.011C175.12 413.895 176.264 414.337 177.648 414.337C178.667 414.337 179.522 414.097 180.214 413.617C180.926 413.136 181.473 412.502 181.858 411.714L183.847 412.723C183.482 413.472 182.992 414.126 182.377 414.683C181.781 415.241 181.07 415.673 180.243 415.981C179.436 416.288 178.532 416.442 177.533 416.442ZM172.891 407.388H181.57C181.512 406.562 181.291 405.851 180.906 405.255C180.541 404.659 180.061 404.198 179.465 403.871C178.869 403.544 178.196 403.381 177.446 403.381C176.716 403.381 176.014 403.544 175.341 403.871C174.669 404.178 174.111 404.64 173.669 405.255C173.227 405.851 172.968 406.562 172.891 407.388ZM199.386 416.442C197.983 416.442 196.743 416.125 195.667 415.491C194.59 414.837 193.744 413.943 193.129 412.809C192.533 411.675 192.235 410.368 192.235 408.888C192.235 407.408 192.533 406.101 193.129 404.966C193.744 403.832 194.581 402.948 195.638 402.314C196.714 401.66 197.944 401.333 199.328 401.333C200.674 401.333 201.837 401.67 202.817 402.343C203.798 402.996 204.557 403.919 205.095 405.111C205.633 406.302 205.902 407.706 205.902 409.32H194.571C194.667 410.897 195.167 412.127 196.07 413.011C196.974 413.895 198.117 414.337 199.501 414.337C200.52 414.337 201.376 414.097 202.068 413.617C202.779 413.136 203.327 412.502 203.711 411.714L205.701 412.723C205.335 413.472 204.845 414.126 204.23 414.683C203.634 415.241 202.923 415.673 202.096 415.981C201.289 416.288 200.386 416.442 199.386 416.442ZM194.744 407.388H203.423C203.365 406.562 203.144 405.851 202.76 405.255C202.394 404.659 201.914 404.198 201.318 403.871C200.722 403.544 200.049 403.381 199.3 403.381C198.569 403.381 197.868 403.544 197.195 403.871C196.522 404.178 195.965 404.64 195.522 405.255C195.08 405.851 194.821 406.562 194.744 407.388ZM208.306 416.096V401.679H210.469L210.584 403.842C211.065 403.035 211.69 402.42 212.458 401.997C213.227 401.555 214.121 401.333 215.14 401.333C216.274 401.333 217.254 401.564 218.081 402.025C218.927 402.468 219.58 403.179 220.042 404.159C220.522 405.139 220.753 406.427 220.734 408.023V416.096H218.427V408.715C218.427 407.292 218.264 406.206 217.937 405.457C217.61 404.707 217.158 404.198 216.582 403.928C216.005 403.64 215.351 403.496 214.621 403.496C213.352 403.496 212.362 403.948 211.651 404.851C210.959 405.735 210.613 406.994 210.613 408.628V416.096H208.306ZM227.921 416.096L221.895 401.679H224.288L229.132 413.415L233.947 401.679H236.369L230.343 416.096H227.921ZM238.272 416.096V401.679H240.579V416.096H238.272ZM239.455 398.335C239.07 398.335 238.734 398.191 238.445 397.902C238.157 397.614 238.013 397.278 238.013 396.893C238.013 396.489 238.157 396.153 238.445 395.884C238.734 395.596 239.07 395.451 239.455 395.451C239.858 395.451 240.195 395.596 240.464 395.884C240.752 396.153 240.896 396.489 240.896 396.893C240.896 397.278 240.752 397.614 240.464 397.902C240.195 398.191 239.858 398.335 239.455 398.335ZM244.324 416.096V401.679H246.631V404.246C247.208 403.342 247.948 402.679 248.851 402.256C249.774 401.833 250.735 401.622 251.735 401.622V403.784C250.889 403.784 250.072 403.928 249.284 404.217C248.515 404.486 247.881 404.938 247.381 405.572C246.881 406.206 246.631 407.071 246.631 408.167V416.096H244.324ZM259.934 416.442C258.531 416.442 257.281 416.125 256.186 415.491C255.109 414.837 254.263 413.943 253.648 412.809C253.033 411.675 252.725 410.368 252.725 408.888C252.725 407.408 253.023 406.101 253.619 404.966C254.234 403.832 255.08 402.948 256.157 402.314C257.252 401.66 258.492 401.333 259.876 401.333C261.299 401.333 262.548 401.66 263.625 402.314C264.72 402.948 265.566 403.832 266.162 404.966C266.777 406.101 267.085 407.408 267.085 408.888C267.085 410.368 266.777 411.675 266.162 412.809C265.566 413.943 264.73 414.837 263.653 415.491C262.577 416.125 261.337 416.442 259.934 416.442ZM259.934 414.309C260.895 414.309 261.731 414.078 262.442 413.617C263.154 413.155 263.711 412.521 264.115 411.714C264.538 410.906 264.749 409.964 264.749 408.888C264.749 407.811 264.538 406.869 264.115 406.062C263.711 405.255 263.144 404.62 262.414 404.159C261.683 403.698 260.837 403.467 259.876 403.467C258.934 403.467 258.098 403.698 257.368 404.159C256.656 404.62 256.089 405.255 255.667 406.062C255.263 406.869 255.061 407.811 255.061 408.888C255.061 409.945 255.263 410.887 255.667 411.714C256.089 412.521 256.666 413.155 257.397 413.617C258.146 414.078 258.992 414.309 259.934 414.309ZM269.782 416.096V401.679H271.944L272.06 403.842C272.54 403.035 273.165 402.42 273.934 401.997C274.703 401.555 275.597 401.333 276.615 401.333C277.75 401.333 278.73 401.564 279.556 402.025C280.402 402.468 281.056 403.179 281.517 404.159C281.998 405.139 282.228 406.427 282.209 408.023V416.096H279.902V408.715C279.902 407.292 279.739 406.206 279.412 405.457C279.086 404.707 278.634 404.198 278.057 403.928C277.48 403.64 276.827 403.496 276.096 403.496C274.828 403.496 273.838 403.948 273.127 404.851C272.435 405.735 272.089 406.994 272.089 408.628V416.096H269.782ZM51.9028 451.442C50.7495 451.442 49.7691 451.212 48.9618 450.75C48.1737 450.289 47.5682 449.578 47.1453 448.617C46.7224 447.636 46.511 446.377 46.511 444.839V436.679H50.317V444.061C50.317 445.022 50.4227 445.781 50.6341 446.339C50.8648 446.877 51.182 447.271 51.5856 447.521C52.0085 447.752 52.4795 447.867 52.9985 447.867C53.998 447.886 54.7573 447.588 55.2763 446.973C55.7953 446.339 56.0548 445.426 56.0548 444.234V436.679H59.8608V451.096H56.2855L56.1413 449.136C55.6608 449.866 55.0553 450.433 54.3248 450.837C53.6136 451.24 52.8063 451.442 51.9028 451.442ZM62.6529 451.096V436.679H66.2282L66.4012 438.64C66.8625 437.89 67.4488 437.323 68.16 436.939C68.8905 436.535 69.7171 436.333 70.6397 436.333C71.7738 436.333 72.7446 436.564 73.5519 437.025C74.3592 437.487 74.9744 438.208 75.3972 439.188C75.8201 440.149 76.022 441.399 76.0027 442.936V451.096H72.1967V443.715C72.1967 442.734 72.0814 441.975 71.8507 441.437C71.6393 440.899 71.3317 440.514 70.9281 440.284C70.5244 440.034 70.0534 439.909 69.5152 439.909C68.5349 439.89 67.7756 440.188 67.2374 440.803C66.7184 441.418 66.4589 442.331 66.4589 443.542V451.096H62.6529ZM90.6382 451.442C89.3119 451.442 88.1585 451.135 87.1782 450.52C86.2171 449.904 85.4674 449.03 84.9292 447.896C84.391 446.762 84.1219 445.426 84.1219 443.888C84.1219 442.331 84.391 440.995 84.9292 439.88C85.4674 438.746 86.2171 437.871 87.1782 437.256C88.1585 436.641 89.3119 436.333 90.6382 436.333C91.5801 436.333 92.4163 436.535 93.1467 436.939C93.8964 437.323 94.5019 437.881 94.9632 438.611V430.913H98.7693V451.096H95.1651L95.0497 449.078C94.5692 449.828 93.9541 450.414 93.2044 450.837C92.4547 451.24 91.5993 451.442 90.6382 451.442ZM91.6186 447.953C92.2529 447.953 92.8103 447.8 93.2909 447.492C93.7907 447.165 94.1847 446.714 94.4731 446.137C94.7614 445.56 94.9248 444.907 94.9632 444.176V443.599C94.9248 442.869 94.7614 442.225 94.4731 441.668C94.1847 441.091 93.7907 440.649 93.2909 440.341C92.7911 440.015 92.2241 439.851 91.5897 439.851C90.8977 439.851 90.2826 440.024 89.7444 440.37C89.2254 440.697 88.8121 441.168 88.5046 441.783C88.2162 442.398 88.072 443.1 88.072 443.888C88.072 444.676 88.2258 445.378 88.5334 445.993C88.8409 446.608 89.2542 447.088 89.7732 447.434C90.3114 447.78 90.9266 447.953 91.6186 447.953ZM108.059 451.442C106.637 451.442 105.378 451.125 104.282 450.491C103.187 449.837 102.322 448.943 101.687 447.809C101.072 446.675 100.765 445.368 100.765 443.888C100.765 442.408 101.082 441.101 101.716 439.966C102.37 438.832 103.254 437.948 104.369 437.314C105.503 436.66 106.8 436.333 108.261 436.333C109.53 436.333 110.693 436.67 111.75 437.343C112.827 437.996 113.682 438.967 114.316 440.255C114.97 441.523 115.297 443.071 115.297 444.897H104.744C104.84 445.858 105.253 446.627 105.983 447.204C106.714 447.761 107.54 448.04 108.463 448.04C109.251 448.04 109.895 447.876 110.395 447.55C110.895 447.204 111.279 446.762 111.548 446.223L114.951 447.55C114.547 448.357 114.018 449.059 113.365 449.655C112.73 450.231 111.971 450.673 111.087 450.981C110.203 451.288 109.193 451.442 108.059 451.442ZM104.945 442.071H111.173C111.116 441.475 110.924 440.995 110.597 440.63C110.27 440.264 109.886 439.995 109.443 439.822C109.001 439.649 108.569 439.563 108.146 439.563C107.742 439.563 107.3 439.649 106.82 439.822C106.358 439.976 105.945 440.236 105.58 440.601C105.234 440.966 105.022 441.456 104.945 442.071ZM117.003 451.096V436.679H120.578L120.751 438.554C121.194 437.823 121.761 437.275 122.453 436.91C123.145 436.526 123.913 436.333 124.759 436.333C125.932 436.333 126.912 436.583 127.7 437.083C128.508 437.583 129.094 438.352 129.459 439.39C129.882 438.409 130.478 437.66 131.247 437.141C132.016 436.603 132.91 436.333 133.928 436.333C135.62 436.333 136.908 436.872 137.792 437.948C138.676 439.005 139.118 440.639 139.118 442.85V451.096H135.312V443.715C135.312 442.734 135.207 441.975 134.995 441.437C134.784 440.899 134.495 440.514 134.13 440.284C133.765 440.034 133.332 439.909 132.833 439.909C131.91 439.89 131.199 440.188 130.699 440.803C130.199 441.418 129.949 442.331 129.949 443.542V451.096H126.143V443.715C126.143 442.734 126.038 441.975 125.826 441.437C125.634 440.899 125.346 440.514 124.961 440.284C124.596 440.034 124.163 439.909 123.664 439.909C122.741 439.89 122.03 440.188 121.53 440.803C121.049 441.418 120.809 442.331 120.809 443.542V451.096H117.003ZM141.873 451.096V436.679H145.679V451.096H141.873ZM143.776 434.344C143.199 434.344 142.69 434.133 142.248 433.71C141.806 433.268 141.585 432.749 141.585 432.153C141.585 431.557 141.806 431.047 142.248 430.624C142.69 430.182 143.199 429.961 143.776 429.961C144.372 429.961 144.881 430.182 145.304 430.624C145.746 431.047 145.968 431.557 145.968 432.153C145.968 432.749 145.746 433.268 145.304 433.71C144.881 434.133 144.372 434.344 143.776 434.344ZM148.597 444.147V440.889H157.247V444.147H148.597ZM159.948 451.096V430.913H163.754V451.096H159.948ZM166.769 451.096V436.679H170.575V451.096H166.769ZM168.672 434.344C168.095 434.344 167.586 434.133 167.144 433.71C166.702 433.268 166.481 432.749 166.481 432.153C166.481 431.557 166.702 431.047 167.144 430.624C167.586 430.182 168.095 429.961 168.672 429.961C169.268 429.961 169.777 430.182 170.2 430.624C170.642 431.047 170.863 431.557 170.863 432.153C170.863 432.749 170.642 433.268 170.2 433.71C169.777 434.133 169.268 434.344 168.672 434.344ZM179.519 451.442C177.923 451.442 176.712 451.048 175.886 450.26C175.079 449.472 174.675 448.347 174.675 446.887V439.909H172.339V436.679H174.675V432.181H178.481V436.679H182.085V439.909H178.481V446.05C178.481 446.665 178.615 447.136 178.885 447.463C179.154 447.771 179.548 447.925 180.067 447.925C180.259 447.925 180.47 447.886 180.701 447.809C180.932 447.713 181.172 447.579 181.422 447.406L182.748 450.26C182.287 450.606 181.768 450.885 181.191 451.096C180.634 451.327 180.076 451.442 179.519 451.442ZM184.675 451.096V436.679H188.481V439.332C189.077 438.429 189.826 437.756 190.73 437.314C191.652 436.852 192.604 436.622 193.584 436.622V440.312C192.7 440.312 191.864 440.418 191.076 440.63C190.307 440.841 189.682 441.187 189.202 441.668C188.721 442.148 188.481 442.763 188.481 443.513V451.096H184.675ZM201.611 451.442C200.189 451.442 198.929 451.125 197.834 450.491C196.738 449.837 195.873 448.943 195.239 447.809C194.624 446.675 194.316 445.368 194.316 443.888C194.316 442.408 194.633 441.101 195.268 439.966C195.921 438.832 196.805 437.948 197.92 437.314C199.054 436.66 200.352 436.333 201.813 436.333C203.081 436.333 204.244 436.67 205.302 437.343C206.378 437.996 207.233 438.967 207.868 440.255C208.521 441.523 208.848 443.071 208.848 444.897H198.295C198.391 445.858 198.805 446.627 199.535 447.204C200.265 447.761 201.092 448.04 202.015 448.04C202.803 448.04 203.447 447.876 203.946 447.55C204.446 447.204 204.831 446.762 205.1 446.223L208.502 447.55C208.098 448.357 207.57 449.059 206.916 449.655C206.282 450.231 205.523 450.673 204.638 450.981C203.754 451.288 202.745 451.442 201.611 451.442ZM198.497 442.071H204.725C204.667 441.475 204.475 440.995 204.148 440.63C203.822 440.264 203.437 439.995 202.995 439.822C202.553 439.649 202.12 439.563 201.697 439.563C201.294 439.563 200.852 439.649 200.371 439.822C199.91 439.976 199.497 440.236 199.131 440.601C198.785 440.966 198.574 441.456 198.497 442.071ZM222.658 451.442C221.331 451.442 220.178 451.135 219.198 450.52C218.236 449.904 217.487 449.03 216.949 447.896C216.41 446.762 216.141 445.426 216.141 443.888C216.141 442.331 216.41 440.995 216.949 439.88C217.487 438.746 218.236 437.871 219.198 437.256C220.178 436.641 221.331 436.333 222.658 436.333C223.599 436.333 224.436 436.535 225.166 436.939C225.916 437.323 226.521 437.881 226.983 438.611V430.913H230.789V451.096H227.184L227.069 449.078C226.589 449.828 225.973 450.414 225.224 450.837C224.474 451.24 223.619 451.442 222.658 451.442ZM223.638 447.953C224.272 447.953 224.83 447.8 225.31 447.492C225.81 447.165 226.204 446.714 226.492 446.137C226.781 445.56 226.944 444.907 226.983 444.176V443.599C226.944 442.869 226.781 442.225 226.492 441.668C226.204 441.091 225.81 440.649 225.31 440.341C224.81 440.015 224.243 439.851 223.609 439.851C222.917 439.851 222.302 440.024 221.764 440.37C221.245 440.697 220.831 441.168 220.524 441.783C220.236 442.398 220.091 443.1 220.091 443.888C220.091 444.676 220.245 445.378 220.553 445.993C220.86 446.608 221.274 447.088 221.793 447.434C222.331 447.78 222.946 447.953 223.638 447.953ZM232.294 437.717L234.053 430.913H238.003L235.177 437.717H232.294ZM245.881 451.442C244.458 451.442 243.199 451.125 242.104 450.491C241.008 449.837 240.143 448.943 239.509 447.809C238.893 446.675 238.586 445.368 238.586 443.888C238.586 442.408 238.903 441.101 239.537 439.966C240.191 438.832 241.075 437.948 242.19 437.314C243.324 436.66 244.622 436.333 246.083 436.333C247.351 436.333 248.514 436.67 249.571 437.343C250.648 437.996 251.503 438.967 252.138 440.255C252.791 441.523 253.118 443.071 253.118 444.897H242.565C242.661 445.858 243.074 446.627 243.805 447.204C244.535 447.761 245.362 448.04 246.284 448.04C247.073 448.04 247.716 447.876 248.216 447.55C248.716 447.204 249.1 446.762 249.37 446.223L252.772 447.55C252.368 448.357 251.84 449.059 251.186 449.655C250.552 450.231 249.792 450.673 248.908 450.981C248.024 451.288 247.015 451.442 245.881 451.442ZM242.767 442.071H248.995C248.937 441.475 248.745 440.995 248.418 440.63C248.091 440.264 247.707 439.995 247.265 439.822C246.823 439.649 246.39 439.563 245.967 439.563C245.564 439.563 245.121 439.649 244.641 439.822C244.18 439.976 243.766 440.236 243.401 440.601C243.055 440.966 242.844 441.456 242.767 442.071ZM259.495 451.442C257.765 451.442 256.42 451.058 255.459 450.289C254.517 449.52 254.046 448.434 254.046 447.031C254.046 445.493 254.555 444.34 255.574 443.571C256.612 442.783 258.063 442.388 259.928 442.388H263.33C263.196 441.504 262.917 440.831 262.494 440.37C262.071 439.89 261.466 439.649 260.678 439.649C260.062 439.649 259.505 439.784 259.005 440.053C258.505 440.322 258.083 440.735 257.737 441.293L254.392 440.139C254.661 439.524 255.055 438.928 255.574 438.352C256.093 437.756 256.766 437.275 257.592 436.91C258.438 436.526 259.467 436.333 260.678 436.333C262.138 436.333 263.349 436.612 264.311 437.17C265.291 437.727 266.012 438.515 266.473 439.534C266.954 440.534 267.184 441.725 267.165 443.109L267.079 451.096H263.532L263.474 449.424C263.109 450.077 262.59 450.577 261.917 450.923C261.264 451.269 260.457 451.442 259.495 451.442ZM260.13 448.271C260.745 448.271 261.302 448.126 261.802 447.838C262.302 447.55 262.696 447.175 262.984 446.714C263.273 446.252 263.417 445.772 263.417 445.272V445.214H261.254C260.005 445.214 259.14 445.368 258.659 445.676C258.179 445.964 257.938 446.377 257.938 446.915C257.938 447.338 258.131 447.675 258.515 447.925C258.9 448.155 259.438 448.271 260.13 448.271ZM274.825 451.442C273.672 451.442 272.692 451.212 271.884 450.75C271.096 450.289 270.491 449.578 270.068 448.617C269.645 447.636 269.434 446.377 269.434 444.839V436.679H273.24V444.061C273.24 445.022 273.345 445.781 273.557 446.339C273.787 446.877 274.105 447.271 274.508 447.521C274.931 447.752 275.402 447.867 275.921 447.867C276.921 447.886 277.68 447.588 278.199 446.973C278.718 446.339 278.977 445.426 278.977 444.234V436.679H282.784V451.096H279.208L279.064 449.136C278.583 449.866 277.978 450.433 277.247 450.837C276.536 451.24 275.729 451.442 274.825 451.442ZM46.9146 491.863V471.679H50.49L50.663 473.727C51.1435 472.958 51.749 472.371 52.4795 471.968C53.2292 471.545 54.0942 471.333 55.0745 471.333C56.4008 471.333 57.5446 471.641 58.5057 472.256C59.486 472.871 60.2453 473.746 60.7835 474.88C61.3217 475.995 61.5909 477.331 61.5909 478.888C61.5909 480.426 61.3217 481.762 60.7835 482.896C60.2453 484.03 59.486 484.904 58.5057 485.52C57.5446 486.135 56.4008 486.442 55.0745 486.442C54.1134 486.442 53.2676 486.24 52.5371 485.837C51.8067 485.433 51.2012 484.866 50.7206 484.136V491.863H46.9146ZM54.0942 482.953C54.7862 482.953 55.3917 482.78 55.9107 482.434C56.4489 482.088 56.8718 481.608 57.1793 480.993C57.4869 480.378 57.6407 479.676 57.6407 478.888C57.6407 478.1 57.4869 477.398 57.1793 476.783C56.891 476.168 56.4777 475.697 55.9395 475.37C55.4205 475.024 54.815 474.851 54.123 474.851C53.4694 474.851 52.8832 475.024 52.3641 475.37C51.8451 475.716 51.4415 476.197 51.1531 476.812C50.8648 477.408 50.7206 478.1 50.7206 478.888C50.7206 479.676 50.8648 480.378 51.1531 480.993C51.4415 481.608 51.8355 482.088 52.3353 482.434C52.8543 482.78 53.4406 482.953 54.0942 482.953ZM70.3579 486.442C68.897 486.442 67.5899 486.125 66.4366 485.491C65.3025 484.837 64.4086 483.943 63.7551 482.809C63.1207 481.675 62.8036 480.368 62.8036 478.888C62.8036 477.408 63.1207 476.101 63.7551 474.966C64.3894 473.832 65.2736 472.948 66.4077 472.314C67.5419 471.66 68.8394 471.333 70.3003 471.333C71.7804 471.333 73.0875 471.66 74.2216 472.314C75.3557 472.948 76.2399 473.832 76.8743 474.966C77.5086 476.101 77.8258 477.408 77.8258 478.888C77.8258 480.368 77.5086 481.675 76.8743 482.809C76.2399 483.943 75.3557 484.837 74.2216 485.491C73.1067 486.125 71.8188 486.442 70.3579 486.442ZM70.3579 482.925C71.0692 482.925 71.6939 482.752 72.2321 482.406C72.7703 482.06 73.1836 481.589 73.4719 480.993C73.7795 480.378 73.9333 479.676 73.9333 478.888C73.9333 478.1 73.7795 477.408 73.4719 476.812C73.1644 476.197 72.7319 475.716 72.1744 475.37C71.6362 475.024 71.0115 474.851 70.3003 474.851C69.6083 474.851 68.9835 475.024 68.4261 475.37C67.8879 475.716 67.465 476.197 67.1574 476.812C66.8499 477.408 66.6961 478.1 66.6961 478.888C66.6961 479.676 66.8499 480.378 67.1574 480.993C67.465 481.589 67.8975 482.06 68.4549 482.406C69.0124 482.752 69.6467 482.925 70.3579 482.925ZM85.7702 486.442C84.1748 486.442 82.9637 486.048 82.1372 485.26C81.3299 484.472 80.9262 483.347 80.9262 481.887V474.909H78.5907V471.679H80.9262V467.181H84.7322V471.679H88.3364V474.909H84.7322V481.05C84.7322 481.665 84.8668 482.136 85.1359 482.463C85.405 482.771 85.799 482.925 86.318 482.925C86.5103 482.925 86.7217 482.886 86.9524 482.809C87.183 482.713 87.4233 482.579 87.6732 482.406L88.9995 485.26C88.5382 485.606 88.0192 485.885 87.4425 486.096C86.8851 486.327 86.3276 486.442 85.7702 486.442ZM95.3437 486.442C93.6137 486.442 92.2681 486.058 91.307 485.289C90.3651 484.52 89.8942 483.434 89.8942 482.031C89.8942 480.493 90.4036 479.34 91.4224 478.571C92.4604 477.783 93.9116 477.388 95.7762 477.388H99.1786C99.044 476.504 98.7653 475.831 98.3424 475.37C97.9195 474.89 97.314 474.649 96.5259 474.649C95.9108 474.649 95.3533 474.784 94.8535 475.053C94.3538 475.322 93.9309 475.735 93.5849 476.293L90.2402 475.139C90.5093 474.524 90.9034 473.928 91.4224 473.352C91.9414 472.756 92.6141 472.275 93.4407 471.91C94.2865 471.526 95.3149 471.333 96.5259 471.333C97.9868 471.333 99.1978 471.612 100.159 472.17C101.139 472.727 101.86 473.515 102.321 474.534C102.802 475.534 103.033 476.725 103.013 478.109L102.927 486.096H99.3804L99.3227 484.424C98.9575 485.077 98.4385 485.577 97.7657 485.923C97.1122 486.269 96.3048 486.442 95.3437 486.442ZM95.978 483.271C96.5932 483.271 97.1506 483.126 97.6504 482.838C98.1502 482.55 98.5442 482.175 98.8326 481.714C99.1209 481.252 99.2651 480.772 99.2651 480.272V480.214H97.1025C95.8531 480.214 94.9881 480.368 94.5075 480.676C94.027 480.964 93.7867 481.377 93.7867 481.915C93.7867 482.338 93.9789 482.675 94.3634 482.925C94.7478 483.155 95.286 483.271 95.978 483.271ZM113.701 486.442C112.721 486.442 111.866 486.24 111.135 485.837C110.405 485.414 109.79 484.818 109.29 484.049L109.146 486.096H105.541V465.913H109.347V473.64C109.828 472.89 110.433 472.323 111.164 471.939C111.894 471.535 112.74 471.333 113.701 471.333C115.028 471.333 116.171 471.641 117.132 472.256C118.113 472.871 118.872 473.746 119.41 474.88C119.949 475.995 120.218 477.331 120.218 478.888C120.218 480.426 119.949 481.762 119.41 482.896C118.872 484.03 118.113 484.904 117.132 485.52C116.171 486.135 115.028 486.442 113.701 486.442ZM112.721 482.953C113.413 482.953 114.018 482.78 114.537 482.434C115.076 482.088 115.499 481.608 115.806 480.993C116.114 480.378 116.267 479.676 116.267 478.888C116.267 478.1 116.114 477.398 115.806 476.783C115.518 476.168 115.105 475.697 114.566 475.37C114.047 475.024 113.442 474.851 112.75 474.851C112.096 474.851 111.51 475.024 110.991 475.37C110.472 475.716 110.068 476.197 109.78 476.812C109.492 477.408 109.347 478.1 109.347 478.888C109.347 479.676 109.492 480.378 109.78 480.993C110.068 481.608 110.462 482.088 110.962 482.434C111.481 482.78 112.067 482.953 112.721 482.953ZM122.212 486.096V465.913H126.018V486.096H122.212ZM135.319 486.442C133.897 486.442 132.637 486.125 131.542 485.491C130.446 484.837 129.581 483.943 128.947 482.809C128.332 481.675 128.024 480.368 128.024 478.888C128.024 477.408 128.341 476.101 128.976 474.966C129.629 473.832 130.513 472.948 131.628 472.314C132.762 471.66 134.06 471.333 135.521 471.333C136.789 471.333 137.952 471.67 139.01 472.343C140.086 472.996 140.941 473.967 141.576 475.255C142.229 476.523 142.556 478.071 142.556 479.897H132.003C132.099 480.858 132.512 481.627 133.243 482.204C133.973 482.761 134.8 483.04 135.723 483.04C136.511 483.04 137.155 482.876 137.654 482.55C138.154 482.204 138.539 481.762 138.808 481.223L142.21 482.55C141.806 483.357 141.278 484.059 140.624 484.655C139.99 485.231 139.231 485.673 138.346 485.981C137.462 486.288 136.453 486.442 135.319 486.442ZM132.205 477.071H138.433C138.375 476.475 138.183 475.995 137.856 475.63C137.53 475.264 137.145 474.995 136.703 474.822C136.261 474.649 135.828 474.563 135.405 474.563C135.002 474.563 134.56 474.649 134.079 474.822C133.618 474.976 133.205 475.236 132.839 475.601C132.493 475.966 132.282 476.456 132.205 477.071ZM146.194 486.529C145.56 486.529 145.012 486.298 144.551 485.837C144.109 485.375 143.888 484.828 143.888 484.193C143.888 483.578 144.109 483.04 144.551 482.579C145.012 482.117 145.56 481.887 146.194 481.887C146.829 481.887 147.367 482.117 147.809 482.579C148.27 483.04 148.501 483.578 148.501 484.193C148.501 484.828 148.27 485.375 147.809 485.837C147.367 486.298 146.829 486.529 146.194 486.529Z" fill="#88F154"/>
</svg>
