<svg xmlns="http://www.w3.org/2000/svg" width="345" height="541" fill="none" viewBox="0 0 345 541"><rect width="342.12" height="538.12" x="1.44" y="1.44" stroke="#88f154" stroke-width="2.88" rx="6.081"/><path fill="#88f154" stroke="#88f154" stroke-linecap="round" stroke-linejoin="round" stroke-width="4.322" d="M62.274 67.913V87.5c0 5.547-1.643 10.97-4.72 15.585l-4.608 6.912a28.1 28.1 0 0 0-4.72 15.592v68.746a14.046 14.046 0 0 0 14.048 14.047h42.141a14.047 14.047 0 0 0 14.047-14.047v-68.753c0-5.547-1.643-10.97-4.72-15.585l-4.607-6.912a28.1 28.1 0 0 1-4.72-15.592v-19.58" opacity=".3"/><mask id="a" width="75" height="146" x="46" y="65" maskUnits="userSpaceOnUse" style="mask-type:alpha"><path fill="#fff" stroke="#fff" stroke-linecap="round" stroke-linejoin="round" stroke-width="4.322" d="M62.274 67.914v19.588c0 5.547-1.643 10.97-4.72 15.585l-4.608 6.912a28.1 28.1 0 0 0-4.72 15.592v68.746a14.046 14.046 0 0 0 14.048 14.047h42.141a14.047 14.047 0 0 0 14.047-14.047v-68.753c0-5.547-1.643-10.97-4.72-15.585l-4.607-6.912a28.1 28.1 0 0 1-4.72-15.592V67.914"/></mask><g mask="url(#a)"><path fill="#88f154" d="M83.58 139.685c-22.285-6.451-34.77-5.181-57.056 0l-11.364 79.31h141.576v-79.31c-28.029 6.8-43.756 10.32-73.156 0"/></g><path fill="#88f154" d="M55.248 276.529q-2.28 0-4.037-.952a7.1 7.1 0 0 1-2.71-2.681q-.98-1.73-.98-3.979v-13.004h2.45v13.004q0 1.586.663 2.825a5 5 0 0 0 1.903 1.903q1.21.663 2.768.664 1.586 0 2.797-.664a4.76 4.76 0 0 0 1.903-1.903q.692-1.24.692-2.825v-13.004h2.422v13.004q0 2.248-.98 3.979-.981 1.701-2.768 2.681-1.788.952-4.123.952m11.778-.433v-14.417h2.163l.115 2.163q.72-1.21 1.874-1.845 1.154-.664 2.682-.664 1.701 0 2.94.692 1.27.664 1.961 2.134.721 1.47.692 3.864v8.073h-2.306v-7.381q0-2.134-.49-3.258t-1.356-1.529q-.864-.432-1.96-.432-1.904 0-2.97 1.355-1.038 1.326-1.038 3.777v7.468zm21.887.346q-2.105 0-3.72-.951a6.96 6.96 0 0 1-2.537-2.682q-.894-1.701-.893-3.921 0-2.22.893-3.922.923-1.701 2.509-2.652 1.615-.981 3.69-.981 2.02 0 3.49 1.01 1.47.98 2.277 2.768t.808 4.209H84.098q.144 2.365 1.5 3.691 1.355 1.326 3.43 1.326 1.53 0 2.567-.72a4.8 4.8 0 0 0 1.643-1.903l1.99 1.009a6.4 6.4 0 0 1-1.47 1.96 6.3 6.3 0 0 1-2.134 1.298q-1.212.46-2.71.461m-4.642-9.054h8.679q-.087-1.239-.663-2.133a3.83 3.83 0 0 0-1.442-1.384q-.894-.49-2.018-.49-1.095 0-2.105.49a4.16 4.16 0 0 0-1.672 1.384q-.663.894-.779 2.133m26.755 9.054q-2.248 0-4.008-.951a7.1 7.1 0 0 1-2.739-2.682q-.98-1.73-.98-3.921 0-2.22.98-3.922a6.9 6.9 0 0 1 2.71-2.652q1.73-.981 3.979-.981 2.163 0 3.951 1.067 1.786 1.068 2.595 3.085l-3.576 1.269q-.404-.836-1.268-1.326a3.5 3.5 0 0 0-1.875-.519q-1.067 0-1.874.519a3.4 3.4 0 0 0-1.268 1.384q-.462.894-.462 2.076t.462 2.076q.461.865 1.297 1.384.837.519 1.903.519 1.038 0 1.874-.548.866-.548 1.269-1.442l3.604 1.269q-.836 2.047-2.624 3.172-1.758 1.124-3.95 1.124m15.062 0q-2.191 0-3.922-.951a7.2 7.2 0 0 1-2.681-2.682q-.952-1.701-.952-3.921t.952-3.922a6.77 6.77 0 0 1 2.653-2.652q1.7-.981 3.892-.981 2.22 0 3.922.981a6.76 6.76 0 0 1 2.652 2.652q.952 1.702.952 3.922t-.952 3.921a6.97 6.97 0 0 1-2.652 2.682q-1.673.951-3.864.951m0-3.517q1.067 0 1.874-.519a3.4 3.4 0 0 0 1.24-1.413q.46-.923.461-2.105 0-1.182-.461-2.076a3.5 3.5 0 0 0-1.298-1.442q-.807-.519-1.874-.519a3.5 3.5 0 0 0-1.874.519 3.6 3.6 0 0 0-1.269 1.442q-.46.894-.461 2.076 0 1.182.461 2.105a3.54 3.54 0 0 0 1.298 1.413q.836.519 1.903.519m14.605 3.517q-1.73 0-2.941-.692-1.182-.692-1.817-2.133-.634-1.471-.634-3.778v-8.16h3.806v7.382q0 1.441.317 2.278.346.807.952 1.182.634.346 1.412.346 1.5.029 2.278-.894.779-.951.779-2.739v-7.555h3.806v14.417h-3.576l-.144-1.96a5.1 5.1 0 0 1-1.816 1.701q-1.067.605-2.422.605m10.75-.346v-14.417h3.806v2.653q.893-1.355 2.249-2.018a6.3 6.3 0 0 1 2.854-.692v3.69q-1.326 0-2.508.318-1.154.317-1.874 1.038-.721.72-.721 1.845v7.583zm16.359.346q-2.393 0-3.633-1.182-1.21-1.183-1.211-3.373v-6.978h-2.335v-3.23h2.335v-4.498h3.806v4.498h3.605v3.23h-3.605v6.141q0 .923.404 1.413.404.462 1.182.462.288 0 .635-.116.345-.144.72-.403l1.327 2.854a6 6 0 0 1-1.557.836 4.3 4.3 0 0 1-1.673.346m11.419 0q-2.133 0-3.777-.951a7.1 7.1 0 0 1-2.595-2.682q-.923-1.701-.923-3.921t.952-3.922a7 7 0 0 1 2.653-2.652q1.7-.981 3.892-.981 1.903 0 3.489 1.01 1.614.98 2.566 2.912.98 1.903.98 4.642h-10.553q.145 1.442 1.24 2.307a4 4 0 0 0 2.48.836q1.182 0 1.932-.49a3.5 3.5 0 0 0 1.153-1.327l3.402 1.327a7.2 7.2 0 0 1-1.585 2.105q-.952.864-2.278 1.326-1.327.46-3.028.461m-3.114-9.371h6.228q-.086-.894-.576-1.441a3 3 0 0 0-1.154-.808 3.5 3.5 0 0 0-1.297-.259q-.606 0-1.327.259a3.15 3.15 0 0 0-1.239.779q-.52.548-.635 1.47M53.719 311.442q-2.248 0-4.008-.951a7.07 7.07 0 0 1-2.739-2.682q-.98-1.73-.98-3.921 0-2.22.98-3.922a6.9 6.9 0 0 1 2.71-2.652q1.73-.981 3.98-.981 2.162 0 3.95 1.067 1.788 1.068 2.595 3.085l-3.575 1.269q-.404-.836-1.27-1.326a3.5 3.5 0 0 0-1.873-.519q-1.068 0-1.874.519a3.4 3.4 0 0 0-1.27 1.384q-.46.894-.46 2.076t.46 2.076a3.6 3.6 0 0 0 1.298 1.384q.837.519 1.903.519 1.038 0 1.874-.548.865-.548 1.27-1.442l3.603 1.269q-.836 2.047-2.623 3.172-1.76 1.124-3.95 1.124m15.062 0q-2.19 0-3.921-.951a7.2 7.2 0 0 1-2.682-2.682q-.951-1.701-.951-3.921t.951-3.922a6.77 6.77 0 0 1 2.653-2.652q1.702-.981 3.892-.981 2.22 0 3.922.981a6.77 6.77 0 0 1 2.653 2.652q.951 1.702.951 3.922t-.951 3.921a7 7 0 0 1-2.653 2.682q-1.673.951-3.864.951m0-3.517q1.067 0 1.874-.519a3.4 3.4 0 0 0 1.24-1.413q.462-.923.461-2.105 0-1.182-.46-2.076a3.5 3.5 0 0 0-1.298-1.442q-.808-.519-1.875-.519-1.037 0-1.874.519a3.57 3.57 0 0 0-1.268 1.442q-.462.894-.462 2.076t.462 2.105q.461.894 1.297 1.413.837.519 1.903.519m9.473 3.171v-14.417h3.575l.173 1.961q.692-1.125 1.759-1.701 1.095-.606 2.48-.606 1.7 0 2.912.692 1.21.693 1.845 2.163.634 1.442.606 3.748v8.16h-3.806v-7.381q0-1.471-.346-2.278-.318-.808-.923-1.153-.606-.375-1.413-.375-1.47-.029-2.278.894-.778.923-.778 2.739v7.554zm19.957 0-5.91-14.417h3.92l3.893 10.063 3.893-10.063h3.921l-5.911 14.417zm17.113.346q-2.133 0-3.777-.951a7.1 7.1 0 0 1-2.595-2.682q-.923-1.701-.923-3.921t.952-3.922a7 7 0 0 1 2.652-2.652q1.701-.981 3.893-.981 1.904 0 3.489 1.01 1.614.98 2.566 2.912.98 1.903.98 4.642h-10.553q.145 1.442 1.24 2.307a4 4 0 0 0 2.48.836q1.182 0 1.932-.49a3.5 3.5 0 0 0 1.153-1.327l3.402 1.327a7.1 7.1 0 0 1-1.586 2.105q-.951.864-2.277 1.326-1.327.46-3.028.461m-3.114-9.371h6.228q-.087-.894-.577-1.441a3 3 0 0 0-1.153-.808 3.6 3.6 0 0 0-1.297-.259q-.606 0-1.327.259a3.16 3.16 0 0 0-1.24.779q-.519.548-.634 1.47m12.058 9.025v-14.417h3.806v2.653q.894-1.355 2.249-2.018a6.3 6.3 0 0 1 2.854-.692v3.69q-1.326 0-2.508.318-1.154.317-1.874 1.038-.721.72-.721 1.845v7.583zm15.811.346a8.2 8.2 0 0 1-2.595-.403 6.9 6.9 0 0 1-2.133-1.211 5.7 5.7 0 0 1-1.442-1.961l3.258-1.499a4.2 4.2 0 0 0 1.182 1.211q.75.49 1.73.49.952 0 1.471-.26.519-.288.519-.807t-.433-.75q-.404-.26-1.124-.432l-1.326-.346q-2.076-.548-3.287-1.73-1.183-1.212-1.183-2.768 0-2.22 1.413-3.432 1.442-1.21 4.066-1.211 1.355 0 2.508.404 1.182.403 2.019 1.125.835.72 1.153 1.672l-3.143 1.442q-.201-.577-.98-.923a3.56 3.56 0 0 0-1.557-.375q-.779 0-1.211.346-.404.318-.404.894 0 .375.404.634.403.231 1.153.404l1.874.461q1.413.347 2.249 1.125.865.75 1.24 1.701.404.923.404 1.817 0 1.297-.779 2.306-.75.98-2.076 1.528-1.297.548-2.97.548m12.205 0q-2.595 0-4.036-1.153-1.413-1.154-1.413-3.258 0-2.307 1.528-3.46 1.557-1.183 4.354-1.183h3.402q-.201-1.326-.836-2.018-.634-.72-1.816-.721-.923 0-1.673.404-.75.403-1.268 1.24l-3.345-1.154a6.7 6.7 0 0 1 1.182-1.787q.779-.894 2.018-1.442 1.27-.577 3.086-.577 2.19 0 3.633.837a5.05 5.05 0 0 1 2.162 2.364q.721 1.5.692 3.575l-.086 7.987h-3.547l-.058-1.672a3.66 3.66 0 0 1-1.557 1.499q-.98.519-2.422.519m.635-3.171a3.3 3.3 0 0 0 1.672-.433q.75-.432 1.182-1.124.433-.692.433-1.442v-.058h-2.163q-1.873 0-2.595.462-.72.432-.721 1.239 0 .635.577 1.01.577.346 1.615.346m15.503 3.171q-2.394 0-3.633-1.182-1.212-1.183-1.211-3.373v-6.978h-2.336v-3.23h2.336v-4.498h3.806v4.498h3.604v3.23h-3.604v6.141q0 .923.403 1.413.405.462 1.183.462.288 0 .634-.116.346-.144.721-.403l1.326 2.854a6 6 0 0 1-1.557.836 4.3 4.3 0 0 1-1.672.346m5.386-.346v-14.417h3.806v14.417zm1.903-16.752q-.864 0-1.528-.634-.663-.663-.663-1.557t.663-1.529q.663-.663 1.528-.663a2.04 2.04 0 0 1 1.529.663q.663.635.663 1.529t-.663 1.557a2.08 2.08 0 0 1-1.529.634m11.683 17.098q-2.19 0-3.921-.951a7.2 7.2 0 0 1-2.681-2.682q-.952-1.701-.952-3.921t.952-3.922a6.76 6.76 0 0 1 2.652-2.652q1.701-.981 3.893-.981 2.22 0 3.921.981a6.77 6.77 0 0 1 2.653 2.652q.951 1.702.951 3.922t-.951 3.921a7 7 0 0 1-2.653 2.682q-1.673.951-3.864.951m0-3.517q1.067 0 1.875-.519a3.4 3.4 0 0 0 1.239-1.413q.462-.923.462-2.105t-.462-2.076a3.5 3.5 0 0 0-1.297-1.442q-.807-.519-1.874-.519a3.5 3.5 0 0 0-1.874.519 3.57 3.57 0 0 0-1.269 1.442q-.461.894-.461 2.076t.461 2.105q.462.894 1.297 1.413.837.519 1.903.519m9.473 3.171v-14.417h3.575l.173 1.961q.693-1.125 1.759-1.701 1.096-.606 2.48-.606 1.701 0 2.912.692 1.211.693 1.845 2.163.635 1.442.606 3.748v8.16h-3.806v-7.381q0-1.471-.346-2.278-.318-.808-.923-1.153-.605-.375-1.413-.375-1.47-.029-2.277.894-.779.923-.779 2.739v7.554zM51.701 346.442q-2.538 0-3.979-1.153-1.413-1.182-1.413-3.258 0-2.191 1.442-3.345 1.47-1.182 4.094-1.182h4.008q-.144-2.048-1.01-3.057-.863-1.038-2.594-1.038-1.182 0-2.047.491-.838.46-1.384 1.499l-2.076-.807a6.7 6.7 0 0 1 1.326-1.73 5.1 5.1 0 0 1 1.817-1.125q1.038-.404 2.364-.404 2.017 0 3.316.808 1.326.778 1.99 2.335.662 1.529.633 3.806l-.028 7.814h-2.134l-.115-1.932a4.5 4.5 0 0 1-1.702 1.702q-1.066.576-2.508.576m.115-2.018q1.24 0 2.163-.519a3.6 3.6 0 0 0 1.413-1.528q.519-.98.519-2.365v-.576h-3.547q-2.017 0-2.883.663-.837.663-.836 1.903 0 1.124.836 1.788.836.634 2.335.634m13.564 1.672-6.026-14.417h2.393l4.844 11.736 4.816-11.736h2.422l-6.027 14.417zm16.184.346q-2.105 0-3.72-.951a6.96 6.96 0 0 1-2.537-2.682q-.894-1.701-.894-3.921t.894-3.922q.922-1.701 2.509-2.652 1.615-.981 3.69-.981 2.019 0 3.49 1.01 1.47.98 2.277 2.768t.808 4.209H76.749q.144 2.365 1.5 3.691 1.355 1.326 3.43 1.326 1.53 0 2.567-.72a4.8 4.8 0 0 0 1.643-1.903l1.99 1.009a6.4 6.4 0 0 1-1.47 1.96 6.3 6.3 0 0 1-2.135 1.298q-1.21.46-2.71.461m-4.642-9.054H85.6q-.087-1.239-.663-2.133a3.83 3.83 0 0 0-1.442-1.384q-.894-.49-2.018-.49-1.095 0-2.105.49a4.16 4.16 0 0 0-1.673 1.384q-.663.894-.778 2.133m19.992 9.054q-2.133 0-3.777-.951a6.9 6.9 0 0 1-2.566-2.682q-.923-1.701-.923-3.921t.894-3.922a6.7 6.7 0 0 1 2.566-2.652q1.644-.981 3.749-.981 2.076 0 3.719.952a6.26 6.26 0 0 1 2.509 2.681l-2.105.952a4.2 4.2 0 0 0-1.673-1.788q-1.095-.663-2.508-.663t-2.509.692q-1.066.692-1.7 1.932-.606 1.211-.606 2.797t.605 2.826q.635 1.21 1.73 1.903 1.125.692 2.538.692t2.508-.721q1.125-.721 1.701-2.019l2.105.952q-.865 1.845-2.508 2.883t-3.749 1.038m20.502 0q-1.672 0-2.941-.663-1.24-.692-1.961-2.162-.692-1.5-.692-3.864v-8.074h2.307v7.382q0 2.133.49 3.258t1.355 1.557q.894.404 1.99.404 1.874 0 2.912-1.355 1.067-1.356 1.067-3.778v-7.468h2.306v14.417h-2.162l-.116-2.162a5.15 5.15 0 0 1-1.874 1.874q-1.153.634-2.681.634m10.354-.346v-14.417h2.162l.115 2.163q.721-1.21 1.875-1.845 1.152-.664 2.681-.664 1.702 0 2.941.692 1.269.664 1.961 2.134.72 1.47.692 3.864v8.073h-2.307v-7.381q0-2.134-.49-3.258t-1.355-1.529q-.865-.432-1.961-.432-1.904 0-2.97 1.355-1.038 1.326-1.038 3.777v7.468zm26.746.346q-2.536 0-3.979-1.153-1.412-1.182-1.412-3.258 0-2.191 1.441-3.345 1.47-1.182 4.095-1.182h4.007q-.144-2.048-1.009-3.057-.864-1.038-2.595-1.038-1.182 0-2.047.491-.836.46-1.384 1.499l-2.076-.807a6.7 6.7 0 0 1 1.326-1.73 5.1 5.1 0 0 1 1.817-1.125q1.038-.404 2.364-.404 2.019 0 3.316.808 1.326.778 1.99 2.335.663 1.529.634 3.806l-.029 7.814h-2.134l-.115-1.932a4.5 4.5 0 0 1-1.701 1.702q-1.066.576-2.509.576m.116-2.018q1.24 0 2.162-.519a3.6 3.6 0 0 0 1.413-1.528q.519-.98.519-2.365v-.576h-3.546q-2.019 0-2.884.663-.836.663-.836 1.903 0 1.124.836 1.788.837.634 2.336.634m15.288 7.785a10.5 10.5 0 0 1-2.537-.288 11.5 11.5 0 0 1-1.932-.606q-.779-.317-1.124-.548l.865-1.874q.374.202 1.067.49.691.318 1.614.519a8.5 8.5 0 0 0 2.019.231q1.384 0 2.479-.577 1.125-.547 1.73-1.759.635-1.182.635-3.056v-1.528a5.8 5.8 0 0 1-2.048 2.047q-1.268.721-2.854.721-1.932 0-3.402-.923-1.472-.922-2.307-2.566-.807-1.673-.807-3.806 0-2.191.807-3.835.835-1.673 2.307-2.595 1.47-.923 3.402-.923 1.586 0 2.854.721 1.27.721 2.048 2.047v-2.422h2.306v13.033q0 2.48-.922 4.152-.923 1.672-2.538 2.509-1.614.836-3.662.836m.462-8.218q1.268 0 2.249-.692.98-.692 1.528-1.874.548-1.21.548-2.797 0-1.527-.577-2.71-.548-1.21-1.528-1.874-.951-.692-2.249-.692-1.356 0-2.422.692-1.038.663-1.644 1.874-.576 1.183-.576 2.71 0 1.587.605 2.797.606 1.182 1.644 1.874 1.066.692 2.422.692m16.504 2.451q-2.105 0-3.72-.951a6.96 6.96 0 0 1-2.537-2.682q-.894-1.701-.894-3.921t.894-3.922q.922-1.701 2.508-2.652 1.615-.981 3.691-.981 2.018 0 3.489 1.01 1.47.98 2.278 2.768.807 1.787.807 4.209H182.07q.145 2.365 1.5 3.691t3.431 1.326q1.528 0 2.566-.72a4.8 4.8 0 0 0 1.644-1.903l1.989 1.009a6.4 6.4 0 0 1-1.47 1.96 6.3 6.3 0 0 1-2.134 1.298q-1.211.46-2.71.461m-4.643-9.054h8.679q-.085-1.239-.663-2.133a3.8 3.8 0 0 0-1.442-1.384q-.893-.49-2.018-.49a4.76 4.76 0 0 0-2.105.49 4.16 4.16 0 0 0-1.672 1.384q-.663.894-.779 2.133m13.563 8.708v-14.417h2.162l.116 2.163q.72-1.21 1.874-1.845 1.154-.664 2.681-.664 1.701 0 2.941.692 1.27.664 1.961 2.134.721 1.47.692 3.864v8.073h-2.307v-7.381q0-2.134-.49-3.258t-1.355-1.529q-.865-.432-1.961-.432-1.902 0-2.969 1.355-1.038 1.326-1.038 3.777v7.468zm20.993.346q-2.104 0-3.258-1.095-1.153-1.096-1.153-3.086v-8.534h-2.509v-2.048h2.509v-4.498h2.306v4.498h4.325v2.048h-4.325v8.304q0 1.095.577 1.701.606.577 1.672.577.346 0 .664-.087.345-.115.893-.519l.894 1.874q-.75.49-1.355.663a3.9 3.9 0 0 1-1.24.202m-163.224 35q-2.133 0-3.777-.951a6.9 6.9 0 0 1-2.566-2.682q-.923-1.701-.923-3.921t.894-3.922a6.7 6.7 0 0 1 2.566-2.652q1.643-.981 3.749-.981 2.075 0 3.719.952a6.26 6.26 0 0 1 2.508 2.681l-2.104.952a4.2 4.2 0 0 0-1.673-1.788q-1.095-.663-2.508-.663t-2.509.692q-1.066.692-1.7 1.932-.606 1.211-.606 2.797t.605 2.826q.635 1.21 1.73 1.903 1.125.692 2.538.692t2.508-.721q1.125-.721 1.701-2.019l2.105.952q-.865 1.845-2.508 2.883t-3.749 1.038m15.037 0q-2.106 0-3.749-.951a6.96 6.96 0 0 1-2.537-2.682q-.923-1.701-.923-3.921t.894-3.922q.922-1.701 2.537-2.652 1.644-.981 3.72-.981 2.133 0 3.748.981a6.5 6.5 0 0 1 2.537 2.652q.924 1.702.923 3.922 0 2.22-.922 3.921a6.75 6.75 0 0 1-2.509 2.682q-1.615.951-3.72.951m0-2.133q1.44 0 2.508-.692 1.067-.693 1.672-1.903.635-1.212.635-2.826t-.635-2.826a4.67 4.67 0 0 0-1.7-1.903q-1.096-.692-2.538-.692-1.413 0-2.509.692-1.066.692-1.7 1.903-.606 1.21-.606 2.826 0 1.586.605 2.826.635 1.21 1.73 1.903 1.125.692 2.538.692m9.848 1.787v-14.417h2.162l.115 2.163q.722-1.21 1.875-1.845 1.153-.664 2.681-.664 1.701 0 2.941.692 1.27.664 1.96 2.134.722 1.47.693 3.864v8.073H88.58v-7.381q0-2.134-.49-3.258t-1.355-1.529q-.865-.432-1.96-.432-1.905 0-2.97 1.355-1.04 1.326-1.039 3.777v7.468zm19.614 0-6.026-14.417h2.393l4.844 11.736 4.816-11.736h2.422l-6.027 14.417zm16.184.346q-2.105 0-3.719-.951a6.95 6.95 0 0 1-2.538-2.682q-.894-1.701-.894-3.921t.894-3.922q.923-1.701 2.509-2.652 1.614-.981 3.69-.981 2.019 0 3.489 1.01 1.471.98 2.278 2.768t.807 4.209h-11.331q.144 2.365 1.499 3.691t3.431 1.326q1.529 0 2.567-.72a4.8 4.8 0 0 0 1.643-1.903l1.99 1.009a6.4 6.4 0 0 1-1.471 1.96 6.3 6.3 0 0 1-2.134 1.298q-1.21.46-2.71.461m-4.642-9.054h8.679q-.087-1.239-.663-2.133a3.84 3.84 0 0 0-1.442-1.384q-.894-.49-2.018-.49-1.096 0-2.105.49a4.17 4.17 0 0 0-1.673 1.384q-.663.894-.778 2.133m13.562 8.708v-14.417h2.307v2.567q.865-1.356 2.22-1.99a6.85 6.85 0 0 1 2.884-.634v2.162q-1.269 0-2.451.433a4.1 4.1 0 0 0-1.903 1.355q-.75.951-.75 2.595v7.929zm14.283.346q-1.585 0-2.768-.461-1.182-.49-1.989-1.269-.779-.779-1.125-1.701l2.019-.836a3.9 3.9 0 0 0 1.47 1.586 4.04 4.04 0 0 0 2.163.605q1.354 0 2.278-.519.922-.547.922-1.528 0-.893-.692-1.442-.663-.547-1.989-.894l-1.384-.374q-1.96-.519-3.057-1.557-1.095-1.067-1.095-2.394 0-2.047 1.326-3.171 1.355-1.154 4.008-1.154 1.269 0 2.307.375 1.037.375 1.787 1.067.75.663 1.096 1.586l-2.018.894q-.376-.981-1.24-1.413-.866-.433-2.105-.433-1.326 0-2.076.577-.75.548-.75 1.557 0 .577.606 1.096.635.49 1.845.807l1.442.375q1.413.346 2.364 1.038.951.663 1.442 1.528.49.865.49 1.846 0 1.297-.692 2.249-.692.951-1.874 1.47-1.182.49-2.711.49m12.436 0q-2.537 0-3.979-1.153-1.413-1.182-1.413-3.258 0-2.191 1.442-3.345 1.47-1.182 4.094-1.182h4.008q-.144-2.048-1.009-3.057-.865-1.038-2.595-1.038-1.183 0-2.047.491-.837.46-1.384 1.499l-2.076-.807a6.7 6.7 0 0 1 1.326-1.73 5.1 5.1 0 0 1 1.817-1.125q1.038-.404 2.364-.404 2.018 0 3.316.808 1.326.778 1.989 2.335.663 1.529.635 3.806l-.029 7.814h-2.134l-.115-1.932a4.5 4.5 0 0 1-1.701 1.702q-1.068.576-2.509.576m.115-2.018q1.24 0 2.163-.519a3.6 3.6 0 0 0 1.413-1.528q.519-.98.519-2.365v-.576h-3.547q-2.018 0-2.883.663-.837.663-.836 1.903 0 1.124.836 1.788.836.634 2.335.634m14.943 2.018q-2.105 0-3.258-1.095-1.153-1.096-1.153-3.086v-8.534h-2.509v-2.048h2.509v-4.498h2.306v4.498h4.325v2.048h-4.325v8.304q0 1.095.577 1.701.606.577 1.672.577.346 0 .663-.087.346-.115.894-.519l.894 1.874q-.75.49-1.355.663a3.9 3.9 0 0 1-1.24.202m5.115-.346v-14.417h2.307v14.417zm1.182-17.761q-.576 0-1.009-.433a1.38 1.38 0 0 1-.432-1.009q0-.606.432-1.009a1.4 1.4 0 0 1 1.009-.433q.606 0 1.01.433.432.403.432 1.009 0 .577-.432 1.009-.404.433-1.01.433m11.242 18.107q-2.104 0-3.748-.951a6.96 6.96 0 0 1-2.537-2.682q-.923-1.701-.923-3.921t.894-3.922a6.74 6.74 0 0 1 2.537-2.652q1.644-.981 3.72-.981 2.133 0 3.748.981a6.5 6.5 0 0 1 2.537 2.652q.923 1.702.923 3.922t-.923 3.921a6.75 6.75 0 0 1-2.508 2.682q-1.615.951-3.72.951m0-2.133q1.442 0 2.509-.692 1.067-.693 1.672-1.903.635-1.212.635-2.826t-.635-2.826a4.67 4.67 0 0 0-1.701-1.903q-1.095-.692-2.537-.692-1.413 0-2.509.692-1.066.692-1.701 1.903-.605 1.21-.605 2.826 0 1.586.605 2.826.635 1.21 1.73 1.903 1.124.692 2.537.692m9.848 1.787v-14.417h2.163l.115 2.163q.722-1.21 1.874-1.845 1.153-.664 2.682-.664 1.7 0 2.941.692 1.269.664 1.961 2.134.72 1.47.692 3.864v8.073h-2.307v-7.381q0-2.134-.49-3.258t-1.355-1.529q-.866-.432-1.961-.432-1.904 0-2.97 1.355-1.038 1.326-1.038 3.777v7.468zm15.573 0v-14.417h2.163l.115 2.163q.721-1.21 1.874-1.845 1.154-.664 2.682-.664 1.7 0 2.941.692 1.268.664 1.96 2.134.722 1.47.692 3.864v8.073h-2.306v-7.381q0-2.134-.49-3.258t-1.356-1.529q-.865-.432-1.96-.432-1.904 0-2.97 1.355-1.038 1.326-1.038 3.777v7.468zm21.887.346q-2.105 0-3.719-.951a6.96 6.96 0 0 1-2.538-2.682q-.893-1.701-.893-3.921t.893-3.922q.924-1.701 2.509-2.652 1.614-.981 3.691-.981 2.017 0 3.489 1.01 1.47.98 2.277 2.768t.808 4.209h-11.332q.144 2.365 1.499 3.691t3.432 1.326q1.527 0 2.566-.72a4.8 4.8 0 0 0 1.643-1.903l1.99 1.009a6.4 6.4 0 0 1-1.471 1.96 6.3 6.3 0 0 1-2.133 1.298q-1.212.46-2.711.461m-4.642-9.054h8.679q-.087-1.239-.663-2.133a3.8 3.8 0 0 0-1.442-1.384q-.894-.49-2.018-.49-1.096 0-2.105.49a4.16 4.16 0 0 0-1.672 1.384q-.663.894-.779 2.133m13.563 8.708v-20.183h2.306v20.183zM53.575 416.442q-2.133 0-3.777-.951a6.9 6.9 0 0 1-2.566-2.682q-.923-1.701-.923-3.921t.894-3.922a6.7 6.7 0 0 1 2.566-2.652q1.643-.981 3.749-.981 2.075 0 3.719.952a6.26 6.26 0 0 1 2.508 2.681l-2.104.952a4.2 4.2 0 0 0-1.673-1.788q-1.095-.663-2.508-.663t-2.509.692q-1.066.692-1.7 1.932-.606 1.211-.606 2.797t.605 2.826q.635 1.21 1.73 1.903 1.125.692 2.538.692t2.508-.721q1.125-.721 1.701-2.019l2.105.952q-.865 1.845-2.508 2.883t-3.749 1.038m15.037 0q-2.106 0-3.749-.951a6.96 6.96 0 0 1-2.537-2.682q-.923-1.701-.923-3.921t.894-3.922q.922-1.701 2.537-2.652 1.644-.981 3.72-.981 2.133 0 3.748.981a6.5 6.5 0 0 1 2.537 2.652q.924 1.702.923 3.922 0 2.22-.922 3.921a6.75 6.75 0 0 1-2.509 2.682q-1.615.951-3.72.951m0-2.133q1.44 0 2.508-.692 1.067-.693 1.672-1.903.635-1.212.635-2.826t-.635-2.826a4.67 4.67 0 0 0-1.7-1.903q-1.096-.692-2.538-.692-1.413 0-2.509.692-1.066.692-1.7 1.903-.606 1.21-.606 2.826 0 1.586.605 2.826.635 1.21 1.73 1.903 1.125.692 2.538.692m9.848 1.787v-14.417h2.162l.115 2.163q.722-1.21 1.875-1.845 1.153-.664 2.681-.664 1.701 0 2.941.692 1.27.664 1.96 2.134.722 1.47.693 3.864v8.073H88.58v-7.381q0-2.134-.49-3.258t-1.355-1.529q-.865-.432-1.96-.432-1.905 0-2.97 1.355-1.04 1.326-1.039 3.777v7.468zm20.618.346q-1.586 0-2.768-.461-1.182-.49-1.99-1.269-.777-.779-1.124-1.701l2.018-.836a3.9 3.9 0 0 0 1.47 1.586 4.04 4.04 0 0 0 2.163.605q1.356 0 2.278-.519.923-.547.923-1.528 0-.893-.692-1.442-.663-.547-1.99-.894l-1.384-.374q-1.96-.519-3.056-1.557-1.096-1.067-1.096-2.394 0-2.047 1.327-3.171 1.355-1.154 4.008-1.154 1.268 0 2.306.375a5.2 5.2 0 0 1 1.788 1.067q.75.663 1.096 1.586l-2.019.894q-.375-.981-1.24-1.413-.864-.433-2.104-.433-1.328 0-2.076.577-.75.548-.75 1.557 0 .577.605 1.096.634.49 1.846.807l1.441.375q1.413.346 2.365 1.038.951.663 1.441 1.528t.491 1.846q0 1.297-.692 2.249-.692.951-1.875 1.47-1.182.49-2.71.49m14.252 0q-2.104 0-3.748-.951a6.95 6.95 0 0 1-2.537-2.682q-.924-1.701-.923-3.921 0-2.22.894-3.922a6.74 6.74 0 0 1 2.537-2.652q1.644-.981 3.72-.981 2.133 0 3.748.981a6.5 6.5 0 0 1 2.537 2.652q.923 1.702.923 3.922t-.923 3.921a6.75 6.75 0 0 1-2.508 2.682q-1.615.951-3.72.951m0-2.133q1.442 0 2.509-.692 1.066-.693 1.672-1.903.634-1.212.634-2.826t-.634-2.826a4.67 4.67 0 0 0-1.701-1.903q-1.095-.692-2.537-.692-1.413 0-2.509.692-1.067.692-1.701 1.903-.606 1.21-.606 2.826 0 1.586.606 2.826a4.9 4.9 0 0 0 1.73 1.903q1.124.692 2.537.692m9.848 1.787v-14.417h2.163l.115 2.019q.663-1.153 1.701-1.759t2.422-.606q1.73 0 2.941.808 1.24.807 1.788 2.451.606-1.587 1.759-2.422 1.182-.837 2.797-.837 2.421 0 3.806 1.615 1.413 1.615 1.384 4.902v8.246h-2.307v-7.381q0-2.134-.461-3.258-.433-1.124-1.182-1.529-.75-.432-1.73-.432-1.702 0-2.653 1.355-.951 1.326-.952 3.777v7.468h-2.306v-7.381q0-2.134-.462-3.258-.432-1.124-1.211-1.529-.749-.432-1.73-.432-1.672 0-2.623 1.355-.952 1.326-.952 3.777v7.468zm24.02 0v-14.417h2.163l.115 2.019q.663-1.153 1.701-1.759t2.422-.606q1.73 0 2.941.808 1.24.807 1.788 2.451.606-1.587 1.759-2.422 1.182-.837 2.797-.837 2.421 0 3.806 1.615 1.413 1.615 1.384 4.902v8.246h-2.307v-7.381q0-2.134-.461-3.258-.434-1.124-1.182-1.529-.75-.432-1.73-.432-1.702 0-2.653 1.355-.951 1.326-.952 3.777v7.468h-2.306v-7.381q0-2.134-.462-3.258-.432-1.124-1.211-1.529-.749-.432-1.73-.432-1.672 0-2.623 1.355-.952 1.326-.952 3.777v7.468zm30.335.346q-2.105 0-3.72-.951a6.96 6.96 0 0 1-2.537-2.682q-.894-1.701-.894-3.921t.894-3.922q.923-1.701 2.508-2.652 1.615-.981 3.691-.981 2.019 0 3.489 1.01 1.47.98 2.278 2.768.807 1.787.807 4.209h-11.331q.144 2.365 1.499 3.691t3.431 1.326q1.528 0 2.566-.72a4.8 4.8 0 0 0 1.644-1.903l1.989 1.009a6.4 6.4 0 0 1-1.47 1.96 6.3 6.3 0 0 1-2.134 1.298q-1.211.46-2.71.461m-4.642-9.054h8.679q-.087-1.239-.664-2.133a3.8 3.8 0 0 0-1.441-1.384q-.894-.49-2.019-.49a4.76 4.76 0 0 0-2.105.49 4.16 4.16 0 0 0-1.672 1.384q-.663.894-.778 2.133m26.495 9.054q-2.105 0-3.719-.951a6.95 6.95 0 0 1-2.538-2.682q-.894-1.701-.894-3.921t.894-3.922q.923-1.701 2.509-2.652 1.614-.981 3.69-.981 2.019 0 3.489 1.01 1.471.98 2.278 2.768t.807 4.209H194.57q.144 2.365 1.499 3.691t3.431 1.326q1.529 0 2.567-.72a4.8 4.8 0 0 0 1.643-1.903l1.99 1.009a6.4 6.4 0 0 1-1.471 1.96 6.3 6.3 0 0 1-2.134 1.298q-1.21.46-2.71.461m-4.642-9.054h8.679q-.087-1.239-.663-2.133a3.84 3.84 0 0 0-1.442-1.384q-.894-.49-2.018-.49-1.096 0-2.105.49a4.17 4.17 0 0 0-1.673 1.384q-.663.894-.778 2.133m13.562 8.708v-14.417h2.163l.115 2.163q.722-1.21 1.874-1.845 1.154-.664 2.682-.664 1.7 0 2.941.692 1.268.664 1.961 2.134.72 1.47.692 3.864v8.073h-2.307v-7.381q0-2.134-.49-3.258t-1.355-1.529q-.866-.432-1.961-.432-1.903 0-2.97 1.355-1.038 1.326-1.038 3.777v7.468zm19.615 0-6.026-14.417h2.393l4.844 11.736 4.815-11.736h2.422l-6.026 14.417zm10.351 0v-14.417h2.307v14.417zm1.183-17.761q-.577 0-1.01-.433a1.38 1.38 0 0 1-.432-1.009q0-.606.432-1.009a1.4 1.4 0 0 1 1.01-.433q.605 0 1.009.433.432.403.432 1.009 0 .577-.432 1.009a1.32 1.32 0 0 1-1.009.433m4.869 17.761v-14.417h2.307v2.567q.866-1.356 2.22-1.99a6.85 6.85 0 0 1 2.884-.634v2.162q-1.269 0-2.451.433a4.1 4.1 0 0 0-1.903 1.355q-.75.951-.75 2.595v7.929zm15.61.346q-2.105 0-3.748-.951a6.95 6.95 0 0 1-2.538-2.682q-.923-1.701-.923-3.921t.894-3.922q.922-1.701 2.538-2.652 1.643-.981 3.719-.981 2.134 0 3.749.981a6.5 6.5 0 0 1 2.537 2.652q.923 1.702.923 3.922t-.923 3.921a6.75 6.75 0 0 1-2.509 2.682q-1.614.951-3.719.951m0-2.133q1.442 0 2.508-.692 1.067-.693 1.673-1.903.634-1.212.634-2.826t-.634-2.826a4.67 4.67 0 0 0-1.701-1.903q-1.096-.692-2.538-.692-1.413 0-2.508.692-1.068.692-1.701 1.903-.606 1.21-.606 2.826 0 1.586.606 2.826a4.87 4.87 0 0 0 1.73 1.903q1.124.692 2.537.692m9.848 1.787v-14.417h2.162l.116 2.163q.72-1.21 1.874-1.845 1.154-.664 2.681-.664 1.702 0 2.941.692 1.27.664 1.961 2.134.721 1.47.692 3.864v8.073h-2.307v-7.381q0-2.134-.49-3.258t-1.355-1.529q-.865-.432-1.961-.432-1.902 0-2.969 1.355-1.038 1.326-1.038 3.777v7.468zm-217.88 35.346q-1.73 0-2.94-.692-1.182-.692-1.817-2.133-.634-1.471-.634-3.778v-8.16h3.806v7.382q0 1.441.317 2.278.346.807.952 1.182.634.346 1.413.346 1.499.029 2.277-.894.78-.951.779-2.739v-7.555h3.806v14.417h-3.575l-.145-1.96a5.1 5.1 0 0 1-1.816 1.701q-1.067.605-2.422.605m10.75-.346v-14.417h3.576l.173 1.961q.693-1.125 1.759-1.701 1.095-.606 2.48-.606 1.701 0 2.912.692 1.21.693 1.845 2.163.635 1.442.606 3.748v8.16h-3.806v-7.381q0-1.471-.346-2.278-.318-.808-.923-1.153-.606-.375-1.413-.375-1.47-.029-2.278.894-.778.923-.778 2.739v7.554zm27.986.346q-1.99 0-3.46-.922-1.44-.923-2.249-2.624-.807-1.701-.807-4.008 0-2.335.807-4.008.807-1.701 2.25-2.624 1.47-.923 3.46-.923 1.412 0 2.508.606a4.6 4.6 0 0 1 1.816 1.672v-7.698h3.806v20.183h-3.604l-.115-2.018a5.2 5.2 0 0 1-1.846 1.759q-1.125.605-2.566.605m.98-3.489q.952 0 1.673-.461a3.4 3.4 0 0 0 1.182-1.355q.433-.865.49-1.961v-.577q-.058-1.095-.49-1.931-.432-.865-1.182-1.327a3.05 3.05 0 0 0-1.701-.49q-1.038 0-1.846.519-.778.49-1.24 1.413-.432.923-.432 2.105t.461 2.105q.462.922 1.24 1.441.808.519 1.846.519m16.441 3.489q-2.133 0-3.777-.951a7.1 7.1 0 0 1-2.595-2.682q-.922-1.701-.922-3.921t.951-3.922a7.03 7.03 0 0 1 2.653-2.652q1.7-.981 3.892-.981 1.904 0 3.489 1.01 1.615.98 2.566 2.912.981 1.903.981 4.642h-10.553q.144 1.442 1.239 2.307a4 4 0 0 0 2.48.836q1.182 0 1.932-.49a3.5 3.5 0 0 0 1.153-1.327l3.403 1.327a7.2 7.2 0 0 1-1.586 2.105q-.952.864-2.278 1.326-1.326.46-3.028.461m-3.114-9.371h6.228q-.085-.894-.576-1.441a3 3 0 0 0-1.154-.808 3.5 3.5 0 0 0-1.297-.259q-.606 0-1.326.259a3.15 3.15 0 0 0-1.24.779q-.52.548-.635 1.47m12.058 9.025v-14.417h3.575l.173 1.875q.664-1.096 1.702-1.644a4.67 4.67 0 0 1 2.306-.577q1.76 0 2.941.75 1.212.75 1.759 2.307.635-1.471 1.788-2.249 1.154-.808 2.681-.808 2.538 0 3.864 1.615 1.326 1.586 1.326 4.902v8.246h-3.806v-7.381q0-1.471-.317-2.278-.317-.808-.865-1.153-.548-.375-1.297-.375-1.384-.029-2.134.894t-.75 2.739v7.554h-3.806v-7.381q0-1.471-.317-2.278-.288-.808-.865-1.153-.548-.375-1.297-.375-1.384-.029-2.134.894-.721.923-.721 2.739v7.554zm24.87 0v-14.417h3.806v14.417zm1.903-16.752q-.865 0-1.528-.634-.663-.663-.663-1.557t.663-1.529q.663-.663 1.528-.663.894 0 1.528.663.664.635.664 1.529t-.664 1.557a2.08 2.08 0 0 1-1.528.634m4.821 9.803v-3.258h8.65v3.258zm11.351 6.949v-20.183h3.806v20.183zm6.821 0v-14.417h3.806v14.417zm1.903-16.752q-.865 0-1.528-.634-.663-.663-.663-1.557t.663-1.529q.663-.663 1.528-.663.894 0 1.528.663.663.635.663 1.529t-.663 1.557a2.08 2.08 0 0 1-1.528.634m10.847 17.098q-2.394 0-3.633-1.182-1.21-1.183-1.211-3.373v-6.978h-2.336v-3.23h2.336v-4.498h3.806v4.498h3.604v3.23h-3.604v6.141q0 .923.404 1.413.404.462 1.182.462.288 0 .634-.116.346-.144.721-.403l1.326 2.854a6 6 0 0 1-1.557.836 4.3 4.3 0 0 1-1.672.346m5.156-.346v-14.417h3.806v2.653q.893-1.355 2.249-2.018a6.3 6.3 0 0 1 2.854-.692v3.69q-1.326 0-2.508.318-1.154.317-1.874 1.038-.721.72-.721 1.845v7.583zm16.936.346q-2.134 0-3.777-.951a7.1 7.1 0 0 1-2.595-2.682q-.923-1.701-.923-3.921t.952-3.922a7 7 0 0 1 2.652-2.652q1.701-.981 3.893-.981 1.902 0 3.489 1.01 1.614.98 2.566 2.912.98 1.903.98 4.642h-10.553q.145 1.442 1.24 2.307 1.095.836 2.48.836 1.182 0 1.931-.49.75-.519 1.154-1.327l3.402 1.327a7.2 7.2 0 0 1-1.586 2.105q-.95.864-2.278 1.326-1.326.46-3.027.461m-3.114-9.371h6.228q-.087-.894-.577-1.441a3 3 0 0 0-1.153-.808 3.6 3.6 0 0 0-1.298-.259q-.604 0-1.326.259a3.16 3.16 0 0 0-1.24.779q-.519.548-.634 1.47m24.161 9.371q-1.99 0-3.46-.922-1.442-.923-2.249-2.624t-.808-4.008q0-2.335.808-4.008.807-1.701 2.249-2.624 1.47-.923 3.46-.923 1.412 0 2.508.606 1.125.576 1.817 1.672v-7.698h3.806v20.183h-3.605l-.115-2.018a5.2 5.2 0 0 1-1.845 1.759q-1.125.605-2.566.605m.98-3.489q.951 0 1.672-.461.75-.49 1.182-1.355.433-.865.491-1.961v-.577q-.058-1.095-.491-1.931-.432-.865-1.182-1.327a3.05 3.05 0 0 0-1.701-.49q-1.038 0-1.845.519-.779.49-1.24 1.413-.433.923-.433 2.105t.462 2.105 1.24 1.441q.807.519 1.845.519m8.656-10.236 1.759-6.804h3.95l-2.826 6.804zm13.587 13.725q-2.135 0-3.777-.951a7.1 7.1 0 0 1-2.595-2.682q-.924-1.701-.923-3.921 0-2.22.951-3.922a7.03 7.03 0 0 1 2.653-2.652q1.701-.981 3.893-.981 1.902 0 3.488 1.01 1.615.98 2.567 2.912.98 1.903.98 4.642h-10.553q.144 1.442 1.24 2.307 1.096.836 2.479.836 1.183 0 1.932-.49a3.5 3.5 0 0 0 1.154-1.327l3.402 1.327a7.2 7.2 0 0 1-1.586 2.105q-.952.864-2.278 1.326-1.326.46-3.027.461m-3.114-9.371h6.228q-.087-.894-.577-1.441a3 3 0 0 0-1.153-.808 3.6 3.6 0 0 0-1.298-.259q-.605 0-1.326.259a3.15 3.15 0 0 0-1.24.779q-.519.548-.634 1.47m16.728 9.371q-2.595 0-4.036-1.153-1.413-1.154-1.413-3.258 0-2.307 1.528-3.46 1.557-1.182 4.354-1.183h3.402q-.201-1.326-.836-2.018-.634-.72-1.816-.721-.923 0-1.673.404-.75.403-1.268 1.24l-3.345-1.154a6.7 6.7 0 0 1 1.182-1.787q.779-.894 2.018-1.442 1.27-.577 3.086-.577 2.19 0 3.633.837a5.05 5.05 0 0 1 2.162 2.364q.721 1.5.692 3.575l-.086 7.987h-3.547l-.058-1.672a3.66 3.66 0 0 1-1.557 1.499q-.98.519-2.422.519m.635-3.171a3.3 3.3 0 0 0 1.672-.433q.75-.432 1.182-1.124.433-.692.433-1.442v-.058h-2.163q-1.874 0-2.595.462-.72.432-.721 1.239 0 .635.577 1.01.577.346 1.615.346m14.695 3.171q-1.73 0-2.941-.692-1.182-.692-1.816-2.133-.634-1.471-.634-3.778v-8.16h3.806v7.382q0 1.441.317 2.278.346.807.951 1.182.634.346 1.413.346 1.5.029 2.278-.894.778-.951.778-2.739v-7.555h3.807v14.417h-3.576l-.144-1.96a5.1 5.1 0 0 1-1.817 1.701q-1.066.605-2.422.605m-227.91 40.421v-20.184h3.575l.173 2.048q.72-1.154 1.817-1.759 1.124-.635 2.595-.635 1.99 0 3.43.923 1.471.923 2.278 2.624.808 1.673.808 4.008 0 2.307-.808 4.008-.807 1.7-2.277 2.624-1.442.922-3.431.922-1.442 0-2.538-.605a5.1 5.1 0 0 1-1.816-1.701v7.727zm7.18-8.91q1.037 0 1.816-.519a3.57 3.57 0 0 0 1.268-1.441q.462-.923.462-2.105t-.462-2.105q-.432-.923-1.24-1.413-.778-.519-1.816-.519a3.1 3.1 0 0 0-1.759.519q-.778.52-1.21 1.442-.434.894-.433 2.076 0 1.182.432 2.105.433.922 1.182 1.441a3.1 3.1 0 0 0 1.76.519m16.263 3.489q-2.191 0-3.921-.951a7.2 7.2 0 0 1-2.682-2.682q-.951-1.701-.951-3.921t.951-3.922a6.77 6.77 0 0 1 2.653-2.652q1.7-.981 3.892-.981 2.22 0 3.922.981a6.77 6.77 0 0 1 2.652 2.652q.952 1.702.952 3.922t-.952 3.921a7 7 0 0 1-2.652 2.682q-1.673.951-3.864.951m0-3.517q1.067 0 1.874-.519a3.4 3.4 0 0 0 1.24-1.413q.462-.923.461-2.105 0-1.182-.461-2.076a3.5 3.5 0 0 0-1.298-1.442q-.807-.519-1.874-.519-1.037 0-1.874.519a3.57 3.57 0 0 0-1.269 1.442q-.46.894-.46 2.076t.46 2.105a3.54 3.54 0 0 0 1.298 1.413q.836.519 1.903.519m15.412 3.517q-2.392 0-3.633-1.182-1.21-1.183-1.21-3.373v-6.978H78.59v-3.23h2.335v-4.498h3.806v4.498h3.604v3.23h-3.604v6.141q0 .923.404 1.413.404.462 1.182.462.288 0 .634-.116.346-.144.721-.403L89 485.26a6 6 0 0 1-1.556.836 4.3 4.3 0 0 1-1.673.346m9.574 0q-2.595 0-4.037-1.153-1.413-1.154-1.413-3.258 0-2.307 1.528-3.46 1.557-1.182 4.354-1.183h3.403q-.203-1.326-.837-2.018-.633-.72-1.816-.721-.923 0-1.672.404-.75.403-1.27 1.24l-3.344-1.154a6.7 6.7 0 0 1 1.182-1.787q.78-.894 2.019-1.442 1.269-.577 3.085-.577 2.19 0 3.633.837a5.05 5.05 0 0 1 2.162 2.364q.722 1.5.692 3.575l-.086 7.987H99.38l-.057-1.672a3.67 3.67 0 0 1-1.557 1.499q-.98.519-2.422.519m.634-3.171a3.3 3.3 0 0 0 1.672-.433q.75-.432 1.183-1.124.432-.692.432-1.442v-.058h-2.162q-1.875 0-2.596.462-.72.432-.72 1.239 0 .635.576 1.01.577.346 1.615.346m17.723 3.171q-1.47 0-2.566-.605-1.095-.635-1.845-1.788l-.144 2.047h-3.605v-20.183h3.806v7.727q.721-1.125 1.817-1.701 1.095-.606 2.537-.606 1.99 0 3.431.923 1.471.923 2.278 2.624.808 1.673.808 4.008 0 2.307-.808 4.008-.807 1.7-2.278 2.624-1.441.922-3.431.922m-.98-3.489q1.038 0 1.816-.519a3.56 3.56 0 0 0 1.269-1.441q.462-.923.461-2.105 0-1.182-.461-2.105-.432-.923-1.24-1.413-.778-.519-1.816-.519-.98 0-1.759.519-.779.52-1.211 1.442-.433.894-.433 2.076t.433 2.105q.432.922 1.182 1.441a3.1 3.1 0 0 0 1.759.519m9.491 3.143v-20.183h3.806v20.183zm13.107.346q-2.134 0-3.777-.951a7.1 7.1 0 0 1-2.595-2.682q-.923-1.701-.923-3.921t.952-3.922a7 7 0 0 1 2.652-2.652q1.701-.981 3.893-.981 1.902 0 3.489 1.01 1.614.98 2.566 2.912.98 1.903.98 4.642h-10.553q.144 1.442 1.24 2.307 1.095.836 2.48.836 1.182 0 1.931-.49.75-.519 1.154-1.327l3.402 1.327a7.2 7.2 0 0 1-1.586 2.105q-.95.864-2.278 1.326-1.326.46-3.027.461m-3.114-9.371h6.228q-.087-.894-.577-1.441a3 3 0 0 0-1.153-.808 3.6 3.6 0 0 0-1.298-.259q-.605 0-1.326.259a3.16 3.16 0 0 0-1.24.779q-.519.548-.634 1.47m13.989 9.458q-.951 0-1.643-.692a2.3 2.3 0 0 1-.663-1.644q0-.923.663-1.614a2.24 2.24 0 0 1 1.643-.692q.952 0 1.615.692.692.692.692 1.614 0 .952-.692 1.644-.663.692-1.615.692"/></svg>