<svg width="424" height="261" viewBox="0 0 424 261" fill="none" xmlns="http://www.w3.org/2000/svg">
<rect x="1.41022" y="1.41022" width="420.247" height="257.851" rx="6.92902" stroke="#88F154" stroke-width="2.82045"/>
<path d="M55.1089 62.4259C53.3332 62.4259 51.7567 62.0442 50.3793 61.2808C49.0185 60.5009 47.9481 59.4388 47.1681 58.0946C46.3882 56.7338 45.9982 55.1739 45.9982 53.4148C45.9982 51.6557 46.3882 50.1041 47.1681 48.7599C47.9481 47.3991 49.0185 46.337 50.3793 45.5736C51.7567 44.7936 53.3332 44.4036 55.1089 44.4036C56.171 44.4036 57.1501 44.5613 58.0462 44.8766C58.9424 45.1919 59.7306 45.6317 60.411 46.1959C61.108 46.7435 61.6889 47.3742 62.1535 48.0878L59.3655 49.8302C59.0834 49.3822 58.71 48.9839 58.2454 48.6354C57.7973 48.2869 57.2995 48.0131 56.7518 47.8139C56.2042 47.6148 55.6565 47.5152 55.1089 47.5152C54.0136 47.5152 53.0428 47.7724 52.1965 48.2869C51.3501 48.7847 50.6863 49.4734 50.2051 50.353C49.7238 51.2325 49.4832 52.2531 49.4832 53.4148C49.4832 54.5598 49.7155 55.5804 50.1802 56.4766C50.6614 57.3727 51.3335 58.078 52.1965 58.5924C53.0594 59.0903 54.0551 59.3392 55.1836 59.3392C56.0299 59.3392 56.785 59.1816 57.4488 58.8663C58.1126 58.5344 58.6437 58.078 59.0419 57.4972C59.4402 56.9163 59.6643 56.2359 59.714 55.456H55.6814V52.7925H62.9999V54.9083C62.9667 56.5015 62.6099 57.8623 61.9295 58.9907C61.2491 60.1026 60.3198 60.9572 59.1415 61.5547C57.9633 62.1355 56.6191 62.4259 55.1089 62.4259ZM69.7887 62.4259C68.5606 62.4259 67.4737 62.1521 66.5277 61.6045C65.5818 61.0402 64.835 60.2685 64.2874 59.2894C63.7564 58.3103 63.4908 57.1819 63.4908 55.904C63.4908 54.6262 63.7647 53.4978 64.3123 52.5186C64.8765 51.5395 65.6399 50.7762 66.6024 50.2285C67.5815 49.6643 68.7017 49.3822 69.9629 49.3822C71.0582 49.3822 72.0622 49.6726 72.9749 50.2534C73.9043 50.8176 74.6427 51.6557 75.1904 52.7676C75.7546 53.8628 76.0367 55.1987 76.0367 56.7753H66.926C67.009 57.605 67.3658 58.2688 67.9964 58.7667C68.627 59.2479 69.3406 59.4886 70.1372 59.4886C70.8176 59.4886 71.3735 59.3475 71.805 59.0654C72.2364 58.7667 72.5683 58.385 72.8007 57.9203L75.738 59.0654C75.3895 59.7624 74.9331 60.3681 74.3689 60.8826C73.8213 61.3804 73.1658 61.7621 72.4024 62.0276C71.639 62.2931 70.7678 62.4259 69.7887 62.4259ZM67.1003 54.3358H72.4771C72.4273 53.8214 72.2613 53.4065 71.9792 53.0912C71.6971 52.7759 71.3652 52.5435 70.9835 52.3942C70.6018 52.2448 70.2284 52.1701 69.8633 52.1701C69.5149 52.1701 69.1332 52.2448 68.7183 52.3942C68.32 52.5269 67.9632 52.751 67.6479 53.0663C67.3492 53.3816 67.1666 53.8048 67.1003 54.3358ZM67.8968 48.1375L70.7346 44.7024H74.4187L71.2076 48.1375H67.8968ZM77.137 62.1272V49.6809H80.2237L80.373 51.3736C80.7713 50.7264 81.2775 50.2368 81.8915 49.9049C82.5221 49.5564 83.2357 49.3822 84.0322 49.3822C85.0113 49.3822 85.8494 49.5813 86.5464 49.9796C87.2434 50.3779 87.7744 51.0002 88.1395 51.8465C88.5046 52.6763 88.6789 53.755 88.6623 55.0826V62.1272H85.3764V55.7547C85.3764 54.9083 85.2769 54.2528 85.0777 53.7882C84.8952 53.3235 84.6297 52.9916 84.2812 52.7925C83.9327 52.5767 83.5261 52.4689 83.0614 52.4689C82.2151 52.4523 81.5596 52.7095 81.0949 53.2405C80.6468 53.7716 80.4228 54.5598 80.4228 55.6053V62.1272H77.137ZM96.0285 62.4259C94.8004 62.4259 93.7134 62.1521 92.7675 61.6045C91.8216 61.0402 91.0748 60.2685 90.5272 59.2894C89.9961 58.3103 89.7306 57.1819 89.7306 55.904C89.7306 54.6262 90.0044 53.4978 90.5521 52.5186C91.1163 51.5395 91.8797 50.7762 92.8422 50.2285C93.8213 49.6643 94.9415 49.3822 96.2027 49.3822C97.298 49.3822 98.302 49.6726 99.2147 50.2534C100.144 50.8176 100.883 51.6557 101.43 52.7676C101.994 53.8628 102.277 55.1987 102.277 56.7753H93.1658C93.2488 57.605 93.6056 58.2688 94.2362 58.7667C94.8668 59.2479 95.5804 59.4886 96.377 59.4886C97.0574 59.4886 97.6133 59.3475 98.0448 59.0654C98.4762 58.7667 98.8081 58.385 99.0405 57.9203L101.978 59.0654C101.629 59.7624 101.173 60.3681 100.609 60.8826C100.061 61.3804 99.4056 61.7621 98.6422 62.0276C97.8788 62.2931 97.0076 62.4259 96.0285 62.4259ZM93.3401 54.3358H98.7169C98.6671 53.8214 98.5011 53.4065 98.219 53.0912C97.9369 52.7759 97.605 52.5435 97.2233 52.3942C96.8416 52.2448 96.4682 52.1701 96.1031 52.1701C95.7546 52.1701 95.373 52.2448 94.9581 52.3942C94.5598 52.5269 94.203 52.751 93.8877 53.0663C93.589 53.3816 93.4064 53.8048 93.3401 54.3358ZM94.1366 48.1375L96.9744 44.7024H100.658L97.4473 48.1375H94.1366ZM103.377 62.1272V49.6809H106.663V51.971C107.177 51.191 107.824 50.6102 108.604 50.2285C109.401 49.8302 110.222 49.6311 111.069 49.6311V52.8174C110.305 52.8174 109.583 52.9086 108.903 53.0912C108.239 53.2737 107.7 53.5724 107.285 53.9873C106.87 54.4022 106.663 54.9332 106.663 55.5804V62.1272H103.377ZM117.552 62.4259C116.324 62.4259 115.237 62.1521 114.291 61.6045C113.345 61.0402 112.599 60.2685 112.051 59.2894C111.52 58.3103 111.254 57.1819 111.254 55.904C111.254 54.6262 111.528 53.4978 112.076 52.5186C112.64 51.5395 113.404 50.7762 114.366 50.2285C115.345 49.6643 116.465 49.3822 117.727 49.3822C118.822 49.3822 119.826 49.6726 120.739 50.2534C121.668 50.8176 122.406 51.6557 122.954 52.7676C123.518 53.8628 123.8 55.1987 123.8 56.7753H114.69C114.773 57.605 115.129 58.2688 115.76 58.7667C116.391 59.2479 117.104 59.4886 117.901 59.4886C118.581 59.4886 119.137 59.3475 119.569 59.0654C120 58.7667 120.332 58.385 120.564 57.9203L123.502 59.0654C123.153 59.7624 122.697 60.3681 122.133 60.8826C121.585 61.3804 120.929 61.7621 120.166 62.0276C119.403 62.2931 118.531 62.4259 117.552 62.4259ZM114.864 54.3358H120.241C120.191 53.8214 120.025 53.4065 119.743 53.0912C119.461 52.7759 119.129 52.5435 118.747 52.3942C118.365 52.2448 117.992 52.1701 117.627 52.1701C117.278 52.1701 116.897 52.2448 116.482 52.3942C116.084 52.5269 115.727 52.751 115.412 53.0663C115.113 53.3816 114.93 53.8048 114.864 54.3358ZM124.828 62.1272V49.6809H128.113V51.971C128.628 51.191 129.275 50.6102 130.055 50.2285C130.852 49.8302 131.673 49.6311 132.519 49.6311V52.8174C131.756 52.8174 131.034 52.9086 130.354 53.0912C129.69 53.2737 129.151 53.5724 128.736 53.9873C128.321 54.4022 128.113 54.9332 128.113 55.5804V62.1272H124.828ZM142.858 62.4259C141.862 62.4259 141.015 62.2268 140.318 61.8285C139.638 61.4302 139.115 60.8162 138.75 59.9864C138.385 59.1401 138.203 58.0531 138.203 56.7255V49.6809H141.488V56.0534C141.488 56.8831 141.58 57.5387 141.762 58.0199C141.961 58.4846 142.235 58.8248 142.584 59.0405C142.949 59.2397 143.355 59.3392 143.803 59.3392C144.666 59.3558 145.322 59.0986 145.77 58.5676C146.218 58.0199 146.442 57.2316 146.442 56.2028V49.6809H149.728V62.1272H146.641L146.517 60.4345C146.102 61.0651 145.579 61.5547 144.949 61.9032C144.335 62.2517 143.638 62.4259 142.858 62.4259ZM151.692 62.1272V49.6809H154.779L154.928 51.3736C155.327 50.7264 155.833 50.2368 156.447 49.9049C157.078 49.5564 157.791 49.3822 158.588 49.3822C159.567 49.3822 160.405 49.5813 161.102 49.9796C161.799 50.3779 162.33 51.0002 162.695 51.8465C163.06 52.6763 163.234 53.755 163.218 55.0826V62.1272H159.932V55.7547C159.932 54.9083 159.832 54.2528 159.633 53.7882C159.451 53.3235 159.185 52.9916 158.837 52.7925C158.488 52.5767 158.082 52.4689 157.617 52.4689C156.771 52.4523 156.115 52.7095 155.65 53.2405C155.202 53.7716 154.978 54.5598 154.978 55.6053V62.1272H151.692ZM170.584 62.4259C169.356 62.4259 168.269 62.1521 167.323 61.6045C166.377 61.0402 165.63 60.2685 165.083 59.2894C164.552 58.3103 164.286 57.1819 164.286 55.904C164.286 54.6262 164.56 53.4978 165.108 52.5186C165.672 51.5395 166.435 50.7762 167.398 50.2285C168.377 49.6643 169.497 49.3822 170.758 49.3822C171.853 49.3822 172.857 49.6726 173.77 50.2534C174.699 50.8176 175.438 51.6557 175.986 52.7676C176.55 53.8628 176.832 55.1987 176.832 56.7753H167.721C167.804 57.605 168.161 58.2688 168.792 58.7667C169.422 59.2479 170.136 59.4886 170.932 59.4886C171.613 59.4886 172.169 59.3475 172.6 59.0654C173.032 58.7667 173.364 58.385 173.596 57.9203L176.533 59.0654C176.185 59.7624 175.728 60.3681 175.164 60.8826C174.617 61.3804 173.961 61.7621 173.198 62.0276C172.434 62.2931 171.563 62.4259 170.584 62.4259ZM167.895 54.3358H173.272C173.223 53.8214 173.057 53.4065 172.774 53.0912C172.492 52.7759 172.16 52.5435 171.779 52.3942C171.397 52.2448 171.024 52.1701 170.659 52.1701C170.31 52.1701 169.928 52.2448 169.514 52.3942C169.115 52.5269 168.758 52.751 168.443 53.0663C168.144 53.3816 167.962 53.8048 167.895 54.3358ZM183.108 62.1272V49.6809H186.393V62.1272H183.108ZM184.751 47.6646C184.253 47.6646 183.813 47.482 183.431 47.1169C183.05 46.7353 182.859 46.2872 182.859 45.7727C182.859 45.2583 183.05 44.8185 183.431 44.4534C183.813 44.0717 184.253 43.8809 184.751 43.8809C185.265 43.8809 185.705 44.0717 186.07 44.4534C186.452 44.8185 186.642 45.2583 186.642 45.7727C186.642 46.2872 186.452 46.7353 186.07 47.1169C185.705 47.482 185.265 47.6646 184.751 47.6646ZM188.541 62.1272V49.6809H191.628L191.777 51.2989C192.159 50.6683 192.648 50.1953 193.246 49.88C193.843 49.5481 194.507 49.3822 195.237 49.3822C196.25 49.3822 197.096 49.5979 197.776 50.0294C198.473 50.4608 198.979 51.1247 199.295 52.0208C199.66 51.1744 200.174 50.5272 200.838 50.0792C201.502 49.6145 202.274 49.3822 203.153 49.3822C204.614 49.3822 205.725 49.8468 206.489 50.7762C207.252 51.6889 207.634 53.0995 207.634 55.0079V62.1272H204.348V55.7547C204.348 54.9083 204.257 54.2528 204.074 53.7882C203.892 53.3235 203.643 52.9916 203.327 52.7925C203.012 52.5767 202.639 52.4689 202.207 52.4689C201.411 52.4523 200.797 52.7095 200.365 53.2405C199.934 53.7716 199.718 54.5598 199.718 55.6053V62.1272H196.432V55.7547C196.432 54.9083 196.341 54.2528 196.158 53.7882C195.992 53.3235 195.743 52.9916 195.412 52.7925C195.096 52.5767 194.723 52.4689 194.291 52.4689C193.495 52.4523 192.881 52.7095 192.449 53.2405C192.034 53.7716 191.827 54.5598 191.827 55.6053V62.1272H188.541ZM213.4 62.4259C211.906 62.4259 210.744 62.094 209.915 61.4302C209.102 60.7664 208.695 59.8288 208.695 58.6173C208.695 57.2897 209.135 56.294 210.014 55.6302C210.91 54.9498 212.163 54.6096 213.773 54.6096H216.71C216.594 53.8462 216.354 53.2654 215.989 52.8671C215.623 52.4523 215.101 52.2448 214.42 52.2448C213.889 52.2448 213.408 52.361 212.977 52.5933C212.545 52.8256 212.18 53.1824 211.881 53.6637L208.994 52.668C209.226 52.137 209.566 51.6225 210.014 51.1247C210.462 50.6102 211.043 50.1953 211.757 49.88C212.487 49.5481 213.375 49.3822 214.42 49.3822C215.682 49.3822 216.727 49.6228 217.557 50.1041C218.403 50.5853 219.025 51.2657 219.424 52.1453C219.839 53.0082 220.038 54.0371 220.021 55.2319L219.946 62.1272H216.885L216.835 60.6834C216.52 61.2477 216.072 61.6791 215.491 61.9778C214.926 62.2766 214.229 62.4259 213.4 62.4259ZM213.947 59.6877C214.478 59.6877 214.96 59.5633 215.391 59.3143C215.823 59.0654 216.163 58.7418 216.412 58.3435C216.661 57.9452 216.785 57.5304 216.785 57.0989V57.0491H214.918C213.839 57.0491 213.093 57.1819 212.678 57.4474C212.263 57.6963 212.055 58.0531 212.055 58.5178C212.055 58.8829 212.221 59.1733 212.553 59.389C212.885 59.5881 213.35 59.6877 213.947 59.6877ZM227.359 67.4293C226.413 67.4293 225.575 67.3629 224.844 67.2302C224.114 67.0974 223.5 66.9232 223.002 66.7074C222.504 66.4917 222.098 66.276 221.783 66.0602L223.077 63.4216C223.309 63.5544 223.616 63.7037 223.998 63.8697C224.38 64.0522 224.836 64.2016 225.367 64.3177C225.898 64.4505 226.512 64.5169 227.209 64.5169C227.873 64.5169 228.454 64.3841 228.952 64.1186C229.466 63.8697 229.864 63.4714 230.147 62.9238C230.445 62.3927 230.595 61.7123 230.595 60.8826V59.6877C230.18 60.3349 229.64 60.8494 228.977 61.2311C228.313 61.5962 227.558 61.7787 226.711 61.7787C225.566 61.7787 224.571 61.5298 223.724 61.0319C222.894 60.5341 222.247 59.8371 221.783 58.9409C221.318 58.0448 221.086 56.9827 221.086 55.7547C221.086 54.4603 221.318 53.3401 221.783 52.3942C222.247 51.4317 222.894 50.6932 223.724 50.1787C224.571 49.6477 225.566 49.3822 226.711 49.3822C227.558 49.3822 228.313 49.5813 228.977 49.9796C229.64 50.3613 230.18 50.9089 230.595 51.6225V49.6809H233.88V60.783C233.88 62.177 233.615 63.3718 233.084 64.3675C232.553 65.3798 231.798 66.1432 230.819 66.6577C229.856 67.1721 228.703 67.4293 227.359 67.4293ZM227.657 59.0156C228.222 59.0156 228.711 58.8746 229.126 58.5924C229.557 58.2937 229.889 57.8954 230.122 57.3976C230.354 56.8831 230.47 56.3023 230.47 55.6551C230.47 54.9913 230.346 54.4105 230.097 53.9126C229.864 53.4148 229.533 53.0248 229.101 52.7427C228.686 52.4606 228.197 52.3195 227.632 52.3195C227.052 52.3195 226.537 52.4606 226.089 52.7427C225.641 53.0248 225.292 53.4148 225.044 53.9126C224.795 54.4105 224.662 54.9913 224.645 55.6551C224.662 56.3023 224.795 56.8831 225.044 57.3976C225.292 57.8954 225.641 58.2937 226.089 58.5924C226.554 58.8746 227.076 59.0156 227.657 59.0156ZM241.451 62.4259C240.223 62.4259 239.136 62.1521 238.19 61.6045C237.245 61.0402 236.498 60.2685 235.95 59.2894C235.419 58.3103 235.154 57.1819 235.154 55.904C235.154 54.6262 235.427 53.4978 235.975 52.5186C236.539 51.5395 237.303 50.7762 238.265 50.2285C239.244 49.6643 240.364 49.3822 241.626 49.3822C242.721 49.3822 243.725 49.6726 244.638 50.2534C245.567 50.8176 246.305 51.6557 246.853 52.7676C247.417 53.8628 247.699 55.1987 247.699 56.7753H238.589C238.672 57.605 239.029 58.2688 239.659 58.7667C240.29 59.2479 241.003 59.4886 241.8 59.4886C242.48 59.4886 243.036 59.3475 243.468 59.0654C243.899 58.7667 244.231 58.385 244.463 57.9203L247.401 59.0654C247.052 59.7624 246.596 60.3681 246.032 60.8826C245.484 61.3804 244.829 61.7621 244.065 62.0276C243.302 62.2931 242.431 62.4259 241.451 62.4259ZM238.763 54.3358H244.14C244.09 53.8214 243.924 53.4065 243.642 53.0912C243.36 52.7759 243.028 52.5435 242.646 52.3942C242.265 52.2448 241.891 52.1701 241.526 52.1701C241.178 52.1701 240.796 52.2448 240.381 52.3942C239.983 52.5269 239.626 52.751 239.311 53.0663C239.012 53.3816 238.829 53.8048 238.763 54.3358Z" fill="#88F154"/>
<path d="M111.156 95.3575C113.485 95.0895 115.589 96.7597 115.858 99.0882L122.452 156.355C122.72 158.684 121.05 160.789 118.722 161.057L61.4546 167.652C59.126 167.92 57.0211 166.25 56.7527 163.921L50.1581 106.654C49.89 104.325 51.5601 102.22 53.8888 101.952L111.156 95.3575Z" stroke="#88F154" stroke-width="4.37169" stroke-linecap="round" stroke-linejoin="round"/>
<path d="M57.1913 148.672L79.8747 135.698L119.333 148.424" stroke="#88F154" stroke-width="4.37169" stroke-linecap="round" stroke-linejoin="round"/>
<path d="M99.1493 123.118C95.384 123.552 91.9804 120.851 91.5468 117.086C91.1132 113.321 93.8139 109.917 97.5792 109.483C101.344 109.05 104.748 111.751 105.182 115.516C105.615 119.281 102.915 122.685 99.1493 123.118Z" stroke="#88F154" stroke-width="4.37169" stroke-linecap="round" stroke-linejoin="round"/>
<path d="M54.4612 215.544V211.977C54.4612 211.295 54.6731 210.541 55.0969 209.717C55.5207 208.893 56.1093 208.069 56.8627 207.245C57.6162 206.421 58.4991 205.656 59.5115 204.949L63.2551 202.265C63.773 201.912 64.2557 201.512 64.703 201.065C65.1739 200.617 65.5506 200.135 65.8332 199.617C66.1393 199.075 66.2923 198.557 66.2923 198.063C66.2923 197.451 66.1393 196.897 65.8332 196.403C65.5506 195.908 65.1268 195.52 64.5618 195.237C63.9967 194.955 63.3021 194.814 62.4781 194.814C61.7718 194.814 61.1361 194.955 60.571 195.237C60.0295 195.52 59.5821 195.897 59.229 196.367C58.8758 196.838 58.6286 197.345 58.4873 197.886L53.5076 197.038C53.7431 195.861 54.2493 194.766 55.0263 193.754C55.8032 192.742 56.8156 191.929 58.0635 191.317C59.3349 190.681 60.7711 190.364 62.3721 190.364C64.2086 190.364 65.7861 190.693 67.1046 191.353C68.4231 192.012 69.4355 192.918 70.1418 194.072C70.8717 195.202 71.2366 196.521 71.2366 198.027C71.2366 199.558 70.8128 200.923 69.9652 202.124C69.1412 203.301 67.9993 204.408 66.5395 205.444L63.1844 207.881C62.5016 208.352 61.913 208.87 61.4186 209.435C60.9242 210 60.5474 210.624 60.2885 211.306H71.5545V215.544H54.4612ZM73.254 219.571L75.4083 211.236H80.2467L76.7856 219.571H73.254ZM90.3422 190.434C92.0138 190.434 93.4265 190.74 94.5802 191.353C95.7574 191.941 96.7109 192.765 97.4408 193.825C98.1942 194.884 98.7358 196.12 99.0654 197.533C99.4185 198.922 99.5951 200.417 99.5951 202.018C99.5951 203.925 99.395 205.726 98.9947 207.422C98.5945 209.093 97.9823 210.577 97.1583 211.871C96.3578 213.143 95.3218 214.155 94.0504 214.909C92.779 215.639 91.2486 216.004 89.4592 216.004C88.1643 216.004 86.8929 215.815 85.645 215.438C84.4207 215.038 83.3141 214.497 82.3253 213.814L84.6915 210.282C85.4449 210.777 86.2337 211.153 87.0577 211.412C87.9053 211.648 88.6705 211.766 89.3533 211.766C91.1898 211.766 92.626 210.965 93.6619 209.364C94.7214 207.739 95.2041 205.208 95.1099 201.771L96.0988 202.407C95.5573 203.702 94.7214 204.749 93.5913 205.55C92.4612 206.327 91.1074 206.715 89.5299 206.715C87.9759 206.715 86.5868 206.35 85.3625 205.62C84.1382 204.867 83.1846 203.866 82.5019 202.619C81.8191 201.371 81.4777 199.958 81.4777 198.381C81.4777 196.827 81.8426 195.461 82.5725 194.284C83.3024 193.083 84.3266 192.141 85.645 191.458C86.9871 190.776 88.5528 190.434 90.3422 190.434ZM90.3422 194.496C89.5652 194.496 88.8706 194.672 88.2585 195.025C87.6463 195.379 87.1637 195.861 86.8105 196.473C86.4573 197.086 86.2807 197.792 86.2807 198.592C86.2807 199.393 86.4573 200.111 86.8105 200.747C87.1637 201.382 87.6463 201.877 88.2585 202.23C88.8706 202.583 89.5652 202.76 90.3422 202.76C91.1191 202.76 91.8137 202.583 92.4258 202.23C93.038 201.877 93.5207 201.382 93.8738 200.747C94.2505 200.111 94.4389 199.393 94.4389 198.592C94.4389 197.792 94.2505 197.086 93.8738 196.473C93.5207 195.861 93.038 195.379 92.4258 195.025C91.8137 194.672 91.1191 194.496 90.3422 194.496ZM104.534 218.952C103.926 218.952 103.388 218.91 102.918 218.824C102.449 218.739 102.054 218.627 101.734 218.488C101.414 218.35 101.153 218.211 100.95 218.072L101.782 216.376C101.932 216.462 102.129 216.558 102.374 216.664C102.62 216.782 102.913 216.878 103.254 216.952C103.596 217.038 103.99 217.08 104.438 217.08C104.865 217.08 105.238 216.995 105.558 216.824C105.889 216.664 106.145 216.408 106.326 216.056C106.518 215.715 106.614 215.278 106.614 214.744V213.976C106.348 214.392 106.001 214.723 105.574 214.968C105.148 215.203 104.662 215.32 104.118 215.32C103.382 215.32 102.742 215.16 102.198 214.84C101.665 214.52 101.249 214.072 100.95 213.496C100.652 212.92 100.502 212.238 100.502 211.448C100.502 210.616 100.652 209.896 100.95 209.288C101.249 208.67 101.665 208.195 102.198 207.864C102.742 207.523 103.382 207.352 104.118 207.352C104.662 207.352 105.148 207.48 105.574 207.736C106.001 207.982 106.348 208.334 106.614 208.792V207.544H108.726V214.68C108.726 215.576 108.556 216.344 108.214 216.984C107.873 217.635 107.388 218.126 106.758 218.456C106.14 218.787 105.398 218.952 104.534 218.952ZM104.726 213.544C105.089 213.544 105.404 213.454 105.67 213.272C105.948 213.08 106.161 212.824 106.31 212.504C106.46 212.174 106.534 211.8 106.534 211.384C106.534 210.958 106.454 210.584 106.294 210.264C106.145 209.944 105.932 209.694 105.654 209.512C105.388 209.331 105.073 209.24 104.71 209.24C104.337 209.24 104.006 209.331 103.718 209.512C103.43 209.694 103.206 209.944 103.046 210.264C102.886 210.584 102.801 210.958 102.79 211.384C102.801 211.8 102.886 212.174 103.046 212.504C103.206 212.824 103.43 213.08 103.718 213.272C104.017 213.454 104.353 213.544 104.726 213.544ZM117.84 215.736C116.752 215.736 115.787 215.491 114.944 215C114.101 214.499 113.44 213.816 112.96 212.952C112.48 212.078 112.24 211.075 112.24 209.944C112.24 208.814 112.48 207.816 112.96 206.952C113.44 206.078 114.096 205.395 114.928 204.904C115.771 204.403 116.736 204.152 117.824 204.152C118.592 204.152 119.307 204.291 119.968 204.568C120.629 204.835 121.205 205.214 121.696 205.704C122.197 206.184 122.581 206.739 122.848 207.368L120.816 208.12C120.635 207.726 120.395 207.384 120.096 207.096C119.797 206.798 119.456 206.568 119.072 206.408C118.688 206.238 118.272 206.152 117.824 206.152C117.173 206.152 116.592 206.318 116.08 206.648C115.579 206.968 115.184 207.411 114.896 207.976C114.619 208.542 114.48 209.198 114.48 209.944C114.48 210.691 114.624 211.352 114.912 211.928C115.2 212.494 115.6 212.942 116.112 213.272C116.624 213.592 117.211 213.752 117.872 213.752C118.331 213.752 118.747 213.667 119.12 213.496C119.504 213.315 119.84 213.07 120.128 212.76C120.427 212.451 120.667 212.094 120.848 211.688L122.88 212.424C122.613 213.075 122.229 213.651 121.728 214.152C121.237 214.654 120.661 215.043 120 215.32C119.339 215.598 118.619 215.736 117.84 215.736ZM128.727 215.736C127.597 215.736 126.594 215.491 125.719 215C124.855 214.499 124.178 213.816 123.687 212.952C123.197 212.078 122.951 211.08 122.951 209.96C122.951 208.819 123.197 207.816 123.687 206.952C124.178 206.078 124.85 205.395 125.703 204.904C126.567 204.414 127.559 204.168 128.679 204.168C129.81 204.168 130.802 204.419 131.655 204.92C132.519 205.411 133.197 206.094 133.687 206.968C134.178 207.832 134.423 208.83 134.423 209.96C134.423 211.08 134.178 212.078 133.687 212.952C133.207 213.816 132.535 214.499 131.671 215C130.818 215.491 129.837 215.736 128.727 215.736ZM128.727 213.736C129.41 213.736 130.007 213.576 130.519 213.256C131.042 212.926 131.447 212.478 131.735 211.912C132.034 211.347 132.183 210.696 132.183 209.96C132.183 209.214 132.034 208.558 131.735 207.992C131.437 207.427 131.026 206.984 130.503 206.664C129.981 206.334 129.373 206.168 128.679 206.168C128.007 206.168 127.405 206.334 126.871 206.664C126.349 206.984 125.938 207.427 125.639 207.992C125.341 208.558 125.191 209.214 125.191 209.96C125.191 210.696 125.341 211.347 125.639 211.912C125.938 212.478 126.354 212.926 126.887 213.256C127.421 213.576 128.034 213.736 128.727 213.736ZM136.183 216.248L134.631 216.008C134.631 215.838 134.695 215.64 134.823 215.416C134.951 215.182 135.127 214.947 135.351 214.712C135.586 214.478 135.847 214.259 136.135 214.056L136.951 213.496C137.143 213.368 137.33 213.214 137.511 213.032C137.692 212.851 137.783 212.664 137.783 212.472C137.783 212.259 137.708 212.088 137.559 211.96C137.41 211.822 137.186 211.752 136.887 211.752C136.663 211.752 136.471 211.827 136.311 211.976C136.162 212.115 136.06 212.28 136.007 212.472L134.375 212.2C134.439 211.859 134.578 211.55 134.791 211.272C135.015 210.984 135.303 210.75 135.655 210.568C136.018 210.387 136.428 210.296 136.887 210.296C137.666 210.296 138.279 210.499 138.727 210.904C139.175 211.299 139.399 211.816 139.399 212.456C139.399 212.915 139.271 213.304 139.015 213.624C138.77 213.944 138.444 214.243 138.039 214.52L137.223 215.08C137.074 215.187 136.924 215.315 136.775 215.464C136.626 215.603 136.492 215.742 136.375 215.88C136.268 216.03 136.204 216.152 136.183 216.248ZM134.631 217.144V216.008L135.799 215.752H139.479V217.144H134.631ZM143.624 215.736C142.834 215.736 142.136 215.56 141.528 215.208C140.92 214.846 140.44 214.35 140.088 213.72C139.746 213.091 139.576 212.366 139.576 211.544C139.576 210.723 139.752 209.998 140.104 209.368C140.466 208.739 140.957 208.248 141.576 207.896C142.205 207.534 142.925 207.352 143.736 207.352C144.44 207.352 145.085 207.539 145.672 207.912C146.269 208.275 146.744 208.814 147.096 209.528C147.458 210.232 147.64 211.091 147.64 212.104H141.784C141.837 212.638 142.066 213.064 142.472 213.384C142.877 213.694 143.336 213.848 143.848 213.848C144.285 213.848 144.642 213.758 144.92 213.576C145.197 213.384 145.41 213.139 145.56 212.84L147.448 213.576C147.224 214.024 146.93 214.414 146.568 214.744C146.216 215.064 145.794 215.31 145.304 215.48C144.813 215.651 144.253 215.736 143.624 215.736ZM141.896 210.536H145.352C145.32 210.206 145.213 209.939 145.032 209.736C144.85 209.534 144.637 209.384 144.392 209.288C144.146 209.192 143.906 209.144 143.672 209.144C143.448 209.144 143.202 209.192 142.936 209.288C142.68 209.374 142.45 209.518 142.248 209.72C142.056 209.923 141.938 210.195 141.896 210.536Z" fill="#88F154"/>
<path d="M170.289 204.312V199.762H192.755V204.312H170.289ZM170.289 215.545V210.995H192.755V215.545H170.289Z" fill="#88F154"/>
<path d="M246.383 155.988L260.723 170.328" stroke="#88F154" stroke-width="9.67352" stroke-linecap="round" stroke-linejoin="round"/>
<path d="M208.652 139.761C208.652 151.641 218.283 161.271 230.162 161.271C236.112 161.271 241.498 158.855 245.392 154.951C249.272 151.06 251.672 145.691 251.672 139.761C251.672 127.882 242.041 118.252 230.162 118.252C218.283 118.252 208.652 127.882 208.652 139.761Z" stroke="#88F154" stroke-width="9.67352" stroke-linecap="round" stroke-linejoin="round"/>
<path d="M313.715 155.988L328.055 170.328" stroke="#88F154" stroke-width="9.67352" stroke-linecap="round" stroke-linejoin="round"/>
<path d="M275.984 139.761C275.984 151.641 285.615 161.271 297.494 161.271C303.444 161.271 308.83 158.855 312.724 154.951C316.604 151.06 319.004 145.691 319.004 139.761C319.004 127.882 309.373 118.252 297.494 118.252C285.615 118.252 275.984 127.882 275.984 139.761Z" stroke="#88F154" stroke-width="9.67352" stroke-linecap="round" stroke-linejoin="round"/>
<path d="M207.187 215.544V213.03C207.187 212.549 207.337 212.018 207.636 211.437C207.934 210.856 208.349 210.275 208.88 209.695C209.411 209.114 210.034 208.574 210.747 208.077L213.386 206.185C213.751 205.936 214.091 205.654 214.406 205.338C214.738 205.023 215.004 204.683 215.203 204.318C215.419 203.936 215.527 203.571 215.527 203.223C215.527 202.791 215.419 202.401 215.203 202.053C215.004 201.704 214.705 201.43 214.307 201.231C213.909 201.032 213.419 200.932 212.838 200.932C212.34 200.932 211.892 201.032 211.494 201.231C211.112 201.43 210.797 201.696 210.548 202.028C210.299 202.36 210.125 202.716 210.025 203.098L206.515 202.501C206.681 201.671 207.038 200.899 207.586 200.186C208.133 199.472 208.847 198.9 209.727 198.468C210.623 198.02 211.635 197.796 212.763 197.796C214.058 197.796 215.17 198.028 216.099 198.493C217.028 198.958 217.742 199.597 218.24 200.41C218.754 201.206 219.011 202.136 219.011 203.198C219.011 204.276 218.713 205.239 218.115 206.085C217.535 206.915 216.73 207.695 215.701 208.425L213.336 210.143C212.855 210.475 212.44 210.84 212.091 211.238C211.743 211.636 211.477 212.076 211.295 212.557H219.236V215.544H207.187ZM225.919 215.544V203.098H229.205V205.388C229.72 204.608 230.367 204.027 231.147 203.646C231.943 203.247 232.765 203.048 233.611 203.048V206.235C232.848 206.235 232.126 206.326 231.445 206.508C230.782 206.691 230.242 206.99 229.827 207.405C229.413 207.819 229.205 208.35 229.205 208.998V215.544H225.919ZM240.095 215.843C238.867 215.843 237.78 215.569 236.834 215.022C235.888 214.457 235.141 213.686 234.593 212.707C234.062 211.728 233.797 210.599 233.797 209.321C233.797 208.043 234.071 206.915 234.618 205.936C235.183 204.957 235.946 204.193 236.908 203.646C237.888 203.082 239.008 202.799 240.269 202.799C241.364 202.799 242.368 203.09 243.281 203.671C244.21 204.235 244.949 205.073 245.496 206.185C246.061 207.28 246.343 208.616 246.343 210.193H237.232C237.315 211.022 237.672 211.686 238.302 212.184C238.933 212.665 239.647 212.906 240.443 212.906C241.124 212.906 241.68 212.765 242.111 212.483C242.543 212.184 242.874 211.802 243.107 211.338L246.044 212.483C245.696 213.18 245.239 213.785 244.675 214.3C244.127 214.798 243.472 215.179 242.708 215.445C241.945 215.71 241.074 215.843 240.095 215.843ZM237.406 207.753H242.783C242.733 207.239 242.567 206.824 242.285 206.508C242.003 206.193 241.671 205.961 241.29 205.811C240.908 205.662 240.535 205.587 240.169 205.587C239.821 205.587 239.439 205.662 239.024 205.811C238.626 205.944 238.269 206.168 237.954 206.484C237.655 206.799 237.473 207.222 237.406 207.753ZM253.369 215.843C252.075 215.843 250.921 215.569 249.909 215.022C248.897 214.457 248.109 213.686 247.544 212.707C246.98 211.711 246.698 210.583 246.698 209.321C246.698 208.043 246.98 206.915 247.544 205.936C248.109 204.957 248.889 204.193 249.884 203.646C250.88 203.082 252.025 202.799 253.319 202.799C254.564 202.799 255.701 203.106 256.73 203.72C257.759 204.334 258.505 205.222 258.97 206.384L255.883 207.479C255.651 206.998 255.286 206.616 254.788 206.334C254.307 206.035 253.768 205.886 253.17 205.886C252.556 205.886 252.017 206.035 251.552 206.334C251.087 206.616 250.722 207.015 250.457 207.529C250.191 208.043 250.059 208.641 250.059 209.321C250.059 210.002 250.191 210.599 250.457 211.114C250.722 211.611 251.096 212.01 251.577 212.308C252.058 212.607 252.606 212.756 253.22 212.756C253.817 212.756 254.357 212.599 254.838 212.283C255.336 211.968 255.701 211.553 255.933 211.039L259.045 212.134C258.564 213.312 257.808 214.225 256.78 214.872C255.767 215.52 254.63 215.843 253.369 215.843ZM260.102 215.544V198.12H263.387V204.691C263.802 204.077 264.317 203.613 264.931 203.297C265.545 202.965 266.234 202.799 266.997 202.799C267.993 202.799 268.831 202.999 269.511 203.397C270.208 203.795 270.739 204.417 271.104 205.264C271.469 206.094 271.652 207.172 271.652 208.5V215.544H268.366V209.172C268.366 208.326 268.266 207.67 268.067 207.205C267.868 206.741 267.594 206.409 267.246 206.21C266.897 205.994 266.491 205.886 266.026 205.886C265.18 205.869 264.524 206.127 264.06 206.658C263.612 207.189 263.387 207.977 263.387 209.023V215.544H260.102ZM279.017 215.843C277.789 215.843 276.702 215.569 275.756 215.022C274.81 214.457 274.063 213.686 273.516 212.707C272.985 211.728 272.719 210.599 272.719 209.321C272.719 208.043 272.993 206.915 273.54 205.936C274.105 204.957 274.868 204.193 275.831 203.646C276.81 203.082 277.93 202.799 279.191 202.799C280.286 202.799 281.29 203.09 282.203 203.671C283.132 204.235 283.871 205.073 284.419 206.185C284.983 207.28 285.265 208.616 285.265 210.193H276.154C276.237 211.022 276.594 211.686 277.225 212.184C277.855 212.665 278.569 212.906 279.365 212.906C280.046 212.906 280.602 212.765 281.033 212.483C281.465 212.184 281.797 211.802 282.029 211.338L284.966 212.483C284.618 213.18 284.161 213.785 283.597 214.3C283.049 214.798 282.394 215.179 281.631 215.445C280.867 215.71 279.996 215.843 279.017 215.843ZM276.328 207.753H281.705C281.655 207.239 281.49 206.824 281.207 206.508C280.925 206.193 280.593 205.961 280.212 205.811C279.83 205.662 279.457 205.587 279.092 205.587C278.743 205.587 278.361 205.662 277.946 205.811C277.548 205.944 277.191 206.168 276.876 206.484C276.577 206.799 276.395 207.222 276.328 207.753ZM286.292 215.544V203.098H289.578V205.388C290.093 204.608 290.74 204.027 291.52 203.646C292.316 203.247 293.138 203.048 293.984 203.048V206.235C293.221 206.235 292.499 206.326 291.818 206.508C291.155 206.691 290.615 206.99 290.2 207.405C289.786 207.819 289.578 208.35 289.578 208.998V215.544H286.292ZM300.841 215.843C299.547 215.843 298.393 215.569 297.381 215.022C296.369 214.457 295.58 213.686 295.016 212.707C294.452 211.711 294.17 210.583 294.17 209.321C294.17 208.043 294.452 206.915 295.016 205.936C295.58 204.957 296.36 204.193 297.356 203.646C298.352 203.082 299.497 202.799 300.791 202.799C302.036 202.799 303.173 203.106 304.202 203.72C305.231 204.334 305.977 205.222 306.442 206.384L303.355 207.479C303.123 206.998 302.758 206.616 302.26 206.334C301.779 206.035 301.239 205.886 300.642 205.886C300.028 205.886 299.489 206.035 299.024 206.334C298.559 206.616 298.194 207.015 297.929 207.529C297.663 208.043 297.53 208.641 297.53 209.321C297.53 210.002 297.663 210.599 297.929 211.114C298.194 211.611 298.568 212.01 299.049 212.308C299.53 212.607 300.078 212.756 300.692 212.756C301.289 212.756 301.829 212.599 302.31 212.283C302.808 211.968 303.173 211.553 303.405 211.039L306.517 212.134C306.035 213.312 305.28 214.225 304.251 214.872C303.239 215.52 302.102 215.843 300.841 215.843ZM307.574 215.544V198.12H310.859V204.691C311.274 204.077 311.789 203.613 312.403 203.297C313.017 202.965 313.705 202.799 314.469 202.799C315.465 202.799 316.303 202.999 316.983 203.397C317.68 203.795 318.211 204.417 318.576 205.264C318.941 206.094 319.124 207.172 319.124 208.5V215.544H315.838V209.172C315.838 208.326 315.738 207.67 315.539 207.205C315.34 206.741 315.066 206.409 314.718 206.21C314.369 205.994 313.963 205.886 313.498 205.886C312.652 205.869 311.996 206.127 311.531 206.658C311.083 207.189 310.859 207.977 310.859 209.023V215.544H307.574ZM326.489 215.843C325.261 215.843 324.174 215.569 323.228 215.022C322.282 214.457 321.535 213.686 320.987 212.707C320.456 211.728 320.191 210.599 320.191 209.321C320.191 208.043 320.465 206.915 321.012 205.936C321.577 204.957 322.34 204.193 323.303 203.646C324.282 203.082 325.402 202.799 326.663 202.799C327.758 202.799 328.762 203.09 329.675 203.671C330.604 204.235 331.343 205.073 331.89 206.185C332.455 207.28 332.737 208.616 332.737 210.193H323.626C323.709 211.022 324.066 211.686 324.696 212.184C325.327 212.665 326.041 212.906 326.837 212.906C327.518 212.906 328.074 212.765 328.505 212.483C328.937 212.184 329.268 211.802 329.501 211.338L332.438 212.483C332.09 213.18 331.633 213.785 331.069 214.3C330.521 214.798 329.866 215.179 329.102 215.445C328.339 215.71 327.468 215.843 326.489 215.843ZM323.8 207.753H329.177C329.127 207.239 328.961 206.824 328.679 206.508C328.397 206.193 328.065 205.961 327.684 205.811C327.302 205.662 326.929 205.587 326.563 205.587C326.215 205.587 325.833 205.662 325.418 205.811C325.02 205.944 324.663 206.168 324.348 206.484C324.049 206.799 323.867 207.222 323.8 207.753ZM338.419 215.843C337.622 215.843 336.876 215.727 336.179 215.495C335.482 215.246 334.868 214.897 334.337 214.449C333.806 213.984 333.391 213.42 333.092 212.756L335.905 211.462C336.154 211.86 336.494 212.209 336.926 212.508C337.357 212.79 337.855 212.931 338.419 212.931C338.967 212.931 339.39 212.856 339.689 212.707C339.987 212.541 340.137 212.308 340.137 212.01C340.137 211.711 340.012 211.495 339.763 211.362C339.531 211.213 339.207 211.089 338.792 210.989L337.647 210.69C336.453 210.375 335.507 209.877 334.81 209.197C334.129 208.5 333.789 207.703 333.789 206.807C333.789 205.529 334.196 204.542 335.009 203.845C335.839 203.148 337.008 202.799 338.519 202.799C339.299 202.799 340.02 202.916 340.684 203.148C341.365 203.38 341.946 203.704 342.427 204.119C342.908 204.534 343.24 205.015 343.422 205.562L340.709 206.807C340.593 206.475 340.311 206.21 339.863 206.011C339.415 205.795 338.967 205.687 338.519 205.687C338.071 205.687 337.722 205.787 337.473 205.986C337.241 206.168 337.125 206.425 337.125 206.757C337.125 206.973 337.241 207.156 337.473 207.305C337.705 207.438 338.037 207.554 338.469 207.653L340.087 208.052C340.9 208.251 341.547 208.574 342.028 209.023C342.526 209.454 342.883 209.944 343.099 210.491C343.331 211.022 343.447 211.545 343.447 212.059C343.447 212.806 343.223 213.47 342.775 214.051C342.344 214.615 341.746 215.055 340.983 215.37C340.236 215.685 339.382 215.843 338.419 215.843ZM352.588 215.544L348.357 203.098H351.692L354.281 211.114L356.895 203.098H360.131L362.695 210.989L365.309 203.098H368.644L364.412 215.544H361.176L358.513 207.131L355.825 215.544H352.588ZM374.666 215.843C373.438 215.843 372.351 215.569 371.405 215.022C370.459 214.457 369.712 213.686 369.164 212.707C368.633 211.728 368.368 210.599 368.368 209.321C368.368 208.043 368.642 206.915 369.189 205.936C369.753 204.957 370.517 204.193 371.479 203.646C372.458 203.082 373.579 202.799 374.84 202.799C375.935 202.799 376.939 203.09 377.852 203.671C378.781 204.235 379.52 205.073 380.067 206.185C380.632 207.28 380.914 208.616 380.914 210.193H371.803C371.886 211.022 372.243 211.686 372.873 212.184C373.504 212.665 374.218 212.906 375.014 212.906C375.695 212.906 376.25 212.765 376.682 212.483C377.113 212.184 377.445 211.802 377.678 211.338L380.615 212.483C380.266 213.18 379.81 213.785 379.246 214.3C378.698 214.798 378.043 215.179 377.279 215.445C376.516 215.71 375.645 215.843 374.666 215.843ZM371.977 207.753H377.354C377.304 207.239 377.138 206.824 376.856 206.508C376.574 206.193 376.242 205.961 375.86 205.811C375.479 205.662 375.105 205.587 374.74 205.587C374.392 205.587 374.01 205.662 373.595 205.811C373.197 205.944 372.84 206.168 372.525 206.484C372.226 206.799 372.044 207.222 371.977 207.753ZM388.986 215.843C388.139 215.843 387.401 215.669 386.77 215.32C386.14 214.955 385.609 214.441 385.177 213.777L385.053 215.544H381.941V198.12H385.227V204.791C385.642 204.144 386.164 203.654 386.795 203.322C387.426 202.974 388.156 202.799 388.986 202.799C390.131 202.799 391.118 203.065 391.948 203.596C392.794 204.127 393.45 204.882 393.914 205.861C394.379 206.824 394.611 207.977 394.611 209.321C394.611 210.649 394.379 211.802 393.914 212.781C393.45 213.76 392.794 214.516 391.948 215.047C391.118 215.578 390.131 215.843 388.986 215.843ZM388.139 212.831C388.737 212.831 389.259 212.682 389.708 212.383C390.172 212.084 390.537 211.669 390.803 211.138C391.068 210.607 391.201 210.002 391.201 209.321C391.201 208.641 391.068 208.035 390.803 207.504C390.554 206.973 390.197 206.566 389.732 206.284C389.284 205.986 388.762 205.836 388.164 205.836C387.6 205.836 387.094 205.986 386.646 206.284C386.198 206.583 385.849 206.998 385.6 207.529C385.351 208.043 385.227 208.641 385.227 209.321C385.227 210.002 385.351 210.607 385.6 211.138C385.849 211.669 386.189 212.084 386.621 212.383C387.069 212.682 387.575 212.831 388.139 212.831Z" fill="#88F154"/>
</svg>
