<svg xmlns="http://www.w3.org/2000/svg" width="424" height="261" fill="none" viewBox="0 0 424 261"><rect width="420.247" height="257.851" x="1.41" y="1.41" stroke="#88f154" stroke-width="2.82" rx="6.929"/><path fill="#88f154" d="M55.109 62.426q-2.664 0-4.73-1.145a8.6 8.6 0 0 1-3.21-3.186q-1.17-2.041-1.17-4.68t1.17-4.655a8.34 8.34 0 0 1 3.21-3.186q2.067-1.17 4.73-1.17 1.593 0 2.937.473a7.6 7.6 0 0 1 2.365 1.319 7.8 7.8 0 0 1 1.742 1.892l-2.788 1.742a4.5 4.5 0 0 0-1.12-1.195 5.5 5.5 0 0 0-1.493-.821 4.8 4.8 0 0 0-1.643-.299q-1.643 0-2.913.772a5.3 5.3 0 0 0-1.99 2.066q-.723 1.32-.723 3.062 0 1.717.697 3.062a5.4 5.4 0 0 0 2.017 2.115q1.293.747 2.987.747 1.269 0 2.265-.473a4.13 4.13 0 0 0 1.593-1.369q.597-.87.672-2.041h-4.033v-2.664H63v2.116q-.05 2.39-1.07 4.083a6.8 6.8 0 0 1-2.788 2.564q-1.768.87-4.033.87m14.68 0q-1.842 0-3.261-.822a6.13 6.13 0 0 1-2.24-2.315q-.797-1.468-.797-3.385t.821-3.385a6.07 6.07 0 0 1 2.29-2.29q1.47-.847 3.36-.847 1.644 0 3.013.871 1.395.847 2.215 2.515.847 1.642.847 4.007h-9.111q.125 1.245 1.07 1.992.947.721 2.141.722 1.02 0 1.668-.424.647-.447.996-1.145l2.937 1.145a6.2 6.2 0 0 1-1.37 1.818 5.6 5.6 0 0 1-1.966 1.145q-1.144.398-2.613.398m-2.689-8.09h5.377q-.075-.773-.498-1.245a2.6 2.6 0 0 0-.995-.697 3.1 3.1 0 0 0-1.12-.224q-.523 0-1.146.224a2.7 2.7 0 0 0-1.07.672q-.448.474-.548 1.27m.797-6.198 2.838-3.436h3.684l-3.211 3.436zm9.24 13.99V49.68h3.087l.149 1.693q.597-.971 1.518-1.47.947-.522 2.141-.522 1.47 0 2.514.598 1.045.597 1.593 1.867.549 1.244.523 3.236v7.044h-3.286v-6.372q0-1.27-.298-1.967-.274-.696-.797-.995-.522-.324-1.22-.324-1.269-.026-1.966.771-.672.798-.672 2.365v6.522zm18.891.298q-1.842 0-3.26-.822a6.13 6.13 0 0 1-2.24-2.315q-.797-1.468-.797-3.385t.821-3.385a6.07 6.07 0 0 1 2.29-2.29q1.47-.847 3.36-.847 1.644 0 3.013.871 1.394.847 2.215 2.515.846 1.642.847 4.007h-9.111q.125 1.245 1.07 1.992.945.721 2.141.722 1.02 0 1.668-.424.647-.447.995-1.145l2.938 1.145a6.2 6.2 0 0 1-1.369 1.818 5.6 5.6 0 0 1-1.967 1.145q-1.144.398-2.614.398m-2.688-8.09h5.377q-.075-.773-.498-1.245a2.6 2.6 0 0 0-.996-.697 3.1 3.1 0 0 0-1.12-.224q-.522 0-1.145.224a2.7 2.7 0 0 0-1.07.672q-.449.474-.548 1.27m.797-6.198 2.837-3.436h3.684l-3.21 3.436zm9.24 13.99V49.68h3.286v2.29q.771-1.17 1.941-1.742a5.45 5.45 0 0 1 2.465-.598v3.186a8.3 8.3 0 0 0-2.166.274q-.996.274-1.618.896t-.622 1.593v6.547zm14.175.298q-1.842 0-3.261-.822a6.13 6.13 0 0 1-2.24-2.315q-.797-1.468-.797-3.385t.822-3.385a6.07 6.07 0 0 1 2.29-2.29q1.468-.847 3.361-.847a5.5 5.5 0 0 1 3.012.871q1.393.847 2.215 2.515.846 1.642.846 4.007h-9.11q.124 1.245 1.07 1.992a3.44 3.44 0 0 0 2.141.722q1.02 0 1.668-.424a3 3 0 0 0 .995-1.145l2.938 1.145a6.2 6.2 0 0 1-1.369 1.818 5.6 5.6 0 0 1-1.967 1.145q-1.145.398-2.614.398m-2.688-8.09h5.377q-.075-.773-.498-1.245a2.6 2.6 0 0 0-.996-.697 3.1 3.1 0 0 0-1.12-.224 3.4 3.4 0 0 0-1.145.224 2.7 2.7 0 0 0-1.07.672q-.449.474-.548 1.27m9.964 7.791V49.681h3.285v2.29q.772-1.17 1.942-1.742a5.45 5.45 0 0 1 2.464-.598v3.186q-1.145 0-2.165.274-.996.274-1.618.896t-.623 1.593v6.547zm18.03.299q-1.494 0-2.54-.598-1.02-.597-1.568-1.842-.547-1.27-.547-3.26V49.68h3.285v6.372q0 1.245.274 1.967.299.697.822 1.02.547.3 1.219.3 1.295.024 1.967-.772.672-.822.672-2.365V49.68h3.286v12.446h-3.087l-.124-1.693a4.4 4.4 0 0 1-1.568 1.47q-.921.522-2.091.522m8.834-.299V49.681h3.087l.149 1.693q.598-.971 1.519-1.47.946-.522 2.141-.522 1.469 0 2.514.598 1.046.597 1.593 1.867.547 1.244.523 3.236v7.044h-3.286v-6.372q0-1.27-.299-1.967-.274-.696-.796-.995-.523-.324-1.22-.324-1.27-.026-1.967.771-.672.798-.672 2.365v6.522zm18.892.299q-1.842 0-3.261-.822a6.1 6.1 0 0 1-2.24-2.315q-.797-1.468-.797-3.385t.822-3.385a6.06 6.06 0 0 1 2.29-2.29q1.469-.847 3.36-.847a5.5 5.5 0 0 1 3.012.871q1.394.847 2.216 2.515.846 1.642.846 4.007h-9.111q.125 1.245 1.071 1.992.945.721 2.14.722 1.021 0 1.668-.424.648-.447.996-1.145l2.937 1.145a6.2 6.2 0 0 1-1.369 1.818 5.6 5.6 0 0 1-1.966 1.145q-1.146.398-2.614.398m-2.689-8.09h5.377q-.074-.773-.498-1.245a2.6 2.6 0 0 0-.995-.697 3.1 3.1 0 0 0-1.12-.224q-.524 0-1.145.224a2.7 2.7 0 0 0-1.071.672q-.448.474-.548 1.27m15.213 7.791V49.681h3.285v12.446zm1.643-14.462q-.747 0-1.32-.548-.572-.573-.572-1.344t.572-1.32q.573-.572 1.32-.572.771 0 1.319.572.572.547.572 1.32 0 .771-.572 1.344a1.8 1.8 0 0 1-1.319.548m3.79 14.462V49.681h3.087l.149 1.618q.572-.946 1.469-1.419a4 4 0 0 1 1.991-.498q1.52 0 2.539.647 1.045.648 1.519 1.992.547-1.27 1.543-1.942.996-.697 2.315-.697 2.19 0 3.336 1.394 1.145 1.369 1.145 4.232v7.12h-3.286v-6.373q0-1.27-.274-1.967-.273-.696-.747-.995-.472-.324-1.12-.324-1.194-.026-1.842.771-.647.798-.647 2.365v6.522h-3.286v-6.372q0-1.27-.274-1.967-.25-.696-.746-.995-.473-.324-1.121-.324-1.194-.026-1.842.771-.622.798-.622 2.365v6.522zm24.859.299q-2.241 0-3.485-.996-1.22-.996-1.22-2.813 0-1.99 1.319-2.987 1.344-1.02 3.759-1.02h2.937q-.174-1.146-.721-1.743-.548-.622-1.569-.622-.797 0-1.443.348-.648.35-1.096 1.07l-2.887-.995a5.8 5.8 0 0 1 1.02-1.543q.672-.773 1.743-1.245 1.095-.498 2.663-.498 1.892 0 3.137.722a4.37 4.37 0 0 1 1.867 2.041q.623 1.294.597 3.087l-.075 6.895h-3.061l-.05-1.444a3.16 3.16 0 0 1-1.344 1.295q-.847.448-2.091.448m.547-2.738q.797 0 1.444-.374a2.9 2.9 0 0 0 1.021-.97q.373-.599.373-1.245v-.05h-1.867q-1.618 0-2.24.398-.623.374-.623 1.07 0 .548.498.872.498.3 1.394.299m13.412 7.741q-1.419 0-2.515-.199-1.095-.2-1.842-.523a7.4 7.4 0 0 1-1.219-.647l1.294-2.638q.348.198.921.448.573.274 1.369.448.797.2 1.842.199.996 0 1.743-.398.77-.375 1.195-1.195.447-.797.448-2.041v-1.195a4.66 4.66 0 0 1-1.618 1.543q-.996.548-2.266.548-1.717 0-2.987-.747a5.13 5.13 0 0 1-1.941-2.091q-.697-1.344-.697-3.186 0-1.942.697-3.36.696-1.445 1.941-2.216 1.27-.797 2.987-.797 1.27 0 2.266.598.995.572 1.618 1.643V49.68h3.285v11.102q0 2.091-.796 3.585-.797 1.518-2.265 2.29-1.444.771-3.46.771m.298-8.413q.847 0 1.469-.424.647-.448.996-1.194.348-.773.348-1.743 0-.996-.373-1.742a2.76 2.76 0 0 0-.996-1.17q-.622-.424-1.469-.424-.87 0-1.543.424a2.86 2.86 0 0 0-1.045 1.17q-.374.747-.399 1.742.025.97.399 1.743.372.746 1.045 1.194a2.96 2.96 0 0 0 1.568.424m13.794 3.41q-1.842 0-3.261-.822a6.14 6.14 0 0 1-2.24-2.315q-.796-1.468-.796-3.385t.821-3.385a6.07 6.07 0 0 1 2.29-2.29q1.468-.847 3.361-.847a5.5 5.5 0 0 1 3.012.871q1.393.847 2.215 2.515.846 1.642.846 4.007h-9.11q.125 1.245 1.07 1.992a3.44 3.44 0 0 0 2.141.722q1.02 0 1.668-.424a3 3 0 0 0 .995-1.145l2.938 1.145a6.2 6.2 0 0 1-1.369 1.818 5.6 5.6 0 0 1-1.967 1.145q-1.144.398-2.614.398m-2.688-8.09h5.377q-.075-.773-.498-1.245a2.6 2.6 0 0 0-.996-.697 3.1 3.1 0 0 0-1.12-.224q-.522 0-1.145.224a2.7 2.7 0 0 0-1.07.672q-.449.474-.548 1.27"/><path stroke="#88f154" stroke-linecap="round" stroke-linejoin="round" stroke-width="4.372" d="M111.156 95.358a4.245 4.245 0 0 1 4.702 3.73l6.594 57.267a4.244 4.244 0 0 1-3.73 4.702l-57.267 6.595a4.244 4.244 0 0 1-4.702-3.731l-6.595-57.267a4.244 4.244 0 0 1 3.73-4.702z"/><path stroke="#88f154" stroke-linecap="round" stroke-linejoin="round" stroke-width="4.372" d="m57.191 148.672 22.684-12.974 39.458 12.726M99.15 123.118a6.862 6.862 0 1 1-1.57-13.635 6.862 6.862 0 1 1 1.57 13.635"/><path fill="#88f154" d="M54.461 215.544v-3.567q0-1.023.636-2.26t1.766-2.472a16 16 0 0 1 2.648-2.296l3.744-2.684q.776-.53 1.448-1.2.706-.671 1.13-1.448.46-.813.46-1.554a3.1 3.1 0 0 0-.46-1.66q-.423-.742-1.271-1.166t-2.084-.423q-1.06 0-1.907.423a3.9 3.9 0 0 0-1.342 1.13q-.53.707-.742 1.519l-4.98-.848q.353-1.766 1.52-3.284 1.165-1.518 3.036-2.437 1.907-.954 4.31-.953 2.754 0 4.732.989 1.977.988 3.037 2.719 1.095 1.696 1.095 3.955 0 2.296-1.272 4.097-1.236 1.766-3.425 3.32l-3.356 2.437a9.5 9.5 0 0 0-1.765 1.554 6.1 6.1 0 0 0-1.13 1.871h11.266v4.238zm18.793 4.027 2.154-8.335h4.839l-3.461 8.335zm17.088-29.137q2.508 0 4.238.919a7.46 7.46 0 0 1 2.86 2.472q1.131 1.588 1.625 3.708.53 2.083.53 4.485 0 2.86-.6 5.404-.6 2.507-1.837 4.449a9.1 9.1 0 0 1-3.108 3.038q-1.906 1.095-4.59 1.095a13.1 13.1 0 0 1-3.815-.566 12.8 12.8 0 0 1-3.32-1.624l2.367-3.532a9.5 9.5 0 0 0 2.366 1.13q1.27.354 2.295.354 2.755 0 4.309-2.402 1.59-2.438 1.448-7.593l.989.636a7.16 7.16 0 0 1-2.508 3.143q-1.695 1.165-4.061 1.165-2.33 0-4.168-1.095a7.96 7.96 0 0 1-2.86-3.001q-1.024-1.872-1.024-4.238 0-2.331 1.095-4.097 1.095-1.801 3.072-2.826 2.013-1.023 4.697-1.024m0 4.062q-1.165 0-2.084.529a3.9 3.9 0 0 0-1.447 1.448q-.53.92-.53 2.119 0 1.201.53 2.155t1.447 1.483q.919.53 2.084.53t2.084-.53a3.8 3.8 0 0 0 1.448-1.483q.565-.954.565-2.155t-.565-2.119a3.9 3.9 0 0 0-1.448-1.448q-.918-.53-2.084-.529m14.192 24.456a9 9 0 0 1-1.616-.128 5.4 5.4 0 0 1-1.184-.336 4.7 4.7 0 0 1-.784-.416l.832-1.696q.225.129.592.288.369.177.88.288a5 5 0 0 0 1.184.128q.64 0 1.12-.256a1.67 1.67 0 0 0 .768-.768q.288-.511.288-1.312v-.768a3 3 0 0 1-1.04.992 3 3 0 0 1-1.456.352q-1.104 0-1.92-.48a3.3 3.3 0 0 1-1.248-1.344q-.447-.864-.448-2.048 0-1.248.448-2.16.449-.927 1.248-1.424.816-.512 1.92-.512.816 0 1.456.384.64.369 1.04 1.056v-1.248h2.112v7.136q0 1.344-.512 2.304a3.4 3.4 0 0 1-1.456 1.472q-.927.496-2.224.496m.192-5.408q.545 0 .944-.272.417-.288.64-.768.225-.496.224-1.12 0-.64-.24-1.12a1.77 1.77 0 0 0-.64-.752 1.64 1.64 0 0 0-.944-.272q-.56 0-.992.272a1.84 1.84 0 0 0-.672.752q-.24.48-.256 1.12.016.624.256 1.12.24.48.672.768a1.9 1.9 0 0 0 1.008.272m13.114 2.192q-1.632 0-2.896-.736a5.4 5.4 0 0 1-1.984-2.048q-.72-1.311-.72-3.008 0-1.696.72-2.992a5.3 5.3 0 0 1 1.968-2.048q1.264-.752 2.896-.752 1.152 0 2.144.416a5.15 5.15 0 0 1 1.728 1.136q.751.72 1.152 1.664l-2.032.752a3.4 3.4 0 0 0-.72-1.024 3.2 3.2 0 0 0-1.024-.688q-.576-.256-1.248-.256-.976 0-1.744.496-.752.48-1.184 1.328-.416.849-.416 1.968 0 1.12.432 1.984a3.4 3.4 0 0 0 1.2 1.344q.768.48 1.76.48a3 3 0 0 0 1.248-.256 3.3 3.3 0 0 0 1.008-.736q.448-.463.72-1.072l2.032.736a5.2 5.2 0 0 1-1.152 1.728A5.2 5.2 0 0 1 120 215.32a5.5 5.5 0 0 1-2.16.416m10.887 0q-1.695 0-3.008-.736a5.43 5.43 0 0 1-2.032-2.048q-.736-1.311-.736-2.992 0-1.712.736-3.008a5.33 5.33 0 0 1 2.016-2.048q1.296-.736 2.976-.736 1.696 0 2.976.752a5.3 5.3 0 0 1 2.032 2.048q.736 1.297.736 2.992 0 1.68-.736 2.992a5.3 5.3 0 0 1-2.016 2.048q-1.28.736-2.944.736m0-2q1.024 0 1.792-.48.784-.495 1.216-1.344.448-.848.448-1.952 0-1.119-.448-1.968a3.36 3.36 0 0 0-1.232-1.328q-.783-.496-1.824-.496-1.007 0-1.808.496-.783.48-1.232 1.328t-.448 1.968q0 1.104.448 1.952a3.44 3.44 0 0 0 1.248 1.344q.8.48 1.84.48m7.456 2.512-1.552-.24q0-.255.192-.592.192-.351.528-.704.352-.351.784-.656l.816-.56q.288-.191.56-.464.272-.272.272-.56a.64.64 0 0 0-.224-.512q-.223-.208-.672-.208a.82.82 0 0 0-.576.224 1.05 1.05 0 0 0-.304.496l-1.632-.272q.096-.511.416-.928a2.6 2.6 0 0 1 .864-.704 2.7 2.7 0 0 1 1.232-.272q1.168 0 1.84.608.672.592.672 1.552 0 .688-.384 1.168-.368.48-.976.896l-.816.56a3.6 3.6 0 0 0-.448.384 5 5 0 0 0-.4.416q-.16.224-.192.368m-1.552.896v-1.136l1.168-.256h3.68v1.392zm8.993-1.408q-1.184 0-2.096-.528a3.93 3.93 0 0 1-1.44-1.488q-.513-.943-.512-2.176 0-1.231.528-2.176a3.9 3.9 0 0 1 1.472-1.472q.944-.543 2.16-.544 1.056 0 1.936.56.896.545 1.424 1.616.544 1.056.544 2.576h-5.856q.08.8.688 1.28.608.465 1.376.464.655 0 1.072-.272a1.94 1.94 0 0 0 .64-.736l1.888.736a4 4 0 0 1-.88 1.168q-.528.48-1.264.736-.737.256-1.68.256m-1.728-5.2h3.456q-.048-.495-.32-.8a1.7 1.7 0 0 0-.64-.448 2 2 0 0 0-.72-.144q-.337 0-.736.144-.385.129-.688.432-.288.304-.352.816m28.393-6.224v-4.55h22.466v4.55zm0 11.233v-4.55h22.466v4.55z"/><path stroke="#88f154" stroke-linecap="round" stroke-linejoin="round" stroke-width="9.674" d="m246.383 155.988 14.34 14.34m-52.071-30.567c0 11.88 9.631 21.51 21.51 21.51 5.95 0 11.336-2.416 15.23-6.32a21.45 21.45 0 0 0 6.28-15.19c0-11.879-9.631-21.509-21.51-21.509s-21.51 9.63-21.51 21.509m105.063 16.227 14.34 14.34m-52.071-30.567c0 11.88 9.631 21.51 21.51 21.51 5.95 0 11.336-2.416 15.23-6.32a21.45 21.45 0 0 0 6.28-15.19c0-11.879-9.631-21.509-21.51-21.509s-21.51 9.63-21.51 21.509"/><path fill="#88f154" d="M207.187 215.544v-2.514q0-.721.449-1.593.447-.872 1.244-1.742a11.2 11.2 0 0 1 1.867-1.618l2.639-1.892a7 7 0 0 0 1.02-.847q.498-.472.797-1.02.324-.573.324-1.095 0-.648-.324-1.17a2.06 2.06 0 0 0-.896-.822q-.597-.299-1.469-.299-.747 0-1.344.299a2.76 2.76 0 0 0-.946.797 3.1 3.1 0 0 0-.523 1.07l-3.51-.597a5.55 5.55 0 0 1 1.071-2.315q.82-1.07 2.141-1.718 1.344-.672 3.036-.672 1.942 0 3.336.697 1.394.698 2.141 1.917.771 1.195.771 2.788 0 1.617-.896 2.887-.87 1.245-2.414 2.34l-2.365 1.718a6.7 6.7 0 0 0-1.245 1.095 4.3 4.3 0 0 0-.796 1.319h7.941v2.987zm18.732 0v-12.446h3.286v2.29q.772-1.17 1.942-1.742a5.44 5.44 0 0 1 2.464-.598v3.187q-1.144 0-2.166.273-.995.274-1.618.897-.621.621-.622 1.593v6.546zm14.176.299q-1.842 0-3.261-.821a6.14 6.14 0 0 1-2.241-2.315q-.796-1.469-.796-3.386t.821-3.385a6.1 6.1 0 0 1 2.29-2.29q1.47-.846 3.361-.847 1.642 0 3.012.872 1.394.846 2.215 2.514.847 1.643.847 4.008h-9.111q.125 1.244 1.07 1.991a3.44 3.44 0 0 0 2.141.722q1.022 0 1.668-.423.647-.449.996-1.145l2.937 1.145a6.2 6.2 0 0 1-1.369 1.817 5.6 5.6 0 0 1-1.967 1.145q-1.144.398-2.613.398m-2.689-8.09h5.377q-.075-.771-.498-1.245a2.6 2.6 0 0 0-.995-.697 3.1 3.1 0 0 0-1.121-.224q-.522 0-1.145.224a2.7 2.7 0 0 0-1.07.673q-.448.472-.548 1.269m15.963 8.09q-1.942 0-3.46-.821a6.1 6.1 0 0 1-2.365-2.315q-.846-1.494-.846-3.386 0-1.917.846-3.385a6 6 0 0 1 2.34-2.29q1.494-.846 3.435-.847 1.868 0 3.411.921t2.24 2.664l-3.087 1.095a2.6 2.6 0 0 0-1.095-1.145 3 3 0 0 0-1.618-.448q-.92 0-1.618.448-.698.424-1.095 1.195-.398.772-.398 1.792t.398 1.793q.398.746 1.12 1.194a3.05 3.05 0 0 0 1.643.448q.896 0 1.618-.473.747-.473 1.095-1.244l3.112 1.095q-.722 1.767-2.265 2.738-1.52.971-3.411.971m6.733-.299V198.12h3.285v6.571a4.13 4.13 0 0 1 1.544-1.394q.921-.498 2.066-.498 1.494 0 2.514.598 1.046.597 1.593 1.867.548 1.244.548 3.236v7.044h-3.286v-6.372q0-1.27-.299-1.967-.299-.696-.821-.995-.523-.324-1.22-.324-1.27-.025-1.966.772-.672.796-.673 2.365v6.521zm18.915.299q-1.842 0-3.261-.821a6.1 6.1 0 0 1-2.24-2.315q-.797-1.469-.797-3.386t.821-3.385a6.07 6.07 0 0 1 2.291-2.29q1.468-.846 3.36-.847 1.642 0 3.012.872 1.394.846 2.216 2.514.846 1.643.846 4.008h-9.111q.125 1.244 1.071 1.991.946.722 2.14.722 1.021 0 1.668-.423a3 3 0 0 0 .996-1.145l2.937 1.145a6.2 6.2 0 0 1-1.369 1.817 5.65 5.65 0 0 1-1.966 1.145q-1.146.398-2.614.398m-2.689-8.09h5.377q-.074-.771-.498-1.245a2.6 2.6 0 0 0-.995-.697 3.1 3.1 0 0 0-1.12-.224q-.524 0-1.146.224a2.7 2.7 0 0 0-1.07.673q-.448.472-.548 1.269m9.964 7.791v-12.446h3.286v2.29q.772-1.17 1.942-1.742a5.44 5.44 0 0 1 2.464-.598v3.187q-1.144 0-2.166.273-.995.274-1.618.897-.622.621-.622 1.593v6.546zm14.549.299q-1.942 0-3.46-.821a6.1 6.1 0 0 1-2.365-2.315q-.846-1.494-.846-3.386 0-1.917.846-3.385a5.96 5.96 0 0 1 2.34-2.29q1.494-.846 3.435-.847 1.868 0 3.411.921t2.24 2.664l-3.087 1.095a2.6 2.6 0 0 0-1.095-1.145 3 3 0 0 0-1.618-.448q-.92 0-1.618.448-.697.424-1.095 1.195-.399.772-.399 1.792t.399 1.793q.398.746 1.12 1.194a3.05 3.05 0 0 0 1.643.448q.896 0 1.618-.473.747-.473 1.095-1.244l3.112 1.095q-.723 1.767-2.266 2.738-1.518.971-3.41.971m6.733-.299V198.12h3.285v6.571a4.13 4.13 0 0 1 1.544-1.394q.92-.498 2.066-.498 1.494 0 2.514.598 1.046.597 1.593 1.867.548 1.244.548 3.236v7.044h-3.286v-6.372q0-1.27-.299-1.967-.299-.696-.821-.995-.523-.324-1.22-.324-1.27-.025-1.967.772-.672.796-.672 2.365v6.521zm18.915.299q-1.842 0-3.261-.821a6.14 6.14 0 0 1-2.241-2.315q-.796-1.469-.796-3.386t.821-3.385a6.07 6.07 0 0 1 2.291-2.29q1.468-.846 3.36-.847 1.643 0 3.012.872 1.394.846 2.215 2.514.847 1.643.847 4.008h-9.111q.125 1.244 1.07 1.991a3.44 3.44 0 0 0 2.141.722q1.021 0 1.668-.423.647-.449.996-1.145l2.937 1.145a6.2 6.2 0 0 1-1.369 1.817 5.6 5.6 0 0 1-1.967 1.145q-1.144.398-2.613.398m-2.689-8.09h5.377q-.075-.771-.498-1.245a2.6 2.6 0 0 0-.995-.697 3.1 3.1 0 0 0-1.121-.224q-.522 0-1.145.224a2.7 2.7 0 0 0-1.07.673q-.448.472-.548 1.269m14.619 8.09a7 7 0 0 1-2.24-.348 5.9 5.9 0 0 1-1.842-1.046 4.9 4.9 0 0 1-1.245-1.693l2.813-1.294q.373.597 1.021 1.046.647.423 1.493.423.822 0 1.27-.224.447-.25.448-.697 0-.448-.374-.648-.348-.223-.971-.373l-1.145-.299q-1.791-.473-2.837-1.493-1.021-1.046-1.021-2.39 0-1.917 1.22-2.962 1.244-1.046 3.51-1.046 1.17 0 2.165.349a5.2 5.2 0 0 1 1.743.971q.722.622.995 1.443l-2.713 1.245q-.174-.498-.846-.796a3.1 3.1 0 0 0-1.344-.324q-.672 0-1.046.299-.348.273-.348.771 0 .324.348.548.348.2.996.348l1.618.399q1.22.298 1.941.971.747.647 1.071 1.468.348.797.348 1.568 0 1.12-.672 1.992-.647.846-1.792 1.319-1.12.473-2.564.473m14.169-.299-4.231-12.446h3.335l2.589 8.016 2.614-8.016h3.236l2.564 7.891 2.614-7.891h3.335l-4.232 12.446h-3.236l-2.663-8.413-2.688 8.413zm22.078.299q-1.842 0-3.261-.821a6.14 6.14 0 0 1-2.241-2.315q-.796-1.469-.796-3.386t.821-3.385a6.07 6.07 0 0 1 2.29-2.29q1.469-.846 3.361-.847 1.643 0 3.012.872 1.394.846 2.215 2.514.847 1.643.847 4.008h-9.111q.125 1.244 1.07 1.991a3.44 3.44 0 0 0 2.141.722q1.02 0 1.668-.423.646-.449.996-1.145l2.937 1.145a6.2 6.2 0 0 1-1.369 1.817 5.6 5.6 0 0 1-1.967 1.145q-1.144.398-2.613.398m-2.689-8.09h5.377q-.075-.771-.498-1.245a2.6 2.6 0 0 0-.996-.697 3.1 3.1 0 0 0-1.12-.224q-.522 0-1.145.224a2.7 2.7 0 0 0-1.07.673q-.448.472-.548 1.269m17.009 8.09q-1.27 0-2.216-.523-.945-.547-1.593-1.543l-.124 1.767h-3.112V198.12h3.286v6.671q.622-.97 1.568-1.469.946-.522 2.191-.523 1.717 0 2.962.797 1.27.797 1.966 2.265.697 1.444.697 3.46 0 1.992-.697 3.46-.697 1.469-1.966 2.266-1.245.796-2.962.796m-.847-3.012q.896 0 1.569-.448a3.1 3.1 0 0 0 1.095-1.245q.398-.796.398-1.817t-.398-1.817a2.75 2.75 0 0 0-1.071-1.22q-.671-.448-1.568-.448-.846 0-1.518.448a3 3 0 0 0-1.046 1.245q-.373.772-.373 1.792t.373 1.817q.373.796 1.021 1.245.672.448 1.518.448"/></svg>