<svg xmlns="http://www.w3.org/2000/svg" width="815" height="542" fill="none" viewBox="0 0 815 542"><rect width="812.18" height="538.521" x="1.41" y="1.41" stroke="#9be6aa" stroke-width="2.82" rx="6.111"/><path fill="#9be6aa" d="M57.572 70.659q-2.8 0-4.964-1.17a8.76 8.76 0 0 1-3.333-3.298q-1.205-2.127-1.205-4.893v-15.99h3.014v15.99q0 1.95.815 3.475a6.2 6.2 0 0 0 2.34 2.34q1.49.816 3.404.816 1.95 0 3.44-.816a5.87 5.87 0 0 0 2.34-2.34q.85-1.525.85-3.475v-15.99h2.979v15.99q0 2.766-1.206 4.893-1.205 2.092-3.404 3.298-2.198 1.17-5.07 1.17m14.27-.532V52.399h2.66l.141 2.659q.886-1.49 2.305-2.27 1.417-.815 3.297-.815 2.092 0 3.617.851 1.56.816 2.41 2.624.887 1.81.852 4.751v9.928h-2.837V61.05q0-2.624-.603-4.006-.602-1.383-1.666-1.88-1.065-.532-2.411-.532-2.34 0-3.652 1.667-1.277 1.631-1.277 4.645v9.183zm26.7.425q-2.588 0-4.574-1.17-1.984-1.205-3.12-3.297-1.1-2.092-1.099-4.822 0-2.73 1.1-4.822 1.134-2.092 3.084-3.262 1.986-1.206 4.538-1.206 2.483 0 4.29 1.241 1.809 1.206 2.802 3.404.992 2.199.992 5.177H92.621q.177 2.907 1.844 4.538 1.665 1.631 4.219 1.631 1.88 0 3.156-.886a5.9 5.9 0 0 0 2.021-2.34l2.446 1.24a7.9 7.9 0 0 1-1.808 2.412q-1.1 1.028-2.624 1.595-1.49.567-3.333.567M92.834 59.42h10.672q-.107-1.523-.815-2.624a4.7 4.7 0 0 0-1.773-1.702q-1.1-.602-2.482-.602-1.347 0-2.589.602a5.1 5.1 0 0 0-2.056 1.702q-.816 1.1-.957 2.624m30.592 11.133q-1.95 0-3.403-.567-1.454-.603-2.447-1.56-.957-.957-1.383-2.092l2.482-1.028q.603 1.206 1.809 1.95a4.96 4.96 0 0 0 2.659.745q1.666 0 2.801-.639 1.134-.673 1.134-1.879 0-1.099-.851-1.773-.815-.673-2.446-1.099l-1.702-.46q-2.41-.639-3.758-1.915-1.348-1.312-1.348-2.943 0-2.518 1.631-3.9 1.666-1.419 4.929-1.419 1.56 0 2.836.461a6.4 6.4 0 0 1 2.199 1.312 4.85 4.85 0 0 1 1.347 1.95l-2.482 1.1q-.461-1.206-1.525-1.738t-2.588-.532q-1.63 0-2.553.71-.922.673-.922 1.914 0 .71.745 1.347.78.603 2.269.993l1.773.461q1.737.426 2.907 1.276 1.17.816 1.773 1.88.603 1.063.603 2.269 0 1.595-.851 2.765t-2.305 1.809q-1.453.602-3.333.602m17.241 0q-2.589 0-4.574-1.17a8.54 8.54 0 0 1-3.12-3.297q-1.1-2.092-1.099-4.822 0-2.73 1.099-4.822 1.135-2.092 3.085-3.262 1.985-1.206 4.538-1.206 2.483 0 4.29 1.241 1.81 1.206 2.801 3.404.993 2.199.993 5.177h-13.934q.177 2.907 1.844 4.538 1.666 1.631 4.219 1.631 1.88 0 3.155-.886a5.9 5.9 0 0 0 2.021-2.34l2.447 1.24a7.9 7.9 0 0 1-1.808 2.412q-1.1 1.028-2.624 1.595-1.49.567-3.333.567m-5.708-11.133h10.672q-.107-1.523-.816-2.624a4.7 4.7 0 0 0-1.772-1.702q-1.1-.602-2.482-.602-1.348 0-2.589.602a5.1 5.1 0 0 0-2.056 1.702q-.816 1.1-.957 2.624m22.668 11.133q-1.95 0-3.404-.567-1.454-.603-2.447-1.56-.957-.957-1.382-2.092l2.482-1.028q.602 1.206 1.808 1.95 1.206.745 2.659.745 1.667 0 2.801-.639 1.135-.673 1.135-1.879 0-1.099-.851-1.773-.816-.673-2.447-1.099l-1.702-.46q-2.41-.639-3.758-1.915-1.347-1.312-1.347-2.943 0-2.518 1.631-3.9 1.666-1.419 4.928-1.419 1.56 0 2.837.461a6.4 6.4 0 0 1 2.198 1.312 4.8 4.8 0 0 1 1.347 1.95l-2.482 1.1q-.46-1.206-1.524-1.738t-2.589-.532q-1.63 0-2.552.71-.922.673-.922 1.914 0 .71.744 1.347.78.603 2.269.993l1.773.461q1.738.426 2.908 1.276 1.17.816 1.773 1.88.602 1.063.602 2.269 0 1.595-.851 2.765-.85 1.17-2.304 1.809-1.453.602-3.333.602m15.68 0q-1.95 0-3.403-.567-1.454-.603-2.447-1.56-.957-.957-1.383-2.092l2.482-1.028q.603 1.206 1.808 1.95a4.97 4.97 0 0 0 2.66.745q1.666 0 2.801-.639 1.134-.673 1.134-1.879 0-1.099-.851-1.773-.815-.673-2.446-1.099l-1.702-.46q-2.41-.639-3.758-1.915-1.348-1.312-1.348-2.943 0-2.518 1.631-3.9 1.666-1.419 4.929-1.419 1.56 0 2.836.461a6.4 6.4 0 0 1 2.199 1.312 4.85 4.85 0 0 1 1.347 1.95l-2.482 1.1q-.461-1.206-1.525-1.738t-2.588-.532q-1.63 0-2.553.71-.922.673-.922 1.914 0 .71.745 1.347.78.603 2.269.993l1.773.461q1.737.426 2.907 1.276 1.17.816 1.773 1.88.603 1.063.603 2.269 0 1.595-.851 2.765t-2.305 1.809q-1.454.602-3.333.602m9.653-.425V52.399h2.837v17.728zm1.454-21.841q-.709 0-1.241-.532t-.532-1.241q0-.745.532-1.24.532-.534 1.241-.533.744 0 1.241.532.532.497.532 1.241 0 .709-.532 1.241a1.63 1.63 0 0 1-1.241.532m13.61 22.266q-2.589 0-4.609-1.17-1.986-1.205-3.121-3.297-1.134-2.092-1.134-4.822t1.099-4.822q1.134-2.092 3.12-3.262 2.022-1.206 4.574-1.206 2.624 0 4.609 1.206a8 8 0 0 1 3.121 3.262q1.134 2.092 1.134 4.822t-1.134 4.822a8.3 8.3 0 0 1-3.085 3.297q-1.986 1.17-4.574 1.17m0-2.623q1.773 0 3.085-.851 1.311-.852 2.056-2.34.78-1.49.78-3.475t-.78-3.475q-.744-1.49-2.092-2.34-1.347-.85-3.12-.85-1.737 0-3.085.85-1.312.85-2.092 2.34-.744 1.49-.744 3.475 0 1.95.744 3.475.78 1.488 2.128 2.34 1.383.85 3.12.85m11.896 2.198V52.399h2.659l.142 2.659q.886-1.49 2.305-2.27 1.418-.815 3.297-.815 2.092 0 3.617.851 1.56.816 2.411 2.624.885 1.81.851 4.751v9.928h-2.837V61.05q0-2.624-.603-4.006t-1.666-1.88q-1.064-.532-2.411-.532-2.34 0-3.652 1.667-1.277 1.631-1.277 4.645v9.183zm33.065.425q-1.951 0-3.404-.567-1.454-.603-2.447-1.56-.957-.957-1.383-2.092l2.482-1.028q.603 1.206 1.809 1.95a4.96 4.96 0 0 0 2.659.745q1.666 0 2.801-.639 1.135-.673 1.135-1.879 0-1.099-.851-1.773-.816-.673-2.447-1.099l-1.702-.46q-2.41-.639-3.758-1.915-1.347-1.312-1.348-2.943 0-2.518 1.631-3.9 1.666-1.419 4.929-1.419 1.56 0 2.836.461a6.4 6.4 0 0 1 2.199 1.312 4.85 4.85 0 0 1 1.347 1.95l-2.482 1.1q-.46-1.206-1.525-1.738-1.063-.532-2.588-.532-1.63 0-2.553.71-.922.673-.922 1.914 0 .71.745 1.347.78.603 2.269.993l1.773.461q1.737.426 2.907 1.276 1.17.816 1.773 1.88.603 1.063.603 2.269 0 1.595-.851 2.765-.85 1.17-2.305 1.809-1.454.602-3.332.602m15.893 0q-2.057 0-3.617-.815-1.524-.85-2.411-2.66-.85-1.842-.851-4.75v-9.928h2.837v9.077q0 2.623.603 4.006.602 1.383 1.666 1.915 1.1.495 2.446.496 2.305 0 3.582-1.666 1.311-1.667 1.311-4.645v-9.183h2.837v17.728h-2.659l-.142-2.66q-.886 1.49-2.305 2.305-1.417.78-3.297.78m12.518-.425V52.399h2.836v3.155q1.064-1.666 2.73-2.446a8.4 8.4 0 0 1 3.546-.78v2.66q-1.56 0-3.014.53a5.04 5.04 0 0 0-2.34 1.667q-.922 1.17-.922 3.191v9.751zm30.344.425q-3.546 0-6.276-1.63-2.73-1.666-4.29-4.539-1.56-2.907-1.56-6.666 0-3.758 1.524-6.63 1.56-2.907 4.255-4.539 2.73-1.665 6.24-1.666 2.235 0 4.291.816a11.8 11.8 0 0 1 3.687 2.233 10 10 0 0 1 2.517 3.298l-2.588 1.312a8.1 8.1 0 0 0-1.95-2.589 9.3 9.3 0 0 0-2.766-1.702 8.2 8.2 0 0 0-3.191-.638q-2.588 0-4.644 1.312-2.057 1.276-3.227 3.546-1.134 2.27-1.135 5.247 0 2.979 1.171 5.283 1.17 2.305 3.226 3.617 2.092 1.275 4.716 1.276 1.702 0 3.226-.674a9.5 9.5 0 0 0 2.73-1.914 9 9 0 0 0 1.951-2.766l2.623 1.312a11.4 11.4 0 0 1-2.553 3.475 11.6 11.6 0 0 1-3.687 2.376q-2.057.85-4.29.85m13.442-.425v-24.82h2.837v9.68q.886-1.454 2.305-2.234 1.417-.78 3.297-.78 2.056 0 3.617.851 1.56.816 2.411 2.624.886 1.81.851 4.751v9.928h-2.837V61.05q0-2.624-.638-4.006-.603-1.383-1.667-1.88-1.063-.532-2.411-.532-2.34 0-3.652 1.667-1.276 1.631-1.276 4.645v9.183zm24.538.425q-3.12 0-4.893-1.418-1.737-1.454-1.738-4.006 0-2.695 1.773-4.113 1.809-1.455 5.035-1.454h4.929q-.178-2.517-1.241-3.758-1.064-1.277-3.192-1.277-1.454 0-2.517.603-1.028.567-1.702 1.844l-2.553-.993a8.2 8.2 0 0 1 1.631-2.127 6.2 6.2 0 0 1 2.234-1.383q1.276-.497 2.907-.497 2.482 0 4.078.993 1.631.958 2.446 2.872.816 1.88.78 4.68l-.035 9.609h-2.624l-.142-2.376a5.56 5.56 0 0 1-2.091 2.092q-1.312.71-3.085.71m.142-2.482q1.524 0 2.659-.638a4.45 4.45 0 0 0 1.737-1.879q.638-1.206.638-2.907v-.71h-4.361q-2.481 0-3.545.816-1.029.816-1.029 2.34 0 1.383 1.029 2.198 1.027.78 2.872.78m18.16 2.482q-2.588 0-4.006-1.347t-1.419-3.794V54.916h-3.084V52.4h3.084v-5.531h2.837v5.53h5.318v2.518h-5.318v10.212q0 1.347.709 2.091.744.71 2.056.71.426 0 .816-.107.426-.141 1.099-.638l1.099 2.305q-.922.603-1.666.815a4.8 4.8 0 0 1-1.525.248m17.954 0q-3.794 0-6.701-1.63a12.2 12.2 0 0 1-4.574-4.539q-1.632-2.907-1.631-6.63 0-3.794 1.631-6.666a11.9 11.9 0 0 1 4.574-4.539q2.907-1.665 6.701-1.666 1.986 0 3.865.674a12.8 12.8 0 0 1 3.439 1.773q1.56 1.134 2.517 2.588l-2.375 1.63q-.71-1.134-1.915-2.02a9.3 9.3 0 0 0-2.659-1.418 8.6 8.6 0 0 0-2.872-.497q-2.873 0-5.106 1.312a9.2 9.2 0 0 0-3.51 3.546q-1.276 2.269-1.276 5.283 0 2.907 1.241 5.212a9.45 9.45 0 0 0 3.51 3.58q2.268 1.314 5.141 1.313 2.376 0 4.219-.993 1.88-.993 2.943-2.766t1.099-4.042h-6.098V57.47h8.97v2.34q0 3.226-1.454 5.638-1.418 2.41-3.935 3.758t-5.744 1.347m14.863-.425v-24.82h8.084q2.411 0 4.255.993 1.88.993 2.907 2.766 1.064 1.773 1.064 4.113 0 2.27-.957 4.042a7.3 7.3 0 0 1-2.624 2.8q-1.666.994-3.865.994h-5.85v9.112zm3.014-11.842h5.85q1.95 0 3.191-1.419 1.277-1.453 1.277-3.687 0-2.305-1.49-3.723-1.488-1.419-3.793-1.418h-5.035zm21.682 11.842v-22.09h-7.906v-2.73h18.791v2.73h-7.906v22.09zm28.744.425q-2.624 0-4.644-1.17a8.46 8.46 0 0 1-3.156-3.297q-1.135-2.092-1.135-4.822t1.1-4.822a8.2 8.2 0 0 1 3.155-3.262q2.021-1.206 4.609-1.206 2.553 0 4.574 1.17t3.085 3.298l-2.588 1.17a5.14 5.14 0 0 0-2.057-2.198q-1.347-.816-3.084-.816t-3.085.851q-1.312.851-2.092 2.376-.745 1.489-.745 3.439t.745 3.475q.78 1.488 2.127 2.34 1.383.85 3.12.85t3.085-.886q1.383-.886 2.092-2.482l2.588 1.17q-1.064 2.27-3.084 3.546-2.022 1.276-4.61 1.276m18.276 0q-2.588 0-4.609-1.17a8.54 8.54 0 0 1-3.12-3.297q-1.135-2.092-1.135-4.822t1.099-4.822q1.136-2.092 3.12-3.262 2.022-1.206 4.574-1.206 2.624 0 4.61 1.206a8 8 0 0 1 3.12 3.262q1.134 2.092 1.134 4.822t-1.134 4.822a8.3 8.3 0 0 1-3.085 3.297q-1.986 1.17-4.574 1.17m0-2.623q1.773 0 3.085-.851 1.312-.852 2.056-2.34.78-1.49.78-3.475t-.78-3.475q-.744-1.49-2.092-2.34-1.347-.85-3.12-.85-1.737 0-3.084.85-1.312.85-2.092 2.34-.745 1.49-.745 3.475 0 1.95.745 3.475.78 1.488 2.127 2.34 1.383.85 3.12.85m11.896 2.198V52.399h2.659l.142 2.659q.886-1.49 2.305-2.27 1.417-.815 3.297-.815 2.092 0 3.617.851 1.56.816 2.411 2.624.886 1.81.851 4.751v9.928h-2.837V61.05q0-2.624-.603-4.006-.602-1.383-1.666-1.88-1.064-.532-2.411-.532-2.34 0-3.652 1.667-1.276 1.631-1.276 4.645v9.183zm25.14.425q-1.95 0-3.404-.567-1.453-.603-2.446-1.56-.957-.957-1.383-2.092l2.482-1.028q.603 1.206 1.808 1.95 1.206.745 2.66.745 1.666 0 2.801-.639 1.134-.673 1.134-1.879 0-1.099-.851-1.773-.815-.673-2.446-1.099l-1.702-.46q-2.41-.639-3.758-1.915-1.348-1.312-1.348-2.943 0-2.518 1.631-3.9 1.666-1.419 4.929-1.419 1.56 0 2.836.461a6.4 6.4 0 0 1 2.198 1.312 4.84 4.84 0 0 1 1.348 1.95l-2.482 1.1q-.461-1.206-1.525-1.738t-2.588-.532q-1.63 0-2.553.71-.922.673-.922 1.914 0 .71.745 1.347.78.603 2.269.993l1.773.461q1.737.426 2.907 1.276 1.17.816 1.773 1.88.603 1.063.603 2.269 0 1.595-.851 2.765-.852 1.17-2.305 1.809-1.453.602-3.333.602m17.312 0q-2.589 0-4.61-1.17-1.985-1.205-3.12-3.297-1.134-2.092-1.134-4.822t1.099-4.822q1.134-2.092 3.12-3.262 2.02-1.206 4.574-1.206 2.623 0 4.609 1.206a7.97 7.97 0 0 1 3.12 3.262q1.135 2.092 1.135 4.822t-1.135 4.822a8.3 8.3 0 0 1-3.084 3.297q-1.986 1.17-4.574 1.17m0-2.623q1.773 0 3.084-.851 1.313-.852 2.057-2.34.78-1.49.78-3.475t-.78-3.475q-.744-1.49-2.092-2.34-1.347-.85-3.12-.85-1.737 0-3.085.85-1.312.85-2.092 2.34-.744 1.49-.744 3.475 0 1.95.744 3.475.78 1.488 2.128 2.34 1.382.85 3.12.85m11.896 2.198V52.399h2.659l.142 2.482q.815-1.419 2.092-2.163 1.276-.745 2.978-.745 2.128 0 3.616.993 1.526.993 2.199 3.014.744-1.95 2.163-2.978 1.453-1.029 3.439-1.029 2.978 0 4.68 1.986 1.737 1.986 1.702 6.027v10.141h-2.836V61.05q0-2.624-.568-4.006-.531-1.383-1.454-1.88-.921-.532-2.127-.532-2.092 0-3.262 1.667-1.17 1.631-1.17 4.645v9.183h-2.836V61.05q0-2.624-.568-4.006-.532-1.383-1.489-1.88-.922-.532-2.127-.532-2.057 0-3.227 1.667-1.17 1.631-1.17 4.645v9.183zm29.323 0V52.399h2.659l.142 2.482q.815-1.419 2.092-2.163 1.275-.745 2.978-.745 2.128 0 3.616.993 1.526.993 2.199 3.014.744-1.95 2.163-2.978 1.453-1.029 3.439-1.029 2.978 0 4.68 1.986 1.737 1.986 1.702 6.027v10.141h-2.837V61.05q0-2.624-.567-4.006-.531-1.383-1.454-1.88-.921-.532-2.127-.532-2.092 0-3.262 1.667-1.17 1.631-1.17 4.645v9.183h-2.836V61.05q0-2.624-.568-4.006-.532-1.383-1.489-1.88-.922-.532-2.127-.532-2.057 0-3.227 1.667-1.17 1.631-1.17 4.645v9.183zm37.087.425q-2.588 0-4.573-1.17-1.986-1.205-3.121-3.297-1.098-2.092-1.099-4.822t1.099-4.822q1.135-2.092 3.085-3.262 1.986-1.206 4.538-1.206 2.482 0 4.291 1.241 1.808 1.206 2.801 3.404t.993 5.177h-13.935q.177 2.907 1.844 4.538 1.666 1.631 4.219 1.631 1.88 0 3.156-.886a5.9 5.9 0 0 0 2.021-2.34l2.446 1.24a7.9 7.9 0 0 1-1.808 2.412q-1.099 1.028-2.624 1.595-1.488.567-3.333.567m-5.708-11.133h10.672q-.106-1.523-.815-2.624a4.7 4.7 0 0 0-1.773-1.702q-1.1-.602-2.482-.602-1.347 0-2.588.602a5.1 5.1 0 0 0-2.057 1.702q-.815 1.1-.957 2.624m29.6 10.708V49.243a15 15 0 0 1-2.766 1.808q-1.383.674-2.801.639v-2.73q.745.035 1.773-.497a14 14 0 0 0 2.127-1.383 14 14 0 0 0 1.915-1.773h2.695v24.82zm17.463.425q-2.837 0-5.035-1.63-2.199-1.666-3.439-4.539-1.242-2.907-1.241-6.666 0-3.758 1.241-6.63 1.241-2.907 3.403-4.539 2.199-1.665 5.071-1.666t5.034 1.666q2.198 1.631 3.44 4.539 1.276 2.872 1.276 6.63t-1.241 6.666q-1.241 2.873-3.439 4.538-2.199 1.631-5.07 1.631m0-2.694q1.985 0 3.51-1.312 1.56-1.312 2.411-3.581.886-2.27.886-5.248t-.886-5.247q-.85-2.305-2.411-3.581-1.526-1.312-3.51-1.312-1.986 0-3.51 1.312-1.526 1.276-2.412 3.58-.85 2.27-.85 5.248t.85 5.248q.886 2.27 2.412 3.58 1.56 1.314 3.51 1.313m22.711 2.269V54.845h-3.262V52.4h3.262v-2.021q0-2.766 1.277-4.149 1.311-1.418 3.971-1.418.709 0 1.595.248.887.248 1.88.71l-1.064 2.233a22 22 0 0 0-1.383-.496q-.567-.177-.957-.178-1.242 0-1.879.816-.603.78-.603 2.447V52.4h5.141v2.446h-5.141v15.282zm18.212.425q-2.588 0-4.609-1.17a8.54 8.54 0 0 1-3.12-3.297q-1.135-2.092-1.135-4.822t1.099-4.822q1.136-2.092 3.12-3.262 2.021-1.206 4.574-1.206 2.624 0 4.61 1.206a8 8 0 0 1 3.12 3.262q1.134 2.092 1.134 4.822t-1.134 4.822a8.3 8.3 0 0 1-3.085 3.297q-1.986 1.17-4.574 1.17m0-2.623q1.773 0 3.085-.851 1.311-.852 2.056-2.34.78-1.49.78-3.475t-.78-3.475q-.744-1.49-2.092-2.34-1.347-.85-3.12-.85-1.737 0-3.084.85-1.312.85-2.092 2.34-.745 1.49-.745 3.475 0 1.95.745 3.475.78 1.488 2.127 2.34 1.383.85 3.12.85m12.073 2.198V52.399h2.837v17.728zm1.454-21.841q-.709 0-1.241-.532t-.532-1.241q0-.745.532-1.24.532-.534 1.241-.533.744 0 1.241.532.532.497.532 1.241 0 .709-.532 1.241a1.63 1.63 0 0 1-1.241.532m11.979 22.266q-1.95 0-3.404-.567-1.453-.603-2.446-1.56-.958-.957-1.383-2.092l2.482-1.028q.602 1.206 1.808 1.95 1.206.745 2.659.745 1.667 0 2.801-.639 1.135-.673 1.135-1.879 0-1.099-.851-1.773-.816-.673-2.446-1.099l-1.702-.46q-2.412-.639-3.759-1.915-1.347-1.312-1.347-2.943 0-2.518 1.631-3.9 1.667-1.419 4.928-1.419 1.56 0 2.837.461a6.4 6.4 0 0 1 2.198 1.312 4.8 4.8 0 0 1 1.347 1.95l-2.481 1.1q-.462-1.206-1.525-1.738-1.064-.532-2.588-.532-1.632 0-2.553.71-.922.673-.922 1.914 0 .71.744 1.347.78.603 2.27.993l1.772.461q1.738.426 2.908 1.276 1.17.816 1.773 1.88.603 1.063.602 2.269 0 1.595-.85 2.765-.852 1.17-2.305 1.809-1.454.602-3.333.602M47.786 120.218v-24.82h2.66l.141 3.015q.993-1.596 2.518-2.518 1.56-.922 3.51-.922 2.376 0 4.184 1.17t2.8 3.262q1.029 2.092 1.029 4.858 0 2.73-1.028 4.857-.993 2.092-2.801 3.262t-4.184 1.17q-1.95 0-3.475-.886-1.524-.922-2.517-2.517v10.069zm8.19-9.254q1.668 0 2.944-.851 1.312-.85 2.056-2.375.78-1.525.78-3.475t-.745-3.475q-.709-1.524-2.02-2.375-1.312-.852-2.979-.851-1.56 0-2.801.85-1.206.852-1.915 2.376-.673 1.525-.673 3.475t.673 3.475q.71 1.524 1.915 2.375 1.206.85 2.766.851m11.746 2.163v-24.82h2.836v24.82zm13.372.425q-2.055 0-3.616-.815-1.525-.851-2.411-2.659-.852-1.844-.851-4.751v-9.928h2.836v9.077q0 2.623.603 4.006t1.666 1.915q1.1.496 2.447.496 2.305 0 3.58-1.666 1.313-1.666 1.313-4.645v-9.183h2.836v17.728h-2.659l-.142-2.659q-.885 1.49-2.305 2.304-1.418.78-3.297.78m18.723 0q-1.95 0-3.404-.567-1.454-.603-2.447-1.56-.957-.957-1.382-2.092l2.481-1.028q.603 1.206 1.809 1.95 1.205.745 2.659.745 1.667 0 2.801-.639 1.135-.673 1.135-1.879 0-1.1-.851-1.773-.816-.673-2.447-1.099l-1.702-.461q-2.41-.638-3.758-1.914-1.347-1.313-1.347-2.943 0-2.518 1.63-3.9 1.667-1.419 4.929-1.419 1.56 0 2.837.461 1.275.462 2.198 1.312a4.84 4.84 0 0 1 1.347 1.95l-2.482 1.1q-.46-1.206-1.524-1.738t-2.589-.532q-1.63 0-2.553.71-.921.673-.921 1.914 0 .71.744 1.347.78.603 2.27.993l1.772.461q1.738.426 2.908 1.276 1.17.816 1.772 1.88.603 1.063.603 2.269 0 1.595-.851 2.765-.85 1.17-2.304 1.809-1.455.603-3.333.602m24.385 0q-2.376 0-4.184-1.17t-2.837-3.262q-.992-2.127-.992-4.857 0-2.766.992-4.858 1.028-2.092 2.837-3.262 1.808-1.17 4.184-1.17 1.95 0 3.474.922a6.85 6.85 0 0 1 2.518 2.482v-10.07h2.836v24.82h-2.694l-.142-3.014a7.14 7.14 0 0 1-2.518 2.518q-1.524.921-3.474.921m.638-2.588q1.56 0 2.73-.815 1.206-.852 1.879-2.34.71-1.526.745-3.404v-.249q-.036-1.914-.745-3.403-.673-1.525-1.879-2.34-1.205-.852-2.766-.851-1.665 0-2.978.85-1.311.852-2.056 2.376-.71 1.525-.709 3.475 0 1.95.744 3.475.745 1.524 2.057 2.375 1.311.85 2.978.851m10.473-15.175 2.021-7.481h3.191l-2.766 7.48zm15.178 17.763q-2.588 0-4.574-1.17-1.984-1.204-3.12-3.297-1.1-2.092-1.099-4.822 0-2.73 1.099-4.822 1.135-2.092 3.085-3.262 1.986-1.206 4.538-1.206 2.482 0 4.29 1.241 1.809 1.206 2.802 3.404.992 2.198.992 5.177H144.57q.177 2.907 1.844 4.538 1.666 1.63 4.219 1.631 1.88 0 3.156-.886a5.9 5.9 0 0 0 2.021-2.34l2.446 1.241a7.9 7.9 0 0 1-1.808 2.411q-1.1 1.028-2.624 1.595-1.49.567-3.333.567m-5.708-11.133h10.672q-.107-1.524-.815-2.624a4.7 4.7 0 0 0-1.773-1.701q-1.1-.603-2.482-.603-1.347 0-2.589.603a5.1 5.1 0 0 0-2.056 1.701q-.816 1.1-.957 2.624m3.262-9.538 4.148-4.573h3.652l-4.574 4.573zm13.236 20.246v-24.82h2.836v24.82zm14.72.425q-2.59 0-4.574-1.17-1.986-1.204-3.12-3.297-1.1-2.092-1.1-4.822t1.1-4.822q1.134-2.092 3.084-3.262 1.986-1.206 4.539-1.206 2.481 0 4.29 1.241 1.808 1.206 2.801 3.404t.993 5.177h-13.935q.178 2.907 1.844 4.538 1.667 1.63 4.219 1.631 1.88 0 3.156-.886a5.9 5.9 0 0 0 2.021-2.34l2.447 1.241a7.9 7.9 0 0 1-1.809 2.411q-1.099 1.028-2.624 1.595-1.488.567-3.332.567m-5.709-11.133h10.672q-.105-1.524-.815-2.624a4.7 4.7 0 0 0-1.773-1.701q-1.1-.603-2.482-.603-1.347 0-2.588.603a5.1 5.1 0 0 0-2.057 1.701q-.815 1.1-.957 2.624m24.37 11.133q-2.623 0-4.645-1.17a8.46 8.46 0 0 1-3.155-3.297q-1.135-2.092-1.135-4.822t1.099-4.822a8.23 8.23 0 0 1 3.156-3.262q2.021-1.206 4.609-1.206 2.553 0 4.574 1.17t3.085 3.298l-2.588 1.17a5.14 5.14 0 0 0-2.057-2.198q-1.347-.816-3.085-.816t-3.084.851q-1.312.851-2.092 2.376-.745 1.489-.745 3.439t.745 3.475q.78 1.488 2.127 2.34 1.383.85 3.12.851 1.738 0 3.085-.887 1.383-.886 2.092-2.482l2.588 1.17q-1.063 2.27-3.084 3.546t-4.61 1.276m17.106 0q-2.589 0-4.007-1.347t-1.418-3.794V97.916h-3.085V95.4h3.085v-5.531h2.837v5.53h5.318v2.518h-5.318v10.212q0 1.347.709 2.092.744.709 2.056.709.426 0 .816-.107.425-.141 1.099-.638l1.099 2.305q-.922.602-1.666.815a4.8 4.8 0 0 1-1.525.248m5.898-.425V95.399h2.837v3.155q1.064-1.665 2.73-2.446a8.4 8.4 0 0 1 3.546-.78v2.66q-1.56 0-3.014.53a5.03 5.03 0 0 0-2.34 1.667q-.922 1.17-.922 3.191v9.751zm11.322 0V95.399h2.837v17.728zm1.454-21.841q-.709 0-1.241-.532t-.532-1.241q0-.744.532-1.24.532-.533 1.241-.533.744 0 1.241.532.532.497.532 1.241 0 .709-.532 1.241a1.63 1.63 0 0 1-1.241.532m13.681 22.266q-2.623 0-4.645-1.17a8.46 8.46 0 0 1-3.155-3.297q-1.135-2.092-1.135-4.822t1.099-4.822a8.2 8.2 0 0 1 3.156-3.262q2.021-1.206 4.609-1.206 2.553 0 4.574 1.17t3.085 3.298l-2.589 1.17a5.13 5.13 0 0 0-2.056-2.198q-1.347-.816-3.085-.816t-3.085.851q-1.311.851-2.091 2.376-.745 1.489-.745 3.439t.745 3.475q.78 1.488 2.127 2.34 1.383.85 3.12.851 1.737 0 3.085-.887 1.383-.886 2.092-2.482l2.588 1.17q-1.063 2.27-3.085 3.546-2.02 1.276-4.609 1.276m10.617-.425V95.399h2.837v17.728zm1.454-21.841q-.71 0-1.241-.532t-.532-1.241q0-.744.532-1.24.531-.533 1.241-.533.744 0 1.241.532.531.497.532 1.241 0 .709-.532 1.241a1.63 1.63 0 0 1-1.241.532m12.44 22.266q-2.588 0-4.007-1.347t-1.418-3.794V97.916h-3.085V95.4h3.085v-5.531h2.836v5.53h5.319v2.518h-5.319v10.212q0 1.347.71 2.092.744.709 2.056.709.426 0 .816-.107.425-.141 1.099-.638l1.099 2.305q-.922.602-1.667.815a4.8 4.8 0 0 1-1.524.248m13.559 0q-2.588 0-4.574-1.17-1.985-1.204-3.12-3.297-1.099-2.092-1.099-4.822t1.099-4.822q1.135-2.092 3.085-3.262 1.986-1.206 4.538-1.206 2.482 0 4.291 1.241 1.808 1.206 2.801 3.404t.992 5.177h-13.934q.177 2.907 1.844 4.538 1.666 1.63 4.219 1.631 1.88 0 3.156-.886a5.9 5.9 0 0 0 2.021-2.34l2.446 1.241a7.9 7.9 0 0 1-1.808 2.411q-1.099 1.028-2.624 1.595-1.49.567-3.333.567m-5.708-11.133h10.672q-.107-1.524-.815-2.624a4.7 4.7 0 0 0-1.773-1.701q-1.1-.603-2.482-.603-1.347 0-2.588.603a5.1 5.1 0 0 0-2.057 1.701q-.815 1.1-.957 2.624m3.262-9.538 4.148-4.573h3.652l-4.574 4.573zm34.137 27.337V110.15a7.14 7.14 0 0 1-2.517 2.517q-1.525.886-3.475.886-2.376 0-4.184-1.17t-2.836-3.262q-.993-2.127-.993-4.857 0-2.766.993-4.858 1.028-2.092 2.836-3.262 1.809-1.17 4.184-1.17 1.95 0 3.475.922a7.1 7.1 0 0 1 2.517 2.518l.142-3.014h2.695v24.819zm-5.354-9.254q1.56 0 2.766-.851 1.206-.85 1.879-2.375.71-1.525.709-3.475 0-1.95-.709-3.475-.673-1.524-1.879-2.375-1.205-.852-2.801-.851-1.667 0-2.978.85-1.277.852-2.021 2.376-.745 1.525-.745 3.475t.745 3.475 2.056 2.375 2.978.851m18.457 2.588q-2.056 0-3.616-.815-1.525-.851-2.411-2.659-.851-1.844-.851-4.751V95.4h2.836v9.077q0 2.623.603 4.006.602 1.383 1.667 1.915 1.099.496 2.446.496 2.304 0 3.581-1.666 1.312-1.666 1.312-4.645V95.4h2.837v17.728h-2.66l-.142-2.659q-.886 1.49-2.304 2.304-1.419.78-3.298.78m10.674-17.763 2.021-7.481h3.191l-2.765 7.48zm13.832 17.763q-2.057 0-3.617-.815-1.524-.851-2.411-2.659-.85-1.844-.851-4.751V95.4h2.837v9.077q0 2.623.602 4.006.603 1.383 1.667 1.915 1.1.496 2.446.496 2.305 0 3.581-1.666 1.312-1.666 1.312-4.645V95.4h2.837v17.728h-2.659l-.142-2.659q-.886 1.49-2.305 2.304-1.418.78-3.297.78m12.517-.425V95.399h2.66l.141 2.659q.887-1.49 2.305-2.27 1.419-.815 3.298-.815 2.091 0 3.616.851 1.56.816 2.411 2.624.887 1.809.851 4.751v9.928h-2.836v-9.077q0-2.624-.603-4.006t-1.667-1.88q-1.063-.532-2.411-.532-2.34 0-3.652 1.667-1.276 1.631-1.276 4.645v9.183zm26.701.425q-2.59 0-4.574-1.17-1.986-1.204-3.12-3.297-1.1-2.092-1.1-4.822t1.1-4.822q1.134-2.092 3.084-3.262 1.986-1.206 4.539-1.206 2.481 0 4.29 1.241 1.808 1.206 2.801 3.404t.993 5.177h-13.935q.178 2.907 1.844 4.538 1.667 1.63 4.219 1.631 1.88 0 3.156-.886a5.9 5.9 0 0 0 2.021-2.34l2.447 1.241a7.9 7.9 0 0 1-1.809 2.411q-1.099 1.028-2.623 1.595-1.49.567-3.333.567m-5.709-11.133h10.673q-.107-1.524-.816-2.624a4.7 4.7 0 0 0-1.773-1.701q-1.1-.603-2.482-.603-1.347 0-2.588.603a5.1 5.1 0 0 0-2.056 1.701q-.816 1.1-.958 2.624m24.388 10.708V95.399h2.837v3.155q1.064-1.665 2.73-2.446a8.4 8.4 0 0 1 3.545-.78v2.66a8.7 8.7 0 0 0-3.013.53 5.04 5.04 0 0 0-2.341 1.667q-.921 1.17-.921 3.191v9.751zm18.91.425q-2.59 0-4.574-1.17-1.986-1.204-3.12-3.297-1.1-2.092-1.1-4.822t1.1-4.822q1.134-2.092 3.084-3.262 1.986-1.206 4.539-1.206 2.481 0 4.29 1.241 1.808 1.206 2.801 3.404t.993 5.177h-13.935q.178 2.907 1.844 4.538 1.667 1.63 4.219 1.631 1.88 0 3.156-.886a5.9 5.9 0 0 0 2.021-2.34l2.447 1.241a7.9 7.9 0 0 1-1.809 2.411q-1.099 1.028-2.623 1.595-1.49.567-3.333.567m-5.709-11.133h10.673q-.107-1.524-.816-2.624a4.7 4.7 0 0 0-1.773-1.701q-1.1-.603-2.482-.603-1.347 0-2.588.603a5.1 5.1 0 0 0-2.057 1.701q-.815 1.1-.957 2.624m24.37 11.133q-2.623 0-4.645-1.17a8.46 8.46 0 0 1-3.155-3.297q-1.135-2.092-1.135-4.822t1.099-4.822a8.23 8.23 0 0 1 3.156-3.262q2.021-1.206 4.609-1.206 2.553 0 4.574 1.17t3.085 3.298l-2.588 1.17a5.14 5.14 0 0 0-2.057-2.198q-1.347-.816-3.085-.816t-3.084.851q-1.312.851-2.092 2.376-.745 1.489-.745 3.439t.745 3.475q.78 1.488 2.127 2.34 1.383.85 3.12.851 1.738 0 3.085-.887 1.383-.886 2.092-2.482l2.588 1.17q-1.063 2.27-3.084 3.546t-4.61 1.276m10.44-.425v-24.82h2.837v9.68q.887-1.454 2.304-2.234 1.419-.78 3.298-.78 2.056 0 3.616.851 1.56.816 2.411 2.624.887 1.809.851 4.751v9.928h-2.836v-9.077q0-2.624-.638-4.006-.603-1.383-1.667-1.88-1.064-.532-2.411-.532-2.34 0-3.652 1.667-1.276 1.631-1.276 4.645v9.183zm26.7.425q-2.588 0-4.573-1.17-1.986-1.204-3.121-3.297-1.099-2.092-1.099-4.822t1.099-4.822q1.135-2.092 3.085-3.262 1.986-1.206 4.539-1.206 2.481 0 4.29 1.241 1.808 1.206 2.801 3.404t.993 5.177H478.18q.177 2.907 1.844 4.538 1.666 1.63 4.219 1.631 1.88 0 3.156-.886a5.9 5.9 0 0 0 2.021-2.34l2.446 1.241a7.9 7.9 0 0 1-1.808 2.411q-1.099 1.028-2.624 1.595-1.488.567-3.333.567m-5.708-11.133h10.672q-.106-1.524-.815-2.624a4.7 4.7 0 0 0-1.773-1.701q-1.1-.603-2.482-.603-1.347 0-2.588.603a5.1 5.1 0 0 0-2.057 1.701q-.815 1.1-.957 2.624m16.463 10.708V95.399h2.837v3.155q1.064-1.665 2.73-2.446a8.4 8.4 0 0 1 3.546-.78v2.66q-1.56 0-3.014.53a5.03 5.03 0 0 0-2.34 1.667q-.922 1.17-.922 3.191v9.751zm19.052.425q-2.624 0-4.645-1.17a8.47 8.47 0 0 1-3.156-3.297q-1.134-2.092-1.134-4.822t1.099-4.822a8.2 8.2 0 0 1 3.156-3.262q2.02-1.206 4.609-1.206 2.553 0 4.574 1.17t3.084 3.298l-2.588 1.17a5.14 5.14 0 0 0-2.056-2.198q-1.348-.816-3.085-.816-1.738 0-3.085.851-1.312.851-2.092 2.376-.744 1.489-.744 3.439t.744 3.475q.78 1.488 2.128 2.34 1.383.85 3.12.851 1.737 0 3.085-.887 1.382-.886 2.091-2.482l2.589 1.17q-1.064 2.27-3.085 3.546t-4.609 1.276m10.44-.425v-24.82h2.836v9.68q.886-1.454 2.305-2.234 1.418-.78 3.297-.78 2.057 0 3.617.851 1.56.816 2.411 2.624.886 1.809.851 4.751v9.928h-2.837v-9.077q0-2.624-.638-4.006-.603-1.383-1.666-1.88-1.064-.532-2.411-.532-2.34 0-3.652 1.667-1.277 1.631-1.277 4.645v9.183zm26.7.425q-2.589 0-4.574-1.17-1.986-1.204-3.12-3.297-1.1-2.092-1.099-4.822 0-2.73 1.099-4.822 1.134-2.092 3.085-3.262 1.985-1.206 4.538-1.206 2.483 0 4.29 1.241 1.809 1.206 2.801 3.404t.993 5.177h-13.934q.178 2.907 1.843 4.538 1.667 1.63 4.22 1.631 1.879 0 3.155-.886a5.9 5.9 0 0 0 2.021-2.34l2.447 1.241a7.9 7.9 0 0 1-1.808 2.411q-1.1 1.028-2.624 1.595-1.49.567-3.333.567m-5.709-11.133h10.673q-.106-1.524-.816-2.624a4.7 4.7 0 0 0-1.772-1.701q-1.1-.603-2.482-.603-1.348 0-2.589.603a5.1 5.1 0 0 0-2.056 1.701q-.816 1.1-.958 2.624m36.443 11.133q-3.794 0-6.701-1.631a12.2 12.2 0 0 1-4.574-4.538q-1.63-2.907-1.631-6.63 0-3.795 1.631-6.666a11.9 11.9 0 0 1 4.574-4.538q2.907-1.668 6.701-1.667 1.986 0 3.865.674a12.8 12.8 0 0 1 3.439 1.773q1.561 1.134 2.518 2.588l-2.376 1.63q-.709-1.135-1.914-2.02a9.3 9.3 0 0 0-2.66-1.418 8.6 8.6 0 0 0-2.872-.497q-2.871 0-5.105 1.312a9.2 9.2 0 0 0-3.51 3.546q-1.277 2.269-1.277 5.283 0 2.907 1.241 5.212a9.46 9.46 0 0 0 3.51 3.581q2.27 1.311 5.141 1.312 2.376 0 4.22-.993 1.88-.993 2.943-2.766t1.099-4.042h-6.099v-2.588h8.971v2.34q0 3.226-1.454 5.638-1.417 2.41-3.936 3.758-2.517 1.347-5.744 1.347m21.884 0q-2.589 0-4.609-1.17-1.986-1.204-3.121-3.297-1.134-2.092-1.134-4.822t1.099-4.822q1.134-2.092 3.12-3.262 2.02-1.206 4.574-1.206 2.624 0 4.609 1.206a8 8 0 0 1 3.121 3.262q1.134 2.092 1.134 4.822t-1.134 4.822a8.3 8.3 0 0 1-3.085 3.297q-1.986 1.17-4.574 1.17m0-2.623q1.773 0 3.085-.851 1.312-.852 2.056-2.34.78-1.49.78-3.475t-.78-3.475q-.745-1.49-2.092-2.34t-3.12-.85q-1.737 0-3.085.85-1.312.85-2.092 2.34-.744 1.49-.744 3.475 0 1.95.744 3.475.78 1.488 2.128 2.34 1.383.85 3.12.851m19.732 2.623q-2.588 0-4.61-1.17-1.985-1.204-3.12-3.297-1.134-2.092-1.134-4.822t1.099-4.822q1.134-2.092 3.12-3.262 2.02-1.206 4.574-1.206 2.623 0 4.609 1.206a8 8 0 0 1 3.12 3.262q1.135 2.092 1.135 4.822t-1.135 4.822a8.3 8.3 0 0 1-3.084 3.297q-1.986 1.17-4.574 1.17m0-2.623q1.773 0 3.084-.851 1.312-.852 2.057-2.34.78-1.49.78-3.475t-.78-3.475q-.745-1.49-2.092-2.34t-3.12-.85q-1.737 0-3.085.85-1.312.85-2.092 2.34-.744 1.49-.744 3.475 0 1.95.744 3.475.78 1.488 2.128 2.34 1.381.85 3.12.851m18.987 9.715q-1.702 0-3.12-.355-1.383-.32-2.376-.744-.957-.39-1.383-.674l1.064-2.305q.461.249 1.312.603.85.39 1.985.638 1.17.284 2.482.284 1.702 0 3.05-.709 1.382-.673 2.127-2.163.78-1.454.78-3.758v-1.88a7.1 7.1 0 0 1-2.517 2.518q-1.56.886-3.511.886-2.375 0-4.183-1.134-1.808-1.136-2.837-3.156-.993-2.056-.993-4.68 0-2.695.993-4.716 1.029-2.057 2.837-3.191 1.808-1.135 4.183-1.135 1.95 0 3.511.887 1.56.886 2.517 2.517V95.4h2.837v16.026q0 3.05-1.135 5.106t-3.12 3.084-4.503 1.029m.567-10.105q1.56 0 2.766-.851 1.205-.852 1.879-2.305.674-1.49.674-3.439 0-1.88-.71-3.333-.673-1.49-1.879-2.305-1.17-.85-2.765-.85-1.667 0-2.979.85-1.276.816-2.021 2.305-.708 1.453-.709 3.333 0 1.95.745 3.439.744 1.453 2.021 2.305 1.311.85 2.978.851m12.316 2.588v-24.82h2.836v24.82zm14.72.425q-2.59 0-4.574-1.17-1.986-1.204-3.12-3.297-1.1-2.092-1.1-4.822t1.1-4.822q1.134-2.092 3.084-3.262 1.986-1.206 4.539-1.206 2.481 0 4.29 1.241 1.808 1.206 2.801 3.404t.993 5.177h-13.935q.178 2.907 1.844 4.538 1.666 1.63 4.219 1.631 1.88 0 3.156-.886a5.9 5.9 0 0 0 2.021-2.34l2.446 1.241a7.9 7.9 0 0 1-1.808 2.411q-1.099 1.028-2.624 1.595-1.488.567-3.332.567m-5.709-11.133h10.672q-.105-1.524-.815-2.624a4.7 4.7 0 0 0-1.773-1.701q-1.1-.603-2.482-.603-1.347 0-2.588.603a5.1 5.1 0 0 0-2.057 1.701q-.815 1.1-.957 2.624m29.813 14.254a36 36 0 0 1-2.979-4.681 26.7 26.7 0 0 1-2.127-5.389 22 22 0 0 1-.78-5.886q0-3.084.78-5.885a25.8 25.8 0 0 1 2.127-5.354 35 35 0 0 1 2.979-4.716h2.907a40 40 0 0 0-2.978 4.857 27.8 27.8 0 0 0-2.128 5.39 21 21 0 0 0-.78 5.708q0 2.908.78 5.709a27.8 27.8 0 0 0 2.128 5.389 44 44 0 0 0 2.978 4.858zm15.068-3.121q-2.837 0-5.034-1.631-2.198-1.666-3.44-4.538-1.24-2.907-1.241-6.666 0-3.758 1.241-6.63 1.241-2.907 3.404-4.538 2.199-1.668 5.07-1.667t5.035 1.666q2.199 1.631 3.439 4.539 1.277 2.872 1.277 6.63t-1.241 6.666q-1.241 2.872-3.439 4.538-2.199 1.631-5.071 1.631m0-2.694q1.986 0 3.511-1.312 1.56-1.312 2.411-3.581.886-2.27.886-5.248 0-2.977-.886-5.247-.852-2.305-2.411-3.581-1.525-1.312-3.511-1.312-1.985 0-3.51 1.312-1.524 1.275-2.411 3.58-.85 2.27-.851 5.248 0 2.979.851 5.248.887 2.269 2.411 3.581 1.56 1.311 3.51 1.312m11.951 6.346 2.021-7.481h3.191l-2.765 7.481zm15.282-3.652q-1.808 0-3.297-.531-1.453-.568-2.518-1.454-1.028-.886-1.631-1.879l2.482-1.383q.39.496.958 1.134.603.603 1.524 1.029.922.425 2.27.425 2.41 0 3.864-1.383 1.454-1.382 1.454-3.474 0-1.596-.886-2.695-.852-1.1-2.482-1.666-1.632-.568-3.901-.568h-.673v-2.553h.673q3.05 0 4.823-1.028 1.808-1.064 1.808-3.014 0-1.064-.568-1.95-.567-.922-1.666-1.453-1.063-.568-2.482-.568a5.7 5.7 0 0 0-1.808.284 4.9 4.9 0 0 0-1.525.78q-.674.496-1.241 1.276l-2.34-1.347a7.3 7.3 0 0 1 1.702-1.915 8.4 8.4 0 0 1 2.411-1.276q1.347-.46 2.943-.461 2.163 0 3.865.851 1.737.85 2.73 2.34.993 1.454.993 3.298 0 1.879-1.064 3.261-1.063 1.349-2.908 2.163 2.129.922 3.333 2.553 1.242 1.596 1.241 3.9 0 2.199-1.099 3.865-1.063 1.63-2.907 2.553-1.844.886-4.078.886m-683.36 42.575-7.587-24.819h3.014l6.205 20.245 5.992-20.245h2.978l5.886 20.174 6.276-20.174h3.014l-7.695 24.819H67.89l-5.744-19.962-5.921 19.962zm27.777 0v-24.819h2.836v9.679q.887-1.454 2.305-2.234t3.298-.78q2.055 0 3.616.851 1.56.816 2.411 2.624.887 1.809.851 4.751v9.928H93.29v-9.077q0-2.624-.638-4.006-.603-1.383-1.666-1.88-1.064-.531-2.411-.531-2.34 0-3.652 1.666-1.277 1.631-1.277 4.645v9.183zm32.107 0-7.41-17.728h2.943l5.956 14.431 5.922-14.431h2.978l-7.41 17.728zm18.542.425q-1.95 0-3.403-.567-1.454-.603-2.447-1.56-.957-.957-1.383-2.092l2.482-1.028q.603 1.206 1.809 1.95 1.205.745 2.659.745 1.666 0 2.801-.639 1.134-.673 1.134-1.879 0-1.1-.85-1.773-.816-.673-2.447-1.099l-1.702-.461q-2.41-.637-3.758-1.914-1.347-1.312-1.348-2.943 0-2.518 1.631-3.9 1.666-1.419 4.929-1.419 1.56 0 2.836.461a6.4 6.4 0 0 1 2.199 1.312 4.85 4.85 0 0 1 1.347 1.95l-2.482 1.099q-.46-1.204-1.525-1.737-1.063-.532-2.588-.532-1.63 0-2.553.709-.922.674-.922 1.915 0 .71.745 1.347.78.603 2.269.993l1.773.461q1.737.426 2.907 1.276 1.17.815 1.773 1.88.603 1.063.603 2.269 0 1.595-.851 2.765-.85 1.17-2.305 1.809-1.453.602-3.333.602m16.94-.425v-2.482q0-1.17.461-2.305.497-1.17 1.382-2.304a13 13 0 0 1 2.234-2.128l5.141-3.864a7.8 7.8 0 0 0 1.596-1.454 7.3 7.3 0 0 0 1.099-1.738q.39-.921.39-1.772 0-1.242-.603-2.234a4.35 4.35 0 0 0-1.702-1.631q-1.098-.603-2.588-.603-1.453 0-2.553.567a5 5 0 0 0-1.808 1.454 5.8 5.8 0 0 0-1.028 1.915l-3.05-.603q.426-1.596 1.525-2.978 1.135-1.383 2.872-2.234 1.738-.85 3.865-.851 2.482 0 4.29.957 1.809.923 2.801 2.553 1.029 1.596 1.028 3.652 0 1.95-1.063 3.688-1.065 1.737-3.085 3.368l-4.858 3.687q-1.418 1.065-2.198 2.234-.744 1.17-.851 2.447h12.41v2.659zm18.367 4.077 2.021-7.481h3.191l-2.766 7.481zm15.211-29.322q2.624 0 4.326.993a7.45 7.45 0 0 1 2.73 2.624q1.064 1.666 1.489 3.864a22 22 0 0 1 .461 4.61q0 3.19-.674 5.708-.673 2.517-1.914 4.29-1.24 1.738-3.014 2.66-1.737.921-3.971.921-1.843 0-3.688-.567a12.4 12.4 0 0 1-3.262-1.631l1.667-2.127q1.135.78 2.446 1.241 1.349.425 2.553.425 3.617 0 5.496-3.049 1.915-3.05 1.666-9.219l.639.603q-.852 2.163-2.73 3.439-1.88 1.277-4.433 1.277-2.41 0-4.254-1.028a7.9 7.9 0 0 1-2.908-2.872q-1.028-1.81-1.028-4.184 0-2.34 1.064-4.113a7.55 7.55 0 0 1 2.943-2.837q1.915-1.028 4.396-1.028m0 2.624q-1.56 0-2.801.709a4.9 4.9 0 0 0-1.95 1.915q-.674 1.205-.674 2.801 0 1.595.674 2.836a5.23 5.23 0 0 0 1.95 1.915q1.24.673 2.801.673 1.631 0 2.837-.673a4.97 4.97 0 0 0 1.914-1.915q.71-1.241.709-2.836 0-1.596-.709-2.801a4.67 4.67 0 0 0-1.914-1.915q-1.206-.71-2.837-.709m25.612 22.621-7.588-24.819h3.014l6.205 20.245 5.992-20.245h2.978l5.886 20.174 6.276-20.174h3.013l-7.694 24.819h-3.226l-5.744-19.962-5.921 19.962zm27.776 0v-24.819h2.836v9.679q.886-1.454 2.305-2.234 1.418-.78 3.297-.78 2.057 0 3.617.851 1.56.816 2.411 2.624.887 1.809.851 4.751v9.928h-2.837v-9.077q0-2.624-.638-4.006-.603-1.383-1.666-1.88-1.064-.531-2.411-.531-2.34 0-3.652 1.666-1.277 1.631-1.277 4.645v9.183zm21.027 3.546h-2.907a38 38 0 0 0 2.978-4.858 27.8 27.8 0 0 0 2.127-5.389q.78-2.801.78-5.709 0-2.943-.78-5.708a27.8 27.8 0 0 0-2.127-5.39 35 35 0 0 0-2.978-4.857h2.907a30.6 30.6 0 0 1 2.978 4.716 25.8 25.8 0 0 1 2.128 5.353q.78 2.802.78 5.886 0 3.05-.78 5.886a26.6 26.6 0 0 1-2.128 5.389 31.4 31.4 0 0 1-2.978 4.681m8.474.531 2.021-7.481h3.191l-2.766 7.481zm24.057-3.652q-2.624 0-4.644-1.17a8.45 8.45 0 0 1-3.156-3.297q-1.135-2.092-1.135-4.822t1.1-4.822a8.2 8.2 0 0 1 3.155-3.262q2.022-1.206 4.609-1.206 2.553 0 4.574 1.17t3.085 3.298l-2.588 1.17a5.13 5.13 0 0 0-2.057-2.198q-1.347-.816-3.084-.816t-3.085.851q-1.312.85-2.092 2.376-.745 1.488-.745 3.439 0 1.95.745 3.475.78 1.488 2.127 2.34 1.383.85 3.12.851 1.738 0 3.085-.887 1.383-.886 2.092-2.482l2.588 1.17q-1.064 2.27-3.084 3.546-2.022 1.276-4.61 1.276m18.205 0q-2.588 0-4.574-1.17-1.985-1.204-3.12-3.297-1.099-2.092-1.099-4.822t1.099-4.822q1.135-2.092 3.085-3.262 1.986-1.206 4.538-1.206 2.482 0 4.291 1.241 1.808 1.206 2.801 3.404.992 2.199.992 5.177h-13.934q.177 2.907 1.844 4.538 1.666 1.63 4.219 1.631 1.88 0 3.156-.886a5.9 5.9 0 0 0 2.021-2.34l2.446 1.241a7.9 7.9 0 0 1-1.808 2.411q-1.099 1.028-2.624 1.595-1.49.567-3.333.567m-5.708-11.133h10.672q-.107-1.524-.815-2.624a4.7 4.7 0 0 0-1.773-1.702q-1.1-.602-2.482-.602-1.347 0-2.588.602a5.1 5.1 0 0 0-2.057 1.702q-.816 1.1-.957 2.624m37.365 17.799V153.15a7.15 7.15 0 0 1-2.518 2.517q-1.524.886-3.474.886-2.376 0-4.184-1.17t-2.837-3.262q-.993-2.127-.993-4.857 0-2.766.993-4.858 1.028-2.091 2.837-3.262 1.808-1.17 4.184-1.17 1.95 0 3.474.922a7.15 7.15 0 0 1 2.518 2.518l.142-3.014h2.694v24.819zm-5.354-9.254q1.56 0 2.765-.851 1.206-.85 1.88-2.375.708-1.525.709-3.475 0-1.95-.709-3.475-.674-1.524-1.88-2.375-1.205-.852-2.801-.851-1.666 0-2.978.851-1.277.85-2.021 2.375-.745 1.525-.745 3.475t.745 3.475q.745 1.524 2.056 2.375 1.313.85 2.979.851m18.457 2.588q-2.057 0-3.617-.815-1.524-.851-2.411-2.659-.85-1.844-.851-4.751V138.4h2.837v9.077q0 2.623.602 4.006.603 1.383 1.667 1.915 1.1.496 2.446.496 2.306 0 3.581-1.666 1.312-1.666 1.312-4.645V138.4h2.837v17.728h-2.659l-.142-2.659q-.886 1.49-2.305 2.304-1.418.78-3.297.78m12.695-.425V138.4h2.836v17.728zm1.453-21.841q-.708 0-1.241-.532-.531-.532-.531-1.241 0-.744.531-1.241.533-.532 1.241-.532.745 0 1.241.532.532.497.532 1.241 0 .709-.532 1.241a1.63 1.63 0 0 1-1.241.532m21.464 22.266q-2.588 0-4.574-1.17-1.986-1.204-3.12-3.297-1.1-2.092-1.099-4.822 0-2.73 1.099-4.822 1.135-2.092 3.085-3.262 1.985-1.206 4.538-1.206 2.482 0 4.29 1.241 1.809 1.206 2.801 3.404t.993 5.177h-13.934q.178 2.907 1.843 4.538 1.667 1.63 4.22 1.631 1.879 0 3.155-.886a5.9 5.9 0 0 0 2.021-2.34l2.447 1.241a7.9 7.9 0 0 1-1.808 2.411q-1.1 1.028-2.624 1.595-1.49.567-3.333.567m-5.709-11.133h10.673q-.107-1.524-.816-2.624a4.7 4.7 0 0 0-1.772-1.702q-1.1-.602-2.482-.602-1.348 0-2.589.602a5.1 5.1 0 0 0-2.056 1.702q-.816 1.1-.958 2.624m3.262-9.538 4.149-4.573h3.652l-4.574 4.573zm26.213 27.337V153.15a7.14 7.14 0 0 1-2.517 2.517q-1.524.886-3.475.886-2.375 0-4.183-1.17-1.809-1.17-2.837-3.262-.993-2.127-.993-4.857 0-2.766.993-4.858 1.028-2.091 2.837-3.262 1.808-1.17 4.183-1.17 1.95 0 3.475.922a7.1 7.1 0 0 1 2.517 2.518l.142-3.014h2.695v24.819zm-5.353-9.254q1.56 0 2.765-.851 1.206-.85 1.879-2.375.71-1.525.709-3.475 0-1.95-.709-3.475-.673-1.524-1.879-2.375-1.206-.852-2.801-.851-1.667 0-2.978.851-1.277.85-2.021 2.375-.745 1.525-.745 3.475t.745 3.475q.745 1.524 2.056 2.375 1.313.85 2.979.851m18.457 2.588q-2.057 0-3.617-.815-1.524-.851-2.411-2.659-.85-1.844-.851-4.751V138.4h2.837v9.077q0 2.623.602 4.006.603 1.383 1.667 1.915 1.099.496 2.446.496 2.305 0 3.581-1.666 1.312-1.666 1.312-4.645V138.4h2.837v17.728h-2.66l-.141-2.659q-.887 1.49-2.305 2.304-1.419.78-3.297.78m12.695-.425V138.4h2.836v17.728zm1.453-21.841q-.708 0-1.241-.532-.531-.532-.532-1.241 0-.744.532-1.241.533-.532 1.241-.532.745 0 1.241.532.532.497.532 1.241 0 .709-.532 1.241a1.63 1.63 0 0 1-1.241.532m11.022 21.841-7.41-17.728h2.942l5.957 14.431 5.921-14.431h2.979l-7.411 17.728zm17.524.425q-3.12 0-4.893-1.418-1.737-1.453-1.737-4.006 0-2.696 1.772-4.113 1.809-1.454 5.035-1.454h4.929q-.178-2.517-1.241-3.758-1.064-1.277-3.191-1.277-1.455 0-2.518.603-1.028.567-1.702 1.844l-2.553-.993a8.2 8.2 0 0 1 1.631-2.128 6.2 6.2 0 0 1 2.234-1.382q1.276-.497 2.908-.497 2.481 0 4.077.993 1.63.957 2.447 2.872.815 1.88.78 4.68l-.036 9.609h-2.624l-.141-2.376a5.55 5.55 0 0 1-2.092 2.092q-1.312.71-3.085.709m.142-2.482q1.525 0 2.659-.638a4.45 4.45 0 0 0 1.737-1.879q.639-1.206.639-2.907v-.709h-4.362q-2.481 0-3.545.815-1.029.816-1.028 2.34 0 1.383 1.028 2.198 1.028.78 2.872.78m17.912 2.482q-2.056 0-3.616-.815-1.526-.851-2.411-2.659-.851-1.844-.851-4.751V138.4h2.836v9.077q0 2.623.603 4.006t1.666 1.915q1.1.496 2.447.496 2.304 0 3.581-1.666 1.312-1.666 1.312-4.645V138.4h2.836v17.728h-2.659l-.142-2.659q-.886 1.49-2.304 2.304-1.419.78-3.298.78m19.184 0q-2.588 0-4.007-1.347t-1.418-3.794v-10.495h-3.085V138.4h3.085v-5.531h2.836v5.531h5.319v2.517h-5.319v10.212q0 1.347.709 2.092.745.709 2.057.709.425 0 .815-.107.425-.141 1.1-.638l1.099 2.305q-.922.602-1.667.815a4.8 4.8 0 0 1-1.524.248m19.425 0q-3.12 0-4.893-1.418-1.738-1.453-1.738-4.006 0-2.696 1.773-4.113 1.809-1.454 5.035-1.454h4.928q-.176-2.517-1.241-3.758-1.063-1.277-3.191-1.277-1.454 0-2.517.603-1.029.567-1.702 1.844l-2.553-.993a8.2 8.2 0 0 1 1.631-2.128 6.2 6.2 0 0 1 2.234-1.382q1.277-.497 2.907-.497 2.482 0 4.078.993 1.631.957 2.446 2.872.816 1.88.78 4.68l-.035 9.609h-2.624l-.142-2.376a5.54 5.54 0 0 1-2.092 2.092q-1.311.71-3.084.709m.142-2.482q1.524 0 2.659-.638a4.45 4.45 0 0 0 1.737-1.879q.639-1.206.638-2.907v-.709h-4.361q-2.481 0-3.545.815-1.029.816-1.029 2.34 0 1.383 1.029 2.198 1.027.78 2.872.78m1.17-18.189-4.61-4.609h3.617l4.255 4.609zm23.497 20.671q-3.19 0-4.964-1.418-1.737-1.418-1.737-4.006 0-2.837 1.879-4.255 1.914-1.454 5.354-1.454h4.184q-.249-1.631-1.028-2.482-.78-.886-2.234-.886-1.135 0-2.057.496t-1.56 1.525l-4.113-1.418q.497-1.136 1.454-2.199.957-1.099 2.482-1.773 1.56-.708 3.794-.709 2.694 0 4.467 1.029a6.22 6.22 0 0 1 2.66 2.907q.885 1.844.851 4.397l-.107 9.821H553.5l-.071-2.057a4.5 4.5 0 0 1-1.915 1.844q-1.205.638-2.978.638m.78-3.9q1.135 0 2.057-.532a4.1 4.1 0 0 0 1.453-1.382q.532-.852.532-1.773v-.071h-2.659q-2.304 0-3.191.567-.887.532-.887 1.525 0 .78.71 1.241.708.425 1.985.425m11.546 3.475v-24.819h4.68v24.819zm7.89 0v-24.819h4.68v24.819zm14.201.425q-2.127 0-3.617-.851-1.453-.85-2.233-2.623-.78-1.809-.78-4.645V138.4h4.68v9.077q0 1.772.39 2.801.425.993 1.17 1.453.78.426 1.737.426 1.844.035 2.801-1.099.957-1.17.958-3.369V138.4h4.68v17.728h-4.397l-.177-2.411a6.3 6.3 0 0 1-2.234 2.092q-1.311.744-2.978.744m13.005-.425V138.4h4.396l.213 2.304q.816-1.347 2.092-2.021 1.276-.708 2.837-.709 2.162 0 3.616.922 1.49.922 2.163 2.837.78-1.809 2.198-2.766 1.419-.993 3.298-.993 3.12 0 4.751 1.986 1.63 1.95 1.631 6.027v10.141h-4.68v-9.077q0-1.808-.39-2.801t-1.064-1.418q-.673-.46-1.596-.461-1.702-.036-2.623 1.099-.922 1.134-.922 3.368v9.29h-4.681v-9.077q0-1.808-.39-2.801-.354-.993-1.063-1.418-.673-.46-1.596-.461-1.701-.036-2.624 1.099-.886 1.134-.886 3.368v9.29zm38.098.425q-2.625 0-4.645-1.17a8.7 8.7 0 0 1-3.191-3.297q-1.135-2.092-1.135-4.822t1.17-4.822a8.64 8.64 0 0 1 3.262-3.262q2.092-1.206 4.787-1.206 2.34 0 4.29 1.241 1.986 1.206 3.156 3.581 1.205 2.34 1.205 5.709h-12.977q.177 1.773 1.525 2.836a4.9 4.9 0 0 0 3.049 1.029q1.453 0 2.376-.603a4.3 4.3 0 0 0 1.418-1.631l4.184 1.631a8.8 8.8 0 0 1-1.95 2.588q-1.17 1.064-2.801 1.631t-3.723.567m-3.83-11.523h7.659q-.106-1.1-.709-1.773a3.7 3.7 0 0 0-1.418-.992 4.4 4.4 0 0 0-1.596-.32q-.744 0-1.631.32a3.9 3.9 0 0 0-1.525.957q-.637.674-.78 1.808m14.613 11.098V138.4h4.681v3.262q1.098-1.667 2.765-2.482 1.702-.85 3.51-.851v4.538q-1.63 0-3.084.39-1.419.39-2.305 1.277t-.886 2.269v9.325zm26.523.425q-2.128 0-3.616-.851-1.454-.85-2.234-2.623-.78-1.809-.78-4.645V138.4h4.68v9.077q0 1.772.39 2.801.426.993 1.17 1.453.78.426 1.738.426 1.843.035 2.801-1.099.957-1.17.957-3.369V138.4h4.68v17.728h-4.396l-.178-2.411a6.3 6.3 0 0 1-2.233 2.092q-1.312.744-2.979.744m13.005-.425V138.4h4.397l.213 2.411q.85-1.383 2.162-2.092 1.348-.744 3.05-.745 2.091 0 3.581.851 1.49.852 2.269 2.659.78 1.773.745 4.61v10.034h-4.681v-9.077q0-1.808-.425-2.801-.39-.993-1.135-1.418-.744-.46-1.737-.461-1.808-.036-2.801 1.099-.957 1.134-.957 3.368v9.29zm27.33.425q-2.625 0-4.645-1.17a8.7 8.7 0 0 1-3.191-3.297q-1.135-2.092-1.135-4.822t1.17-4.822a8.64 8.64 0 0 1 3.262-3.262q2.092-1.206 4.787-1.206 2.34 0 4.29 1.241 1.986 1.206 3.156 3.581 1.205 2.34 1.205 5.709h-12.977q.177 1.773 1.525 2.836a4.9 4.9 0 0 0 3.049 1.029q1.454 0 2.376-.603a4.3 4.3 0 0 0 1.418-1.631l4.184 1.631a8.8 8.8 0 0 1-1.95 2.588q-1.17 1.064-2.801 1.631t-3.723.567m-3.83-11.523h7.659q-.106-1.1-.709-1.773a3.7 3.7 0 0 0-1.418-.992 4.4 4.4 0 0 0-1.596-.32q-.744 0-1.631.32a3.9 3.9 0 0 0-1.525.957q-.637.674-.78 1.808M52.892 199.552q-3.192 0-4.964-1.418-1.737-1.418-1.737-4.006 0-2.837 1.879-4.255 1.914-1.454 5.354-1.454h4.184q-.249-1.631-1.029-2.482-.78-.886-2.233-.886-1.135 0-2.057.496t-1.56 1.525l-4.113-1.418q.497-1.135 1.454-2.199.957-1.099 2.482-1.773 1.56-.709 3.794-.709 2.694 0 4.467 1.029a6.2 6.2 0 0 1 2.66 2.907q.886 1.844.85 4.397l-.106 9.821h-4.361l-.071-2.057a4.5 4.5 0 0 1-1.915 1.844q-1.205.638-2.978.638m.78-3.9q1.135 0 2.056-.532a4.1 4.1 0 0 0 1.454-1.382q.532-.852.532-1.773v-.071h-2.66q-2.305 0-3.19.567-.887.532-.887 1.525 0 .78.71 1.241.708.425 1.985.425m11.546 3.475v-17.728h4.396l.213 2.304q.816-1.347 2.092-2.021 1.276-.709 2.836-.709 2.163 0 3.617.922 1.49.922 2.163 2.837.78-1.809 2.198-2.766 1.419-.993 3.297-.993 3.12 0 4.752 1.986 1.63 1.95 1.63 6.027v10.141h-4.68v-9.077q0-1.808-.39-2.801t-1.063-1.418q-.674-.46-1.596-.461-1.701-.036-2.624 1.099-.921 1.134-.921 3.368v9.29h-4.68v-9.077q0-1.808-.39-2.801-.356-.993-1.064-1.418-.674-.46-1.596-.461-1.703-.036-2.624 1.099-.886 1.134-.886 3.368v9.29zm30.262 7.091v-24.819h4.396l.213 2.517q.886-1.417 2.234-2.163 1.382-.78 3.191-.78 2.446 0 4.219 1.135 1.808 1.134 2.801 3.226.993 2.057.993 4.929 0 2.837-.993 4.928-.993 2.092-2.801 3.227-1.773 1.134-4.219 1.134-1.773 0-3.12-.744a6.3 6.3 0 0 1-2.234-2.092v9.502zm8.828-10.956q1.277 0 2.234-.638.993-.637 1.56-1.773.567-1.134.567-2.588t-.567-2.588q-.531-1.135-1.525-1.738-.957-.638-2.233-.638-1.206 0-2.163.638-.958.639-1.489 1.773-.532 1.1-.532 2.553 0 1.454.532 2.588.531 1.136 1.453 1.773.959.638 2.163.638m19.785 4.29q-2.694 0-4.822-1.17a8.8 8.8 0 0 1-3.297-3.297q-1.17-2.092-1.17-4.822t1.17-4.822a8.3 8.3 0 0 1 3.262-3.262q2.092-1.206 4.787-1.206 2.73 0 4.822 1.206a8.33 8.33 0 0 1 3.262 3.262q1.17 2.091 1.17 4.822t-1.17 4.822a8.57 8.57 0 0 1-3.262 3.297q-2.056 1.17-4.752 1.17m0-4.325q1.312 0 2.305-.638a4.2 4.2 0 0 0 1.525-1.738q.567-1.134.567-2.588 0-1.453-.567-2.553a4.3 4.3 0 0 0-1.596-1.773q-.993-.638-2.304-.638-1.277 0-2.305.638-.993.639-1.56 1.773-.568 1.1-.568 2.553 0 1.454.568 2.588.567 1.1 1.595 1.738t2.34.638m17.746 4.325q-2.127 0-3.617-.851-1.454-.85-2.234-2.623-.78-1.809-.78-4.645v-10.034h4.681v9.077q0 1.772.39 2.801.424.993 1.17 1.453.78.426 1.737.426 1.844.035 2.801-1.099.957-1.17.957-3.369v-9.289h4.681v17.728h-4.397l-.177-2.411a6.3 6.3 0 0 1-2.234 2.092q-1.311.744-2.978.744m13.005-.425v-24.819h4.68v24.819zm15.903.425q-2.624 0-4.645-1.17a8.7 8.7 0 0 1-3.191-3.297q-1.135-2.092-1.135-4.822t1.17-4.822a8.64 8.64 0 0 1 3.262-3.262q2.092-1.206 4.787-1.206 2.34 0 4.29 1.241 1.986 1.206 3.156 3.581 1.205 2.34 1.205 5.709h-12.977q.177 1.773 1.525 2.836a4.9 4.9 0 0 0 3.049 1.029q1.453 0 2.376-.603a4.3 4.3 0 0 0 1.418-1.631l4.184 1.631a8.8 8.8 0 0 1-1.95 2.588q-1.17 1.064-2.801 1.631t-3.723.567m-3.83-11.523h7.659q-.106-1.1-.709-1.773a3.7 3.7 0 0 0-1.418-.992 4.4 4.4 0 0 0-1.596-.32q-.744 0-1.631.32a3.9 3.9 0 0 0-1.525.957q-.637.674-.78 1.808m22.9 11.098v-24.819h7.942q3.794 0 6.701 1.595 2.943 1.595 4.574 4.397 1.667 2.765 1.667 6.417 0 3.616-1.667 6.418-1.63 2.801-4.574 4.396-2.907 1.596-6.701 1.596zm4.857-4.538h3.085q1.702 0 3.156-.603a7.7 7.7 0 0 0 2.517-1.667 7.5 7.5 0 0 0 1.702-2.482 8.1 8.1 0 0 0 .603-3.12q0-1.666-.603-3.084a7.4 7.4 0 0 0-1.702-2.518 7.7 7.7 0 0 0-2.517-1.666q-1.453-.603-3.156-.603h-3.085zm19.134 4.538v-24.819h15.707v4.432h-10.85v5.637h9.361v4.326h-9.361v5.992h10.992v4.432zm20.043 0v-24.819h4.857v20.387h10.921v4.432zm25.325 7.091v-24.819h4.396l.213 2.517q.886-1.417 2.234-2.163 1.383-.78 3.191-.78 2.446 0 4.219 1.135 1.808 1.134 2.801 3.226.993 2.057.993 4.929 0 2.837-.993 4.928-.993 2.092-2.801 3.227-1.773 1.134-4.219 1.134-1.773 0-3.12-.744a6.3 6.3 0 0 1-2.234-2.092v9.502zm8.828-10.956q1.277 0 2.234-.638.993-.637 1.56-1.773.567-1.134.567-2.588t-.567-2.588q-.532-1.135-1.525-1.738-.957-.638-2.233-.638-1.206 0-2.163.638-.957.639-1.489 1.773-.532 1.1-.532 2.553 0 1.454.532 2.588.531 1.136 1.453 1.773.959.638 2.163.638m19.466 4.29q-2.624 0-4.644-1.17a8.7 8.7 0 0 1-3.192-3.297q-1.134-2.092-1.134-4.822t1.17-4.822a8.64 8.64 0 0 1 3.262-3.262q2.091-1.206 4.786-1.206 2.341 0 4.291 1.241 1.985 1.206 3.155 3.581 1.206 2.34 1.206 5.709h-12.977q.177 1.773 1.524 2.836a4.9 4.9 0 0 0 3.05 1.029q1.454 0 2.375-.603a4.3 4.3 0 0 0 1.419-1.631l4.183 1.631a8.8 8.8 0 0 1-1.95 2.588q-1.17 1.064-2.801 1.631-1.63.567-3.723.567m-3.829-11.523h7.659q-.107-1.1-.71-1.773a3.7 3.7 0 0 0-1.418-.992 4.4 4.4 0 0 0-1.595-.32q-.745 0-1.631.32a3.86 3.86 0 0 0-1.525.957q-.637.674-.78 1.808m14.613 11.098v-17.728h4.397l.212 2.411q.852-1.383 2.163-2.092 1.348-.744 3.049-.745 2.093 0 3.581.851 1.49.852 2.27 2.659.78 1.773.744 4.61v10.034h-4.68v-9.077q0-1.808-.425-2.801-.39-.993-1.135-1.418-.745-.46-1.737-.461-1.81-.036-2.801 1.099-.958 1.134-.958 3.368v9.29zm26.372.425q-2.446 0-4.255-1.134-1.773-1.135-2.765-3.227t-.993-4.928q0-2.872.993-4.929.992-2.092 2.765-3.226 1.809-1.134 4.255-1.135 1.737 0 3.085.745a5.66 5.66 0 0 1 2.233 2.056v-9.466h4.681v24.819h-4.432l-.142-2.482a6.4 6.4 0 0 1-2.269 2.163q-1.383.744-3.156.744m1.206-4.29q1.17 0 2.056-.567.922-.603 1.454-1.667.531-1.063.602-2.411v-.709q-.07-1.347-.602-2.375-.532-1.064-1.454-1.631-.922-.603-2.092-.603-1.276 0-2.269.638-.957.603-1.525 1.738-.531 1.134-.532 2.588 0 1.454.568 2.588.567 1.136 1.524 1.773.993.638 2.27.638m17.733 4.29q-3.19 0-4.964-1.418-1.737-1.418-1.737-4.006 0-2.837 1.879-4.255 1.915-1.454 5.354-1.454h4.184q-.248-1.631-1.028-2.482-.78-.886-2.234-.886-1.134 0-2.057.496-.921.496-1.56 1.525l-4.113-1.418q.497-1.135 1.454-2.199.957-1.099 2.482-1.773 1.56-.709 3.794-.709 2.695 0 4.467 1.029a6.22 6.22 0 0 1 2.66 2.907q.886 1.844.851 4.397l-.107 9.821h-4.361l-.071-2.057a4.5 4.5 0 0 1-1.914 1.844q-1.206.638-2.979.638m.78-3.9q1.135 0 2.057-.532a4.1 4.1 0 0 0 1.453-1.382q.532-.852.532-1.773v-.071h-2.659q-2.304 0-3.191.567-.886.532-.886 1.525 0 .78.709 1.241.708.425 1.985.425m11.546 3.475v-17.728h4.397l.212 2.411q.852-1.383 2.163-2.092 1.348-.744 3.049-.745 2.093 0 3.581.851 1.49.852 2.27 2.659.78 1.773.744 4.61v10.034h-4.68v-9.077q0-1.808-.425-2.801-.39-.993-1.135-1.418-.745-.46-1.737-.461-1.81-.036-2.801 1.099-.958 1.134-.958 3.368v9.29zm26.62.425q-2.943 0-4.467-1.453-1.49-1.453-1.489-4.149v-8.58h-2.872v-3.971h2.872v-5.531h4.68v5.531h4.432v3.971h-4.432v7.552q0 1.135.496 1.737.497.568 1.454.568.354 0 .78-.142.426-.177.886-.496l1.631 3.51a7.4 7.4 0 0 1-1.914 1.028 5.3 5.3 0 0 1-2.057.425m21.681 0q-2.198 0-3.971-.638-1.773-.673-2.978-1.879a6.8 6.8 0 0 1-1.631-2.907l4.467-1.312q.249.425.674 1.063.426.603 1.17 1.029t1.95.425q1.773 0 2.801-.957 1.064-.993 1.064-2.553 0-1.064-.532-1.879-.533-.816-1.737-1.241-1.17-.46-3.085-.461h-1.489v-3.971h1.489q2.482 0 3.687-.851 1.206-.852 1.206-2.34 0-.852-.426-1.525a2.94 2.94 0 0 0-1.205-1.064q-.78-.39-1.808-.39-.674 0-1.383.249-.71.212-1.312.744-.567.497-.922 1.454l-4.397-1.312q.497-1.737 1.702-2.907a8 8 0 0 1 2.943-1.809 9.9 9.9 0 0 1 3.51-.638q2.305 0 4.149.886 1.844.852 2.907 2.376 1.064 1.524 1.064 3.51 0 1.95-1.099 3.333-1.064 1.347-2.872 2.163 2.056.957 3.262 2.553 1.205 1.56 1.205 3.687 0 2.234-1.17 3.865-1.17 1.596-3.084 2.446-1.916.851-4.149.851m19.292 0q-1.702 0-3.51-.567a10.3 10.3 0 0 1-3.227-1.702 6.8 6.8 0 0 1-2.092-2.801l4.432-1.312q.78 1.135 1.844 1.667a5.16 5.16 0 0 0 2.269.532q1.844 0 2.978-1.1 1.17-1.135 1.17-3.013 0-1.738-1.134-2.908-1.1-1.17-2.943-1.17-1.099 0-2.021.497-.922.496-1.418 1.17l-4.361-.958 1.489-13.579H431v4.396h-9.892l-.709 5.957a9.5 9.5 0 0 1 2.127-.851 7.9 7.9 0 0 1 2.518-.319q2.02 0 3.687.992a6.9 6.9 0 0 1 2.624 2.66q.993 1.666.993 3.9 0 2.517-1.135 4.432a8.14 8.14 0 0 1-3.12 3.014q-1.986 1.063-4.609 1.063m19.011-.425v-17.728h4.397l.213 2.304q.815-1.347 2.091-2.021 1.277-.709 2.837-.709 2.163 0 3.617.922 1.488.922 2.162 2.837.78-1.809 2.199-2.766 1.417-.993 3.297-.993 3.12 0 4.751 1.986 1.632 1.95 1.631 6.027v10.141h-4.68v-9.077q0-1.808-.39-2.801t-1.064-1.418q-.674-.46-1.595-.461-1.702-.036-2.624 1.099-.922 1.134-.922 3.368v9.29h-4.68v-9.077q0-1.808-.39-2.801-.355-.993-1.064-1.418-.674-.46-1.595-.461-1.703-.036-2.624 1.099-.887 1.134-.887 3.368v9.29zm30.369 0v-17.728h4.68v17.728zm2.34-20.6q-1.064 0-1.88-.78-.815-.816-.815-1.915t.815-1.879q.816-.816 1.88-.816 1.098 0 1.879.816.815.78.815 1.879 0 1.1-.815 1.915-.78.78-1.879.78m5.82 20.6v-17.728h4.396l.213 2.411q.85-1.383 2.163-2.092 1.348-.744 3.049-.745 2.092 0 3.581.851 1.49.852 2.269 2.659.78 1.773.745 4.61v10.034h-4.68v-9.077q0-1.808-.426-2.801-.39-.993-1.134-1.418-.745-.46-1.738-.461-1.808-.036-2.801 1.099-.957 1.134-.957 3.368v9.29zm25.627.425q-2.128 0-3.616-.851-1.454-.85-2.234-2.623-.78-1.809-.78-4.645v-10.034h4.68v9.077q0 1.772.39 2.801.426.993 1.17 1.453.78.426 1.738.426 1.843.035 2.801-1.099.957-1.17.957-3.369v-9.289h4.68v17.728h-4.396l-.178-2.411a6.3 6.3 0 0 1-2.233 2.092q-1.312.744-2.979.744m20.309 0q-2.943 0-4.467-1.453-1.49-1.453-1.489-4.149v-8.58h-2.872v-3.971h2.872v-5.531h4.68v5.531h4.432v3.971h-4.432v7.552q0 1.135.496 1.737.497.568 1.454.568.354 0 .78-.142.426-.177.886-.496l1.631 3.51a7.4 7.4 0 0 1-1.914 1.028 5.3 5.3 0 0 1-2.057.425m13.828 0q-2.625 0-4.645-1.17a8.7 8.7 0 0 1-3.191-3.297q-1.135-2.092-1.135-4.822t1.17-4.822a8.64 8.64 0 0 1 3.262-3.262q2.092-1.206 4.787-1.206 2.34 0 4.29 1.241 1.986 1.206 3.156 3.581 1.205 2.34 1.205 5.709H536.71q.178 1.773 1.525 2.836a4.9 4.9 0 0 0 3.049 1.029q1.453 0 2.376-.603a4.3 4.3 0 0 0 1.418-1.631l4.184 1.631a8.8 8.8 0 0 1-1.95 2.588q-1.17 1.064-2.801 1.631t-3.723.567m-3.83-11.523h7.659q-.106-1.1-.709-1.773a3.7 3.7 0 0 0-1.419-.992 4.4 4.4 0 0 0-1.595-.32q-.744 0-1.631.32a3.9 3.9 0 0 0-1.525.957q-.637.674-.78 1.808m21.244 11.523a10 10 0 0 1-3.191-.496 8.4 8.4 0 0 1-2.624-1.489 6.9 6.9 0 0 1-1.773-2.411l4.007-1.844q.532.851 1.453 1.489.922.603 2.128.603 1.17 0 1.808-.319.638-.354.638-.993 0-.638-.532-.922-.496-.318-1.383-.532l-1.631-.425q-2.552-.674-4.042-2.127-1.453-1.49-1.453-3.404 0-2.73 1.737-4.22 1.773-1.488 4.999-1.489 1.667 0 3.085.497 1.454.497 2.482 1.382 1.029.887 1.418 2.057l-3.864 1.773q-.249-.71-1.206-1.135-.957-.46-1.915-.461-.957 0-1.489.426-.496.39-.496 1.099 0 .46.496.78.496.283 1.419.496l2.304.568q1.737.425 2.766 1.382 1.063.922 1.524 2.092.497 1.135.497 2.234a4.52 4.52 0 0 1-.958 2.837q-.921 1.205-2.552 1.879-1.596.673-3.652.673m11.425.107q-1.17 0-2.021-.851a2.82 2.82 0 0 1-.815-2.021q0-1.135.815-1.986.851-.85 2.021-.851 1.17 0 1.986.851.85.851.851 1.986 0 1.17-.851 2.021a2.65 2.65 0 0 1-1.986.851M55.87 447.853q-2.421 0-4.317-1.051a7.9 7.9 0 0 1-2.946-2.923q-1.074-1.873-1.074-4.271 0-2.444 1.074-4.294a7.66 7.66 0 0 1 2.946-2.923q1.896-1.074 4.316-1.074 1.394 0 2.604.434 1.233.435 2.215 1.188a6.3 6.3 0 0 1 1.6 1.713l-2.148 1.37a4.9 4.9 0 0 0-1.119-1.187 5.1 5.1 0 0 0-1.507-.8 4.7 4.7 0 0 0-1.645-.297q-1.644 0-2.923.754a5.43 5.43 0 0 0-1.987 2.078q-.73 1.302-.73 3.038 0 1.69.707 3.015a5.4 5.4 0 0 0 2.01 2.078q1.302.754 2.992.754 1.302 0 2.33-.526a4.07 4.07 0 0 0 1.621-1.461q.617-.937.662-2.147h-3.814v-2.147h6.372v1.781q-.045 2.124-.982 3.677a6.2 6.2 0 0 1-2.535 2.398q-1.62.823-3.723.823m16.9 0q-2.375 0-4.202-1.051a7.6 7.6 0 0 1-2.878-2.923q-1.028-1.873-1.028-4.294t1.028-4.271q1.05-1.873 2.855-2.923 1.804-1.074 4.157-1.074 2.374 0 4.18 1.074a7.27 7.27 0 0 1 2.831 2.923q1.028 1.85 1.028 4.271t-1.028 4.294a7.3 7.3 0 0 1-2.809 2.923q-1.782 1.05-4.134 1.051m0-2.421q1.553 0 2.74-.754a5.15 5.15 0 0 0 1.85-2.055q.686-1.326.686-3.038 0-1.69-.685-3.015-.686-1.324-1.896-2.055-1.188-.754-2.763-.754-1.554 0-2.764.754-1.188.73-1.895 2.055-.686 1.302-.686 3.015 0 1.712.686 3.038a5.4 5.4 0 0 0 1.918 2.055q1.233.754 2.81.754m17.888 2.421q-2.376 0-4.203-1.051a7.6 7.6 0 0 1-2.877-2.923q-1.029-1.873-1.028-4.294t1.028-4.271q1.05-1.873 2.854-2.923 1.805-1.074 4.157-1.074 2.376 0 4.18 1.074a7.27 7.27 0 0 1 2.831 2.923q1.028 1.85 1.028 4.271t-1.028 4.294a7.3 7.3 0 0 1-2.809 2.923q-1.78 1.05-4.133 1.051m0-2.421q1.552 0 2.74-.754a5.15 5.15 0 0 0 1.85-2.055q.685-1.326.685-3.038 0-1.69-.685-3.015-.686-1.324-1.895-2.055-1.188-.754-2.764-.754-1.553 0-2.763.754-1.188.73-1.896 2.055-.685 1.302-.685 3.015 0 1.712.685 3.038a5.4 5.4 0 0 0 1.918 2.055q1.234.754 2.81.754m18.115 2.421q-2.42 0-4.316-1.051a7.87 7.87 0 0 1-2.946-2.923q-1.074-1.873-1.074-4.271 0-2.444 1.074-4.294a7.65 7.65 0 0 1 2.946-2.923q1.895-1.074 4.316-1.074 1.393 0 2.604.434 1.233.435 2.215 1.188a6.3 6.3 0 0 1 1.599 1.713l-2.147 1.37a4.8 4.8 0 0 0-1.119-1.187 5.1 5.1 0 0 0-1.507-.8 4.7 4.7 0 0 0-1.645-.297q-1.644 0-2.923.754a5.43 5.43 0 0 0-1.987 2.078q-.73 1.302-.731 3.038 0 1.69.708 3.015a5.4 5.4 0 0 0 2.01 2.078q1.302.754 2.992.754 1.302 0 2.329-.526a4.07 4.07 0 0 0 1.622-1.461q.617-.937.662-2.147h-3.814v-2.147h6.372v1.781q-.046 2.124-.982 3.677a6.2 6.2 0 0 1-2.535 2.398q-1.621.823-3.723.823m9.798-.274v-15.988h2.649v13.567h7.24v2.421zm12.111 0v-15.988h9.843v2.421h-7.194v4.248h6.349v2.376h-6.349v4.522h7.263v2.421zm24.233.274a8.5 8.5 0 0 1-2.307-.297 6.7 6.7 0 0 1-1.827-.822 6.1 6.1 0 0 1-1.301-1.165 4.2 4.2 0 0 1-.708-1.371l2.603-.799q.297.845 1.165 1.485.867.64 2.147.662 1.484 0 2.352-.617.868-.616.868-1.621 0-.913-.731-1.485-.73-.594-1.964-.913l-1.964-.503a7.4 7.4 0 0 1-2.033-.868 4.4 4.4 0 0 1-1.416-1.438q-.502-.868-.502-2.056 0-2.238 1.461-3.471 1.462-1.257 4.18-1.257 1.53 0 2.672.48 1.165.457 1.919 1.279a5.2 5.2 0 0 1 1.119 1.827l-2.558.822a3.2 3.2 0 0 0-1.188-1.507q-.845-.594-2.101-.594-1.302 0-2.056.617-.73.617-.73 1.713 0 .89.571 1.393.593.48 1.598.731l1.964.479q2.148.525 3.335 1.805 1.188 1.278 1.188 2.832 0 1.37-.663 2.42-.662 1.051-1.964 1.645-1.28.594-3.129.594m8.687-.274v-15.988h9.843v2.421h-7.194v4.248h6.349v2.376h-6.349v4.522h7.263v2.421zm11.781 0 6.372-15.988h2.809l6.395 15.988h-2.809l-1.576-3.929h-6.829l-1.553 3.929zm5.253-6.281h5.047l-2.512-6.395zm12.407 6.281v-15.988h5.641q1.644 0 2.9.64a4.84 4.84 0 0 1 1.964 1.781q.708 1.119.708 2.604 0 1.576-.868 2.786a5.15 5.15 0 0 1-2.283 1.759l3.791 6.418h-2.992l-3.426-5.916q-.137.024-.297.023h-2.489v5.893zm2.649-8.337h3.106q.776 0 1.37-.342.617-.343.982-.937.389-.593.389-1.347 0-1.142-.823-1.873-.822-.73-2.124-.731h-2.9zm18.813 8.611q-2.308 0-4.111-1.051a7.74 7.74 0 0 1-2.81-2.923q-1.005-1.873-1.005-4.294t1.005-4.271q1.029-1.873 2.81-2.923 1.78-1.074 4.088-1.074 1.553 0 2.923.571a7.7 7.7 0 0 1 2.421 1.531 6.7 6.7 0 0 1 1.644 2.283l-2.421.983a5 5 0 0 0-1.119-1.531 4.8 4.8 0 0 0-1.576-1.05 4.9 4.9 0 0 0-1.872-.366q-1.508 0-2.695.754-1.165.753-1.85 2.078-.663 1.302-.663 3.015 0 1.712.663 3.038.685 1.324 1.873 2.078 1.21.754 2.74.754 1.005 0 1.873-.389a5.2 5.2 0 0 0 1.576-1.119 5.3 5.3 0 0 0 1.119-1.644l2.421.982a7.5 7.5 0 0 1-1.622 2.398 7.6 7.6 0 0 1-2.443 1.599 7.8 7.8 0 0 1-2.969.571m9.584-.274v-15.988h2.649v6.578h8.04v-6.578h2.649v15.988h-2.649v-6.989h-8.04v6.989zM62.361 496.727q-4.124 0-7.277-2.232-3.153-2.28-4.948-6.21-1.795-3.978-1.795-9.12 0-5.143 1.795-9.073 1.794-3.978 4.9-6.209 3.153-2.28 7.277-2.28 4.123 0 7.277 2.28 3.201 2.23 4.997 6.209 1.794 3.93 1.795 9.073 0 5.142-1.795 9.12-1.796 3.93-4.949 6.21-3.153 2.232-7.277 2.232m0-6.016q2.184 0 3.881-1.455 1.747-1.504 2.717-4.076.97-2.619.97-6.015 0-3.397-.97-6.016t-2.717-4.075q-1.698-1.504-3.93-1.504-2.182 0-3.88 1.504-1.699 1.455-2.669 4.075-.921 2.62-.921 6.016t.921 6.015q.97 2.572 2.669 4.076 1.746 1.455 3.93 1.455m16.311 10.964 2.96-11.449h6.646l-4.755 11.449zm23.85-4.948q-3.007 0-5.434-.874-2.425-.921-4.075-2.571a9.34 9.34 0 0 1-2.231-3.978l6.112-1.795q.34.582.922 1.455.582.825 1.601 1.407t2.668.583q2.426 0 3.833-1.31 1.455-1.359 1.455-3.493 0-1.456-.727-2.572-.728-1.115-2.377-1.698-1.602-.63-4.221-.63H98.01v-5.434h2.038q3.396 0 5.045-1.164t1.65-3.202q0-1.164-.582-2.086-.583-.922-1.65-1.456t-2.474-.533q-.922 0-1.892.339a4.8 4.8 0 0 0-1.795 1.019q-.777.68-1.261 1.989l-6.016-1.795q.68-2.378 2.328-3.978 1.698-1.65 4.027-2.474a13.6 13.6 0 0 1 4.803-.873q3.153 0 5.676 1.212 2.523 1.165 3.978 3.251 1.456 2.087 1.456 4.803 0 2.668-1.504 4.56-1.456 1.844-3.93 2.959 2.814 1.31 4.463 3.493 1.65 2.135 1.65 5.046 0 3.056-1.601 5.288-1.6 2.183-4.221 3.347-2.619 1.165-5.676 1.165m33.644-.582-10.042-33.96h6.743l6.889 23.772 6.55-23.772h6.598l6.597 23.432 6.889-23.432h6.744l-10.14 33.96h-6.986l-6.403-23.578-6.501 23.578zm40.224 0v-34.009h6.647v13.584h15.718v-13.535h6.647v33.96h-6.647v-14.312h-15.718v14.312zm164.774 0v-4.9q0-1.407.873-3.105t2.426-3.396 3.638-3.154l5.143-3.687a14 14 0 0 0 1.989-1.649 8.1 8.1 0 0 0 1.552-1.989q.631-1.116.631-2.135 0-1.262-.631-2.28-.582-1.019-1.746-1.601t-2.863-.582q-1.455 0-2.619.582a5.4 5.4 0 0 0-1.844 1.552 6 6 0 0 0-1.019 2.087l-6.84-1.165q.485-2.425 2.086-4.512 1.6-2.085 4.172-3.347 2.62-1.31 5.919-1.31 3.785 0 6.501 1.358t4.172 3.736q1.504 2.328 1.504 5.434 0 3.153-1.747 5.627-1.697 2.425-4.706 4.561l-4.608 3.347a13 13 0 0 0-2.426 2.135 8.4 8.4 0 0 0-1.553 2.571h15.476v5.822zm26.191 5.53 2.96-11.449h6.646l-4.754 11.449zm23.85-40.024q3.444 0 5.822 1.261 2.426 1.213 3.929 3.396 1.553 2.184 2.232 5.094.728 2.863.728 6.162 0 3.93-.825 7.422-.825 3.445-2.523 6.113a12.5 12.5 0 0 1-4.269 4.172q-2.62 1.504-6.307 1.504-2.668 0-5.239-.776-2.523-.825-4.561-2.232l3.251-4.851a13 13 0 0 0 3.25 1.552q1.747.486 3.154.486 3.783 0 5.918-3.299 2.184-3.348 1.99-10.431l1.358.873q-1.116 2.668-3.445 4.318-2.328 1.6-5.579 1.601-3.202 0-5.724-1.504a10.9 10.9 0 0 1-3.93-4.124q-1.407-2.57-1.407-5.821 0-3.203 1.504-5.628 1.505-2.474 4.221-3.881 2.765-1.407 6.452-1.407m0 5.579q-1.6 0-2.862.728a5.33 5.33 0 0 0-1.989 1.989q-.728 1.261-.728 2.911 0 1.649.728 2.959a5.24 5.24 0 0 0 1.989 2.038q1.262.727 2.862.727t2.862-.727a5.25 5.25 0 0 0 1.99-2.038q.776-1.31.776-2.959t-.776-2.911a5.34 5.34 0 0 0-1.99-1.989q-1.26-.728-2.862-.728m34.829 28.915-10.043-33.96h6.744l6.889 23.772 6.549-23.772h6.598l6.598 23.432 6.889-23.432h6.743l-10.139 33.96h-6.986l-6.404-23.578-6.501 23.578zm40.224 0v-34.009h6.646v13.584h15.719v-13.535h6.646v33.96h-6.646v-14.312h-15.719v14.312zm-123.639-48.292q-2.308 0-4.111-1.051a7.74 7.74 0 0 1-2.81-2.923q-1.005-1.873-1.005-4.294t1.005-4.271q1.029-1.873 2.81-2.923 1.78-1.074 4.088-1.074 1.552 0 2.923.571a7.7 7.7 0 0 1 2.421 1.531 6.7 6.7 0 0 1 1.644 2.283l-2.421.983a5 5 0 0 0-1.119-1.531 4.8 4.8 0 0 0-1.576-1.05 4.9 4.9 0 0 0-1.872-.366q-1.508 0-2.695.754-1.165.753-1.85 2.078-.663 1.302-.663 3.015 0 1.712.663 3.038.685 1.324 1.873 2.078 1.21.754 2.74.754 1.005 0 1.873-.389a5.2 5.2 0 0 0 1.576-1.119 5.3 5.3 0 0 0 1.119-1.644l2.421.982a7.5 7.5 0 0 1-1.622 2.398 7.6 7.6 0 0 1-2.443 1.599 7.8 7.8 0 0 1-2.969.571m9.584-.274v-15.988h2.649v6.578h8.039v-6.578h2.65v15.988h-2.65v-6.989h-8.039v6.989zm15.439 0 6.372-15.988h2.809l6.395 15.988h-2.809l-1.576-3.929h-6.829l-1.553 3.929zm5.253-6.281h5.047l-2.512-6.395zm14.937 6.281v-13.567h-4.91v-2.421h12.47v2.421h-4.91v13.567zm17.09.274q-2.421 0-4.317-1.051a7.9 7.9 0 0 1-2.946-2.923q-1.073-1.873-1.073-4.271 0-2.444 1.073-4.294a7.66 7.66 0 0 1 2.946-2.923q1.896-1.074 4.317-1.074 1.393 0 2.603.434 1.234.435 2.216 1.188a6.3 6.3 0 0 1 1.598 1.713l-2.146 1.37a4.9 4.9 0 0 0-1.119-1.187 5.1 5.1 0 0 0-1.508-.8 4.7 4.7 0 0 0-1.644-.297q-1.644 0-2.924.754a5.44 5.44 0 0 0-1.987 2.078q-.73 1.302-.73 3.038 0 1.69.708 3.015a5.4 5.4 0 0 0 2.009 2.078q1.302.754 2.992.754 1.302 0 2.33-.526a4.07 4.07 0 0 0 1.621-1.461q.617-.937.663-2.147h-3.814v-2.147h6.372v1.781q-.046 2.124-.982 3.677a6.2 6.2 0 0 1-2.535 2.398q-1.622.823-3.723.823m9.798-.274v-15.988h5.641q1.644 0 2.9.663a4.9 4.9 0 0 1 1.964 1.85q.708 1.164.708 2.718 0 1.507-.662 2.695a4.85 4.85 0 0 1-1.85 1.872q-1.164.663-2.718.663h-3.334v5.527zm2.649-7.971h3.289q1.141 0 1.872-.777.731-.776.731-2.009 0-1.256-.822-2.033t-2.124-.777h-2.946zm14.223 7.971v-13.567h-4.911v-2.421h12.47v2.421h-4.91v13.567zm20.52.274a8.5 8.5 0 0 1-2.307-.297 6.7 6.7 0 0 1-1.827-.822 6 6 0 0 1-1.302-1.165 4.2 4.2 0 0 1-.708-1.371l2.604-.799q.297.845 1.165 1.485.867.64 2.146.662 1.485 0 2.353-.617.867-.616.868-1.621 0-.913-.731-1.485-.73-.594-1.964-.913l-1.964-.503a7.4 7.4 0 0 1-2.033-.868 4.4 4.4 0 0 1-1.416-1.438q-.502-.868-.502-2.056 0-2.238 1.461-3.471 1.462-1.257 4.18-1.257 1.53 0 2.672.48 1.164.457 1.918 1.279a5.1 5.1 0 0 1 1.119 1.827l-2.558.822a3.2 3.2 0 0 0-1.187-1.507q-.846-.594-2.101-.594-1.302 0-2.056.617-.73.617-.731 1.713 0 .89.571 1.393.594.48 1.599.731l1.964.479q2.147.525 3.335 1.805 1.187 1.278 1.187 2.832 0 1.37-.662 2.42-.662 1.051-1.964 1.645-1.28.594-3.129.594m8.687-.274v-15.988h9.843v2.421h-7.194v4.248h6.349v2.376h-6.349v4.522h7.263v2.421zm18.724.274a8.5 8.5 0 0 1-2.307-.297 6.7 6.7 0 0 1-1.827-.822 6 6 0 0 1-1.302-1.165 4.2 4.2 0 0 1-.708-1.371l2.604-.799q.297.845 1.165 1.485.867.64 2.146.662 1.485 0 2.353-.617.868-.616.868-1.621 0-.913-.731-1.485-.73-.594-1.964-.913l-1.964-.503a7.4 7.4 0 0 1-2.033-.868 4.4 4.4 0 0 1-1.416-1.438q-.502-.868-.502-2.056 0-2.238 1.461-3.471 1.462-1.257 4.18-1.257 1.53 0 2.672.48 1.164.457 1.918 1.279a5.1 5.1 0 0 1 1.119 1.827l-2.558.822a3.2 3.2 0 0 0-1.187-1.507q-.846-.594-2.101-.594-1.302 0-2.056.617-.73.617-.731 1.713 0 .89.571 1.393.594.48 1.599.731l1.964.479q2.147.525 3.335 1.805 1.187 1.278 1.187 2.832 0 1.37-.662 2.42-.663 1.051-1.964 1.645-1.28.594-3.129.594m13.94 0a8.5 8.5 0 0 1-2.307-.297 6.7 6.7 0 0 1-1.827-.822 6 6 0 0 1-1.302-1.165 4.2 4.2 0 0 1-.708-1.371l2.604-.799q.296.845 1.164 1.485t2.147.662q1.485 0 2.353-.617.867-.616.867-1.621 0-.913-.73-1.485-.731-.594-1.965-.913l-1.964-.503a7.4 7.4 0 0 1-2.032-.868 4.4 4.4 0 0 1-1.416-1.438q-.503-.868-.503-2.056 0-2.238 1.462-3.471 1.461-1.257 4.179-1.257 1.53 0 2.673.48 1.164.457 1.918 1.279a5.2 5.2 0 0 1 1.119 1.827l-2.558.822a3.2 3.2 0 0 0-1.187-1.507q-.846-.594-2.102-.594-1.302 0-2.055.617-.73.617-.731 1.713 0 .89.571 1.393.594.48 1.599.731l1.964.479q2.147.525 3.334 1.805 1.188 1.278 1.188 2.832 0 1.37-.662 2.42-.663 1.051-1.965 1.645-1.278.594-3.128.594m8.686-.274v-15.988h2.65v15.988zm13.549.274q-2.375 0-4.202-1.051a7.6 7.6 0 0 1-2.878-2.923q-1.028-1.873-1.028-4.294t1.028-4.271q1.05-1.873 2.855-2.923 1.804-1.074 4.156-1.074 2.376 0 4.18 1.074a7.27 7.27 0 0 1 2.832 2.923q1.028 1.85 1.028 4.271t-1.028 4.294a7.3 7.3 0 0 1-2.809 2.923q-1.782 1.05-4.134 1.051m0-2.421q1.553 0 2.741-.754a5.15 5.15 0 0 0 1.849-2.055q.686-1.326.686-3.038 0-1.69-.686-3.015-.684-1.324-1.895-2.055-1.188-.754-2.764-.754-1.552 0-2.763.754-1.188.73-1.896 2.055-.685 1.302-.685 3.015 0 1.712.685 3.038a5.4 5.4 0 0 0 1.919 2.055q1.233.754 2.809.754m10.784 2.147v-15.988h2.741l8.496 11.557v-11.557h2.649v15.988h-2.649l-8.587-11.694v11.694z"/><path stroke="#9be6aa" stroke-linecap="round" stroke-linejoin="round" stroke-width="1.857" d="m80.658 368.771-1.857 1.858m-31.572-1.858 1.857 1.858m4.58-8.224 1.272 2.298m18.447-2.298-1.272 2.298m-8.59-4.003v2.626m-5.148 33.623h11.143m-9.284 5.571h7.43"/><path fill="#9be6aa" stroke="#9be6aa" stroke-linecap="round" stroke-linejoin="round" stroke-width="1.857" d="M63.943 369.093c-7.429 0-11.232 3.622-11.143 9.286.044 2.761.929 4.643 2.786 6.5 1.858 1.857 2.786 2.786 2.786 6.5h11.143c0-3.714.929-4.643 2.785-6.5 1.858-1.857 2.743-3.739 2.786-6.5.09-5.664-3.713-9.286-11.143-9.286"/><path stroke="#9be6aa" stroke-linecap="round" stroke-linejoin="round" stroke-width="1.857" d="m125.224 368.771-1.857 1.858M91.8 368.771l1.858 1.858m4.584-8.224 1.272 2.298m18.443-2.298-1.272 2.298M108.1 360.7v2.626m-5.157 33.623h11.143m-9.287 5.571h7.429"/><path fill="#9be6aa" stroke="#9be6aa" stroke-linecap="round" stroke-linejoin="round" stroke-width="1.857" d="M108.512 369.093c-7.429 0-11.232 3.622-11.143 9.286.043 2.761.928 4.643 2.785 6.5s2.787 2.786 2.786 6.5h11.143c.001-3.714.929-4.643 2.786-6.5s2.743-3.739 2.786-6.5c.089-5.664-3.714-9.286-11.143-9.286"/><path stroke="#9be6aa" stroke-linecap="round" stroke-linejoin="round" stroke-width="1.857" d="m169.804 368.771-1.857 1.858m-31.568-1.858 1.857 1.858m4.575-8.224 1.272 2.298m18.448-2.298-1.272 2.298m-8.587-4.003v2.626m-5.154 33.623h11.143m-9.284 5.571h7.429"/><path fill="#9be6aa" stroke="#9be6aa" stroke-linecap="round" stroke-linejoin="round" stroke-width="1.857" d="M153.092 369.093c-7.429 0-11.232 3.622-11.143 9.286.043 2.761.928 4.643 2.786 6.5 1.857 1.857 2.786 2.786 2.785 6.5h11.143c.001-3.714.929-4.643 2.786-6.5s2.743-3.739 2.786-6.5c.089-5.664-3.714-9.286-11.143-9.286"/><path stroke="#9be6aa" stroke-linecap="round" stroke-linejoin="round" stroke-width="1.857" d="m370.482 251.206-1.857 1.857m-31.572-1.857 1.857 1.857m4.578-8.227 1.272 2.298m18.441-2.298-1.272 2.298m-8.579-3.996v2.627m-5.155 33.62h11.143m-9.283 5.573h7.428"/><path fill="#9be6aa" stroke="#9be6aa" stroke-linecap="round" stroke-linejoin="round" stroke-width="1.857" d="M353.766 251.527c-7.429 0-11.233 3.622-11.143 9.286.043 2.762.928 4.643 2.785 6.5s2.786 2.786 2.786 6.501h11.143c.001-3.715.929-4.643 2.786-6.5s2.742-3.739 2.786-6.501c.089-5.664-3.714-9.286-11.143-9.286"/><path stroke="#9be6aa" stroke-linecap="round" stroke-linejoin="round" stroke-width="1.857" d="m415.054 251.206-1.857 1.857m-31.572-1.857 1.857 1.857m4.584-8.227 1.273 2.298m18.442-2.298-1.272 2.298m-8.585-3.996v2.627m-5.156 33.62h11.143m-9.284 5.573h7.429"/><path fill="#9be6aa" stroke="#9be6aa" stroke-linecap="round" stroke-linejoin="round" stroke-width="1.857" d="M398.342 251.527c-7.429 0-11.232 3.622-11.143 9.286.043 2.762.928 4.643 2.786 6.5 1.857 1.858 2.786 2.786 2.785 6.501h11.143c.001-3.715.929-4.643 2.786-6.5s2.743-3.739 2.786-6.501c.089-5.664-3.714-9.286-11.143-9.286"/><path stroke="#9be6aa" stroke-linecap="round" stroke-linejoin="round" stroke-width="1.857" d="m459.625 251.206-1.857 1.857m-31.567-1.857 1.857 1.857m4.577-8.227 1.272 2.298m18.45-2.298-1.272 2.298m-8.589-3.996v2.627m-5.152 33.62h11.143m-9.288 5.573h7.429"/><path fill="#9be6aa" stroke="#9be6aa" stroke-linecap="round" stroke-linejoin="round" stroke-width="1.857" d="M442.908 251.527c-7.429 0-11.232 3.622-11.143 9.286.044 2.762.929 4.643 2.786 6.5s2.786 2.786 2.786 6.501h11.143c0-3.715.929-4.643 2.785-6.5s2.743-3.739 2.786-6.501c.089-5.664-3.714-9.286-11.143-9.286"/><path stroke="#9be6aa" stroke-linecap="round" stroke-linejoin="round" stroke-width="1.857" d="m504.197 251.206-1.857 1.857m-31.569-1.857 1.858 1.857m4.586-8.227 1.272 2.298m18.441-2.298-1.272 2.298m-8.584-3.996v2.627m-5.158 33.62h11.143m-9.286 5.573h7.429"/><path fill="#9be6aa" stroke="#9be6aa" stroke-linecap="round" stroke-linejoin="round" stroke-width="1.857" d="M487.484 251.527c-7.429 0-11.232 3.622-11.143 9.286.044 2.762.929 4.643 2.786 6.5 1.858 1.858 2.786 2.786 2.786 6.501h11.143c0-3.715.929-4.643 2.786-6.5s2.742-3.739 2.785-6.501c.09-5.664-3.714-9.286-11.143-9.286"/><path stroke="#9be6aa" stroke-linecap="round" stroke-linejoin="round" stroke-width="1.857" d="m548.773 251.206-1.857 1.857m-31.572-1.857 1.857 1.857m4.578-8.227 1.272 2.298m18.445-2.298-1.272 2.298m-8.585-3.996v2.627m-5.153 33.62h11.143m-9.287 5.573h7.429"/><path fill="#9be6aa" stroke="#9be6aa" stroke-linecap="round" stroke-linejoin="round" stroke-width="1.857" d="M532.061 251.527c-7.429 0-11.233 3.622-11.143 9.286.043 2.762.928 4.643 2.785 6.5s2.786 2.786 2.786 6.501h11.143c0-3.715.929-4.643 2.786-6.5s2.742-3.739 2.786-6.501c.089-5.664-3.714-9.286-11.143-9.286"/><path stroke="#9be6aa" stroke-linecap="round" stroke-linejoin="round" stroke-width="1.857" d="m593.344 251.206-1.858 1.857m-31.57-1.857 1.857 1.857m4.581-8.227 1.272 2.298m18.446-2.298-1.272 2.298m-8.585-3.996v2.627m-5.156 33.62h11.143m-9.284 5.573h7.429"/><path fill="#9be6aa" stroke="#9be6aa" stroke-linecap="round" stroke-linejoin="round" stroke-width="1.857" d="M576.627 251.527c-7.429 0-11.232 3.622-11.143 9.286.043 2.762.928 4.643 2.786 6.5 1.857 1.858 2.786 2.786 2.785 6.501h11.143c.001-3.715.929-4.643 2.786-6.5s2.743-3.739 2.786-6.501c.089-5.664-3.714-9.286-11.143-9.286"/><path stroke="#9be6aa" stroke-linecap="round" stroke-linejoin="round" stroke-width="1.857" d="m637.916 251.206-1.857 1.857m-31.573-1.857 1.858 1.857m4.586-8.227 1.272 2.298m18.441-2.298-1.273 2.298m-8.583-3.996v2.627m-5.154 33.62h11.143m-9.288 5.573h7.429"/><path fill="#9be6aa" stroke="#9be6aa" stroke-linecap="round" stroke-linejoin="round" stroke-width="1.857" d="M621.203 251.527c-7.429 0-11.232 3.622-11.143 9.286.044 2.762.928 4.643 2.786 6.5 1.857 1.858 2.786 2.786 2.786 6.501h11.143c0-3.715.929-4.643 2.785-6.5s2.743-3.739 2.786-6.501c.089-5.664-3.714-9.286-11.143-9.286"/><path stroke="#9be6aa" stroke-linecap="round" stroke-linejoin="round" stroke-width="1.857" d="m682.488 251.206-1.857 1.857m-31.572-1.857 1.857 1.857m4.584-8.227 1.272 2.298m18.443-2.298-1.272 2.298m-8.582-3.996v2.627m-5.156 33.62h11.143m-9.287 5.573h7.428"/><path fill="#9be6aa" stroke="#9be6aa" stroke-linecap="round" stroke-linejoin="round" stroke-width="1.857" d="M665.775 251.527c-7.429 0-11.232 3.622-11.143 9.286.044 2.762.929 4.643 2.786 6.5 1.858 1.858 2.786 2.786 2.786 6.501h11.143c0-3.715.929-4.643 2.786-6.5s2.742-3.739 2.785-6.501c.09-5.664-3.714-9.286-11.143-9.286"/><path stroke="#9be6aa" stroke-linecap="round" stroke-linejoin="round" stroke-width="1.857" d="m727.058 251.206-1.857 1.857m-31.57-1.857 1.857 1.857m4.58-8.227 1.272 2.298m18.443-2.298-1.272 2.298m-8.585-3.996v2.627m-5.153 33.62h11.144m-9.288 5.573h7.429"/><path fill="#9be6aa" stroke="#9be6aa" stroke-linecap="round" stroke-linejoin="round" stroke-width="1.857" d="M710.342 251.527c-7.429 0-11.232 3.622-11.143 9.286.043 2.762.928 4.643 2.786 6.5 1.857 1.858 2.786 2.786 2.785 6.501h11.143c.001-3.715.929-4.643 2.786-6.5s2.743-3.739 2.786-6.501c.089-5.664-3.714-9.286-11.143-9.286"/><path stroke="#9be6aa" stroke-linecap="round" stroke-linejoin="round" stroke-width="1.857" d="m370.482 305-1.857 1.858M337.053 305l1.857 1.858m4.578-8.228 1.272 2.298m18.441-2.298-1.272 2.298m-8.579-3.997v2.626m-5.155 33.621h11.143m-9.283 5.573h7.428"/><path fill="#9be6aa" stroke="#9be6aa" stroke-linecap="round" stroke-linejoin="round" stroke-width="1.857" d="M353.77 305.322c-7.429 0-11.233 3.622-11.143 9.286.043 2.761.928 4.643 2.785 6.5s2.786 2.786 2.786 6.5h11.143c0-3.714.929-4.643 2.786-6.5s2.742-3.739 2.786-6.5c.089-5.664-3.714-9.286-11.143-9.286"/><path stroke="#9be6aa" stroke-linecap="round" stroke-linejoin="round" stroke-width="1.857" d="m415.054 305-1.857 1.858M381.625 305l1.857 1.858m4.584-8.228 1.273 2.298m18.442-2.298-1.272 2.298m-8.585-3.997v2.626m-5.156 33.621h11.143m-9.284 5.573h7.429"/><path fill="#9be6aa" stroke="#9be6aa" stroke-linecap="round" stroke-linejoin="round" stroke-width="1.857" d="M398.342 305.322c-7.429 0-11.232 3.622-11.143 9.286.043 2.761.928 4.643 2.786 6.5 1.857 1.857 2.786 2.786 2.785 6.5h11.143c.001-3.714.929-4.643 2.786-6.5s2.743-3.739 2.786-6.5c.089-5.664-3.714-9.286-11.143-9.286"/><path stroke="#9be6aa" stroke-linecap="round" stroke-linejoin="round" stroke-width="1.857" d="m459.625 305-1.857 1.858M426.201 305l1.857 1.858m4.577-8.228 1.272 2.298m18.45-2.298-1.272 2.298m-8.589-3.997v2.626m-5.152 33.621h11.143m-9.288 5.573h7.429"/><path fill="#9be6aa" stroke="#9be6aa" stroke-linecap="round" stroke-linejoin="round" stroke-width="1.857" d="M442.908 305.322c-7.429 0-11.232 3.622-11.143 9.286.044 2.761.929 4.643 2.786 6.5s2.786 2.786 2.786 6.5h11.143c0-3.714.929-4.643 2.785-6.5s2.743-3.739 2.786-6.5c.089-5.664-3.714-9.286-11.143-9.286"/><path stroke="#9be6aa" stroke-linecap="round" stroke-linejoin="round" stroke-width="1.857" d="m504.201 305-1.857 1.858M470.771 305l1.858 1.858m4.586-8.228 1.272 2.298m18.441-2.298-1.272 2.298m-8.584-3.997v2.626m-5.158 33.621h11.143m-9.286 5.573h7.429"/><path fill="#9be6aa" stroke="#9be6aa" stroke-linecap="round" stroke-linejoin="round" stroke-width="1.857" d="M487.484 305.322c-7.429 0-11.232 3.622-11.143 9.286.044 2.761.929 4.643 2.786 6.5 1.858 1.857 2.786 2.786 2.786 6.5h11.143c0-3.714.929-4.643 2.786-6.5s2.742-3.739 2.785-6.5c.09-5.664-3.714-9.286-11.143-9.286"/><path stroke="#9be6aa" stroke-linecap="round" stroke-linejoin="round" stroke-width="1.857" d="m548.773 305-1.857 1.858M515.344 305l1.857 1.858m4.578-8.228 1.272 2.298m18.445-2.298-1.272 2.298m-8.585-3.997v2.626m-5.153 33.621h11.143m-9.287 5.573h7.429"/><path fill="#9be6aa" stroke="#9be6aa" stroke-linecap="round" stroke-linejoin="round" stroke-width="1.857" d="M532.061 305.322c-7.429 0-11.233 3.622-11.143 9.286.043 2.761.928 4.643 2.785 6.5s2.786 2.786 2.786 6.5h11.143c0-3.714.929-4.643 2.786-6.5s2.742-3.739 2.786-6.5c.089-5.664-3.714-9.286-11.143-9.286"/><path stroke="#9be6aa" stroke-linecap="round" stroke-linejoin="round" stroke-width="1.857" d="m593.344 305-1.858 1.858M559.916 305l1.857 1.858m4.581-8.228 1.272 2.298m18.446-2.298-1.272 2.298m-8.585-3.997v2.626m-5.156 33.621h11.143m-9.284 5.573h7.429"/><path fill="#9be6aa" stroke="#9be6aa" stroke-linecap="round" stroke-linejoin="round" stroke-width="1.857" d="M576.627 305.322c-7.429 0-11.232 3.622-11.143 9.286.043 2.761.928 4.643 2.786 6.5 1.857 1.857 2.786 2.786 2.785 6.5h11.143c.001-3.714.929-4.643 2.786-6.5s2.743-3.739 2.786-6.5c.089-5.664-3.714-9.286-11.143-9.286"/><path stroke="#9be6aa" stroke-linecap="round" stroke-linejoin="round" stroke-width="1.857" d="m637.916 305-1.857 1.858M604.486 305l1.858 1.858m4.586-8.228 1.272 2.298m18.441-2.298-1.273 2.298m-8.583-3.997v2.626m-5.154 33.621h11.143m-9.288 5.573h7.429"/><path fill="#9be6aa" stroke="#9be6aa" stroke-linecap="round" stroke-linejoin="round" stroke-width="1.857" d="M621.203 305.322c-7.429 0-11.232 3.622-11.143 9.286.044 2.761.928 4.643 2.786 6.5 1.857 1.857 2.786 2.786 2.786 6.5h11.143c0-3.714.929-4.643 2.785-6.5s2.743-3.739 2.786-6.5c.089-5.664-3.714-9.286-11.143-9.286"/><path stroke="#9be6aa" stroke-linecap="round" stroke-linejoin="round" stroke-width="1.857" d="m682.488 305-1.857 1.858M649.059 305l1.857 1.858m4.584-8.228 1.272 2.298m18.443-2.298-1.272 2.298m-8.582-3.997v2.626m-5.156 33.621h11.143m-9.287 5.573h7.428"/><path fill="#9be6aa" stroke="#9be6aa" stroke-linecap="round" stroke-linejoin="round" stroke-width="1.857" d="M665.775 305.322c-7.429 0-11.232 3.622-11.143 9.286.044 2.761.929 4.643 2.786 6.5 1.858 1.857 2.786 2.786 2.786 6.5h11.143c0-3.714.929-4.643 2.786-6.5s2.742-3.739 2.785-6.5c.09-5.664-3.714-9.286-11.143-9.286"/><path stroke="#9be6aa" stroke-linecap="round" stroke-linejoin="round" stroke-width="1.857" d="m727.058 305-1.857 1.858M693.631 305l1.857 1.858m4.58-8.228 1.272 2.298m18.443-2.298-1.272 2.298m-8.585-3.997v2.626m-5.153 33.621h11.144m-9.288 5.573h7.429"/><path fill="#9be6aa" stroke="#9be6aa" stroke-linecap="round" stroke-linejoin="round" stroke-width="1.857" d="M710.342 305.322c-7.429 0-11.232 3.622-11.143 9.286.043 2.761.928 4.643 2.786 6.5 1.857 1.857 2.786 2.786 2.785 6.5h11.143c.001-3.714.929-4.643 2.786-6.5s2.743-3.739 2.786-6.5c.089-5.664-3.714-9.286-11.143-9.286"/><path stroke="#9be6aa" stroke-linecap="round" stroke-linejoin="round" stroke-width="1.857" d="m771.638 305-1.857 1.858M738.205 305l1.857 1.858m4.583-8.228 1.272 2.298m18.448-2.298-1.272 2.298m-8.587-3.997v2.626m-5.158 33.621h11.143m-9.284 5.573h7.429"/><path fill="#9be6aa" stroke="#9be6aa" stroke-linecap="round" stroke-linejoin="round" stroke-width="1.857" d="M754.922 305.322c-7.429 0-11.232 3.622-11.143 9.286.043 2.761.928 4.643 2.786 6.5 1.857 1.857 2.786 2.786 2.785 6.5h11.143c.001-3.714.929-4.643 2.786-6.5s2.743-3.739 2.786-6.5c.089-5.664-3.714-9.286-11.143-9.286"/><path stroke="#9be6aa" stroke-linecap="round" stroke-linejoin="round" stroke-width="1.857" d="m370.482 358.792-1.857 1.857m-31.572-1.857 1.857 1.857m4.578-8.222 1.272 2.298m18.441-2.298-1.272 2.298m-8.579-4.001v2.626m-5.155 33.623h11.143m-9.283 5.571h7.428"/><path fill="#9be6aa" stroke="#9be6aa" stroke-linecap="round" stroke-linejoin="round" stroke-width="1.857" d="M353.766 359.113c-7.429 0-11.233 3.622-11.143 9.286.043 2.761.928 4.643 2.785 6.5s2.786 2.786 2.786 6.5h11.143c.001-3.714.929-4.643 2.786-6.5s2.742-3.739 2.786-6.5c.089-5.664-3.714-9.286-11.143-9.286"/><path stroke="#9be6aa" stroke-linecap="round" stroke-linejoin="round" stroke-width="1.857" d="m415.054 358.792-1.857 1.857m-31.572-1.857 1.857 1.857m4.584-8.222 1.273 2.298m18.442-2.298-1.272 2.298m-8.585-4.001v2.626m-5.156 33.623h11.143m-9.284 5.571h7.429"/><path fill="#9be6aa" stroke="#9be6aa" stroke-linecap="round" stroke-linejoin="round" stroke-width="1.857" d="M398.342 359.113c-7.429 0-11.232 3.622-11.143 9.286.043 2.761.928 4.643 2.786 6.5 1.857 1.857 2.786 2.786 2.785 6.5h11.143c.001-3.714.929-4.643 2.786-6.5s2.743-3.739 2.786-6.5c.089-5.664-3.714-9.286-11.143-9.286"/><path stroke="#9be6aa" stroke-linecap="round" stroke-linejoin="round" stroke-width="1.857" d="m459.625 358.792-1.857 1.857m-31.567-1.857 1.857 1.857m4.577-8.222 1.272 2.298m18.45-2.298-1.272 2.298m-8.589-4.001v2.626m-5.152 33.623h11.143m-9.288 5.571h7.429"/><path fill="#9be6aa" stroke="#9be6aa" stroke-linecap="round" stroke-linejoin="round" stroke-width="1.857" d="M442.908 359.113c-7.429 0-11.232 3.622-11.143 9.286.044 2.761.929 4.643 2.786 6.5s2.786 2.786 2.786 6.5h11.143c0-3.714.929-4.643 2.785-6.5s2.743-3.739 2.786-6.5c.089-5.664-3.714-9.286-11.143-9.286"/><path stroke="#9be6aa" stroke-linecap="round" stroke-linejoin="round" stroke-width="1.857" d="m504.197 358.792-1.857 1.857m-31.569-1.857 1.858 1.857m4.586-8.222 1.272 2.298m18.441-2.298-1.272 2.298m-8.584-4.001v2.626m-5.158 33.623h11.143m-9.286 5.571h7.429"/><path fill="#9be6aa" stroke="#9be6aa" stroke-linecap="round" stroke-linejoin="round" stroke-width="1.857" d="M487.484 359.113c-7.429 0-11.232 3.622-11.143 9.286.044 2.761.929 4.643 2.786 6.5 1.858 1.857 2.786 2.786 2.786 6.5h11.143c0-3.714.929-4.643 2.786-6.5s2.742-3.739 2.785-6.5c.09-5.664-3.714-9.286-11.143-9.286"/><path stroke="#9be6aa" stroke-linecap="round" stroke-linejoin="round" stroke-width="1.857" d="m548.773 358.792-1.857 1.857m-31.572-1.857 1.857 1.857m4.578-8.222 1.272 2.298m18.445-2.298-1.272 2.298m-8.585-4.001v2.626m-5.153 33.623h11.143m-9.287 5.571h7.429"/><path fill="#9be6aa" stroke="#9be6aa" stroke-linecap="round" stroke-linejoin="round" stroke-width="1.857" d="M532.061 359.113c-7.429 0-11.233 3.622-11.143 9.286.043 2.761.928 4.643 2.785 6.5s2.786 2.786 2.786 6.5h11.143c0-3.714.929-4.643 2.786-6.5s2.742-3.739 2.786-6.5c.089-5.664-3.714-9.286-11.143-9.286"/><path stroke="#9be6aa" stroke-linecap="round" stroke-linejoin="round" stroke-width="1.857" d="m593.344 358.792-1.858 1.857m-31.57-1.857 1.857 1.857m4.581-8.222 1.272 2.298m18.446-2.298-1.272 2.298m-8.585-4.001v2.626m-5.156 33.623h11.143m-9.284 5.571h7.429"/><path fill="#9be6aa" stroke="#9be6aa" stroke-linecap="round" stroke-linejoin="round" stroke-width="1.857" d="M576.627 359.113c-7.429 0-11.232 3.622-11.143 9.286.043 2.761.928 4.643 2.786 6.5 1.857 1.857 2.786 2.786 2.785 6.5h11.143c.001-3.714.929-4.643 2.786-6.5s2.743-3.739 2.786-6.5c.089-5.664-3.714-9.286-11.143-9.286"/><path stroke="#9be6aa" stroke-linecap="round" stroke-linejoin="round" stroke-width="1.857" d="m637.916 358.792-1.857 1.857m-31.573-1.857 1.858 1.857m4.586-8.222 1.272 2.298m18.441-2.298-1.273 2.298m-8.583-4.001v2.626m-5.154 33.623h11.143m-9.288 5.571h7.429"/><path fill="#9be6aa" stroke="#9be6aa" stroke-linecap="round" stroke-linejoin="round" stroke-width="1.857" d="M621.203 359.113c-7.429 0-11.232 3.622-11.143 9.286.044 2.761.928 4.643 2.786 6.5 1.857 1.857 2.786 2.786 2.786 6.5h11.143c0-3.714.929-4.643 2.785-6.5s2.743-3.739 2.786-6.5c.089-5.664-3.714-9.286-11.143-9.286"/><path stroke="#9be6aa" stroke-linecap="round" stroke-linejoin="round" stroke-width="1.857" d="m682.488 358.792-1.857 1.857m-31.572-1.857 1.857 1.857m4.584-8.222 1.272 2.298m18.443-2.298-1.272 2.298m-8.582-4.001v2.626m-5.156 33.623h11.143m-9.287 5.571h7.428"/><path fill="#9be6aa" stroke="#9be6aa" stroke-linecap="round" stroke-linejoin="round" stroke-width="1.857" d="M665.775 359.113c-7.429 0-11.232 3.622-11.143 9.286.044 2.761.929 4.643 2.786 6.5 1.858 1.857 2.786 2.786 2.786 6.5h11.143c0-3.714.929-4.643 2.786-6.5s2.742-3.739 2.785-6.5c.09-5.664-3.714-9.286-11.143-9.286"/><path stroke="#9be6aa" stroke-linecap="round" stroke-linejoin="round" stroke-width="1.857" d="m727.058 358.792-1.857 1.857m-31.57-1.857 1.857 1.857m4.58-8.222 1.272 2.298m18.443-2.298-1.272 2.298m-8.585-4.001v2.626m-5.153 33.623h11.144m-9.288 5.571h7.429"/><path fill="#9be6aa" stroke="#9be6aa" stroke-linecap="round" stroke-linejoin="round" stroke-width="1.857" d="M710.342 359.113c-7.429 0-11.232 3.622-11.143 9.286.043 2.761.928 4.643 2.786 6.5 1.857 1.857 2.786 2.786 2.785 6.5h11.143c.001-3.714.929-4.643 2.786-6.5s2.743-3.739 2.786-6.5c.089-5.664-3.714-9.286-11.143-9.286"/><path stroke="#9be6aa" stroke-linecap="round" stroke-linejoin="round" stroke-width="1.857" d="m771.638 358.792-1.857 1.857m-31.576-1.857 1.857 1.857m4.583-8.222 1.272 2.298m18.448-2.298-1.272 2.298m-8.587-4.001v2.626m-5.158 33.623h11.143m-9.284 5.571h7.429"/><path fill="#9be6aa" stroke="#9be6aa" stroke-linecap="round" stroke-linejoin="round" stroke-width="1.857" d="M754.922 359.113c-7.429 0-11.232 3.622-11.143 9.286.043 2.761.928 4.643 2.786 6.5 1.857 1.857 2.786 2.786 2.785 6.5h11.143c.001-3.714.929-4.643 2.786-6.5s2.743-3.739 2.786-6.5c.089-5.664-3.714-9.286-11.143-9.286"/></svg>