<svg width="424" height="622" viewBox="0 0 424 622" fill="none" xmlns="http://www.w3.org/2000/svg">
<g clip-path="url(#clip0_633_3514)">
<path d="M48.2482 71.1272V44.803H57.5369C59.342 44.803 60.934 45.154 62.3129 45.856C63.6918 46.558 64.7698 47.5357 65.547 48.7893C66.3242 50.0177 66.7128 51.4467 66.7128 53.0763C66.7128 54.8062 66.2364 56.3355 65.2838 57.6643C64.3311 58.9679 63.0775 59.9332 61.5232 60.5599L67.7657 71.1272H62.8394L57.1985 61.3873C57.048 61.4123 56.8851 61.4249 56.7096 61.4249C56.5592 61.4249 56.3962 61.4249 56.2207 61.4249H52.6105V71.1272H48.2482ZM52.6105 57.401H57.725C58.5774 57.401 59.3295 57.213 59.9813 56.8369C60.6582 56.4609 61.1972 55.9469 61.5984 55.2951C62.0246 54.6432 62.2377 53.9037 62.2377 53.0763C62.2377 51.8228 61.7864 50.7949 60.8839 49.9926C59.9813 49.1904 58.8155 48.7893 57.3865 48.7893H52.6105V57.401ZM79.0765 71.5785C77.2464 71.5785 75.6168 71.1648 74.1878 70.3375C72.7838 69.4851 71.6682 68.3193 70.8408 66.8401C70.0386 65.3609 69.6374 63.6561 69.6374 61.7257C69.6374 59.7953 70.0511 58.0905 70.8784 56.6113C71.7058 55.1321 72.834 53.9789 74.263 53.1515C75.7171 52.2991 77.3717 51.8729 79.227 51.8729C80.9067 51.8729 82.4235 52.3117 83.7773 53.1891C85.1311 54.0416 86.1966 55.2825 86.9738 56.9121C87.7761 58.5417 88.1772 60.4847 88.1772 62.7411H73.9997C74.1251 64.3205 74.7017 65.5615 75.7296 66.4641C76.7826 67.3666 78.0236 67.8179 79.4526 67.8179C80.6059 67.8179 81.5585 67.5672 82.3107 67.0658C83.0628 66.5393 83.6519 65.8624 84.0781 65.035L87.8011 66.6145C87.2746 67.6173 86.5977 68.4948 85.7704 69.2469C84.9681 69.999 84.0029 70.5756 82.8747 70.9768C81.7716 71.3779 80.5056 71.5785 79.0765 71.5785ZM74.263 59.507H83.6269C83.5517 58.6044 83.2884 57.8648 82.8371 57.2882C82.3859 56.6865 81.8343 56.2352 81.1825 55.9344C80.5306 55.6335 79.8412 55.4831 79.1142 55.4831C78.4122 55.4831 77.6977 55.6335 76.9706 55.9344C76.2686 56.2102 75.6669 56.6489 75.1655 57.2506C74.6641 57.8523 74.3633 58.6044 74.263 59.507ZM76.3313 49.8798L80.6936 44.803H85.5824L80.7312 49.8798H76.3313ZM97.6083 71.5785C96.3547 71.5785 95.2015 71.3904 94.1485 71.0144C93.0956 70.6383 92.193 70.1118 91.4409 69.4349C90.6888 68.733 90.1122 67.9182 89.711 66.9905L93.3588 65.3735C93.7349 66.0755 94.2864 66.6646 95.0135 67.141C95.7656 67.6173 96.5929 67.8555 97.4955 67.8555C98.4732 67.8555 99.2504 67.6925 99.827 67.3666C100.429 67.0156 100.73 66.5393 100.73 65.9376C100.73 65.3609 100.504 64.9222 100.053 64.6214C99.6014 64.2954 98.9621 64.0322 98.1348 63.8316L96.3673 63.3428C94.5873 62.8915 93.1958 62.177 92.193 61.1992C91.1902 60.1964 90.6888 59.0557 90.6888 57.7771C90.6888 55.8968 91.2905 54.4427 92.4939 53.4148C93.7223 52.3869 95.4773 51.8729 97.7587 51.8729C98.9119 51.8729 99.9649 52.0484 100.918 52.3994C101.895 52.7253 102.735 53.2017 103.437 53.8285C104.139 54.4301 104.628 55.1447 104.904 55.972L101.406 57.5514C101.156 56.9247 100.679 56.4483 99.9775 56.1224C99.2755 55.7714 98.4983 55.5959 97.6459 55.5959C96.7935 55.5959 96.1291 55.784 95.6528 56.16C95.1764 56.511 94.9383 57.0124 94.9383 57.6643C94.9383 58.0403 95.1514 58.3913 95.5776 58.7172C96.0038 59.0181 96.618 59.2688 97.4202 59.4693L99.639 59.9958C100.867 60.2967 101.87 60.773 102.647 61.4249C103.425 62.0516 104.001 62.7661 104.377 63.5684C104.753 64.3456 104.941 65.1353 104.941 65.9376C104.941 67.0658 104.616 68.056 103.964 68.9084C103.337 69.7608 102.472 70.4252 101.369 70.9016C100.266 71.3528 99.0122 71.5785 97.6083 71.5785ZM114.301 71.5785C112.821 71.5785 111.543 71.2776 110.465 70.6759C109.412 70.0742 108.597 69.1341 108.02 67.8555C107.444 66.5769 107.155 64.9347 107.155 62.9291V52.3242H111.367V61.9513C111.367 63.4305 111.543 64.5838 111.894 65.4111C112.245 66.2384 112.721 66.815 113.323 67.141C113.95 67.4669 114.664 67.6298 115.466 67.6298C116.895 67.6549 117.998 67.1911 118.776 66.2384C119.553 65.2857 119.941 63.9194 119.941 62.1394V52.3242H124.116V71.1272H120.167L119.979 68.4572C119.377 69.46 118.588 70.2372 117.61 70.7887C116.657 71.3152 115.554 71.5785 114.301 71.5785ZM128.083 71.1272V52.3242H132.032L132.22 54.8438C132.797 53.8661 133.536 53.1265 134.439 52.6251C135.341 52.1236 136.369 51.8729 137.522 51.8729C139.027 51.8729 140.305 52.2114 141.358 52.8883C142.411 53.5652 143.176 54.5931 143.652 55.972C144.204 54.6432 144.981 53.6279 145.984 52.9259C146.987 52.2239 148.165 51.8729 149.519 51.8729C151.7 51.8729 153.38 52.5749 154.558 53.9789C155.736 55.3578 156.313 57.4888 156.288 60.3719V71.1272H152.114V61.5001C152.114 59.9958 151.951 58.8426 151.625 58.0403C151.299 57.213 150.86 56.6364 150.308 56.3104C149.757 55.9845 149.118 55.8216 148.391 55.8216C147.087 55.7965 146.072 56.2603 145.344 57.213C144.643 58.1657 144.292 59.532 144.292 61.312V71.1272H140.08V61.5001C140.08 59.9958 139.917 58.8426 139.591 58.0403C139.29 57.213 138.864 56.6364 138.312 56.3104C137.761 55.9845 137.121 55.8216 136.394 55.8216C135.091 55.7965 134.075 56.2603 133.348 57.213C132.646 58.1657 132.295 59.532 132.295 61.312V71.1272H128.083ZM168.258 71.5785C166.428 71.5785 164.798 71.1648 163.369 70.3375C161.965 69.4851 160.85 68.3193 160.022 66.8401C159.22 65.3609 158.819 63.6561 158.819 61.7257C158.819 59.7953 159.233 58.0905 160.06 56.6113C160.887 55.1321 162.016 53.9789 163.445 53.1515C164.899 52.2991 166.553 51.8729 168.409 51.8729C170.088 51.8729 171.605 52.3117 172.959 53.1891C174.313 54.0416 175.378 55.2825 176.155 56.9121C176.958 58.5417 177.359 60.4847 177.359 62.7411H163.181C163.307 64.3205 163.883 65.5615 164.911 66.4641C165.964 67.3666 167.205 67.8179 168.634 67.8179C169.788 67.8179 170.74 67.5672 171.492 67.0658C172.244 66.5393 172.834 65.8624 173.26 65.035L176.983 66.6145C176.456 67.6173 175.779 68.4948 174.952 69.2469C174.15 69.999 173.185 70.5756 172.056 70.9768C170.953 71.3779 169.687 71.5785 168.258 71.5785ZM163.445 59.507H172.809C172.733 58.6044 172.47 57.8648 172.019 57.2882C171.568 56.6865 171.016 56.2352 170.364 55.9344C169.712 55.6335 169.023 55.4831 168.296 55.4831C167.594 55.4831 166.879 55.6335 166.152 55.9344C165.45 56.2102 164.849 56.6489 164.347 57.2506C163.846 57.8523 163.545 58.6044 163.445 59.507ZM179.872 71.1272V52.3242H184.084V55.7464C184.836 54.568 185.814 53.6906 187.017 53.1139C188.221 52.5373 189.462 52.249 190.74 52.249V56.2728C189.587 56.2728 188.496 56.4358 187.469 56.7617C186.466 57.0626 185.651 57.564 185.024 58.266C184.397 58.9679 184.084 59.8955 184.084 61.0488V71.1272H179.872ZM207.911 71.5785C206.432 71.5785 205.153 71.2776 204.075 70.6759C203.022 70.0742 202.208 69.1341 201.631 67.8555C201.054 66.5769 200.766 64.9347 200.766 62.9291V52.3242H204.978V61.9513C204.978 63.4305 205.153 64.5838 205.504 65.4111C205.855 66.2384 206.332 66.815 206.933 67.141C207.56 67.4669 208.275 67.6298 209.077 67.6298C210.506 67.6549 211.609 67.1911 212.386 66.2384C213.163 65.2857 213.552 63.9194 213.552 62.1394V52.3242H217.726V71.1272H213.778L213.59 68.4572C212.988 69.46 212.198 70.2372 211.22 70.7887C210.268 71.3152 209.165 71.5785 207.911 71.5785ZM221.694 71.1272V52.3242H225.643L225.831 54.9942C226.432 53.9914 227.209 53.2268 228.162 52.7003C229.14 52.1487 230.256 51.8729 231.509 51.8729C233.013 51.8729 234.292 52.1738 235.345 52.7755C236.423 53.3772 237.238 54.3173 237.789 55.5959C238.366 56.8495 238.654 58.4916 238.654 60.5223V71.1272H234.442V61.5001C234.442 59.9958 234.267 58.8426 233.916 58.0403C233.59 57.213 233.114 56.6364 232.487 56.3104C231.885 55.9845 231.171 55.8216 230.343 55.8216C228.939 55.7965 227.849 56.2603 227.072 57.213C226.294 58.1657 225.906 59.532 225.906 61.312V71.1272H221.694ZM250.567 71.1272V44.803H254.778V71.1272H250.567ZM267.391 71.5785C265.51 71.5785 263.831 71.1648 262.352 70.3375C260.897 69.4851 259.757 68.3193 258.929 66.8401C258.102 65.3609 257.688 63.6561 257.688 61.7257C257.688 59.7953 258.09 58.0905 258.892 56.6113C259.719 55.1321 260.86 53.9789 262.314 53.1515C263.768 52.2991 265.435 51.8729 267.316 51.8729C269.196 51.8729 270.863 52.2991 272.317 53.1515C273.771 53.9789 274.899 55.1321 275.702 56.6113C276.529 58.0905 276.943 59.7953 276.943 61.7257C276.943 63.6561 276.542 65.3609 275.739 66.8401C274.937 68.3193 273.809 69.4851 272.355 70.3375C270.901 71.1648 269.246 71.5785 267.391 71.5785ZM267.391 67.7051C268.419 67.7051 269.334 67.4543 270.136 66.9529C270.938 66.4265 271.565 65.7245 272.016 64.847C272.468 63.9445 272.693 62.904 272.693 61.7257C272.693 60.5474 272.455 59.5195 271.979 58.642C271.527 57.7395 270.901 57.0375 270.098 56.5361C269.296 56.0096 268.369 55.7464 267.316 55.7464C266.263 55.7464 265.335 55.9971 264.533 56.4985C263.73 56.9999 263.104 57.7019 262.652 58.6044C262.201 59.507 261.976 60.5474 261.976 61.7257C261.976 62.904 262.201 63.9445 262.652 64.847C263.129 65.7245 263.768 66.4265 264.57 66.9529C265.398 67.4543 266.338 67.7051 267.391 67.7051ZM279.88 71.1272V52.3242H283.829L284.017 54.9942C284.618 53.9914 285.396 53.2268 286.348 52.7003C287.326 52.1487 288.442 51.8729 289.695 51.8729C291.199 51.8729 292.478 52.1738 293.531 52.7755C294.609 53.3772 295.424 54.3173 295.975 55.5959C296.552 56.8495 296.84 58.4916 296.84 60.5223V71.1272H292.628V61.5001C292.628 59.9958 292.453 58.8426 292.102 58.0403C291.776 57.213 291.3 56.6364 290.673 56.3104C290.071 55.9845 289.357 55.8216 288.529 55.8216C287.125 55.7965 286.035 56.2603 285.258 57.213C284.48 58.1657 284.092 59.532 284.092 61.312V71.1272H279.88ZM308.48 79.1373C307.151 79.1373 305.947 79.0245 304.869 78.7988C303.816 78.5732 302.926 78.3099 302.199 78.0091C301.472 77.7082 300.908 77.4199 300.507 77.1442L302.124 73.7596C302.475 73.9351 302.939 74.1482 303.516 74.3989C304.117 74.6747 304.819 74.9129 305.621 75.1134C306.424 75.314 307.326 75.4143 308.329 75.4143C309.407 75.4143 310.372 75.1886 311.225 74.7374C312.077 74.3112 312.742 73.6468 313.218 72.7443C313.694 71.8417 313.932 70.6885 313.932 69.2845V67.4042C313.281 68.4572 312.428 69.2845 311.375 69.8862C310.347 70.4628 309.169 70.7511 307.84 70.7511C306.135 70.7511 304.644 70.3625 303.365 69.5854C302.112 68.8082 301.121 67.7301 300.394 66.3512C299.692 64.9473 299.341 63.3302 299.341 61.5001C299.341 59.5446 299.692 57.8523 300.394 56.4233C301.121 54.9942 302.112 53.8786 303.365 53.0763C304.644 52.2741 306.135 51.8729 307.84 51.8729C309.169 51.8729 310.347 52.1738 311.375 52.7755C312.428 53.3772 313.281 54.2421 313.932 55.3703V52.3242H318.144V69.1717C318.144 71.3027 317.743 73.1078 316.941 74.5869C316.139 76.0912 315.01 77.2194 313.556 77.9715C312.102 78.7487 310.41 79.1373 308.48 79.1373ZM309.006 67.1786C309.959 67.1786 310.786 66.9279 311.488 66.4265C312.215 65.925 312.779 65.2481 313.18 64.3957C313.581 63.5183 313.782 62.5154 313.782 61.3873C313.782 60.234 313.581 59.2312 313.18 58.3788C312.779 57.5013 312.215 56.8244 311.488 56.3481C310.761 55.8466 309.921 55.5959 308.968 55.5959C307.966 55.5959 307.076 55.8466 306.298 56.3481C305.546 56.8244 304.945 57.5013 304.493 58.3788C304.067 59.2312 303.854 60.234 303.854 61.3873C303.854 62.5154 304.067 63.5183 304.493 64.3957C304.945 65.2481 305.559 65.925 306.336 66.4265C307.113 66.9279 308.003 67.1786 309.006 67.1786ZM54.9045 107.578C53.1997 107.578 51.708 107.177 50.4294 106.375C49.1759 105.548 48.1856 104.394 47.4585 102.915C46.7565 101.436 46.4056 99.7063 46.4056 97.7257C46.4056 95.7201 46.7565 93.9902 47.4585 92.5361C48.1856 91.0569 49.1759 89.9162 50.4294 89.1139C51.708 88.2866 53.1997 87.8729 54.9045 87.8729C56.2082 87.8729 57.3614 88.1613 58.3643 88.7379C59.3671 89.2894 60.1944 90.0792 60.8462 91.1071V80.803H65.0205V107.127H61.0343L60.8839 104.269C60.2571 105.322 59.4298 106.137 58.4019 106.714C57.399 107.29 56.2332 107.578 54.9045 107.578ZM55.9575 103.743C56.8851 103.743 57.7124 103.504 58.4395 103.028C59.1665 102.527 59.7306 101.85 60.1317 100.997C60.5579 100.12 60.7961 99.1171 60.8462 97.9889V97.4625C60.7961 96.3343 60.5579 95.344 60.1317 94.4916C59.7306 93.6141 59.1665 92.9372 58.4395 92.4609C57.7124 91.9845 56.8726 91.7464 55.9199 91.7464C54.917 91.7464 54.0145 91.9971 53.2122 92.4985C52.435 92.9999 51.8208 93.7019 51.3695 94.6044C50.9433 95.507 50.7302 96.5474 50.7302 97.7257C50.7302 98.904 50.9559 99.9445 51.4072 100.847C51.8584 101.75 52.4727 102.464 53.2498 102.991C54.0521 103.492 54.9546 103.743 55.9575 103.743ZM77.6137 107.578C75.7334 107.578 74.0537 107.165 72.5745 106.337C71.1204 105.485 69.9797 104.319 69.1524 102.84C68.3251 101.361 67.9114 99.6561 67.9114 97.7257C67.9114 95.7953 68.3125 94.0905 69.1148 92.6113C69.9421 91.1321 71.0828 89.9789 72.5369 89.1515C73.991 88.2991 75.6582 87.8729 77.5385 87.8729C79.4188 87.8729 81.086 88.2991 82.5401 89.1515C83.9942 89.9789 85.1224 91.1321 85.9246 92.6113C86.752 94.0905 87.1656 95.7953 87.1656 97.7257C87.1656 99.6561 86.7645 101.361 85.9623 102.84C85.16 104.319 84.0318 105.485 82.5777 106.337C81.1236 107.165 79.469 107.578 77.6137 107.578ZM77.6137 103.705C78.6416 103.705 79.5567 103.454 80.359 102.953C81.1612 102.426 81.788 101.724 82.2393 100.847C82.6905 99.9445 82.9162 98.904 82.9162 97.7257C82.9162 96.5474 82.678 95.5195 82.2017 94.642C81.7504 93.7395 81.1236 93.0375 80.3214 92.5361C79.5191 92.0096 78.5915 91.7464 77.5385 91.7464C76.4856 91.7464 75.5579 91.9971 74.7557 92.4985C73.9534 92.9999 73.3267 93.7019 72.8754 94.6044C72.4241 95.507 72.1985 96.5474 72.1985 97.7257C72.1985 98.904 72.4241 99.9445 72.8754 100.847C73.3517 101.724 73.991 102.426 74.7933 102.953C75.6206 103.454 76.5608 103.705 77.6137 103.705ZM98.9027 107.578C96.9723 107.578 95.2675 107.165 93.7883 106.337C92.3092 105.485 91.1434 104.319 90.291 102.84C89.4636 101.361 89.05 99.6561 89.05 97.7257C89.05 95.7953 89.4636 94.0905 90.291 92.6113C91.1434 91.1321 92.2966 89.9789 93.7507 89.1515C95.2299 88.2991 96.9222 87.8729 98.8275 87.8729C100.683 87.8729 102.362 88.3242 103.867 89.2268C105.371 90.1042 106.487 91.3703 107.214 93.025L103.303 94.5292C102.902 93.7019 102.287 93.0375 101.46 92.5361C100.633 92.0347 99.6925 91.784 98.6395 91.784C97.6116 91.784 96.6965 92.0472 95.8943 92.5737C95.092 93.0751 94.4652 93.7771 94.014 94.6796C93.5627 95.5571 93.3371 96.5725 93.3371 97.7257C93.3371 98.879 93.5627 99.9069 94.014 100.809C94.4903 101.687 95.1296 102.389 95.9319 102.915C96.7592 103.417 97.6868 103.667 98.7147 103.667C99.7677 103.667 100.708 103.404 101.535 102.878C102.362 102.326 102.977 101.587 103.378 100.659L107.289 102.163C106.562 103.868 105.446 105.197 103.942 106.149C102.463 107.102 100.783 107.578 98.9027 107.578ZM116.577 107.578C115.098 107.578 113.82 107.278 112.742 106.676C111.689 106.074 110.874 105.134 110.297 103.855C109.721 102.577 109.432 100.935 109.432 98.9291V88.3242H113.644V97.9513C113.644 99.4305 113.82 100.584 114.171 101.411C114.522 102.238 114.998 102.815 115.6 103.141C116.226 103.467 116.941 103.63 117.743 103.63C119.172 103.655 120.275 103.191 121.053 102.238C121.83 101.286 122.218 99.9194 122.218 98.1394V88.3242H126.393V107.127H122.444L122.256 104.457C121.654 105.46 120.865 106.237 119.887 106.789C118.934 107.315 117.831 107.578 116.577 107.578ZM130.36 107.127V88.3242H134.309L134.497 90.8438C135.074 89.8661 135.813 89.1265 136.716 88.6251C137.618 88.1236 138.646 87.8729 139.799 87.8729C141.304 87.8729 142.582 88.2114 143.635 88.8883C144.688 89.5652 145.453 90.5931 145.929 91.972C146.481 90.6432 147.258 89.6279 148.261 88.9259C149.264 88.2239 150.442 87.8729 151.796 87.8729C153.977 87.8729 155.657 88.5749 156.835 89.9789C158.013 91.3578 158.59 93.4888 158.565 96.3719V107.127H154.39V97.5001C154.39 95.9958 154.228 94.8426 153.902 94.0403C153.576 93.213 153.137 92.6364 152.585 92.3104C152.034 91.9845 151.395 91.8216 150.667 91.8216C149.364 91.7965 148.348 92.2603 147.621 93.213C146.919 94.1657 146.568 95.532 146.568 97.312V107.127H142.357V97.5001C142.357 95.9958 142.194 94.8426 141.868 94.0403C141.567 93.213 141.141 92.6364 140.589 92.3104C140.038 91.9845 139.398 91.8216 138.671 91.8216C137.368 91.7965 136.352 92.2603 135.625 93.213C134.923 94.1657 134.572 95.532 134.572 97.312V107.127H130.36ZM170.535 107.578C168.705 107.578 167.075 107.165 165.646 106.337C164.242 105.485 163.127 104.319 162.299 102.84C161.497 101.361 161.096 99.6561 161.096 97.7257C161.096 95.7953 161.51 94.0905 162.337 92.6113C163.164 91.1321 164.293 89.9789 165.722 89.1515C167.176 88.2991 168.83 87.8729 170.686 87.8729C172.365 87.8729 173.882 88.3117 175.236 89.1891C176.59 90.0416 177.655 91.2825 178.432 92.9121C179.235 94.5417 179.636 96.4847 179.636 98.7411H165.458C165.584 100.321 166.16 101.562 167.188 102.464C168.241 103.367 169.482 103.818 170.911 103.818C172.064 103.818 173.017 103.567 173.769 103.066C174.521 102.539 175.111 101.862 175.537 101.035L179.26 102.614C178.733 103.617 178.056 104.495 177.229 105.247C176.427 105.999 175.461 106.576 174.333 106.977C173.23 107.378 171.964 107.578 170.535 107.578ZM165.722 95.507H175.085C175.01 94.6044 174.747 93.8648 174.296 93.2882C173.844 92.6865 173.293 92.2352 172.641 91.9344C171.989 91.6335 171.3 91.4831 170.573 91.4831C169.871 91.4831 169.156 91.6335 168.429 91.9344C167.727 92.2102 167.126 92.6489 166.624 93.2506C166.123 93.8523 165.822 94.6044 165.722 95.507ZM182.149 107.127V88.3242H186.098L186.286 90.9942C186.887 89.9914 187.665 89.2268 188.617 88.7003C189.595 88.1487 190.711 87.8729 191.964 87.8729C193.469 87.8729 194.747 88.1738 195.8 88.7755C196.878 89.3772 197.693 90.3173 198.244 91.5959C198.821 92.8495 199.109 94.4916 199.109 96.5223V107.127H194.898V97.5001C194.898 95.9958 194.722 94.8426 194.371 94.0403C194.045 93.213 193.569 92.6364 192.942 92.3104C192.34 91.9845 191.626 91.8216 190.798 91.8216C189.395 91.7965 188.304 92.2603 187.527 93.213C186.75 94.1657 186.361 95.532 186.361 97.312V107.127H182.149ZM210.147 107.578C208.166 107.578 206.65 107.09 205.597 106.112C204.569 105.109 204.055 103.68 204.055 101.825V91.9344H200.934V88.3242H204.055V82.4577H208.229V88.3242H213.306V91.9344H208.229V101.035C208.229 101.913 208.43 102.577 208.831 103.028C209.257 103.479 209.871 103.705 210.673 103.705C210.924 103.705 211.2 103.655 211.501 103.555C211.802 103.454 212.14 103.266 212.516 102.991L214.058 106.187C213.406 106.638 212.754 106.977 212.102 107.202C211.451 107.453 210.799 107.578 210.147 107.578Z" fill="#9BE6AA"/>
<path d="M70.1106 128.476C74.319 128.476 77.8754 129.246 80.7798 130.787C83.7435 132.269 86.1441 134.344 87.9815 137.011C89.8783 139.678 91.2416 142.79 92.0714 146.347C92.9605 149.844 93.405 153.608 93.405 157.638C93.405 162.439 92.9012 166.974 91.8936 171.241C90.8859 175.45 89.3448 179.184 87.2703 182.444C85.255 185.645 82.6469 188.194 79.4462 190.09C76.2454 191.928 72.3927 192.847 67.8879 192.847C64.6279 192.847 61.4271 192.372 58.2856 191.424C55.2034 190.416 52.4176 189.053 49.9281 187.334L55.8851 178.443C57.7818 179.688 59.7675 180.636 61.842 181.288C63.9759 181.881 65.9022 182.177 67.6212 182.177C72.2445 182.177 75.8602 180.162 78.4682 176.131C81.1355 172.042 82.3506 165.67 82.1135 157.016L84.603 158.616C83.2397 161.876 81.1355 164.514 78.2904 166.529C75.4452 168.485 72.037 169.463 68.0657 169.463C64.1537 169.463 60.6566 168.544 57.5743 166.707C54.4921 164.81 52.0916 162.291 50.3726 159.15C48.6537 156.008 47.7943 152.452 47.7943 148.48C47.7943 144.568 48.713 141.131 50.5505 138.167C52.3879 135.144 54.9663 132.773 58.2856 131.054C61.6642 129.335 65.6059 128.476 70.1106 128.476ZM70.1106 138.7C68.1546 138.7 66.4061 139.145 64.865 140.034C63.3239 140.923 62.1087 142.138 61.2196 143.679C60.3306 145.22 59.886 146.999 59.886 149.014C59.886 151.029 60.3306 152.837 61.2196 154.437C62.1087 156.038 63.3239 157.283 64.865 158.172C66.4061 159.061 68.1546 159.505 70.1106 159.505C72.0667 159.505 73.8152 159.061 75.3563 158.172C76.8974 157.283 78.1125 156.038 79.0016 154.437C79.95 152.837 80.4242 151.029 80.4242 149.014C80.4242 146.999 79.95 145.22 79.0016 143.679C78.1125 142.138 76.8974 140.923 75.3563 140.034C73.8152 139.145 72.0667 138.7 70.1106 138.7ZM106.001 193.024C104.045 193.024 102.356 192.313 100.934 190.89C99.5702 189.468 98.8886 187.779 98.8886 185.823C98.8886 183.926 99.5702 182.266 100.934 180.844C102.356 179.421 104.045 178.71 106.001 178.71C107.957 178.71 109.617 179.421 110.98 180.844C112.403 182.266 113.114 183.926 113.114 185.823C113.114 187.779 112.403 189.468 110.98 190.89C109.617 192.313 107.957 193.024 106.001 193.024ZM142.423 192.758C137.444 192.758 133.206 192.046 129.709 190.624C126.212 189.142 123.544 187.127 121.707 184.578C119.929 181.97 119.04 178.947 119.04 175.509C119.04 171.775 119.958 168.515 121.796 165.729C123.692 162.884 126.389 160.691 129.887 159.15C127.041 157.786 124.848 155.919 123.307 153.548C121.825 151.118 121.084 148.362 121.084 145.28C121.084 141.96 121.914 139.026 123.574 136.478C125.293 133.929 127.753 131.943 130.953 130.521C134.154 129.098 137.977 128.387 142.423 128.387C146.928 128.387 150.78 129.098 153.981 130.521C157.182 131.943 159.642 133.929 161.361 136.478C163.08 139.026 163.939 141.96 163.939 145.28C163.939 148.362 163.168 151.118 161.627 153.548C160.086 155.919 157.893 157.786 155.048 159.15C158.545 160.691 161.242 162.884 163.139 165.729C165.036 168.515 165.984 171.775 165.984 175.509C165.984 178.947 165.065 181.97 163.228 184.578C161.39 187.127 158.723 189.142 155.226 190.624C151.729 192.046 147.461 192.758 142.423 192.758ZM142.423 182.622C145.683 182.622 148.35 181.822 150.425 180.221C152.499 178.562 153.537 176.457 153.537 173.909C153.537 171.123 152.499 168.87 150.425 167.152C148.35 165.433 145.683 164.573 142.423 164.573C140.289 164.573 138.392 164.958 136.733 165.729C135.132 166.5 133.858 167.596 132.909 169.019C131.961 170.441 131.487 172.071 131.487 173.909C131.487 175.628 131.961 177.139 132.909 178.443C133.858 179.747 135.132 180.784 136.733 181.555C138.392 182.266 140.289 182.622 142.423 182.622ZM142.423 154.882C145.268 154.882 147.58 154.111 149.358 152.57C151.195 151.029 152.114 149.073 152.114 146.702C152.114 144.154 151.195 142.109 149.358 140.567C147.58 138.967 145.268 138.167 142.423 138.167C139.637 138.167 137.355 138.967 135.577 140.567C133.799 142.109 132.909 144.154 132.909 146.702C132.909 149.073 133.799 151.029 135.577 152.57C137.355 154.111 139.637 154.882 142.423 154.882Z" fill="#9BE6AA"/>
<path d="M182.123 200.752C180.507 200.752 179.074 200.638 177.827 200.411C176.579 200.184 175.529 199.887 174.679 199.518C173.828 199.149 173.133 198.781 172.594 198.412L174.806 193.903C175.203 194.13 175.728 194.385 176.38 194.668C177.033 194.98 177.812 195.236 178.72 195.434C179.627 195.661 180.677 195.774 181.868 195.774C183.002 195.774 183.995 195.548 184.846 195.094C185.725 194.668 186.405 193.988 186.887 193.052C187.398 192.144 187.653 190.982 187.653 189.564V187.522C186.944 188.628 186.023 189.507 184.888 190.159C183.754 190.783 182.463 191.095 181.017 191.095C179.06 191.095 177.359 190.67 175.912 189.819C174.494 188.968 173.388 187.777 172.594 186.246C171.8 184.714 171.403 182.899 171.403 180.801C171.403 178.589 171.8 176.674 172.594 175.058C173.388 173.413 174.494 172.151 175.912 171.272C177.359 170.364 179.06 169.91 181.017 169.91C182.463 169.91 183.754 170.251 184.888 170.931C186.023 171.584 186.944 172.52 187.653 173.739V170.421H193.268V189.394C193.268 191.776 192.815 193.818 191.907 195.519C191 197.249 189.709 198.554 188.036 199.433C186.391 200.312 184.42 200.752 182.123 200.752ZM182.634 186.373C183.598 186.373 184.434 186.132 185.143 185.65C185.881 185.14 186.448 184.459 186.845 183.608C187.242 182.729 187.441 181.736 187.441 180.63C187.441 179.496 187.228 178.503 186.802 177.653C186.405 176.802 185.838 176.135 185.101 175.653C184.392 175.171 183.555 174.93 182.591 174.93C181.598 174.93 180.719 175.171 179.954 175.653C179.188 176.135 178.592 176.802 178.167 177.653C177.742 178.503 177.515 179.496 177.486 180.63C177.515 181.736 177.742 182.729 178.167 183.608C178.592 184.459 179.188 185.14 179.954 185.65C180.748 186.132 181.641 186.373 182.634 186.373ZM220.549 192.201C217.656 192.201 215.089 191.549 212.849 190.244C210.608 188.911 208.85 187.096 207.574 184.799C206.298 182.474 205.66 179.808 205.66 176.802C205.66 173.796 206.298 171.144 207.574 168.847C208.85 166.521 210.594 164.706 212.806 163.402C215.047 162.069 217.613 161.403 220.506 161.403C222.548 161.403 224.448 161.771 226.206 162.509C227.965 163.218 229.496 164.224 230.801 165.529C232.133 166.805 233.154 168.28 233.863 169.953L228.461 171.952C227.979 170.903 227.341 169.996 226.547 169.23C225.753 168.436 224.845 167.826 223.824 167.401C222.803 166.947 221.697 166.72 220.506 166.72C218.776 166.72 217.23 167.16 215.869 168.039C214.536 168.89 213.487 170.066 212.721 171.57C211.984 173.073 211.615 174.817 211.615 176.802C211.615 178.787 211.998 180.545 212.764 182.077C213.53 183.58 214.593 184.771 215.954 185.65C217.316 186.501 218.875 186.926 220.634 186.926C221.853 186.926 222.959 186.699 223.952 186.246C224.973 185.764 225.866 185.111 226.632 184.289C227.426 183.466 228.064 182.516 228.546 181.439L233.948 183.395C233.239 185.125 232.219 186.657 230.886 187.99C229.581 189.323 228.05 190.358 226.291 191.095C224.533 191.832 222.619 192.201 220.549 192.201ZM251.02 192.201C248.014 192.201 245.348 191.549 243.023 190.244C240.726 188.911 238.925 187.096 237.62 184.799C236.316 182.474 235.664 179.822 235.664 176.844C235.664 173.81 236.316 171.144 237.62 168.847C238.925 166.521 240.712 164.706 242.98 163.402C245.278 162.097 247.915 161.445 250.893 161.445C253.899 161.445 256.536 162.112 258.805 163.444C261.102 164.749 262.903 166.564 264.208 168.89C265.512 171.187 266.164 173.838 266.164 176.844C266.164 179.822 265.512 182.474 264.208 184.799C262.931 187.096 261.145 188.911 258.848 190.244C256.579 191.549 253.97 192.201 251.02 192.201ZM251.02 186.884C252.835 186.884 254.424 186.458 255.785 185.608C257.174 184.728 258.252 183.537 259.018 182.034C259.812 180.531 260.209 178.801 260.209 176.844C260.209 174.859 259.812 173.115 259.018 171.612C258.224 170.109 257.132 168.932 255.742 168.081C254.353 167.202 252.736 166.763 250.893 166.763C249.106 166.763 247.504 167.202 246.086 168.081C244.696 168.932 243.604 170.109 242.81 171.612C242.016 173.115 241.619 174.859 241.619 176.844C241.619 178.801 242.016 180.531 242.81 182.034C243.604 183.537 244.71 184.728 246.128 185.608C247.546 186.458 249.177 186.884 251.02 186.884ZM272.368 193.562L268.241 192.924C268.241 192.471 268.411 191.946 268.752 191.35C269.092 190.726 269.56 190.103 270.156 189.479C270.779 188.855 271.474 188.273 272.24 187.735L274.409 186.246C274.92 185.905 275.416 185.494 275.898 185.012C276.38 184.53 276.622 184.034 276.622 183.523C276.622 182.956 276.423 182.502 276.026 182.162C275.629 181.793 275.033 181.609 274.239 181.609C273.644 181.609 273.133 181.807 272.708 182.204C272.311 182.573 272.041 183.013 271.9 183.523L267.561 182.8C267.731 181.892 268.099 181.07 268.667 180.333C269.262 179.567 270.028 178.943 270.964 178.461C271.928 177.979 273.02 177.738 274.239 177.738C276.31 177.738 277.94 178.277 279.131 179.354C280.322 180.404 280.918 181.779 280.918 183.481C280.918 184.7 280.578 185.735 279.897 186.586C279.245 187.437 278.38 188.231 277.302 188.968L275.133 190.457C274.736 190.741 274.339 191.081 273.942 191.478C273.545 191.847 273.19 192.215 272.878 192.584C272.594 192.981 272.424 193.307 272.368 193.562ZM268.241 195.945V192.924L271.347 192.244H281.131V195.945H268.241ZM293.676 192.201C291.577 192.201 289.719 191.733 288.103 190.797C286.486 189.833 285.21 188.514 284.274 186.841C283.367 185.168 282.913 183.24 282.913 181.056C282.913 178.872 283.381 176.944 284.317 175.27C285.281 173.597 286.586 172.293 288.23 171.357C289.904 170.393 291.818 169.91 293.973 169.91C295.845 169.91 297.561 170.407 299.121 171.399C300.709 172.364 301.971 173.796 302.907 175.696C303.871 177.568 304.353 179.851 304.353 182.545H288.784C288.925 183.963 289.535 185.097 290.613 185.948C291.69 186.77 292.91 187.181 294.271 187.181C295.434 187.181 296.384 186.94 297.121 186.458C297.859 185.948 298.426 185.296 298.823 184.502L303.842 186.458C303.247 187.649 302.467 188.685 301.503 189.564C300.567 190.414 299.447 191.067 298.142 191.521C296.838 191.974 295.349 192.201 293.676 192.201ZM289.081 178.376H298.27C298.185 177.497 297.901 176.788 297.419 176.249C296.937 175.71 296.37 175.313 295.717 175.058C295.065 174.803 294.427 174.675 293.803 174.675C293.208 174.675 292.555 174.803 291.846 175.058C291.166 175.285 290.556 175.667 290.017 176.206C289.507 176.745 289.195 177.468 289.081 178.376Z" fill="#9BE6AA"/>
<path d="M55.8447 240.706C54.0145 240.706 52.3849 240.292 50.9559 239.465C49.5519 238.612 48.4363 237.446 47.6089 235.967C46.8067 234.488 46.4056 232.783 46.4056 230.853C46.4056 228.922 46.8192 227.218 47.6466 225.738C48.4739 224.259 49.6021 223.106 51.0311 222.279C52.4852 221.426 54.1399 221 55.9951 221C57.6748 221 59.1916 221.439 60.5454 222.316C61.8992 223.169 62.9647 224.41 63.7419 226.039C64.5442 227.669 64.9453 229.612 64.9453 231.868H50.7678C50.8932 233.448 51.4698 234.689 52.4977 235.591C53.5507 236.494 54.7917 236.945 56.2207 236.945C57.374 236.945 58.3266 236.694 59.0788 236.193C59.8309 235.666 60.42 234.99 60.8462 234.162L64.5692 235.742C64.0428 236.745 63.3658 237.622 62.5385 238.374C61.7363 239.126 60.771 239.703 59.6429 240.104C58.5397 240.505 57.2737 240.706 55.8447 240.706ZM51.0311 228.634H60.395C60.3198 227.732 60.0565 226.992 59.6053 226.415C59.154 225.814 58.6024 225.362 57.9506 225.062C57.2988 224.761 56.6093 224.61 55.8823 224.61C55.1803 224.61 54.4658 224.761 53.7387 225.062C53.0367 225.337 52.435 225.776 51.9336 226.378C51.4322 226.979 51.1314 227.732 51.0311 228.634ZM53.0994 219.007L57.4617 213.93H62.3505L57.4993 219.007H53.0994ZM80.9198 247.776V237.472C80.2931 238.474 79.4657 239.264 78.4378 239.841C77.435 240.417 76.2818 240.706 74.9781 240.706C73.2733 240.706 71.7816 240.305 70.503 239.502C69.2494 238.675 68.2591 237.522 67.5321 236.043C66.8301 234.563 66.4791 232.833 66.4791 230.853C66.4791 228.847 66.8301 227.117 67.5321 225.663C68.2591 224.184 69.2494 223.043 70.503 222.241C71.7816 221.414 73.2733 221 74.9781 221C76.3068 221 77.4726 221.301 78.4754 221.903C79.5033 222.479 80.3432 223.294 80.995 224.347L81.1455 221.451H85.1317V247.776H80.9198ZM76.031 236.87C76.9837 236.87 77.8236 236.619 78.5506 236.118C79.3028 235.591 79.8794 234.877 80.2805 233.974C80.7067 233.072 80.9198 232.031 80.9198 230.853C80.9198 229.675 80.7067 228.634 80.2805 227.732C79.8794 226.829 79.3028 226.127 78.5506 225.626C77.8236 225.124 76.9712 224.874 75.9934 224.874C74.9906 224.874 74.1006 225.124 73.3234 225.626C72.5462 226.127 71.932 226.829 71.4807 227.732C71.0545 228.634 70.8289 229.675 70.8038 230.853C70.8289 232.031 71.0545 233.072 71.4807 233.974C71.932 234.877 72.5462 235.591 73.3234 236.118C74.1257 236.619 75.0282 236.87 76.031 236.87ZM95.5858 240.706C94.1066 240.706 92.828 240.405 91.75 239.803C90.697 239.201 89.8822 238.261 89.3056 236.983C88.729 235.704 88.4406 234.062 88.4406 232.056V221.451H92.6525V231.079C92.6525 232.558 92.828 233.711 93.179 234.538C93.53 235.366 94.0063 235.942 94.608 236.268C95.2348 236.594 95.9493 236.757 96.7516 236.757C98.1806 236.782 99.2837 236.318 100.061 235.366C100.838 234.413 101.227 233.047 101.227 231.267V221.451H105.401V240.254H101.452L101.264 237.584C100.663 238.587 99.8729 239.364 98.8951 239.916C97.9424 240.442 96.8393 240.706 95.5858 240.706ZM109.632 240.254V221.451H113.806V240.254H109.632ZM111.738 217.879C111.061 217.879 110.472 217.641 109.97 217.164C109.494 216.663 109.256 216.074 109.256 215.397C109.256 214.72 109.494 214.143 109.97 213.667C110.472 213.191 111.061 212.952 111.738 212.952C112.415 212.952 112.991 213.191 113.468 213.667C113.969 214.143 114.22 214.72 114.22 215.397C114.22 216.074 113.969 216.663 113.468 217.164C112.991 217.641 112.415 217.879 111.738 217.879ZM123.811 240.254L116.027 221.451H120.352L125.917 235.441L131.445 221.451H135.808L128.061 240.254H123.811ZM143.268 240.706C141.011 240.706 139.256 240.204 138.003 239.201C136.774 238.199 136.16 236.782 136.16 234.952C136.16 232.996 136.812 231.505 138.116 230.477C139.444 229.449 141.287 228.935 143.644 228.935H148.42C148.269 227.556 147.881 226.503 147.254 225.776C146.627 225.049 145.699 224.686 144.471 224.686C143.568 224.686 142.779 224.874 142.102 225.25C141.425 225.626 140.848 226.215 140.372 227.017L136.687 225.663C137.088 224.836 137.614 224.071 138.266 223.369C138.943 222.642 139.783 222.066 140.786 221.639C141.813 221.213 143.042 221 144.471 221C146.301 221 147.83 221.364 149.059 222.091C150.287 222.793 151.19 223.808 151.767 225.137C152.368 226.466 152.669 228.07 152.669 229.95L152.556 240.254H148.683L148.57 237.96C148.069 238.838 147.367 239.515 146.464 239.991C145.587 240.467 144.521 240.706 143.268 240.706ZM143.794 237.171C144.722 237.171 145.536 236.97 146.238 236.569C146.965 236.143 147.517 235.579 147.893 234.877C148.294 234.175 148.495 233.398 148.495 232.545V232.169H144.997C143.318 232.169 142.139 232.407 141.462 232.884C140.786 233.335 140.447 233.987 140.447 234.839C140.447 235.566 140.735 236.143 141.312 236.569C141.914 236.97 142.741 237.171 143.794 237.171ZM162.953 240.706C161.474 240.706 160.195 240.405 159.117 239.803C158.064 239.201 157.249 238.261 156.673 236.983C156.096 235.704 155.808 234.062 155.808 232.056V221.451H160.02V231.079C160.02 232.558 160.195 233.711 160.546 234.538C160.897 235.366 161.374 235.942 161.975 236.268C162.602 236.594 163.317 236.757 164.119 236.757C165.548 236.782 166.651 236.318 167.428 235.366C168.205 234.413 168.594 233.047 168.594 231.267V221.451H172.768V240.254H168.82L168.632 237.584C168.03 238.587 167.24 239.364 166.262 239.916C165.31 240.442 164.207 240.706 162.953 240.706ZM184.219 240.706C182.239 240.706 180.722 240.217 179.669 239.239C178.641 238.236 178.127 236.807 178.127 234.952V225.062H175.006V221.451H178.127V215.585H182.302V221.451H187.378V225.062H182.302V234.162C182.302 235.04 182.502 235.704 182.903 236.155C183.329 236.607 183.944 236.832 184.746 236.832C184.997 236.832 185.272 236.782 185.573 236.682C185.874 236.582 186.213 236.394 186.589 236.118L188.13 239.314C187.479 239.766 186.827 240.104 186.175 240.33C185.523 240.58 184.871 240.706 184.219 240.706ZM205.2 240.706C202.943 240.706 201.188 240.204 199.935 239.201C198.706 238.199 198.092 236.782 198.092 234.952C198.092 232.996 198.744 231.505 200.048 230.477C201.376 229.449 203.219 228.935 205.576 228.935H210.352C210.201 227.556 209.813 226.503 209.186 225.776C208.559 225.049 207.631 224.686 206.403 224.686C205.5 224.686 204.711 224.874 204.034 225.25C203.357 225.626 202.78 226.215 202.304 227.017L198.619 225.663C199.02 224.836 199.546 224.071 200.198 223.369C200.875 222.642 201.715 222.066 202.718 221.639C203.745 221.213 204.974 221 206.403 221C208.233 221 209.762 221.364 210.991 222.091C212.219 222.793 213.122 223.808 213.699 225.137C214.3 226.466 214.601 228.07 214.601 229.95L214.488 240.254H210.615L210.502 237.96C210.001 238.838 209.299 239.515 208.396 239.991C207.519 240.467 206.453 240.706 205.2 240.706ZM205.726 237.171C206.654 237.171 207.468 236.97 208.17 236.569C208.897 236.143 209.449 235.579 209.825 234.877C210.226 234.175 210.427 233.398 210.427 232.545V232.169H206.929C205.25 232.169 204.071 232.407 203.394 232.884C202.718 233.335 202.379 233.987 202.379 234.839C202.379 235.566 202.667 236.143 203.244 236.569C203.846 236.97 204.673 237.171 205.726 237.171ZM205.914 219.007L201.025 213.893H205.914L210.314 219.007H205.914Z" fill="#9BE6AA"/>
<path d="M51.1504 268.815V268.216C51.1504 266.894 52.2223 265.822 53.5445 265.822H69.1064C70.4287 265.822 71.5006 266.894 71.5006 268.216V280.187C71.5006 281.509 70.4287 282.581 69.1064 282.581H53.5445C52.2223 282.581 51.1504 281.509 51.1504 280.187V268.815Z" fill="#9BE6AA" stroke="#9BE6AA" stroke-width="2.11783" stroke-linecap="round"/>
<path d="M53.9062 268.688L60.9297 273.37L67.9531 268.688" stroke="black" stroke-width="1.55603" stroke-linecap="round" stroke-linejoin="round"/>
<path d="M82.1895 268.992V268.415C82.1895 267.139 83.2237 266.104 84.4996 266.104H99.5155C100.791 266.104 101.826 267.139 101.826 268.415V279.965C101.826 281.241 100.791 282.276 99.5155 282.276H84.4996C83.2237 282.276 82.1895 281.241 82.1895 279.965V268.992Z" fill="#9BE6AA" stroke="#9BE6AA" stroke-width="2.04353" stroke-linecap="round"/>
<path d="M84.8477 268.87L91.6247 273.388L98.4017 268.87" stroke="black" stroke-width="1.50144" stroke-linecap="round" stroke-linejoin="round"/>
<path d="M112.342 268.992V268.415C112.342 267.139 113.376 266.104 114.652 266.104H129.668C130.944 266.104 131.978 267.139 131.978 268.415V279.965C131.978 281.241 130.944 282.276 129.668 282.276H114.652C113.376 282.276 112.342 281.241 112.342 279.965V268.992Z" fill="#9BE6AA" stroke="#9BE6AA" stroke-width="2.04353" stroke-linecap="round"/>
<path d="M115 268.87L121.777 273.388L128.554 268.87" stroke="black" stroke-width="1.50144" stroke-linecap="round" stroke-linejoin="round"/>
<path d="M142.496 268.992V268.415C142.496 267.139 143.53 266.104 144.806 266.104H159.822C161.098 266.104 162.132 267.139 162.132 268.415V279.965C162.132 281.241 161.098 282.276 159.822 282.276H144.806C143.53 282.276 142.496 281.241 142.496 279.965V268.992Z" fill="#9BE6AA" stroke="#9BE6AA" stroke-width="2.04353" stroke-linecap="round"/>
<path d="M145.154 268.87L151.931 273.388L158.708 268.87" stroke="black" stroke-width="1.50144" stroke-linecap="round" stroke-linejoin="round"/>
<path d="M172.648 268.992V268.415C172.648 267.139 173.683 266.104 174.959 266.104H189.975C191.25 266.104 192.285 267.139 192.285 268.415V279.965C192.285 281.241 191.25 282.276 189.975 282.276H174.959C173.683 282.276 172.648 281.241 172.648 279.965V268.992Z" fill="#9BE6AA" stroke="#9BE6AA" stroke-width="2.04353" stroke-linecap="round"/>
<path d="M175.307 268.87L182.084 273.388L188.861 268.87" stroke="black" stroke-width="1.50144" stroke-linecap="round" stroke-linejoin="round"/>
<path d="M202.803 268.992V268.415C202.803 267.139 203.837 266.104 205.113 266.104H220.129C221.405 266.104 222.439 267.139 222.439 268.415V279.965C222.439 281.241 221.405 282.276 220.129 282.276H205.113C203.837 282.276 202.803 281.241 202.803 279.965V268.992Z" fill="#9BE6AA" stroke="#9BE6AA" stroke-width="2.04353" stroke-linecap="round"/>
<path d="M205.461 268.87L212.238 273.388L219.015 268.87" stroke="black" stroke-width="1.50144" stroke-linecap="round" stroke-linejoin="round"/>
<path d="M232.957 268.992V268.415C232.957 267.139 233.991 266.104 235.267 266.104H250.283C251.559 266.104 252.593 267.139 252.593 268.415V279.965C252.593 281.241 251.559 282.276 250.283 282.276H235.267C233.991 282.276 232.957 281.241 232.957 279.965V268.992Z" fill="#9BE6AA" stroke="#9BE6AA" stroke-width="2.04353" stroke-linecap="round"/>
<path d="M235.615 268.87L242.392 273.388L249.169 268.87" stroke="black" stroke-width="1.50144" stroke-linecap="round" stroke-linejoin="round"/>
<path d="M263.109 268.992V268.415C263.109 267.139 264.144 266.104 265.42 266.104H280.435C281.711 266.104 282.746 267.139 282.746 268.415V279.965C282.746 281.241 281.711 282.276 280.435 282.276H265.42C264.144 282.276 263.109 281.241 263.109 279.965V268.992Z" fill="#9BE6AA" stroke="#9BE6AA" stroke-width="2.04353" stroke-linecap="round"/>
<path d="M265.768 268.87L272.545 273.388L279.322 268.87" stroke="black" stroke-width="1.50144" stroke-linecap="round" stroke-linejoin="round"/>
<path d="M293.264 268.992V268.415C293.264 267.139 294.298 266.104 295.574 266.104H310.59C311.866 266.104 312.9 267.139 312.9 268.415V279.965C312.9 281.241 311.866 282.276 310.59 282.276H295.574C294.298 282.276 293.264 281.241 293.264 279.965V268.992Z" fill="#9BE6AA" stroke="#9BE6AA" stroke-width="2.04353" stroke-linecap="round"/>
<path d="M295.922 268.87L302.699 273.388L309.476 268.87" stroke="black" stroke-width="1.50144" stroke-linecap="round" stroke-linejoin="round"/>
<path d="M323.416 268.992V268.415C323.416 267.139 324.45 266.104 325.726 266.104H340.742C342.018 266.104 343.052 267.139 343.052 268.415V279.965C343.052 281.241 342.018 282.276 340.742 282.276H325.726C324.45 282.276 323.416 281.241 323.416 279.965V268.992Z" fill="#9BE6AA" stroke="#9BE6AA" stroke-width="2.04353" stroke-linecap="round"/>
<path d="M326.074 268.87L332.851 273.388L339.628 268.87" stroke="black" stroke-width="1.50144" stroke-linecap="round" stroke-linejoin="round"/>
<path d="M51.1504 294.255V293.657C51.1504 292.334 52.2223 291.262 53.5445 291.262H69.1064C70.4287 291.262 71.5006 292.334 71.5006 293.657V305.627C71.5006 306.95 70.4287 308.021 69.1064 308.021H53.5445C52.2223 308.021 51.1504 306.95 51.1504 305.627V294.255Z" fill="#9BE6AA" stroke="#9BE6AA" stroke-width="2.11783" stroke-linecap="round"/>
<path d="M53.9062 294.128L60.9297 298.81L67.9531 294.128" stroke="black" stroke-width="1.55603" stroke-linecap="round" stroke-linejoin="round"/>
<path d="M82.1895 294.433V293.855C82.1895 292.579 83.2237 291.545 84.4996 291.545H99.5155C100.791 291.545 101.826 292.579 101.826 293.855V305.406C101.826 306.682 100.791 307.716 99.5155 307.716H84.4996C83.2237 307.716 82.1895 306.682 82.1895 305.406V294.433Z" fill="#9BE6AA" stroke="#9BE6AA" stroke-width="2.04353" stroke-linecap="round"/>
<path d="M84.8477 294.31L91.6247 298.828L98.4017 294.31" stroke="black" stroke-width="1.50144" stroke-linecap="round" stroke-linejoin="round"/>
<path d="M112.342 294.433V293.855C112.342 292.579 113.376 291.545 114.652 291.545H129.668C130.944 291.545 131.978 292.579 131.978 293.855V305.406C131.978 306.682 130.944 307.716 129.668 307.716H114.652C113.376 307.716 112.342 306.682 112.342 305.406V294.433Z" fill="#9BE6AA" stroke="#9BE6AA" stroke-width="2.04353" stroke-linecap="round"/>
<path d="M115 294.31L121.777 298.828L128.554 294.31" stroke="black" stroke-width="1.50144" stroke-linecap="round" stroke-linejoin="round"/>
<path d="M142.496 294.433V293.855C142.496 292.579 143.53 291.545 144.806 291.545H159.822C161.098 291.545 162.132 292.579 162.132 293.855V305.406C162.132 306.682 161.098 307.716 159.822 307.716H144.806C143.53 307.716 142.496 306.682 142.496 305.406V294.433Z" fill="#9BE6AA" stroke="#9BE6AA" stroke-width="2.04353" stroke-linecap="round"/>
<path d="M145.154 294.31L151.931 298.828L158.708 294.31" stroke="black" stroke-width="1.50144" stroke-linecap="round" stroke-linejoin="round"/>
<path d="M172.648 294.433V293.855C172.648 292.579 173.683 291.545 174.959 291.545H189.975C191.25 291.545 192.285 292.579 192.285 293.855V305.406C192.285 306.682 191.25 307.716 189.975 307.716H174.959C173.683 307.716 172.648 306.682 172.648 305.406V294.433Z" fill="#9BE6AA" stroke="#9BE6AA" stroke-width="2.04353" stroke-linecap="round"/>
<path d="M175.307 294.31L182.084 298.828L188.861 294.31" stroke="black" stroke-width="1.50144" stroke-linecap="round" stroke-linejoin="round"/>
<path d="M202.803 294.433V293.855C202.803 292.579 203.837 291.545 205.113 291.545H220.129C221.405 291.545 222.439 292.579 222.439 293.855V305.406C222.439 306.682 221.405 307.716 220.129 307.716H205.113C203.837 307.716 202.803 306.682 202.803 305.406V294.433Z" fill="#9BE6AA" stroke="#9BE6AA" stroke-width="2.04353" stroke-linecap="round"/>
<path d="M205.461 294.31L212.238 298.828L219.015 294.31" stroke="black" stroke-width="1.50144" stroke-linecap="round" stroke-linejoin="round"/>
<path d="M232.957 294.433V293.855C232.957 292.579 233.991 291.545 235.267 291.545H250.283C251.559 291.545 252.593 292.579 252.593 293.855V305.406C252.593 306.682 251.559 307.716 250.283 307.716H235.267C233.991 307.716 232.957 306.682 232.957 305.406V294.433Z" fill="#9BE6AA" stroke="#9BE6AA" stroke-width="2.04353" stroke-linecap="round"/>
<path d="M235.615 294.31L242.392 298.828L249.169 294.31" stroke="black" stroke-width="1.50144" stroke-linecap="round" stroke-linejoin="round"/>
<path d="M263.109 294.433V293.855C263.109 292.579 264.144 291.545 265.42 291.545H280.435C281.711 291.545 282.746 292.579 282.746 293.855V305.406C282.746 306.682 281.711 307.716 280.435 307.716H265.42C264.144 307.716 263.109 306.682 263.109 305.406V294.433Z" fill="#9BE6AA" stroke="#9BE6AA" stroke-width="2.04353" stroke-linecap="round"/>
<path d="M265.768 294.31L272.545 298.828L279.322 294.31" stroke="black" stroke-width="1.50144" stroke-linecap="round" stroke-linejoin="round"/>
<path d="M293.264 294.433V293.855C293.264 292.579 294.298 291.545 295.574 291.545H310.59C311.866 291.545 312.9 292.579 312.9 293.855V305.406C312.9 306.682 311.866 307.716 310.59 307.716H295.574C294.298 307.716 293.264 306.682 293.264 305.406V294.433Z" fill="#9BE6AA" stroke="#9BE6AA" stroke-width="2.04353" stroke-linecap="round"/>
<path d="M295.922 294.31L302.699 298.828L309.476 294.31" stroke="black" stroke-width="1.50144" stroke-linecap="round" stroke-linejoin="round"/>
<path d="M323.416 294.433V293.855C323.416 292.579 324.45 291.545 325.726 291.545H340.742C342.018 291.545 343.052 292.579 343.052 293.855V305.406C343.052 306.682 342.018 307.716 340.742 307.716H325.726C324.45 307.716 323.416 306.682 323.416 305.406V294.433Z" fill="#9BE6AA" stroke="#9BE6AA" stroke-width="2.04353" stroke-linecap="round"/>
<path d="M326.074 294.31L332.851 298.828L339.628 294.31" stroke="black" stroke-width="1.50144" stroke-linecap="round" stroke-linejoin="round"/>
<path d="M51.1504 319.696V319.097C51.1504 317.775 52.2223 316.703 53.5445 316.703H69.1064C70.4287 316.703 71.5006 317.775 71.5006 319.097V331.068C71.5006 332.39 70.4287 333.462 69.1064 333.462H53.5445C52.2223 333.462 51.1504 332.39 51.1504 331.068V319.696Z" fill="#9BE6AA" stroke="#9BE6AA" stroke-width="2.11783" stroke-linecap="round"/>
<path d="M53.9062 319.569L60.9297 324.251L67.9531 319.569" stroke="black" stroke-width="1.55603" stroke-linecap="round" stroke-linejoin="round"/>
<path d="M82.1895 319.873V319.295C82.1895 318.02 83.2237 316.985 84.4996 316.985H99.5155C100.791 316.985 101.826 318.02 101.826 319.295V330.846C101.826 332.122 100.791 333.156 99.5155 333.156H84.4996C83.2237 333.156 82.1895 332.122 82.1895 330.846V319.873Z" fill="#9BE6AA" stroke="#9BE6AA" stroke-width="2.04353" stroke-linecap="round"/>
<path d="M84.8477 319.75L91.6247 324.269L98.4017 319.75" stroke="black" stroke-width="1.50144" stroke-linecap="round" stroke-linejoin="round"/>
<path d="M112.342 319.873V319.295C112.342 318.02 113.376 316.985 114.652 316.985H129.668C130.944 316.985 131.978 318.02 131.978 319.295V330.846C131.978 332.122 130.944 333.156 129.668 333.156H114.652C113.376 333.156 112.342 332.122 112.342 330.846V319.873Z" fill="#9BE6AA" stroke="#9BE6AA" stroke-width="2.04353" stroke-linecap="round"/>
<path d="M115 319.75L121.777 324.269L128.554 319.75" stroke="black" stroke-width="1.50144" stroke-linecap="round" stroke-linejoin="round"/>
<path d="M142.496 319.873V319.295C142.496 318.02 143.53 316.985 144.806 316.985H159.822C161.098 316.985 162.132 318.02 162.132 319.295V330.846C162.132 332.122 161.098 333.156 159.822 333.156H144.806C143.53 333.156 142.496 332.122 142.496 330.846V319.873Z" fill="#9BE6AA" stroke="#9BE6AA" stroke-width="2.04353" stroke-linecap="round"/>
<path d="M145.154 319.75L151.931 324.269L158.708 319.75" stroke="black" stroke-width="1.50144" stroke-linecap="round" stroke-linejoin="round"/>
<path d="M172.648 319.873V319.295C172.648 318.02 173.683 316.985 174.959 316.985H189.975C191.25 316.985 192.285 318.02 192.285 319.295V330.846C192.285 332.122 191.25 333.156 189.975 333.156H174.959C173.683 333.156 172.648 332.122 172.648 330.846V319.873Z" fill="#9BE6AA" stroke="#9BE6AA" stroke-width="2.04353" stroke-linecap="round"/>
<path d="M175.307 319.75L182.084 324.269L188.861 319.75" stroke="black" stroke-width="1.50144" stroke-linecap="round" stroke-linejoin="round"/>
<path d="M202.803 319.873V319.295C202.803 318.02 203.837 316.985 205.113 316.985H220.129C221.405 316.985 222.439 318.02 222.439 319.295V330.846C222.439 332.122 221.405 333.156 220.129 333.156H205.113C203.837 333.156 202.803 332.122 202.803 330.846V319.873Z" fill="#9BE6AA" stroke="#9BE6AA" stroke-width="2.04353" stroke-linecap="round"/>
<path d="M205.461 319.75L212.238 324.269L219.015 319.75" stroke="black" stroke-width="1.50144" stroke-linecap="round" stroke-linejoin="round"/>
<path d="M232.957 319.873V319.295C232.957 318.02 233.991 316.985 235.267 316.985H250.283C251.559 316.985 252.593 318.02 252.593 319.295V330.846C252.593 332.122 251.559 333.156 250.283 333.156H235.267C233.991 333.156 232.957 332.122 232.957 330.846V319.873Z" fill="#9BE6AA" stroke="#9BE6AA" stroke-width="2.04353" stroke-linecap="round"/>
<path d="M235.615 319.75L242.392 324.269L249.169 319.75" stroke="black" stroke-width="1.50144" stroke-linecap="round" stroke-linejoin="round"/>
<path d="M263.109 319.873V319.295C263.109 318.02 264.144 316.985 265.42 316.985H280.435C281.711 316.985 282.746 318.02 282.746 319.295V330.846C282.746 332.122 281.711 333.156 280.435 333.156H265.42C264.144 333.156 263.109 332.122 263.109 330.846V319.873Z" fill="#9BE6AA" stroke="#9BE6AA" stroke-width="2.04353" stroke-linecap="round"/>
<path d="M265.768 319.75L272.545 324.269L279.322 319.75" stroke="black" stroke-width="1.50144" stroke-linecap="round" stroke-linejoin="round"/>
<path d="M293.264 319.873V319.295C293.264 318.02 294.298 316.985 295.574 316.985H310.59C311.866 316.985 312.9 318.02 312.9 319.295V330.846C312.9 332.122 311.866 333.156 310.59 333.156H295.574C294.298 333.156 293.264 332.122 293.264 330.846V319.873Z" fill="#9BE6AA" stroke="#9BE6AA" stroke-width="2.04353" stroke-linecap="round"/>
<path d="M295.922 319.75L302.699 324.269L309.476 319.75" stroke="black" stroke-width="1.50144" stroke-linecap="round" stroke-linejoin="round"/>
<path d="M323.416 319.873V319.295C323.416 318.02 324.45 316.985 325.726 316.985H340.742C342.018 316.985 343.052 318.02 343.052 319.295V330.846C343.052 332.122 342.018 333.156 340.742 333.156H325.726C324.45 333.156 323.416 332.122 323.416 330.846V319.873Z" fill="#9BE6AA" stroke="#9BE6AA" stroke-width="2.04353" stroke-linecap="round"/>
<path d="M326.074 319.75L332.851 324.269L339.628 319.75" stroke="black" stroke-width="1.50144" stroke-linecap="round" stroke-linejoin="round"/>
<path d="M51.1504 345.136V344.537C51.1504 343.215 52.2223 342.143 53.5445 342.143H69.1064C70.4287 342.143 71.5006 343.215 71.5006 344.537V356.508C71.5006 357.83 70.4287 358.902 69.1064 358.902H53.5445C52.2223 358.902 51.1504 357.83 51.1504 356.508V345.136Z" fill="#9BE6AA" stroke="#9BE6AA" stroke-width="2.11783" stroke-linecap="round"/>
<path d="M53.9062 345.009L60.9297 349.691L67.9531 345.009" stroke="black" stroke-width="1.55603" stroke-linecap="round" stroke-linejoin="round"/>
<path d="M82.1895 345.313V344.736C82.1895 343.46 83.2237 342.426 84.4996 342.426H99.5155C100.791 342.426 101.826 343.46 101.826 344.736V356.287C101.826 357.563 100.791 358.597 99.5155 358.597H84.4996C83.2237 358.597 82.1895 357.563 82.1895 356.287V345.313Z" fill="#9BE6AA" stroke="#9BE6AA" stroke-width="2.04353" stroke-linecap="round"/>
<path d="M84.8477 345.191L91.6247 349.709L98.4017 345.191" stroke="black" stroke-width="1.50144" stroke-linecap="round" stroke-linejoin="round"/>
<path d="M112.342 345.313V344.736C112.342 343.46 113.376 342.426 114.652 342.426H129.668C130.944 342.426 131.978 343.46 131.978 344.736V356.287C131.978 357.563 130.944 358.597 129.668 358.597H114.652C113.376 358.597 112.342 357.563 112.342 356.287V345.313Z" fill="#9BE6AA" stroke="#9BE6AA" stroke-width="2.04353" stroke-linecap="round"/>
<path d="M115 345.191L121.777 349.709L128.554 345.191" stroke="black" stroke-width="1.50144" stroke-linecap="round" stroke-linejoin="round"/>
<path d="M142.496 345.313V344.736C142.496 343.46 143.53 342.426 144.806 342.426H159.822C161.098 342.426 162.132 343.46 162.132 344.736V356.287C162.132 357.563 161.098 358.597 159.822 358.597H144.806C143.53 358.597 142.496 357.563 142.496 356.287V345.313Z" fill="#9BE6AA" stroke="#9BE6AA" stroke-width="2.04353" stroke-linecap="round"/>
<path d="M145.154 345.191L151.931 349.709L158.708 345.191" stroke="black" stroke-width="1.50144" stroke-linecap="round" stroke-linejoin="round"/>
<path d="M172.648 345.313V344.736C172.648 343.46 173.683 342.426 174.959 342.426H189.975C191.25 342.426 192.285 343.46 192.285 344.736V356.287C192.285 357.563 191.25 358.597 189.975 358.597H174.959C173.683 358.597 172.648 357.563 172.648 356.287V345.313Z" fill="#9BE6AA" stroke="#9BE6AA" stroke-width="2.04353" stroke-linecap="round"/>
<path d="M175.307 345.191L182.084 349.709L188.861 345.191" stroke="black" stroke-width="1.50144" stroke-linecap="round" stroke-linejoin="round"/>
<path d="M202.803 345.313V344.736C202.803 343.46 203.837 342.426 205.113 342.426H220.129C221.405 342.426 222.439 343.46 222.439 344.736V356.287C222.439 357.563 221.405 358.597 220.129 358.597H205.113C203.837 358.597 202.803 357.563 202.803 356.287V345.313Z" fill="#9BE6AA" stroke="#9BE6AA" stroke-width="2.04353" stroke-linecap="round"/>
<path d="M205.461 345.191L212.238 349.709L219.015 345.191" stroke="black" stroke-width="1.50144" stroke-linecap="round" stroke-linejoin="round"/>
<path d="M232.957 345.313V344.736C232.957 343.46 233.991 342.426 235.267 342.426H250.283C251.559 342.426 252.593 343.46 252.593 344.736V356.287C252.593 357.563 251.559 358.597 250.283 358.597H235.267C233.991 358.597 232.957 357.563 232.957 356.287V345.313Z" fill="#9BE6AA" stroke="#9BE6AA" stroke-width="2.04353" stroke-linecap="round"/>
<path d="M235.615 345.191L242.392 349.709L249.169 345.191" stroke="black" stroke-width="1.50144" stroke-linecap="round" stroke-linejoin="round"/>
<path d="M263.109 345.313V344.736C263.109 343.46 264.144 342.426 265.42 342.426H280.435C281.711 342.426 282.746 343.46 282.746 344.736V356.287C282.746 357.563 281.711 358.597 280.435 358.597H265.42C264.144 358.597 263.109 357.563 263.109 356.287V345.313Z" fill="#9BE6AA" stroke="#9BE6AA" stroke-width="2.04353" stroke-linecap="round"/>
<path d="M265.768 345.191L272.545 349.709L279.322 345.191" stroke="black" stroke-width="1.50144" stroke-linecap="round" stroke-linejoin="round"/>
<path d="M293.264 345.313V344.736C293.264 343.46 294.298 342.426 295.574 342.426H310.59C311.866 342.426 312.9 343.46 312.9 344.736V356.287C312.9 357.563 311.866 358.597 310.59 358.597H295.574C294.298 358.597 293.264 357.563 293.264 356.287V345.313Z" fill="#9BE6AA" stroke="#9BE6AA" stroke-width="2.04353" stroke-linecap="round"/>
<path d="M295.922 345.191L302.699 349.709L309.476 345.191" stroke="black" stroke-width="1.50144" stroke-linecap="round" stroke-linejoin="round"/>
<path d="M323.416 345.313V344.736C323.416 343.46 324.45 342.426 325.726 342.426H340.742C342.018 342.426 343.052 343.46 343.052 344.736V356.287C343.052 357.563 342.018 358.597 340.742 358.597H325.726C324.45 358.597 323.416 357.563 323.416 356.287V345.313Z" fill="#9BE6AA" stroke="#9BE6AA" stroke-width="2.04353" stroke-linecap="round"/>
<path d="M326.074 345.191L332.851 349.709L339.628 345.191" stroke="black" stroke-width="1.50144" stroke-linecap="round" stroke-linejoin="round"/>
<path d="M51.1504 370.577V369.978C51.1504 368.656 52.2223 367.584 53.5445 367.584H69.1064C70.4287 367.584 71.5006 368.656 71.5006 369.978V381.949C71.5006 383.271 70.4287 384.343 69.1064 384.343H53.5445C52.2223 384.343 51.1504 383.271 51.1504 381.949V370.577Z" fill="#9BE6AA" stroke="#9BE6AA" stroke-width="2.11783" stroke-linecap="round"/>
<path d="M53.9062 370.45L60.9297 375.132L67.9531 370.45" stroke="black" stroke-width="1.55603" stroke-linecap="round" stroke-linejoin="round"/>
<path d="M82.1895 370.754V370.177C82.1895 368.901 83.2237 367.866 84.4996 367.866H99.5155C100.791 367.866 101.826 368.901 101.826 370.177V381.727C101.826 383.003 100.791 384.037 99.5155 384.037H84.4996C83.2237 384.037 82.1895 383.003 82.1895 381.727V370.754Z" fill="#9BE6AA" stroke="#9BE6AA" stroke-width="2.04353" stroke-linecap="round"/>
<path d="M84.8477 370.632L91.6247 375.15L98.4017 370.632" stroke="black" stroke-width="1.50144" stroke-linecap="round" stroke-linejoin="round"/>
<path d="M112.342 370.754V370.177C112.342 368.901 113.376 367.866 114.652 367.866H129.668C130.944 367.866 131.978 368.901 131.978 370.177V381.727C131.978 383.003 130.944 384.037 129.668 384.037H114.652C113.376 384.037 112.342 383.003 112.342 381.727V370.754Z" fill="#9BE6AA" stroke="#9BE6AA" stroke-width="2.04353" stroke-linecap="round"/>
<path d="M115 370.632L121.777 375.15L128.554 370.632" stroke="black" stroke-width="1.50144" stroke-linecap="round" stroke-linejoin="round"/>
<path d="M142.496 370.754V370.177C142.496 368.901 143.53 367.866 144.806 367.866H159.822C161.098 367.866 162.132 368.901 162.132 370.177V381.727C162.132 383.003 161.098 384.037 159.822 384.037H144.806C143.53 384.037 142.496 383.003 142.496 381.727V370.754Z" fill="#9BE6AA" stroke="#9BE6AA" stroke-width="2.04353" stroke-linecap="round"/>
<path d="M145.154 370.632L151.931 375.15L158.708 370.632" stroke="black" stroke-width="1.50144" stroke-linecap="round" stroke-linejoin="round"/>
<path d="M172.648 370.754V370.177C172.648 368.901 173.683 367.866 174.959 367.866H189.975C191.25 367.866 192.285 368.901 192.285 370.177V381.727C192.285 383.003 191.25 384.037 189.975 384.037H174.959C173.683 384.037 172.648 383.003 172.648 381.727V370.754Z" fill="#9BE6AA" stroke="#9BE6AA" stroke-width="2.04353" stroke-linecap="round"/>
<path d="M175.307 370.632L182.084 375.15L188.861 370.632" stroke="black" stroke-width="1.50144" stroke-linecap="round" stroke-linejoin="round"/>
<path d="M202.803 370.754V370.177C202.803 368.901 203.837 367.866 205.113 367.866H220.129C221.405 367.866 222.439 368.901 222.439 370.177V381.727C222.439 383.003 221.405 384.037 220.129 384.037H205.113C203.837 384.037 202.803 383.003 202.803 381.727V370.754Z" fill="#9BE6AA" stroke="#9BE6AA" stroke-width="2.04353" stroke-linecap="round"/>
<path d="M205.461 370.632L212.238 375.15L219.015 370.632" stroke="black" stroke-width="1.50144" stroke-linecap="round" stroke-linejoin="round"/>
<path d="M232.957 370.754V370.177C232.957 368.901 233.991 367.866 235.267 367.866H250.283C251.559 367.866 252.593 368.901 252.593 370.177V381.727C252.593 383.003 251.559 384.037 250.283 384.037H235.267C233.991 384.037 232.957 383.003 232.957 381.727V370.754Z" fill="#9BE6AA" stroke="#9BE6AA" stroke-width="2.04353" stroke-linecap="round"/>
<path d="M235.615 370.632L242.392 375.15L249.169 370.632" stroke="black" stroke-width="1.50144" stroke-linecap="round" stroke-linejoin="round"/>
<path d="M263.109 370.754V370.177C263.109 368.901 264.144 367.866 265.42 367.866H280.435C281.711 367.866 282.746 368.901 282.746 370.177V381.727C282.746 383.003 281.711 384.037 280.435 384.037H265.42C264.144 384.037 263.109 383.003 263.109 381.727V370.754Z" fill="#9BE6AA" stroke="#9BE6AA" stroke-width="2.04353" stroke-linecap="round"/>
<path d="M265.768 370.632L272.545 375.15L279.322 370.632" stroke="black" stroke-width="1.50144" stroke-linecap="round" stroke-linejoin="round"/>
<path d="M293.264 370.754V370.177C293.264 368.901 294.298 367.866 295.574 367.866H310.59C311.866 367.866 312.9 368.901 312.9 370.177V381.727C312.9 383.003 311.866 384.037 310.59 384.037H295.574C294.298 384.037 293.264 383.003 293.264 381.727V370.754Z" fill="#9BE6AA" stroke="#9BE6AA" stroke-width="2.04353" stroke-linecap="round"/>
<path d="M295.922 370.632L302.699 375.15L309.476 370.632" stroke="black" stroke-width="1.50144" stroke-linecap="round" stroke-linejoin="round"/>
<path d="M323.416 370.754V370.177C323.416 368.901 324.45 367.866 325.726 367.866H340.742C342.018 367.866 343.052 368.901 343.052 370.177V381.727C343.052 383.003 342.018 384.037 340.742 384.037H325.726C324.45 384.037 323.416 383.003 323.416 381.727V370.754Z" fill="#9BE6AA" stroke="#9BE6AA" stroke-width="2.04353" stroke-linecap="round"/>
<path d="M326.074 370.632L332.851 375.15L339.628 370.632" stroke="black" stroke-width="1.50144" stroke-linecap="round" stroke-linejoin="round"/>
<path d="M51.1504 396.017V395.419C51.1504 394.096 52.2223 393.024 53.5445 393.024H69.1064C70.4287 393.024 71.5006 394.096 71.5006 395.419V407.389C71.5006 408.712 70.4287 409.783 69.1064 409.783H53.5445C52.2223 409.783 51.1504 408.712 51.1504 407.389V396.017Z" fill="#9BE6AA" stroke="#9BE6AA" stroke-width="2.11783" stroke-linecap="round"/>
<path d="M53.9062 395.89L60.9297 400.572L67.9531 395.89" stroke="black" stroke-width="1.55603" stroke-linecap="round" stroke-linejoin="round"/>
<path d="M82.1895 396.195V395.617C82.1895 394.341 83.2237 393.307 84.4996 393.307H99.5155C100.791 393.307 101.826 394.341 101.826 395.617V407.168C101.826 408.444 100.791 409.478 99.5155 409.478H84.4996C83.2237 409.478 82.1895 408.444 82.1895 407.168V396.195Z" fill="#9BE6AA" stroke="#9BE6AA" stroke-width="2.04353" stroke-linecap="round"/>
<path d="M84.8477 396.072L91.6247 400.59L98.4017 396.072" stroke="black" stroke-width="1.50144" stroke-linecap="round" stroke-linejoin="round"/>
<path d="M112.342 396.195V395.617C112.342 394.341 113.376 393.307 114.652 393.307H129.668C130.944 393.307 131.978 394.341 131.978 395.617V407.168C131.978 408.444 130.944 409.478 129.668 409.478H114.652C113.376 409.478 112.342 408.444 112.342 407.168V396.195Z" fill="#9BE6AA" stroke="#9BE6AA" stroke-width="2.04353" stroke-linecap="round"/>
<path d="M115 396.072L121.777 400.59L128.554 396.072" stroke="black" stroke-width="1.50144" stroke-linecap="round" stroke-linejoin="round"/>
<path d="M142.496 396.195V395.617C142.496 394.341 143.53 393.307 144.806 393.307H159.822C161.098 393.307 162.132 394.341 162.132 395.617V407.168C162.132 408.444 161.098 409.478 159.822 409.478H144.806C143.53 409.478 142.496 408.444 142.496 407.168V396.195Z" fill="#9BE6AA" stroke="#9BE6AA" stroke-width="2.04353" stroke-linecap="round"/>
<path d="M145.154 396.072L151.931 400.59L158.708 396.072" stroke="black" stroke-width="1.50144" stroke-linecap="round" stroke-linejoin="round"/>
<path d="M172.648 396.195V395.617C172.648 394.341 173.683 393.307 174.959 393.307H189.975C191.25 393.307 192.285 394.341 192.285 395.617V407.168C192.285 408.444 191.25 409.478 189.975 409.478H174.959C173.683 409.478 172.648 408.444 172.648 407.168V396.195Z" fill="#9BE6AA" stroke="#9BE6AA" stroke-width="2.04353" stroke-linecap="round"/>
<path d="M175.307 396.072L182.084 400.59L188.861 396.072" stroke="black" stroke-width="1.50144" stroke-linecap="round" stroke-linejoin="round"/>
<path d="M202.803 396.195V395.617C202.803 394.341 203.837 393.307 205.113 393.307H220.129C221.405 393.307 222.439 394.341 222.439 395.617V407.168C222.439 408.444 221.405 409.478 220.129 409.478H205.113C203.837 409.478 202.803 408.444 202.803 407.168V396.195Z" fill="#9BE6AA" stroke="#9BE6AA" stroke-width="2.04353" stroke-linecap="round"/>
<path d="M205.461 396.072L212.238 400.59L219.015 396.072" stroke="black" stroke-width="1.50144" stroke-linecap="round" stroke-linejoin="round"/>
<path d="M232.957 396.195V395.617C232.957 394.341 233.991 393.307 235.267 393.307H250.283C251.559 393.307 252.593 394.341 252.593 395.617V407.168C252.593 408.444 251.559 409.478 250.283 409.478H235.267C233.991 409.478 232.957 408.444 232.957 407.168V396.195Z" fill="#9BE6AA" stroke="#9BE6AA" stroke-width="2.04353" stroke-linecap="round"/>
<path d="M235.615 396.072L242.392 400.59L249.169 396.072" stroke="black" stroke-width="1.50144" stroke-linecap="round" stroke-linejoin="round"/>
<path d="M263.109 396.195V395.617C263.109 394.341 264.144 393.307 265.42 393.307H280.435C281.711 393.307 282.746 394.341 282.746 395.617V407.168C282.746 408.444 281.711 409.478 280.435 409.478H265.42C264.144 409.478 263.109 408.444 263.109 407.168V396.195Z" fill="#9BE6AA" stroke="#9BE6AA" stroke-width="2.04353" stroke-linecap="round"/>
<path d="M265.768 396.072L272.545 400.59L279.322 396.072" stroke="black" stroke-width="1.50144" stroke-linecap="round" stroke-linejoin="round"/>
<path d="M293.264 396.195V395.617C293.264 394.341 294.298 393.307 295.574 393.307H310.59C311.866 393.307 312.9 394.341 312.9 395.617V407.168C312.9 408.444 311.866 409.478 310.59 409.478H295.574C294.298 409.478 293.264 408.444 293.264 407.168V396.195Z" fill="#9BE6AA" stroke="#9BE6AA" stroke-width="2.04353" stroke-linecap="round"/>
<path d="M295.922 396.072L302.699 400.59L309.476 396.072" stroke="black" stroke-width="1.50144" stroke-linecap="round" stroke-linejoin="round"/>
<path d="M323.416 396.195V395.617C323.416 394.341 324.45 393.307 325.726 393.307H340.742C342.018 393.307 343.052 394.341 343.052 395.617V407.168C343.052 408.444 342.018 409.478 340.742 409.478H325.726C324.45 409.478 323.416 408.444 323.416 407.168V396.195Z" fill="#9BE6AA" stroke="#9BE6AA" stroke-width="2.04353" stroke-linecap="round"/>
<path d="M326.074 396.072L332.851 400.59L339.628 396.072" stroke="black" stroke-width="1.50144" stroke-linecap="round" stroke-linejoin="round"/>
<path d="M51.1504 421.458V420.859C51.1504 419.537 52.2223 418.465 53.5445 418.465H69.1064C70.4287 418.465 71.5006 419.537 71.5006 420.859V432.83C71.5006 434.152 70.4287 435.224 69.1064 435.224H53.5445C52.2223 435.224 51.1504 434.152 51.1504 432.83V421.458Z" fill="#9BE6AA" stroke="#9BE6AA" stroke-width="2.11783" stroke-linecap="round"/>
<path d="M53.9062 421.331L60.9297 426.013L67.9531 421.331" stroke="black" stroke-width="1.55603" stroke-linecap="round" stroke-linejoin="round"/>
<path d="M82.1895 421.635V421.057C82.1895 419.782 83.2237 418.747 84.4996 418.747H99.5155C100.791 418.747 101.826 419.782 101.826 421.057V432.608C101.826 433.884 100.791 434.918 99.5155 434.918H84.4996C83.2237 434.918 82.1895 433.884 82.1895 432.608V421.635Z" fill="#9BE6AA" stroke="#9BE6AA" stroke-width="2.04353" stroke-linecap="round"/>
<path d="M84.8477 421.512L91.6247 426.03L98.4017 421.512" stroke="black" stroke-width="1.50144" stroke-linecap="round" stroke-linejoin="round"/>
<path d="M112.342 421.635V421.057C112.342 419.782 113.376 418.747 114.652 418.747H129.668C130.944 418.747 131.978 419.782 131.978 421.057V432.608C131.978 433.884 130.944 434.918 129.668 434.918H114.652C113.376 434.918 112.342 433.884 112.342 432.608V421.635Z" fill="#9BE6AA" stroke="#9BE6AA" stroke-width="2.04353" stroke-linecap="round"/>
<path d="M115 421.512L121.777 426.03L128.554 421.512" stroke="black" stroke-width="1.50144" stroke-linecap="round" stroke-linejoin="round"/>
<path d="M142.496 421.635V421.057C142.496 419.782 143.53 418.747 144.806 418.747H159.822C161.098 418.747 162.132 419.782 162.132 421.057V432.608C162.132 433.884 161.098 434.918 159.822 434.918H144.806C143.53 434.918 142.496 433.884 142.496 432.608V421.635Z" fill="#9BE6AA" stroke="#9BE6AA" stroke-width="2.04353" stroke-linecap="round"/>
<path d="M145.154 421.512L151.931 426.03L158.708 421.512" stroke="black" stroke-width="1.50144" stroke-linecap="round" stroke-linejoin="round"/>
<path d="M172.648 421.635V421.057C172.648 419.782 173.683 418.747 174.959 418.747H189.975C191.25 418.747 192.285 419.782 192.285 421.057V432.608C192.285 433.884 191.25 434.918 189.975 434.918H174.959C173.683 434.918 172.648 433.884 172.648 432.608V421.635Z" fill="#9BE6AA" stroke="#9BE6AA" stroke-width="2.04353" stroke-linecap="round"/>
<path d="M175.307 421.512L182.084 426.03L188.861 421.512" stroke="black" stroke-width="1.50144" stroke-linecap="round" stroke-linejoin="round"/>
<path d="M202.803 421.635V421.057C202.803 419.782 203.837 418.747 205.113 418.747H220.129C221.405 418.747 222.439 419.782 222.439 421.057V432.608C222.439 433.884 221.405 434.918 220.129 434.918H205.113C203.837 434.918 202.803 433.884 202.803 432.608V421.635Z" fill="#9BE6AA" stroke="#9BE6AA" stroke-width="2.04353" stroke-linecap="round"/>
<path d="M205.461 421.512L212.238 426.03L219.015 421.512" stroke="black" stroke-width="1.50144" stroke-linecap="round" stroke-linejoin="round"/>
<path d="M232.957 421.635V421.057C232.957 419.782 233.991 418.747 235.267 418.747H250.283C251.559 418.747 252.593 419.782 252.593 421.057V432.608C252.593 433.884 251.559 434.918 250.283 434.918H235.267C233.991 434.918 232.957 433.884 232.957 432.608V421.635Z" fill="#9BE6AA" stroke="#9BE6AA" stroke-width="2.04353" stroke-linecap="round"/>
<path d="M235.615 421.512L242.392 426.03L249.169 421.512" stroke="black" stroke-width="1.50144" stroke-linecap="round" stroke-linejoin="round"/>
<path d="M263.109 421.635V421.057C263.109 419.782 264.144 418.747 265.42 418.747H280.435C281.711 418.747 282.746 419.782 282.746 421.057V432.608C282.746 433.884 281.711 434.918 280.435 434.918H265.42C264.144 434.918 263.109 433.884 263.109 432.608V421.635Z" fill="#9BE6AA" stroke="#9BE6AA" stroke-width="2.04353" stroke-linecap="round"/>
<path d="M265.768 421.512L272.545 426.03L279.322 421.512" stroke="black" stroke-width="1.50144" stroke-linecap="round" stroke-linejoin="round"/>
<path d="M293.264 421.635V421.057C293.264 419.782 294.298 418.747 295.574 418.747H310.59C311.866 418.747 312.9 419.782 312.9 421.057V432.608C312.9 433.884 311.866 434.918 310.59 434.918H295.574C294.298 434.918 293.264 433.884 293.264 432.608V421.635Z" fill="#9BE6AA" stroke="#9BE6AA" stroke-width="2.04353" stroke-linecap="round"/>
<path d="M295.922 421.512L302.699 426.03L309.476 421.512" stroke="black" stroke-width="1.50144" stroke-linecap="round" stroke-linejoin="round"/>
<path d="M323.416 421.635V421.057C323.416 419.782 324.45 418.747 325.726 418.747H340.742C342.018 418.747 343.052 419.782 343.052 421.057V432.608C343.052 433.884 342.018 434.918 340.742 434.918H325.726C324.45 434.918 323.416 433.884 323.416 432.608V421.635Z" fill="#9BE6AA" stroke="#9BE6AA" stroke-width="2.04353" stroke-linecap="round"/>
<path d="M326.074 421.512L332.851 426.03L339.628 421.512" stroke="black" stroke-width="1.50144" stroke-linecap="round" stroke-linejoin="round"/>
<path d="M51.1504 446.898V446.299C51.1504 444.977 52.2223 443.905 53.5445 443.905H69.1064C70.4287 443.905 71.5006 444.977 71.5006 446.299V458.27C71.5006 459.592 70.4287 460.664 69.1064 460.664H53.5445C52.2223 460.664 51.1504 459.592 51.1504 458.27V446.898Z" fill="#9BE6AA" stroke="#9BE6AA" stroke-width="2.11783" stroke-linecap="round"/>
<path d="M53.9062 446.771L60.9297 451.453L67.9531 446.771" stroke="black" stroke-width="1.55603" stroke-linecap="round" stroke-linejoin="round"/>
<path d="M82.1895 447.075V446.498C82.1895 445.222 83.2237 444.188 84.4996 444.188H99.5155C100.791 444.188 101.826 445.222 101.826 446.498V458.049C101.826 459.325 100.791 460.359 99.5155 460.359H84.4996C83.2237 460.359 82.1895 459.325 82.1895 458.049V447.075Z" fill="#9BE6AA" stroke="#9BE6AA" stroke-width="2.04353" stroke-linecap="round"/>
<path d="M84.8477 446.953L91.6247 451.471L98.4017 446.953" stroke="black" stroke-width="1.50144" stroke-linecap="round" stroke-linejoin="round"/>
<path d="M112.342 447.075V446.498C112.342 445.222 113.376 444.188 114.652 444.188H129.668C130.944 444.188 131.978 445.222 131.978 446.498V458.049C131.978 459.325 130.944 460.359 129.668 460.359H114.652C113.376 460.359 112.342 459.325 112.342 458.049V447.075Z" fill="#9BE6AA" stroke="#9BE6AA" stroke-width="2.04353" stroke-linecap="round"/>
<path d="M115 446.953L121.777 451.471L128.554 446.953" stroke="black" stroke-width="1.50144" stroke-linecap="round" stroke-linejoin="round"/>
<path d="M142.496 447.075V446.498C142.496 445.222 143.53 444.188 144.806 444.188H159.822C161.098 444.188 162.132 445.222 162.132 446.498V458.049C162.132 459.325 161.098 460.359 159.822 460.359H144.806C143.53 460.359 142.496 459.325 142.496 458.049V447.075Z" fill="#9BE6AA" stroke="#9BE6AA" stroke-width="2.04353" stroke-linecap="round"/>
<path d="M145.154 446.953L151.931 451.471L158.708 446.953" stroke="black" stroke-width="1.50144" stroke-linecap="round" stroke-linejoin="round"/>
<path d="M172.648 447.075V446.498C172.648 445.222 173.683 444.188 174.959 444.188H189.975C191.25 444.188 192.285 445.222 192.285 446.498V458.049C192.285 459.325 191.25 460.359 189.975 460.359H174.959C173.683 460.359 172.648 459.325 172.648 458.049V447.075Z" fill="#9BE6AA" stroke="#9BE6AA" stroke-width="2.04353" stroke-linecap="round"/>
<path d="M175.307 446.953L182.084 451.471L188.861 446.953" stroke="black" stroke-width="1.50144" stroke-linecap="round" stroke-linejoin="round"/>
<path d="M202.803 447.075V446.498C202.803 445.222 203.837 444.188 205.113 444.188H220.129C221.405 444.188 222.439 445.222 222.439 446.498V458.049C222.439 459.325 221.405 460.359 220.129 460.359H205.113C203.837 460.359 202.803 459.325 202.803 458.049V447.075Z" fill="#9BE6AA" stroke="#9BE6AA" stroke-width="2.04353" stroke-linecap="round"/>
<path d="M205.461 446.953L212.238 451.471L219.015 446.953" stroke="black" stroke-width="1.50144" stroke-linecap="round" stroke-linejoin="round"/>
<path d="M232.957 447.075V446.498C232.957 445.222 233.991 444.188 235.267 444.188H250.283C251.559 444.188 252.593 445.222 252.593 446.498V458.049C252.593 459.325 251.559 460.359 250.283 460.359H235.267C233.991 460.359 232.957 459.325 232.957 458.049V447.075Z" fill="#9BE6AA" stroke="#9BE6AA" stroke-width="2.04353" stroke-linecap="round"/>
<path d="M235.615 446.953L242.392 451.471L249.169 446.953" stroke="black" stroke-width="1.50144" stroke-linecap="round" stroke-linejoin="round"/>
<path d="M263.109 447.075V446.498C263.109 445.222 264.144 444.188 265.42 444.188H280.435C281.711 444.188 282.746 445.222 282.746 446.498V458.049C282.746 459.325 281.711 460.359 280.435 460.359H265.42C264.144 460.359 263.109 459.325 263.109 458.049V447.075Z" fill="#9BE6AA" stroke="#9BE6AA" stroke-width="2.04353" stroke-linecap="round"/>
<path d="M265.768 446.953L272.545 451.471L279.322 446.953" stroke="black" stroke-width="1.50144" stroke-linecap="round" stroke-linejoin="round"/>
<path d="M293.264 447.075V446.498C293.264 445.222 294.298 444.188 295.574 444.188H310.59C311.866 444.188 312.9 445.222 312.9 446.498V458.049C312.9 459.325 311.866 460.359 310.59 460.359H295.574C294.298 460.359 293.264 459.325 293.264 458.049V447.075Z" fill="#9BE6AA" stroke="#9BE6AA" stroke-width="2.04353" stroke-linecap="round"/>
<path d="M295.922 446.953L302.699 451.471L309.476 446.953" stroke="black" stroke-width="1.50144" stroke-linecap="round" stroke-linejoin="round"/>
<path d="M323.416 447.075V446.498C323.416 445.222 324.45 444.188 325.726 444.188H340.742C342.018 444.188 343.052 445.222 343.052 446.498V458.049C343.052 459.325 342.018 460.359 340.742 460.359H325.726C324.45 460.359 323.416 459.325 323.416 458.049V447.075Z" fill="#9BE6AA" stroke="#9BE6AA" stroke-width="2.04353" stroke-linecap="round"/>
<path d="M326.074 446.953L332.851 451.471L339.628 446.953" stroke="black" stroke-width="1.50144" stroke-linecap="round" stroke-linejoin="round"/>
<path d="M51.1504 472.338V471.74C51.1504 470.418 52.2223 469.346 53.5445 469.346H69.1064C70.4287 469.346 71.5006 470.418 71.5006 471.74V483.711C71.5006 485.033 70.4287 486.105 69.1064 486.105H53.5445C52.2223 486.105 51.1504 485.033 51.1504 483.711V472.338Z" fill="#9BE6AA" stroke="#9BE6AA" stroke-width="2.11783" stroke-linecap="round"/>
<path d="M53.9062 472.211L60.9297 476.894L67.9531 472.211" stroke="black" stroke-width="1.55603" stroke-linecap="round" stroke-linejoin="round"/>
<path d="M82.1895 472.516V471.938C82.1895 470.662 83.2237 469.628 84.4996 469.628H99.5155C100.791 469.628 101.826 470.662 101.826 471.938V483.489C101.826 484.765 100.791 485.799 99.5155 485.799H84.4996C83.2237 485.799 82.1895 484.765 82.1895 483.489V472.516Z" fill="#9BE6AA" stroke="#9BE6AA" stroke-width="2.04353" stroke-linecap="round"/>
<path d="M84.8477 472.393L91.6247 476.911L98.4017 472.393" stroke="black" stroke-width="1.50144" stroke-linecap="round" stroke-linejoin="round"/>
<path d="M112.342 472.516V471.938C112.342 470.662 113.376 469.628 114.652 469.628H129.668C130.944 469.628 131.978 470.662 131.978 471.938V483.489C131.978 484.765 130.944 485.799 129.668 485.799H114.652C113.376 485.799 112.342 484.765 112.342 483.489V472.516Z" fill="#9BE6AA" stroke="#9BE6AA" stroke-width="2.04353" stroke-linecap="round"/>
<path d="M115 472.393L121.777 476.911L128.554 472.393" stroke="black" stroke-width="1.50144" stroke-linecap="round" stroke-linejoin="round"/>
<path d="M142.496 472.516V471.938C142.496 470.662 143.53 469.628 144.806 469.628H159.822C161.098 469.628 162.132 470.662 162.132 471.938V483.489C162.132 484.765 161.098 485.799 159.822 485.799H144.806C143.53 485.799 142.496 484.765 142.496 483.489V472.516Z" fill="#9BE6AA" stroke="#9BE6AA" stroke-width="2.04353" stroke-linecap="round"/>
<path d="M145.154 472.393L151.931 476.911L158.708 472.393" stroke="black" stroke-width="1.50144" stroke-linecap="round" stroke-linejoin="round"/>
<path d="M172.648 472.516V471.938C172.648 470.662 173.683 469.628 174.959 469.628H189.975C191.25 469.628 192.285 470.662 192.285 471.938V483.489C192.285 484.765 191.25 485.799 189.975 485.799H174.959C173.683 485.799 172.648 484.765 172.648 483.489V472.516Z" fill="#9BE6AA" stroke="#9BE6AA" stroke-width="2.04353" stroke-linecap="round"/>
<path d="M175.307 472.393L182.084 476.911L188.861 472.393" stroke="black" stroke-width="1.50144" stroke-linecap="round" stroke-linejoin="round"/>
<path d="M202.803 472.516V471.938C202.803 470.662 203.837 469.628 205.113 469.628H220.129C221.405 469.628 222.439 470.662 222.439 471.938V483.489C222.439 484.765 221.405 485.799 220.129 485.799H205.113C203.837 485.799 202.803 484.765 202.803 483.489V472.516Z" fill="#9BE6AA" stroke="#9BE6AA" stroke-width="2.04353" stroke-linecap="round"/>
<path d="M205.461 472.393L212.238 476.911L219.015 472.393" stroke="black" stroke-width="1.50144" stroke-linecap="round" stroke-linejoin="round"/>
<path d="M232.957 472.516V471.938C232.957 470.662 233.991 469.628 235.267 469.628H250.283C251.559 469.628 252.593 470.662 252.593 471.938V483.489C252.593 484.765 251.559 485.799 250.283 485.799H235.267C233.991 485.799 232.957 484.765 232.957 483.489V472.516Z" fill="#9BE6AA" stroke="#9BE6AA" stroke-width="2.04353" stroke-linecap="round"/>
<path d="M235.615 472.393L242.392 476.911L249.169 472.393" stroke="black" stroke-width="1.50144" stroke-linecap="round" stroke-linejoin="round"/>
<path d="M263.109 472.516V471.938C263.109 470.662 264.144 469.628 265.42 469.628H280.435C281.711 469.628 282.746 470.662 282.746 471.938V483.489C282.746 484.765 281.711 485.799 280.435 485.799H265.42C264.144 485.799 263.109 484.765 263.109 483.489V472.516Z" fill="#9BE6AA" stroke="#9BE6AA" stroke-width="2.04353" stroke-linecap="round"/>
<path d="M265.768 472.393L272.545 476.911L279.322 472.393" stroke="black" stroke-width="1.50144" stroke-linecap="round" stroke-linejoin="round"/>
<path d="M293.264 472.516V471.938C293.264 470.662 294.298 469.628 295.574 469.628H310.59C311.866 469.628 312.9 470.662 312.9 471.938V483.489C312.9 484.765 311.866 485.799 310.59 485.799H295.574C294.298 485.799 293.264 484.765 293.264 483.489V472.516Z" fill="#9BE6AA" stroke="#9BE6AA" stroke-width="2.04353" stroke-linecap="round"/>
<path d="M295.922 472.393L302.699 476.911L309.476 472.393" stroke="black" stroke-width="1.50144" stroke-linecap="round" stroke-linejoin="round"/>
<path d="M64.7049 556.779C61.1103 556.779 58.0505 556.266 55.5257 555.239C53.0009 554.169 51.0752 552.714 49.7486 550.874C48.4648 548.991 47.8229 546.808 47.8229 544.326C47.8229 541.63 48.4862 539.277 49.8128 537.265C51.1822 535.211 53.1293 533.628 55.6541 532.515C53.6 531.531 52.0167 530.183 50.9041 528.471C49.8342 526.717 49.2993 524.727 49.2993 522.502C49.2993 520.105 49.8984 517.987 51.0966 516.147C52.3376 514.307 54.1136 512.873 56.4244 511.846C58.7352 510.819 61.4954 510.306 64.7049 510.306C67.9572 510.306 70.7388 510.819 73.0496 511.846C75.3604 512.873 77.1364 514.307 78.3774 516.147C79.6184 517.987 80.2389 520.105 80.2389 522.502C80.2389 524.727 79.6826 526.717 78.5699 528.471C77.4573 530.183 75.874 531.531 73.8199 532.515C76.3447 533.628 78.2918 535.211 79.6612 537.265C81.0306 539.277 81.7153 541.63 81.7153 544.326C81.7153 546.808 81.052 548.991 79.7254 550.874C78.3988 552.714 76.4731 554.169 73.9483 555.239C71.4235 556.266 68.3423 556.779 64.7049 556.779ZM64.7049 549.461C67.0585 549.461 68.9842 548.884 70.482 547.728C71.9798 546.53 72.7287 545.011 72.7287 543.171C72.7287 541.16 71.9798 539.533 70.482 538.292C68.9842 537.051 67.0585 536.431 64.7049 536.431C63.1643 536.431 61.795 536.709 60.5967 537.265C59.4413 537.822 58.5213 538.613 57.8366 539.64C57.1519 540.667 56.8095 541.844 56.8095 543.171C56.8095 544.412 57.1519 545.503 57.8366 546.444C58.5213 547.386 59.4413 548.135 60.5967 548.691C61.795 549.205 63.1643 549.461 64.7049 549.461ZM64.7049 529.434C66.759 529.434 68.4279 528.878 69.7117 527.765C71.0383 526.653 71.7016 525.24 71.7016 523.529C71.7016 521.689 71.0383 520.212 69.7117 519.1C68.4279 517.944 66.759 517.366 64.7049 517.366C62.6936 517.366 61.0461 517.944 59.7623 519.1C58.4785 520.212 57.8366 521.689 57.8366 523.529C57.8366 525.24 58.4785 526.653 59.7623 527.765C61.0461 528.878 62.6936 529.434 64.7049 529.434ZM100.928 510.37C103.967 510.37 106.534 510.926 108.631 512.039C110.771 513.108 112.504 514.606 113.83 516.532C115.2 518.458 116.184 520.704 116.783 523.272C117.425 525.797 117.746 528.514 117.746 531.424C117.746 534.89 117.382 538.164 116.655 541.245C115.927 544.283 114.815 546.979 113.317 549.333C111.862 551.644 109.979 553.484 107.668 554.853C105.357 556.18 102.576 556.843 99.3235 556.843C96.9699 556.843 94.6591 556.501 92.391 555.816C90.1658 555.089 88.1545 554.104 86.3572 552.863L90.6579 546.444C92.0273 547.343 93.4609 548.028 94.9586 548.499C96.4992 548.926 97.89 549.14 99.131 549.14C102.469 549.14 105.079 547.685 106.962 544.776C108.888 541.823 109.765 537.223 109.594 530.975L111.391 532.13C110.407 534.484 108.888 536.388 106.834 537.843C104.78 539.255 102.319 539.961 99.4519 539.961C96.6276 539.961 94.1028 539.298 91.8775 537.971C89.6523 536.602 87.9191 534.783 86.6781 532.515C85.4371 530.247 84.8166 527.68 84.8166 524.812C84.8166 521.988 85.4799 519.506 86.8065 517.366C88.1331 515.184 89.9946 513.472 92.391 512.231C94.8302 510.99 97.676 510.37 100.928 510.37ZM100.928 517.752C99.5161 517.752 98.2537 518.072 97.1411 518.714C96.0285 519.356 95.1512 520.234 94.5093 521.346C93.8674 522.459 93.5464 523.743 93.5464 525.198C93.5464 526.653 93.8674 527.958 94.5093 529.113C95.1512 530.269 96.0285 531.167 97.1411 531.809C98.2537 532.451 99.5161 532.772 100.928 532.772C102.34 532.772 103.603 532.451 104.716 531.809C105.828 531.167 106.705 530.269 107.347 529.113C108.032 527.958 108.374 526.653 108.374 525.198C108.374 523.743 108.032 522.459 107.347 521.346C106.705 520.234 105.828 519.356 104.716 518.714C103.603 518.072 102.34 517.752 100.928 517.752ZM151.47 556.779C148.132 556.779 145.158 556.073 142.548 554.661C139.937 553.206 137.905 551.216 136.45 548.691C134.995 546.124 134.267 543.214 134.267 539.961C134.267 536.666 134.995 533.756 136.45 531.231C137.905 528.707 139.916 526.738 142.484 525.326C145.051 523.871 148.004 523.144 151.342 523.144C154.551 523.144 157.483 523.935 160.136 525.519C162.789 527.102 164.715 529.391 165.913 532.387L157.953 535.211C157.354 533.97 156.413 532.986 155.129 532.258C153.888 531.488 152.497 531.103 150.957 531.103C149.373 531.103 147.983 531.488 146.784 532.258C145.586 532.986 144.645 534.013 143.96 535.34C143.275 536.666 142.933 538.207 142.933 539.961C142.933 541.716 143.275 543.256 143.96 544.583C144.645 545.867 145.608 546.894 146.849 547.664C148.09 548.434 149.502 548.82 151.085 548.82C152.626 548.82 154.016 548.413 155.257 547.6C156.541 546.787 157.483 545.717 158.082 544.39L166.106 547.215C164.865 550.253 162.917 552.607 160.264 554.276C157.654 555.945 154.723 556.779 151.47 556.779ZM184.586 556.779C181.334 556.779 178.424 556.073 175.857 554.661C173.332 553.206 171.342 551.216 169.887 548.691C168.475 546.166 167.769 543.256 167.769 539.961C167.769 536.666 168.475 533.756 169.887 531.231C171.299 528.707 173.268 526.738 175.792 525.326C178.317 523.871 181.206 523.144 184.458 523.144C187.753 523.144 190.663 523.871 193.188 525.326C195.713 526.738 197.681 528.707 199.093 531.231C200.506 533.756 201.212 536.666 201.212 539.961C201.212 543.256 200.506 546.166 199.093 548.691C197.681 551.216 195.713 553.206 193.188 554.661C190.706 556.073 187.839 556.779 184.586 556.779ZM184.586 548.948C186.17 548.948 187.561 548.563 188.759 547.792C189.957 547.022 190.877 545.974 191.519 544.647C192.204 543.278 192.546 541.716 192.546 539.961C192.546 538.207 192.204 536.666 191.519 535.34C190.834 533.97 189.871 532.9 188.63 532.13C187.432 531.36 186.041 530.975 184.458 530.975C182.917 530.975 181.527 531.36 180.286 532.13C179.087 532.9 178.146 533.97 177.461 535.34C176.777 536.666 176.434 538.207 176.434 539.961C176.434 541.716 176.777 543.278 177.461 544.647C178.146 545.974 179.109 547.022 180.35 547.792C181.591 548.563 183.003 548.948 184.586 548.948ZM216.686 556.779C214.118 556.779 211.936 556.266 210.138 555.239C208.384 554.211 207.036 552.628 206.094 550.488C205.153 548.306 204.682 545.503 204.682 542.08V523.914H213.155V540.346C213.155 542.486 213.391 544.176 213.861 545.417C214.375 546.616 215.081 547.493 215.98 548.049C216.921 548.563 217.969 548.82 219.125 548.82C221.35 548.862 223.04 548.199 224.196 546.83C225.351 545.417 225.929 543.385 225.929 540.732V523.914H234.402V556.009H226.442L226.122 551.644C225.052 553.27 223.704 554.532 222.078 555.431C220.494 556.33 218.697 556.779 216.686 556.779ZM240.203 556.009V523.914H248.676V529.819C250.003 527.808 251.672 526.31 253.683 525.326C255.737 524.299 257.855 523.785 260.038 523.785V532.002C258.069 532.002 256.208 532.237 254.453 532.708C252.741 533.179 251.351 533.949 250.281 535.019C249.211 536.088 248.676 537.458 248.676 539.127V556.009H240.203ZM262.985 556.009V523.914H271.458V529.819C272.785 527.808 274.454 526.31 276.465 525.326C278.519 524.299 280.637 523.785 282.82 523.785V532.002C280.851 532.002 278.99 532.237 277.235 532.708C275.523 533.179 274.133 533.949 273.063 535.019C271.993 536.088 271.458 537.458 271.458 539.127V556.009H262.985ZM286.281 556.009V523.914H294.754V556.009H286.281ZM290.517 518.714C289.233 518.714 288.099 518.244 287.115 517.302C286.131 516.318 285.639 515.163 285.639 513.836C285.639 512.509 286.131 511.375 287.115 510.434C288.099 509.45 289.233 508.958 290.517 508.958C291.844 508.958 292.978 509.45 293.919 510.434C294.903 511.375 295.396 512.509 295.396 513.836C295.396 515.163 294.903 516.318 293.919 517.302C292.978 518.244 291.844 518.714 290.517 518.714ZM315.534 556.779C312.367 556.779 309.564 556.073 307.125 554.661C304.686 553.206 302.76 551.216 301.348 548.691C299.979 546.166 299.294 543.256 299.294 539.961C299.294 536.666 300 533.756 301.412 531.231C302.867 528.707 304.836 526.738 307.318 525.326C309.842 523.871 312.731 523.144 315.983 523.144C318.808 523.144 321.397 523.892 323.75 525.39C326.147 526.845 328.051 529.006 329.463 531.873C330.918 534.698 331.646 538.143 331.646 542.208H308.152C308.366 544.348 309.286 546.059 310.912 547.343C312.538 548.584 314.378 549.205 316.433 549.205C318.187 549.205 319.621 548.841 320.733 548.113C321.846 547.343 322.702 546.359 323.301 545.161L330.875 548.113C329.977 549.911 328.8 551.473 327.345 552.799C325.933 554.083 324.242 555.067 322.274 555.752C320.305 556.437 318.059 556.779 315.534 556.779ZM308.601 535.917H322.466C322.338 534.591 321.91 533.521 321.183 532.708C320.455 531.895 319.599 531.296 318.615 530.91C317.631 530.525 316.668 530.333 315.726 530.333C314.828 530.333 313.844 530.525 312.774 530.91C311.747 531.253 310.827 531.831 310.014 532.644C309.243 533.457 308.773 534.548 308.601 535.917ZM335.03 556.009V511.076H343.503V556.009H335.03ZM361.29 556.779C359.236 556.779 357.31 556.48 355.513 555.88C353.716 555.239 352.132 554.34 350.763 553.184C349.394 551.986 348.324 550.531 347.554 548.82L354.807 545.482C355.449 546.509 356.326 547.407 357.439 548.178C358.551 548.905 359.835 549.269 361.29 549.269C362.702 549.269 363.794 549.076 364.564 548.691C365.334 548.263 365.719 547.664 365.719 546.894C365.719 546.124 365.398 545.567 364.756 545.225C364.157 544.84 363.323 544.519 362.253 544.262L359.3 543.492C356.219 542.679 353.78 541.395 351.983 539.64C350.228 537.843 349.351 535.789 349.351 533.478C349.351 530.183 350.399 527.637 352.496 525.839C354.636 524.042 357.653 523.144 361.547 523.144C363.558 523.144 365.42 523.443 367.131 524.042C368.886 524.641 370.384 525.476 371.625 526.546C372.866 527.615 373.722 528.856 374.192 530.269L367.196 533.478C366.896 532.622 366.169 531.938 365.013 531.424C363.858 530.868 362.702 530.59 361.547 530.59C360.392 530.59 359.493 530.846 358.851 531.36C358.252 531.831 357.952 532.494 357.952 533.35C357.952 533.906 358.252 534.377 358.851 534.762C359.45 535.104 360.306 535.404 361.419 535.661L365.591 536.688C367.688 537.201 369.357 538.036 370.598 539.191C371.882 540.304 372.802 541.566 373.358 542.978C373.957 544.348 374.257 545.696 374.257 547.022C374.257 548.948 373.679 550.66 372.523 552.157C371.411 553.612 369.87 554.746 367.902 555.559C365.976 556.373 363.772 556.779 361.29 556.779Z" fill="#9BE6AA"/>
<path d="M352.351 35.9412L436.172 25.1452C436.211 25.1402 436.251 25.1511 436.282 25.1753L436.283 25.1752L461.851 44.9086L461.851 44.9076C461.883 44.9321 461.903 44.9687 461.908 45.0086L476.411 157.605C476.421 157.688 476.363 157.764 476.28 157.774L369.809 171.488C369.726 171.498 369.651 171.439 369.64 171.357L352.221 36.1096C352.21 36.0271 352.268 35.9521 352.351 35.9412Z" stroke="#9BE6AA" stroke-width="8.40178" stroke-linecap="square" stroke-linejoin="round"/>
<path d="M383.693 86.1694L441.245 78.7569" stroke="#9BE6AA" stroke-width="8.40178" stroke-linecap="round" stroke-linejoin="round"/>
<path d="M390.059 127.039L447.61 119.627" stroke="#9BE6AA" stroke-width="8.40178" stroke-linecap="round" stroke-linejoin="round"/>
<path d="M387.396 106.61L416.172 102.904" stroke="#9BE6AA" stroke-width="8.40178" stroke-linecap="round" stroke-linejoin="round"/>
<rect width="45.7799" height="50.4172" transform="translate(334.162 10.9424) rotate(-6.64948)" fill="black"/>
<path d="M351.667 48.411C364.793 48.2514 370.448 42.6591 370.286 29.333C370.448 42.6591 376.198 48.1127 389.364 47.9525C376.198 48.1127 370.585 53.8644 370.745 67.0305C370.585 53.8644 364.793 48.2514 351.667 48.411Z" fill="black" stroke="#9BE6AA" stroke-width="4.16962" stroke-linejoin="round"/>
<path d="M335.231 25.7186C343.67 25.616 347.305 22.021 347.201 13.4542C347.305 22.021 351.002 25.5268 359.465 25.4239C351.002 25.5268 347.393 29.2244 347.496 37.6883C347.393 29.2244 343.67 25.616 335.231 25.7186Z" fill="black" stroke="#9BE6AA" stroke-width="4.16962" stroke-linejoin="round"/>
</g>
<rect x="1.41022" y="1.41022" width="420.247" height="618.618" rx="6.92902" stroke="#9BE6AA" stroke-width="2.82045"/>
<defs>
<clipPath id="clip0_633_3514">
<rect width="423.067" height="621.439" rx="8.33924" fill="white"/>
</clipPath>
</defs>
</svg>
