<svg xmlns="http://www.w3.org/2000/svg" width="424" height="622" fill="none" viewBox="0 0 424 622"><g clip-path="url(#a)"><path fill="#9be6aa" d="M48.248 71.127V44.803h9.289q2.707 0 4.776 1.053t3.234 2.933q1.166 1.843 1.166 4.287 0 2.596-1.43 4.588-1.428 1.957-3.76 2.896l6.243 10.567h-4.927l-5.64-9.74q-.226.038-.49.038h-4.098v9.702zm4.363-13.726h5.114q1.279 0 2.256-.564a4.34 4.34 0 0 0 1.617-1.542q.64-.977.64-2.219 0-1.88-1.354-3.083t-3.498-1.204H52.61zm26.466 14.178q-2.745 0-4.89-1.241-2.105-1.28-3.346-3.498-1.203-2.22-1.204-5.114 0-2.896 1.241-5.115 1.242-2.218 3.385-3.46 2.181-1.278 4.964-1.278 2.52 0 4.55 1.316 2.031 1.279 3.197 3.723 1.203 2.445 1.203 5.83H74q.188 2.368 1.73 3.722 1.58 1.354 3.723 1.354 1.729 0 2.858-.752a5.5 5.5 0 0 0 1.767-2.031l3.723 1.58a9.5 9.5 0 0 1-2.03 2.632q-1.204 1.128-2.896 1.73-1.655.601-3.799.602m-4.814-12.072h9.364q-.113-1.354-.79-2.219a4.3 4.3 0 0 0-1.654-1.354 4.9 4.9 0 0 0-2.069-.45q-1.053 0-2.143.45a4.43 4.43 0 0 0-1.806 1.317q-.751.902-.902 2.256m2.068-9.627 4.363-5.077h4.888l-4.85 5.077zm21.277 21.699q-1.88 0-3.46-.565-1.579-.564-2.707-1.58a7.25 7.25 0 0 1-1.73-2.443l3.648-1.617q.564 1.052 1.654 1.767 1.129.715 2.483.715 1.466 0 2.331-.49.903-.526.903-1.428 0-.866-.677-1.317-.677-.489-1.918-.79l-1.768-.488q-2.67-.678-4.174-2.144-1.504-1.504-1.504-3.422 0-2.82 1.805-4.362 1.842-1.542 5.265-1.542 1.73 0 3.159.526 1.466.49 2.519 1.43 1.053.902 1.467 2.143l-3.498 1.58q-.376-.94-1.428-1.43-1.054-.526-2.332-.526-1.28 0-1.993.564-.715.526-.715 1.504 0 .564.64 1.053.639.452 1.842.752l2.219.527q1.842.45 3.008 1.429 1.167.94 1.73 2.143.564 1.166.564 2.37 0 1.692-.977 2.97-.94 1.279-2.595 1.994-1.655.676-3.76.677m16.693 0q-2.22 0-3.836-.903-1.58-.903-2.445-2.82-.864-1.919-.865-4.927V52.324h4.212v9.627q0 2.22.527 3.46.526 1.24 1.429 1.73.94.489 2.143.489 2.143.038 3.31-1.392 1.165-1.428 1.165-4.099v-9.815h4.175v18.803h-3.949l-.188-2.67q-.903 1.504-2.369 2.332-1.43.79-3.309.79m13.782-.452V52.324h3.949l.188 2.52q.865-1.467 2.219-2.219t3.083-.752q2.257 0 3.836 1.015 1.58 1.015 2.294 3.084.828-1.993 2.332-3.046t3.535-1.053q3.272 0 5.039 2.106 1.767 2.068 1.73 6.393v10.755h-4.174V61.5q0-2.256-.489-3.46-.489-1.24-1.317-1.73-.827-.489-1.917-.488-1.956-.039-3.047 1.391-1.052 1.43-1.052 4.099v9.815h-4.212V61.5q0-2.256-.489-3.46-.451-1.24-1.279-1.73-.827-.489-1.918-.488-1.955-.039-3.046 1.391-1.053 1.43-1.053 4.099v9.815zm40.175.452q-2.745 0-4.889-1.241-2.106-1.28-3.347-3.498-1.203-2.22-1.203-5.114 0-2.896 1.241-5.115 1.241-2.218 3.385-3.46 2.18-1.278 4.964-1.278 2.519 0 4.55 1.316 2.03 1.279 3.196 3.723 1.204 2.445 1.204 5.83h-14.178q.189 2.368 1.73 3.722 1.58 1.354 3.723 1.354 1.73 0 2.858-.752a5.5 5.5 0 0 0 1.768-2.031l3.723 1.58a9.5 9.5 0 0 1-2.031 2.632q-1.203 1.128-2.896 1.73-1.655.601-3.798.602m-4.813-12.072h9.364q-.114-1.354-.79-2.219a4.3 4.3 0 0 0-1.655-1.354 4.9 4.9 0 0 0-2.068-.45q-1.053 0-2.144.45a4.43 4.43 0 0 0-1.805 1.317q-.752.902-.902 2.256m16.427 11.62V52.324h4.212v3.422q1.128-1.767 2.933-2.632a8.5 8.5 0 0 1 3.723-.865v4.024q-1.73 0-3.271.489-1.505.45-2.445 1.504-.94 1.053-.94 2.783v10.078zm28.039.452q-2.219 0-3.836-.903-1.579-.903-2.444-2.82-.865-1.919-.865-4.927V52.324h4.212v9.627q0 2.22.526 3.46.527 1.24 1.429 1.73.94.489 2.144.489 2.144.038 3.309-1.392 1.166-1.428 1.166-4.099v-9.815h4.174v18.803h-3.948l-.188-2.67a6.4 6.4 0 0 1-2.37 2.332q-1.428.79-3.309.79m13.783-.452V52.324h3.949l.188 2.67q.901-1.504 2.331-2.294 1.467-.827 3.347-.827 2.256 0 3.836.903 1.617.902 2.444 2.82.865 1.881.865 4.926v10.605h-4.212V61.5q0-2.256-.526-3.46-.489-1.24-1.429-1.73-.903-.489-2.144-.488-2.106-.039-3.271 1.391t-1.166 4.099v9.815zm28.873 0V44.803h4.211v26.324zm16.824.452q-2.821 0-5.039-1.241a9.17 9.17 0 0 1-3.423-3.498q-1.24-2.22-1.241-5.114 0-2.896 1.204-5.115a8.9 8.9 0 0 1 3.422-3.46q2.18-1.278 5.002-1.278 2.82 0 5.001 1.279a8.65 8.65 0 0 1 3.385 3.46q1.24 2.217 1.241 5.114 0 2.895-1.204 5.114a8.9 8.9 0 0 1-3.384 3.498q-2.181 1.24-4.964 1.24m0-3.874q1.542 0 2.745-.752a5.45 5.45 0 0 0 1.88-2.106q.678-1.353.677-3.121 0-1.768-.714-3.084-.677-1.354-1.881-2.106-1.203-.79-2.782-.79-1.58 0-2.783.752-1.204.753-1.881 2.106-.676 1.354-.676 3.122t.676 3.121a5.76 5.76 0 0 0 1.918 2.106q1.242.752 2.821.752m12.489 3.422V52.324h3.949l.188 2.67q.902-1.504 2.331-2.294 1.467-.827 3.347-.827 2.256 0 3.836.903 1.617.902 2.444 2.82.865 1.881.865 4.926v10.605h-4.212V61.5q0-2.256-.526-3.46-.489-1.24-1.429-1.73-.902-.489-2.144-.488-2.106-.039-3.271 1.391-1.167 1.43-1.166 4.099v9.815zm28.6 8.01q-1.994 0-3.611-.338-1.58-.34-2.67-.79-1.09-.451-1.692-.865l1.617-3.384a30 30 0 0 0 1.392.639q.902.414 2.105.714 1.204.301 2.708.301 1.617 0 2.896-.677 1.279-.639 1.993-1.993.714-1.353.714-3.46v-1.88a7.1 7.1 0 0 1-2.557 2.482q-1.542.865-3.535.865-2.557 0-4.475-1.166-1.88-1.165-2.971-3.234-1.053-2.106-1.053-4.85 0-2.934 1.053-5.078 1.091-2.143 2.971-3.347 1.918-1.203 4.475-1.203 1.993 0 3.535.903 1.58.902 2.557 2.594v-3.046h4.212v16.848q0 3.196-1.203 5.415-1.204 2.256-3.385 3.385-2.181 1.165-5.076 1.165m.526-11.958q1.43 0 2.482-.752 1.09-.753 1.692-2.031.602-1.316.602-3.009 0-1.73-.602-3.008-.601-1.317-1.692-2.03-1.09-.753-2.52-.753-1.503 0-2.67.752-1.127.714-1.805 2.03-.639 1.28-.639 3.01 0 1.69.639 3.008a5.35 5.35 0 0 0 1.843 2.03q1.165.753 2.67.753m-254.101 40.4q-2.558 0-4.476-1.203-1.88-1.241-2.97-3.46-1.054-2.219-1.053-5.19 0-3.008 1.053-5.189 1.09-2.22 2.97-3.422 1.918-1.24 4.475-1.241 1.956 0 3.46.865 1.504.826 2.482 2.37V80.802h4.175v26.324h-3.987l-.15-2.858q-.94 1.58-2.482 2.445-1.504.864-3.498.864m1.053-3.835q1.39 0 2.482-.715 1.09-.752 1.692-2.031.639-1.316.714-3.008v-.526q-.075-1.693-.714-2.971-.602-1.317-1.692-2.031-1.091-.715-2.52-.715-1.505 0-2.708.753-1.165.751-1.843 2.105-.639 1.354-.639 3.122t.677 3.121 1.843 2.144q1.203.752 2.708.752m21.656 3.835q-2.82 0-5.04-1.241a9.17 9.17 0 0 1-3.422-3.497q-1.24-2.219-1.24-5.114t1.203-5.115a8.9 8.9 0 0 1 3.422-3.46q2.181-1.278 5.001-1.278t5.002 1.278a8.64 8.64 0 0 1 3.385 3.46q1.24 2.22 1.24 5.115t-1.203 5.114a8.9 8.9 0 0 1-3.384 3.497q-2.181 1.242-4.964 1.241m0-3.873q1.542 0 2.745-.752a5.46 5.46 0 0 0 1.88-2.106q.677-1.353.677-3.121t-.714-3.084q-.678-1.354-1.88-2.106-1.204-.79-2.784-.79t-2.782.753q-1.205.751-1.88 2.105-.678 1.354-.678 3.122t.677 3.121a5.76 5.76 0 0 0 1.918 2.106q1.242.752 2.82.752m21.289 3.873q-2.896 0-5.115-1.241a9.36 9.36 0 0 1-3.497-3.497q-1.24-2.219-1.241-5.114 0-2.895 1.241-5.115a9.17 9.17 0 0 1 3.46-3.46q2.219-1.278 5.076-1.278 2.783 0 5.04 1.354 2.256 1.316 3.347 3.798l-3.911 1.504q-.602-1.241-1.843-1.993-1.24-.752-2.82-.752-1.543 0-2.746.79-1.203.752-1.88 2.106-.677 1.315-.677 3.046 0 1.729.677 3.083a5.75 5.75 0 0 0 1.918 2.106q1.24.752 2.783.752 1.58 0 2.82-.789a5 5 0 0 0 1.843-2.219l3.911 1.504q-1.09 2.558-3.347 3.986-2.219 1.43-5.04 1.429m17.674 0q-2.218 0-3.835-.902-1.58-.903-2.445-2.821-.864-1.917-.865-4.926V88.324h4.212v9.627q0 2.22.527 3.46.526 1.24 1.429 1.73.94.489 2.143.489 2.143.038 3.31-1.392 1.165-1.428 1.165-4.099v-9.815h4.175v18.803h-3.949l-.188-2.67q-.903 1.504-2.369 2.332-1.43.789-3.31.789m13.783-.451V88.324h3.949l.188 2.52q.865-1.467 2.219-2.219t3.083-.752q2.257 0 3.836 1.015 1.58 1.016 2.294 3.084.828-1.993 2.332-3.046t3.535-1.053q3.272 0 5.039 2.106 1.767 2.069 1.73 6.393v10.755h-4.175V97.5q0-2.256-.488-3.46-.489-1.24-1.317-1.73-.826-.489-1.918-.488-1.955-.039-3.046 1.391-1.053 1.43-1.053 4.099v9.815h-4.211V97.5q0-2.256-.489-3.46-.451-1.24-1.279-1.73-.827-.489-1.918-.488-1.955-.039-3.046 1.391-1.053 1.43-1.053 4.099v9.815zm40.175.451q-2.745 0-4.889-1.241-2.105-1.278-3.347-3.497-1.203-2.219-1.203-5.114t1.241-5.115q1.241-2.218 3.385-3.46 2.18-1.278 4.964-1.278 2.519 0 4.55 1.316 2.03 1.28 3.196 3.723 1.204 2.445 1.204 5.83h-14.178q.189 2.369 1.73 3.722 1.58 1.354 3.723 1.354 1.73 0 2.858-.752a5.54 5.54 0 0 0 1.768-2.031l3.723 1.579a9.5 9.5 0 0 1-2.031 2.633q-1.203 1.128-2.896 1.73-1.654.601-3.798.601m-4.813-12.071h9.363q-.113-1.354-.789-2.219a4.3 4.3 0 0 0-1.655-1.354 4.9 4.9 0 0 0-2.068-.45q-1.053 0-2.144.45a4.43 4.43 0 0 0-1.805 1.317q-.752.901-.902 2.256m16.427 11.62V88.324h3.949l.188 2.67q.902-1.504 2.331-2.294 1.467-.827 3.347-.827 2.257 0 3.836.902 1.617.903 2.444 2.82.865 1.882.865 4.927v10.605h-4.211V97.5q0-2.256-.527-3.46-.489-1.24-1.429-1.73-.903-.489-2.144-.488-2.105-.039-3.271 1.391t-1.166 4.099v9.815zm27.998.451q-2.971 0-4.55-1.466-1.542-1.505-1.542-4.287v-9.89h-3.121v-3.61h3.121v-5.867h4.174v5.866h5.077v3.61h-5.077v9.101q0 1.317.602 1.993.639.677 1.842.677.376 0 .828-.15.451-.151 1.015-.564l1.542 3.196a8 8 0 0 1-1.956 1.015 5.4 5.4 0 0 1-1.955.376M70.11 128.476q6.313 0 10.67 2.311 4.445 2.223 7.201 6.224 2.845 4 4.09 9.336 1.335 5.246 1.334 11.291 0 7.202-1.511 13.603-1.513 6.313-4.624 11.203-3.022 4.802-7.824 7.646-4.8 2.757-11.558 2.757-4.89 0-9.602-1.423-4.624-1.512-8.358-4.09l5.957-8.891a24 24 0 0 0 5.957 2.845q3.2.89 5.78.889 6.934 0 10.846-6.046 4.001-6.134 3.645-19.115l2.49 1.6q-2.045 4.89-6.313 7.913-4.267 2.934-10.224 2.934-5.869 0-10.492-2.756-4.623-2.846-7.201-7.557-2.58-4.713-2.579-10.67 0-5.868 2.757-10.313 2.755-4.535 7.735-7.113 5.067-2.578 11.825-2.578m0 10.224q-2.933 0-5.245 1.334a9.8 9.8 0 0 0-3.645 3.645q-1.335 2.312-1.334 5.335t1.334 5.423q1.334 2.401 3.645 3.735 2.312 1.333 5.246 1.333t5.245-1.333q2.312-1.334 3.646-3.735 1.422-2.4 1.422-5.423t-1.422-5.335a9.8 9.8 0 0 0-3.646-3.645q-2.311-1.334-5.245-1.334m35.891 54.324q-2.934 0-5.067-2.134-2.046-2.133-2.045-5.067 0-2.846 2.045-4.979 2.133-2.134 5.067-2.134t4.979 2.134q2.134 2.133 2.134 4.979 0 2.934-2.134 5.067-2.045 2.134-4.979 2.134m36.422-.266q-7.469 0-12.714-2.134-5.246-2.223-8.002-6.046-2.667-3.912-2.667-9.069 0-5.601 2.756-9.78 2.844-4.268 8.091-6.579-4.269-2.046-6.58-5.602-2.223-3.645-2.223-8.268 0-4.98 2.49-8.802 2.579-3.824 7.379-5.957 4.801-2.134 11.47-2.134 6.757 0 11.558 2.134t7.38 5.957q2.578 3.822 2.578 8.802 0 4.623-2.312 8.268-2.312 3.556-6.579 5.602 5.245 2.311 8.091 6.579 2.845 4.179 2.845 9.78 0 5.157-2.756 9.069-2.757 3.823-8.002 6.046-5.246 2.133-12.803 2.134m0-10.136q4.89 0 8.002-2.401 3.111-2.49 3.112-6.312 0-4.18-3.112-6.757-3.112-2.579-8.002-2.579-3.201 0-5.69 1.156-2.401 1.156-3.824 3.29-1.422 2.133-1.422 4.89 0 2.578 1.422 4.534 1.423 1.956 3.824 3.112 2.489 1.067 5.69 1.067m0-27.74q4.268 0 6.935-2.312 2.756-2.312 2.756-5.868 0-3.822-2.756-6.135-2.667-2.4-6.935-2.4-4.179 0-6.846 2.4-2.667 2.313-2.668 6.135 0 3.557 2.668 5.868 2.667 2.312 6.846 2.312m39.698 45.87q-2.425 0-4.296-.341-1.872-.34-3.148-.893t-2.085-1.106l2.212-4.509q.596.34 1.574.765.979.469 2.34.766 1.361.34 3.148.34 1.701 0 2.978-.68 1.318-.639 2.041-2.042.766-1.361.766-3.488v-2.042a7.9 7.9 0 0 1-2.765 2.637q-1.701.936-3.871.936-2.935 0-5.105-1.276-2.127-1.276-3.318-3.573-1.191-2.298-1.191-5.445 0-3.318 1.191-5.743 1.191-2.468 3.318-3.786 2.17-1.362 5.105-1.362 2.17 0 3.871 1.021 1.702.98 2.765 2.808v-3.318h5.615v18.973q0 3.573-1.361 6.125-1.361 2.595-3.871 3.914-2.468 1.319-5.913 1.319m.511-14.379q1.446 0 2.509-.723a5 5 0 0 0 1.702-2.042q.596-1.319.596-2.978 0-1.701-.639-2.977-.595-1.277-1.701-2-1.064-.723-2.51-.723-1.49 0-2.637.723-1.15.723-1.787 2-.637 1.275-.681 2.977.043 1.66.681 2.978a5.2 5.2 0 0 0 1.787 2.042q1.19.723 2.68.723m37.915 5.828q-4.34 0-7.7-1.957-3.361-2-5.275-5.445-1.914-3.488-1.914-7.997t1.914-7.955q1.914-3.489 5.232-5.445 3.361-2 7.7-1.999 3.063 0 5.7 1.106a13.6 13.6 0 0 1 4.595 3.02 13.2 13.2 0 0 1 3.062 4.424l-5.402 1.999a8.9 8.9 0 0 0-1.914-2.722 8.4 8.4 0 0 0-2.723-1.829q-1.531-.681-3.318-.681-2.595 0-4.637 1.319-2 1.276-3.148 3.531-1.106 2.255-1.106 5.232t1.149 5.275q1.149 2.255 3.19 3.573 2.042 1.276 4.68 1.276 1.828 0 3.318-.68a8.7 8.7 0 0 0 2.68-1.957 9.9 9.9 0 0 0 1.914-2.85l5.402 1.956a13.9 13.9 0 0 1-3.062 4.595 13.85 13.85 0 0 1-4.595 3.105q-2.637 1.106-5.742 1.106m30.471 0q-4.51 0-7.997-1.957a14.44 14.44 0 0 1-5.403-5.445q-1.956-3.488-1.956-7.955 0-4.551 1.956-7.997 1.958-3.489 5.36-5.445 3.446-1.957 7.913-1.957 4.509 0 7.912 1.999 3.445 1.957 5.403 5.446 1.956 3.445 1.956 7.954 0 4.467-1.956 7.955-1.915 3.445-5.36 5.445-3.403 1.957-7.828 1.957m0-5.317q2.723 0 4.765-1.276 2.084-1.32 3.233-3.574 1.191-2.254 1.191-5.19 0-2.978-1.191-5.232t-3.276-3.531q-2.084-1.318-4.849-1.318-2.68 0-4.807 1.318-2.085 1.276-3.276 3.531t-1.191 5.232q0 2.936 1.191 5.19a9.16 9.16 0 0 0 3.318 3.574q2.127 1.276 4.892 1.276m21.348 6.678-4.127-.638q0-.68.511-1.574.51-.936 1.404-1.871a15.6 15.6 0 0 1 2.084-1.744l2.169-1.489a10 10 0 0 0 1.489-1.234q.723-.723.724-1.489 0-.85-.596-1.361-.596-.553-1.787-.553-.893 0-1.531.595a2.8 2.8 0 0 0-.808 1.319l-4.339-.723q.255-1.362 1.106-2.467.893-1.149 2.297-1.872 1.446-.723 3.275-.723 3.106 0 4.892 1.616 1.787 1.575 1.787 4.127 0 1.828-1.021 3.105-.978 1.276-2.595 2.382l-2.169 1.489a9.6 9.6 0 0 0-1.191 1.021q-.596.553-1.064 1.106-.426.596-.51.978m-4.127 2.383v-3.021l3.106-.68h9.784v3.701zm25.435-3.744q-3.149 0-5.573-1.404-2.425-1.446-3.829-3.956-1.36-2.51-1.361-5.785t1.404-5.786q1.447-2.51 3.913-3.913 2.51-1.446 5.743-1.447 2.808 0 5.148 1.489 2.382 1.447 3.786 4.297 1.446 2.808 1.446 6.849h-15.569q.212 2.127 1.829 3.403a5.88 5.88 0 0 0 3.658 1.233q1.745 0 2.85-.723a5.13 5.13 0 0 0 1.702-1.956l5.019 1.956a10.5 10.5 0 0 1-2.339 3.106q-1.404 1.275-3.361 1.957-1.956.68-4.466.68m-4.595-13.825h9.189q-.128-1.319-.851-2.127a4.4 4.4 0 0 0-1.702-1.191 5.2 5.2 0 0 0-1.914-.383q-.893 0-1.957.383-1.02.34-1.829 1.148-.765.808-.936 2.17m-233.236 62.33q-2.745 0-4.89-1.241-2.105-1.28-3.346-3.498-1.203-2.219-1.203-5.114t1.24-5.115q1.242-2.219 3.385-3.459 2.181-1.28 4.964-1.279 2.52 0 4.55 1.316 2.031 1.28 3.197 3.723 1.203 2.445 1.203 5.829H50.768q.188 2.37 1.73 3.723 1.58 1.354 3.723 1.354 1.73 0 2.858-.752a5.5 5.5 0 0 0 1.767-2.031l3.723 1.58a9.5 9.5 0 0 1-2.03 2.632q-1.204 1.128-2.896 1.73-1.655.602-3.798.602m-4.814-12.072h9.364q-.113-1.353-.79-2.219a4.3 4.3 0 0 0-1.654-1.353 4.9 4.9 0 0 0-2.069-.452q-1.053 0-2.143.452a4.4 4.4 0 0 0-1.805 1.316q-.753.902-.903 2.256m2.068-9.627 4.363-5.077h4.888l-4.85 5.077zm27.82 28.769v-10.304a6.8 6.8 0 0 1-2.481 2.369q-1.504.864-3.46.865-2.557 0-4.475-1.204-1.881-1.24-2.97-3.459-1.054-2.22-1.054-5.19 0-3.009 1.053-5.19 1.09-2.219 2.971-3.422 1.918-1.24 4.475-1.241 1.994 0 3.497.903 1.542.864 2.52 2.444l.15-2.896h3.987v26.325zm-4.888-10.906q1.43 0 2.52-.752 1.127-.79 1.73-2.144.639-1.353.639-3.121 0-1.767-.64-3.121-.6-1.354-1.73-2.106-1.09-.753-2.557-.752-1.503 0-2.67.752-1.165.752-1.842 2.106-.64 1.354-.677 3.121.037 1.767.677 3.121.676 1.354 1.842 2.144 1.204.752 2.708.752m19.555 3.836q-2.22 0-3.836-.903-1.58-.903-2.444-2.82-.865-1.918-.865-4.927v-10.605h4.212v9.628q0 2.219.526 3.459.526 1.242 1.429 1.73.94.489 2.144.489 2.143.037 3.309-1.391 1.166-1.43 1.166-4.099v-9.816h4.174v18.803h-3.949l-.188-2.67a6.4 6.4 0 0 1-2.369 2.332q-1.43.79-3.31.79m14.046-.452v-18.803h4.174v18.803zm2.106-22.375a2.48 2.48 0 0 1-1.768-.715 2.48 2.48 0 0 1-.714-1.767q0-1.016.714-1.73a2.5 2.5 0 0 1 1.768-.715 2.36 2.36 0 0 1 1.73.715q.752.714.752 1.73 0 1.015-.752 1.767a2.36 2.36 0 0 1-1.73.715m12.073 22.375-7.784-18.803h4.325l5.565 13.99 5.528-13.99h4.363l-7.747 18.803zm19.457.452q-3.386 0-5.265-1.505-1.843-1.504-1.843-4.249 0-2.933 1.956-4.475 1.992-1.542 5.528-1.542h4.776q-.226-2.068-1.166-3.159t-2.783-1.09q-1.354 0-2.369.564t-1.73 1.767l-3.685-1.354a9.4 9.4 0 0 1 1.579-2.294q1.016-1.09 2.52-1.73 1.541-.639 3.685-.639 2.745 0 4.588 1.091 1.842 1.053 2.708 3.046.902 1.993.902 4.813l-.113 10.304h-3.873l-.113-2.294a5.13 5.13 0 0 1-2.106 2.031q-1.316.715-3.196.715m.526-3.535q1.392 0 2.444-.602 1.09-.639 1.655-1.692a4.6 4.6 0 0 0 .602-2.332v-.376h-3.498q-2.519 0-3.535.715-1.014.677-1.015 1.955 0 1.09.865 1.73.903.602 2.482.602m19.159 3.535q-2.219 0-3.836-.903-1.58-.903-2.444-2.82-.865-1.918-.865-4.927v-10.605h4.212v9.628q0 2.219.526 3.459.527 1.242 1.429 1.73.94.489 2.144.489 2.143.037 3.309-1.391 1.166-1.43 1.166-4.099v-9.816h4.174v18.803h-3.948l-.188-2.67a6.4 6.4 0 0 1-2.37 2.332q-1.428.79-3.309.79m21.266 0q-2.97 0-4.55-1.467-1.542-1.504-1.542-4.287v-9.89h-3.121v-3.611h3.121v-5.866h4.175v5.866h5.076v3.611h-5.076v9.1q0 1.317.601 1.993.64.678 1.843.677.376 0 .827-.15.452-.15 1.016-.564l1.541 3.196a8 8 0 0 1-1.955 1.016 5.4 5.4 0 0 1-1.956.376m20.981 0q-3.386 0-5.265-1.505-1.843-1.504-1.843-4.249 0-2.933 1.956-4.475 1.992-1.542 5.528-1.542h4.776q-.226-2.068-1.166-3.159t-2.783-1.09q-1.354 0-2.369.564t-1.73 1.767l-3.685-1.354a9.4 9.4 0 0 1 1.579-2.294q1.016-1.09 2.52-1.73 1.541-.639 3.685-.639 2.745 0 4.588 1.091 1.842 1.053 2.708 3.046.902 1.993.902 4.813l-.113 10.304h-3.873l-.113-2.294a5.13 5.13 0 0 1-2.106 2.031q-1.316.715-3.196.715m.526-3.535q1.392 0 2.444-.602 1.09-.639 1.655-1.692a4.6 4.6 0 0 0 .602-2.332v-.376h-3.498q-2.519 0-3.535.715-1.014.677-1.015 1.955 0 1.09.865 1.73.903.602 2.482.602m.188-18.164-4.889-5.114h4.889l4.4 5.114z"/><path fill="#9be6aa" stroke="#9be6aa" stroke-linecap="round" stroke-width="2.118" d="M51.15 268.815v-.599a2.394 2.394 0 0 1 2.395-2.394h15.561a2.394 2.394 0 0 1 2.395 2.394v11.971a2.394 2.394 0 0 1-2.395 2.394H53.545a2.394 2.394 0 0 1-2.395-2.394z"/><path stroke="#000" stroke-linecap="round" stroke-linejoin="round" stroke-width="1.556" d="m53.906 268.688 7.024 4.682 7.023-4.682"/><path fill="#9be6aa" stroke="#9be6aa" stroke-linecap="round" stroke-width="2.044" d="M82.19 268.992v-.577a2.31 2.31 0 0 1 2.31-2.311h15.016a2.31 2.31 0 0 1 2.31 2.311v11.55a2.31 2.31 0 0 1-2.31 2.311H84.5a2.31 2.31 0 0 1-2.31-2.311z"/><path stroke="#000" stroke-linecap="round" stroke-linejoin="round" stroke-width="1.501" d="m84.848 268.87 6.777 4.518 6.777-4.518"/><path fill="#9be6aa" stroke="#9be6aa" stroke-linecap="round" stroke-width="2.044" d="M112.342 268.992v-.577a2.31 2.31 0 0 1 2.31-2.311h15.016a2.31 2.31 0 0 1 2.31 2.311v11.55a2.31 2.31 0 0 1-2.31 2.311h-15.016a2.31 2.31 0 0 1-2.31-2.311z"/><path stroke="#000" stroke-linecap="round" stroke-linejoin="round" stroke-width="1.501" d="m115 268.87 6.777 4.518 6.777-4.518"/><path fill="#9be6aa" stroke="#9be6aa" stroke-linecap="round" stroke-width="2.044" d="M142.496 268.992v-.577a2.31 2.31 0 0 1 2.31-2.311h15.016a2.31 2.31 0 0 1 2.31 2.311v11.55a2.31 2.31 0 0 1-2.31 2.311h-15.016a2.31 2.31 0 0 1-2.31-2.311z"/><path stroke="#000" stroke-linecap="round" stroke-linejoin="round" stroke-width="1.501" d="m145.154 268.87 6.777 4.518 6.777-4.518"/><path fill="#9be6aa" stroke="#9be6aa" stroke-linecap="round" stroke-width="2.044" d="M172.648 268.992v-.577a2.31 2.31 0 0 1 2.311-2.311h15.016a2.31 2.31 0 0 1 2.31 2.311v11.55a2.31 2.31 0 0 1-2.31 2.311h-15.016a2.31 2.31 0 0 1-2.311-2.311z"/><path stroke="#000" stroke-linecap="round" stroke-linejoin="round" stroke-width="1.501" d="m175.307 268.87 6.777 4.518 6.777-4.518"/><path fill="#9be6aa" stroke="#9be6aa" stroke-linecap="round" stroke-width="2.044" d="M202.803 268.992v-.577a2.31 2.31 0 0 1 2.31-2.311h15.016a2.31 2.31 0 0 1 2.31 2.311v11.55a2.31 2.31 0 0 1-2.31 2.311h-15.016a2.31 2.31 0 0 1-2.31-2.311z"/><path stroke="#000" stroke-linecap="round" stroke-linejoin="round" stroke-width="1.501" d="m205.461 268.87 6.777 4.518 6.777-4.518"/><path fill="#9be6aa" stroke="#9be6aa" stroke-linecap="round" stroke-width="2.044" d="M232.957 268.992v-.577a2.31 2.31 0 0 1 2.31-2.311h15.016a2.31 2.31 0 0 1 2.31 2.311v11.55a2.31 2.31 0 0 1-2.31 2.311h-15.016a2.31 2.31 0 0 1-2.31-2.311z"/><path stroke="#000" stroke-linecap="round" stroke-linejoin="round" stroke-width="1.501" d="m235.615 268.87 6.777 4.518 6.777-4.518"/><path fill="#9be6aa" stroke="#9be6aa" stroke-linecap="round" stroke-width="2.044" d="M263.109 268.992v-.577a2.31 2.31 0 0 1 2.311-2.311h15.015a2.31 2.31 0 0 1 2.311 2.311v11.55a2.31 2.31 0 0 1-2.311 2.311H265.42a2.31 2.31 0 0 1-2.311-2.311z"/><path stroke="#000" stroke-linecap="round" stroke-linejoin="round" stroke-width="1.501" d="m265.768 268.87 6.777 4.518 6.777-4.518"/><path fill="#9be6aa" stroke="#9be6aa" stroke-linecap="round" stroke-width="2.044" d="M293.264 268.992v-.577a2.31 2.31 0 0 1 2.31-2.311h15.016a2.31 2.31 0 0 1 2.31 2.311v11.55a2.31 2.31 0 0 1-2.31 2.311h-15.016a2.31 2.31 0 0 1-2.31-2.311z"/><path stroke="#000" stroke-linecap="round" stroke-linejoin="round" stroke-width="1.501" d="m295.922 268.87 6.777 4.518 6.777-4.518"/><path fill="#9be6aa" stroke="#9be6aa" stroke-linecap="round" stroke-width="2.044" d="M323.416 268.992v-.577a2.31 2.31 0 0 1 2.31-2.311h15.016a2.31 2.31 0 0 1 2.31 2.311v11.55a2.31 2.31 0 0 1-2.31 2.311h-15.016a2.31 2.31 0 0 1-2.31-2.311z"/><path stroke="#000" stroke-linecap="round" stroke-linejoin="round" stroke-width="1.501" d="m326.074 268.87 6.777 4.518 6.777-4.518"/><path fill="#9be6aa" stroke="#9be6aa" stroke-linecap="round" stroke-width="2.118" d="M51.15 294.255v-.598a2.394 2.394 0 0 1 2.395-2.395h15.561a2.394 2.394 0 0 1 2.395 2.395v11.97a2.394 2.394 0 0 1-2.395 2.394H53.545a2.394 2.394 0 0 1-2.395-2.394z"/><path stroke="#000" stroke-linecap="round" stroke-linejoin="round" stroke-width="1.556" d="m53.906 294.128 7.024 4.682 7.023-4.682"/><path fill="#9be6aa" stroke="#9be6aa" stroke-linecap="round" stroke-width="2.044" d="M82.19 294.433v-.578a2.31 2.31 0 0 1 2.31-2.31h15.016a2.31 2.31 0 0 1 2.31 2.31v11.551a2.31 2.31 0 0 1-2.31 2.31H84.5a2.31 2.31 0 0 1-2.31-2.31z"/><path stroke="#000" stroke-linecap="round" stroke-linejoin="round" stroke-width="1.501" d="m84.848 294.31 6.777 4.518 6.777-4.518"/><path fill="#9be6aa" stroke="#9be6aa" stroke-linecap="round" stroke-width="2.044" d="M112.342 294.433v-.578a2.31 2.31 0 0 1 2.31-2.31h15.016a2.31 2.31 0 0 1 2.31 2.31v11.551a2.31 2.31 0 0 1-2.31 2.31h-15.016a2.31 2.31 0 0 1-2.31-2.31z"/><path stroke="#000" stroke-linecap="round" stroke-linejoin="round" stroke-width="1.501" d="m115 294.31 6.777 4.518 6.777-4.518"/><path fill="#9be6aa" stroke="#9be6aa" stroke-linecap="round" stroke-width="2.044" d="M142.496 294.433v-.578a2.31 2.31 0 0 1 2.31-2.31h15.016a2.31 2.31 0 0 1 2.31 2.31v11.551a2.31 2.31 0 0 1-2.31 2.31h-15.016a2.31 2.31 0 0 1-2.31-2.31z"/><path stroke="#000" stroke-linecap="round" stroke-linejoin="round" stroke-width="1.501" d="m145.154 294.31 6.777 4.518 6.777-4.518"/><path fill="#9be6aa" stroke="#9be6aa" stroke-linecap="round" stroke-width="2.044" d="M172.648 294.433v-.578a2.31 2.31 0 0 1 2.311-2.31h15.016a2.31 2.31 0 0 1 2.31 2.31v11.551a2.31 2.31 0 0 1-2.31 2.31h-15.016a2.31 2.31 0 0 1-2.311-2.31z"/><path stroke="#000" stroke-linecap="round" stroke-linejoin="round" stroke-width="1.501" d="m175.307 294.31 6.777 4.518 6.777-4.518"/><path fill="#9be6aa" stroke="#9be6aa" stroke-linecap="round" stroke-width="2.044" d="M202.803 294.433v-.578a2.31 2.31 0 0 1 2.31-2.31h15.016a2.31 2.31 0 0 1 2.31 2.31v11.551a2.31 2.31 0 0 1-2.31 2.31h-15.016a2.31 2.31 0 0 1-2.31-2.31z"/><path stroke="#000" stroke-linecap="round" stroke-linejoin="round" stroke-width="1.501" d="m205.461 294.31 6.777 4.518 6.777-4.518"/><path fill="#9be6aa" stroke="#9be6aa" stroke-linecap="round" stroke-width="2.044" d="M232.957 294.433v-.578a2.31 2.31 0 0 1 2.31-2.31h15.016a2.31 2.31 0 0 1 2.31 2.31v11.551a2.31 2.31 0 0 1-2.31 2.31h-15.016a2.31 2.31 0 0 1-2.31-2.31z"/><path stroke="#000" stroke-linecap="round" stroke-linejoin="round" stroke-width="1.501" d="m235.615 294.31 6.777 4.518 6.777-4.518"/><path fill="#9be6aa" stroke="#9be6aa" stroke-linecap="round" stroke-width="2.044" d="M263.109 294.433v-.578a2.31 2.31 0 0 1 2.311-2.31h15.015a2.31 2.31 0 0 1 2.311 2.31v11.551a2.31 2.31 0 0 1-2.311 2.31H265.42a2.31 2.31 0 0 1-2.311-2.31z"/><path stroke="#000" stroke-linecap="round" stroke-linejoin="round" stroke-width="1.501" d="m265.768 294.31 6.777 4.518 6.777-4.518"/><path fill="#9be6aa" stroke="#9be6aa" stroke-linecap="round" stroke-width="2.044" d="M293.264 294.433v-.578a2.31 2.31 0 0 1 2.31-2.31h15.016a2.31 2.31 0 0 1 2.31 2.31v11.551a2.31 2.31 0 0 1-2.31 2.31h-15.016a2.31 2.31 0 0 1-2.31-2.31z"/><path stroke="#000" stroke-linecap="round" stroke-linejoin="round" stroke-width="1.501" d="m295.922 294.31 6.777 4.518 6.777-4.518"/><path fill="#9be6aa" stroke="#9be6aa" stroke-linecap="round" stroke-width="2.044" d="M323.416 294.433v-.578a2.31 2.31 0 0 1 2.31-2.31h15.016a2.31 2.31 0 0 1 2.31 2.31v11.551a2.31 2.31 0 0 1-2.31 2.31h-15.016a2.31 2.31 0 0 1-2.31-2.31z"/><path stroke="#000" stroke-linecap="round" stroke-linejoin="round" stroke-width="1.501" d="m326.074 294.31 6.777 4.518 6.777-4.518"/><path fill="#9be6aa" stroke="#9be6aa" stroke-linecap="round" stroke-width="2.118" d="M51.15 319.696v-.599a2.394 2.394 0 0 1 2.395-2.394h15.561a2.394 2.394 0 0 1 2.395 2.394v11.971a2.394 2.394 0 0 1-2.395 2.394H53.545a2.394 2.394 0 0 1-2.395-2.394z"/><path stroke="#000" stroke-linecap="round" stroke-linejoin="round" stroke-width="1.556" d="m53.906 319.569 7.024 4.682 7.023-4.682"/><path fill="#9be6aa" stroke="#9be6aa" stroke-linecap="round" stroke-width="2.044" d="M82.19 319.873v-.578a2.31 2.31 0 0 1 2.31-2.31h15.016a2.31 2.31 0 0 1 2.31 2.31v11.551a2.31 2.31 0 0 1-2.31 2.31H84.5a2.31 2.31 0 0 1-2.31-2.31z"/><path stroke="#000" stroke-linecap="round" stroke-linejoin="round" stroke-width="1.501" d="m84.848 319.75 6.777 4.519 6.777-4.519"/><path fill="#9be6aa" stroke="#9be6aa" stroke-linecap="round" stroke-width="2.044" d="M112.342 319.873v-.578a2.31 2.31 0 0 1 2.31-2.31h15.016a2.31 2.31 0 0 1 2.31 2.31v11.551a2.31 2.31 0 0 1-2.31 2.31h-15.016a2.31 2.31 0 0 1-2.31-2.31z"/><path stroke="#000" stroke-linecap="round" stroke-linejoin="round" stroke-width="1.501" d="m115 319.75 6.777 4.519 6.777-4.519"/><path fill="#9be6aa" stroke="#9be6aa" stroke-linecap="round" stroke-width="2.044" d="M142.496 319.873v-.578a2.31 2.31 0 0 1 2.31-2.31h15.016a2.31 2.31 0 0 1 2.31 2.31v11.551a2.31 2.31 0 0 1-2.31 2.31h-15.016a2.31 2.31 0 0 1-2.31-2.31z"/><path stroke="#000" stroke-linecap="round" stroke-linejoin="round" stroke-width="1.501" d="m145.154 319.75 6.777 4.519 6.777-4.519"/><path fill="#9be6aa" stroke="#9be6aa" stroke-linecap="round" stroke-width="2.044" d="M172.648 319.873v-.578a2.31 2.31 0 0 1 2.311-2.31h15.016a2.31 2.31 0 0 1 2.31 2.31v11.551a2.31 2.31 0 0 1-2.31 2.31h-15.016a2.31 2.31 0 0 1-2.311-2.31z"/><path stroke="#000" stroke-linecap="round" stroke-linejoin="round" stroke-width="1.501" d="m175.307 319.75 6.777 4.519 6.777-4.519"/><path fill="#9be6aa" stroke="#9be6aa" stroke-linecap="round" stroke-width="2.044" d="M202.803 319.873v-.578a2.31 2.31 0 0 1 2.31-2.31h15.016a2.31 2.31 0 0 1 2.31 2.31v11.551a2.31 2.31 0 0 1-2.31 2.31h-15.016a2.31 2.31 0 0 1-2.31-2.31z"/><path stroke="#000" stroke-linecap="round" stroke-linejoin="round" stroke-width="1.501" d="m205.461 319.75 6.777 4.519 6.777-4.519"/><path fill="#9be6aa" stroke="#9be6aa" stroke-linecap="round" stroke-width="2.044" d="M232.957 319.873v-.578a2.31 2.31 0 0 1 2.31-2.31h15.016a2.31 2.31 0 0 1 2.31 2.31v11.551a2.31 2.31 0 0 1-2.31 2.31h-15.016a2.31 2.31 0 0 1-2.31-2.31z"/><path stroke="#000" stroke-linecap="round" stroke-linejoin="round" stroke-width="1.501" d="m235.615 319.75 6.777 4.519 6.777-4.519"/><path fill="#9be6aa" stroke="#9be6aa" stroke-linecap="round" stroke-width="2.044" d="M263.109 319.873v-.578a2.31 2.31 0 0 1 2.311-2.31h15.015a2.31 2.31 0 0 1 2.311 2.31v11.551a2.31 2.31 0 0 1-2.311 2.31H265.42a2.31 2.31 0 0 1-2.311-2.31z"/><path stroke="#000" stroke-linecap="round" stroke-linejoin="round" stroke-width="1.501" d="m265.768 319.75 6.777 4.519 6.777-4.519"/><path fill="#9be6aa" stroke="#9be6aa" stroke-linecap="round" stroke-width="2.044" d="M293.264 319.873v-.578a2.31 2.31 0 0 1 2.31-2.31h15.016a2.31 2.31 0 0 1 2.31 2.31v11.551a2.31 2.31 0 0 1-2.31 2.31h-15.016a2.31 2.31 0 0 1-2.31-2.31z"/><path stroke="#000" stroke-linecap="round" stroke-linejoin="round" stroke-width="1.501" d="m295.922 319.75 6.777 4.519 6.777-4.519"/><path fill="#9be6aa" stroke="#9be6aa" stroke-linecap="round" stroke-width="2.044" d="M323.416 319.873v-.578a2.31 2.31 0 0 1 2.31-2.31h15.016a2.31 2.31 0 0 1 2.31 2.31v11.551a2.31 2.31 0 0 1-2.31 2.31h-15.016a2.31 2.31 0 0 1-2.31-2.31z"/><path stroke="#000" stroke-linecap="round" stroke-linejoin="round" stroke-width="1.501" d="m326.074 319.75 6.777 4.519 6.777-4.519"/><path fill="#9be6aa" stroke="#9be6aa" stroke-linecap="round" stroke-width="2.118" d="M51.15 345.136v-.599a2.394 2.394 0 0 1 2.395-2.394h15.561a2.394 2.394 0 0 1 2.395 2.394v11.971a2.394 2.394 0 0 1-2.395 2.394H53.545a2.394 2.394 0 0 1-2.395-2.394z"/><path stroke="#000" stroke-linecap="round" stroke-linejoin="round" stroke-width="1.556" d="m53.906 345.009 7.024 4.682 7.023-4.682"/><path fill="#9be6aa" stroke="#9be6aa" stroke-linecap="round" stroke-width="2.044" d="M82.19 345.313v-.577a2.31 2.31 0 0 1 2.31-2.31h15.016a2.31 2.31 0 0 1 2.31 2.31v11.551a2.31 2.31 0 0 1-2.31 2.31H84.5a2.31 2.31 0 0 1-2.31-2.31z"/><path stroke="#000" stroke-linecap="round" stroke-linejoin="round" stroke-width="1.501" d="m84.848 345.191 6.777 4.518 6.777-4.518"/><path fill="#9be6aa" stroke="#9be6aa" stroke-linecap="round" stroke-width="2.044" d="M112.342 345.313v-.577a2.31 2.31 0 0 1 2.31-2.31h15.016a2.31 2.31 0 0 1 2.31 2.31v11.551a2.31 2.31 0 0 1-2.31 2.31h-15.016a2.31 2.31 0 0 1-2.31-2.31z"/><path stroke="#000" stroke-linecap="round" stroke-linejoin="round" stroke-width="1.501" d="m115 345.191 6.777 4.518 6.777-4.518"/><path fill="#9be6aa" stroke="#9be6aa" stroke-linecap="round" stroke-width="2.044" d="M142.496 345.313v-.577a2.31 2.31 0 0 1 2.31-2.31h15.016a2.31 2.31 0 0 1 2.31 2.31v11.551a2.31 2.31 0 0 1-2.31 2.31h-15.016a2.31 2.31 0 0 1-2.31-2.31z"/><path stroke="#000" stroke-linecap="round" stroke-linejoin="round" stroke-width="1.501" d="m145.154 345.191 6.777 4.518 6.777-4.518"/><path fill="#9be6aa" stroke="#9be6aa" stroke-linecap="round" stroke-width="2.044" d="M172.648 345.313v-.577a2.31 2.31 0 0 1 2.311-2.31h15.016a2.31 2.31 0 0 1 2.31 2.31v11.551a2.31 2.31 0 0 1-2.31 2.31h-15.016a2.31 2.31 0 0 1-2.311-2.31z"/><path stroke="#000" stroke-linecap="round" stroke-linejoin="round" stroke-width="1.501" d="m175.307 345.191 6.777 4.518 6.777-4.518"/><path fill="#9be6aa" stroke="#9be6aa" stroke-linecap="round" stroke-width="2.044" d="M202.803 345.313v-.577a2.31 2.31 0 0 1 2.31-2.31h15.016a2.31 2.31 0 0 1 2.31 2.31v11.551a2.31 2.31 0 0 1-2.31 2.31h-15.016a2.31 2.31 0 0 1-2.31-2.31z"/><path stroke="#000" stroke-linecap="round" stroke-linejoin="round" stroke-width="1.501" d="m205.461 345.191 6.777 4.518 6.777-4.518"/><path fill="#9be6aa" stroke="#9be6aa" stroke-linecap="round" stroke-width="2.044" d="M232.957 345.313v-.577a2.31 2.31 0 0 1 2.31-2.31h15.016a2.31 2.31 0 0 1 2.31 2.31v11.551a2.31 2.31 0 0 1-2.31 2.31h-15.016a2.31 2.31 0 0 1-2.31-2.31z"/><path stroke="#000" stroke-linecap="round" stroke-linejoin="round" stroke-width="1.501" d="m235.615 345.191 6.777 4.518 6.777-4.518"/><path fill="#9be6aa" stroke="#9be6aa" stroke-linecap="round" stroke-width="2.044" d="M263.109 345.313v-.577a2.31 2.31 0 0 1 2.311-2.31h15.015a2.31 2.31 0 0 1 2.311 2.31v11.551a2.31 2.31 0 0 1-2.311 2.31H265.42a2.31 2.31 0 0 1-2.311-2.31z"/><path stroke="#000" stroke-linecap="round" stroke-linejoin="round" stroke-width="1.501" d="m265.768 345.191 6.777 4.518 6.777-4.518"/><path fill="#9be6aa" stroke="#9be6aa" stroke-linecap="round" stroke-width="2.044" d="M293.264 345.313v-.577a2.31 2.31 0 0 1 2.31-2.31h15.016a2.31 2.31 0 0 1 2.31 2.31v11.551a2.31 2.31 0 0 1-2.31 2.31h-15.016a2.31 2.31 0 0 1-2.31-2.31z"/><path stroke="#000" stroke-linecap="round" stroke-linejoin="round" stroke-width="1.501" d="m295.922 345.191 6.777 4.518 6.777-4.518"/><path fill="#9be6aa" stroke="#9be6aa" stroke-linecap="round" stroke-width="2.044" d="M323.416 345.313v-.577a2.31 2.31 0 0 1 2.31-2.31h15.016a2.31 2.31 0 0 1 2.31 2.31v11.551a2.31 2.31 0 0 1-2.31 2.31h-15.016a2.31 2.31 0 0 1-2.31-2.31z"/><path stroke="#000" stroke-linecap="round" stroke-linejoin="round" stroke-width="1.501" d="m326.074 345.191 6.777 4.518 6.777-4.518"/><path fill="#9be6aa" stroke="#9be6aa" stroke-linecap="round" stroke-width="2.118" d="M51.15 370.577v-.599a2.394 2.394 0 0 1 2.395-2.394h15.561a2.394 2.394 0 0 1 2.395 2.394v11.971a2.394 2.394 0 0 1-2.395 2.394H53.545a2.394 2.394 0 0 1-2.395-2.394z"/><path stroke="#000" stroke-linecap="round" stroke-linejoin="round" stroke-width="1.556" d="m53.906 370.45 7.024 4.682 7.023-4.682"/><path fill="#9be6aa" stroke="#9be6aa" stroke-linecap="round" stroke-width="2.044" d="M82.19 370.754v-.577a2.31 2.31 0 0 1 2.31-2.311h15.016a2.31 2.31 0 0 1 2.31 2.311v11.55a2.31 2.31 0 0 1-2.31 2.31H84.5a2.31 2.31 0 0 1-2.31-2.31z"/><path stroke="#000" stroke-linecap="round" stroke-linejoin="round" stroke-width="1.501" d="m84.848 370.632 6.777 4.518 6.777-4.518"/><path fill="#9be6aa" stroke="#9be6aa" stroke-linecap="round" stroke-width="2.044" d="M112.342 370.754v-.577a2.31 2.31 0 0 1 2.31-2.311h15.016a2.31 2.31 0 0 1 2.31 2.311v11.55a2.31 2.31 0 0 1-2.31 2.31h-15.016a2.31 2.31 0 0 1-2.31-2.31z"/><path stroke="#000" stroke-linecap="round" stroke-linejoin="round" stroke-width="1.501" d="m115 370.632 6.777 4.518 6.777-4.518"/><path fill="#9be6aa" stroke="#9be6aa" stroke-linecap="round" stroke-width="2.044" d="M142.496 370.754v-.577a2.31 2.31 0 0 1 2.31-2.311h15.016a2.31 2.31 0 0 1 2.31 2.311v11.55a2.31 2.31 0 0 1-2.31 2.31h-15.016a2.31 2.31 0 0 1-2.31-2.31z"/><path stroke="#000" stroke-linecap="round" stroke-linejoin="round" stroke-width="1.501" d="m145.154 370.632 6.777 4.518 6.777-4.518"/><path fill="#9be6aa" stroke="#9be6aa" stroke-linecap="round" stroke-width="2.044" d="M172.648 370.754v-.577a2.31 2.31 0 0 1 2.311-2.311h15.016a2.31 2.31 0 0 1 2.31 2.311v11.55a2.31 2.31 0 0 1-2.31 2.31h-15.016a2.31 2.31 0 0 1-2.311-2.31z"/><path stroke="#000" stroke-linecap="round" stroke-linejoin="round" stroke-width="1.501" d="m175.307 370.632 6.777 4.518 6.777-4.518"/><path fill="#9be6aa" stroke="#9be6aa" stroke-linecap="round" stroke-width="2.044" d="M202.803 370.754v-.577a2.31 2.31 0 0 1 2.31-2.311h15.016a2.31 2.31 0 0 1 2.31 2.311v11.55a2.31 2.31 0 0 1-2.31 2.31h-15.016a2.31 2.31 0 0 1-2.31-2.31z"/><path stroke="#000" stroke-linecap="round" stroke-linejoin="round" stroke-width="1.501" d="m205.461 370.632 6.777 4.518 6.777-4.518"/><path fill="#9be6aa" stroke="#9be6aa" stroke-linecap="round" stroke-width="2.044" d="M232.957 370.754v-.577a2.31 2.31 0 0 1 2.31-2.311h15.016a2.31 2.31 0 0 1 2.31 2.311v11.55a2.31 2.31 0 0 1-2.31 2.31h-15.016a2.31 2.31 0 0 1-2.31-2.31z"/><path stroke="#000" stroke-linecap="round" stroke-linejoin="round" stroke-width="1.501" d="m235.615 370.632 6.777 4.518 6.777-4.518"/><path fill="#9be6aa" stroke="#9be6aa" stroke-linecap="round" stroke-width="2.044" d="M263.109 370.754v-.577a2.31 2.31 0 0 1 2.311-2.311h15.015a2.31 2.31 0 0 1 2.311 2.311v11.55a2.31 2.31 0 0 1-2.311 2.31H265.42a2.31 2.31 0 0 1-2.311-2.31z"/><path stroke="#000" stroke-linecap="round" stroke-linejoin="round" stroke-width="1.501" d="m265.768 370.632 6.777 4.518 6.777-4.518"/><path fill="#9be6aa" stroke="#9be6aa" stroke-linecap="round" stroke-width="2.044" d="M293.264 370.754v-.577a2.31 2.31 0 0 1 2.31-2.311h15.016a2.31 2.31 0 0 1 2.31 2.311v11.55a2.31 2.31 0 0 1-2.31 2.31h-15.016a2.31 2.31 0 0 1-2.31-2.31z"/><path stroke="#000" stroke-linecap="round" stroke-linejoin="round" stroke-width="1.501" d="m295.922 370.632 6.777 4.518 6.777-4.518"/><path fill="#9be6aa" stroke="#9be6aa" stroke-linecap="round" stroke-width="2.044" d="M323.416 370.754v-.577a2.31 2.31 0 0 1 2.31-2.311h15.016a2.31 2.31 0 0 1 2.31 2.311v11.55a2.31 2.31 0 0 1-2.31 2.31h-15.016a2.31 2.31 0 0 1-2.31-2.31z"/><path stroke="#000" stroke-linecap="round" stroke-linejoin="round" stroke-width="1.501" d="m326.074 370.632 6.777 4.518 6.777-4.518"/><path fill="#9be6aa" stroke="#9be6aa" stroke-linecap="round" stroke-width="2.118" d="M51.15 396.017v-.598a2.394 2.394 0 0 1 2.395-2.395h15.561a2.394 2.394 0 0 1 2.395 2.395v11.97a2.394 2.394 0 0 1-2.395 2.394H53.545a2.394 2.394 0 0 1-2.395-2.394z"/><path stroke="#000" stroke-linecap="round" stroke-linejoin="round" stroke-width="1.556" d="m53.906 395.89 7.024 4.682 7.023-4.682"/><path fill="#9be6aa" stroke="#9be6aa" stroke-linecap="round" stroke-width="2.044" d="M82.19 396.195v-.578a2.31 2.31 0 0 1 2.31-2.31h15.016a2.31 2.31 0 0 1 2.31 2.31v11.551a2.31 2.31 0 0 1-2.31 2.31H84.5a2.31 2.31 0 0 1-2.31-2.31z"/><path stroke="#000" stroke-linecap="round" stroke-linejoin="round" stroke-width="1.501" d="m84.848 396.072 6.777 4.518 6.777-4.518"/><path fill="#9be6aa" stroke="#9be6aa" stroke-linecap="round" stroke-width="2.044" d="M112.342 396.195v-.578a2.31 2.31 0 0 1 2.31-2.31h15.016a2.31 2.31 0 0 1 2.31 2.31v11.551a2.31 2.31 0 0 1-2.31 2.31h-15.016a2.31 2.31 0 0 1-2.31-2.31z"/><path stroke="#000" stroke-linecap="round" stroke-linejoin="round" stroke-width="1.501" d="m115 396.072 6.777 4.518 6.777-4.518"/><path fill="#9be6aa" stroke="#9be6aa" stroke-linecap="round" stroke-width="2.044" d="M142.496 396.195v-.578a2.31 2.31 0 0 1 2.31-2.31h15.016a2.31 2.31 0 0 1 2.31 2.31v11.551a2.31 2.31 0 0 1-2.31 2.31h-15.016a2.31 2.31 0 0 1-2.31-2.31z"/><path stroke="#000" stroke-linecap="round" stroke-linejoin="round" stroke-width="1.501" d="m145.154 396.072 6.777 4.518 6.777-4.518"/><path fill="#9be6aa" stroke="#9be6aa" stroke-linecap="round" stroke-width="2.044" d="M172.648 396.195v-.578a2.31 2.31 0 0 1 2.311-2.31h15.016a2.31 2.31 0 0 1 2.31 2.31v11.551a2.31 2.31 0 0 1-2.31 2.31h-15.016a2.31 2.31 0 0 1-2.311-2.31z"/><path stroke="#000" stroke-linecap="round" stroke-linejoin="round" stroke-width="1.501" d="m175.307 396.072 6.777 4.518 6.777-4.518"/><path fill="#9be6aa" stroke="#9be6aa" stroke-linecap="round" stroke-width="2.044" d="M202.803 396.195v-.578a2.31 2.31 0 0 1 2.31-2.31h15.016a2.31 2.31 0 0 1 2.31 2.31v11.551a2.31 2.31 0 0 1-2.31 2.31h-15.016a2.31 2.31 0 0 1-2.31-2.31z"/><path stroke="#000" stroke-linecap="round" stroke-linejoin="round" stroke-width="1.501" d="m205.461 396.072 6.777 4.518 6.777-4.518"/><path fill="#9be6aa" stroke="#9be6aa" stroke-linecap="round" stroke-width="2.044" d="M232.957 396.195v-.578a2.31 2.31 0 0 1 2.31-2.31h15.016a2.31 2.31 0 0 1 2.31 2.31v11.551a2.31 2.31 0 0 1-2.31 2.31h-15.016a2.31 2.31 0 0 1-2.31-2.31z"/><path stroke="#000" stroke-linecap="round" stroke-linejoin="round" stroke-width="1.501" d="m235.615 396.072 6.777 4.518 6.777-4.518"/><path fill="#9be6aa" stroke="#9be6aa" stroke-linecap="round" stroke-width="2.044" d="M263.109 396.195v-.578a2.31 2.31 0 0 1 2.311-2.31h15.015a2.31 2.31 0 0 1 2.311 2.31v11.551a2.31 2.31 0 0 1-2.311 2.31H265.42a2.31 2.31 0 0 1-2.311-2.31z"/><path stroke="#000" stroke-linecap="round" stroke-linejoin="round" stroke-width="1.501" d="m265.768 396.072 6.777 4.518 6.777-4.518"/><path fill="#9be6aa" stroke="#9be6aa" stroke-linecap="round" stroke-width="2.044" d="M293.264 396.195v-.578a2.31 2.31 0 0 1 2.31-2.31h15.016a2.31 2.31 0 0 1 2.31 2.31v11.551a2.31 2.31 0 0 1-2.31 2.31h-15.016a2.31 2.31 0 0 1-2.31-2.31z"/><path stroke="#000" stroke-linecap="round" stroke-linejoin="round" stroke-width="1.501" d="m295.922 396.072 6.777 4.518 6.777-4.518"/><path fill="#9be6aa" stroke="#9be6aa" stroke-linecap="round" stroke-width="2.044" d="M323.416 396.195v-.578a2.31 2.31 0 0 1 2.31-2.31h15.016a2.31 2.31 0 0 1 2.31 2.31v11.551a2.31 2.31 0 0 1-2.31 2.31h-15.016a2.31 2.31 0 0 1-2.31-2.31z"/><path stroke="#000" stroke-linecap="round" stroke-linejoin="round" stroke-width="1.501" d="m326.074 396.072 6.777 4.518 6.777-4.518"/><path fill="#9be6aa" stroke="#9be6aa" stroke-linecap="round" stroke-width="2.118" d="M51.15 421.458v-.599a2.394 2.394 0 0 1 2.395-2.394h15.561a2.394 2.394 0 0 1 2.395 2.394v11.971a2.394 2.394 0 0 1-2.395 2.394H53.545a2.394 2.394 0 0 1-2.395-2.394z"/><path stroke="#000" stroke-linecap="round" stroke-linejoin="round" stroke-width="1.556" d="m53.906 421.331 7.024 4.682 7.023-4.682"/><path fill="#9be6aa" stroke="#9be6aa" stroke-linecap="round" stroke-width="2.044" d="M82.19 421.635v-.578a2.31 2.31 0 0 1 2.31-2.31h15.016a2.31 2.31 0 0 1 2.31 2.31v11.551a2.31 2.31 0 0 1-2.31 2.31H84.5a2.31 2.31 0 0 1-2.31-2.31z"/><path stroke="#000" stroke-linecap="round" stroke-linejoin="round" stroke-width="1.501" d="m84.848 421.512 6.777 4.518 6.777-4.518"/><path fill="#9be6aa" stroke="#9be6aa" stroke-linecap="round" stroke-width="2.044" d="M112.342 421.635v-.578a2.31 2.31 0 0 1 2.31-2.31h15.016a2.31 2.31 0 0 1 2.31 2.31v11.551a2.31 2.31 0 0 1-2.31 2.31h-15.016a2.31 2.31 0 0 1-2.31-2.31z"/><path stroke="#000" stroke-linecap="round" stroke-linejoin="round" stroke-width="1.501" d="m115 421.512 6.777 4.518 6.777-4.518"/><path fill="#9be6aa" stroke="#9be6aa" stroke-linecap="round" stroke-width="2.044" d="M142.496 421.635v-.578a2.31 2.31 0 0 1 2.31-2.31h15.016a2.31 2.31 0 0 1 2.31 2.31v11.551a2.31 2.31 0 0 1-2.31 2.31h-15.016a2.31 2.31 0 0 1-2.31-2.31z"/><path stroke="#000" stroke-linecap="round" stroke-linejoin="round" stroke-width="1.501" d="m145.154 421.512 6.777 4.518 6.777-4.518"/><path fill="#9be6aa" stroke="#9be6aa" stroke-linecap="round" stroke-width="2.044" d="M172.648 421.635v-.578a2.31 2.31 0 0 1 2.311-2.31h15.016a2.31 2.31 0 0 1 2.31 2.31v11.551a2.31 2.31 0 0 1-2.31 2.31h-15.016a2.31 2.31 0 0 1-2.311-2.31z"/><path stroke="#000" stroke-linecap="round" stroke-linejoin="round" stroke-width="1.501" d="m175.307 421.512 6.777 4.518 6.777-4.518"/><path fill="#9be6aa" stroke="#9be6aa" stroke-linecap="round" stroke-width="2.044" d="M202.803 421.635v-.578a2.31 2.31 0 0 1 2.31-2.31h15.016a2.31 2.31 0 0 1 2.31 2.31v11.551a2.31 2.31 0 0 1-2.31 2.31h-15.016a2.31 2.31 0 0 1-2.31-2.31z"/><path stroke="#000" stroke-linecap="round" stroke-linejoin="round" stroke-width="1.501" d="m205.461 421.512 6.777 4.518 6.777-4.518"/><path fill="#9be6aa" stroke="#9be6aa" stroke-linecap="round" stroke-width="2.044" d="M232.957 421.635v-.578a2.31 2.31 0 0 1 2.31-2.31h15.016a2.31 2.31 0 0 1 2.31 2.31v11.551a2.31 2.31 0 0 1-2.31 2.31h-15.016a2.31 2.31 0 0 1-2.31-2.31z"/><path stroke="#000" stroke-linecap="round" stroke-linejoin="round" stroke-width="1.501" d="m235.615 421.512 6.777 4.518 6.777-4.518"/><path fill="#9be6aa" stroke="#9be6aa" stroke-linecap="round" stroke-width="2.044" d="M263.109 421.635v-.578a2.31 2.31 0 0 1 2.311-2.31h15.015a2.31 2.31 0 0 1 2.311 2.31v11.551a2.31 2.31 0 0 1-2.311 2.31H265.42a2.31 2.31 0 0 1-2.311-2.31z"/><path stroke="#000" stroke-linecap="round" stroke-linejoin="round" stroke-width="1.501" d="m265.768 421.512 6.777 4.518 6.777-4.518"/><path fill="#9be6aa" stroke="#9be6aa" stroke-linecap="round" stroke-width="2.044" d="M293.264 421.635v-.578a2.31 2.31 0 0 1 2.31-2.31h15.016a2.31 2.31 0 0 1 2.31 2.31v11.551a2.31 2.31 0 0 1-2.31 2.31h-15.016a2.31 2.31 0 0 1-2.31-2.31z"/><path stroke="#000" stroke-linecap="round" stroke-linejoin="round" stroke-width="1.501" d="m295.922 421.512 6.777 4.518 6.777-4.518"/><path fill="#9be6aa" stroke="#9be6aa" stroke-linecap="round" stroke-width="2.044" d="M323.416 421.635v-.578a2.31 2.31 0 0 1 2.31-2.31h15.016a2.31 2.31 0 0 1 2.31 2.31v11.551a2.31 2.31 0 0 1-2.31 2.31h-15.016a2.31 2.31 0 0 1-2.31-2.31z"/><path stroke="#000" stroke-linecap="round" stroke-linejoin="round" stroke-width="1.501" d="m326.074 421.512 6.777 4.518 6.777-4.518"/><path fill="#9be6aa" stroke="#9be6aa" stroke-linecap="round" stroke-width="2.118" d="M51.15 446.898v-.599a2.394 2.394 0 0 1 2.395-2.394h15.561a2.394 2.394 0 0 1 2.395 2.394v11.971a2.394 2.394 0 0 1-2.395 2.394H53.545a2.394 2.394 0 0 1-2.395-2.394z"/><path stroke="#000" stroke-linecap="round" stroke-linejoin="round" stroke-width="1.556" d="m53.906 446.771 7.024 4.682 7.023-4.682"/><path fill="#9be6aa" stroke="#9be6aa" stroke-linecap="round" stroke-width="2.044" d="M82.19 447.075v-.577a2.31 2.31 0 0 1 2.31-2.31h15.016a2.31 2.31 0 0 1 2.31 2.31v11.551a2.31 2.31 0 0 1-2.31 2.31H84.5a2.31 2.31 0 0 1-2.31-2.31z"/><path stroke="#000" stroke-linecap="round" stroke-linejoin="round" stroke-width="1.501" d="m84.848 446.953 6.777 4.518 6.777-4.518"/><path fill="#9be6aa" stroke="#9be6aa" stroke-linecap="round" stroke-width="2.044" d="M112.342 447.075v-.577a2.31 2.31 0 0 1 2.31-2.31h15.016a2.31 2.31 0 0 1 2.31 2.31v11.551a2.31 2.31 0 0 1-2.31 2.31h-15.016a2.31 2.31 0 0 1-2.31-2.31z"/><path stroke="#000" stroke-linecap="round" stroke-linejoin="round" stroke-width="1.501" d="m115 446.953 6.777 4.518 6.777-4.518"/><path fill="#9be6aa" stroke="#9be6aa" stroke-linecap="round" stroke-width="2.044" d="M142.496 447.075v-.577a2.31 2.31 0 0 1 2.31-2.31h15.016a2.31 2.31 0 0 1 2.31 2.31v11.551a2.31 2.31 0 0 1-2.31 2.31h-15.016a2.31 2.31 0 0 1-2.31-2.31z"/><path stroke="#000" stroke-linecap="round" stroke-linejoin="round" stroke-width="1.501" d="m145.154 446.953 6.777 4.518 6.777-4.518"/><path fill="#9be6aa" stroke="#9be6aa" stroke-linecap="round" stroke-width="2.044" d="M172.648 447.075v-.577a2.31 2.31 0 0 1 2.311-2.31h15.016a2.31 2.31 0 0 1 2.31 2.31v11.551a2.31 2.31 0 0 1-2.31 2.31h-15.016a2.31 2.31 0 0 1-2.311-2.31z"/><path stroke="#000" stroke-linecap="round" stroke-linejoin="round" stroke-width="1.501" d="m175.307 446.953 6.777 4.518 6.777-4.518"/><path fill="#9be6aa" stroke="#9be6aa" stroke-linecap="round" stroke-width="2.044" d="M202.803 447.075v-.577a2.31 2.31 0 0 1 2.31-2.31h15.016a2.31 2.31 0 0 1 2.31 2.31v11.551a2.31 2.31 0 0 1-2.31 2.31h-15.016a2.31 2.31 0 0 1-2.31-2.31z"/><path stroke="#000" stroke-linecap="round" stroke-linejoin="round" stroke-width="1.501" d="m205.461 446.953 6.777 4.518 6.777-4.518"/><path fill="#9be6aa" stroke="#9be6aa" stroke-linecap="round" stroke-width="2.044" d="M232.957 447.075v-.577a2.31 2.31 0 0 1 2.31-2.31h15.016a2.31 2.31 0 0 1 2.31 2.31v11.551a2.31 2.31 0 0 1-2.31 2.31h-15.016a2.31 2.31 0 0 1-2.31-2.31z"/><path stroke="#000" stroke-linecap="round" stroke-linejoin="round" stroke-width="1.501" d="m235.615 446.953 6.777 4.518 6.777-4.518"/><path fill="#9be6aa" stroke="#9be6aa" stroke-linecap="round" stroke-width="2.044" d="M263.109 447.075v-.577a2.31 2.31 0 0 1 2.311-2.31h15.015a2.31 2.31 0 0 1 2.311 2.31v11.551a2.31 2.31 0 0 1-2.311 2.31H265.42a2.31 2.31 0 0 1-2.311-2.31z"/><path stroke="#000" stroke-linecap="round" stroke-linejoin="round" stroke-width="1.501" d="m265.768 446.953 6.777 4.518 6.777-4.518"/><path fill="#9be6aa" stroke="#9be6aa" stroke-linecap="round" stroke-width="2.044" d="M293.264 447.075v-.577a2.31 2.31 0 0 1 2.31-2.31h15.016a2.31 2.31 0 0 1 2.31 2.31v11.551a2.31 2.31 0 0 1-2.31 2.31h-15.016a2.31 2.31 0 0 1-2.31-2.31z"/><path stroke="#000" stroke-linecap="round" stroke-linejoin="round" stroke-width="1.501" d="m295.922 446.953 6.777 4.518 6.777-4.518"/><path fill="#9be6aa" stroke="#9be6aa" stroke-linecap="round" stroke-width="2.044" d="M323.416 447.075v-.577a2.31 2.31 0 0 1 2.31-2.31h15.016a2.31 2.31 0 0 1 2.31 2.31v11.551a2.31 2.31 0 0 1-2.31 2.31h-15.016a2.31 2.31 0 0 1-2.31-2.31z"/><path stroke="#000" stroke-linecap="round" stroke-linejoin="round" stroke-width="1.501" d="m326.074 446.953 6.777 4.518 6.777-4.518"/><path fill="#9be6aa" stroke="#9be6aa" stroke-linecap="round" stroke-width="2.118" d="M51.15 472.338v-.598a2.394 2.394 0 0 1 2.395-2.394h15.561a2.394 2.394 0 0 1 2.395 2.394v11.971a2.394 2.394 0 0 1-2.395 2.394H53.545a2.394 2.394 0 0 1-2.395-2.394z"/><path stroke="#000" stroke-linecap="round" stroke-linejoin="round" stroke-width="1.556" d="m53.906 472.211 7.024 4.683 7.023-4.683"/><path fill="#9be6aa" stroke="#9be6aa" stroke-linecap="round" stroke-width="2.044" d="M82.19 472.516v-.578a2.31 2.31 0 0 1 2.31-2.31h15.016a2.31 2.31 0 0 1 2.31 2.31v11.551a2.31 2.31 0 0 1-2.31 2.31H84.5a2.31 2.31 0 0 1-2.31-2.31z"/><path stroke="#000" stroke-linecap="round" stroke-linejoin="round" stroke-width="1.501" d="m84.848 472.393 6.777 4.518 6.777-4.518"/><path fill="#9be6aa" stroke="#9be6aa" stroke-linecap="round" stroke-width="2.044" d="M112.342 472.516v-.578a2.31 2.31 0 0 1 2.31-2.31h15.016a2.31 2.31 0 0 1 2.31 2.31v11.551a2.31 2.31 0 0 1-2.31 2.31h-15.016a2.31 2.31 0 0 1-2.31-2.31z"/><path stroke="#000" stroke-linecap="round" stroke-linejoin="round" stroke-width="1.501" d="m115 472.393 6.777 4.518 6.777-4.518"/><path fill="#9be6aa" stroke="#9be6aa" stroke-linecap="round" stroke-width="2.044" d="M142.496 472.516v-.578a2.31 2.31 0 0 1 2.31-2.31h15.016a2.31 2.31 0 0 1 2.31 2.31v11.551a2.31 2.31 0 0 1-2.31 2.31h-15.016a2.31 2.31 0 0 1-2.31-2.31z"/><path stroke="#000" stroke-linecap="round" stroke-linejoin="round" stroke-width="1.501" d="m145.154 472.393 6.777 4.518 6.777-4.518"/><path fill="#9be6aa" stroke="#9be6aa" stroke-linecap="round" stroke-width="2.044" d="M172.648 472.516v-.578a2.31 2.31 0 0 1 2.311-2.31h15.016a2.31 2.31 0 0 1 2.31 2.31v11.551a2.31 2.31 0 0 1-2.31 2.31h-15.016a2.31 2.31 0 0 1-2.311-2.31z"/><path stroke="#000" stroke-linecap="round" stroke-linejoin="round" stroke-width="1.501" d="m175.307 472.393 6.777 4.518 6.777-4.518"/><path fill="#9be6aa" stroke="#9be6aa" stroke-linecap="round" stroke-width="2.044" d="M202.803 472.516v-.578a2.31 2.31 0 0 1 2.31-2.31h15.016a2.31 2.31 0 0 1 2.31 2.31v11.551a2.31 2.31 0 0 1-2.31 2.31h-15.016a2.31 2.31 0 0 1-2.31-2.31z"/><path stroke="#000" stroke-linecap="round" stroke-linejoin="round" stroke-width="1.501" d="m205.461 472.393 6.777 4.518 6.777-4.518"/><path fill="#9be6aa" stroke="#9be6aa" stroke-linecap="round" stroke-width="2.044" d="M232.957 472.516v-.578a2.31 2.31 0 0 1 2.31-2.31h15.016a2.31 2.31 0 0 1 2.31 2.31v11.551a2.31 2.31 0 0 1-2.31 2.31h-15.016a2.31 2.31 0 0 1-2.31-2.31z"/><path stroke="#000" stroke-linecap="round" stroke-linejoin="round" stroke-width="1.501" d="m235.615 472.393 6.777 4.518 6.777-4.518"/><path fill="#9be6aa" stroke="#9be6aa" stroke-linecap="round" stroke-width="2.044" d="M263.109 472.516v-.578a2.31 2.31 0 0 1 2.311-2.31h15.015a2.31 2.31 0 0 1 2.311 2.31v11.551a2.31 2.31 0 0 1-2.311 2.31H265.42a2.31 2.31 0 0 1-2.311-2.31z"/><path stroke="#000" stroke-linecap="round" stroke-linejoin="round" stroke-width="1.501" d="m265.768 472.393 6.777 4.518 6.777-4.518"/><path fill="#9be6aa" stroke="#9be6aa" stroke-linecap="round" stroke-width="2.044" d="M293.264 472.516v-.578a2.31 2.31 0 0 1 2.31-2.31h15.016a2.31 2.31 0 0 1 2.31 2.31v11.551a2.31 2.31 0 0 1-2.31 2.31h-15.016a2.31 2.31 0 0 1-2.31-2.31z"/><path stroke="#000" stroke-linecap="round" stroke-linejoin="round" stroke-width="1.501" d="m295.922 472.393 6.777 4.518 6.777-4.518"/><path fill="#9be6aa" d="M64.705 556.779q-5.392 0-9.18-1.54-3.787-1.605-5.776-4.365-1.926-2.825-1.926-6.548 0-4.043 1.99-7.061 2.054-3.08 5.841-4.75-3.08-1.476-4.75-4.044-1.605-2.631-1.605-5.969 0-3.595 1.798-6.355 1.861-2.76 5.327-4.301 3.467-1.54 8.28-1.54 4.88 0 8.346 1.54 3.465 1.54 5.327 4.301 1.862 2.76 1.862 6.355 0 3.338-1.67 5.969-1.668 2.568-4.75 4.044 3.789 1.67 5.842 4.75 2.055 3.017 2.054 7.061 0 3.723-1.99 6.548-1.99 2.76-5.777 4.365-3.787 1.54-9.243 1.54m0-7.318q3.53 0 5.777-1.733 2.247-1.797 2.247-4.557 0-3.017-2.247-4.879t-5.777-1.861q-2.31 0-4.108.834-1.734.835-2.76 2.375-1.028 1.54-1.028 3.531 0 1.861 1.028 3.273 1.026 1.413 2.76 2.247 1.797.77 4.108.77m0-20.027q3.081 0 5.007-1.669 1.99-1.669 1.99-4.236 0-2.76-1.99-4.429-1.926-1.734-5.007-1.734-3.017 0-4.943 1.734-1.925 1.669-1.925 4.429 0 2.567 1.925 4.236 1.926 1.67 4.943 1.669m36.223-19.064q4.558 0 7.703 1.669 3.21 1.604 5.199 4.493 2.055 2.889 2.953 6.74.963 3.787.963 8.152 0 5.2-1.091 9.821-1.091 4.557-3.338 8.088-2.182 3.466-5.649 5.52-3.466 1.99-8.345 1.99-3.53 0-6.932-1.027-3.338-1.091-6.034-2.953l4.3-6.419a17.2 17.2 0 0 0 4.302 2.055q2.31.64 4.172.641 5.007 0 7.831-4.364 2.889-4.43 2.632-13.801l1.797 1.155q-1.476 3.53-4.557 5.713-3.081 2.118-7.382 2.118-4.237 0-7.574-1.99-3.339-2.054-5.2-5.456-1.86-3.401-1.861-7.703 0-4.236 1.99-7.446 1.99-3.273 5.584-5.135 3.66-1.861 8.537-1.861m0 7.382q-2.118 0-3.787.962a7.07 7.07 0 0 0-2.632 2.632q-.963 1.67-.963 3.852t.963 3.915a6.93 6.93 0 0 0 2.632 2.696q1.67.963 3.787.963t3.788-.963a6.93 6.93 0 0 0 2.631-2.696q1.027-1.733 1.027-3.915t-1.027-3.852a7.07 7.07 0 0 0-2.631-2.632q-1.67-.962-3.788-.962m50.542 39.027q-5.007 0-8.922-2.118-3.916-2.183-6.098-5.97-2.183-3.85-2.183-8.73 0-4.942 2.183-8.73 2.182-3.786 6.034-5.905 3.85-2.182 8.858-2.182 4.814 0 8.794 2.375t5.777 6.868l-7.96 2.824q-.898-1.861-2.824-2.953-1.862-1.155-4.172-1.155-2.375 0-4.173 1.155-1.797 1.092-2.824 3.082t-1.027 4.621 1.027 4.622a8 8 0 0 0 2.889 3.081q1.862 1.155 4.236 1.156 2.311 0 4.172-1.22 1.926-1.22 2.825-3.21l8.024 2.825q-1.862 4.557-5.842 7.061-3.915 2.503-8.794 2.503m33.116 0q-4.878 0-8.729-2.118a16 16 0 0 1-5.97-5.97q-2.118-3.787-2.118-8.73 0-4.942 2.118-8.73a15.1 15.1 0 0 1 5.905-5.905q3.788-2.182 8.666-2.182 4.943 0 8.73 2.182a15.07 15.07 0 0 1 5.905 5.905q2.12 3.787 2.119 8.73 0 4.942-2.119 8.73-2.118 3.787-5.905 5.97-3.723 2.118-8.602 2.118m0-7.831q2.376 0 4.173-1.156t2.76-3.145q1.027-2.054 1.027-4.686 0-2.631-1.027-4.621-1.028-2.055-2.889-3.21-1.797-1.155-4.172-1.155-2.311 0-4.172 1.155-1.798 1.155-2.825 3.21-1.026 1.99-1.027 4.621t1.027 4.686a7.9 7.9 0 0 0 2.889 3.145q1.862 1.156 4.236 1.156m32.1 7.831q-3.852 0-6.548-1.54-2.631-1.542-4.044-4.751-1.412-3.273-1.412-8.408v-18.166h8.473v16.432q0 3.21.706 5.071.77 1.798 2.119 2.632 1.411.771 3.145.771 3.337.063 5.071-1.99 1.733-2.119 1.733-6.098v-16.818h8.473v32.095h-7.96l-.32-4.365q-1.605 2.439-4.044 3.787-2.376 1.348-5.392 1.348m23.517-.77v-32.095h8.473v5.905q1.99-3.017 5.007-4.493 3.08-1.54 6.355-1.541v8.217q-2.953 0-5.585.706-2.567.706-4.172 2.311t-1.605 4.108v16.882zm22.782 0v-32.095h8.473v5.905q1.99-3.017 5.007-4.493 3.08-1.54 6.355-1.541v8.217q-2.953 0-5.585.706-2.567.706-4.172 2.311t-1.605 4.108v16.882zm23.296 0v-32.095h8.473v32.095zm4.236-37.295q-1.926 0-3.402-1.412-1.476-1.476-1.476-3.466t1.476-3.402q1.476-1.476 3.402-1.476 1.99 0 3.402 1.476 1.476 1.411 1.477 3.402 0 1.99-1.477 3.466-1.412 1.413-3.402 1.412m25.017 38.065q-4.75 0-8.409-2.118-3.659-2.183-5.777-5.97-2.054-3.787-2.054-8.73 0-4.942 2.118-8.73 2.183-3.786 5.906-5.905 3.787-2.182 8.665-2.182 4.238 0 7.767 2.246 3.595 2.183 5.713 6.483 2.183 4.237 2.183 10.335h-23.494q.321 3.21 2.76 5.135 2.439 1.862 5.521 1.862 2.631 0 4.3-1.092a7.76 7.76 0 0 0 2.568-2.952l7.574 2.952a15.9 15.9 0 0 1-3.53 4.686q-2.118 1.926-5.071 2.953t-6.74 1.027m-6.933-20.862h13.865q-.192-1.99-1.283-3.209a6.7 6.7 0 0 0-2.568-1.798q-1.476-.577-2.889-.577-1.347 0-2.952.577-1.54.514-2.76 1.734-1.156 1.22-1.413 3.273m26.429 20.092v-44.933h8.473v44.933zm26.26.77q-3.081 0-5.777-.899-2.696-.962-4.75-2.696a12.6 12.6 0 0 1-3.209-4.364l7.253-3.338q.963 1.54 2.632 2.696 1.668 1.09 3.851 1.091 2.118 0 3.274-.578 1.155-.642 1.155-1.797t-.963-1.669q-.898-.577-2.503-.963l-2.953-.77q-4.621-1.22-7.317-3.852-2.632-2.695-2.632-6.162 0-4.942 3.145-7.639 3.21-2.695 9.051-2.695 3.017 0 5.584.898 2.632.899 4.494 2.504 1.862 1.603 2.567 3.723l-6.996 3.209q-.45-1.284-2.183-2.054-1.733-.834-3.466-.834t-2.696.77q-.899.706-.899 1.99 0 .834.899 1.412.898.513 2.568.899l4.172 1.027q3.145.77 5.007 2.503 1.926 1.67 2.76 3.787.899 2.055.899 4.044 0 2.89-1.734 5.135-1.668 2.183-4.621 3.402-2.889 1.22-6.612 1.22"/><path stroke="#9be6aa" stroke-linecap="square" stroke-linejoin="round" stroke-width="8.402" d="m352.351 35.941 83.821-10.796a.15.15 0 0 1 .11.03h.001l25.568 19.734v-.001a.15.15 0 0 1 .057.1l14.503 112.597a.15.15 0 0 1-.131.169l-106.471 13.714a.15.15 0 0 1-.169-.131L352.221 36.11a.15.15 0 0 1 .13-.169Z"/><path stroke="#9be6aa" stroke-linecap="round" stroke-linejoin="round" stroke-width="8.402" d="m383.693 86.17 57.552-7.413m-51.186 48.282 57.551-7.412m-60.214-13.017 28.776-3.706"/><path fill="#000" d="m334.162 10.942 45.472-5.3 5.838 50.077L340 61.02z"/><path fill="#000" stroke="#9be6aa" stroke-linejoin="round" stroke-width="4.17" d="M351.667 48.411c13.126-.16 18.781-5.752 18.619-19.078.162 13.326 5.912 18.78 19.078 18.62-13.166.16-18.779 5.911-18.619 19.078-.16-13.167-5.952-18.78-19.078-18.62Zm-16.436-22.692c8.439-.103 12.074-3.698 11.97-12.265.104 8.567 3.801 12.073 12.264 11.97-8.463.103-12.072 3.8-11.969 12.264-.103-8.464-3.826-12.072-12.265-11.97Z"/></g><rect width="420.247" height="618.618" x="1.41" y="1.41" stroke="#9be6aa" stroke-width="2.82" rx="6.929"/><defs><clipPath id="a"><rect width="423.067" height="621.439" fill="#fff" rx="8.339"/></clipPath></defs></svg>