<svg xmlns="http://www.w3.org/2000/svg" width="1175" height="510" fill="none" viewBox="0 0 1175 510"><g clip-path="url(#a)"><path stroke="#88f154" stroke-linecap="round" stroke-linejoin="round" stroke-width="7.474" d="m398.947 186.403-12.496 22.442h29.989l-12.496 22.442m704.936-44.884-12.5 22.442h29.99l-12.49 22.442m-771.445-44.884-12.496 22.442h29.989l-12.496 22.442m704.928-44.884-12.49 22.442h29.99l-12.5 22.442m-771.431-44.884-12.495 22.442h29.988l-12.495 22.442m704.936-44.884-12.496 22.442h29.993l-12.5 22.442m-771.439-44.884-12.495 22.442h29.988l-12.495 22.442m704.936-44.884-12.496 22.442h29.989l-12.496 22.442M172.91 186.403l-12.496 22.442h29.989l-12.496 22.442m704.936-44.884-12.495 22.442h29.988l-12.495 22.442m-771.439-44.884-12.496 22.442h29.989l-12.496 22.442m704.936-44.884-12.495 22.442h29.988l-12.495 22.442M59.896 186.403 47.4 208.845h29.99l-12.496 22.442m704.932-44.884-12.496 22.442h29.989l-12.496 22.442"/><path fill="#88f154" d="M495.018 242.041q-1.859 1.546-4.349 2.569a14.7 14.7 0 0 1-5.071 1.071 9.66 9.66 0 0 1-4.829-1.159l3.65-5.459q1.883.53 3.527.146a7.3 7.3 0 0 0 2.962-1.481q2.014-1.674 2.255-3.905.247-2.303-1.459-4.355-1.579-1.897-3.881-2.145-2.263-.28-4.277 1.395a5.96 5.96 0 0 0-1.757 2.378q-.556 1.379-.486 2.566l-5.633 2.915-10.709-16.186 15.337-12.753 3.994 4.802-10.806 8.986 4.636 7.15q.562-1.45 1.551-2.861.955-1.45 2.46-2.636 2.208-1.835 4.93-2.265a9.8 9.8 0 0 1 5.281.522q2.598.918 4.627 3.358 2.287 2.75 2.787 5.872t-.671 6.126q-1.203 2.966-4.069 5.349m37.936-22.612q-2.158 1.089-4.816 1.524a14.6 14.6 0 0 1-5.181-.097 9.65 9.65 0 0 1-4.444-2.216l4.784-4.498q1.715.942 3.404.936a7.3 7.3 0 0 0 3.219-.775q2.34-1.179 3.077-3.299.758-2.187-.442-4.571-1.111-2.204-3.298-2.964-2.142-.782-4.482.397a5.96 5.96 0 0 0-2.246 1.921q-.853 1.22-1.052 2.391l-6.145 1.573-6.79-18.181 17.814-8.974 2.81 5.578-12.551 6.323 2.908 8.011a13.5 13.5 0 0 1 2.155-2.44q1.257-1.197 2.99-2.014 2.563-1.292 5.313-1.097 2.726.15 5.028 1.697 2.325 1.479 3.753 4.314 1.609 3.194 1.393 6.348t-2.032 5.818q-1.84 2.619-5.169 4.295m28.232-10.754q-4.169.976-7.885-.533-3.728-1.557-6.473-5.105-2.757-3.596-3.975-8.794-1.219-5.2-.335-9.596.872-4.447 3.482-7.439 2.648-3.051 6.816-4.028 4.17-.978 7.897.581 3.765 1.497 6.522 5.093 2.745 3.547 3.964 8.746t.346 9.645q-.883 4.398-3.532 7.45-2.658 3.002-6.827 3.98m-1.425-6.082q2.207-.516 3.578-2.39 1.41-1.934 1.781-4.763.361-2.879-.444-6.311t-2.406-5.852q-1.6-2.418-3.711-3.476-2.073-1.118-4.329-.589-2.207.517-3.567 2.44-1.372 1.872-1.732 4.751-.311 2.867.493 6.3t2.357 5.862q1.59 2.37 3.663 3.488 2.11 1.058 4.317.54m33.08 4.919q-4.281-.067-7.518-2.436-3.237-2.42-5.036-6.528-1.798-4.16-1.714-9.498t2.012-9.388q1.929-4.1 5.188-6.367 3.312-2.315 7.592-2.248 4.281.067 7.518 2.487 3.287 2.368 5.085 6.528 1.8 4.108 1.715 9.447t-2.012 9.439q-1.928 4.05-5.239 6.366-3.31 2.265-7.591 2.198m.098-6.245q2.267.035 4.053-1.448 1.838-1.533 2.887-4.186 1.05-2.703 1.106-6.229t-.909-6.261q-.965-2.736-2.753-4.275-1.739-1.59-4.055-1.626-2.267-.035-4.054 1.498-1.787 1.483-2.837 4.187-1 2.704-1.055 6.23-.055 3.525.858 6.26.966 2.685 2.704 4.274 1.788 1.54 4.055 1.576m26.992 10.302 10.405-33.689 7.17 2.215 5.33 17.566 14.306-11.502 7.123 2.2-10.404 33.689-6.546-2.021 7.224-23.39-15.122 12.094-5.684-18.467-7.209 23.341zm42.11 16.526 12.479-34.586 5.642 4.146-8.853 24.124 20.096-15.861 5.52 4.057-8.888 23.66 20.171-15.368 5.642 4.146-29.364 22.178-5.844-4.296 9.139-23.663-19.936 15.729zM573.949 350.45l-9.252-.5 7.501-.749.25-2.244-10.003-1.249 11.254-.748 1.751-.998-8.503-9.233 10.504 6.488 4.5-.499 1.25-11.728 2.002 11.229 5.002.749 7.501-5.24-5.751 7.235 2 1.748 11.504-2.995-10.504 5.241.501 1.247 13.754 1.497-14.004 1.997-.501 4.49s1.501 5.49 1.501 7.486c0 1.997-2.5 3.494-1.501 4.492 1 .999 3.752 7.237 3.752 7.237s2.251 2.994 3 2.994c.751 0 4.752 4.991 5.752 9.232 1 4.243 1.75 7.985 3.251 9.233 1.499 1.248 4.001 2.496 4.25 3.493.252.998 3.752 0 3.752 0l1.75-4.241 1.501.249v-2.246l13.504 8.484-1.251 1.498.501 1.996-3.251 4.491s2.251.25 1.751 2.496-2.501 4.99-2.501 4.99l-2.5 3.243s-4.001 3.494-5.002 2.246-.5 17.965-6.252 17.716c-5.751-.25-3.25-.748-3.25.999s3.75 33.436 2.749 34.684c-.999 1.247-3 2.245-3 2.245l1.001 6.238-1.752 1.497s1.501 16.219.75 17.716c-.75 1.498-2.501-.498-2.501 1.747s-1.75 22.956 5.502 28.446c2.501.999 2.001 8.735 2.001 8.735s4.001.248 3.251 1.995-4.001 14.971.25 15.721c4.251.748 9.002 4.241 9.002 4.241l-.499 7.985-.501 3.494-4.752 4.991 1 33.935 1.251.998-1.75.749 1.75 20.96 2.5 6.987 3.752 4.241.75 5.74-2.751 2.993s2.751 4.742.501 8.484c-1.251 2.994 2 2.745 2 2.745l2.502 2.496v15.719h13.253l8.002 2.995.25 14.223 32.01.749 10.003 4.241.5 17.966-9.252 1.747h-236.07v-23.455h46.014v-16.719h23.257l.999-20.212 4.752-1.247s-2.5-4.492-1.752-6.489c.752-1.996.501-4.741-.25-5.738-.749-.998-.499-6.739-.499-6.739l2.5-1.496 5.253-9.981 1.249-20.96s-2.75-.25-.75-3.243c2.001-2.995 1.251-33.188 1.251-33.188l-4.502-5.489-.251-3.744-.999-9.232 5.5-.499v1.248l1.001-1.748 2.751.251 1.25-5.989-.251-11.478s.751-2.496 1.752-2.496 1.75-7.735 1.75-7.735l4.251-.25s-1.75-.997.25-2.995c2.001-1.995 3.502-1.995 3.502-1.995s5.751-8.983 3.751-13.974.5-7.237.5-7.237-2-15.969.75-23.954c-.249-2.495-1.75-4.491-1.75-4.491s3.502-3.494 2.752-7.486c-.752-3.994-.501-8.483-.501-9.232 0-.75-1.501-6.738-.501-9.982 1.001-3.243-2.75-2.246-2.75-4.74 0-2.496.75-5.49 1.75-8.734s1.25-10.729 1.25-10.729-5.251.499-5.502-.999 2.252-14.223 6.753-18.715c2.5-3.742-.75-8.234-2.251-10.48-1.499-2.247-2.75-3.744-1.499-6.987 1.249-3.244 1.749-7.985-.251-8.234-2.002-.249-4.501-5.24-4.501-5.24s-4.001-5.24-3.752-10.979c.25-5.74 6.502-13.725 6.502-13.725s-3.5-12.226-3.251-22.955c.25-10.73-.249-3.993-.249-3.993s-3.002-3.992-2.002-5.989 1-3.992 1-3.992-2.75-1.747-2.75-3.992-.75-5.49 0-6.239 2-3.244 2-3.244l-3.501-3.992s-1.5-3.244-.5-4.741c1-1.498 5.252-1.498 5.252-1.498l-.501-4.741s-4.001.5-3-2.745c1-3.244 4.752-6.488 4.501-8.234-.25-1.747 3.751 2.994 3.751 2.994l3.501-1.497.25 1.997s-.25 7.734-2.25 7.734-.75 3.493-.75 3.493l5.751.75.75 6.487-5.25 1.249-1.001 6.487s3.502 4.492 3.502 8.234-1.002 9.482.249 13.725c1.251 4.241 4.752 15.969 3.501 20.461s3.501 1.246 4.001 5.738 2.001 9.483 3.251 8.234c1.251-1.244 5.252-8.231 3.752-11.724"/><path stroke="#88f154" stroke-width="3.679" d="M667.422 403.474h449.368c5.33 0 9.72 4.218 9.99 9.456l.01.51v90.898c0 5.47-4.49 9.965-9.99 9.965h-33.32v17.423a3.207 3.207 0 0 1-3.22 3.208h-40.52a3.207 3.207 0 0 1-3.22-3.208v-17.423H741.433v17.423a3.21 3.21 0 0 1-3.218 3.208h-40.527a3.21 3.21 0 0 1-3.217-3.208v-17.423h-27.049c-5.496 0-9.988-4.494-9.988-9.965v-90.899c0-5.471 4.492-9.965 9.988-9.965Zm38.873 46.466c-5.872 0-10.648 4.761-10.649 10.631 0 5.869 4.777 10.63 10.649 10.63s10.648-4.761 10.648-10.63-4.776-10.631-10.648-10.631Zm36.663 0c-5.872 0-10.648 4.762-10.648 10.631s4.776 10.63 10.648 10.63 10.649-4.761 10.649-10.63-4.777-10.631-10.649-10.631Zm36.664 0c-5.872 0-10.649 4.761-10.649 10.631 0 5.869 4.777 10.63 10.649 10.63s10.649-4.761 10.649-10.63c-.001-5.869-4.777-10.631-10.649-10.631Zm-112.2-169.397h449.368c5.5 0 10 4.494 10 9.97v90.899c0 5.476-4.5 9.97-10 9.97H667.422c-5.495 0-9.988-4.493-9.988-9.97v-90.899c0-5.477 4.493-9.97 9.988-9.97Zm38.873 43.112c-5.872 0-10.649 4.761-10.649 10.63.001 5.869 4.777 10.63 10.649 10.63s10.648-4.761 10.648-10.63-4.776-10.63-10.648-10.63Zm36.663 0c-5.872 0-10.648 4.761-10.648 10.63s4.776 10.63 10.648 10.63 10.649-4.761 10.649-10.63-4.777-10.63-10.649-10.63Zm36.664 0c-5.872 0-10.649 4.761-10.649 10.63s4.777 10.63 10.649 10.63 10.648-4.761 10.649-10.63-4.777-10.63-10.649-10.63ZM507.43 403.474H58.057c-5.325 0-9.713 4.218-9.986 9.456l-.013.51v90.898c0 5.47 4.497 9.965 9.994 9.965h33.32v17.423a3.21 3.21 0 0 0 3.217 3.208h40.526a3.21 3.21 0 0 0 3.218-3.208v-17.423h295.086v17.423a3.21 3.21 0 0 0 3.218 3.208h40.526a3.21 3.21 0 0 0 3.218-3.208v-17.423h27.049c5.495 0 9.988-4.494 9.988-9.965v-90.899c0-5.471-4.493-9.965-9.988-9.965Zm-38.873 46.466c5.872 0 10.648 4.761 10.648 10.631 0 5.869-4.776 10.63-10.648 10.63s-10.649-4.761-10.649-10.63 4.777-10.631 10.649-10.631Zm-36.663 0c5.871 0 10.648 4.762 10.648 10.631s-4.777 10.63-10.648 10.63c-5.873 0-10.65-4.761-10.65-10.63s4.778-10.631 10.65-10.631Zm-36.665 0c5.873 0 10.65 4.761 10.65 10.631 0 5.869-4.777 10.63-10.65 10.63-5.871 0-10.648-4.761-10.648-10.63s4.777-10.631 10.648-10.631ZM507.43 280.543H58.057c-5.496 0-9.995 4.494-9.995 9.97v90.899c0 5.476 4.499 9.97 9.995 9.97H507.43c5.494 0 9.988-4.493 9.988-9.97v-90.899c0-5.477-4.493-9.97-9.988-9.97Zm-38.873 43.112c5.872 0 10.648 4.761 10.648 10.63s-4.777 10.63-10.648 10.63c-5.872 0-10.649-4.761-10.649-10.63s4.777-10.63 10.649-10.63Zm-36.663 0c5.871 0 10.648 4.761 10.648 10.63s-4.777 10.63-10.648 10.63c-5.872 0-10.65-4.761-10.65-10.63s4.777-10.63 10.65-10.63Zm-36.665 0c5.873 0 10.65 4.761 10.65 10.63s-4.778 10.63-10.65 10.63c-5.871 0-10.648-4.761-10.648-10.63s4.777-10.63 10.648-10.63Z"/><path fill="#88f154" d="m76.838 327.807 7.902-20.04h4.18l7.9 20.04h-4.15l-1.718-4.409h-8.245l-1.717 4.409zm7.157-7.873h5.669l-2.834-7.272zm14.683 7.873v-14.314h3.55l.171 1.946q.688-1.116 1.747-1.689 1.088-.601 2.462-.601 1.69 0 2.891.687 1.203.687 1.832 2.147.63 1.432.602 3.722v8.102h-3.779v-7.329q0-1.46-.344-2.262-.315-.801-.916-1.145-.601-.372-1.403-.372-1.46-.028-2.261.887-.773.917-.773 2.72v7.501zm22.168.343q-2.376 0-3.607-1.174-1.203-1.173-1.202-3.349v-6.928h-2.319v-3.206h2.319v-4.466h3.779v4.466h3.578v3.206h-3.578v6.098q0 .915.4 1.403.402.458 1.174.458.287 0 .63-.115.344-.143.716-.401l1.317 2.834a6 6 0 0 1-1.546.831 4.3 4.3 0 0 1-1.661.343m5.65-.343v-20.04h3.779v7.558q.715-1.06 1.775-1.603 1.059-.573 2.376-.573 1.718 0 2.891.687 1.202.687 1.832 2.147.63 1.432.63 3.722v8.102H136v-7.329q0-1.46-.343-2.262-.344-.801-.945-1.145-.601-.372-1.403-.372-1.46-.028-2.261.887-.773.917-.773 2.72v7.501zm16.298 0v-14.314h3.779v2.633q.888-1.346 2.233-2.004a6.3 6.3 0 0 1 2.834-.687v3.665q-1.317 0-2.491.315-1.144.315-1.86 1.03t-.716 1.832v7.53zm17.575.343q-2.176 0-3.893-.945a7.1 7.1 0 0 1-2.663-2.662q-.945-1.69-.945-3.893 0-2.205.945-3.894a6.73 6.73 0 0 1 2.634-2.634q1.689-.973 3.865-.973 2.204 0 3.893.973a6.73 6.73 0 0 1 2.634 2.634q.945 1.689.945 3.894t-.945 3.893a6.9 6.9 0 0 1-2.634 2.662q-1.66.945-3.836.945m0-3.492q1.059 0 1.861-.516a3.4 3.4 0 0 0 1.231-1.403q.458-.916.458-2.089t-.458-2.062a3.5 3.5 0 0 0-1.288-1.431q-.802-.516-1.861-.515-1.031 0-1.861.515a3.56 3.56 0 0 0-1.26 1.431q-.458.888-.458 2.062t.458 2.089q.459.888 1.289 1.403.83.516 1.889.516m10.05 8.874v-20.039h3.55l.172 2.032q.716-1.144 1.803-1.746 1.117-.63 2.577-.63 1.975 0 3.406.916 1.461.916 2.262 2.605.802 1.66.802 3.98 0 2.29-.802 3.979-.801 1.689-2.262 2.605-1.43.916-3.406.916-1.432 0-2.52-.601a5.1 5.1 0 0 1-1.803-1.689v7.672zm7.128-8.846q1.031 0 1.804-.515a3.55 3.55 0 0 0 1.26-1.432q.458-.916.458-2.089t-.458-2.09q-.43-.917-1.231-1.403-.774-.516-1.804-.515-.974 0-1.746.515-.773.516-1.203 1.431-.429.888-.429 2.062t.429 2.089q.43.916 1.174 1.432a3.1 3.1 0 0 0 1.746.515m10.151 3.121v-14.314h3.779v14.314zm1.89-16.633q-.859 0-1.517-.63-.659-.658-.659-1.546 0-.887.659-1.517.658-.659 1.517-.659.888 0 1.517.659.659.63.659 1.517 0 .888-.659 1.546-.63.63-1.517.63m12.273 16.976q-2.233 0-3.979-.945a7 7 0 0 1-2.72-2.662q-.973-1.718-.973-3.893 0-2.205.973-3.894a6.87 6.87 0 0 1 2.691-2.634q1.717-.973 3.951-.973 2.147 0 3.922 1.059 1.774 1.06 2.577 3.064l-3.55 1.259q-.4-.83-1.26-1.317a3.46 3.46 0 0 0-1.861-.515q-1.059 0-1.861.515a3.4 3.4 0 0 0-1.259 1.374q-.459.888-.458 2.062 0 1.173.458 2.061.458.858 1.288 1.374t1.89.515q1.03 0 1.86-.544a3.25 3.25 0 0 0 1.26-1.431l3.578 1.26q-.83 2.032-2.605 3.149-1.746 1.116-3.922 1.116m8.643-7.243v-3.235h8.588v3.235zm10.369 6.9 7.902-20.04h4.179l7.902 20.04h-4.151l-1.718-4.409h-8.245l-1.718 4.409zm7.157-7.873h5.669l-2.835-7.272zm14.683 7.873v-14.314h3.549l.172 1.86q.658-1.088 1.689-1.631a4.64 4.64 0 0 1 2.291-.573q1.746 0 2.92.744 1.202.745 1.746 2.291.63-1.46 1.775-2.233 1.145-.802 2.662-.802 2.52 0 3.836 1.603 1.317 1.575 1.317 4.867v8.188h-3.779v-7.329q0-1.46-.314-2.262-.315-.801-.859-1.145-.544-.372-1.289-.372-1.374-.028-2.118.887-.744.917-.744 2.72v7.501h-3.779v-7.329q0-1.46-.315-2.262-.286-.801-.859-1.145-.544-.372-1.288-.372-1.374-.028-2.119.887-.715.917-.715 2.72v7.501zm29.603.343q-2.577 0-4.008-1.145-1.403-1.145-1.403-3.235 0-2.29 1.518-3.435 1.545-1.174 4.322-1.174h3.379q-.201-1.317-.831-2.004-.63-.716-1.803-.716-.916 0-1.661.401-.744.401-1.259 1.231l-3.321-1.145q.4-.916 1.174-1.775.772-.888 2.004-1.431 1.259-.573 3.063-.573 2.175 0 3.607.83a5.03 5.03 0 0 1 2.147 2.348q.716 1.489.687 3.55l-.086 7.93h-3.521l-.057-1.661a3.64 3.64 0 0 1-1.546 1.489q-.974.515-2.405.515m.63-3.149q.916 0 1.66-.429a3.3 3.3 0 0 0 1.174-1.117q.429-.687.429-1.431v-.057h-2.147q-1.86 0-2.576.458-.716.429-.716 1.231 0 .628.573 1.002.572.343 1.603.343m9.281 2.806v-2.749l7.071-8.445h-7.071v-3.12h11.795v2.719l-7.071 8.503h7.1v3.092zm21.059.343q-2.177 0-3.894-.945a7.1 7.1 0 0 1-2.662-2.662q-.945-1.69-.945-3.893 0-2.205.945-3.894a6.7 6.7 0 0 1 2.633-2.634q1.69-.973 3.865-.973 2.205 0 3.894.973a6.7 6.7 0 0 1 2.633 2.634q.945 1.689.945 3.894t-.945 3.893a6.9 6.9 0 0 1-2.633 2.662q-1.66.945-3.836.945m0-3.492q1.059 0 1.86-.516a3.37 3.37 0 0 0 1.231-1.403q.459-.916.458-2.089 0-1.174-.458-2.062a3.47 3.47 0 0 0-1.288-1.431q-.801-.516-1.861-.515-1.03 0-1.861.515a3.55 3.55 0 0 0-1.259 1.431q-.459.888-.458 2.062 0 1.173.458 2.089a3.5 3.5 0 0 0 1.288 1.403q.83.516 1.89.516m9.906 3.149v-14.314h3.55l.172 1.946q.687-1.116 1.746-1.689 1.089-.601 2.462-.601 1.689 0 2.892.687t1.832 2.147q.63 1.432.601 3.722v8.102h-3.779v-7.329q0-1.46-.343-2.262-.315-.801-.916-1.145-.602-.372-1.403-.372-1.46-.028-2.262.887-.773.917-.773 2.72v7.501zm-234.407 29v-20.04h4.094l9.79 13.455v-13.455h3.894v20.04H92.67l-9.963-13.713v13.713zm28.068.343q-2.118 0-3.75-.945a7.04 7.04 0 0 1-2.577-2.662q-.916-1.69-.916-3.893 0-2.205.945-3.894a7 7 0 0 1 2.634-2.634q1.689-.973 3.865-.973a6.3 6.3 0 0 1 3.463 1.002q1.604.974 2.548 2.891.974 1.89.974 4.61h-10.478q.143 1.43 1.231 2.29 1.088.83 2.462.83 1.173 0 1.918-.487a3.46 3.46 0 0 0 1.145-1.316l3.378 1.316a7.1 7.1 0 0 1-1.574 2.09q-.945.86-2.262 1.317-1.317.458-3.006.458m-3.092-9.304h6.184q-.086-.888-.573-1.431a3 3 0 0 0-1.145-.802 3.5 3.5 0 0 0-1.288-.258q-.602 0-1.317.258-.687.229-1.231.773-.515.544-.63 1.46m15.38 8.961-4.867-14.314h3.836l2.978 9.218 3.006-9.218h3.721l2.949 9.075 3.006-9.075h3.836l-4.867 14.314h-3.721l-3.064-9.677-3.091 9.677zm36.594.343q-2.92 0-5.182-1.317a9.6 9.6 0 0 1-3.55-3.664q-1.288-2.347-1.288-5.382t1.288-5.354q1.289-2.347 3.521-3.664 2.262-1.346 5.182-1.346 2.061 0 3.836.745a9.2 9.2 0 0 1 3.092 2.032 8.9 8.9 0 0 1 2.061 2.978l-3.636 1.345a6 6 0 0 0-1.288-1.832 5.6 5.6 0 0 0-1.832-1.231 5.4 5.4 0 0 0-2.233-.458q-1.746 0-3.12.887-1.347.86-2.119 2.377-.744 1.517-.744 3.521t.773 3.55a6.1 6.1 0 0 0 2.147 2.404q1.374.86 3.149.859 1.231 0 2.233-.458a5.8 5.8 0 0 0 1.803-1.317 6.6 6.6 0 0 0 1.289-1.918l3.635 1.317a9.3 9.3 0 0 1-2.061 3.092 9.3 9.3 0 0 1-3.092 2.09q-1.774.744-3.864.744m15.991 0q-2.576 0-4.007-1.145-1.404-1.145-1.403-3.235 0-2.29 1.517-3.435 1.547-1.174 4.323-1.174h3.378q-.2-1.317-.83-2.004-.63-.716-1.804-.716-.916 0-1.66.401t-1.26 1.231l-3.321-1.145a6.7 6.7 0 0 1 1.174-1.775q.773-.888 2.004-1.431 1.26-.573 3.063-.573 2.176 0 3.607.83a5.02 5.02 0 0 1 2.147 2.348q.717 1.489.688 3.55l-.086 7.93h-3.522l-.057-1.661a3.64 3.64 0 0 1-1.546 1.489q-.973.515-2.405.515m.63-3.149q.917 0 1.661-.429a3.3 3.3 0 0 0 1.173-1.117q.43-.687.43-1.431v-.057h-2.147q-1.862 0-2.577.458-.715.429-.715 1.231 0 .628.572 1.002.573.343 1.603.343m9.997 2.806v-14.314h3.779v2.633q.888-1.346 2.233-2.004a6.3 6.3 0 0 1 2.834-.687v3.665q-1.317 0-2.49.315-1.146.315-1.861 1.03t-.716 1.832v7.53zm10.848 0v-20.04h3.779v20.04zm7.274 0v-14.314h3.779v14.314zm1.889-16.633q-.858 0-1.517-.63-.658-.658-.658-1.546 0-.887.658-1.517.659-.659 1.517-.659.888 0 1.518.659.658.63.658 1.517 0 .888-.658 1.546-.63.63-1.518.63m10.728 16.976a8.1 8.1 0 0 1-2.577-.401 6.8 6.8 0 0 1-2.118-1.202 5.6 5.6 0 0 1-1.432-1.947l3.235-1.488q.43.686 1.174 1.202.744.487 1.718.487.945 0 1.46-.258.515-.286.515-.802 0-.514-.429-.744-.402-.258-1.117-.429l-1.317-.344q-2.061-.543-3.263-1.718-1.174-1.202-1.174-2.748 0-2.204 1.403-3.407 1.431-1.202 4.036-1.202 1.346 0 2.491.401 1.173.4 2.004 1.116.83.716 1.145 1.661l-3.12 1.431q-.201-.573-.974-.916a3.5 3.5 0 0 0-1.546-.372q-.773 0-1.202.343-.4.315-.401.888 0 .372.401.63.4.228 1.145.401l1.861.458q1.402.344 2.233 1.116.858.744 1.231 1.689.4.916.401 1.804a3.65 3.65 0 0 1-.773 2.29q-.745.974-2.062 1.517-1.287.544-2.948.544m7.982-.343v-20.04h3.779v20.04zm13.515.343q-2.118 0-3.75-.945a7.04 7.04 0 0 1-2.577-2.662q-.916-1.69-.916-3.893 0-2.205.945-3.894a7 7 0 0 1 2.634-2.634q1.689-.973 3.864-.973a6.3 6.3 0 0 1 3.464 1.002q1.603.974 2.548 2.891.974 1.89.974 4.61h-10.478q.142 1.43 1.231 2.29 1.088.83 2.462.83 1.173 0 1.918-.487a3.46 3.46 0 0 0 1.145-1.316l3.378 1.316a7.1 7.1 0 0 1-1.574 2.09q-.945.86-2.262 1.317-1.317.458-3.006.458m-3.092-9.304h6.184q-.085-.888-.573-1.431a3 3 0 0 0-1.145-.802 3.5 3.5 0 0 0-1.288-.258q-.602 0-1.317.258-.687.229-1.231.773-.516.544-.63 1.46M78.781 451.478v-20.04h4.266l5.84 8.646 5.84-8.646h4.237v20.04h-3.893v-13.914l-6.184 9.104-6.184-9.075v13.885zm30.473.343q-2.12 0-3.751-.945a7.05 7.05 0 0 1-2.576-2.662q-.916-1.69-.916-3.893 0-2.205.944-3.894a7 7 0 0 1 2.634-2.634q1.689-.973 3.865-.973 1.89 0 3.464 1.002 1.603.974 2.548 2.891.973 1.89.973 4.61h-10.478q.144 1.43 1.231 2.29 1.088.83 2.462.83 1.174 0 1.918-.487a3.46 3.46 0 0 0 1.146-1.317l3.378 1.317a7.1 7.1 0 0 1-1.575 2.09q-.945.86-2.262 1.317-1.316.458-3.005.458m-3.092-9.304h6.183q-.086-.888-.572-1.431a3 3 0 0 0-1.145-.802 3.5 3.5 0 0 0-1.289-.258q-.6 0-1.316.258-.688.229-1.232.773-.515.544-.629 1.46m18.371 9.304q-2.376 0-3.608-1.174-1.202-1.173-1.202-3.349v-6.928h-2.319v-3.206h2.319v-4.466h3.779v4.466h3.579v3.206h-3.579v6.098q0 .916.401 1.402.4.459 1.174.458.285 0 .629-.114.344-.143.716-.401l1.317 2.834a6 6 0 0 1-1.546.831 4.3 4.3 0 0 1-1.66.343m10.007 0q-2.577 0-4.008-1.145-1.403-1.145-1.403-3.235 0-2.29 1.517-3.435 1.547-1.174 4.323-1.174h3.378q-.2-1.317-.83-2.004-.63-.716-1.804-.716-.915 0-1.66.401t-1.26 1.231l-3.32-1.145q.4-.916 1.173-1.775.774-.888 2.004-1.431 1.26-.573 3.063-.573 2.176 0 3.608.83a5.03 5.03 0 0 1 2.147 2.348q.715 1.488.687 3.55l-.086 7.93h-3.521l-.058-1.661a3.64 3.64 0 0 1-1.546 1.489q-.972.515-2.404.515m.629-3.149q.917 0 1.661-.429a3.3 3.3 0 0 0 1.174-1.117q.429-.687.429-1.431v-.058h-2.147q-1.86 0-2.577.458-.715.43-.715 1.231 0 .63.572 1.002.573.344 1.603.344m-56.388 31.806v-20.04h7.444q2.118 0 3.75.859a6.2 6.2 0 0 1 2.548 2.347q.916 1.489.916 3.464 0 1.947-.888 3.464a6.54 6.54 0 0 1-2.433 2.405q-1.546.86-3.579.859h-3.836v6.642zm3.922-10.249h3.75q1.317 0 2.148-.859.859-.888.859-2.262t-.945-2.233q-.917-.858-2.376-.859h-3.436zm12.728 10.249v-14.314h3.779v2.633q.887-1.346 2.233-2.004a6.3 6.3 0 0 1 2.834-.687v3.665q-1.317 0-2.491.315-1.145.314-1.86 1.03t-.716 1.832v7.53zm17.575.343q-2.176 0-3.894-.945a7.13 7.13 0 0 1-2.662-2.662q-.945-1.69-.945-3.893 0-2.205.945-3.894a6.73 6.73 0 0 1 2.634-2.634q1.689-.973 3.865-.973 2.204 0 3.893.973a6.73 6.73 0 0 1 2.634 2.634q.944 1.689.944 3.894t-.944 3.893a6.9 6.9 0 0 1-2.634 2.662q-1.66.945-3.836.945m0-3.493q1.059 0 1.861-.515a3.4 3.4 0 0 0 1.231-1.403q.458-.916.458-2.089t-.458-2.062a3.47 3.47 0 0 0-1.289-1.431q-.801-.515-1.86-.515a3.45 3.45 0 0 0-1.861.515 3.54 3.54 0 0 0-1.26 1.431q-.458.888-.458 2.062t.458 2.089a3.5 3.5 0 0 0 1.288 1.403q.831.515 1.89.515m9.907 3.15v-14.314h3.55l.171 1.86q.658-1.088 1.689-1.631a4.64 4.64 0 0 1 2.291-.573q1.746 0 2.92.744 1.202.745 1.746 2.291.63-1.46 1.775-2.233 1.145-.802 2.662-.802 2.52 0 3.836 1.603 1.317 1.575 1.317 4.867v8.188h-3.779v-7.329q0-1.46-.314-2.262-.316-.801-.859-1.145-.544-.372-1.289-.372-1.374-.028-2.118.887-.744.917-.744 2.72v7.501h-3.779v-7.329q0-1.46-.315-2.262-.286-.801-.859-1.145-.544-.372-1.288-.372-1.375-.028-2.119.887-.715.917-.715 2.72v7.501zm31.435.343q-2.118 0-3.75-.945a7.05 7.05 0 0 1-2.577-2.662q-.916-1.69-.916-3.893 0-2.205.945-3.894a7 7 0 0 1 2.634-2.634q1.689-.973 3.865-.973 1.889 0 3.464 1.002 1.602.974 2.548 2.891.973 1.89.973 4.61h-10.478q.143 1.43 1.231 2.29 1.088.83 2.462.83 1.174 0 1.918-.487a3.45 3.45 0 0 0 1.145-1.317l3.378 1.317a7.1 7.1 0 0 1-1.574 2.09q-.945.86-2.262 1.317-1.317.458-3.006.458m-3.092-9.304h6.184q-.086-.888-.572-1.431a3 3 0 0 0-1.146-.802 3.5 3.5 0 0 0-1.288-.258q-.602 0-1.317.258-.687.229-1.231.773-.514.544-.63 1.46m18.371 9.304q-2.376 0-3.607-1.174-1.202-1.173-1.202-3.349v-6.928h-2.319v-3.206h2.319v-4.466h3.779v4.466h3.578v3.206h-3.578v6.098q0 .916.401 1.402.4.459 1.173.458.287 0 .63-.114.344-.143.716-.401l1.317 2.834a6 6 0 0 1-1.546.831 4.3 4.3 0 0 1-1.661.343m5.65-.343v-20.04h3.779v7.558q.716-1.06 1.775-1.603 1.059-.573 2.376-.573 1.718 0 2.891.687 1.203.687 1.833 2.147.629 1.431.629 3.722v8.102h-3.779v-7.329q0-1.46-.343-2.262-.344-.801-.945-1.145-.601-.372-1.403-.372-1.46-.028-2.261.887-.774.917-.773 2.72v7.501zm22.768.343q-2.118 0-3.75-.945a7.05 7.05 0 0 1-2.577-2.662q-.916-1.69-.916-3.893 0-2.205.945-3.894a7 7 0 0 1 2.634-2.634q1.689-.973 3.865-.973 1.889 0 3.464 1.002 1.603.974 2.547 2.891.974 1.89.974 4.61h-10.478q.143 1.43 1.231 2.29 1.088.83 2.462.83 1.173 0 1.918-.487a3.45 3.45 0 0 0 1.145-1.317l3.378 1.317a7.1 7.1 0 0 1-1.574 2.09q-.945.86-2.262 1.317-1.317.458-3.006.458m-3.092-9.304h6.184q-.085-.888-.573-1.431a3 3 0 0 0-1.145-.802 3.5 3.5 0 0 0-1.288-.258q-.601 0-1.317.258-.687.229-1.231.773-.514.544-.63 1.46m17.57 9.304q-1.718 0-2.92-.687-1.174-.687-1.804-2.118-.63-1.46-.63-3.751v-8.101h3.779v7.328q0 1.432.315 2.262.344.801.945 1.174.63.343 1.403.343 1.488.028 2.261-.887.773-.945.773-2.72v-7.5h3.779v14.314h-3.55l-.143-1.947a5.1 5.1 0 0 1-1.804 1.689q-1.059.601-2.404.601m16.528 0a8.1 8.1 0 0 1-2.576-.401 6.8 6.8 0 0 1-2.119-1.202 5.6 5.6 0 0 1-1.431-1.947l3.235-1.488a4.1 4.1 0 0 0 1.174 1.202q.744.487 1.717.487.945 0 1.46-.258.516-.286.516-.802 0-.514-.43-.744-.4-.258-1.116-.429l-1.317-.344q-2.061-.544-3.264-1.718-1.173-1.202-1.173-2.748 0-2.204 1.402-3.407 1.432-1.202 4.037-1.202a7.5 7.5 0 0 1 2.49.401q1.175.4 2.004 1.116.831.716 1.146 1.661l-3.121 1.431q-.2-.573-.973-.916a3.54 3.54 0 0 0-1.546-.372q-.772 0-1.203.343-.4.315-.4.888 0 .372.4.63.401.228 1.146.4l1.86.458q1.404.345 2.233 1.117.86.744 1.231 1.689.401.916.401 1.804 0 1.288-.773 2.29-.744.974-2.061 1.517-1.288.544-2.949.544m605.87-156.565q-3.035 0-5.382-1.317a9.7 9.7 0 0 1-3.636-3.664q-1.317-2.348-1.317-5.354 0-3.063 1.317-5.382 1.317-2.347 3.607-3.664 2.319-1.317 5.325-1.317 3.034 0 5.325 1.346a9.45 9.45 0 0 1 3.635 3.664q1.317 2.319 1.317 5.353 0 3.006-1.317 5.354a9.5 9.5 0 0 1-3.607 3.664q-2.29 1.317-5.267 1.317m0-3.578q1.832 0 3.206-.859a6.03 6.03 0 0 0 2.176-2.405q.801-1.517.801-3.493 0-2.004-.801-3.521-.802-1.517-2.205-2.376-1.403-.887-3.263-.887-1.804 0-3.235.887-1.402.86-2.205 2.376-.801 1.517-.801 3.521 0 1.976.801 3.493a6.17 6.17 0 0 0 2.233 2.405q1.432.858 3.293.859m12.971 8.96v-20.039h3.55l.172 2.032q.715-1.144 1.804-1.746 1.116-.63 2.576-.63 1.976 0 3.407.916 1.46.916 2.261 2.605.802 1.66.802 3.98 0 2.29-.802 3.979-.801 1.689-2.261 2.605-1.431.916-3.407.916-1.431 0-2.519-.601a5.1 5.1 0 0 1-1.804-1.689v7.672zm7.129-8.846q1.03 0 1.803-.515a3.54 3.54 0 0 0 1.26-1.432q.458-.916.458-2.089 0-1.175-.458-2.09-.43-.917-1.231-1.403-.773-.516-1.804-.515-.974 0-1.746.515-.773.516-1.202 1.431-.43.888-.43 2.062t.43 2.089 1.173 1.432a3.1 3.1 0 0 0 1.747.515m16.392 3.464q-2.12 0-3.751-.945a7.05 7.05 0 0 1-2.576-2.662q-.916-1.69-.916-3.893 0-2.205.945-3.894a6.97 6.97 0 0 1 2.633-2.634q1.69-.973 3.865-.973 1.89 0 3.464 1.002 1.603.974 2.548 2.891.973 1.89.973 4.61H868.12q.144 1.43 1.231 2.29 1.088.83 2.463.83 1.173 0 1.918-.487a3.45 3.45 0 0 0 1.145-1.317l3.378 1.317a7.1 7.1 0 0 1-1.575 2.09 6.5 6.5 0 0 1-2.261 1.317q-1.317.458-3.006.458m-3.092-9.304h6.184q-.087-.888-.573-1.431a3 3 0 0 0-1.145-.802 3.5 3.5 0 0 0-1.288-.258q-.601 0-1.317.258a3.1 3.1 0 0 0-1.231.773q-.516.544-.63 1.46m12.473 8.961v-14.314h3.55l.172 1.946q.687-1.116 1.746-1.689 1.089-.601 2.462-.601 1.689 0 2.892.687t1.832 2.147q.63 1.431.601 3.722v8.102h-3.779v-7.329q0-1.46-.343-2.262-.316-.801-.916-1.145-.602-.372-1.403-.372-1.46-.028-2.262.887-.773.917-.773 2.72v7.501zm14.869 0 7.901-20.04h4.18l7.901 20.04h-4.151l-1.718-4.409h-8.245l-1.717 4.409zm7.157-7.873h5.668l-2.834-7.272zm15.226 7.873v-20.04h3.922v20.04zm21.824.343a10.4 10.4 0 0 1-2.834-.372 8.7 8.7 0 0 1-2.347-1.031 7.9 7.9 0 0 1-1.718-1.517q-.658-.83-.859-1.746l3.836-1.145q.372.974 1.317 1.689.945.687 2.376.715 1.518.029 2.462-.658.974-.687.974-1.775 0-.945-.773-1.575-.745-.657-2.061-1.002l-2.606-.687q-1.46-.372-2.576-1.116a5.7 5.7 0 0 1-1.746-1.89q-.63-1.116-.63-2.605 0-2.834 1.861-4.408 1.889-1.604 5.324-1.604 1.919 0 3.35.573 1.46.544 2.433 1.575a7 7 0 0 1 1.489 2.433l-3.808 1.174q-.344-.974-1.259-1.661-.916-.687-2.319-.687-1.431 0-2.262.659-.801.659-.801 1.86 0 .945.63 1.489.657.544 1.774.83l2.634.659q2.577.63 4.008 2.261t1.432 3.636q0 1.775-.859 3.121-.86 1.317-2.491 2.061t-3.951.744m16.016 0q-2.377 0-3.608-1.174-1.202-1.173-1.202-3.349v-6.928h-2.319v-3.206h2.319v-4.466h3.779v4.466h3.578v3.206h-3.578v6.098q0 .915.401 1.402.4.459 1.173.459.287 0 .63-.115.344-.143.716-.401l1.317 2.834a6 6 0 0 1-1.546.831 4.3 4.3 0 0 1-1.66.343m10.007 0q-2.577 0-4.008-1.145-1.403-1.145-1.403-3.235 0-2.29 1.517-3.435 1.546-1.174 4.323-1.174h3.378q-.2-1.317-.83-2.004-.63-.716-1.804-.716-.916 0-1.66.401t-1.26 1.231l-3.321-1.145a6.7 6.7 0 0 1 1.174-1.775q.773-.888 2.004-1.431 1.26-.573 3.063-.573 2.176 0 3.608.83a5.03 5.03 0 0 1 2.147 2.348q.716 1.488.687 3.55l-.086 7.93h-3.521l-.058-1.661a3.64 3.64 0 0 1-1.546 1.489q-.973.515-2.404.515m.629-3.149q.917 0 1.661-.429a3.3 3.3 0 0 0 1.174-1.117q.429-.687.429-1.431v-.058h-2.147q-1.86 0-2.577.459-.715.429-.715 1.231 0 .628.572 1.002.573.343 1.603.343m9.997 2.806v-14.314h3.779v2.633q.888-1.345 2.233-2.004a6.3 6.3 0 0 1 2.834-.687v3.665a9.6 9.6 0 0 0-2.49.315q-1.146.315-1.861 1.03t-.716 1.832v7.53zm17.289 6.097q-1.632 0-2.891-.229-1.26-.228-2.119-.601-.858-.372-1.403-.744l1.489-3.035q.4.23 1.059.516.659.314 1.575.515.917.23 2.118.229 1.146 0 2.004-.458.888-.429 1.374-1.374.516-.917.516-2.348v-1.374a5.35 5.35 0 0 1-1.861 1.775q-1.145.63-2.605.63-1.975 0-3.436-.859-1.43-.859-2.233-2.405-.801-1.546-.801-3.664 0-2.233.801-3.865.802-1.66 2.233-2.548 1.46-.916 3.436-.916 1.46 0 2.605.687 1.145.659 1.861 1.89v-2.233h3.78v12.768c0 1.603-.31 2.977-.92 4.122q-.913 1.746-2.603 2.634-1.66.887-3.979.887m.344-9.676q.974 0 1.689-.487a3.36 3.36 0 0 0 1.145-1.374q.4-.887.401-2.004 0-1.144-.43-2.004a3.17 3.17 0 0 0-1.145-1.345q-.715-.487-1.689-.487-1.002 0-1.775.487a3.3 3.3 0 0 0-1.202 1.345q-.43.86-.458 2.004.028 1.118.458 2.004a3.5 3.5 0 0 0 1.202 1.374 3.4 3.4 0 0 0 1.804.487m15.048 3.922c-1.72 0-3.06-.382-4.01-1.145-.93-.763-1.4-1.842-1.4-3.235 0-1.527.5-2.672 1.51-3.435 1.04-.783 2.48-1.174 4.33-1.174h3.38c-.14-.878-.41-1.546-.83-2.004-.42-.477-1.03-.716-1.81-.716-.61 0-1.16.134-1.66.401q-.735.401-1.26 1.231l-3.32-1.145a6.8 6.8 0 0 1 1.17-1.775q.78-.888 2.01-1.431 1.26-.573 3.06-.573c1.45 0 2.65.277 3.61.83a5.06 5.06 0 0 1 2.15 2.348c.47.992.7 2.175.68 3.55l-.08 7.93h-3.52l-.06-1.661a3.6 3.6 0 0 1-1.55 1.489q-.975.515-2.4.515m.63-3.149c.61 0 1.16-.143 1.66-.429.49-.287.89-.659 1.17-1.117.29-.458.43-.935.43-1.431v-.058h-2.15c-1.24 0-2.09.153-2.57.459q-.72.429-.72 1.231 0 .628.57 1.002c.39.229.92.343 1.61.343m15.89 3.149q-2.37 0-3.6-1.174c-.81-.782-1.21-1.899-1.21-3.349v-6.928h-2.32v-3.206h2.32v-4.466h3.78v4.466h3.58v3.206h-3.58v6.098c0 .61.14 1.078.4 1.402.27.306.66.459 1.18.459q.285 0 .63-.115c.23-.095.46-.229.71-.401l1.32 2.834a6 6 0 0 1-1.55.831c-.55.229-1.1.343-1.66.343m11.84 0q-2.115 0-3.75-.945a7.03 7.03 0 0 1-2.58-2.662c-.61-1.126-.91-2.424-.91-3.893 0-1.47.31-2.768.94-3.894a7 7 0 0 1 2.64-2.634c1.12-.649 2.41-.973 3.86-.973 1.26 0 2.42.334 3.47 1.002 1.06.649 1.91 1.613 2.54 2.891.65 1.26.98 2.796.98 4.61h-10.48c.09.954.51 1.717 1.23 2.29q1.095.83 2.46.83 1.17 0 1.92-.487c.5-.343.88-.782 1.15-1.317l3.37 1.317c-.4.802-.92 1.499-1.57 2.09a6.45 6.45 0 0 1-2.26 1.317c-.88.305-1.88.458-3.01.458m-3.09-9.304h6.18q-.075-.888-.57-1.431c-.32-.363-.71-.63-1.14-.802a3.5 3.5 0 0 0-1.29-.258q-.6 0-1.32.258-.69.229-1.23.773-.51.544-.63 1.46m-210.657 37.961 7.901-20.04h4.18l7.901 20.04h-4.151l-1.717-4.409h-8.245l-1.718 4.409zm7.157-7.873h5.668l-2.834-7.272zm22.784 8.216q-1.46 0-2.548-.601-1.088-.63-1.832-1.775l-.143 2.033h-3.579v-20.04h3.779v7.672q.716-1.116 1.804-1.689 1.088-.601 2.519-.601 1.976 0 3.407.916 1.46.916 2.261 2.605.802 1.66.802 3.98 0 2.29-.802 3.979-.801 1.689-2.261 2.605-1.431.916-3.407.916m-.973-3.464q1.03 0 1.803-.515a3.54 3.54 0 0 0 1.26-1.432q.458-.916.458-2.089 0-1.175-.458-2.09-.43-.917-1.231-1.403-.773-.515-1.804-.515-.973 0-1.746.515-.773.516-1.202 1.431-.43.888-.43 2.062t.43 2.089 1.173 1.432a3.1 3.1 0 0 0 1.747.515m10.154 3.121v-14.314h3.779v14.314zm1.89-16.633q-.86 0-1.518-.63-.658-.658-.658-1.546 0-.887.658-1.517.659-.659 1.518-.659.887 0 1.517.659.658.63.658 1.517 0 .888-.658 1.546-.63.63-1.517.63m5.374 16.633v-20.04h3.779v20.04zm13.515.343q-2.119 0-3.75-.945a7.04 7.04 0 0 1-2.577-2.662q-.916-1.69-.916-3.893 0-2.205.945-3.894a7 7 0 0 1 2.633-2.634q1.69-.973 3.865-.973a6.3 6.3 0 0 1 3.464 1.002q1.603.974 2.548 2.891.973 1.89.973 4.61h-10.477q.142 1.43 1.231 2.29 1.088.83 2.462.83 1.173 0 1.918-.487a3.45 3.45 0 0 0 1.145-1.317l3.378 1.317a7.1 7.1 0 0 1-1.575 2.09q-.944.86-2.261 1.317-1.317.458-3.006.458m-3.092-9.304h6.184q-.086-.888-.573-1.431a3 3 0 0 0-1.145-.802 3.5 3.5 0 0 0-1.288-.258q-.601 0-1.317.258a3.1 3.1 0 0 0-1.231.773q-.516.544-.63 1.46m12.474 8.961v-14.314h3.549l.172 1.946q.687-1.116 1.746-1.689 1.088-.601 2.463-.601 1.689 0 2.891.687t1.832 2.147q.63 1.431.601 3.722v8.102h-3.779v-7.329q0-1.46-.343-2.262-.315-.801-.916-1.145-.602-.372-1.403-.372-1.46-.028-2.262.887-.773.917-.773 2.72v7.501zm22.74.343q-2.118 0-3.75-.945a7.04 7.04 0 0 1-2.576-2.662q-.916-1.69-.916-3.893 0-2.205.944-3.894a7 7 0 0 1 2.634-2.634q1.689-.973 3.865-.973 1.89 0 3.464 1.002 1.603.974 2.548 2.891.973 1.89.973 4.61h-10.478q.144 1.43 1.231 2.29 1.088.83 2.462.83 1.174 0 1.918-.487a3.45 3.45 0 0 0 1.145-1.317l3.379 1.317a7.1 7.1 0 0 1-1.575 2.09q-.945.86-2.262 1.317-1.316.458-3.006.458m-3.091-9.304h6.183q-.086-.888-.572-1.431a3 3 0 0 0-1.145-.802 3.5 3.5 0 0 0-1.289-.258q-.6 0-1.317.258-.687.229-1.231.773-.515.544-.629 1.46m-85.408 125.621 5.325-7.414-4.953-6.9h4.466l2.577 3.836 2.548-3.836h4.466l-4.924 6.928 5.267 7.386h-4.494l-2.863-4.323-2.892 4.323zm15.291 0 7.902-20.039h4.179l7.902 20.039h-4.151l-1.718-4.408h-8.245l-1.718 4.408zm7.157-7.872h5.669l-2.835-7.272zm15.227 7.872v-20.039h3.922v20.039zm23.942.344q-2.919 0-5.181-1.317a9.63 9.63 0 0 1-3.55-3.665q-1.288-2.347-1.288-5.382t1.288-5.353q1.288-2.347 3.521-3.664 2.262-1.346 5.182-1.346 2.061 0 3.836.744a9.2 9.2 0 0 1 3.092 2.033 8.9 8.9 0 0 1 2.061 2.977l-3.636 1.346a6 6 0 0 0-1.288-1.832 5.6 5.6 0 0 0-1.832-1.231 5.4 5.4 0 0 0-2.233-.458q-1.747 0-3.121.887-1.346.86-2.118 2.376-.744 1.517-.744 3.521t.773 3.55a6.1 6.1 0 0 0 2.147 2.405q1.374.86 3.149.859 1.23 0 2.233-.458a5.9 5.9 0 0 0 1.803-1.317 6.7 6.7 0 0 0 1.289-1.918l3.635 1.317a9.3 9.3 0 0 1-2.061 3.092 9.3 9.3 0 0 1-3.092 2.089q-1.774.745-3.865.745m18.082 0q-2.175 0-3.893-.945a7.13 7.13 0 0 1-2.663-2.662q-.944-1.689-.944-3.894t.944-3.893a6.73 6.73 0 0 1 2.634-2.634q1.689-.973 3.865-.973 2.204 0 3.893.973a6.73 6.73 0 0 1 2.634 2.634q.945 1.69.945 3.893 0 2.205-.945 3.894a6.9 6.9 0 0 1-2.634 2.662q-1.66.945-3.836.945m0-3.493q1.06 0 1.861-.515a3.4 3.4 0 0 0 1.231-1.403q.458-.916.458-2.09t-.458-2.061a3.47 3.47 0 0 0-1.288-1.431q-.802-.516-1.861-.516-1.03 0-1.861.516-.801.514-1.26 1.431-.458.888-.458 2.061t.458 2.09a3.5 3.5 0 0 0 1.289 1.403q.83.515 1.889.515m9.907 3.149v-20.039h3.779v20.039zm13.773.344q-2.176 0-3.894-.945a7.13 7.13 0 0 1-2.662-2.662q-.945-1.689-.945-3.894t.945-3.893a6.73 6.73 0 0 1 2.634-2.634q1.689-.973 3.865-.973 2.204 0 3.893.973a6.73 6.73 0 0 1 2.634 2.634q.944 1.69.944 3.893 0 2.205-.944 3.894a6.9 6.9 0 0 1-2.634 2.662q-1.66.945-3.836.945m0-3.493q1.059 0 1.861-.515a3.4 3.4 0 0 0 1.231-1.403q.458-.916.458-2.09t-.458-2.061a3.47 3.47 0 0 0-1.289-1.431q-.801-.516-1.86-.516a3.45 3.45 0 0 0-1.861.516 3.53 3.53 0 0 0-1.26 1.431q-.458.888-.458 2.061t.458 2.09a3.5 3.5 0 0 0 1.288 1.403q.831.515 1.89.515m15.26 3.493a8.1 8.1 0 0 1-2.576-.401 6.8 6.8 0 0 1-2.119-1.202 5.6 5.6 0 0 1-1.431-1.947l3.235-1.489q.429.687 1.173 1.203.745.486 1.718.486.945 0 1.46-.257.515-.286.515-.802 0-.515-.429-.744-.4-.258-1.116-.43l-1.317-.343q-2.061-.544-3.264-1.718-1.173-1.202-1.174-2.748 0-2.205 1.403-3.407 1.431-1.202 4.037-1.202a7.5 7.5 0 0 1 2.49.4q1.174.402 2.004 1.117.83.716 1.145 1.66l-3.12 1.432q-.2-.573-.973-.916a3.54 3.54 0 0 0-1.546-.372q-.773 0-1.203.343-.4.315-.401.888 0 .372.401.629.4.23 1.145.401l1.861.458q1.403.343 2.233 1.117.86.744 1.231 1.689.4.916.401 1.803 0 1.289-.773 2.291-.744.972-2.061 1.517-1.289.543-2.949.544m13.308 0a8.1 8.1 0 0 1-2.577-.401 6.8 6.8 0 0 1-2.118-1.202 5.6 5.6 0 0 1-1.432-1.947l3.235-1.489q.43.687 1.174 1.203.744.486 1.718.486.944 0 1.46-.257.515-.286.515-.802 0-.515-.429-.744-.402-.258-1.117-.43l-1.317-.343q-2.061-.544-3.263-1.718-1.174-1.202-1.174-2.748 0-2.205 1.403-3.407 1.43-1.202 4.036-1.202a7.5 7.5 0 0 1 2.491.4q1.173.402 2.004 1.117.83.716 1.145 1.66l-3.121 1.432q-.2-.573-.973-.916a3.5 3.5 0 0 0-1.546-.372q-.773 0-1.202.343-.4.315-.401.888 0 .372.401.629.4.23 1.145.401l1.861.458q1.402.343 2.233 1.117.859.744 1.231 1.689.4.916.401 1.803 0 1.289-.773 2.291-.745.972-2.062 1.517-1.287.543-2.948.544m13.078 0q-1.719 0-2.92-.687-1.174-.687-1.804-2.119-.63-1.46-.63-3.75v-8.102h3.779v7.329q0 1.431.315 2.262.344.801.945 1.173.63.344 1.402.344 1.49.029 2.262-.888.773-.944.773-2.719v-7.501h3.779v14.314h-3.55l-.143-1.946a5.1 5.1 0 0 1-1.804 1.689q-1.059.6-2.404.601m16.528 0a8.1 8.1 0 0 1-2.576-.401 6.8 6.8 0 0 1-2.119-1.202 5.6 5.6 0 0 1-1.431-1.947l3.235-1.489q.429.687 1.174 1.203.744.486 1.717.486.945 0 1.46-.257.516-.286.516-.802 0-.515-.43-.744-.4-.258-1.116-.43l-1.317-.343q-2.061-.544-3.264-1.718-1.173-1.202-1.174-2.748 0-2.205 1.403-3.407 1.431-1.202 4.037-1.202a7.5 7.5 0 0 1 2.49.4q1.174.402 2.004 1.117.831.716 1.145 1.66l-3.12 1.432q-.2-.573-.973-.916a3.54 3.54 0 0 0-1.546-.372q-.773 0-1.203.343-.4.315-.4.888 0 .372.4.629.401.23 1.145.401l1.861.458q1.403.343 2.233 1.117.86.744 1.231 1.689.4.916.401 1.803 0 1.289-.773 2.291-.744.972-2.061 1.517-1.288.543-2.949.544m14.63-.344v-2.891c0-.554.17-1.164.52-1.832.34-.668.82-1.336 1.43-2.004s1.33-1.289 2.15-1.861l3.03-2.176q.63-.43 1.17-.973c.39-.363.69-.754.92-1.174.25-.439.37-.859.37-1.26 0-.496-.12-.944-.37-1.345a2.36 2.36 0 0 0-1.03-.945c-.46-.229-1.02-.343-1.69-.343-.57 0-1.09.114-1.55.343-.43.229-.8.535-1.08.916q-.435.573-.6 1.231l-4.04-.687q.285-1.432 1.23-2.662.945-1.231 2.46-1.976c1.03-.515 2.2-.773 3.49-.773q2.235 0 3.84.802 1.605.801 2.46 2.204c.59.916.89 1.985.89 3.207 0 1.24-.34 2.347-1.03 3.321-.67.954-1.59 1.851-2.78 2.691l-2.72 1.975c-.55.382-1.03.802-1.43 1.26s-.7.963-.91 1.517h9.13v3.435zM60.196 82.53V54.031H77.05v3.135H63.657v9.2H75.87v3.094H63.657v9.934h13.475v3.135zm22.113 0V62.174h3.054l.162 3.054q1.018-1.71 2.647-2.606 1.627-.936 3.786-.936 2.402 0 4.152.977 1.791.936 2.769 3.012 1.017 2.077.977 5.456v11.398h-3.257V72.108q0-3.013-.692-4.6-.693-1.589-1.914-2.158-1.221-.61-2.768-.611-2.687 0-4.193 1.913-1.466 1.874-1.466 5.334v10.543zm30.144 0v-2.85q0-1.344.53-2.646.57-1.344 1.587-2.647a14.8 14.8 0 0 1 2.565-2.442l5.903-4.438a9 9 0 0 0 1.832-1.669 8.4 8.4 0 0 0 1.262-1.995q.448-1.058.448-2.035 0-1.425-.692-2.565a5 5 0 0 0-1.954-1.873q-1.262-.692-2.972-.692-1.67 0-2.931.652a5.7 5.7 0 0 0-2.077 1.669 6.7 6.7 0 0 0-1.18 2.198l-3.501-.692q.488-1.832 1.75-3.42 1.303-1.587 3.298-2.564t4.437-.977q2.85 0 4.926 1.099 2.076 1.058 3.216 2.93 1.18 1.833 1.181 4.194 0 2.24-1.221 4.234-1.222 1.996-3.542 3.867l-5.577 4.234q-1.628 1.223-2.525 2.565-.854 1.344-.977 2.81h14.249v3.052zm32.405.488q-3.257 0-5.781-1.873-2.524-1.913-3.949-5.21-1.425-3.339-1.425-7.654 0-4.316 1.425-7.613 1.425-3.339 3.908-5.211 2.525-1.913 5.822-1.913t5.781 1.913q2.523 1.872 3.949 5.21 1.465 3.3 1.465 7.614 0 4.315-1.425 7.653-1.424 3.299-3.949 5.211-2.523 1.873-5.821 1.873m0-3.094q2.28 0 4.03-1.506 1.791-1.506 2.769-4.112 1.017-2.605 1.017-6.025t-1.017-6.025q-.978-2.646-2.769-4.112-1.75-1.506-4.03-1.506t-4.03 1.506q-1.751 1.466-2.769 4.112-.977 2.605-.977 6.025t.977 6.025q1.018 2.606 2.769 4.112 1.79 1.506 4.03 1.506m14.33 2.605v-2.85q0-1.343.529-2.645.57-1.344 1.588-2.647a14.8 14.8 0 0 1 2.565-2.442l5.903-4.438a9 9 0 0 0 1.832-1.669 8.5 8.5 0 0 0 1.262-1.995q.448-1.058.448-2.035 0-1.425-.692-2.565a5 5 0 0 0-1.954-1.873q-1.262-.692-2.972-.692-1.67 0-2.931.652a5.7 5.7 0 0 0-2.077 1.669 6.7 6.7 0 0 0-1.18 2.198l-3.501-.692q.488-1.832 1.75-3.42 1.303-1.587 3.298-2.564t4.437-.977q2.85 0 4.926 1.099 2.076 1.058 3.216 2.93 1.18 1.833 1.181 4.194 0 2.24-1.221 4.234-1.222 1.996-3.542 3.867l-5.578 4.234q-1.628 1.223-2.524 2.565-.855 1.344-.977 2.81h14.249v3.052zm31.509.49q-2.931 0-4.926-1.1a8.8 8.8 0 0 1-3.175-3.053q-1.18-1.914-1.71-4.397a28 28 0 0 1-.489-5.333q0-3.664.733-6.555.774-2.89 2.199-4.885 1.424-2.035 3.46-3.094t4.6-1.058q2.118 0 4.193.692 2.118.651 3.746 1.832l-1.914 2.442a10.8 10.8 0 0 0-2.809-1.384q-1.506-.53-2.89-.53-4.153 0-6.31 3.502t-1.914 10.626l-.732-.733q.977-2.484 3.134-3.909 2.158-1.465 5.089-1.465 2.728 0 4.845 1.18a8.3 8.3 0 0 1 3.338 3.298q1.221 2.076 1.221 4.763 0 2.646-1.221 4.763-1.221 2.077-3.42 3.257-2.157 1.14-5.048 1.14m0-3.014q1.832 0 3.216-.773a5.7 5.7 0 0 0 2.199-2.198q.814-1.425.814-3.257t-.814-3.216a5.36 5.36 0 0 0-2.199-2.199q-1.385-.773-3.216-.773-1.791 0-3.216.773a5.63 5.63 0 0 0-2.239 2.199q-.814 1.383-.814 3.216 0 1.832.814 3.257a6 6 0 0 0 2.239 2.198q1.425.774 3.216.773m11.513 7.206 2.32-8.59h3.664l-3.175 8.59zm18.377-4.681V54.031h3.257V82.53zm16.818.488q-2.972 0-5.252-1.343-2.28-1.384-3.582-3.787-1.263-2.4-1.263-5.536t1.263-5.537q1.303-2.402 3.541-3.745 2.28-1.384 5.211-1.384 2.85 0 4.926 1.425 2.076 1.383 3.216 3.908 1.14 2.523 1.14 5.944h-15.999q.204 3.338 2.117 5.21 1.913 1.873 4.845 1.873 2.157 0 3.623-1.018a6.75 6.75 0 0 0 2.32-2.687l2.809 1.425a9 9 0 0 1-2.076 2.769q-1.262 1.18-3.012 1.832-1.71.651-3.827.651m-6.555-12.783h12.254q-.121-1.75-.936-3.013a5.4 5.4 0 0 0-2.036-1.954q-1.262-.692-2.849-.692-1.547 0-2.972.692a5.9 5.9 0 0 0-2.361 1.954q-.937 1.263-1.1 3.013m25.944 12.783q-2.238 0-3.908-.651-1.67-.693-2.809-1.792-1.1-1.099-1.588-2.401l2.85-1.181q.692 1.384 2.076 2.239a5.7 5.7 0 0 0 3.054.855q1.912 0 3.216-.733 1.302-.774 1.302-2.157 0-1.262-.977-2.036-.936-.774-2.809-1.262l-1.954-.53q-2.768-.731-4.315-2.198-1.547-1.506-1.547-3.379 0-2.89 1.873-4.478 1.913-1.629 5.658-1.628 1.792 0 3.257.529 1.466.53 2.524 1.506a5.54 5.54 0 0 1 1.547 2.24l-2.849 1.261q-.53-1.383-1.751-1.994-1.221-.612-2.972-.611-1.872 0-2.931.814-1.058.774-1.058 2.198 0 .815.854 1.547.897.693 2.606 1.14l2.035.53q1.995.488 3.339 1.465 1.343.936 2.035 2.158t.692 2.605q0 1.832-.977 3.176-.977 1.343-2.646 2.076-1.669.692-3.827.692m31.008-.489v-5.007h-13.313V72.27l12.458-18.238h7.043v17.913h4.559v5.577h-4.559v5.007zm-6.758-10.584h6.758v-9.893zm28.448 18.727V62.174h5.985l.244 2.606q.977-1.507 2.443-2.28 1.506-.814 3.46-.814 2.85 0 4.926 1.303 2.076 1.26 3.176 3.663 1.098 2.362 1.099 5.7 0 3.297-1.099 5.7-1.1 2.4-3.176 3.704-2.076 1.262-4.926 1.262-1.913 0-3.379-.733-1.424-.773-2.402-2.198v10.585zm10.504-13.516q1.221 0 2.157-.61.937-.611 1.507-1.67.57-1.1.57-2.524 0-1.425-.53-2.484a4 4 0 0 0-1.506-1.71q-.936-.61-2.158-.61t-2.198.61q-.936.612-1.466 1.71-.529 1.1-.529 2.484 0 1.425.529 2.524a4.2 4.2 0 0 0 1.466 1.67q.937.61 2.158.61m12.899 5.373V54.033h6.351V82.53zm16.618.49q-2.443 0-4.112-.978-1.67-1.017-2.524-3.053-.814-2.035-.814-5.211V62.174h6.35v10.422q0 1.588.367 2.565.366.977 1.058 1.425.692.447 1.629.488 1.832 0 2.768-1.017.936-1.059.936-3.135V62.174h6.351V82.53h-5.984l-.245-2.606a6.9 6.9 0 0 1-2.483 2.28q-1.465.814-3.297.814m22.782 0q-1.995 0-3.745-.57a9.5 9.5 0 0 1-3.013-1.63 6.76 6.76 0 0 1-1.873-2.645l5.252-2.199q.529 1.018 1.466 1.547a4.1 4.1 0 0 0 1.913.489q.977 0 1.547-.326.57-.366.57-.977 0-.651-.57-1.018-.57-.366-1.669-.651l-1.791-.407q-2.81-.733-4.356-2.443-1.548-1.71-1.547-3.949 0-3.134 2.157-4.844 2.159-1.71 5.985-1.71 2.198 0 3.827.61 1.668.57 2.768 1.629 1.14 1.017 1.628 2.361l-5.048 2.117q-.285-.815-1.18-1.262a4.2 4.2 0 0 0-1.914-.448q-.895 0-1.384.407t-.489 1.018q0 .488.57.855.612.325 1.751.61l2.158.53q1.912.489 3.216 1.506 1.303.977 1.954 2.32.651 1.304.651 2.81 0 1.954-1.14 3.379-1.099 1.384-3.094 2.157-1.995.733-4.6.733m28.89 8.223q-2.482 0-4.356-.326-1.832-.326-3.134-.855-1.303-.53-2.158-1.18l2.483-5.049q.652.285 1.547.692.895.449 2.199.774 1.302.326 3.134.326 1.425 0 2.524-.57 1.14-.53 1.751-1.71.651-1.14.651-2.89V78.58a6.9 6.9 0 0 1-2.564 2.36q-1.547.816-3.542.815-2.85 0-4.926-1.14-2.036-1.18-3.176-3.338-1.099-2.158-1.099-5.13 0-3.256 1.099-5.577 1.14-2.32 3.176-3.582 2.076-1.303 4.926-1.303 1.995 0 3.542.936 1.587.896 2.564 2.606v-3.054h6.351V80.21q0 3.42-1.302 5.903-1.303 2.484-3.746 3.786-2.442 1.344-5.944 1.344m.407-14.778q1.222 0 2.077-.57a3.76 3.76 0 0 0 1.343-1.629q.489-1.017.489-2.32 0-1.385-.489-2.402a3.77 3.77 0 0 0-1.384-1.588q-.855-.57-2.076-.57-1.18 0-2.117.57-.895.57-1.425 1.588-.489 1.017-.529 2.402.04 1.303.529 2.32a4.24 4.24 0 0 0 1.466 1.629q.936.57 2.116.57m13.711 6.066V62.174h6.351v3.786q1.262-1.913 3.216-2.89t3.99-.977v6.188a15 15 0 0 0-3.542.407q-1.629.407-2.646 1.262-1.018.814-1.018 2.117V82.53zm21.691.488q-3.582 0-5.577-1.588-1.995-1.628-1.995-4.64 0-3.217 2.076-4.805t5.822-1.587h4.967q-.204-1.588-.977-2.484-.734-.936-2.402-.936-1.14 0-1.995.53a4.9 4.9 0 0 0-1.466 1.424L429.87 67.1a10.5 10.5 0 0 1 1.913-2.727q1.221-1.222 2.972-1.955 1.75-.732 4.071-.732 3.175 0 5.374 1.18 2.199 1.181 3.298 3.298t1.099 5.007l-.082 11.358h-5.943l-.082-2.076a5.47 5.47 0 0 1-2.239 1.914q-1.384.651-3.257.651m1.425-4.804q1.18 0 2.036-.488a3.57 3.57 0 0 0 1.384-1.303q.53-.855.529-1.832v-.081h-2.687q-1.995 0-2.89.57-.896.529-.896 1.546 0 .734.651 1.181.693.407 1.873.407m13.004 4.316V62.174h5.984l.245 2.606q1.017-1.465 2.483-2.28 1.465-.814 3.297-.814 2.443 0 4.112 1.017 1.67.978 2.484 3.013.854 2.035.854 5.211v11.602h-6.35V72.108q0-1.628-.367-2.565-.366-.978-1.058-1.425-.651-.448-1.629-.489-1.832-.04-2.768 1.018-.936 1.019-.936 3.135V82.53zm30.436.488q-2.85 0-4.926-1.262-2.036-1.302-3.175-3.705-1.1-2.4-1.1-5.7 0-3.337 1.1-5.699 1.139-2.4 3.175-3.663 2.076-1.303 4.926-1.303 1.914 0 3.338.773a6.54 6.54 0 0 1 2.443 2.117V54.032h6.351V82.53h-6.066l-.163-2.565a6.55 6.55 0 0 1-2.443 2.28q-1.506.773-3.46.773m1.669-5.862q1.14 0 1.995-.53a3.8 3.8 0 0 0 1.425-1.506q.57-1.017.692-2.239v-1.058a5.4 5.4 0 0 0-.692-2.199 3.8 3.8 0 0 0-1.425-1.506q-.896-.57-2.036-.57-1.221 0-2.198.61-.936.612-1.506 1.71-.53 1.059-.53 2.484t.57 2.524q.57 1.058 1.507 1.67.977.61 2.198.61m21.21 5.862q-1.994 0-3.746-.57a9.5 9.5 0 0 1-3.012-1.628 6.75 6.75 0 0 1-1.873-2.646l5.252-2.199q.53 1.018 1.465 1.547a4.1 4.1 0 0 0 1.914.489q.977 0 1.547-.326.57-.366.57-.977 0-.651-.57-1.018-.57-.366-1.669-.651l-1.792-.407q-2.808-.733-4.356-2.443-1.547-1.71-1.547-3.949 0-3.134 2.158-4.844t5.985-1.71q2.198 0 3.826.61 1.67.57 2.769 1.629 1.14 1.017 1.628 2.361l-5.048 2.117q-.285-.815-1.181-1.262a4.2 4.2 0 0 0-1.913-.448q-.896 0-1.384.407-.489.407-.489 1.018 0 .488.57.855.61.325 1.751.61l2.157.53q1.914.489 3.217 1.506 1.302.977 1.954 2.32.651 1.304.651 2.81 0 1.954-1.14 3.379-1.1 1.384-3.094 2.157-1.995.733-4.6.733m29.419 0q-3.256 0-5.821-1.343-2.524-1.384-3.949-3.787-1.425-2.442-1.425-5.536 0-3.135 1.425-5.537a10 10 0 0 1 3.908-3.745q2.524-1.384 5.781-1.384 3.135 0 5.74 1.587 2.606 1.588 3.746 4.6l-6.026 2.036q-.447-.976-1.506-1.588a4.14 4.14 0 0 0-2.28-.65q-1.261 0-2.239.61-.936.57-1.506 1.628-.53 1.059-.529 2.443 0 1.385.529 2.442.57 1.018 1.547 1.629 1.017.61 2.28.61 1.261 0 2.28-.65a4 4 0 0 0 1.506-1.71l6.025 2.035q-1.18 3.053-3.786 4.682-2.565 1.628-5.7 1.628m20.894 0q-3.175 0-5.618-1.343a9.77 9.77 0 0 1-3.827-3.746q-1.384-2.401-1.384-5.577 0-3.175 1.384-5.578a9.77 9.77 0 0 1 3.827-3.745q2.484-1.343 5.7-1.343 2.89 0 5.211 1.384 2.32 1.384 3.664 4.152 1.384 2.728 1.384 6.758h-14.575q.204 1.75 1.425 2.81 1.263 1.017 2.972 1.017 1.507 0 2.524-.651 1.019-.693 1.425-1.71l5.659 1.913q-.814 1.954-2.321 3.216a9.6 9.6 0 0 1-3.379 1.873q-1.913.57-4.071.57m-4.071-13.272h7.776q-.163-1.18-.773-1.872a3.6 3.6 0 0 0-1.425-1.059 4.4 4.4 0 0 0-1.629-.325q-.773 0-1.628.325-.855.285-1.507 1.018-.61.692-.814 1.913m16.038 12.784V62.174h5.985l.244 2.606q1.017-1.465 2.483-2.28t3.298-.814q2.442 0 4.112 1.017 1.668.978 2.483 3.013.855 2.035.855 5.211v11.602h-6.351V72.108q0-1.628-.366-2.565-.367-.978-1.059-1.425-.651-.448-1.628-.489-1.832-.04-2.769 1.018-.936 1.019-.936 3.135V82.53zm31.047.488q-3.623 0-5.414-1.71-1.752-1.75-1.751-4.967v-8.834h-3.175v-5.333h3.175v-6.35h6.351v6.35h4.641v5.333h-4.641v7.247q0 1.221.448 1.791.447.57 1.384.57.366 0 .855-.163.488-.203.895-.488l2.199 4.64q-.978.815-2.361 1.385-1.344.53-2.606.53m7.061-.489V62.174h6.351v3.786q1.261-1.913 3.216-2.89t3.99-.977v6.188a15 15 0 0 0-3.542.407q-1.629.407-2.646 1.262-1.018.814-1.018 2.117V82.53zm24.948.49q-3.176 0-5.618-1.344a9.77 9.77 0 0 1-3.827-3.746q-1.384-2.401-1.384-5.577 0-3.175 1.384-5.578a9.77 9.77 0 0 1 3.827-3.745q2.483-1.343 5.7-1.343 2.89 0 5.21 1.384 2.321 1.384 3.664 4.152 1.385 2.728 1.385 6.758H625.84q.204 1.75 1.425 2.81 1.262 1.017 2.972 1.017 1.506 0 2.524-.651 1.017-.693 1.425-1.71l5.659 1.913q-.815 1.954-2.321 3.216a9.6 9.6 0 0 1-3.379 1.873q-1.912.57-4.071.57m-4.071-13.273h7.776q-.163-1.18-.774-1.872a3.6 3.6 0 0 0-1.425-1.059 4.4 4.4 0 0 0-1.628-.325q-.774 0-1.628.325-.856.285-1.507 1.018-.61.692-.814 1.913m23.692 13.272q-1.995 0-3.746-.57a9.5 9.5 0 0 1-3.012-1.628 6.74 6.74 0 0 1-1.873-2.646l5.252-2.199q.528 1.018 1.465 1.547a4.1 4.1 0 0 0 1.914.489q.977 0 1.547-.326.57-.366.57-.977 0-.651-.57-1.018-.57-.366-1.67-.651l-1.791-.407q-2.81-.733-4.356-2.443-1.547-1.71-1.547-3.949 0-3.134 2.158-4.844t5.984-1.71q2.198 0 3.827.61 1.67.57 2.768 1.629 1.14 1.017 1.629 2.361l-5.048 2.117q-.285-.815-1.181-1.262a4.2 4.2 0 0 0-1.913-.448q-.896 0-1.384.407-.489.407-.489 1.018 0 .488.57.855.611.325 1.75.61l2.158.53q1.914.489 3.216 1.506 1.303.977 1.954 2.32.652 1.304.652 2.81 0 1.954-1.14 3.379-1.1 1.384-3.094 2.157-1.995.733-4.6.733m27.424 0q-2.85 0-4.926-1.262-2.035-1.302-3.175-3.705-1.1-2.4-1.099-5.7 0-3.337 1.099-5.699 1.14-2.4 3.175-3.663 2.076-1.303 4.926-1.303 1.914 0 3.339.773a6.5 6.5 0 0 1 2.442 2.117V54.032h6.351V82.53h-6.066l-.163-2.565a6.56 6.56 0 0 1-2.442 2.28q-1.506.773-3.461.773m1.669-5.862q1.14 0 1.995-.53a3.8 3.8 0 0 0 1.425-1.506 5.7 5.7 0 0 0 .692-2.239v-1.058a5.4 5.4 0 0 0-.692-2.199 3.8 3.8 0 0 0-1.425-1.506q-.895-.57-2.035-.57-1.221 0-2.199.61-.936.612-1.506 1.71-.53 1.059-.529 2.484 0 1.425.57 2.524a4.5 4.5 0 0 0 1.506 1.67q.977.61 2.198.61m23.327 5.862q-3.175 0-5.618-1.343a9.77 9.77 0 0 1-3.827-3.746q-1.384-2.401-1.384-5.577 0-3.175 1.384-5.578a9.77 9.77 0 0 1 3.827-3.745q2.483-1.343 5.7-1.343 2.89 0 5.211 1.384 2.32 1.384 3.663 4.152 1.385 2.728 1.385 6.758h-14.575q.204 1.75 1.425 2.81 1.262 1.017 2.972 1.017 1.506 0 2.524-.651 1.019-.693 1.425-1.71l5.659 1.913q-.815 1.954-2.321 3.216a9.6 9.6 0 0 1-3.379 1.873q-1.913.57-4.071.57m-4.071-13.272h7.776q-.163-1.18-.774-1.872a3.6 3.6 0 0 0-1.425-1.059 4.4 4.4 0 0 0-1.628-.325q-.773 0-1.628.325-.855.285-1.507 1.018-.61.692-.814 1.913m32.679 13.272q-2.85 0-4.926-1.262-2.036-1.302-3.176-3.705-1.1-2.4-1.099-5.7 0-3.337 1.099-5.699 1.14-2.4 3.176-3.663 2.076-1.303 4.926-1.303 1.913 0 3.338.773a6.54 6.54 0 0 1 2.443 2.117V54.032h6.35V82.53h-6.065l-.163-2.565a6.56 6.56 0 0 1-2.443 2.28q-1.507.773-3.46.773m1.669-5.862q1.14 0 1.995-.53a3.8 3.8 0 0 0 1.425-1.506q.569-1.017.692-2.239v-1.058a5.4 5.4 0 0 0-.692-2.199 3.8 3.8 0 0 0-1.425-1.506q-.896-.57-2.036-.57-1.221 0-2.198.61-.937.612-1.507 1.71-.529 1.059-.529 2.484t.57 2.524a4.5 4.5 0 0 0 1.506 1.67q.978.61 2.199.61m23.408 5.862q-3.216 0-5.659-1.343a10.36 10.36 0 0 1-3.867-3.787q-1.384-2.4-1.384-5.536t1.343-5.537a9.76 9.76 0 0 1 3.827-3.745q2.483-1.384 5.618-1.384 3.216 0 5.659 1.384 2.483 1.343 3.826 3.745 1.385 2.403 1.385 5.537t-1.385 5.536q-1.342 2.403-3.786 3.787-2.442 1.343-5.577 1.343m0-5.862q1.22 0 2.158-.61a4.1 4.1 0 0 0 1.506-1.67q.57-1.1.57-2.524 0-1.425-.57-2.484-.53-1.098-1.506-1.71-.978-.61-2.239-.61-1.263 0-2.24.61-.977.612-1.547 1.71-.529 1.059-.529 2.484t.529 2.524q.57 1.058 1.547 1.67 1.018.61 2.321.61m12.8 5.373V62.174h5.984l.245 2.606q1.017-1.465 2.483-2.28t3.297-.814q2.443 0 4.112 1.017 1.67.978 2.484 3.013.854 2.035.854 5.211v11.602h-6.35V72.108q0-1.628-.367-2.565-.366-.978-1.058-1.425-.652-.448-1.629-.489-1.832-.04-2.768 1.018-.936 1.019-.936 3.135V82.53zm22.294 0V62.174h5.984l.245 2.606q1.017-1.465 2.483-2.28t3.297-.814q2.443 0 4.112 1.017 1.67.978 2.484 3.013.855 2.035.854 5.211v11.602h-6.35V72.108q0-1.628-.367-2.565-.366-.978-1.058-1.425-.651-.448-1.629-.489-1.832-.04-2.768 1.018-.936 1.019-.936 3.135V82.53zm32.064.49q-3.175 0-5.618-1.344a9.77 9.77 0 0 1-3.827-3.746q-1.383-2.401-1.384-5.577 0-3.175 1.384-5.578a9.77 9.77 0 0 1 3.827-3.745q2.484-1.343 5.7-1.343 2.89 0 5.211 1.384 2.32 1.384 3.664 4.152 1.384 2.728 1.384 6.758h-14.575q.204 1.75 1.425 2.81 1.263 1.017 2.972 1.017 1.506 0 2.524-.651 1.018-.693 1.425-1.71l5.659 1.913q-.814 1.954-2.321 3.216a9.6 9.6 0 0 1-3.379 1.873q-1.912.57-4.071.57m-4.071-13.273h7.776q-.163-1.18-.773-1.872a3.6 3.6 0 0 0-1.425-1.059 4.4 4.4 0 0 0-1.629-.325q-.773 0-1.628.325-.855.285-1.506 1.018-.611.692-.815 1.913m.448-9.933 4.519-5.78h6.88l-5.252 5.78zm25.401 23.205q-3.176 0-5.618-1.343a9.76 9.76 0 0 1-3.827-3.746q-1.384-2.401-1.384-5.577 0-3.175 1.384-5.578a9.76 9.76 0 0 1 3.827-3.745q2.483-1.343 5.699-1.343 2.89 0 5.211 1.384 2.32 1.384 3.664 4.152 1.384 2.728 1.384 6.758h-14.574q.203 1.75 1.425 2.81 1.262 1.017 2.971 1.017 1.507 0 2.524-.651 1.018-.693 1.425-1.71l5.659 1.913q-.814 1.954-2.32 3.216a9.6 9.6 0 0 1-3.379 1.873q-1.914.57-4.071.57m-4.071-13.272h7.775q-.162-1.18-.773-1.872a3.6 3.6 0 0 0-1.425-1.059 4.4 4.4 0 0 0-1.629-.325q-.773 0-1.628.325-.855.285-1.506 1.018-.611.692-.814 1.913m23.691 13.272q-1.995 0-3.745-.57a9.5 9.5 0 0 1-3.013-1.628 6.76 6.76 0 0 1-1.873-2.646l5.252-2.199q.529 1.018 1.466 1.547a4.1 4.1 0 0 0 1.913.489q.977 0 1.547-.326.57-.366.57-.977 0-.651-.57-1.018-.57-.366-1.669-.651l-1.791-.407q-2.81-.733-4.356-2.443-1.548-1.71-1.547-3.949 0-3.134 2.157-4.844t5.985-1.71q2.198 0 3.827.61 1.668.57 2.768 1.629 1.14 1.017 1.628 2.361l-5.048 2.117q-.285-.815-1.18-1.262a4.2 4.2 0 0 0-1.914-.448q-.895 0-1.384.407t-.489 1.018q0 .488.57.855.611.325 1.751.61l2.158.53q1.912.489 3.216 1.506 1.303.977 1.954 2.32.651 1.304.651 2.81 0 1.954-1.14 3.379-1.099 1.384-3.094 2.157-1.995.733-4.6.733m27.425 0q-2.85 0-4.926-1.262-2.036-1.302-3.176-3.705-1.099-2.4-1.099-5.7 0-3.337 1.099-5.699 1.14-2.4 3.176-3.663 2.076-1.303 4.926-1.303 1.913 0 3.338.773a6.54 6.54 0 0 1 2.443 2.117V54.032h6.35V82.53h-6.065l-.163-2.565a6.56 6.56 0 0 1-2.443 2.28q-1.507.773-3.46.773m1.669-5.862q1.14 0 1.995-.53a3.8 3.8 0 0 0 1.425-1.506q.57-1.017.692-2.239v-1.058a5.4 5.4 0 0 0-.692-2.199 3.8 3.8 0 0 0-1.425-1.506q-.896-.57-2.036-.57-1.221 0-2.198.61-.937.612-1.507 1.71-.529 1.059-.529 2.484t.57 2.524q.57 1.058 1.507 1.67.977.61 2.198.61m23.327 5.862q-3.176 0-5.618-1.343a9.76 9.76 0 0 1-3.827-3.746q-1.384-2.401-1.384-5.577 0-3.175 1.384-5.578a9.76 9.76 0 0 1 3.827-3.745q2.483-1.343 5.699-1.343 2.89 0 5.211 1.384 2.32 1.384 3.664 4.152 1.384 2.728 1.384 6.758h-14.574q.202 1.75 1.425 2.81 1.262 1.017 2.971 1.017 1.507 0 2.524-.651 1.018-.693 1.425-1.71l5.659 1.913q-.814 1.954-2.32 3.216a9.6 9.6 0 0 1-3.379 1.873q-1.914.57-4.071.57m-4.071-13.272h7.775q-.162-1.18-.773-1.872a3.6 3.6 0 0 0-1.425-1.059 4.4 4.4 0 0 0-1.629-.325q-.773 0-1.628.325-.855.285-1.506 1.018-.611.692-.814 1.913m.447-9.933 4.519-5.78h6.88l-5.251 5.78zm23.772 23.205q-2.849 0-4.926-1.262-2.035-1.302-3.175-3.705-1.1-2.4-1.099-5.7 0-3.337 1.099-5.699 1.14-2.4 3.175-3.663 2.078-1.303 4.926-1.303 1.914 0 3.339.773a6.5 6.5 0 0 1 2.442 2.117V54.032h6.351V82.53h-6.066l-.163-2.565a6.56 6.56 0 0 1-2.442 2.28q-1.506.773-3.461.773m1.669-5.862q1.14 0 1.995-.53a3.8 3.8 0 0 0 1.425-1.506 5.7 5.7 0 0 0 .692-2.239v-1.058a5.4 5.4 0 0 0-.692-2.199 3.8 3.8 0 0 0-1.425-1.506q-.895-.57-2.035-.57-1.221 0-2.199.61-.936.612-1.506 1.71-.53 1.059-.529 2.484 0 1.425.57 2.524a4.5 4.5 0 0 0 1.506 1.67q.977.61 2.198.61m13.923 5.373V62.174h6.351V82.53zm3.176-22.96q-1.425 0-2.525-1.059-1.058-1.099-1.058-2.524 0-1.506 1.058-2.524 1.1-1.059 2.525-1.058 1.465 0 2.524 1.058 1.058 1.018 1.058 2.524 0 1.426-1.058 2.524-1.059 1.059-2.524 1.059m16.436 23.45q-3.175 0-5.618-1.344a9.77 9.77 0 0 1-3.827-3.746q-1.384-2.401-1.384-5.577 0-3.175 1.384-5.578a9.77 9.77 0 0 1 3.827-3.745q2.484-1.343 5.7-1.343 2.89 0 5.211 1.384 2.32 1.384 3.664 4.152 1.384 2.728 1.384 6.758h-14.575q.204 1.75 1.425 2.81 1.262 1.017 2.972 1.017 1.507 0 2.524-.651 1.018-.693 1.425-1.71l5.659 1.913q-.815 1.954-2.321 3.216a9.6 9.6 0 0 1-3.379 1.873q-1.912.57-4.071.57m-4.071-13.273h7.776q-.163-1.18-.774-1.872a3.6 3.6 0 0 0-1.424-1.059 4.4 4.4 0 0 0-1.629-.325q-.774 0-1.628.325-.855.285-1.507 1.018-.61.692-.814 1.913m.448-9.933 4.519-5.78h6.88l-5.252 5.78zm23.284 23.205q-1.995 0-3.746-.57a9.5 9.5 0 0 1-3.012-1.628 6.74 6.74 0 0 1-1.873-2.646l5.252-2.199q.529 1.018 1.465 1.547a4.1 4.1 0 0 0 1.914.489q.977 0 1.547-.326.569-.366.569-.977 0-.651-.569-1.018-.57-.366-1.67-.651l-1.791-.407q-2.81-.733-4.356-2.443-1.547-1.71-1.547-3.949 0-3.134 2.158-4.844t5.984-1.71q2.198 0 3.827.61 1.67.57 2.768 1.629c.76.678 1.3 1.465 1.63 2.361l-5.049 2.117q-.285-.815-1.181-1.262a4.2 4.2 0 0 0-1.913-.448q-.896 0-1.385.407-.488.407-.488 1.018 0 .488.57.855.611.325 1.75.61l2.158.53q1.914.489 3.216 1.506 1.303.977 1.954 2.32a6.15 6.15 0 0 1 .648 2.81q-.001 1.954-1.136 3.379-1.1 1.384-3.094 2.157-1.995.733-4.6.733m25.8 0q-3.585 0-5.58-1.588c-1.33-1.085-2-2.632-2-4.64 0-2.145.7-3.746 2.08-4.805q2.07-1.587 5.82-1.587h4.97c-.14-1.059-.46-1.886-.98-2.484q-.735-.936-2.4-.936c-.76 0-1.43.177-2 .53-.57.352-1.05.827-1.46 1.424l-5.58-1.832a10.7 10.7 0 0 1 1.91-2.727c.82-.815 1.81-1.466 2.98-1.955 1.16-.488 2.52-.732 4.07-.732 2.11 0 3.91.393 5.37 1.18q2.205 1.181 3.3 3.298c.73 1.411 1.1 3.08 1.1 5.007l-.08 11.358h-5.95l-.08-2.076a5.4 5.4 0 0 1-2.24 1.914c-.92.434-2.01.651-3.25.651m1.42-4.804q1.185 0 2.04-.488.885-.489 1.38-1.303c.35-.57.53-1.18.53-1.832v-.081h-2.69c-1.33 0-2.29.19-2.89.57-.59.352-.89.868-.89 1.546 0 .489.21.883.65 1.181.46.272 1.08.407 1.87.407m-1.42-18.401-5.34-5.822h6.88l4.6 5.822zm22.8 22.716V54.033h6.35V82.53zm7.79-18.4 2.6-10.097h6.43l-4.31 10.096zm10.94 18.4V54.033h6.55V82.53zm8.6 0 11.07-28.497h7l11.08 28.498h-6.93l-2.07-5.415h-11.16l-2.07 5.415zm11.11-11.195h6.88l-3.42-9.119zM59.4 129.53v-21.363h3.205l.171 3.205q1.068-1.795 2.777-2.735 1.71-.983 3.974-.983 2.52 0 4.358 1.026 1.88.983 2.905 3.161 1.068 2.18 1.025 5.726v11.963h-3.418v-10.938q0-3.162-.726-4.828t-2.008-2.264q-1.282-.641-2.905-.641-2.82 0-4.401 2.008-1.538 1.965-1.538 5.597v11.066zm32.139.512q-3.12 0-5.512-1.41-2.392-1.453-3.76-3.973-1.324-2.52-1.324-5.811t1.324-5.81q1.367-2.521 3.717-3.931 2.393-1.453 5.47-1.453 2.99 0 5.169 1.496 2.18 1.452 3.375 4.101 1.196 2.65 1.196 6.238h-16.79q.213 3.504 2.221 5.469t5.085 1.965q2.265 0 3.802-1.068a7.1 7.1 0 0 0 2.435-2.82l2.948 1.496a9.5 9.5 0 0 1-2.179 2.905q-1.324 1.239-3.161 1.923-1.795.683-4.016.683m-6.879-13.415h12.86q-.128-1.837-.983-3.162a5.67 5.67 0 0 0-2.136-2.051q-1.325-.726-2.99-.726a7.06 7.06 0 0 0-3.12.726 6.2 6.2 0 0 0-2.477 2.051q-.984 1.325-1.154 3.162m3.93-11.493 5-5.512h4.4l-5.511 5.512zm25.442 24.908q-3.162 0-5.597-1.41a10.2 10.2 0 0 1-3.803-3.973q-1.367-2.52-1.367-5.811t1.324-5.81q1.368-2.521 3.803-3.931 2.436-1.453 5.554-1.453 3.076 0 5.512 1.41 2.434 1.41 3.717 3.974l-3.119 1.41a6.2 6.2 0 0 0-2.478-2.649q-1.624-.983-3.717-.983t-3.717 1.025q-1.58 1.026-2.521 2.863-.897 1.794-.897 4.144t.897 4.187q.94 1.796 2.563 2.82 1.667 1.026 3.76 1.026t3.717-1.069q1.666-1.068 2.521-2.99l3.119 1.41q-1.282 2.734-3.717 4.272t-5.554 1.538m21.9 0q-3.119 0-5.511-1.41-2.392-1.453-3.76-3.973-1.324-2.52-1.324-5.811t1.324-5.81q1.368-2.521 3.717-3.931 2.393-1.453 5.469-1.453 2.99 0 5.17 1.496 2.178 1.452 3.375 4.101t1.196 6.238h-16.791q.214 3.504 2.222 5.469t5.084 1.965q2.265 0 3.803-1.068a7.1 7.1 0 0 0 2.435-2.82l2.948 1.496a9.5 9.5 0 0 1-2.179 2.905q-1.325 1.239-3.161 1.923-1.795.683-4.017.683m-6.878-13.415h12.86q-.128-1.837-.983-3.162a5.67 5.67 0 0 0-2.136-2.051q-1.325-.726-2.991-.726a7.06 7.06 0 0 0-3.119.726 6.2 6.2 0 0 0-2.478 2.051q-.982 1.325-1.153 3.162m27.279 13.415q-2.35 0-4.102-.683-1.75-.727-2.948-1.88-1.153-1.154-1.666-2.521l2.991-1.239q.726 1.452 2.179 2.35a6 6 0 0 0 3.204.897q2.008 0 3.375-.769 1.368-.812 1.368-2.264 0-1.324-1.026-2.137-.983-.811-2.948-1.324l-2.051-.556q-2.905-.768-4.528-2.307-1.624-1.581-1.624-3.546 0-3.033 1.965-4.7 2.009-1.709 5.939-1.709 1.88 0 3.418.556 1.538.555 2.649 1.581a5.8 5.8 0 0 1 1.624 2.35l-2.991 1.324q-.555-1.452-1.837-2.093-1.282-.642-3.119-.641-1.966 0-3.076.854-1.111.812-1.111 2.307 0 .855.897 1.624.94.726 2.734 1.196l2.137.556q2.093.512 3.503 1.538 1.41.983 2.136 2.264.726 1.282.727 2.734 0 1.923-1.026 3.333-1.025 1.41-2.777 2.179-1.751.726-4.016.726m18.859 0q-2.35 0-4.102-.683-1.75-.727-2.948-1.88-1.153-1.154-1.666-2.521l2.991-1.239q.726 1.452 2.179 2.35a6 6 0 0 0 3.204.897q2.008 0 3.375-.769 1.368-.812 1.368-2.264 0-1.324-1.026-2.137-.983-.811-2.948-1.324l-2.051-.556q-2.905-.768-4.528-2.307-1.624-1.581-1.624-3.546 0-3.033 1.965-4.7 2.009-1.709 5.939-1.709 1.88 0 3.418.556 1.539.555 2.649 1.581a5.8 5.8 0 0 1 1.624 2.35l-2.991 1.324q-.555-1.452-1.837-2.093-1.282-.642-3.119-.641-1.965 0-3.076.854-1.111.812-1.111 2.307 0 .855.897 1.624.94.726 2.734 1.196l2.137.556q2.093.512 3.503 1.538 1.41.983 2.136 2.264.727 1.282.727 2.734 0 1.923-1.026 3.333-1.025 1.41-2.777 2.179-1.751.726-4.016.726m11.596-.512v-21.363h3.418v21.363zm1.752-26.319q-.855 0-1.496-.641-.64-.64-.641-1.495 0-.897.641-1.496.64-.64 1.496-.64a1.96 1.96 0 0 1 1.495.64q.64.6.641 1.496 0 .855-.641 1.495a1.96 1.96 0 0 1-1.495.641m14.954 26.831q-3.12 0-4.828-1.623-1.71-1.624-1.709-4.572v-12.646h-3.717v-3.034h3.717v-6.665h3.418v6.665h6.408v3.034h-6.408v12.304q0 1.624.854 2.521.897.855 2.478.855.513 0 .983-.129.513-.17 1.324-.769l1.325 2.777q-1.111.727-2.008.983-.898.3-1.837.299m16.303 0q-3.119 0-5.512-1.41-2.393-1.453-3.759-3.973-1.325-2.52-1.325-5.811t1.325-5.81q1.366-2.521 3.717-3.931 2.393-1.453 5.468-1.453 2.99 0 5.17 1.496 2.18 1.452 3.375 4.101 1.197 2.65 1.197 6.238h-16.791q.213 3.504 2.222 5.469 2.007 1.965 5.084 1.965 2.264 0 3.802-1.068a7.1 7.1 0 0 0 2.436-2.82l2.948 1.496a9.5 9.5 0 0 1-2.179 2.905q-1.325 1.239-3.162 1.923-1.794.683-4.016.683m-6.879-13.415h12.86q-.128-1.837-.982-3.162a5.7 5.7 0 0 0-2.137-2.051q-1.324-.726-2.99-.726a7.06 7.06 0 0 0-3.119.726 6.2 6.2 0 0 0-2.478 2.051q-.983 1.325-1.154 3.162m19.803 12.903v-21.363h3.417v3.803q1.283-2.009 3.29-2.948a10.1 10.1 0 0 1 4.273-.94v3.204q-1.88 0-3.632.641a6.1 6.1 0 0 0-2.82 2.008q-1.11 1.41-1.111 3.845v11.75zm22.835.512q-3.119 0-5.554-1.41-2.393-1.453-3.76-3.973t-1.367-5.811 1.324-5.81q1.368-2.521 3.76-3.931 2.436-1.453 5.512-1.453 3.161 0 5.554 1.453a9.6 9.6 0 0 1 3.76 3.931q1.367 2.52 1.367 5.81t-1.367 5.811q-1.324 2.52-3.718 3.973-2.393 1.41-5.511 1.41m0-3.161q2.136 0 3.717-1.026 1.581-1.025 2.478-2.82.94-1.794.94-4.187 0-2.392-.94-4.187-.897-1.794-2.521-2.82t-3.759-1.025q-2.094 0-3.718 1.025-1.58 1.026-2.52 2.82-.898 1.795-.898 4.187 0 2.35.898 4.187.94 1.796 2.563 2.82 1.666 1.026 3.76 1.026m14.298 2.649v-21.363h3.205l.171 3.205q1.068-1.795 2.777-2.735 1.709-.983 3.973-.983 2.521 0 4.358 1.026 1.88.983 2.905 3.161 1.069 2.18 1.026 5.726v11.963h-3.418v-10.938q0-3.162-.726-4.828-.727-1.667-2.009-2.264-1.28-.641-2.905-.641-2.82 0-4.4 2.008-1.539 1.965-1.539 5.597v11.066zm30.814.512q-3.12 0-4.828-1.623-1.709-1.624-1.709-4.572v-12.646h-3.717v-3.034h3.717v-6.665h3.418v6.665h6.409v3.034h-6.409v12.304q0 1.624.854 2.521.898.855 2.478.855.513 0 .983-.129.512-.17 1.325-.769l1.324 2.777q-1.111.727-2.008.983-.898.3-1.837.299m23.335 0q-3.76 0-5.896-1.709-2.094-1.752-2.094-4.828 0-3.246 2.137-4.956 2.178-1.751 6.067-1.751h5.938q-.213-3.034-1.495-4.529-1.282-1.538-3.845-1.538-1.752 0-3.034.726-1.238.683-2.051 2.222l-3.076-1.197a9.9 9.9 0 0 1 1.966-2.563 7.5 7.5 0 0 1 2.691-1.666q1.539-.599 3.504-.599 2.99 0 4.913 1.197 1.965 1.153 2.948 3.46.983 2.265.94 5.64l-.043 11.579h-3.161l-.171-2.863a6.7 6.7 0 0 1-2.521 2.521q-1.581.854-3.717.854m.171-2.99q1.837 0 3.204-.77a5.36 5.36 0 0 0 2.094-2.264q.769-1.452.769-3.503v-.855h-5.255q-2.99 0-4.273.983-1.239.983-1.239 2.82 0 1.665 1.239 2.649 1.24.94 3.461.94m21.548 2.99q-2.477 0-4.358-.982-1.837-1.026-2.905-3.205-1.025-2.221-1.025-5.725v-11.963h3.418v10.938q0 3.161.726 4.828.726 1.665 2.008 2.307 1.325.598 2.948.598 2.777 0 4.315-2.008 1.581-2.009 1.581-5.597v-11.066h3.418v21.363h-3.204l-.171-3.205q-1.068 1.794-2.777 2.777-1.71.94-3.974.94m23.08 0q-3.118 0-4.828-1.623-1.709-1.624-1.709-4.572v-12.646h-3.717v-3.034h3.717v-6.665h3.418v6.665h6.409v3.034h-6.409v12.304q0 1.624.855 2.521.897.855 2.478.855.512 0 .983-.129.512-.17 1.324-.769l1.325 2.777q-1.111.727-2.008.983-.898.3-1.838.299m13.697 0q-3.759 0-5.896-1.709-2.093-1.752-2.093-4.828 0-3.246 2.136-4.956 2.18-1.751 6.067-1.751h5.939q-.214-3.034-1.496-4.529-1.281-1.538-3.845-1.538-1.752 0-3.033.726-1.24.683-2.051 2.222l-3.076-1.197a9.9 9.9 0 0 1 1.965-2.563 7.5 7.5 0 0 1 2.692-1.666q1.538-.599 3.503-.599 2.991 0 4.913 1.197 1.966 1.153 2.948 3.46.984 2.265.94 5.64l-.042 11.579h-3.162l-.171-2.863a6.7 6.7 0 0 1-2.521 2.521q-1.58.854-3.717.854m.171-2.99q1.837 0 3.205-.77a5.36 5.36 0 0 0 2.093-2.264q.77-1.452.769-3.503v-.855h-5.255q-2.991 0-4.272.983-1.239.983-1.239 2.82 0 1.665 1.239 2.649 1.239.94 3.46.94m13.815 2.478v-21.363h3.205l.171 3.205q1.067-1.795 2.777-2.735 1.709-.983 3.973-.983 2.521 0 4.358 1.026 1.88.983 2.905 3.161 1.069 2.18 1.026 5.726v11.963h-3.418v-10.938q0-3.162-.726-4.828-.727-1.667-2.009-2.264-1.28-.641-2.905-.641-2.82 0-4.4 2.008-1.539 1.965-1.539 5.597v11.066zm30.814.512q-3.119 0-4.828-1.623-1.709-1.624-1.709-4.572v-12.646h-3.717v-3.034h3.717v-6.665h3.418v6.665h6.409v3.034h-6.409v12.304q0 1.624.854 2.521.899.855 2.478.855.513 0 .983-.129.513-.17 1.325-.769l1.324 2.777q-1.111.727-2.008.983-.897.3-1.837.299m25.001 0q-2.863 0-5.041-1.41-2.18-1.41-3.418-3.93-1.197-2.563-1.197-5.854 0-3.332 1.197-5.853 1.239-2.52 3.418-3.931 2.178-1.41 5.041-1.41 2.35 0 4.187 1.111 1.88 1.068 3.034 2.991V99.622h3.418v29.908h-3.247l-.171-3.632a8.6 8.6 0 0 1-3.034 3.033q-1.837 1.111-4.187 1.111m.769-3.119q1.88 0 3.29-.982 1.453-1.026 2.265-2.82.854-1.837.897-4.102v-.299q-.043-2.307-.897-4.101-.812-1.838-2.265-2.82-1.452-1.026-3.332-1.026-2.008 0-3.589 1.026-1.581 1.025-2.478 2.862-.855 1.838-.855 4.187t.897 4.187q.898 1.837 2.478 2.863 1.581 1.025 3.589 1.025m12.584-18.286 2.435-9.015h3.845l-3.332 9.015zm18.254 21.405q-3.118 0-5.511-1.41-2.394-1.453-3.76-3.973-1.325-2.52-1.325-5.811t1.325-5.81q1.366-2.521 3.717-3.931 2.392-1.453 5.469-1.453 2.99 0 5.169 1.496 2.18 1.452 3.376 4.101t1.196 6.238h-16.791q.213 3.504 2.222 5.469 2.007 1.965 5.084 1.965 2.265 0 3.802-1.068a7.1 7.1 0 0 0 2.436-2.82l2.948 1.496a9.5 9.5 0 0 1-2.179 2.905q-1.325 1.239-3.162 1.923-1.794.683-4.016.683m-6.879-13.415h12.86q-.128-1.837-.982-3.162a5.67 5.67 0 0 0-2.136-2.051q-1.324-.726-2.991-.726a7.06 7.06 0 0 0-3.119.726 6.2 6.2 0 0 0-2.478 2.051q-.983 1.325-1.154 3.162m3.931-11.493 4.999-5.512h4.4l-5.511 5.512zm15.913 24.396v-21.363h3.205l.171 3.205q1.067-1.795 2.777-2.735 1.709-.983 3.973-.983 2.521 0 4.358 1.026 1.88.983 2.905 3.161 1.068 2.18 1.026 5.726v11.963h-3.418v-10.938q0-3.162-.727-4.828-.726-1.667-2.008-2.264-1.281-.641-2.905-.641-2.82 0-4.401 2.008-1.538 1.965-1.538 5.597v11.066zm32.138.512q-3.119 0-5.511-1.41-2.393-1.453-3.76-3.973-1.325-2.52-1.325-5.811t1.325-5.81q1.366-2.521 3.717-3.931 2.393-1.453 5.469-1.453 2.991 0 5.169 1.496 2.18 1.452 3.376 4.101t1.196 6.238h-16.791q.214 3.504 2.222 5.469t5.084 1.965q2.264 0 3.803-1.068a7.1 7.1 0 0 0 2.435-2.82l2.948 1.496a9.5 9.5 0 0 1-2.179 2.905q-1.325 1.239-3.162 1.923-1.794.683-4.016.683m-6.879-13.415h12.861q-.129-1.837-.983-3.162a5.67 5.67 0 0 0-2.136-2.051q-1.324-.726-2.991-.726a7.06 7.06 0 0 0-3.119.726 6.2 6.2 0 0 0-2.478 2.051q-.983 1.325-1.154 3.162m19.803 12.903v-21.363h3.418v3.803q1.281-2.009 3.29-2.948a10.1 10.1 0 0 1 4.272-.94v3.204q-1.88 0-3.632.641a6.07 6.07 0 0 0-2.819 2.008q-1.111 1.41-1.111 3.845v11.75zm21.938 9.057q-2.05 0-3.76-.427-1.667-.384-2.862-.897-1.154-.47-1.667-.812l1.282-2.777q.555.299 1.581.726 1.025.47 2.393.769 1.41.342 2.99.342 2.05 0 3.675-.854 1.666-.812 2.563-2.607.94-1.752.94-4.529v-2.264a8.6 8.6 0 0 1-3.033 3.034q-1.881 1.068-4.23 1.068-2.863 0-5.042-1.368-2.178-1.367-3.418-3.802-1.196-2.478-1.196-5.64 0-3.247 1.196-5.682 1.24-2.478 3.418-3.845 2.179-1.368 5.042-1.368 2.349 0 4.23 1.069 1.88 1.068 3.033 3.033v-3.589h3.418v19.312q0 3.674-1.367 6.152-1.368 2.478-3.76 3.717-2.393 1.239-5.426 1.239m.684-12.176q1.88 0 3.332-1.026 1.453-1.025 2.265-2.777.811-1.794.811-4.144 0-2.264-.854-4.016-.812-1.795-2.265-2.777-1.41-1.026-3.332-1.026-2.008 0-3.589 1.026-1.538.982-2.435 2.777-.855 1.752-.855 4.016 0 2.35.897 4.144.898 1.752 2.436 2.777 1.58 1.026 3.589 1.026m15.017 3.119v-21.363h3.418v21.363zm1.752-26.319q-.855 0-1.495-.641-.64-.64-.641-1.495 0-.897.641-1.496.64-.64 1.495-.64.897 0 1.496.64.64.6.64 1.496 0 .855-.64 1.495a1.96 1.96 0 0 1-1.496.641m16.279 26.831q-3.12 0-5.512-1.41-2.392-1.453-3.76-3.973-1.324-2.52-1.324-5.811t1.324-5.81q1.368-2.521 3.717-3.931 2.393-1.453 5.469-1.453 2.99 0 5.17 1.496 2.18 1.452 3.375 4.101 1.197 2.65 1.196 6.238h-16.79q.214 3.504 2.221 5.469 2.009 1.965 5.085 1.965 2.264 0 3.802-1.068a7.1 7.1 0 0 0 2.435-2.82l2.948 1.496a9.5 9.5 0 0 1-2.179 2.905q-1.324 1.239-3.161 1.923-1.794.683-4.016.683m-6.879-13.415h12.86q-.128-1.837-.983-3.162a5.67 5.67 0 0 0-2.136-2.051q-1.325-.726-2.99-.726a7.06 7.06 0 0 0-3.119.726 6.2 6.2 0 0 0-2.478 2.051q-.983 1.325-1.154 3.162m44.953 21.447v-12.133a8.6 8.6 0 0 1-3.034 3.033q-1.837 1.068-4.187 1.068-2.863 0-5.041-1.41-2.18-1.41-3.418-3.93-1.197-2.563-1.197-5.854 0-3.332 1.197-5.853 1.239-2.52 3.418-3.931 2.179-1.41 5.041-1.41 2.35 0 4.187 1.111a8.6 8.6 0 0 1 3.034 3.034l.17-3.632h3.248v29.907zm-6.452-11.151q1.88 0 3.333-1.025 1.452-1.026 2.264-2.863.855-1.836.855-4.187t-.855-4.187q-.812-1.837-2.264-2.862-1.453-1.026-3.376-1.026-2.008 0-3.588 1.026-1.539 1.025-2.436 2.862t-.897 4.187.897 4.187 2.478 2.863q1.58 1.025 3.589 1.025m22.205 3.119q-2.478 0-4.358-.982-1.837-1.026-2.905-3.205-1.026-2.221-1.026-5.725v-11.963h3.418v10.938q0 3.161.726 4.828.727 1.665 2.009 2.307 1.324.598 2.948.598 2.776 0 4.315-2.008 1.581-2.009 1.581-5.597v-11.066h3.418v21.363h-3.205l-.171-3.205q-1.068 1.794-2.777 2.777-1.709.94-3.973.94m24.404 0q-3.119 0-5.511-1.41-2.393-1.453-3.76-3.973-1.324-2.52-1.324-5.811t1.324-5.81q1.367-2.521 3.717-3.931 2.392-1.453 5.469-1.453 2.99 0 5.17 1.496 2.178 1.452 3.375 4.101 1.196 2.65 1.196 6.238H668.7q.214 3.504 2.222 5.469t5.084 1.965q2.265 0 3.803-1.068a7.1 7.1 0 0 0 2.435-2.82l2.948 1.496a9.5 9.5 0 0 1-2.179 2.905q-1.325 1.239-3.162 1.923-1.794.683-4.016.683m-6.878-13.415h12.86q-.129-1.837-.983-3.162a5.67 5.67 0 0 0-2.136-2.051q-1.325-.726-2.991-.726a7.06 7.06 0 0 0-3.119.726 6.2 6.2 0 0 0-2.478 2.051q-.982 1.325-1.153 3.162m29.315 12.903V99.622h3.418v29.908zm15.095.512q-3.76 0-5.896-1.709-2.093-1.752-2.093-4.828 0-3.246 2.136-4.956 2.18-1.751 6.067-1.751h5.939q-.214-3.034-1.496-4.529-1.281-1.538-3.845-1.538-1.752 0-3.033.726-1.24.683-2.051 2.222l-3.076-1.197a9.9 9.9 0 0 1 1.965-2.563 7.5 7.5 0 0 1 2.692-1.666q1.538-.599 3.503-.599 2.991 0 4.913 1.197 1.966 1.153 2.948 3.46.983 2.265.94 5.64l-.042 11.579h-3.162l-.171-2.863a6.7 6.7 0 0 1-2.521 2.521q-1.581.854-3.717.854m.171-2.99q1.838 0 3.204-.77a5.36 5.36 0 0 0 2.094-2.264q.77-1.452.769-3.503v-.855h-5.255q-2.99 0-4.273.983-1.239.983-1.239 2.82 0 1.665 1.239 2.649 1.24.94 3.461.94m29.652 2.478-8.93-21.363h3.546l7.178 17.389 7.135-17.389h3.589l-8.93 21.363zm15.044 0v-21.363h3.418v21.363zm1.751-26.319q-.854 0-1.495-.641-.64-.64-.641-1.495 0-.897.641-1.496.641-.64 1.495-.64a1.96 1.96 0 0 1 1.496.64q.64.6.641 1.496 0 .855-.641 1.495a1.96 1.96 0 0 1-1.496.641m6.922 26.319V99.622h3.418v29.908zm8.345 0V99.622h3.418v29.908zm17.702.512q-3.12 0-5.512-1.41-2.392-1.453-3.76-3.973-1.324-2.52-1.324-5.811t1.324-5.81q1.368-2.521 3.717-3.931 2.393-1.453 5.469-1.453 2.99 0 5.17 1.496 2.179 1.452 3.375 4.101t1.196 6.238h-16.79q.213 3.504 2.221 5.469t5.084 1.965q2.265 0 3.803-1.068a7.1 7.1 0 0 0 2.435-2.82l2.948 1.496a9.5 9.5 0 0 1-2.179 2.905q-1.325 1.239-3.161 1.923-1.795.683-4.016.683m-6.879-13.415h12.86q-.128-1.837-.983-3.162a5.67 5.67 0 0 0-2.136-2.051q-1.325-.726-2.991-.726a7.06 7.06 0 0 0-3.119.726 6.2 6.2 0 0 0-2.478 2.051q-.982 1.325-1.153 3.162m37.732 13.415q-2.862 0-5.042-1.41-2.178-1.41-3.418-3.93-1.196-2.563-1.196-5.854 0-3.332 1.196-5.853 1.24-2.52 3.418-3.931 2.18-1.41 5.042-1.41 2.35 0 4.187 1.111 1.88 1.068 3.033 2.991V99.622h3.418v29.908h-3.247l-.171-3.632a8.6 8.6 0 0 1-3.033 3.033q-1.837 1.111-4.187 1.111m.769-3.119q1.88 0 3.29-.982 1.452-1.026 2.264-2.82.855-1.837.897-4.102v-.299q-.042-2.307-.897-4.101-.812-1.838-2.264-2.82-1.453-1.026-3.333-1.026-2.007 0-3.589 1.026-1.581 1.025-2.478 2.862-.854 1.838-.854 4.187t.897 4.187 2.478 2.863 3.589 1.025m24.162 3.119q-3.119 0-5.512-1.41-2.393-1.453-3.759-3.973-1.325-2.52-1.325-5.811t1.325-5.81q1.366-2.521 3.717-3.931 2.393-1.453 5.468-1.453 2.991 0 5.17 1.496 2.18 1.452 3.375 4.101 1.197 2.65 1.197 6.238h-16.791q.213 3.504 2.222 5.469 2.007 1.965 5.084 1.965 2.264 0 3.802-1.068a7.1 7.1 0 0 0 2.436-2.82l2.948 1.496a9.5 9.5 0 0 1-2.179 2.905q-1.325 1.239-3.162 1.923-1.794.683-4.016.683m-6.879-13.415h12.86q-.128-1.837-.982-3.162a5.67 5.67 0 0 0-2.137-2.051q-1.324-.726-2.99-.726a7.06 7.06 0 0 0-3.119.726 6.2 6.2 0 0 0-2.478 2.051q-.983 1.325-1.154 3.162m29.853 12.903V93.213h8.767l15.928 22.153V93.213h8.352v36.317h-8.352l-16.343-22.776v22.776zm50.652.622q-4.047 0-7.16-1.712a12.44 12.44 0 0 1-4.876-4.773q-1.764-3.061-1.764-7.107t1.764-7.108a12.44 12.44 0 0 1 4.876-4.773q3.165-1.712 7.264-1.712 3.683 0 6.64 1.764t4.67 5.292q1.763 3.476 1.763 8.612h-18.573q.26 2.23 1.816 3.579 1.609 1.297 3.787 1.297 1.92 0 3.217-.83 1.297-.882 1.816-2.179l7.211 2.439q-1.038 2.49-2.957 4.098a12.2 12.2 0 0 1-4.306 2.387q-2.439.726-5.188.726m-5.188-16.913h9.909q-.207-1.504-.986-2.386-.778-.934-1.816-1.349a5.5 5.5 0 0 0-2.075-.415q-.986 0-2.075.415-1.089.363-1.92 1.297-.777.882-1.037 2.438m26.099 16.291-8.819-25.94h8.249l4.773 15.148 4.773-15.148h7.989l4.618 14.785 4.876-14.785h8.249l-8.871 25.94h-7.938l-4.98-16.239-4.981 16.239zm58.445 0v-15.357l-12.814-20.96h9.494l7.47 12.607 7.47-12.606h9.5l-12.77 20.907v15.409zm30.52.622c-2.73 0-5.14-.571-7.21-1.712a13.16 13.16 0 0 1-4.93-4.825c-1.18-2.04-1.76-4.392-1.76-7.055q0-3.996 1.71-7.056c1.17-2.041 2.8-3.632 4.87-4.773 2.11-1.176 4.5-1.764 7.16-1.764 2.74 0 5.14.588 7.21 1.764 2.11 1.141 3.74 2.732 4.88 4.773q1.77 3.06 1.77 7.056t-1.77 7.055c-1.14 2.041-2.75 3.649-4.82 4.825q-3.12 1.712-7.11 1.712m0-7.471c1.04 0 1.95-.259 2.75-.778a5.2 5.2 0 0 0 1.92-2.127q.72-1.401.72-3.216t-.72-3.165q-.675-1.4-1.92-2.179t-2.85-.778c-1.08 0-2.03.259-2.86.778s-1.49 1.245-1.97 2.179c-.45.899-.67 1.954-.67 3.165 0 1.21.22 2.282.67 3.216a5.54 5.54 0 0 0 1.97 2.127c.87.519 1.85.778 2.96.778m16.6 6.849v-25.94h8.09v4.824c1.07-1.625 2.44-2.853 4.1-3.683s3.35-1.245 5.08-1.245v7.886c-1.59 0-3.09.172-4.51.518-1.38.346-2.51.882-3.37 1.609-.87.691-1.3 1.591-1.3 2.697v13.334zm19.63 0V93.213h8.09v19.092l7.83-8.715h9.5l-9.81 11.206 10.48 14.734h-9.39l-6.23-8.872-2.38 2.646v6.226zm29.88.598q-.975 0-1.71-.684c-.45-.484-.68-1.04-.68-1.666 0-.655.23-1.211.68-1.666q.735-.727 1.71-.727c.66 0 1.21.242 1.67.727.45.455.68 1.011.68 1.666 0 .626-.23 1.182-.68 1.666-.46.456-1.01.684-1.67.684"/></g><rect width="1172.18" height="507.18" x="1.41" y="1.41" stroke="#88f154" stroke-width="2.82" rx="6.59"/><defs><clipPath id="a"><rect width="1175" height="510" fill="#fff" rx="8"/></clipPath></defs></svg>