<svg width="424" height="250" viewBox="0 0 424 250" fill="none" xmlns="http://www.w3.org/2000/svg">
<rect x="1.41022" y="1.41022" width="420.247" height="246.385" rx="6.92902" stroke="#48D36E" stroke-width="2.82045"/>
<path d="M55.1089 62.4259C53.3332 62.4259 51.7567 62.0442 50.3793 61.2808C49.0185 60.5009 47.9481 59.4388 47.1681 58.0946C46.3882 56.7338 45.9982 55.1739 45.9982 53.4148C45.9982 51.6557 46.3882 50.1041 47.1681 48.7599C47.9481 47.3991 49.0185 46.337 50.3793 45.5736C51.7567 44.7936 53.3332 44.4036 55.1089 44.4036C56.171 44.4036 57.1501 44.5613 58.0462 44.8766C58.9424 45.1919 59.7306 45.6317 60.411 46.1959C61.108 46.7435 61.6889 47.3742 62.1535 48.0878L59.3655 49.8302C59.0834 49.3822 58.71 48.9839 58.2454 48.6354C57.7973 48.2869 57.2995 48.0131 56.7518 47.8139C56.2042 47.6148 55.6565 47.5152 55.1089 47.5152C54.0136 47.5152 53.0428 47.7724 52.1965 48.2869C51.3501 48.7847 50.6863 49.4734 50.2051 50.353C49.7238 51.2325 49.4832 52.2531 49.4832 53.4148C49.4832 54.5598 49.7155 55.5804 50.1802 56.4766C50.6614 57.3727 51.3335 58.078 52.1965 58.5924C53.0594 59.0903 54.0551 59.3392 55.1836 59.3392C56.0299 59.3392 56.785 59.1816 57.4488 58.8663C58.1126 58.5344 58.6437 58.078 59.0419 57.4972C59.4402 56.9163 59.6643 56.2359 59.714 55.456H55.6814V52.7925H62.9999V54.9083C62.9667 56.5015 62.6099 57.8623 61.9295 58.9907C61.2491 60.1026 60.3198 60.9572 59.1415 61.5547C57.9633 62.1355 56.6191 62.4259 55.1089 62.4259ZM69.7887 62.4259C68.5606 62.4259 67.4737 62.1521 66.5277 61.6045C65.5818 61.0402 64.835 60.2685 64.2874 59.2894C63.7564 58.3103 63.4908 57.1819 63.4908 55.904C63.4908 54.6262 63.7647 53.4978 64.3123 52.5186C64.8765 51.5395 65.6399 50.7762 66.6024 50.2285C67.5815 49.6643 68.7017 49.3822 69.9629 49.3822C71.0582 49.3822 72.0622 49.6726 72.9749 50.2534C73.9043 50.8176 74.6427 51.6557 75.1904 52.7676C75.7546 53.8628 76.0367 55.1987 76.0367 56.7753H66.926C67.009 57.605 67.3658 58.2688 67.9964 58.7667C68.627 59.2479 69.3406 59.4886 70.1372 59.4886C70.8176 59.4886 71.3735 59.3475 71.805 59.0654C72.2364 58.7667 72.5683 58.385 72.8007 57.9203L75.738 59.0654C75.3895 59.7624 74.9331 60.3681 74.3689 60.8826C73.8213 61.3804 73.1658 61.7621 72.4024 62.0276C71.639 62.2931 70.7678 62.4259 69.7887 62.4259ZM67.1003 54.3358H72.4771C72.4273 53.8214 72.2613 53.4065 71.9792 53.0912C71.6971 52.7759 71.3652 52.5435 70.9835 52.3942C70.6018 52.2448 70.2284 52.1701 69.8633 52.1701C69.5149 52.1701 69.1332 52.2448 68.7183 52.3942C68.32 52.5269 67.9632 52.751 67.6479 53.0663C67.3492 53.3816 67.1666 53.8048 67.1003 54.3358ZM67.8968 48.1375L70.7346 44.7024H74.4187L71.2076 48.1375H67.8968ZM77.137 62.1272V49.6809H80.2237L80.373 51.3736C80.7713 50.7264 81.2775 50.2368 81.8915 49.9049C82.5221 49.5564 83.2357 49.3822 84.0322 49.3822C85.0113 49.3822 85.8494 49.5813 86.5464 49.9796C87.2434 50.3779 87.7744 51.0002 88.1395 51.8465C88.5046 52.6763 88.6789 53.755 88.6623 55.0826V62.1272H85.3764V55.7547C85.3764 54.9083 85.2769 54.2528 85.0777 53.7882C84.8952 53.3235 84.6297 52.9916 84.2812 52.7925C83.9327 52.5767 83.5261 52.4689 83.0614 52.4689C82.2151 52.4523 81.5596 52.7095 81.0949 53.2405C80.6468 53.7716 80.4228 54.5598 80.4228 55.6053V62.1272H77.137ZM96.0285 62.4259C94.8004 62.4259 93.7134 62.1521 92.7675 61.6045C91.8216 61.0402 91.0748 60.2685 90.5272 59.2894C89.9961 58.3103 89.7306 57.1819 89.7306 55.904C89.7306 54.6262 90.0044 53.4978 90.5521 52.5186C91.1163 51.5395 91.8797 50.7762 92.8422 50.2285C93.8213 49.6643 94.9415 49.3822 96.2027 49.3822C97.298 49.3822 98.302 49.6726 99.2147 50.2534C100.144 50.8176 100.883 51.6557 101.43 52.7676C101.994 53.8628 102.277 55.1987 102.277 56.7753H93.1658C93.2488 57.605 93.6056 58.2688 94.2362 58.7667C94.8668 59.2479 95.5804 59.4886 96.377 59.4886C97.0574 59.4886 97.6133 59.3475 98.0448 59.0654C98.4762 58.7667 98.8081 58.385 99.0405 57.9203L101.978 59.0654C101.629 59.7624 101.173 60.3681 100.609 60.8826C100.061 61.3804 99.4056 61.7621 98.6422 62.0276C97.8788 62.2931 97.0076 62.4259 96.0285 62.4259ZM93.3401 54.3358H98.7169C98.6671 53.8214 98.5011 53.4065 98.219 53.0912C97.9369 52.7759 97.605 52.5435 97.2233 52.3942C96.8416 52.2448 96.4682 52.1701 96.1031 52.1701C95.7546 52.1701 95.373 52.2448 94.9581 52.3942C94.5598 52.5269 94.203 52.751 93.8877 53.0663C93.589 53.3816 93.4064 53.8048 93.3401 54.3358ZM94.1366 48.1375L96.9744 44.7024H100.658L97.4473 48.1375H94.1366ZM103.377 62.1272V49.6809H106.663V51.971C107.177 51.191 107.824 50.6102 108.604 50.2285C109.401 49.8302 110.222 49.6311 111.069 49.6311V52.8174C110.305 52.8174 109.583 52.9086 108.903 53.0912C108.239 53.2737 107.7 53.5724 107.285 53.9873C106.87 54.4022 106.663 54.9332 106.663 55.5804V62.1272H103.377ZM117.552 62.4259C116.324 62.4259 115.237 62.1521 114.291 61.6045C113.345 61.0402 112.599 60.2685 112.051 59.2894C111.52 58.3103 111.254 57.1819 111.254 55.904C111.254 54.6262 111.528 53.4978 112.076 52.5186C112.64 51.5395 113.404 50.7762 114.366 50.2285C115.345 49.6643 116.465 49.3822 117.727 49.3822C118.822 49.3822 119.826 49.6726 120.739 50.2534C121.668 50.8176 122.406 51.6557 122.954 52.7676C123.518 53.8628 123.8 55.1987 123.8 56.7753H114.69C114.773 57.605 115.129 58.2688 115.76 58.7667C116.391 59.2479 117.104 59.4886 117.901 59.4886C118.581 59.4886 119.137 59.3475 119.569 59.0654C120 58.7667 120.332 58.385 120.564 57.9203L123.502 59.0654C123.153 59.7624 122.697 60.3681 122.133 60.8826C121.585 61.3804 120.929 61.7621 120.166 62.0276C119.403 62.2931 118.531 62.4259 117.552 62.4259ZM114.864 54.3358H120.241C120.191 53.8214 120.025 53.4065 119.743 53.0912C119.461 52.7759 119.129 52.5435 118.747 52.3942C118.365 52.2448 117.992 52.1701 117.627 52.1701C117.278 52.1701 116.897 52.2448 116.482 52.3942C116.084 52.5269 115.727 52.751 115.412 53.0663C115.113 53.3816 114.93 53.8048 114.864 54.3358ZM124.828 62.1272V49.6809H128.113V51.971C128.628 51.191 129.275 50.6102 130.055 50.2285C130.852 49.8302 131.673 49.6311 132.519 49.6311V52.8174C131.756 52.8174 131.034 52.9086 130.354 53.0912C129.69 53.2737 129.151 53.5724 128.736 53.9873C128.321 54.4022 128.113 54.9332 128.113 55.5804V62.1272H124.828ZM143.38 62.4259C142.235 62.4259 141.24 62.1604 140.393 61.6293C139.563 61.0983 138.916 60.3432 138.452 59.3641C137.987 58.385 137.755 57.2316 137.755 55.904C137.755 54.5598 137.987 53.4065 138.452 52.444C138.916 51.4649 139.563 50.7098 140.393 50.1787C141.24 49.6477 142.235 49.3822 143.38 49.3822C144.193 49.3822 144.915 49.5564 145.546 49.9049C146.193 50.2368 146.716 50.7181 147.114 51.3487V44.7024H150.4V62.1272H147.288L147.189 60.3847C146.774 61.0319 146.243 61.5381 145.596 61.9032C144.949 62.2517 144.21 62.4259 143.38 62.4259ZM144.227 59.4139C144.774 59.4139 145.256 59.2811 145.67 59.0156C146.102 58.7335 146.442 58.3435 146.691 57.8457C146.94 57.3478 147.081 56.7836 147.114 56.153V55.6551C147.081 55.0245 146.94 54.4686 146.691 53.9873C146.442 53.4895 146.102 53.1078 145.67 52.8422C145.239 52.5601 144.749 52.4191 144.202 52.4191C143.604 52.4191 143.073 52.5684 142.609 52.8671C142.161 53.1493 141.804 53.5558 141.538 54.0869C141.289 54.6179 141.165 55.2236 141.165 55.904C141.165 56.5844 141.298 57.1902 141.563 57.7212C141.829 58.2522 142.185 58.6671 142.634 58.9658C143.098 59.2645 143.629 59.4139 144.227 59.4139ZM156.78 62.4259C155.784 62.4259 154.938 62.2268 154.241 61.8285C153.56 61.4302 153.037 60.8162 152.672 59.9864C152.307 59.1401 152.125 58.0531 152.125 56.7255V49.6809H155.411V56.0534C155.411 56.8831 155.502 57.5387 155.684 58.0199C155.884 58.4846 156.157 58.8248 156.506 59.0405C156.871 59.2397 157.277 59.3392 157.726 59.3392C158.589 59.3558 159.244 59.0986 159.692 58.5676C160.14 58.0199 160.364 57.2316 160.364 56.2028V49.6809H163.65V62.1272H160.563L160.439 60.4345C160.024 61.0651 159.501 61.5547 158.871 61.9032C158.257 62.2517 157.56 62.4259 156.78 62.4259ZM175.792 62.4259C174.414 62.4259 173.369 62.0857 172.655 61.4053C171.958 60.7249 171.61 59.7541 171.61 58.4929V52.4689H169.593V49.6809H171.61V45.7976H174.895V49.6809H178.007V52.4689H174.895V57.771C174.895 58.302 175.012 58.7086 175.244 58.9907C175.476 59.2562 175.817 59.389 176.265 59.389C176.431 59.389 176.613 59.3558 176.812 59.2894C177.011 59.2065 177.219 59.0903 177.435 58.9409L178.58 61.4053C178.181 61.704 177.733 61.9447 177.235 62.1272C176.754 62.3263 176.273 62.4259 175.792 62.4259ZM185.204 62.4259C183.976 62.4259 182.889 62.1521 181.943 61.6045C180.997 61.0402 180.25 60.2685 179.703 59.2894C179.172 58.3103 178.906 57.1819 178.906 55.904C178.906 54.6262 179.18 53.4978 179.728 52.5186C180.292 51.5395 181.055 50.7762 182.018 50.2285C182.997 49.6643 184.117 49.3822 185.378 49.3822C186.473 49.3822 187.477 49.6726 188.39 50.2534C189.319 50.8176 190.058 51.6557 190.606 52.7676C191.17 53.8628 191.452 55.1987 191.452 56.7753H182.341C182.424 57.605 182.781 58.2688 183.412 58.7667C184.042 59.2479 184.756 59.4886 185.552 59.4886C186.233 59.4886 186.789 59.3475 187.22 59.0654C187.652 58.7667 187.984 58.385 188.216 57.9203L191.153 59.0654C190.805 59.7624 190.348 60.3681 189.784 60.8826C189.236 61.3804 188.581 61.7621 187.818 62.0276C187.054 62.2931 186.183 62.4259 185.204 62.4259ZM182.515 54.3358H187.892C187.843 53.8214 187.677 53.4065 187.394 53.0912C187.112 52.7759 186.78 52.5435 186.399 52.3942C186.017 52.2448 185.644 52.1701 185.279 52.1701C184.93 52.1701 184.548 52.2448 184.134 52.3942C183.735 52.5269 183.378 52.751 183.063 53.0663C182.764 53.3816 182.582 53.8048 182.515 54.3358ZM190.872 62.1272L195.502 55.68L191.195 49.6809H195.079L197.319 53.0165L199.534 49.6809H203.418L199.136 55.7049L203.716 62.1272H199.808L197.319 58.3684L194.805 62.1272H190.872ZM209.633 62.4259C208.256 62.4259 207.21 62.0857 206.497 61.4053C205.8 60.7249 205.451 59.7541 205.451 58.4929V52.4689H203.435V49.6809H205.451V45.7976H208.737V49.6809H211.849V52.4689H208.737V57.771C208.737 58.302 208.853 58.7086 209.085 58.9907C209.318 59.2562 209.658 59.389 210.106 59.389C210.272 59.389 210.455 59.3558 210.654 59.2894C210.853 59.2065 211.06 59.0903 211.276 58.9409L212.421 61.4053C212.023 61.704 211.575 61.9447 211.077 62.1272C210.596 62.3263 210.114 62.4259 209.633 62.4259ZM219.045 62.4259C217.817 62.4259 216.73 62.1521 215.784 61.6045C214.839 61.0402 214.092 60.2685 213.544 59.2894C213.013 58.3103 212.748 57.1819 212.748 55.904C212.748 54.6262 213.021 53.4978 213.569 52.5186C214.133 51.5395 214.897 50.7762 215.859 50.2285C216.838 49.6643 217.958 49.3822 219.22 49.3822C220.315 49.3822 221.319 49.6726 222.232 50.2534C223.161 50.8176 223.899 51.6557 224.447 52.7676C225.011 53.8628 225.293 55.1987 225.293 56.7753H216.183C216.266 57.605 216.623 58.2688 217.253 58.7667C217.884 59.2479 218.597 59.4886 219.394 59.4886C220.074 59.4886 220.63 59.3475 221.062 59.0654C221.493 58.7667 221.825 58.385 222.057 57.9203L224.995 59.0654C224.646 59.7624 224.19 60.3681 223.626 60.8826C223.078 61.3804 222.422 61.7621 221.659 62.0276C220.896 62.2931 220.025 62.4259 219.045 62.4259ZM216.357 54.3358H221.734C221.684 53.8214 221.518 53.4065 221.236 53.0912C220.954 52.7759 220.622 52.5435 220.24 52.3942C219.859 52.2448 219.485 52.1701 219.12 52.1701C218.772 52.1701 218.39 52.2448 217.975 52.3942C217.577 52.5269 217.22 52.751 216.905 53.0663C216.606 53.3816 216.423 53.8048 216.357 54.3358Z" fill="#48D36E"/>
<path d="M60.6787 156.331L53.5857 101.26C53.4607 100.289 54.1463 99.4011 55.1169 99.2761L89.2475 94.8801C89.7135 94.8201 90.1844 94.9477 90.5564 95.2349L100.967 103.27C101.339 103.557 101.582 103.98 101.642 104.446L107.547 150.294C107.672 151.265 106.987 152.153 106.016 152.278L62.6626 157.862C61.692 157.987 60.8037 157.301 60.6787 156.331Z" stroke="#48D36E" stroke-width="4.72135" stroke-linecap="round" stroke-linejoin="round"/>
<path d="M68.0957 121.426L91.53 118.408" stroke="#48D36E" stroke-width="4.72135" stroke-linecap="round" stroke-linejoin="round"/>
<path d="M71.1191 144.857L94.5534 141.839" stroke="#48D36E" stroke-width="4.72135" stroke-linecap="round" stroke-linejoin="round"/>
<path d="M69.6055 133.145L81.3226 131.635" stroke="#48D36E" stroke-width="4.72135" stroke-linecap="round" stroke-linejoin="round"/>
<path d="M88.5098 94.9731L89.7925 104.933C89.9176 105.903 90.8057 106.589 91.7765 106.464L101.736 105.181" stroke="#48D36E" stroke-width="4.72135" stroke-linecap="round" stroke-linejoin="round"/>
<path d="M52.0137 204.078V185.431C51.1897 185.996 50.3421 186.443 49.4709 186.773C48.5998 187.079 47.7051 187.208 46.7868 187.161V182.782C47.3754 182.829 48.0111 182.688 48.6939 182.358C49.3767 182.005 50.0477 181.558 50.707 181.016C51.3898 180.451 52.0019 179.898 52.5435 179.356H56.6402V204.078H52.0137ZM60.1682 208.104L62.3225 199.769H67.1609L63.6998 208.104H60.1682ZM74.2191 204.078V185.431C73.3951 185.996 72.5475 186.443 71.6763 186.773C70.8052 187.079 69.9105 187.208 68.9922 187.161V182.782C69.5809 182.829 70.2166 182.688 70.8993 182.358C71.5821 182.005 72.2531 181.558 72.9124 181.016C73.5952 180.451 74.2073 179.898 74.7489 179.356H78.8456V204.078H74.2191ZM93.7808 204.078V199.204H82.2676V195.355L93.2158 179.356H98.3367V195.072H102.645V199.204H98.3367V204.078H93.7808ZM87.2473 195.072H93.7808V185.501L87.2473 195.072ZM109.905 207.341C109.322 207.341 108.807 207.3 108.357 207.218C107.908 207.137 107.53 207.03 107.224 206.897C106.917 206.764 106.667 206.631 106.473 206.498L107.269 204.875C107.412 204.956 107.601 205.048 107.836 205.15C108.071 205.263 108.352 205.355 108.679 205.426C109.006 205.508 109.384 205.549 109.813 205.549C110.221 205.549 110.579 205.467 110.885 205.303C111.202 205.15 111.447 204.905 111.62 204.568C111.804 204.241 111.896 203.823 111.896 203.312V202.577C111.641 202.975 111.309 203.291 110.9 203.526C110.492 203.751 110.027 203.863 109.506 203.863C108.801 203.863 108.189 203.71 107.668 203.404C107.157 203.097 106.759 202.668 106.473 202.117C106.187 201.565 106.044 200.912 106.044 200.156C106.044 199.359 106.187 198.67 106.473 198.088C106.759 197.495 107.157 197.041 107.668 196.724C108.189 196.397 108.801 196.234 109.506 196.234C110.027 196.234 110.492 196.357 110.9 196.602C111.309 196.837 111.641 197.174 111.896 197.613V196.418H113.918V203.251C113.918 204.109 113.755 204.844 113.428 205.457C113.101 206.08 112.637 206.55 112.034 206.866C111.442 207.183 110.732 207.341 109.905 207.341ZM110.088 202.163C110.436 202.163 110.737 202.076 110.992 201.902C111.258 201.719 111.462 201.473 111.605 201.167C111.748 200.85 111.82 200.493 111.82 200.095C111.82 199.686 111.743 199.329 111.59 199.022C111.447 198.716 111.242 198.476 110.977 198.302C110.722 198.129 110.42 198.042 110.073 198.042C109.716 198.042 109.399 198.129 109.123 198.302C108.847 198.476 108.633 198.716 108.48 199.022C108.327 199.329 108.245 199.686 108.235 200.095C108.245 200.493 108.327 200.85 108.48 201.167C108.633 201.473 108.847 201.719 109.123 201.902C109.409 202.076 109.731 202.163 110.088 202.163ZM122.569 204.262C121.528 204.262 120.603 204.027 119.797 203.557C118.99 203.077 118.356 202.423 117.897 201.596C117.437 200.759 117.207 199.798 117.207 198.716C117.207 197.633 117.437 196.678 117.897 195.851C118.356 195.014 118.985 194.36 119.781 193.89C120.588 193.41 121.512 193.17 122.554 193.17C123.29 193.17 123.974 193.303 124.607 193.568C125.24 193.824 125.792 194.186 126.262 194.656C126.742 195.116 127.109 195.647 127.365 196.249L125.419 196.969C125.245 196.592 125.016 196.265 124.73 195.989C124.444 195.703 124.117 195.483 123.749 195.33C123.381 195.167 122.983 195.085 122.554 195.085C121.931 195.085 121.375 195.243 120.884 195.56C120.404 195.866 120.026 196.29 119.751 196.832C119.485 197.373 119.352 198.001 119.352 198.716C119.352 199.431 119.49 200.064 119.766 200.616C120.042 201.157 120.425 201.586 120.915 201.902C121.405 202.209 121.967 202.362 122.6 202.362C123.039 202.362 123.438 202.28 123.795 202.117C124.163 201.943 124.484 201.708 124.76 201.412C125.046 201.116 125.276 200.774 125.45 200.386L127.395 201.09C127.14 201.713 126.772 202.265 126.292 202.745C125.822 203.225 125.271 203.598 124.638 203.863C124.004 204.129 123.315 204.262 122.569 204.262ZM132.957 204.262C131.874 204.262 130.914 204.027 130.077 203.557C129.249 203.077 128.601 202.423 128.131 201.596C127.661 200.759 127.426 199.804 127.426 198.731C127.426 197.638 127.661 196.678 128.131 195.851C128.601 195.014 129.244 194.36 130.061 193.89C130.889 193.42 131.838 193.185 132.911 193.185C133.993 193.185 134.943 193.425 135.76 193.905C136.588 194.375 137.236 195.029 137.706 195.866C138.176 196.694 138.411 197.649 138.411 198.731C138.411 199.804 138.176 200.759 137.706 201.596C137.246 202.423 136.603 203.077 135.776 203.557C134.959 204.027 134.019 204.262 132.957 204.262ZM132.957 202.347C133.61 202.347 134.182 202.194 134.673 201.887C135.173 201.571 135.561 201.142 135.837 200.6C136.123 200.059 136.266 199.436 136.266 198.731C136.266 198.016 136.123 197.388 135.837 196.847C135.551 196.306 135.158 195.882 134.657 195.575C134.157 195.259 133.575 195.1 132.911 195.1C132.267 195.1 131.69 195.259 131.18 195.575C130.679 195.882 130.286 196.306 130 196.847C129.714 197.388 129.571 198.016 129.571 198.731C129.571 199.436 129.714 200.059 130 200.6C130.286 201.142 130.684 201.571 131.195 201.887C131.706 202.194 132.293 202.347 132.957 202.347ZM140.058 204.752L138.572 204.522C138.572 204.359 138.633 204.17 138.756 203.955C138.878 203.731 139.047 203.506 139.261 203.281C139.486 203.057 139.736 202.847 140.012 202.653L140.793 202.117C140.977 201.994 141.156 201.846 141.33 201.673C141.503 201.499 141.59 201.32 141.59 201.136C141.59 200.932 141.519 200.769 141.376 200.646C141.233 200.513 141.018 200.447 140.732 200.447C140.518 200.447 140.334 200.519 140.181 200.662C140.038 200.794 139.941 200.953 139.889 201.136L138.327 200.876C138.388 200.549 138.521 200.253 138.725 199.987C138.94 199.712 139.215 199.487 139.552 199.313C139.9 199.14 140.293 199.053 140.732 199.053C141.478 199.053 142.065 199.247 142.494 199.635C142.923 200.013 143.137 200.508 143.137 201.121C143.137 201.56 143.015 201.933 142.77 202.239C142.535 202.546 142.223 202.832 141.835 203.097L141.054 203.634C140.911 203.736 140.768 203.858 140.625 204.001C140.482 204.134 140.354 204.267 140.242 204.4C140.14 204.543 140.078 204.66 140.058 204.752ZM138.572 205.61V204.522L139.69 204.277H143.214V205.61H138.572ZM147.145 204.262C146.389 204.262 145.72 204.093 145.138 203.756C144.556 203.409 144.096 202.934 143.759 202.331C143.433 201.729 143.269 201.034 143.269 200.248C143.269 199.461 143.438 198.767 143.775 198.164C144.122 197.562 144.592 197.092 145.184 196.755C145.787 196.408 146.476 196.234 147.252 196.234C147.926 196.234 148.544 196.413 149.106 196.77C149.678 197.117 150.132 197.633 150.47 198.318C150.817 198.992 150.99 199.814 150.99 200.784H145.383C145.434 201.295 145.654 201.703 146.042 202.01C146.43 202.306 146.869 202.454 147.36 202.454C147.778 202.454 148.12 202.367 148.386 202.194C148.652 202.01 148.856 201.775 148.999 201.489L150.807 202.194C150.592 202.622 150.311 202.995 149.964 203.312C149.627 203.618 149.223 203.853 148.754 204.017C148.284 204.18 147.748 204.262 147.145 204.262ZM145.491 199.283H148.8C148.769 198.966 148.667 198.711 148.493 198.517C148.32 198.323 148.115 198.18 147.88 198.088C147.646 197.996 147.416 197.95 147.191 197.95C146.977 197.95 146.742 197.996 146.486 198.088C146.241 198.169 146.022 198.307 145.828 198.501C145.644 198.695 145.531 198.956 145.491 199.283Z" fill="#48D36E"/>
<path d="M177.75 192.845V188.296H200.216V192.845H177.75ZM177.75 204.078V199.529H200.216V204.078H177.75Z" fill="#48D36E"/>
<path d="M262.307 144.52L276.646 158.86" stroke="#48D36E" stroke-width="9.67352" stroke-linecap="round" stroke-linejoin="round"/>
<path d="M224.57 128.294C224.57 140.174 234.2 149.804 246.08 149.804C252.03 149.804 257.416 147.388 261.31 143.483C265.19 139.593 267.59 134.223 267.59 128.294C267.59 116.415 257.959 106.784 246.08 106.784C234.2 106.784 224.57 116.415 224.57 128.294Z" stroke="#48D36E" stroke-width="9.67352" stroke-linecap="round" stroke-linejoin="round"/>
<path d="M226.694 204.078V190.935C226.113 191.333 225.516 191.648 224.902 191.88C224.288 192.096 223.657 192.187 223.01 192.154V189.068C223.425 189.101 223.873 189.001 224.354 188.769C224.835 188.52 225.308 188.205 225.773 187.823C226.254 187.425 226.686 187.035 227.067 186.653H229.955V204.078H226.694ZM237.927 204.078V191.632H241.213V193.922C241.728 193.142 242.375 192.561 243.155 192.179C243.951 191.781 244.773 191.582 245.619 191.582V194.768C244.856 194.768 244.134 194.859 243.453 195.042C242.79 195.224 242.25 195.523 241.835 195.938C241.421 196.353 241.213 196.884 241.213 197.531V204.078H237.927ZM252.103 204.377C250.875 204.377 249.788 204.103 248.842 203.555C247.896 202.991 247.149 202.219 246.602 201.24C246.071 200.261 245.805 199.133 245.805 197.855C245.805 196.577 246.079 195.448 246.626 194.469C247.191 193.49 247.954 192.727 248.917 192.179C249.896 191.615 251.016 191.333 252.277 191.333C253.372 191.333 254.376 191.623 255.289 192.204C256.218 192.768 256.957 193.606 257.505 194.718C258.069 195.814 258.351 197.149 258.351 198.726H249.24C249.323 199.556 249.68 200.22 250.311 200.717C250.941 201.199 251.655 201.439 252.451 201.439C253.132 201.439 253.688 201.298 254.119 201.016C254.551 200.717 254.883 200.336 255.115 199.871L258.052 201.016C257.704 201.713 257.247 202.319 256.683 202.833C256.135 203.331 255.48 203.713 254.717 203.978C253.953 204.244 253.082 204.377 252.103 204.377ZM249.414 196.286H254.791C254.741 195.772 254.576 195.357 254.293 195.042C254.011 194.727 253.679 194.494 253.298 194.345C252.916 194.196 252.543 194.121 252.178 194.121C251.829 194.121 251.447 194.196 251.032 194.345C250.634 194.478 250.277 194.702 249.962 195.017C249.663 195.332 249.481 195.755 249.414 196.286ZM265.377 204.377C264.083 204.377 262.93 204.103 261.917 203.555C260.905 202.991 260.117 202.219 259.552 201.24C258.988 200.244 258.706 199.116 258.706 197.855C258.706 196.577 258.988 195.448 259.552 194.469C260.117 193.49 260.897 192.727 261.892 192.179C262.888 191.615 264.033 191.333 265.328 191.333C266.572 191.333 267.709 191.64 268.738 192.254C269.767 192.868 270.514 193.756 270.978 194.917L267.891 196.013C267.659 195.531 267.294 195.15 266.796 194.868C266.315 194.569 265.776 194.42 265.178 194.42C264.564 194.42 264.025 194.569 263.56 194.868C263.096 195.15 262.73 195.548 262.465 196.062C262.199 196.577 262.067 197.174 262.067 197.855C262.067 198.535 262.199 199.133 262.465 199.647C262.73 200.145 263.104 200.543 263.585 200.842C264.066 201.141 264.614 201.29 265.228 201.29C265.825 201.29 266.365 201.132 266.846 200.817C267.344 200.502 267.709 200.087 267.941 199.572L271.053 200.668C270.572 201.846 269.817 202.759 268.788 203.406C267.775 204.053 266.639 204.377 265.377 204.377ZM272.11 204.078V186.653H275.396V193.225C275.81 192.611 276.325 192.146 276.939 191.831C277.553 191.499 278.242 191.333 279.005 191.333C280.001 191.333 280.839 191.532 281.519 191.93C282.216 192.329 282.747 192.951 283.112 193.797C283.477 194.627 283.66 195.706 283.66 197.033V204.078H280.374V197.705C280.374 196.859 280.275 196.204 280.075 195.739C279.876 195.274 279.602 194.942 279.254 194.743C278.905 194.527 278.499 194.42 278.034 194.42C277.188 194.403 276.532 194.66 276.068 195.191C275.62 195.722 275.396 196.511 275.396 197.556V204.078H272.11ZM291.025 204.377C289.797 204.377 288.71 204.103 287.764 203.555C286.818 202.991 286.071 202.219 285.524 201.24C284.993 200.261 284.727 199.133 284.727 197.855C284.727 196.577 285.001 195.448 285.549 194.469C286.113 193.49 286.876 192.727 287.839 192.179C288.818 191.615 289.938 191.333 291.199 191.333C292.294 191.333 293.298 191.623 294.211 192.204C295.141 192.768 295.879 193.606 296.427 194.718C296.991 195.814 297.273 197.149 297.273 198.726H288.162C288.245 199.556 288.602 200.22 289.233 200.717C289.863 201.199 290.577 201.439 291.373 201.439C292.054 201.439 292.61 201.298 293.041 201.016C293.473 200.717 293.805 200.336 294.037 199.871L296.974 201.016C296.626 201.713 296.169 202.319 295.605 202.833C295.058 203.331 294.402 203.713 293.639 203.978C292.875 204.244 292.004 204.377 291.025 204.377ZM288.337 196.286H293.713C293.664 195.772 293.498 195.357 293.216 195.042C292.933 194.727 292.601 194.494 292.22 194.345C291.838 194.196 291.465 194.121 291.1 194.121C290.751 194.121 290.369 194.196 289.955 194.345C289.556 194.478 289.199 194.702 288.884 195.017C288.585 195.332 288.403 195.755 288.337 196.286ZM298.3 204.078V191.632H301.586V193.922C302.101 193.142 302.748 192.561 303.528 192.179C304.324 191.781 305.146 191.582 305.992 191.582V194.768C305.229 194.768 304.507 194.859 303.827 195.042C303.163 195.224 302.623 195.523 302.208 195.938C301.794 196.353 301.586 196.884 301.586 197.531V204.078H298.3ZM312.849 204.377C311.555 204.377 310.401 204.103 309.389 203.555C308.377 202.991 307.589 202.219 307.024 201.24C306.46 200.244 306.178 199.116 306.178 197.855C306.178 196.577 306.46 195.448 307.024 194.469C307.589 193.49 308.369 192.727 309.364 192.179C310.36 191.615 311.505 191.333 312.799 191.333C314.044 191.333 315.181 191.64 316.21 192.254C317.239 192.868 317.985 193.756 318.45 194.917L315.363 196.013C315.131 195.531 314.766 195.15 314.268 194.868C313.787 194.569 313.248 194.42 312.65 194.42C312.036 194.42 311.497 194.569 311.032 194.868C310.567 195.15 310.202 195.548 309.937 196.062C309.671 196.577 309.539 197.174 309.539 197.855C309.539 198.535 309.671 199.133 309.937 199.647C310.202 200.145 310.576 200.543 311.057 200.842C311.538 201.141 312.086 201.29 312.7 201.29C313.297 201.29 313.837 201.132 314.318 200.817C314.816 200.502 315.181 200.087 315.413 199.572L318.525 200.668C318.043 201.846 317.288 202.759 316.26 203.406C315.247 204.053 314.11 204.377 312.849 204.377ZM319.582 204.078V186.653H322.867V193.225C323.282 192.611 323.797 192.146 324.411 191.831C325.025 191.499 325.714 191.333 326.477 191.333C327.473 191.333 328.311 191.532 328.991 191.93C329.688 192.329 330.219 192.951 330.584 193.797C330.949 194.627 331.132 195.706 331.132 197.033V204.078H327.846V197.705C327.846 196.859 327.746 196.204 327.547 195.739C327.348 195.274 327.074 194.942 326.726 194.743C326.377 194.527 325.971 194.42 325.506 194.42C324.66 194.403 324.004 194.66 323.54 195.191C323.091 195.722 322.867 196.511 322.867 197.556V204.078H319.582ZM338.497 204.377C337.269 204.377 336.182 204.103 335.236 203.555C334.29 202.991 333.543 202.219 332.996 201.24C332.465 200.261 332.199 199.133 332.199 197.855C332.199 196.577 332.473 195.448 333.02 194.469C333.585 193.49 334.348 192.727 335.311 192.179C336.29 191.615 337.41 191.333 338.671 191.333C339.766 191.333 340.77 191.623 341.683 192.204C342.612 192.768 343.351 193.606 343.899 194.718C344.463 195.814 344.745 197.149 344.745 198.726H335.634C335.717 199.556 336.074 200.22 336.705 200.717C337.335 201.199 338.049 201.439 338.845 201.439C339.526 201.439 340.082 201.298 340.513 201.016C340.945 200.717 341.277 200.336 341.509 199.871L344.446 201.016C344.098 201.713 343.641 202.319 343.077 202.833C342.529 203.331 341.874 203.713 341.111 203.978C340.347 204.244 339.476 204.377 338.497 204.377ZM335.808 196.286H341.185C341.135 195.772 340.97 195.357 340.687 195.042C340.405 194.727 340.073 194.494 339.692 194.345C339.31 194.196 338.937 194.121 338.572 194.121C338.223 194.121 337.841 194.196 337.426 194.345C337.028 194.478 336.671 194.702 336.356 195.017C336.057 195.332 335.875 195.755 335.808 196.286ZM353.883 204.078L349.652 191.632H352.987L355.576 199.647L358.19 191.632H361.426L363.99 199.523L366.603 191.632H369.939L365.707 204.078H362.471L359.808 195.664L357.119 204.078H353.883ZM375.96 204.377C374.732 204.377 373.645 204.103 372.699 203.555C371.754 202.991 371.007 202.219 370.459 201.24C369.928 200.261 369.663 199.133 369.663 197.855C369.663 196.577 369.936 195.448 370.484 194.469C371.048 193.49 371.812 192.727 372.774 192.179C373.753 191.615 374.873 191.333 376.135 191.333C377.23 191.333 378.234 191.623 379.147 192.204C380.076 192.768 380.814 193.606 381.362 194.718C381.926 195.814 382.208 197.149 382.208 198.726H373.098C373.181 199.556 373.538 200.22 374.168 200.717C374.799 201.199 375.512 201.439 376.309 201.439C376.989 201.439 377.545 201.298 377.977 201.016C378.408 200.717 378.74 200.336 378.972 199.871L381.91 201.016C381.561 201.713 381.105 202.319 380.541 202.833C379.993 203.331 379.338 203.713 378.574 203.978C377.811 204.244 376.94 204.377 375.96 204.377ZM373.272 196.286H378.649C378.599 195.772 378.433 195.357 378.151 195.042C377.869 194.727 377.537 194.494 377.155 194.345C376.774 194.196 376.4 194.121 376.035 194.121C375.687 194.121 375.305 194.196 374.89 194.345C374.492 194.478 374.135 194.702 373.82 195.017C373.521 195.332 373.338 195.755 373.272 196.286ZM390.28 204.377C389.434 204.377 388.696 204.202 388.065 203.854C387.434 203.489 386.903 202.974 386.472 202.311L386.347 204.078H383.236V186.653H386.522V193.324C386.937 192.677 387.459 192.187 388.09 191.856C388.72 191.507 389.451 191.333 390.28 191.333C391.425 191.333 392.413 191.598 393.243 192.129C394.089 192.66 394.745 193.416 395.209 194.395C395.674 195.357 395.906 196.511 395.906 197.855C395.906 199.182 395.674 200.336 395.209 201.315C394.745 202.294 394.089 203.049 393.243 203.58C392.413 204.111 391.425 204.377 390.28 204.377ZM389.434 201.365C390.031 201.365 390.554 201.215 391.002 200.917C391.467 200.618 391.832 200.203 392.098 199.672C392.363 199.141 392.496 198.535 392.496 197.855C392.496 197.174 392.363 196.569 392.098 196.038C391.849 195.507 391.492 195.1 391.027 194.818C390.579 194.519 390.056 194.37 389.459 194.37C388.895 194.37 388.389 194.519 387.941 194.818C387.492 195.117 387.144 195.531 386.895 196.062C386.646 196.577 386.522 197.174 386.522 197.855C386.522 198.535 386.646 199.141 386.895 199.672C387.144 200.203 387.484 200.618 387.916 200.917C388.364 201.215 388.87 201.365 389.434 201.365Z" fill="#48D36E"/>
</svg>
