<svg xmlns="http://www.w3.org/2000/svg" width="424" height="346" fill="none" viewBox="0 0 424 346"><rect width="420.247" height="343.18" x="1.41" y="1.41" stroke="#8fce79" stroke-width="2.82" rx="6.929"/><path fill="#8fce79" d="M55.109 62.426q-2.664 0-4.73-1.145a8.6 8.6 0 0 1-3.21-3.187q-1.17-2.04-1.17-4.68 0-2.638 1.17-4.654a8.34 8.34 0 0 1 3.21-3.187q2.067-1.17 4.73-1.17 1.593 0 2.937.473a7.6 7.6 0 0 1 2.365 1.32 7.8 7.8 0 0 1 1.742 1.892l-2.788 1.742a4.5 4.5 0 0 0-1.12-1.195 5.5 5.5 0 0 0-1.493-.821 4.8 4.8 0 0 0-1.643-.299q-1.643 0-2.913.772a5.3 5.3 0 0 0-1.99 2.066q-.723 1.32-.723 3.061 0 1.718.697 3.062a5.4 5.4 0 0 0 2.017 2.116q1.293.747 2.987.747 1.269 0 2.265-.473a4.13 4.13 0 0 0 1.593-1.37q.597-.87.672-2.04h-4.033v-2.664H63v2.116q-.05 2.39-1.07 4.082a6.8 6.8 0 0 1-2.788 2.564q-1.768.872-4.033.872m14.68 0q-1.842 0-3.261-.822a6.1 6.1 0 0 1-2.24-2.315q-.797-1.468-.797-3.385t.821-3.386a6.07 6.07 0 0 1 2.29-2.29q1.47-.846 3.36-.846 1.644 0 3.013.871 1.395.847 2.215 2.514.847 1.644.847 4.008h-9.111q.125 1.245 1.07 1.991.947.722 2.141.722 1.02 0 1.668-.423.647-.448.996-1.145l2.937 1.145a6.2 6.2 0 0 1-1.37 1.817 5.6 5.6 0 0 1-1.966 1.145q-1.144.399-2.613.399m-2.689-8.09h5.377q-.075-.773-.498-1.245a2.6 2.6 0 0 0-.995-.697 3.1 3.1 0 0 0-1.12-.224q-.523 0-1.146.224a2.7 2.7 0 0 0-1.07.672q-.448.472-.548 1.27m.797-6.199 2.838-3.435h3.684l-3.211 3.435zm9.24 13.99V49.681h3.087l.149 1.692q.597-.97 1.518-1.468.947-.523 2.141-.523 1.47 0 2.514.597 1.045.598 1.593 1.867.549 1.245.523 3.236v7.045h-3.286v-6.373q0-1.269-.298-1.966-.274-.698-.797-.996-.522-.323-1.22-.323-1.269-.025-1.966.771-.672.797-.672 2.365v6.522zm18.891.299q-1.842 0-3.26-.822a6.1 6.1 0 0 1-2.24-2.315q-.797-1.468-.797-3.385t.821-3.386a6.07 6.07 0 0 1 2.29-2.29q1.47-.846 3.36-.846 1.644 0 3.013.871 1.394.847 2.215 2.514.846 1.644.847 4.008h-9.111q.125 1.245 1.07 1.991.945.722 2.141.722 1.02 0 1.668-.423.647-.448.995-1.145l2.938 1.145a6.2 6.2 0 0 1-1.369 1.817 5.6 5.6 0 0 1-1.967 1.145q-1.144.399-2.614.399m-2.688-8.09h5.377q-.075-.773-.498-1.245a2.6 2.6 0 0 0-.996-.697 3.1 3.1 0 0 0-1.12-.224q-.522 0-1.145.224a2.7 2.7 0 0 0-1.07.672q-.449.472-.548 1.27m.797-6.199 2.837-3.435h3.684l-3.21 3.435zm9.24 13.99V49.681h3.286v2.29q.771-1.17 1.941-1.743a5.45 5.45 0 0 1 2.465-.597v3.186q-1.146 0-2.166.274-.996.273-1.618.896t-.622 1.593v6.547zm14.175.299q-1.842 0-3.261-.822a6.13 6.13 0 0 1-2.24-2.315q-.797-1.468-.797-3.385t.822-3.386a6.07 6.07 0 0 1 2.29-2.29q1.468-.846 3.361-.846 1.642 0 3.012.871 1.393.847 2.215 2.514.846 1.644.846 4.008h-9.11q.124 1.245 1.07 1.991a3.44 3.44 0 0 0 2.141.722q1.02 0 1.668-.423a3 3 0 0 0 .995-1.145l2.938 1.145a6.2 6.2 0 0 1-1.369 1.817 5.6 5.6 0 0 1-1.967 1.145q-1.145.399-2.614.399m-2.688-8.09h5.377q-.075-.773-.498-1.245a2.6 2.6 0 0 0-.996-.697 3.1 3.1 0 0 0-1.12-.224q-.523 0-1.145.224a2.7 2.7 0 0 0-1.07.672q-.449.472-.548 1.27m9.964 7.791V49.681h3.285v2.29q.772-1.17 1.942-1.743a5.45 5.45 0 0 1 2.464-.597v3.186q-1.145 0-2.165.274-.996.273-1.618.896t-.623 1.593v6.547zm18.03.299q-1.494 0-2.54-.598-1.02-.597-1.568-1.842-.547-1.27-.547-3.26V49.68h3.285v6.372q0 1.245.274 1.967.299.696.822 1.02.547.3 1.219.299 1.295.026 1.967-.772.672-.821.672-2.364V49.68h3.286v12.446h-3.087l-.124-1.693a4.4 4.4 0 0 1-1.568 1.469q-.921.522-2.091.523m8.834-.299V49.681h3.087l.149 1.692q.598-.97 1.519-1.468.946-.523 2.141-.523 1.469 0 2.514.597 1.046.598 1.593 1.867.547 1.245.523 3.236v7.045h-3.286v-6.373q0-1.269-.299-1.966-.274-.698-.796-.996-.523-.323-1.22-.323-1.27-.025-1.967.771-.672.797-.672 2.365v6.522zm18.892.299q-1.842 0-3.261-.822a6.1 6.1 0 0 1-2.24-2.315q-.797-1.468-.797-3.385t.822-3.386a6.06 6.06 0 0 1 2.29-2.29q1.469-.846 3.36-.846 1.642 0 3.012.871 1.394.847 2.216 2.514.846 1.644.846 4.008h-9.111q.125 1.245 1.071 1.991.945.722 2.14.722 1.021 0 1.668-.423.648-.448.996-1.145l2.937 1.145a6.2 6.2 0 0 1-1.369 1.817 5.6 5.6 0 0 1-1.966 1.145q-1.146.399-2.614.399m-2.689-8.09h5.377q-.074-.773-.498-1.245a2.6 2.6 0 0 0-.995-.697 3.1 3.1 0 0 0-1.12-.224q-.524 0-1.145.224a2.7 2.7 0 0 0-1.071.672q-.448.472-.548 1.27m18.872 7.791-5.103-12.446h3.385l3.361 8.687 3.36-8.687h3.386l-5.103 12.446zm9.29 0V49.681h3.286v12.446zm1.643-14.463q-.746 0-1.319-.547-.573-.573-.573-1.344 0-.773.573-1.32.573-.573 1.319-.572.773 0 1.32.572.572.548.572 1.32 0 .771-.572 1.344a1.8 1.8 0 0 1-1.32.547m8.745 14.762q-1.718 0-2.988-.797-1.244-.796-1.941-2.265t-.697-3.46q0-2.017.697-3.46.697-1.47 1.941-2.266 1.27-.796 2.988-.796 1.22 0 2.165.523.97.498 1.568 1.443v-6.646h3.286v17.425h-3.111l-.1-1.742a4.5 4.5 0 0 1-1.593 1.518q-.971.522-2.215.523m.846-3.012q.822 0 1.444-.399a2.93 2.93 0 0 0 1.02-1.17q.373-.746.423-1.692v-.498q-.05-.946-.423-1.668a2.75 2.75 0 0 0-1.02-1.145 2.63 2.63 0 0 0-1.469-.423q-.895 0-1.593.448-.672.423-1.071 1.22-.373.795-.373 1.817 0 1.02.398 1.817.399.796 1.071 1.245.696.448 1.593.448m13.748 3.012q-1.842 0-3.261-.822a6.13 6.13 0 0 1-2.241-2.315q-.796-1.468-.796-3.385t.821-3.386a6.1 6.1 0 0 1 2.29-2.29q1.47-.846 3.361-.846 1.642 0 3.012.871 1.394.847 2.215 2.514.847 1.644.847 4.008h-9.111q.125 1.245 1.07 1.991a3.44 3.44 0 0 0 2.141.722q1.022 0 1.668-.423.647-.448.996-1.145l2.937 1.145a6.2 6.2 0 0 1-1.369 1.817 5.6 5.6 0 0 1-1.967 1.145q-1.144.399-2.613.399m-2.689-8.09h5.377q-.075-.773-.498-1.245a2.6 2.6 0 0 0-.995-.697 3.1 3.1 0 0 0-1.121-.224q-.522 0-1.145.224a2.7 2.7 0 0 0-1.07.672q-.448.472-.548 1.27m15.814 8.09q-1.892 0-3.386-.822a6.2 6.2 0 0 1-2.315-2.315q-.82-1.468-.821-3.385 0-1.917.821-3.386a5.84 5.84 0 0 1 2.291-2.29q1.469-.846 3.36-.846 1.916 0 3.386.846a5.85 5.85 0 0 1 2.29 2.29q.82 1.47.821 3.386 0 1.917-.821 3.385a6 6 0 0 1-2.29 2.315q-1.444.822-3.336.822m0-3.037q.92 0 1.618-.448a2.94 2.94 0 0 0 1.07-1.22q.399-.797.399-1.817t-.399-1.793a3 3 0 0 0-1.12-1.244q-.697-.448-1.618-.448-.896 0-1.618.448-.697.449-1.095 1.245-.399.77-.398 1.792 0 1.02.398 1.817.398.771 1.12 1.22a3.05 3.05 0 0 0 1.643.448"/><path fill="#8fce79" stroke="#8fce79" stroke-linecap="round" stroke-linejoin="round" stroke-width="2.904" d="m100.553 136.818 6.914 33.661c.137.664-.542 1.364-1.515 1.564l-49.33 10.133c-.974.2-1.873-.176-2.01-.84l-6.914-33.662c-.136-.664.542-1.364 1.515-1.564l49.331-10.133c.973-.2 1.872.177 2.009.841"/><path fill="#000" d="M73.443 152.584a1.238 1.238 0 0 0-1.598 1.425l2.463 11.989a1.238 1.238 0 0 0 2.03.68l9.259-8.149a1.238 1.238 0 0 0-.433-2.106z"/><path fill="#8fce79" d="M55.424 261.773q-1.687 0-3.48-.562a10.2 10.2 0 0 1-3.197-1.687 6.73 6.73 0 0 1-2.074-2.777l4.393-1.3q.773 1.125 1.828 1.652a5.1 5.1 0 0 0 2.249.527q1.827 0 2.952-1.089 1.16-1.125 1.16-2.988 0-1.722-1.125-2.881-1.09-1.16-2.917-1.16-1.09 0-2.003.492-.914.492-1.406 1.16l-4.323-.949 1.477-13.46h13.916v4.358h-9.805l-.703 5.904a9.4 9.4 0 0 1 2.109-.844 7.9 7.9 0 0 1 2.495-.316q2.003 0 3.655.984a6.86 6.86 0 0 1 2.6 2.636q.984 1.652.984 3.866 0 2.495-1.124 4.392a8.07 8.07 0 0 1-3.093 2.988q-1.968 1.053-4.568 1.054m21.247-.422v-4.85H65.215v-3.83l10.894-15.92h5.096v15.639h4.287v4.111h-4.287v4.85zm-6.501-8.961h6.501v-9.524zm16.144 12.967 2.143-8.293h4.815l-3.444 8.293zm17.268-3.584q-2.494 0-4.252-.879a8.1 8.1 0 0 1-2.846-2.495q-1.09-1.58-1.617-3.655-.492-2.108-.492-4.533 0-2.811.597-5.307.598-2.53 1.793-4.463 1.23-1.933 3.127-3.022 1.898-1.089 4.569-1.089 1.933 0 3.76.562a11.4 11.4 0 0 1 3.339 1.616l-2.39 3.515a7.5 7.5 0 0 0-2.354-1.125q-1.23-.351-2.285-.351-2.706 0-4.252 2.389-1.546 2.39-1.476 7.556l-.949-.668q.808-1.932 2.495-3.092t4.007-1.16q2.354 0 4.146 1.089a7.6 7.6 0 0 1 2.847 2.988q1.054 1.862 1.054 4.182 0 2.284-1.089 4.111-1.09 1.792-3.093 2.812-1.968 1.019-4.639 1.019m0-4.077q1.16 0 2.074-.527a3.87 3.87 0 0 0 1.441-1.441q.527-.914.527-2.108 0-1.195-.527-2.109a3.8 3.8 0 0 0-1.441-1.476q-.913-.562-2.074-.562t-2.108.562a3.8 3.8 0 0 0-1.441 1.476q-.527.914-.527 2.109t.527 2.108q.527.914 1.441 1.441a4.26 4.26 0 0 0 2.108.527m13.145 7.063a9 9 0 0 1-1.616-.128 5.4 5.4 0 0 1-1.184-.336 4.7 4.7 0 0 1-.784-.416l.832-1.696q.223.127.592.288.367.176.88.288.512.128 1.184.128.64 0 1.12-.256.495-.24.768-.768.288-.512.288-1.312v-.768a3 3 0 0 1-1.04.992 3 3 0 0 1-1.456.352q-1.104 0-1.92-.48a3.3 3.3 0 0 1-1.248-1.344q-.448-.864-.448-2.048 0-1.248.448-2.16.447-.928 1.248-1.424.816-.512 1.92-.512.816 0 1.456.384.64.368 1.04 1.056v-1.248h2.112v7.136q0 1.344-.512 2.304a3.4 3.4 0 0 1-1.456 1.472q-.928.496-2.224.496m.192-5.408q.543 0 .944-.272a1.9 1.9 0 0 0 .64-.768q.224-.496.224-1.12 0-.64-.24-1.12a1.77 1.77 0 0 0-.64-.752 1.64 1.64 0 0 0-.944-.272q-.56 0-.992.272a1.84 1.84 0 0 0-.672.752q-.24.48-.256 1.12.016.624.256 1.12.24.48.672.768.447.272 1.008.272m12.387 2.192q-1.632 0-2.896-.736a5.4 5.4 0 0 1-1.984-2.048q-.72-1.312-.72-3.008t.72-2.992a5.27 5.27 0 0 1 1.968-2.048q1.263-.752 2.896-.752 1.151 0 2.144.416a5.1 5.1 0 0 1 1.728 1.136q.751.72 1.152 1.664l-2.032.752a3.4 3.4 0 0 0-.72-1.024 3.2 3.2 0 0 0-1.024-.688 3 3 0 0 0-1.248-.256 3.14 3.14 0 0 0-1.744.496q-.752.48-1.184 1.328-.417.847-.416 1.968 0 1.12.432 1.984a3.4 3.4 0 0 0 1.2 1.344q.768.48 1.76.48.687 0 1.248-.256.576-.272 1.008-.736.447-.464.72-1.072l2.032.736a5.2 5.2 0 0 1-1.152 1.728 5.2 5.2 0 0 1-1.728 1.168 5.5 5.5 0 0 1-2.16.416m10.524 0q-1.696 0-3.008-.736a5.43 5.43 0 0 1-2.032-2.048q-.736-1.312-.736-2.992 0-1.712.736-3.008a5.3 5.3 0 0 1 2.016-2.048q1.296-.736 2.976-.736 1.696 0 2.976.752a5.3 5.3 0 0 1 2.032 2.048q.736 1.296.736 2.992 0 1.68-.736 2.992a5.3 5.3 0 0 1-2.016 2.048q-1.28.736-2.944.736m0-2q1.024 0 1.792-.48a3.37 3.37 0 0 0 1.216-1.344q.448-.848.448-1.952 0-1.12-.448-1.968a3.37 3.37 0 0 0-1.232-1.328q-.784-.496-1.824-.496a3.36 3.36 0 0 0-3.04 1.824q-.448.847-.448 1.968 0 1.104.448 1.952a3.45 3.45 0 0 0 1.248 1.344q.8.48 1.84.48m7.092 2.512-1.552-.24q0-.256.192-.592.192-.352.528-.704.352-.352.784-.656l.816-.56q.288-.192.56-.464t.272-.56a.64.64 0 0 0-.224-.512q-.224-.208-.672-.208a.82.82 0 0 0-.576.224q-.223.208-.304.496l-1.632-.272q.096-.512.416-.928.336-.432.864-.704a2.7 2.7 0 0 1 1.232-.272q1.168 0 1.84.608.672.592.672 1.552 0 .688-.384 1.168-.367.48-.976.896l-.816.56a4 4 0 0 0-.448.384 5 5 0 0 0-.4.416q-.159.224-.192.368m-1.552.896v-1.136l1.168-.256h3.68v1.392zm8.63-1.408q-1.185 0-2.096-.528a3.94 3.94 0 0 1-1.44-1.488q-.512-.944-.512-2.176t.528-2.176a3.9 3.9 0 0 1 1.472-1.472q.943-.544 2.16-.544 1.056 0 1.936.56.896.544 1.424 1.616.543 1.056.544 2.576h-5.856q.08.8.688 1.28a2.2 2.2 0 0 0 1.376.464q.655 0 1.072-.272a1.94 1.94 0 0 0 .64-.736l1.888.736a4 4 0 0 1-.88 1.168q-.528.48-1.264.736t-1.68.256m-1.728-5.2h3.456q-.048-.496-.32-.8a1.7 1.7 0 0 0-.64-.448 2 2 0 0 0-.72-.144q-.337 0-.736.144a1.7 1.7 0 0 0-.688.432q-.289.305-.352.816m33.298-6.225v-4.549h22.466v4.549zm0 11.233v-4.549h22.466v4.549z"/><g clip-path="url(#a)"><path stroke="#8fce79" stroke-linecap="round" stroke-linejoin="round" stroke-width="6.341" d="m286.569 100.949-12.394 18.683-18.683-12.394m43.543 7.363-49.722 10.063a6.34 6.34 0 0 0-4.957 7.473l6.918 34.184a6.34 6.34 0 0 0 7.473 4.958l49.722-10.063a6.34 6.34 0 0 0 4.958-7.473l-6.919-34.184a6.34 6.34 0 0 0-7.473-4.958"/><path fill="#8fce79" d="m272.783 151.742-2.325-12.936a8.5 8.5 0 0 1-1.597 1.248 4.9 4.9 0 0 1-1.813.604l-.546-3.038q.62-.061 1.27-.532.644-.495 1.229-1.182.605-.716 1.067-1.38l2.842-.511 3.083 17.15zm6.111-1.099-3.083-17.15 3.234-.581 1.163 6.468q.45-1.017 1.273-1.645.818-.654 1.945-.856 1.47-.264 2.58.143 1.135.403 1.898 1.556.76 1.128 1.112 3.088l1.246 6.933-3.234.582-1.127-6.272q-.225-1.25-.642-1.883t-.985-.834q-.572-.226-1.257-.103-1.254.2-1.799 1.107-.52.903-.243 2.447l1.153 6.419z"/></g><path fill="#8fce79" d="M237.335 207.351v-13.143a8.5 8.5 0 0 1-1.793.946 4.9 4.9 0 0 1-1.892.274v-3.087q.622.05 1.345-.299a8 8 0 0 0 1.419-.946 19 19 0 0 0 1.294-1.17h2.887v17.425zm11.258 0v-17.425h3.286v6.572a4.1 4.1 0 0 1 1.543-1.394q.921-.498 2.066-.498 1.494 0 2.514.597 1.046.598 1.593 1.867.548 1.245.548 3.236v7.045h-3.286v-6.372q0-1.27-.299-1.967-.298-.697-.821-.996-.522-.323-1.22-.323-1.27-.025-1.966.771-.672.797-.672 2.365v6.522zm18.915.299q-1.842 0-3.261-.822a6.1 6.1 0 0 1-2.24-2.315q-.797-1.468-.797-3.385t.822-3.385a6.06 6.06 0 0 1 2.29-2.291q1.468-.846 3.36-.846 1.644 0 3.012.871 1.394.847 2.216 2.514.846 1.644.846 4.008h-9.111q.125 1.245 1.071 1.992.945.721 2.141.721 1.02 0 1.667-.423.648-.447.996-1.145l2.937 1.145a6.1 6.1 0 0 1-1.369 1.817 5.6 5.6 0 0 1-1.966 1.146q-1.146.398-2.614.398m-2.688-8.09h5.376q-.074-.773-.497-1.245a2.6 2.6 0 0 0-.996-.697 3.1 3.1 0 0 0-1.12-.224q-.523 0-1.145.224a2.7 2.7 0 0 0-1.071.672q-.447.473-.547 1.27m14.394 8.09q-1.493 0-2.539-.598-1.02-.597-1.568-1.842-.548-1.269-.548-3.261v-7.044h3.286v6.372q0 1.245.274 1.967.298.697.822 1.02.547.3 1.219.299 1.295.025 1.967-.772.672-.82.672-2.364v-6.522h3.286v12.446h-3.087l-.124-1.693a4.4 4.4 0 0 1-1.569 1.469q-.921.523-2.091.523m8.835-.299v-12.446h3.286v2.29q.772-1.17 1.942-1.743a5.45 5.45 0 0 1 2.464-.597v3.186q-1.144 0-2.166.274-.995.274-1.618.896-.622.623-.622 1.593v6.547zm14.176.299q-1.842 0-3.261-.822a6.13 6.13 0 0 1-2.241-2.315q-.796-1.468-.796-3.385t.821-3.385a6.1 6.1 0 0 1 2.29-2.291q1.47-.846 3.361-.846 1.642 0 3.012.871 1.394.847 2.215 2.514.847 1.644.847 4.008h-9.111q.125 1.245 1.07 1.992a3.44 3.44 0 0 0 2.141.721q1.022 0 1.668-.423.646-.447.996-1.145l2.937 1.145a6.2 6.2 0 0 1-1.369 1.817 5.6 5.6 0 0 1-1.967 1.146q-1.144.398-2.613.398m-2.689-8.09h5.377q-.075-.773-.498-1.245a2.6 2.6 0 0 0-.995-.697 3.1 3.1 0 0 0-1.121-.224q-.522 0-1.145.224a2.7 2.7 0 0 0-1.07.672q-.448.473-.548 1.27m19.967 8.09q-1.718 0-2.987-.797-1.245-.797-1.942-2.265t-.697-3.46q0-2.017.697-3.46.697-1.469 1.942-2.265 1.27-.797 2.987-.797 1.22 0 2.166.523a3.97 3.97 0 0 1 1.568 1.444v-6.647h3.286v17.425h-3.112l-.099-1.742a4.5 4.5 0 0 1-1.594 1.518q-.97.523-2.215.523m.846-3.012q.822 0 1.444-.399a2.93 2.93 0 0 0 1.021-1.169q.373-.748.423-1.693v-.498q-.05-.947-.423-1.668a2.75 2.75 0 0 0-1.021-1.145 2.6 2.6 0 0 0-1.469-.423 2.9 2.9 0 0 0-1.593.448q-.672.423-1.07 1.22-.373.797-.373 1.817t.398 1.817a3.15 3.15 0 0 0 1.07 1.245q.697.447 1.593.448m13.748 3.012q-1.842 0-3.261-.822a6.1 6.1 0 0 1-2.24-2.315q-.797-1.468-.797-3.385t.822-3.385a6.06 6.06 0 0 1 2.29-2.291q1.469-.846 3.36-.846 1.644 0 3.012.871 1.394.847 2.216 2.514.846 1.644.846 4.008h-9.111q.125 1.245 1.071 1.992.945.721 2.141.721 1.02 0 1.667-.423.648-.447.996-1.145l2.937 1.145a6.1 6.1 0 0 1-1.369 1.817 5.6 5.6 0 0 1-1.966 1.146q-1.145.398-2.614.398m-2.688-8.09h5.377q-.075-.773-.498-1.245a2.6 2.6 0 0 0-.996-.697 3.1 3.1 0 0 0-1.12-.224q-.523 0-1.145.224a2.7 2.7 0 0 0-1.071.672q-.447.473-.547 1.27m-92.556 35.09q-1.718 0-2.987-.797-1.245-.797-1.942-2.265t-.697-3.46q0-2.017.697-3.46.697-1.469 1.942-2.265 1.27-.797 2.987-.797 1.22 0 2.166.523a3.97 3.97 0 0 1 1.568 1.444v-6.647h3.286v17.425h-3.112l-.099-1.742a4.5 4.5 0 0 1-1.594 1.518q-.97.523-2.215.523m.846-3.012q.822 0 1.444-.399a2.93 2.93 0 0 0 1.021-1.169q.373-.748.423-1.693v-.498q-.05-.947-.423-1.668a2.75 2.75 0 0 0-1.021-1.145 2.6 2.6 0 0 0-1.469-.423 2.9 2.9 0 0 0-1.593.448q-.672.423-1.07 1.22-.373.797-.373 1.817t.398 1.817a3.15 3.15 0 0 0 1.07 1.245q.698.447 1.593.448m8.322 2.713v-12.446h3.285v12.446zm1.643-14.463q-.747 0-1.32-.547-.572-.573-.572-1.344t.572-1.32q.573-.572 1.32-.572.771 0 1.319.572.572.548.572 1.32 0 .771-.572 1.344a1.8 1.8 0 0 1-1.319.547m5.035 14.463v-9.808h-2.066v-2.638h2.066v-1.245q0-1.99 1.02-3.087 1.021-1.12 3.112-1.12.722 0 1.518.249a8.7 8.7 0 0 1 1.494.598l-1.22 2.364a5 5 0 0 0-.722-.298 2 2 0 0 0-.597-.1q-.672 0-.996.473-.323.448-.323 1.469v.697h3.061v2.638h-3.061v9.808zm8.89 0v-9.808h-2.066v-2.638h2.066v-1.245q0-1.99 1.02-3.087 1.021-1.12 3.112-1.12.721 0 1.518.249a8.7 8.7 0 0 1 1.494.598l-1.22 2.364a5 5 0 0 0-.722-.298 2 2 0 0 0-.597-.1q-.672 0-.996.473-.323.448-.323 1.469v.697h3.061v2.638h-3.061v9.808zm12.076.299q-1.494 0-2.539-.598-1.02-.597-1.568-1.842-.548-1.269-.548-3.261v-7.044h3.286v6.372q0 1.245.274 1.967.299.697.821 1.02.548.3 1.22.299 1.295.025 1.967-.772.672-.82.672-2.364v-6.522h3.286v12.446h-3.087l-.125-1.693a4.4 4.4 0 0 1-1.568 1.469q-.921.523-2.091.523m13.49 0a7 7 0 0 1-2.24-.349 5.9 5.9 0 0 1-1.842-1.045 4.9 4.9 0 0 1-1.245-1.693l2.813-1.294a3.6 3.6 0 0 0 1.02 1.045q.648.423 1.494.423.822 0 1.27-.224.447-.249.448-.697 0-.447-.374-.647-.348-.224-.971-.373l-1.145-.299q-1.792-.472-2.837-1.494-1.021-1.045-1.021-2.389 0-1.917 1.22-2.962 1.244-1.046 3.51-1.046 1.17 0 2.165.349a5.2 5.2 0 0 1 1.743.97q.722.622.995 1.444l-2.713 1.245q-.174-.498-.846-.797a3.1 3.1 0 0 0-1.344-.323q-.673 0-1.046.298-.348.274-.348.772 0 .324.348.548.348.199.996.348l1.618.398q1.22.3 1.941.971.747.647 1.071 1.469.348.797.348 1.568 0 1.12-.672 1.992-.647.846-1.792 1.319-1.12.473-2.564.473m6.257-.299v-12.446h3.286v12.446zm1.643-14.463q-.746 0-1.319-.547-.572-.573-.572-1.344t.572-1.32q.573-.572 1.319-.572.772 0 1.32.572.572.548.572 1.32 0 .771-.572 1.344a1.8 1.8 0 0 1-1.32.547m9.641 14.762q-1.892 0-3.386-.822a6.2 6.2 0 0 1-2.315-2.315q-.82-1.468-.821-3.385 0-1.917.821-3.385a5.85 5.85 0 0 1 2.29-2.291q1.47-.846 3.361-.846 1.917 0 3.385.846a5.85 5.85 0 0 1 2.291 2.291q.82 1.468.821 3.385 0 1.917-.821 3.385a6 6 0 0 1-2.291 2.315q-1.443.822-3.335.822m0-3.037q.92 0 1.618-.448a2.94 2.94 0 0 0 1.07-1.22q.399-.797.398-1.817 0-1.02-.398-1.792a3 3 0 0 0-1.12-1.245q-.697-.448-1.618-.448-.896 0-1.618.448-.697.448-1.095 1.245-.399.772-.399 1.792t.399 1.817q.398.772 1.12 1.22a3.05 3.05 0 0 0 1.643.448m7.732 2.738v-12.446h3.086l.15 1.692q.597-.97 1.518-1.468.946-.523 2.141-.523 1.469 0 2.514.597 1.045.598 1.593 1.867.548 1.245.523 3.236v7.045h-3.286v-6.372q0-1.27-.298-1.967-.275-.697-.797-.996-.523-.323-1.22-.323-1.27-.025-1.966.771-.672.797-.672 2.365v6.522zm23.94.299q-1.842 0-3.26-.822a6.13 6.13 0 0 1-2.241-2.315q-.796-1.468-.796-3.385t.821-3.385a6.07 6.07 0 0 1 2.29-2.291q1.469-.846 3.361-.846 1.642 0 3.012.871 1.394.847 2.215 2.514.846 1.644.847 4.008h-9.111q.125 1.245 1.07 1.992a3.44 3.44 0 0 0 2.141.721q1.02 0 1.668-.423.646-.447.996-1.145l2.937 1.145a6.2 6.2 0 0 1-1.369 1.817 5.6 5.6 0 0 1-1.967 1.146q-1.144.398-2.614.398m-2.688-8.09h5.377q-.075-.773-.498-1.245a2.6 2.6 0 0 0-.996-.697 3.1 3.1 0 0 0-1.12-.224q-.522 0-1.145.224a2.7 2.7 0 0 0-1.07.672q-.449.473-.548 1.27m9.964 7.791v-12.446h3.087l.149 1.692q.597-.97 1.518-1.468.947-.523 2.141-.523 1.468 0 2.514.597 1.046.598 1.593 1.867.549 1.245.523 3.236v7.045h-3.286v-6.372q0-1.27-.298-1.967-.274-.697-.797-.996-.522-.323-1.22-.323-1.27-.025-1.966.771-.672.797-.672 2.365v6.522zM239.898 261.65q-1.94 0-3.46-.822a6.1 6.1 0 0 1-2.364-2.315q-.847-1.493-.847-3.385 0-1.917.847-3.385a5.97 5.97 0 0 1 2.34-2.291q1.493-.846 3.435-.846 1.866 0 3.41.921t2.24 2.664l-3.086 1.095a2.6 2.6 0 0 0-1.096-1.145 3 3 0 0 0-1.618-.448q-.92 0-1.618.448-.696.423-1.095 1.195-.398.772-.398 1.792t.398 1.792q.399.747 1.12 1.195a3.05 3.05 0 0 0 1.643.448q.897 0 1.618-.473.747-.473 1.095-1.244l3.112 1.095q-.721 1.767-2.265 2.738-1.519.97-3.411.971m12.558 0q-1.892 0-3.386-.822a6.2 6.2 0 0 1-2.315-2.315q-.82-1.468-.821-3.385 0-1.917.821-3.385a5.85 5.85 0 0 1 2.29-2.291q1.47-.846 3.361-.846 1.917 0 3.385.846a5.84 5.84 0 0 1 2.29 2.291q.822 1.468.822 3.385t-.822 3.385a6 6 0 0 1-2.29 2.315q-1.443.822-3.335.822m0-3.037q.92 0 1.618-.448a2.94 2.94 0 0 0 1.07-1.22q.398-.797.398-1.817t-.398-1.792a3 3 0 0 0-1.12-1.245q-.697-.448-1.618-.448-.896 0-1.618.448-.697.448-1.095 1.245-.399.772-.399 1.792t.399 1.817q.398.772 1.12 1.22a3.05 3.05 0 0 0 1.643.448m7.732 2.738v-12.446h3.086l.15 1.692q.597-.97 1.518-1.468.946-.523 2.141-.523 1.469 0 2.514.597 1.045.598 1.593 1.867.548 1.245.523 3.236v7.045h-3.286v-6.372q0-1.27-.298-1.967-.275-.697-.797-.996-.523-.323-1.22-.323-1.27-.025-1.966.771-.672.797-.672 2.365v6.522zm18.393.299q-2.065 0-3.136-1.021-1.046-1.02-1.046-2.912v-6.024h-2.016v-2.788h2.016v-3.883h3.286v3.883h3.112v2.788h-3.112v5.302q0 .796.349 1.22.348.398 1.02.398.25 0 .548-.1.299-.125.622-.348l1.145 2.464q-.597.449-1.344.722a3.8 3.8 0 0 1-1.444.299m4.205-.299v-12.446h3.286v12.446zm1.643-14.463q-.747 0-1.32-.547-.572-.573-.572-1.344t.572-1.32q.573-.572 1.32-.572.771 0 1.319.572.573.548.573 1.32 0 .771-.573 1.344a1.8 1.8 0 0 1-1.319.547m3.79 14.463v-12.446h3.087l.149 1.692q.598-.97 1.519-1.468.945-.523 2.141-.523 1.468 0 2.514.597 1.046.598 1.593 1.867.547 1.245.523 3.236v7.045h-3.286v-6.372q0-1.27-.299-1.967-.274-.697-.796-.996a2.3 2.3 0 0 0-1.22-.323q-1.27-.025-1.967.771-.672.797-.672 2.365v6.522zm17.697.299q-1.494 0-2.539-.598-1.02-.597-1.568-1.842-.548-1.269-.548-3.261v-7.044h3.286v6.372q0 1.245.274 1.967.299.697.821 1.02.548.3 1.22.299 1.294.025 1.966-.772.673-.82.673-2.364v-6.522h3.285v12.446H309.7l-.125-1.693a4.4 4.4 0 0 1-1.568 1.469q-.921.523-2.091.523"/><defs><clipPath id="a"><path fill="#fff" d="m232.48 105.426 74.584-15.094 15.094 74.584-74.584 15.094z"/></clipPath></defs></svg>