<svg width="424" height="346" viewBox="0 0 424 346" fill="none" xmlns="http://www.w3.org/2000/svg">
<rect x="1.41022" y="1.41022" width="420.247" height="343.18" rx="6.92902" stroke="#8FCE79" stroke-width="2.82045"/>
<path d="M55.1089 62.4257C53.3332 62.4257 51.7567 62.044 50.3793 61.2806C49.0185 60.5006 47.9481 59.4385 47.1681 58.0943C46.3882 56.7335 45.9982 55.1736 45.9982 53.4145C45.9982 51.6555 46.3882 50.1038 47.1681 48.7596C47.9481 47.3988 49.0185 46.3367 50.3793 45.5734C51.7567 44.7934 53.3332 44.4034 55.1089 44.4034C56.171 44.4034 57.1501 44.5611 58.0462 44.8764C58.9424 45.1917 59.7306 45.6314 60.411 46.1957C61.108 46.7433 61.6889 47.3739 62.1535 48.0875L59.3655 49.83C59.0834 49.3819 58.71 48.9836 58.2454 48.6351C57.7973 48.2866 57.2995 48.0128 56.7518 47.8137C56.2042 47.6145 55.6565 47.515 55.1089 47.515C54.0136 47.515 53.0428 47.7722 52.1965 48.2866C51.3501 48.7845 50.6863 49.4732 50.2051 50.3527C49.7238 51.2323 49.4832 52.2529 49.4832 53.4145C49.4832 54.5596 49.7155 55.5802 50.1802 56.4763C50.6614 57.3725 51.3335 58.0778 52.1965 58.5922C53.0594 59.0901 54.0551 59.339 55.1836 59.339C56.0299 59.339 56.785 59.1813 57.4488 58.866C58.1126 58.5341 58.6437 58.0778 59.0419 57.4969C59.4402 56.9161 59.6643 56.2357 59.714 55.4557H55.6814V52.7922H62.9999V54.9081C62.9667 56.5012 62.6099 57.862 61.9295 58.9905C61.2491 60.1024 60.3198 60.957 59.1415 61.5544C57.9633 62.1353 56.6191 62.4257 55.1089 62.4257ZM69.7887 62.4257C68.5606 62.4257 67.4737 62.1518 66.5277 61.6042C65.5818 61.04 64.835 60.2683 64.2874 59.2892C63.7564 58.3101 63.4908 57.1816 63.4908 55.9038C63.4908 54.626 63.7647 53.4975 64.3123 52.5184C64.8765 51.5393 65.6399 50.7759 66.6024 50.2283C67.5815 49.664 68.7017 49.3819 69.9629 49.3819C71.0582 49.3819 72.0622 49.6723 72.9749 50.2532C73.9043 50.8174 74.6427 51.6555 75.1904 52.7673C75.7546 53.8626 76.0367 55.1985 76.0367 56.775H66.926C67.009 57.6048 67.3658 58.2686 67.9964 58.7664C68.627 59.2477 69.3406 59.4883 70.1372 59.4883C70.8176 59.4883 71.3735 59.3473 71.805 59.0652C72.2364 58.7664 72.5683 58.3848 72.8007 57.9201L75.738 59.0652C75.3895 59.7622 74.9331 60.3679 74.3689 60.8823C73.8213 61.3802 73.1658 61.7619 72.4024 62.0274C71.639 62.2929 70.7678 62.4257 69.7887 62.4257ZM67.1003 54.3356H72.4771C72.4273 53.8211 72.2613 53.4062 71.9792 53.0909C71.6971 52.7756 71.3652 52.5433 70.9835 52.3939C70.6018 52.2446 70.2284 52.1699 69.8633 52.1699C69.5149 52.1699 69.1332 52.2446 68.7183 52.3939C68.32 52.5267 67.9632 52.7507 67.6479 53.066C67.3492 53.3813 67.1666 53.8045 67.1003 54.3356ZM67.8968 48.1373L70.7346 44.7021H74.4187L71.2076 48.1373H67.8968ZM77.137 62.127V49.6806H80.2237L80.373 51.3733C80.7713 50.7261 81.2775 50.2366 81.8915 49.9047C82.5221 49.5562 83.2357 49.3819 84.0322 49.3819C85.0113 49.3819 85.8494 49.5811 86.5464 49.9793C87.2434 50.3776 87.7744 50.9999 88.1395 51.8463C88.5046 52.676 88.6789 53.7547 88.6623 55.0823V62.127H85.3764V55.7544C85.3764 54.9081 85.2769 54.2526 85.0777 53.7879C84.8952 53.3233 84.6297 52.9914 84.2812 52.7922C83.9327 52.5765 83.5261 52.4686 83.0614 52.4686C82.2151 52.452 81.5596 52.7092 81.0949 53.2403C80.6468 53.7713 80.4228 54.5596 80.4228 55.6051V62.127H77.137ZM96.0285 62.4257C94.8004 62.4257 93.7134 62.1518 92.7675 61.6042C91.8216 61.04 91.0748 60.2683 90.5272 59.2892C89.9961 58.3101 89.7306 57.1816 89.7306 55.9038C89.7306 54.626 90.0044 53.4975 90.5521 52.5184C91.1163 51.5393 91.8797 50.7759 92.8422 50.2283C93.8213 49.664 94.9415 49.3819 96.2027 49.3819C97.298 49.3819 98.302 49.6723 99.2147 50.2532C100.144 50.8174 100.883 51.6555 101.43 52.7673C101.994 53.8626 102.277 55.1985 102.277 56.775H93.1658C93.2488 57.6048 93.6056 58.2686 94.2362 58.7664C94.8668 59.2477 95.5804 59.4883 96.377 59.4883C97.0574 59.4883 97.6133 59.3473 98.0448 59.0652C98.4762 58.7664 98.8081 58.3848 99.0405 57.9201L101.978 59.0652C101.629 59.7622 101.173 60.3679 100.609 60.8823C100.061 61.3802 99.4056 61.7619 98.6422 62.0274C97.8788 62.2929 97.0076 62.4257 96.0285 62.4257ZM93.3401 54.3356H98.7169C98.6671 53.8211 98.5011 53.4062 98.219 53.0909C97.9369 52.7756 97.605 52.5433 97.2233 52.3939C96.8416 52.2446 96.4682 52.1699 96.1031 52.1699C95.7546 52.1699 95.373 52.2446 94.9581 52.3939C94.5598 52.5267 94.203 52.7507 93.8877 53.066C93.589 53.3813 93.4064 53.8045 93.3401 54.3356ZM94.1366 48.1373L96.9744 44.7021H100.658L97.4473 48.1373H94.1366ZM103.377 62.127V49.6806H106.663V51.9708C107.177 51.1908 107.824 50.61 108.604 50.2283C109.401 49.83 110.222 49.6309 111.069 49.6309V52.8171C110.305 52.8171 109.583 52.9084 108.903 53.0909C108.239 53.2735 107.7 53.5722 107.285 53.9871C106.87 54.4019 106.663 54.933 106.663 55.5802V62.127H103.377ZM117.552 62.4257C116.324 62.4257 115.237 62.1518 114.291 61.6042C113.345 61.04 112.599 60.2683 112.051 59.2892C111.52 58.3101 111.254 57.1816 111.254 55.9038C111.254 54.626 111.528 53.4975 112.076 52.5184C112.64 51.5393 113.404 50.7759 114.366 50.2283C115.345 49.664 116.465 49.3819 117.727 49.3819C118.822 49.3819 119.826 49.6723 120.739 50.2532C121.668 50.8174 122.406 51.6555 122.954 52.7673C123.518 53.8626 123.8 55.1985 123.8 56.775H114.69C114.773 57.6048 115.129 58.2686 115.76 58.7664C116.391 59.2477 117.104 59.4883 117.901 59.4883C118.581 59.4883 119.137 59.3473 119.569 59.0652C120 58.7664 120.332 58.3848 120.564 57.9201L123.502 59.0652C123.153 59.7622 122.697 60.3679 122.133 60.8823C121.585 61.3802 120.929 61.7619 120.166 62.0274C119.403 62.2929 118.531 62.4257 117.552 62.4257ZM114.864 54.3356H120.241C120.191 53.8211 120.025 53.4062 119.743 53.0909C119.461 52.7756 119.129 52.5433 118.747 52.3939C118.365 52.2446 117.992 52.1699 117.627 52.1699C117.278 52.1699 116.897 52.2446 116.482 52.3939C116.084 52.5267 115.727 52.7507 115.412 53.066C115.113 53.3813 114.93 53.8045 114.864 54.3356ZM124.828 62.127V49.6806H128.113V51.9708C128.628 51.1908 129.275 50.61 130.055 50.2283C130.852 49.83 131.673 49.6309 132.519 49.6309V52.8171C131.756 52.8171 131.034 52.9084 130.354 53.0909C129.69 53.2735 129.151 53.5722 128.736 53.9871C128.321 54.4019 128.113 54.933 128.113 55.5802V62.127H124.828ZM142.858 62.4257C141.862 62.4257 141.015 62.2265 140.318 61.8282C139.638 61.43 139.115 60.8159 138.75 59.9862C138.385 59.1398 138.203 58.0529 138.203 56.7253V49.6806H141.488V56.0532C141.488 56.8829 141.58 57.5384 141.762 58.0197C141.961 58.4843 142.235 58.8245 142.584 59.0403C142.949 59.2394 143.355 59.339 143.803 59.339C144.666 59.3556 145.322 59.0983 145.77 58.5673C146.218 58.0197 146.442 57.2314 146.442 56.2025V49.6806H149.728V62.127H146.641L146.517 60.4343C146.102 61.0649 145.579 61.5544 144.949 61.9029C144.335 62.2514 143.638 62.4257 142.858 62.4257ZM151.692 62.127V49.6806H154.779L154.928 51.3733C155.327 50.7261 155.833 50.2366 156.447 49.9047C157.078 49.5562 157.791 49.3819 158.588 49.3819C159.567 49.3819 160.405 49.5811 161.102 49.9793C161.799 50.3776 162.33 50.9999 162.695 51.8463C163.06 52.676 163.234 53.7547 163.218 55.0823V62.127H159.932V55.7544C159.932 54.9081 159.832 54.2526 159.633 53.7879C159.451 53.3233 159.185 52.9914 158.837 52.7922C158.488 52.5765 158.082 52.4686 157.617 52.4686C156.771 52.452 156.115 52.7092 155.65 53.2403C155.202 53.7713 154.978 54.5596 154.978 55.6051V62.127H151.692ZM170.584 62.4257C169.356 62.4257 168.269 62.1518 167.323 61.6042C166.377 61.04 165.63 60.2683 165.083 59.2892C164.552 58.3101 164.286 57.1816 164.286 55.9038C164.286 54.626 164.56 53.4975 165.108 52.5184C165.672 51.5393 166.435 50.7759 167.398 50.2283C168.377 49.664 169.497 49.3819 170.758 49.3819C171.853 49.3819 172.857 49.6723 173.77 50.2532C174.699 50.8174 175.438 51.6555 175.986 52.7673C176.55 53.8626 176.832 55.1985 176.832 56.775H167.721C167.804 57.6048 168.161 58.2686 168.792 58.7664C169.422 59.2477 170.136 59.4883 170.932 59.4883C171.613 59.4883 172.169 59.3473 172.6 59.0652C173.032 58.7664 173.364 58.3848 173.596 57.9201L176.533 59.0652C176.185 59.7622 175.728 60.3679 175.164 60.8823C174.617 61.3802 173.961 61.7619 173.198 62.0274C172.434 62.2929 171.563 62.4257 170.584 62.4257ZM167.895 54.3356H173.272C173.223 53.8211 173.057 53.4062 172.774 53.0909C172.492 52.7756 172.16 52.5433 171.779 52.3939C171.397 52.2446 171.024 52.1699 170.659 52.1699C170.31 52.1699 169.928 52.2446 169.514 52.3939C169.115 52.5267 168.758 52.7507 168.443 53.066C168.144 53.3813 167.962 53.8045 167.895 54.3356ZM186.767 62.127L181.664 49.6806H185.049L188.41 58.3682L191.77 49.6806H195.156L190.053 62.127H186.767ZM196.057 62.127V49.6806H199.343V62.127H196.057ZM197.7 47.6643C197.202 47.6643 196.763 47.4818 196.381 47.1167C195.999 46.735 195.808 46.2869 195.808 45.7725C195.808 45.258 195.999 44.8183 196.381 44.4532C196.763 44.0715 197.202 43.8807 197.7 43.8807C198.215 43.8807 198.655 44.0715 199.02 44.4532C199.401 44.8183 199.592 45.258 199.592 45.7725C199.592 46.2869 199.401 46.735 199.02 47.1167C198.655 47.4818 198.215 47.6643 197.7 47.6643ZM206.445 62.4257C205.299 62.4257 204.304 62.1601 203.457 61.6291C202.628 61.0981 201.98 60.343 201.516 59.3639C201.051 58.3848 200.819 57.2314 200.819 55.9038C200.819 54.5596 201.051 53.4062 201.516 52.4437C201.98 51.4646 202.628 50.7095 203.457 50.1785C204.304 49.6474 205.299 49.3819 206.445 49.3819C207.258 49.3819 207.98 49.5562 208.61 49.9047C209.257 50.2366 209.78 50.7178 210.178 51.3484V44.7021H213.464V62.127H210.353L210.253 60.3845C209.838 61.0317 209.307 61.5378 208.66 61.9029C208.013 62.2514 207.274 62.4257 206.445 62.4257ZM207.291 59.4137C207.839 59.4137 208.32 59.2809 208.735 59.0154C209.166 58.7333 209.506 58.3433 209.755 57.8454C210.004 57.3476 210.145 56.7833 210.178 56.1527V55.6549C210.145 55.0243 210.004 54.4683 209.755 53.9871C209.506 53.4892 209.166 53.1075 208.735 52.842C208.303 52.5599 207.814 52.4188 207.266 52.4188C206.669 52.4188 206.138 52.5682 205.673 52.8669C205.225 53.149 204.868 53.5556 204.602 54.0866C204.354 54.6177 204.229 55.2234 204.229 55.9038C204.229 56.5842 204.362 57.1899 204.627 57.721C204.893 58.252 205.25 58.6669 205.698 58.9656C206.162 59.2643 206.693 59.4137 207.291 59.4137ZM221.039 62.4257C219.811 62.4257 218.724 62.1518 217.778 61.6042C216.832 61.04 216.085 60.2683 215.537 59.2892C215.006 58.3101 214.741 57.1816 214.741 55.9038C214.741 54.626 215.015 53.4975 215.562 52.5184C216.127 51.5393 216.89 50.7759 217.852 50.2283C218.832 49.664 219.952 49.3819 221.213 49.3819C222.308 49.3819 223.312 49.6723 224.225 50.2532C225.154 50.8174 225.893 51.6555 226.44 52.7673C227.005 53.8626 227.287 55.1985 227.287 56.775H218.176C218.259 57.6048 218.616 58.2686 219.246 58.7664C219.877 59.2477 220.591 59.4883 221.387 59.4883C222.068 59.4883 222.624 59.3473 223.055 59.0652C223.487 58.7664 223.818 58.3848 224.051 57.9201L226.988 59.0652C226.64 59.7622 226.183 60.3679 225.619 60.8823C225.071 61.3802 224.416 61.7619 223.652 62.0274C222.889 62.2929 222.018 62.4257 221.039 62.4257ZM218.35 54.3356H223.727C223.677 53.8211 223.511 53.4062 223.229 53.0909C222.947 52.7756 222.615 52.5433 222.234 52.3939C221.852 52.2446 221.479 52.1699 221.113 52.1699C220.765 52.1699 220.383 52.2446 219.968 52.3939C219.57 52.5267 219.213 52.7507 218.898 53.066C218.599 53.3813 218.417 53.8045 218.35 54.3356ZM234.164 62.4257C232.903 62.4257 231.774 62.1518 230.778 61.6042C229.799 61.04 229.028 60.2683 228.463 59.2892C227.916 58.3101 227.642 57.1816 227.642 55.9038C227.642 54.626 227.916 53.4975 228.463 52.5184C229.011 51.5393 229.774 50.7759 230.754 50.2283C231.733 49.664 232.853 49.3819 234.114 49.3819C235.392 49.3819 236.52 49.664 237.5 50.2283C238.479 50.7759 239.242 51.5393 239.79 52.5184C240.337 53.4975 240.611 54.626 240.611 55.9038C240.611 57.1816 240.337 58.3101 239.79 59.2892C239.242 60.2683 238.479 61.04 237.5 61.6042C236.537 62.1518 235.425 62.4257 234.164 62.4257ZM234.164 59.3888C234.778 59.3888 235.317 59.2394 235.782 58.9407C236.247 58.642 236.603 58.2354 236.852 57.721C237.118 57.1899 237.251 56.5842 237.251 55.9038C237.251 55.2234 237.118 54.626 236.852 54.1115C236.587 53.5805 236.213 53.1656 235.732 52.8669C235.267 52.5682 234.728 52.4188 234.114 52.4188C233.517 52.4188 232.977 52.5682 232.496 52.8669C232.031 53.1656 231.666 53.5805 231.401 54.1115C231.135 54.626 231.003 55.2234 231.003 55.9038C231.003 56.5842 231.135 57.1899 231.401 57.721C231.666 58.2354 232.04 58.642 232.521 58.9407C233.002 59.2394 233.55 59.3888 234.164 59.3888Z" fill="#8FCE79"/>
<path d="M100.553 136.818L107.467 170.479C107.604 171.143 106.925 171.843 105.952 172.043L56.6211 182.176C55.6481 182.376 54.7488 182 54.6124 181.336L47.6981 147.674C47.5617 147.01 48.24 146.31 49.213 146.11L98.5441 135.977C99.5172 135.777 100.416 136.154 100.553 136.818Z" fill="#8FCE79" stroke="#8FCE79" stroke-width="2.90422" stroke-linecap="round" stroke-linejoin="round"/>
<path d="M73.443 152.584C72.5398 152.288 71.6539 153.078 71.8451 154.009L74.3077 165.998C74.4989 166.929 75.6246 167.306 76.338 166.678L85.5966 158.529C86.3156 157.896 86.0743 156.722 85.1641 156.423L73.443 152.584Z" fill="black"/>
<path d="M55.4237 261.773C54.2992 261.773 53.1395 261.585 51.9446 261.211C50.7732 260.836 49.7072 260.273 48.7466 259.524C47.8095 258.774 47.1184 257.849 46.6732 256.747L51.066 255.447C51.5815 256.197 52.1906 256.747 52.8935 257.099C53.6197 257.45 54.3694 257.626 55.1426 257.626C56.3609 257.626 57.3448 257.263 58.0946 256.537C58.8677 255.787 59.2543 254.791 59.2543 253.549C59.2543 252.401 58.8794 251.441 58.1297 250.668C57.4034 249.895 56.4311 249.508 55.2129 249.508C54.4866 249.508 53.8189 249.672 53.2097 250C52.6006 250.328 52.132 250.715 51.804 251.16L47.4815 250.211L48.9575 236.751H62.8739V241.109H53.0692L52.3663 247.013C52.9989 246.661 53.7017 246.38 54.4749 246.169C55.248 245.935 56.0797 245.83 56.97 245.853C58.3054 245.853 59.5237 246.181 60.6248 246.837C61.7259 247.47 62.5928 248.348 63.2254 249.473C63.8814 250.574 64.2094 251.863 64.2094 253.339C64.2094 255.002 63.8345 256.466 63.0848 257.731C62.3351 258.997 61.3042 259.992 59.9922 260.719C58.6803 261.421 57.1574 261.773 55.4237 261.773ZM76.6714 261.351V256.501H65.2149V252.671L76.1091 236.751H81.2048V252.39H85.4922V256.501H81.2048V261.351H76.6714ZM70.17 252.39H76.6714V242.866L70.17 252.39ZM86.3135 265.357L88.4572 257.064H93.2717L89.8278 265.357H86.3135ZM103.582 261.773C101.919 261.773 100.502 261.48 99.3302 260.894C98.1822 260.285 97.2333 259.453 96.4836 258.399C95.7573 257.345 95.2185 256.127 94.867 254.744C94.5391 253.339 94.3751 251.827 94.3751 250.211C94.3751 248.337 94.5742 246.568 94.9725 244.904C95.3708 243.218 95.9682 241.73 96.7647 240.441C97.5847 239.153 98.6273 238.145 99.8924 237.419C101.158 236.693 102.68 236.33 104.461 236.33C105.75 236.33 107.003 236.517 108.221 236.892C109.463 237.267 110.576 237.806 111.56 238.508L109.17 242.023C108.444 241.507 107.659 241.132 106.816 240.898C105.996 240.664 105.234 240.547 104.531 240.547C102.727 240.547 101.31 241.343 100.279 242.936C99.2482 244.53 98.7562 247.048 98.803 250.492L97.8542 249.824C98.393 248.536 99.2247 247.505 100.349 246.732C101.474 245.959 102.809 245.572 104.356 245.572C105.925 245.572 107.308 245.935 108.502 246.661C109.721 247.388 110.669 248.383 111.349 249.649C112.052 250.89 112.403 252.284 112.403 253.831C112.403 255.353 112.04 256.724 111.314 257.942C110.587 259.137 109.557 260.074 108.221 260.754C106.909 261.433 105.363 261.773 103.582 261.773ZM103.582 257.696C104.356 257.696 105.047 257.521 105.656 257.169C106.265 256.818 106.745 256.337 107.097 255.728C107.448 255.119 107.624 254.416 107.624 253.62C107.624 252.823 107.448 252.12 107.097 251.511C106.745 250.879 106.265 250.387 105.656 250.035C105.047 249.66 104.356 249.473 103.582 249.473C102.809 249.473 102.106 249.66 101.474 250.035C100.865 250.387 100.384 250.879 100.033 251.511C99.6816 252.12 99.5059 252.823 99.5059 253.62C99.5059 254.416 99.6816 255.119 100.033 255.728C100.384 256.337 100.865 256.818 101.474 257.169C102.106 257.521 102.809 257.696 103.582 257.696ZM116.727 264.759C116.119 264.759 115.58 264.716 115.111 264.631C114.641 264.546 114.247 264.434 113.927 264.295C113.607 264.156 113.345 264.018 113.143 263.879L113.975 262.183C114.124 262.268 114.321 262.364 114.567 262.471C114.812 262.588 115.105 262.684 115.447 262.759C115.788 262.844 116.183 262.887 116.631 262.887C117.057 262.887 117.431 262.802 117.751 262.631C118.081 262.471 118.337 262.215 118.519 261.863C118.711 261.522 118.807 261.084 118.807 260.551V259.783C118.54 260.199 118.193 260.53 117.767 260.775C117.34 261.01 116.855 261.127 116.311 261.127C115.575 261.127 114.935 260.967 114.391 260.647C113.857 260.327 113.441 259.879 113.143 259.303C112.844 258.727 112.695 258.044 112.695 257.255C112.695 256.423 112.844 255.703 113.143 255.095C113.441 254.476 113.857 254.002 114.391 253.671C114.935 253.33 115.575 253.159 116.311 253.159C116.855 253.159 117.34 253.287 117.767 253.543C118.193 253.788 118.54 254.14 118.807 254.599V253.351H120.919V260.487C120.919 261.383 120.748 262.151 120.407 262.791C120.065 263.442 119.58 263.932 118.951 264.263C118.332 264.594 117.591 264.759 116.727 264.759ZM116.919 259.351C117.281 259.351 117.596 259.26 117.863 259.079C118.14 258.887 118.353 258.631 118.503 258.311C118.652 257.98 118.727 257.607 118.727 257.191C118.727 256.764 118.647 256.391 118.487 256.071C118.337 255.751 118.124 255.5 117.847 255.319C117.58 255.138 117.265 255.047 116.903 255.047C116.529 255.047 116.199 255.138 115.911 255.319C115.623 255.5 115.399 255.751 115.239 256.071C115.079 256.391 114.993 256.764 114.983 257.191C114.993 257.607 115.079 257.98 115.239 258.311C115.399 258.631 115.623 258.887 115.911 259.079C116.209 259.26 116.545 259.351 116.919 259.351ZM129.306 261.543C128.218 261.543 127.252 261.298 126.41 260.807C125.567 260.306 124.906 259.623 124.426 258.759C123.946 257.884 123.706 256.882 123.706 255.751C123.706 254.62 123.946 253.623 124.426 252.759C124.906 251.884 125.562 251.202 126.394 250.711C127.236 250.21 128.202 249.959 129.29 249.959C130.058 249.959 130.772 250.098 131.434 250.375C132.095 250.642 132.671 251.02 133.162 251.511C133.663 251.991 134.047 252.546 134.314 253.175L132.282 253.927C132.1 253.532 131.86 253.191 131.562 252.903C131.263 252.604 130.922 252.375 130.538 252.215C130.154 252.044 129.738 251.959 129.29 251.959C128.639 251.959 128.058 252.124 127.546 252.455C127.044 252.775 126.65 253.218 126.362 253.783C126.084 254.348 125.946 255.004 125.946 255.751C125.946 256.498 126.09 257.159 126.378 257.735C126.666 258.3 127.066 258.748 127.578 259.079C128.09 259.399 128.676 259.559 129.338 259.559C129.796 259.559 130.212 259.474 130.586 259.303C130.97 259.122 131.306 258.876 131.594 258.567C131.892 258.258 132.132 257.9 132.314 257.495L134.346 258.231C134.079 258.882 133.695 259.458 133.194 259.959C132.703 260.46 132.127 260.85 131.466 261.127C130.804 261.404 130.084 261.543 129.306 261.543ZM139.83 261.543C138.699 261.543 137.697 261.298 136.822 260.807C135.958 260.306 135.281 259.623 134.79 258.759C134.299 257.884 134.054 256.887 134.054 255.767C134.054 254.626 134.299 253.623 134.79 252.759C135.281 251.884 135.953 251.202 136.806 250.711C137.67 250.22 138.662 249.975 139.782 249.975C140.913 249.975 141.905 250.226 142.758 250.727C143.622 251.218 144.299 251.9 144.79 252.775C145.281 253.639 145.526 254.636 145.526 255.767C145.526 256.887 145.281 257.884 144.79 258.759C144.31 259.623 143.638 260.306 142.774 260.807C141.921 261.298 140.939 261.543 139.83 261.543ZM139.83 259.543C140.513 259.543 141.11 259.383 141.622 259.063C142.145 258.732 142.55 258.284 142.838 257.719C143.137 257.154 143.286 256.503 143.286 255.767C143.286 255.02 143.137 254.364 142.838 253.799C142.539 253.234 142.129 252.791 141.606 252.471C141.083 252.14 140.475 251.975 139.782 251.975C139.11 251.975 138.507 252.14 137.974 252.471C137.451 252.791 137.041 253.234 136.742 253.799C136.443 254.364 136.294 255.02 136.294 255.767C136.294 256.503 136.443 257.154 136.742 257.719C137.041 258.284 137.457 258.732 137.99 259.063C138.523 259.383 139.137 259.543 139.83 259.543ZM146.922 262.055L145.37 261.815C145.37 261.644 145.434 261.447 145.562 261.223C145.69 260.988 145.866 260.754 146.09 260.519C146.325 260.284 146.586 260.066 146.874 259.863L147.69 259.303C147.882 259.175 148.069 259.02 148.25 258.839C148.432 258.658 148.522 258.471 148.522 258.279C148.522 258.066 148.448 257.895 148.298 257.767C148.149 257.628 147.925 257.559 147.626 257.559C147.402 257.559 147.21 257.634 147.05 257.783C146.901 257.922 146.8 258.087 146.746 258.279L145.114 258.007C145.178 257.666 145.317 257.356 145.53 257.079C145.754 256.791 146.042 256.556 146.394 256.375C146.757 256.194 147.168 256.103 147.626 256.103C148.405 256.103 149.018 256.306 149.466 256.711C149.914 257.106 150.138 257.623 150.138 258.263C150.138 258.722 150.01 259.111 149.754 259.431C149.509 259.751 149.184 260.05 148.778 260.327L147.962 260.887C147.813 260.994 147.664 261.122 147.514 261.271C147.365 261.41 147.232 261.548 147.114 261.687C147.008 261.836 146.944 261.959 146.922 262.055ZM145.37 262.951V261.815L146.538 261.559H150.218V262.951H145.37ZM154 261.543C153.21 261.543 152.512 261.367 151.904 261.015C151.296 260.652 150.816 260.156 150.464 259.527C150.122 258.898 149.952 258.172 149.952 257.351C149.952 256.53 150.128 255.804 150.48 255.175C150.842 254.546 151.333 254.055 151.952 253.703C152.581 253.34 153.301 253.159 154.112 253.159C154.816 253.159 155.461 253.346 156.048 253.719C156.645 254.082 157.12 254.62 157.472 255.335C157.834 256.039 158.016 256.898 158.016 257.911H152.16C152.213 258.444 152.442 258.871 152.848 259.191C153.253 259.5 153.712 259.655 154.224 259.655C154.661 259.655 155.018 259.564 155.296 259.383C155.573 259.191 155.786 258.946 155.936 258.647L157.824 259.383C157.6 259.831 157.306 260.22 156.944 260.551C156.592 260.871 156.17 261.116 155.68 261.287C155.189 261.458 154.629 261.543 154 261.543ZM152.272 256.343H155.728C155.696 256.012 155.589 255.746 155.408 255.543C155.226 255.34 155.013 255.191 154.768 255.095C154.522 254.999 154.282 254.951 154.048 254.951C153.824 254.951 153.578 254.999 153.312 255.095C153.056 255.18 152.826 255.324 152.624 255.527C152.432 255.73 152.314 256.002 152.272 256.343Z" fill="#8FCE79"/>
<path d="M185.57 250.118V245.569H208.036V250.118H185.57ZM185.57 261.351V256.802H208.036V261.351H185.57Z" fill="#8FCE79"/>
<g clip-path="url(#clip0_633_3678)">
<path d="M286.569 100.949L274.175 119.632L255.492 107.238" stroke="#8FCE79" stroke-width="6.3413" stroke-linecap="round" stroke-linejoin="round"/>
<path d="M299.035 114.601L249.313 124.664C245.88 125.359 243.661 128.705 244.356 132.137L251.274 166.321C251.968 169.754 255.314 171.973 258.747 171.279L308.469 161.216C311.902 160.521 314.121 157.175 313.427 153.743L306.508 119.559C305.814 116.126 302.468 113.906 299.035 114.601Z" stroke="#8FCE79" stroke-width="6.3413" stroke-linecap="round" stroke-linejoin="round"/>
<path d="M272.783 151.742L270.458 138.806C269.957 139.3 269.424 139.716 268.861 140.054C268.295 140.375 267.691 140.576 267.048 140.658L266.502 137.62C266.916 137.579 267.339 137.402 267.772 137.088C268.201 136.758 268.611 136.364 269.001 135.906C269.404 135.429 269.76 134.969 270.068 134.526L272.91 134.015L275.993 151.165L272.783 151.742ZM278.894 150.643L275.811 133.493L279.045 132.912L280.208 139.38C280.508 138.702 280.932 138.154 281.481 137.735C282.026 137.299 282.675 137.014 283.426 136.879C284.406 136.703 285.266 136.751 286.006 137.022C286.763 137.291 287.395 137.809 287.904 138.578C288.411 139.33 288.781 140.359 289.016 141.666L290.262 148.599L287.028 149.181L285.901 142.909C285.751 142.076 285.537 141.448 285.259 141.026C284.981 140.604 284.653 140.326 284.274 140.192C283.893 140.041 283.474 140.007 283.017 140.089C282.181 140.222 281.581 140.591 281.218 141.196C280.871 141.798 280.79 142.614 280.975 143.643L282.128 150.062L278.894 150.643Z" fill="#8FCE79"/>
</g>
<path d="M237.335 207.351V194.208C236.754 194.606 236.156 194.921 235.542 195.154C234.928 195.369 234.298 195.461 233.65 195.428V192.341C234.065 192.374 234.513 192.274 234.995 192.042C235.476 191.793 235.949 191.478 236.414 191.096C236.895 190.698 237.326 190.308 237.708 189.926H240.595V207.351H237.335ZM248.593 207.351V189.926H251.879V196.498C252.294 195.884 252.808 195.419 253.422 195.104C254.036 194.772 254.725 194.606 255.488 194.606C256.484 194.606 257.322 194.805 258.002 195.203C258.699 195.602 259.23 196.224 259.595 197.07C259.96 197.9 260.143 198.979 260.143 200.306V207.351H256.857V200.979C256.857 200.132 256.758 199.477 256.558 199.012C256.359 198.547 256.086 198.215 255.737 198.016C255.389 197.801 254.982 197.693 254.517 197.693C253.671 197.676 253.015 197.933 252.551 198.464C252.103 198.995 251.879 199.784 251.879 200.829V207.351H248.593ZM267.508 207.65C266.28 207.65 265.193 207.376 264.247 206.828C263.301 206.264 262.554 205.492 262.007 204.513C261.476 203.534 261.21 202.406 261.21 201.128C261.21 199.85 261.484 198.722 262.032 197.743C262.596 196.763 263.359 196 264.322 195.452C265.301 194.888 266.421 194.606 267.682 194.606C268.778 194.606 269.782 194.896 270.694 195.477C271.624 196.042 272.362 196.88 272.91 197.991C273.474 199.087 273.756 200.423 273.756 201.999H264.645C264.728 202.829 265.085 203.493 265.716 203.991C266.346 204.472 267.06 204.712 267.857 204.712C268.537 204.712 269.093 204.571 269.524 204.289C269.956 203.991 270.288 203.609 270.52 203.144L273.457 204.289C273.109 204.986 272.653 205.592 272.088 206.106C271.541 206.604 270.885 206.986 270.122 207.252C269.358 207.517 268.487 207.65 267.508 207.65ZM264.82 199.56H270.196C270.147 199.045 269.981 198.63 269.699 198.315C269.417 198 269.085 197.767 268.703 197.618C268.321 197.469 267.948 197.394 267.583 197.394C267.234 197.394 266.853 197.469 266.438 197.618C266.039 197.751 265.683 197.975 265.367 198.29C265.069 198.605 264.886 199.029 264.82 199.56ZM279.214 207.65C278.219 207.65 277.372 207.451 276.675 207.052C275.995 206.654 275.472 206.04 275.107 205.21C274.742 204.364 274.559 203.277 274.559 201.949V194.905H277.845V201.277C277.845 202.107 277.937 202.763 278.119 203.244C278.318 203.708 278.592 204.049 278.941 204.264C279.306 204.464 279.712 204.563 280.16 204.563C281.023 204.58 281.679 204.322 282.127 203.791C282.575 203.244 282.799 202.456 282.799 201.427V194.905H286.085V207.351H282.998L282.874 205.658C282.459 206.289 281.936 206.779 281.305 207.127C280.691 207.476 279.994 207.65 279.214 207.65ZM288.049 207.351V194.905H291.335V197.195C291.849 196.415 292.497 195.834 293.277 195.452C294.073 195.054 294.895 194.855 295.741 194.855V198.041C294.978 198.041 294.256 198.133 293.575 198.315C292.912 198.498 292.372 198.796 291.957 199.211C291.542 199.626 291.335 200.157 291.335 200.804V207.351H288.049ZM302.225 207.65C300.997 207.65 299.91 207.376 298.964 206.828C298.018 206.264 297.271 205.492 296.723 204.513C296.192 203.534 295.927 202.406 295.927 201.128C295.927 199.85 296.201 198.722 296.748 197.743C297.313 196.763 298.076 196 299.038 195.452C300.018 194.888 301.138 194.606 302.399 194.606C303.494 194.606 304.498 194.896 305.411 195.477C306.34 196.042 307.079 196.88 307.626 197.991C308.191 199.087 308.473 200.423 308.473 201.999H299.362C299.445 202.829 299.802 203.493 300.432 203.991C301.063 204.472 301.777 204.712 302.573 204.712C303.254 204.712 303.81 204.571 304.241 204.289C304.672 203.991 305.004 203.609 305.237 203.144L308.174 204.289C307.826 204.986 307.369 205.592 306.805 206.106C306.257 206.604 305.602 206.986 304.838 207.252C304.075 207.517 303.204 207.65 302.225 207.65ZM299.536 199.56H304.913C304.863 199.045 304.697 198.63 304.415 198.315C304.133 198 303.801 197.767 303.42 197.618C303.038 197.469 302.664 197.394 302.299 197.394C301.951 197.394 301.569 197.469 301.154 197.618C300.756 197.751 300.399 197.975 300.084 198.29C299.785 198.605 299.603 199.029 299.536 199.56ZM319.503 207.65C318.358 207.65 317.362 207.384 316.516 206.853C315.686 206.322 315.039 205.567 314.574 204.588C314.11 203.609 313.877 202.456 313.877 201.128C313.877 199.784 314.11 198.63 314.574 197.668C315.039 196.689 315.686 195.934 316.516 195.403C317.362 194.872 318.358 194.606 319.503 194.606C320.316 194.606 321.038 194.78 321.669 195.129C322.316 195.461 322.839 195.942 323.237 196.573V189.926H326.523V207.351H323.411L323.312 205.609C322.897 206.256 322.366 206.762 321.718 207.127C321.071 207.476 320.333 207.65 319.503 207.65ZM320.349 204.638C320.897 204.638 321.378 204.505 321.793 204.239C322.225 203.957 322.565 203.567 322.814 203.07C323.063 202.572 323.204 202.007 323.237 201.377V200.879C323.204 200.248 323.063 199.692 322.814 199.211C322.565 198.713 322.225 198.332 321.793 198.066C321.362 197.784 320.872 197.643 320.324 197.643C319.727 197.643 319.196 197.792 318.731 198.091C318.283 198.373 317.926 198.78 317.661 199.311C317.412 199.842 317.288 200.448 317.288 201.128C317.288 201.808 317.42 202.414 317.686 202.945C317.951 203.476 318.308 203.891 318.756 204.19C319.221 204.488 319.752 204.638 320.349 204.638ZM334.097 207.65C332.869 207.65 331.782 207.376 330.836 206.828C329.89 206.264 329.144 205.492 328.596 204.513C328.065 203.534 327.799 202.406 327.799 201.128C327.799 199.85 328.073 198.722 328.621 197.743C329.185 196.763 329.948 196 330.911 195.452C331.89 194.888 333.01 194.606 334.271 194.606C335.367 194.606 336.371 194.896 337.283 195.477C338.213 196.042 338.951 196.88 339.499 197.991C340.063 199.087 340.345 200.423 340.345 201.999H331.234C331.317 202.829 331.674 203.493 332.305 203.991C332.935 204.472 333.649 204.712 334.446 204.712C335.126 204.712 335.682 204.571 336.113 204.289C336.545 203.991 336.877 203.609 337.109 203.144L340.046 204.289C339.698 204.986 339.242 205.592 338.677 206.106C338.13 206.604 337.474 206.986 336.711 207.252C335.948 207.517 335.076 207.65 334.097 207.65ZM331.409 199.56H336.786C336.736 199.045 336.57 198.63 336.288 198.315C336.006 198 335.674 197.767 335.292 197.618C334.91 197.469 334.537 197.394 334.172 197.394C333.823 197.394 333.442 197.469 333.027 197.618C332.628 197.751 332.272 197.975 331.956 198.29C331.658 198.605 331.475 199.029 331.409 199.56ZM238.853 234.65C237.708 234.65 236.712 234.384 235.866 233.853C235.036 233.322 234.389 232.567 233.924 231.588C233.46 230.609 233.227 229.456 233.227 228.128C233.227 226.784 233.46 225.63 233.924 224.668C234.389 223.689 235.036 222.934 235.866 222.403C236.712 221.872 237.708 221.606 238.853 221.606C239.666 221.606 240.388 221.78 241.019 222.129C241.666 222.461 242.189 222.942 242.587 223.573V216.926H245.873V234.351H242.761L242.662 232.609C242.247 233.256 241.716 233.762 241.068 234.127C240.421 234.476 239.683 234.65 238.853 234.65ZM239.699 231.638C240.247 231.638 240.728 231.505 241.143 231.239C241.575 230.957 241.915 230.567 242.164 230.07C242.413 229.572 242.554 229.007 242.587 228.377V227.879C242.554 227.248 242.413 226.692 242.164 226.211C241.915 225.713 241.575 225.332 241.143 225.066C240.712 224.784 240.222 224.643 239.674 224.643C239.077 224.643 238.546 224.792 238.081 225.091C237.633 225.373 237.276 225.78 237.011 226.311C236.762 226.842 236.638 227.448 236.638 228.128C236.638 228.808 236.77 229.414 237.036 229.945C237.301 230.476 237.658 230.891 238.106 231.19C238.571 231.488 239.102 231.638 239.699 231.638ZM248.021 234.351V221.905H251.306V234.351H248.021ZM249.664 219.888C249.166 219.888 248.726 219.706 248.344 219.341C247.963 218.959 247.772 218.511 247.772 217.997C247.772 217.482 247.963 217.042 248.344 216.677C248.726 216.296 249.166 216.105 249.664 216.105C250.178 216.105 250.618 216.296 250.983 216.677C251.365 217.042 251.555 217.482 251.555 217.997C251.555 218.511 251.365 218.959 250.983 219.341C250.618 219.706 250.178 219.888 249.664 219.888ZM254.699 234.351V224.543H252.633V221.905H254.699V220.66C254.699 219.333 255.039 218.304 255.719 217.573C256.4 216.827 257.437 216.453 258.831 216.453C259.312 216.453 259.818 216.536 260.349 216.702C260.897 216.868 261.395 217.067 261.843 217.3L260.623 219.664C260.358 219.532 260.117 219.432 259.901 219.366C259.686 219.299 259.486 219.266 259.304 219.266C258.856 219.266 258.524 219.424 258.308 219.739C258.092 220.038 257.985 220.527 257.985 221.208V221.905H261.046V224.543H257.985V234.351H254.699ZM263.589 234.351V224.543H261.523V221.905H263.589V220.66C263.589 219.333 263.929 218.304 264.609 217.573C265.29 216.827 266.327 216.453 267.721 216.453C268.202 216.453 268.708 216.536 269.239 216.702C269.787 216.868 270.285 217.067 270.733 217.3L269.513 219.664C269.248 219.532 269.007 219.432 268.791 219.366C268.576 219.299 268.377 219.266 268.194 219.266C267.746 219.266 267.414 219.424 267.198 219.739C266.983 220.038 266.875 220.527 266.875 221.208V221.905H269.936V224.543H266.875V234.351H263.589ZM275.665 234.65C274.669 234.65 273.823 234.451 273.126 234.052C272.446 233.654 271.923 233.04 271.558 232.21C271.193 231.364 271.01 230.277 271.01 228.949V221.905H274.296V228.277C274.296 229.107 274.387 229.763 274.57 230.244C274.769 230.708 275.043 231.049 275.391 231.264C275.756 231.464 276.163 231.563 276.611 231.563C277.474 231.58 278.13 231.322 278.578 230.791C279.026 230.244 279.25 229.456 279.25 228.427V221.905H282.536V234.351H279.449L279.324 232.658C278.91 233.289 278.387 233.779 277.756 234.127C277.142 234.476 276.445 234.65 275.665 234.65ZM289.155 234.65C288.358 234.65 287.612 234.534 286.915 234.301C286.218 234.052 285.604 233.704 285.073 233.256C284.542 232.791 284.127 232.227 283.828 231.563L286.641 230.269C286.89 230.667 287.23 231.015 287.661 231.314C288.093 231.596 288.591 231.737 289.155 231.737C289.703 231.737 290.126 231.663 290.425 231.513C290.723 231.347 290.873 231.115 290.873 230.816C290.873 230.518 290.748 230.302 290.499 230.169C290.267 230.02 289.943 229.895 289.528 229.796L288.383 229.497C287.188 229.182 286.243 228.684 285.546 228.003C284.865 227.306 284.525 226.51 284.525 225.614C284.525 224.336 284.932 223.349 285.745 222.652C286.574 221.955 287.744 221.606 289.255 221.606C290.035 221.606 290.756 221.722 291.42 221.955C292.101 222.187 292.681 222.51 293.163 222.925C293.644 223.34 293.976 223.821 294.158 224.369L291.445 225.614C291.329 225.282 291.047 225.016 290.599 224.817C290.151 224.601 289.703 224.494 289.255 224.494C288.806 224.494 288.458 224.593 288.209 224.792C287.977 224.975 287.861 225.232 287.861 225.564C287.861 225.78 287.977 225.962 288.209 226.112C288.441 226.244 288.773 226.361 289.205 226.46L290.823 226.858C291.636 227.058 292.283 227.381 292.764 227.829C293.262 228.261 293.619 228.75 293.835 229.298C294.067 229.829 294.183 230.352 294.183 230.866C294.183 231.613 293.959 232.277 293.511 232.858C293.08 233.422 292.482 233.862 291.719 234.177C290.972 234.492 290.117 234.65 289.155 234.65ZM295.412 234.351V221.905H298.698V234.351H295.412ZM297.055 219.888C296.558 219.888 296.118 219.706 295.736 219.341C295.354 218.959 295.164 218.511 295.164 217.997C295.164 217.482 295.354 217.042 295.736 216.677C296.118 216.296 296.558 216.105 297.055 216.105C297.57 216.105 298.01 216.296 298.375 216.677C298.756 217.042 298.947 217.482 298.947 217.997C298.947 218.511 298.756 218.959 298.375 219.341C298.01 219.706 297.57 219.888 297.055 219.888ZM306.696 234.65C305.435 234.65 304.306 234.376 303.31 233.828C302.331 233.264 301.56 232.492 300.995 231.513C300.448 230.534 300.174 229.406 300.174 228.128C300.174 226.85 300.448 225.722 300.995 224.743C301.543 223.763 302.306 223 303.285 222.452C304.265 221.888 305.385 221.606 306.646 221.606C307.924 221.606 309.052 221.888 310.031 222.452C311.01 223 311.774 223.763 312.322 224.743C312.869 225.722 313.143 226.85 313.143 228.128C313.143 229.406 312.869 230.534 312.322 231.513C311.774 232.492 311.01 233.264 310.031 233.828C309.069 234.376 307.957 234.65 306.696 234.65ZM306.696 231.613C307.31 231.613 307.849 231.464 308.314 231.165C308.778 230.866 309.135 230.46 309.384 229.945C309.65 229.414 309.782 228.808 309.782 228.128C309.782 227.448 309.65 226.85 309.384 226.336C309.119 225.805 308.745 225.39 308.264 225.091C307.799 224.792 307.26 224.643 306.646 224.643C306.049 224.643 305.509 224.792 305.028 225.091C304.563 225.39 304.198 225.805 303.933 226.336C303.667 226.85 303.534 227.448 303.534 228.128C303.534 228.808 303.667 229.414 303.933 229.945C304.198 230.46 304.572 230.866 305.053 231.165C305.534 231.464 306.082 231.613 306.696 231.613ZM314.428 234.351V221.905H317.514L317.664 223.597C318.062 222.95 318.568 222.461 319.182 222.129C319.813 221.78 320.526 221.606 321.323 221.606C322.302 221.606 323.14 221.805 323.837 222.203C324.534 222.602 325.065 223.224 325.43 224.07C325.795 224.9 325.97 225.979 325.953 227.306V234.351H322.667V227.979C322.667 227.132 322.568 226.477 322.369 226.012C322.186 225.547 321.92 225.215 321.572 225.016C321.223 224.801 320.817 224.693 320.352 224.693C319.506 224.676 318.85 224.933 318.386 225.464C317.938 225.995 317.714 226.784 317.714 227.829V234.351H314.428ZM338.368 234.65C337.14 234.65 336.053 234.376 335.108 233.828C334.162 233.264 333.415 232.492 332.867 231.513C332.336 230.534 332.071 229.406 332.071 228.128C332.071 226.85 332.344 225.722 332.892 224.743C333.456 223.763 334.22 223 335.182 222.452C336.161 221.888 337.282 221.606 338.543 221.606C339.638 221.606 340.642 221.896 341.555 222.477C342.484 223.042 343.223 223.88 343.77 224.991C344.334 226.087 344.617 227.423 344.617 228.999H335.506C335.589 229.829 335.946 230.493 336.576 230.991C337.207 231.472 337.92 231.712 338.717 231.712C339.397 231.712 339.953 231.571 340.385 231.289C340.816 230.991 341.148 230.609 341.381 230.144L344.318 231.289C343.969 231.986 343.513 232.592 342.949 233.106C342.401 233.604 341.746 233.986 340.982 234.252C340.219 234.517 339.348 234.65 338.368 234.65ZM335.68 226.56H341.057C341.007 226.045 340.841 225.63 340.559 225.315C340.277 225 339.945 224.767 339.563 224.618C339.182 224.469 338.808 224.394 338.443 224.394C338.095 224.394 337.713 224.469 337.298 224.618C336.9 224.751 336.543 224.975 336.228 225.29C335.929 225.605 335.746 226.029 335.68 226.56ZM345.644 234.351V221.905H348.731L348.88 223.597C349.278 222.95 349.784 222.461 350.398 222.129C351.029 221.78 351.743 221.606 352.539 221.606C353.518 221.606 354.356 221.805 355.053 222.203C355.75 222.602 356.281 223.224 356.646 224.07C357.012 224.9 357.186 225.979 357.169 227.306V234.351H353.883V227.979C353.883 227.132 353.784 226.477 353.585 226.012C353.402 225.547 353.137 225.215 352.788 225.016C352.44 224.801 352.033 224.693 351.568 224.693C350.722 224.676 350.066 224.933 349.602 225.464C349.154 225.995 348.93 226.784 348.93 227.829V234.351H345.644ZM239.898 261.65C238.604 261.65 237.451 261.376 236.438 260.828C235.426 260.264 234.638 259.492 234.074 258.513C233.509 257.518 233.227 256.389 233.227 255.128C233.227 253.85 233.509 252.722 234.074 251.743C234.638 250.763 235.418 250 236.414 249.452C237.409 248.888 238.554 248.606 239.849 248.606C241.093 248.606 242.23 248.913 243.259 249.527C244.288 250.141 245.035 251.029 245.499 252.191L242.413 253.286C242.18 252.805 241.815 252.423 241.317 252.141C240.836 251.842 240.297 251.693 239.699 251.693C239.085 251.693 238.546 251.842 238.081 252.141C237.617 252.423 237.252 252.821 236.986 253.336C236.721 253.85 236.588 254.448 236.588 255.128C236.588 255.808 236.721 256.406 236.986 256.92C237.252 257.418 237.625 257.816 238.106 258.115C238.587 258.414 239.135 258.563 239.749 258.563C240.347 258.563 240.886 258.405 241.367 258.09C241.865 257.775 242.23 257.36 242.462 256.846L245.574 257.941C245.093 259.119 244.338 260.032 243.309 260.679C242.296 261.326 241.16 261.65 239.898 261.65ZM252.456 261.65C251.195 261.65 250.066 261.376 249.07 260.828C248.091 260.264 247.32 259.492 246.755 258.513C246.208 257.534 245.934 256.406 245.934 255.128C245.934 253.85 246.208 252.722 246.755 251.743C247.303 250.763 248.066 250 249.045 249.452C250.025 248.888 251.145 248.606 252.406 248.606C253.684 248.606 254.812 248.888 255.791 249.452C256.77 250 257.534 250.763 258.081 251.743C258.629 252.722 258.903 253.85 258.903 255.128C258.903 256.406 258.629 257.534 258.081 258.513C257.534 259.492 256.77 260.264 255.791 260.828C254.829 261.376 253.717 261.65 252.456 261.65ZM252.456 258.613C253.07 258.613 253.609 258.464 254.074 258.165C254.538 257.866 254.895 257.46 255.144 256.945C255.41 256.414 255.542 255.808 255.542 255.128C255.542 254.448 255.41 253.85 255.144 253.336C254.879 252.805 254.505 252.39 254.024 252.091C253.559 251.792 253.02 251.643 252.406 251.643C251.809 251.643 251.269 251.792 250.788 252.091C250.323 252.39 249.958 252.805 249.693 253.336C249.427 253.85 249.294 254.448 249.294 255.128C249.294 255.808 249.427 256.414 249.693 256.945C249.958 257.46 250.332 257.866 250.813 258.165C251.294 258.464 251.842 258.613 252.456 258.613ZM260.188 261.351V248.905H263.274L263.424 250.597C263.822 249.95 264.328 249.461 264.942 249.129C265.573 248.78 266.286 248.606 267.083 248.606C268.062 248.606 268.9 248.805 269.597 249.203C270.294 249.602 270.825 250.224 271.19 251.07C271.555 251.9 271.73 252.979 271.713 254.306V261.351H268.427V254.979C268.427 254.132 268.328 253.477 268.129 253.012C267.946 252.547 267.68 252.215 267.332 252.016C266.983 251.801 266.577 251.693 266.112 251.693C265.266 251.676 264.61 251.933 264.146 252.464C263.698 252.995 263.474 253.784 263.474 254.829V261.351H260.188ZM278.581 261.65C277.204 261.65 276.159 261.31 275.445 260.629C274.748 259.949 274.399 258.978 274.399 257.717V251.693H272.383V248.905H274.399V245.022H277.685V248.905H280.797V251.693H277.685V256.995C277.685 257.526 277.801 257.932 278.034 258.215C278.266 258.48 278.606 258.613 279.054 258.613C279.22 258.613 279.403 258.58 279.602 258.513C279.801 258.43 280.009 258.314 280.224 258.165L281.369 260.629C280.971 260.928 280.523 261.169 280.025 261.351C279.544 261.55 279.063 261.65 278.581 261.65ZM282.786 261.351V248.905H286.072V261.351H282.786ZM284.429 246.888C283.931 246.888 283.491 246.706 283.109 246.341C282.728 245.959 282.537 245.511 282.537 244.997C282.537 244.482 282.728 244.042 283.109 243.677C283.491 243.296 283.931 243.105 284.429 243.105C284.943 243.105 285.383 243.296 285.748 243.677C286.13 244.042 286.321 244.482 286.321 244.997C286.321 245.511 286.13 245.959 285.748 246.341C285.383 246.706 284.943 246.888 284.429 246.888ZM288.219 261.351V248.905H291.306L291.455 250.597C291.854 249.95 292.36 249.461 292.974 249.129C293.604 248.78 294.318 248.606 295.115 248.606C296.094 248.606 296.932 248.805 297.629 249.203C298.326 249.602 298.857 250.224 299.222 251.07C299.587 251.9 299.761 252.979 299.745 254.306V261.351H296.459V254.979C296.459 254.132 296.359 253.477 296.16 253.012C295.978 252.547 295.712 252.215 295.364 252.016C295.015 251.801 294.608 251.693 294.144 251.693C293.297 251.676 292.642 251.933 292.177 252.464C291.729 252.995 291.505 253.784 291.505 254.829V261.351H288.219ZM305.916 261.65C304.92 261.65 304.074 261.451 303.377 261.052C302.697 260.654 302.174 260.04 301.809 259.21C301.444 258.364 301.261 257.277 301.261 255.949V248.905H304.547V255.277C304.547 256.107 304.638 256.763 304.821 257.244C305.02 257.708 305.294 258.049 305.642 258.264C306.007 258.464 306.414 258.563 306.862 258.563C307.725 258.58 308.38 258.322 308.828 257.791C309.277 257.244 309.501 256.456 309.501 255.427V248.905H312.786V261.351H309.7L309.575 259.658C309.16 260.289 308.638 260.779 308.007 261.127C307.393 261.476 306.696 261.65 305.916 261.65Z" fill="#8FCE79"/>
<defs>
<clipPath id="clip0_633_3678">
<rect width="76.0956" height="76.0956" fill="white" transform="translate(232.48 105.426) rotate(-11.441)"/>
</clipPath>
</defs>
</svg>
