<svg width="225" height="34" viewBox="0 0 225 34" fill="none"
    xmlns="http://www.w3.org/2000/svg">
    <path d="M85.2267 1.76353H60.5472V7.33423H85.2267V1.76353Z" fill="#30B354"/>
    <path fill-rule="evenodd" clip-rule="evenodd" d="M60.5471 8.81199H71.8733V15.6711H85.2265V7.33189H96.9523V14.931L83.827 22.9608L96.9621 31.3875H85.4278L78.7562 26.6746L71.8733 31.3875H60.5471L73.6821 22.9608L60.5471 14.931V8.81199Z" fill="#30B354"/>
    <path d="M102.356 9.25779V0.41679H105.35C105.956 0.41679 106.486 0.50941 106.941 0.69465C107.396 0.87989 107.749 1.16196 108.002 1.54086C108.255 1.91134 108.381 2.37444 108.381 2.93016C108.381 3.27538 108.292 3.59534 108.116 3.89004C107.947 4.17632 107.707 4.42471 107.396 4.63521C107.808 4.84571 108.124 5.12778 108.343 5.48142C108.57 5.82664 108.684 6.24343 108.684 6.73179C108.684 7.27067 108.562 7.72956 108.318 8.10846C108.074 8.48736 107.733 8.77364 107.295 8.9673C106.857 9.16096 106.343 9.25779 105.754 9.25779H102.356ZM104.049 7.72956H105.59C106.002 7.72956 106.326 7.62852 106.562 7.42644C106.798 7.21594 106.916 6.93808 106.916 6.59286C106.916 6.2308 106.785 5.94873 106.524 5.74665C106.263 5.53615 105.905 5.4309 105.451 5.4309H104.049V7.72956ZM104.049 4.01634H105.388C105.766 4.01634 106.065 3.91951 106.284 3.72585C106.503 3.53219 106.613 3.25854 106.613 2.9049C106.613 2.55126 106.491 2.27761 106.246 2.08395C106.002 1.89029 105.67 1.79346 105.249 1.79346H104.049V4.01634Z" fill="#D4D4D4"/>
    <path d="M112.818 9.40935C112.178 9.40935 111.605 9.27042 111.1 8.99256C110.603 8.70628 110.212 8.31475 109.926 7.81797C109.648 7.32119 109.509 6.74863 109.509 6.10029C109.509 5.45195 109.648 4.87939 109.926 4.38261C110.203 3.88583 110.591 3.49851 111.088 3.22065C111.584 2.93437 112.153 2.79123 112.793 2.79123C113.441 2.79123 114.013 2.93437 114.51 3.22065C115.007 3.49851 115.394 3.88583 115.672 4.38261C115.95 4.87939 116.089 5.45195 116.089 6.10029C116.089 6.74863 115.95 7.32119 115.672 7.81797C115.394 8.31475 115.007 8.70628 114.51 8.99256C114.022 9.27042 113.458 9.40935 112.818 9.40935ZM112.818 7.86849C113.129 7.86849 113.403 7.79271 113.639 7.64115C113.875 7.48959 114.056 7.2833 114.182 7.02228C114.317 6.75284 114.384 6.44551 114.384 6.10029C114.384 5.75507 114.317 5.45195 114.182 5.19093C114.047 4.92149 113.858 4.71099 113.614 4.55943C113.378 4.40787 113.104 4.33209 112.793 4.33209C112.489 4.33209 112.216 4.40787 111.972 4.55943C111.736 4.71099 111.551 4.92149 111.416 5.19093C111.281 5.45195 111.214 5.75507 111.214 6.10029C111.214 6.44551 111.281 6.75284 111.416 7.02228C111.551 7.2833 111.74 7.48959 111.984 7.64115C112.228 7.79271 112.506 7.86849 112.818 7.86849Z" fill="#D4D4D4"/>
    <path d="M117.29 9.25779V2.94279H118.957V9.25779H117.29ZM118.995 2.0208L117.226 0.36627V0.26523H118.944L120.51 2.0208H118.995ZM115.648 2.0208L117.214 0.26523H118.931V0.36627L117.163 2.0208H115.648Z" fill="#D4D4D4"/>
    <path d="M123.096 9.40935C122.397 9.40935 121.866 9.23674 121.504 8.89152C121.151 8.5463 120.974 8.05373 120.974 7.41381V4.35735H119.951V2.94279H120.974V0.97251H122.641V2.94279H124.22V4.35735H122.641V7.04754C122.641 7.31698 122.7 7.52327 122.818 7.66641C122.936 7.80113 123.108 7.86849 123.336 7.86849C123.42 7.86849 123.513 7.85165 123.614 7.81797C123.715 7.77587 123.82 7.71693 123.929 7.64115L124.51 8.89152C124.308 9.04308 124.081 9.16517 123.828 9.25779C123.584 9.35883 123.34 9.40935 123.096 9.40935Z" fill="#D4D4D4"/>
    <path d="M128.319 9.40935C127.696 9.40935 127.144 9.27042 126.664 8.99256C126.185 8.70628 125.806 8.31475 125.528 7.81797C125.258 7.32119 125.124 6.74863 125.124 6.10029C125.124 5.45195 125.263 4.87939 125.54 4.38261C125.827 3.88583 126.214 3.49851 126.702 3.22065C127.199 2.93437 127.767 2.79123 128.407 2.79123C128.963 2.79123 129.473 2.93858 129.936 3.23328C130.407 3.51956 130.782 3.94477 131.06 4.50891C131.346 5.06463 131.489 5.74244 131.489 6.54234H126.867C126.909 6.96334 127.09 7.30014 127.41 7.55274C127.73 7.79692 128.092 7.91901 128.496 7.91901C128.841 7.91901 129.123 7.84744 129.342 7.7043C129.561 7.55274 129.729 7.35908 129.847 7.12332L131.338 7.7043C131.161 8.05794 130.929 8.36527 130.643 8.62629C130.365 8.87889 130.032 9.07255 129.645 9.20727C129.258 9.34199 128.816 9.40935 128.319 9.40935ZM126.955 5.3046H129.683C129.658 5.04358 129.574 4.83308 129.43 4.6731C129.287 4.51312 129.119 4.39524 128.925 4.31946C128.732 4.24368 128.542 4.20579 128.357 4.20579C128.18 4.20579 127.986 4.24368 127.776 4.31946C127.574 4.38682 127.393 4.50049 127.233 4.66047C127.081 4.82045 126.989 5.03516 126.955 5.3046Z" fill="#D4D4D4"/>
    <path d="M137.514 9.40935C136.756 9.40935 136.166 9.24095 135.745 8.90415C135.333 8.56735 135.126 8.09162 135.126 7.47696C135.126 6.80336 135.35 6.29816 135.796 5.96136C136.251 5.61614 136.886 5.44353 137.703 5.44353H139.193C139.134 5.05621 139.012 4.76151 138.827 4.55943C138.642 4.34893 138.377 4.24368 138.031 4.24368C137.762 4.24368 137.518 4.30262 137.299 4.4205C137.08 4.53838 136.895 4.71941 136.743 4.96359L135.278 4.45839C135.396 4.18895 135.569 3.92793 135.796 3.67533C136.023 3.41431 136.318 3.20381 136.68 3.04383C137.05 2.87543 137.501 2.79123 138.031 2.79123C138.671 2.79123 139.202 2.91332 139.623 3.1575C140.052 3.40168 140.368 3.7469 140.57 4.19316C140.781 4.631 140.882 5.15304 140.873 5.75928L140.835 9.25779H139.282L139.256 8.52525C139.096 8.81153 138.869 9.03045 138.574 9.18201C138.288 9.33357 137.935 9.40935 137.514 9.40935ZM137.791 8.02005C138.061 8.02005 138.305 7.9569 138.524 7.8306C138.743 7.7043 138.915 7.54011 139.042 7.33803C139.168 7.13595 139.231 6.92545 139.231 6.70653V6.68127H138.284C137.737 6.68127 137.358 6.74863 137.147 6.88335C136.937 7.00965 136.832 7.19068 136.832 7.42644C136.832 7.61168 136.916 7.75903 137.084 7.86849C137.253 7.96953 137.488 8.02005 137.791 8.02005ZM137.627 2.15973L135.973 0.40416H137.842L139.307 2.15973H137.627Z" fill="#D4D4D4"/>
    <path d="M148.118 9.40935C147.478 9.40935 146.905 9.27042 146.4 8.99256C145.903 8.70628 145.512 8.31475 145.225 7.81797C144.948 7.32119 144.809 6.74863 144.809 6.10029C144.809 5.45195 144.948 4.87939 145.225 4.38261C145.503 3.88583 145.891 3.49851 146.387 3.22065C146.884 2.93437 147.453 2.79123 148.092 2.79123C148.741 2.79123 149.313 2.93437 149.81 3.22065C150.307 3.49851 150.694 3.88583 150.972 4.38261C151.25 4.87939 151.389 5.45195 151.389 6.10029C151.389 6.74863 151.25 7.32119 150.972 7.81797C150.694 8.31475 150.307 8.70628 149.81 8.99256C149.322 9.27042 148.758 9.40935 148.118 9.40935ZM148.118 7.86849C148.429 7.86849 148.703 7.79271 148.939 7.64115C149.174 7.48959 149.355 7.2833 149.482 7.02228C149.616 6.75284 149.684 6.44551 149.684 6.10029C149.684 5.75507 149.616 5.45195 149.482 5.19093C149.347 4.92149 149.158 4.71099 148.913 4.55943C148.678 4.40787 148.404 4.33209 148.092 4.33209C147.789 4.33209 147.516 4.40787 147.271 4.55943C147.036 4.71099 146.851 4.92149 146.716 5.19093C146.581 5.45195 146.514 5.75507 146.514 6.10029C146.514 6.44551 146.581 6.75284 146.716 7.02228C146.851 7.2833 147.04 7.48959 147.284 7.64115C147.528 7.79271 147.806 7.86849 148.118 7.86849Z" fill="#D4D4D4"/>
    <path d="M154.737 9.40935C154.231 9.40935 153.802 9.30831 153.448 9.10623C153.103 8.90415 152.838 8.59261 152.653 8.17161C152.467 7.74219 152.375 7.19068 152.375 6.51708V2.94279H154.042V6.17607C154.042 6.59707 154.088 6.92966 154.181 7.17384C154.282 7.4096 154.421 7.58221 154.598 7.69167C154.783 7.79271 154.989 7.84323 155.216 7.84323C155.654 7.85165 155.987 7.72114 156.214 7.4517C156.442 7.17384 156.555 6.77389 156.555 6.25185V2.94279H158.222V9.25779H156.656L156.593 8.39895C156.383 8.71891 156.117 8.9673 155.797 9.14412C155.486 9.32094 155.132 9.40935 154.737 9.40935Z" fill="#D4D4D4"/>
    <path d="M162.269 9.40935C161.57 9.40935 161.039 9.23674 160.677 8.89152C160.324 8.5463 160.147 8.05373 160.147 7.41381V4.35735H159.124V2.94279H160.147V0.97251H161.814V2.94279H163.393V4.35735H161.814V7.04754C161.814 7.31698 161.873 7.52327 161.991 7.66641C162.109 7.80113 162.281 7.86849 162.509 7.86849C162.593 7.86849 162.685 7.85165 162.786 7.81797C162.887 7.77587 162.993 7.71693 163.102 7.64115L163.683 8.89152C163.481 9.04308 163.254 9.16517 163.001 9.25779C162.757 9.35883 162.513 9.40935 162.269 9.40935Z" fill="#D4D4D4"/>
    <path d="M164.849 9.25779V2.94279H166.517V9.25779H164.849ZM165.683 1.91976C165.43 1.91976 165.207 1.82714 165.014 1.6419C164.82 1.44824 164.723 1.2209 164.723 0.95988C164.723 0.69886 164.82 0.47573 165.014 0.29049C165.207 0.09683 165.43 0 165.683 0C165.944 0 166.167 0.09683 166.352 0.29049C166.546 0.47573 166.643 0.69886 166.643 0.95988C166.643 1.2209 166.546 1.44824 166.352 1.6419C166.167 1.82714 165.944 1.91976 165.683 1.91976Z" fill="#D4D4D4"/>
    <path d="M168.054 9.25779V0.41679H169.721V9.25779H168.054Z" fill="#D4D4D4"/>
    <path d="M173.524 9.40935C173.12 9.40935 172.741 9.35041 172.387 9.23253C172.034 9.10623 171.722 8.92941 171.453 8.70207C171.183 8.46631 170.973 8.18003 170.821 7.84323L172.248 7.18647C172.374 7.38855 172.547 7.56537 172.766 7.71693C172.985 7.86007 173.238 7.93164 173.524 7.93164C173.802 7.93164 174.016 7.89375 174.168 7.81797C174.32 7.73377 174.395 7.61589 174.395 7.46433C174.395 7.31277 174.332 7.20331 174.206 7.13595C174.088 7.06017 173.924 6.99702 173.713 6.9465L173.132 6.79494C172.526 6.63496 172.046 6.38236 171.693 6.03714C171.347 5.6835 171.175 5.27934 171.175 4.82466C171.175 4.17632 171.381 3.67533 171.794 3.32169C172.215 2.96805 172.808 2.79123 173.574 2.79123C173.97 2.79123 174.336 2.85017 174.673 2.96805C175.018 3.08593 175.313 3.25012 175.557 3.46062C175.801 3.67112 175.97 3.9153 176.062 4.19316L174.686 4.82466C174.627 4.65626 174.484 4.52154 174.256 4.4205C174.029 4.31104 173.802 4.25631 173.574 4.25631C173.347 4.25631 173.17 4.30683 173.044 4.40787C172.926 4.50049 172.867 4.631 172.867 4.7994C172.867 4.90886 172.926 5.00148 173.044 5.07726C173.162 5.14462 173.33 5.20356 173.549 5.25408L174.37 5.45616C174.783 5.5572 175.111 5.72139 175.355 5.94873C175.608 6.16765 175.789 6.41604 175.898 6.6939C176.016 6.96334 176.075 7.22857 176.075 7.48959C176.075 7.86849 175.961 8.20529 175.734 8.49999C175.515 8.78627 175.212 9.0094 174.825 9.16938C174.446 9.32936 174.012 9.40935 173.524 9.40935Z" fill="#D4D4D4"/>
    <path d="M102.356 20.2578V11.4168H104.087V20.2578H102.356Z" fill="#D4D4D4"/>
    <path d="M105.148 20.2578L108.634 11.4168H110.478L113.964 20.2578H112.133L111.375 18.3128H107.738L106.98 20.2578H105.148ZM108.306 16.7845H110.807L109.556 13.5765L108.306 16.7845Z" fill="#D4D4D4"/>
    <path d="M120.635 22.948C120.155 22.948 119.729 22.9143 119.359 22.8469C118.989 22.7796 118.677 22.6912 118.424 22.5817C118.172 22.4723 117.965 22.3628 117.806 22.2533L118.462 20.9146C118.58 20.9819 118.736 21.0577 118.93 21.1419C119.123 21.2345 119.355 21.3103 119.624 21.3692C119.894 21.4366 120.205 21.4703 120.559 21.4703C120.896 21.4703 121.19 21.4029 121.443 21.2682C121.704 21.1419 121.906 20.9398 122.049 20.662C122.201 20.3925 122.277 20.0473 122.277 19.6263V19.0201C122.066 19.3484 121.792 19.6095 121.456 19.8031C121.119 19.9884 120.736 20.081 120.306 20.081C119.725 20.081 119.22 19.9547 118.791 19.7021C118.37 19.4495 118.041 19.0958 117.806 18.6412C117.57 18.1865 117.452 17.6476 117.452 17.0245C117.452 16.3678 117.57 15.7994 117.806 15.3195C118.041 14.8311 118.37 14.4564 118.791 14.1954C119.22 13.926 119.725 13.7912 120.306 13.7912C120.736 13.7912 121.119 13.8923 121.456 14.0943C121.792 14.288 122.066 14.5659 122.277 14.9279V13.9428H123.944V19.5758C123.944 20.2831 123.809 20.8893 123.54 21.3945C123.27 21.9081 122.887 22.2954 122.39 22.5564C121.902 22.8175 121.317 22.948 120.635 22.948ZM120.786 18.679C121.072 18.679 121.321 18.6075 121.531 18.4643C121.75 18.3128 121.919 18.1107 122.037 17.8581C122.154 17.5971 122.213 17.3024 122.213 16.974C122.213 16.6372 122.15 16.3425 122.024 16.0899C121.906 15.8373 121.738 15.6394 121.519 15.4963C121.308 15.3531 121.06 15.2816 120.774 15.2816C120.479 15.2816 120.218 15.3531 119.991 15.4963C119.763 15.6394 119.586 15.8373 119.46 16.0899C119.334 16.3425 119.266 16.6372 119.258 16.974C119.266 17.3024 119.334 17.5971 119.46 17.8581C119.586 18.1107 119.763 18.3128 119.991 18.4643C120.226 18.6075 120.491 18.679 120.786 18.679Z" fill="#D4D4D4"/>
    <path d="M128.233 20.4094C127.61 20.4094 127.058 20.2704 126.578 19.9926C126.098 19.7063 125.719 19.3148 125.441 18.818C125.172 18.3212 125.037 17.7486 125.037 17.1003C125.037 16.452 125.176 15.8794 125.454 15.3826C125.74 14.8858 126.128 14.4985 126.616 14.2207C127.113 13.9344 127.681 13.7912 128.321 13.7912C128.877 13.7912 129.386 13.9386 129.849 14.2333C130.321 14.5196 130.695 14.9448 130.973 15.5089C131.26 16.0646 131.403 16.7424 131.403 17.5423H126.78C126.822 17.9633 127.003 18.3001 127.323 18.5527C127.643 18.7969 128.005 18.919 128.409 18.919C128.755 18.919 129.037 18.8474 129.256 18.7043C129.475 18.5527 129.643 18.3591 129.761 18.1233L131.251 18.7043C131.074 19.0579 130.843 19.3653 130.557 19.6263C130.279 19.8789 129.946 20.0725 129.559 20.2073C129.171 20.342 128.729 20.4094 128.233 20.4094ZM126.869 16.3046H129.597C129.571 16.0436 129.487 15.8331 129.344 15.6731C129.201 15.5131 129.033 15.3952 128.839 15.3195C128.645 15.2437 128.456 15.2058 128.271 15.2058C128.094 15.2058 127.9 15.2437 127.69 15.3195C127.487 15.3868 127.306 15.5005 127.146 15.6605C126.995 15.8204 126.902 16.0352 126.869 16.3046ZM127.273 13.1597L128.713 11.4168H130.582L128.953 13.1597H127.273Z" fill="#D4D4D4"/>
    <path d="M132.409 20.2578V13.9428H133.975L134.051 14.8016C134.253 14.4732 134.509 14.2249 134.821 14.0565C135.141 13.8796 135.503 13.7912 135.907 13.7912C136.404 13.7912 136.829 13.8923 137.183 14.0943C137.536 14.2964 137.806 14.6122 137.991 15.0416C138.176 15.4626 138.265 16.0099 138.256 16.6835V20.2578H136.589V17.0245C136.589 16.5951 136.539 16.2625 136.438 16.0267C136.345 15.791 136.21 15.6226 136.033 15.5215C135.857 15.4121 135.65 15.3574 135.415 15.3574C134.985 15.3489 134.653 15.4794 134.417 15.7489C134.189 16.0183 134.076 16.4183 134.076 16.9487V20.2578H132.409Z" fill="#D4D4D4"/>
    <path d="M142.441 20.4094C141.818 20.4094 141.267 20.2704 140.787 19.9926C140.307 19.7063 139.928 19.3148 139.65 18.818C139.381 18.3212 139.246 17.7486 139.246 17.1003C139.246 16.452 139.385 15.8794 139.663 15.3826C139.949 14.8858 140.336 14.4985 140.825 14.2207C141.322 13.9344 141.89 13.7912 142.53 13.7912C143.086 13.7912 143.595 13.9386 144.058 14.2333C144.53 14.5196 144.904 14.9448 145.182 15.5089C145.468 16.0646 145.612 16.7424 145.612 17.5423H140.989C141.031 17.9633 141.212 18.3001 141.532 18.5527C141.852 18.7969 142.214 18.919 142.618 18.919C142.963 18.919 143.246 18.8474 143.464 18.7043C143.683 18.5527 143.852 18.3591 143.97 18.1233L145.46 18.7043C145.283 19.0579 145.052 19.3653 144.765 19.6263C144.487 19.8789 144.155 20.0725 143.768 20.2073C143.38 20.342 142.938 20.4094 142.441 20.4094ZM141.077 16.3046H143.805C143.78 16.0436 143.696 15.8331 143.553 15.6731C143.41 15.5131 143.241 15.3952 143.048 15.3195C142.854 15.2437 142.665 15.2058 142.479 15.2058C142.302 15.2058 142.109 15.2437 141.898 15.3195C141.696 15.3868 141.515 15.5005 141.355 15.6605C141.204 15.8204 141.111 16.0352 141.077 16.3046ZM141.482 13.1597L142.921 11.4168H144.791L143.161 13.1597H141.482Z" fill="#D4D4D4"/>
    <path d="M146.617 20.2578V13.9428H148.285V15.1048C148.546 14.709 148.874 14.4143 149.27 14.2207C149.674 14.0186 150.091 13.9175 150.52 13.9175V15.5342C150.133 15.5342 149.766 15.5805 149.421 15.6731C149.084 15.7657 148.811 15.9173 148.6 16.1278C148.39 16.3383 148.285 16.6077 148.285 16.9361V20.2578H146.617Z" fill="#D4D4D4"/>
    <path d="M153.449 20.4094C152.691 20.4094 152.102 20.241 151.681 19.9042C151.268 19.5673 151.062 19.0916 151.062 18.477C151.062 17.8034 151.285 17.2982 151.731 16.9614C152.186 16.6161 152.822 16.4435 153.638 16.4435H155.129C155.07 16.0562 154.948 15.7615 154.763 15.5594C154.577 15.3489 154.312 15.2437 153.967 15.2437C153.697 15.2437 153.453 15.3026 153.234 15.4205C153.015 15.5384 152.83 15.7194 152.679 15.9636L151.214 15.4584C151.331 15.189 151.504 14.9279 151.731 14.6753C151.959 14.4143 152.253 14.2038 152.615 14.0438C152.986 13.8754 153.436 13.7912 153.967 13.7912C154.607 13.7912 155.137 13.9133 155.558 14.1575C155.988 14.4017 156.303 14.7469 156.506 15.1932C156.716 15.631 156.817 16.153 156.809 16.7593L156.771 20.2578H155.217L155.192 19.5253C155.032 19.8115 154.805 20.0305 154.51 20.182C154.224 20.3336 153.87 20.4094 153.449 20.4094ZM153.727 19.0201C153.996 19.0201 154.241 18.9569 154.459 18.8306C154.678 18.7043 154.851 18.5401 154.977 18.338C155.104 18.1359 155.167 17.9254 155.167 17.7065V17.6813H154.219C153.672 17.6813 153.293 17.7486 153.083 17.8834C152.872 18.0097 152.767 18.1907 152.767 18.4264C152.767 18.6117 152.851 18.759 153.02 18.8685C153.188 18.9695 153.424 19.0201 153.727 19.0201Z" fill="#D4D4D4"/>
    <path d="M160.739 20.4094C160.04 20.4094 159.51 20.2367 159.148 19.8915C158.794 19.5463 158.617 19.0537 158.617 18.4138V15.3574H157.594V13.9428H158.617V11.9725H160.284V13.9428H161.863V15.3574H160.284V18.0475C160.284 18.317 160.343 18.5233 160.461 18.6664C160.579 18.8011 160.752 18.8685 160.979 18.8685C161.063 18.8685 161.156 18.8517 161.257 18.818C161.358 18.7759 161.463 18.7169 161.573 18.6412L162.154 19.8915C161.952 20.0431 161.724 20.1652 161.472 20.2578C161.227 20.3588 160.983 20.4094 160.739 20.4094Z" fill="#D4D4D4"/>
    <path d="M163.32 20.2578V13.9428H164.987V20.2578H163.32ZM164.154 12.9198C163.901 12.9198 163.678 12.8271 163.484 12.6419C163.291 12.4482 163.194 12.2209 163.194 11.9599C163.194 11.6989 163.291 11.4757 163.484 11.2905C163.678 11.0968 163.901 11 164.154 11C164.415 11 164.638 11.0968 164.823 11.2905C165.017 11.4757 165.113 11.6989 165.113 11.9599C165.113 12.2209 165.017 12.4482 164.823 12.6419C164.638 12.8271 164.415 12.9198 164.154 12.9198Z" fill="#D4D4D4"/>
    <path d="M168.482 20.2578L165.893 13.9428H167.611L169.316 18.3507L171.021 13.9428H172.738L170.149 20.2578H168.482Z" fill="#D4D4D4"/>
    <path d="M176.2 20.4094C175.576 20.4094 175.025 20.2704 174.545 19.9926C174.065 19.7063 173.686 19.3148 173.408 18.818C173.139 18.3212 173.004 17.7486 173.004 17.1003C173.004 16.452 173.143 15.8794 173.421 15.3826C173.707 14.8858 174.095 14.4985 174.583 14.2207C175.08 13.9344 175.648 13.7912 176.288 13.7912C176.844 13.7912 177.353 13.9386 177.816 14.2333C178.288 14.5196 178.662 14.9448 178.94 15.5089C179.227 16.0646 179.37 16.7424 179.37 17.5423H174.747C174.789 17.9633 174.97 18.3001 175.29 18.5527C175.61 18.7969 175.972 18.919 176.376 18.919C176.722 18.919 177.004 18.8474 177.223 18.7043C177.441 18.5527 177.61 18.3591 177.728 18.1233L179.218 18.7043C179.041 19.0579 178.81 19.3653 178.523 19.6263C178.246 19.8789 177.913 20.0725 177.526 20.2073C177.138 20.342 176.696 20.4094 176.2 20.4094ZM174.835 16.3046H177.564C177.538 16.0436 177.454 15.8331 177.311 15.6731C177.168 15.5131 176.999 15.3952 176.806 15.3195C176.612 15.2437 176.423 15.2058 176.237 15.2058C176.061 15.2058 175.867 15.2437 175.656 15.3195C175.454 15.3868 175.273 15.5005 175.113 15.6605C174.962 15.8204 174.869 16.0352 174.835 16.3046Z" fill="#D4D4D4"/>
    <path d="M185.394 20.4094C184.636 20.4094 184.047 20.241 183.626 19.9042C183.213 19.5673 183.007 19.0916 183.007 18.477C183.007 17.8034 183.23 17.2982 183.676 16.9614C184.131 16.6161 184.767 16.4435 185.584 16.4435H187.074C187.015 16.0562 186.893 15.7615 186.708 15.5594C186.522 15.3489 186.257 15.2437 185.912 15.2437C185.642 15.2437 185.398 15.3026 185.179 15.4205C184.96 15.5384 184.775 15.7194 184.624 15.9636L183.159 15.4584C183.276 15.189 183.449 14.9279 183.676 14.6753C183.904 14.4143 184.198 14.2038 184.56 14.0438C184.931 13.8754 185.381 13.7912 185.912 13.7912C186.552 13.7912 187.082 13.9133 187.503 14.1575C187.933 14.4017 188.248 14.7469 188.451 15.1932C188.661 15.631 188.762 16.153 188.754 16.7593L188.716 20.2578H187.162L187.137 19.5253C186.977 19.8115 186.75 20.0305 186.455 20.182C186.169 20.3336 185.815 20.4094 185.394 20.4094ZM185.672 19.0201C185.941 19.0201 186.186 18.9569 186.404 18.8306C186.623 18.7043 186.796 18.5401 186.922 18.338C187.049 18.1359 187.112 17.9254 187.112 17.7065V17.6813H186.164C185.617 17.6813 185.238 17.7486 185.028 17.8834C184.817 18.0097 184.712 18.1907 184.712 18.4264C184.712 18.6117 184.796 18.759 184.965 18.8685C185.133 18.9695 185.369 19.0201 185.672 19.0201ZM185.508 13.1597L183.853 11.4042H185.722L187.188 13.1597H185.508Z" fill="#D4D4D4"/>
    <path d="M193.662 20.2578V15.2816H192.613V13.9428H193.662V13.3113C193.662 12.6377 193.834 12.1157 194.18 11.7452C194.525 11.3663 195.051 11.1768 195.758 11.1768C196.002 11.1768 196.259 11.2189 196.529 11.3031C196.807 11.3873 197.059 11.4884 197.286 11.6062L196.668 12.8061C196.533 12.7387 196.411 12.6882 196.301 12.6545C196.192 12.6209 196.091 12.604 195.998 12.604C195.771 12.604 195.603 12.684 195.493 12.844C195.384 12.9955 195.329 13.2439 195.329 13.5892V13.9428H196.882V15.2816H195.329V20.2578H193.662Z" fill="#D4D4D4"/>
    <path d="M199.887 20.4094C199.129 20.4094 198.539 20.241 198.118 19.9042C197.706 19.5673 197.499 19.0916 197.499 18.477C197.499 17.8034 197.723 17.2982 198.169 16.9614C198.624 16.6161 199.259 16.4435 200.076 16.4435H201.566C201.507 16.0562 201.385 15.7615 201.2 15.5594C201.015 15.3489 200.75 15.2437 200.404 15.2437C200.135 15.2437 199.891 15.3026 199.672 15.4205C199.453 15.5384 199.268 15.7194 199.116 15.9636L197.651 15.4584C197.769 15.189 197.941 14.9279 198.169 14.6753C198.396 14.4143 198.691 14.2038 199.053 14.0438C199.423 13.8754 199.874 13.7912 200.404 13.7912C201.044 13.7912 201.575 13.9133 201.996 14.1575C202.425 14.4017 202.741 14.7469 202.943 15.1932C203.153 15.631 203.255 16.153 203.246 16.7593L203.208 20.2578H201.655L201.629 19.5253C201.469 19.8115 201.242 20.0305 200.947 20.182C200.661 20.3336 200.308 20.4094 199.887 20.4094ZM200.164 19.0201C200.434 19.0201 200.678 18.9569 200.897 18.8306C201.116 18.7043 201.288 18.5401 201.415 18.338C201.541 18.1359 201.604 17.9254 201.604 17.7065V17.6813H200.657C200.11 17.6813 199.731 17.7486 199.52 17.8834C199.31 18.0097 199.204 18.1907 199.204 18.4264C199.204 18.6117 199.289 18.759 199.457 18.8685C199.625 18.9695 199.861 19.0201 200.164 19.0201Z" fill="#D4D4D4"/>
    <path d="M204.676 20.2578V13.9428H206.343V20.2578H204.676ZM205.509 12.9198C205.257 12.9198 205.034 12.8271 204.84 12.6419C204.646 12.4482 204.55 12.2209 204.55 11.9599C204.55 11.6989 204.646 11.4757 204.84 11.2905C205.034 11.0968 205.257 11 205.509 11C205.77 11 205.994 11.0968 206.179 11.2905C206.372 11.4757 206.469 11.6989 206.469 11.9599C206.469 12.2209 206.372 12.4482 206.179 12.6419C205.994 12.8271 205.77 12.9198 205.509 12.9198Z" fill="#D4D4D4"/>
    <path d="M211.455 20.4094C211.025 20.4094 210.65 20.3209 210.331 20.1441C210.011 19.9589 209.741 19.6979 209.522 19.3611L209.459 20.2578H207.88V11.4168H209.547V14.8016C209.758 14.4732 210.023 14.2249 210.343 14.0565C210.663 13.8796 211.034 13.7912 211.455 13.7912C212.036 13.7912 212.537 13.926 212.958 14.1954C213.387 14.4648 213.72 14.8479 213.955 15.3447C214.191 15.8331 214.309 16.4183 214.309 17.1003C214.309 17.7739 214.191 18.3591 213.955 18.8559C213.72 19.3526 213.387 19.7357 212.958 20.0052C212.537 20.2746 212.036 20.4094 211.455 20.4094ZM211.025 18.8811C211.328 18.8811 211.594 18.8053 211.821 18.6538C212.057 18.5022 212.242 18.2917 212.377 18.0223C212.511 17.7528 212.579 17.4455 212.579 17.1003C212.579 16.7551 212.511 16.4477 212.377 16.1783C212.25 15.9089 212.069 15.7026 211.833 15.5594C211.606 15.4079 211.341 15.3321 211.038 15.3321C210.752 15.3321 210.495 15.4079 210.267 15.5594C210.04 15.711 209.863 15.9215 209.737 16.1909C209.611 16.4519 209.547 16.7551 209.547 17.1003C209.547 17.4455 209.611 17.7528 209.737 18.0223C209.863 18.2917 210.036 18.5022 210.255 18.6538C210.482 18.8053 210.739 18.8811 211.025 18.8811Z" fill="#D4D4D4"/>
    <path d="M215.404 20.2578V11.4168H217.071V20.2578H215.404Z" fill="#D4D4D4"/>
    <path d="M221.367 20.4094C220.743 20.4094 220.192 20.2704 219.712 19.9926C219.232 19.7063 218.853 19.3148 218.575 18.818C218.306 18.3212 218.171 17.7486 218.171 17.1003C218.171 16.452 218.31 15.8794 218.588 15.3826C218.874 14.8858 219.262 14.4985 219.75 14.2207C220.247 13.9344 220.815 13.7912 221.455 13.7912C222.011 13.7912 222.52 13.9386 222.983 14.2333C223.455 14.5196 223.829 14.9448 224.107 15.5089C224.394 16.0646 224.537 16.7424 224.537 17.5423H219.914C219.956 17.9633 220.137 18.3001 220.457 18.5527C220.777 18.7969 221.139 18.919 221.543 18.919C221.889 18.919 222.171 18.8474 222.39 18.7043C222.609 18.5527 222.777 18.3591 222.895 18.1233L224.385 18.7043C224.208 19.0579 223.977 19.3653 223.69 19.6263C223.413 19.8789 223.08 20.0725 222.693 20.2073C222.305 20.342 221.863 20.4094 221.367 20.4094ZM220.003 16.3046H222.731C222.705 16.0436 222.621 15.8331 222.478 15.6731C222.335 15.5131 222.166 15.3952 221.973 15.3195C221.779 15.2437 221.59 15.2058 221.404 15.2058C221.228 15.2058 221.034 15.2437 220.823 15.3195C220.621 15.3868 220.44 15.5005 220.28 15.6605C220.129 15.8204 220.036 16.0352 220.003 16.3046Z" fill="#D4D4D4"/>
    <path d="M104.971 31.4094C104.348 31.4094 103.796 31.2704 103.316 30.9926C102.836 30.7063 102.457 30.3148 102.18 29.818C101.91 29.3212 101.775 28.7486 101.775 28.1003C101.775 27.452 101.914 26.8794 102.192 26.3826C102.478 25.8858 102.866 25.4985 103.354 25.2206C103.851 24.9344 104.419 24.7912 105.059 24.7912C105.615 24.7912 106.124 24.9386 106.587 25.2333C107.059 25.5196 107.434 25.9448 107.711 26.5089C107.998 27.0646 108.141 27.7424 108.141 28.5423H103.518C103.56 28.9633 103.741 29.3001 104.061 29.5527C104.381 29.7969 104.743 29.919 105.148 29.919C105.493 29.919 105.775 29.8474 105.994 29.7043C106.213 29.5527 106.381 29.3591 106.499 29.1233L107.989 29.7043C107.813 30.0579 107.581 30.3653 107.295 30.6263C107.017 30.8789 106.684 31.0725 106.297 31.2073C105.91 31.342 105.468 31.4094 104.971 31.4094ZM103.607 27.3046H106.335C106.31 27.0436 106.225 26.8331 106.082 26.6731C105.939 26.5131 105.771 26.3952 105.577 26.3195C105.383 26.2437 105.194 26.2058 105.009 26.2058C104.832 26.2058 104.638 26.2437 104.428 26.3195C104.226 26.3868 104.045 26.5005 103.885 26.6605C103.733 26.8205 103.64 27.0352 103.607 27.3046Z" fill="#D4D4D4"/>
    <path d="M109.11 31.2578V24.9428H110.676L110.752 25.7637C110.945 25.4438 111.194 25.2038 111.497 25.0438C111.8 24.8754 112.137 24.7912 112.507 24.7912C113.021 24.7912 113.45 24.9007 113.795 25.1196C114.149 25.3385 114.406 25.6753 114.566 26.13C114.751 25.7006 115.012 25.3722 115.349 25.1449C115.686 24.9091 116.077 24.7912 116.524 24.7912C117.265 24.7912 117.829 25.027 118.216 25.4985C118.603 25.9616 118.797 26.6773 118.797 27.6456V31.2578H117.13V28.0245C117.13 27.5951 117.083 27.2625 116.991 27.0267C116.898 26.791 116.772 26.6226 116.612 26.5215C116.452 26.4121 116.263 26.3574 116.044 26.3574C115.639 26.3489 115.328 26.4794 115.109 26.7489C114.89 27.0183 114.781 27.4183 114.781 27.9487V31.2578H113.113V28.0245C113.113 27.5951 113.067 27.2625 112.975 27.0267C112.89 26.791 112.764 26.6226 112.596 26.5215C112.436 26.4121 112.246 26.3574 112.027 26.3574C111.623 26.3489 111.312 26.4794 111.093 26.7489C110.882 27.0183 110.777 27.4183 110.777 27.9487V31.2578H109.11Z" fill="#D4D4D4"/>
    <path d="M120.187 33.7838V24.9428H121.753L121.829 25.8395C122.04 25.5027 122.305 25.2459 122.625 25.0691C122.953 24.8838 123.332 24.7912 123.761 24.7912C124.342 24.7912 124.843 24.926 125.264 25.1954C125.694 25.4648 126.026 25.8479 126.262 26.3447C126.498 26.8331 126.616 27.4183 126.616 28.1003C126.616 28.7739 126.498 29.3591 126.262 29.8559C126.026 30.3526 125.694 30.7357 125.264 31.0052C124.843 31.2746 124.342 31.4094 123.761 31.4094C123.34 31.4094 122.97 31.3209 122.65 31.1441C122.33 30.9673 122.065 30.7189 121.854 30.399V33.7838H120.187ZM123.332 29.8811C123.635 29.8811 123.9 29.8053 124.128 29.6538C124.363 29.5022 124.549 29.2917 124.683 29.0223C124.818 28.7528 124.886 28.4455 124.886 28.1003C124.886 27.7551 124.818 27.4477 124.683 27.1783C124.557 26.9089 124.376 26.7026 124.14 26.5594C123.913 26.4079 123.648 26.3321 123.345 26.3321C123.058 26.3321 122.802 26.4079 122.574 26.5594C122.347 26.711 122.17 26.9215 122.044 27.1909C121.917 27.4519 121.854 27.7551 121.854 28.1003C121.854 28.4455 121.917 28.7528 122.044 29.0223C122.17 29.2917 122.343 29.5022 122.562 29.6538C122.789 29.8053 123.046 29.8811 123.332 29.8811Z" fill="#D4D4D4"/>
    <path d="M127.709 31.2578V24.9428H129.377V26.1047C129.638 25.709 129.966 25.4143 130.362 25.2206C130.766 25.0186 131.183 24.9175 131.612 24.9175V26.5342C131.225 26.5342 130.858 26.5805 130.513 26.6731C130.176 26.7657 129.903 26.9173 129.692 27.1278C129.482 27.3383 129.377 27.6077 129.377 27.9361V31.2578H127.709Z" fill="#D4D4D4"/>
    <path d="M135.349 31.4094C134.726 31.4094 134.175 31.2704 133.695 30.9926C133.215 30.7063 132.836 30.3148 132.558 29.818C132.289 29.3212 132.154 28.7486 132.154 28.1003C132.154 27.452 132.293 26.8794 132.571 26.3826C132.857 25.8858 133.244 25.4985 133.733 25.2206C134.23 24.9344 134.798 24.7912 135.438 24.7912C135.993 24.7912 136.503 24.9386 136.966 25.2333C137.438 25.5196 137.812 25.9448 138.09 26.5089C138.376 27.0646 138.52 27.7424 138.52 28.5423H133.897C133.939 28.9633 134.12 29.3001 134.44 29.5527C134.76 29.7969 135.122 29.919 135.526 29.919C135.871 29.919 136.153 29.8474 136.372 29.7043C136.591 29.5527 136.76 29.3591 136.878 29.1233L138.368 29.7043C138.191 30.0579 137.96 30.3653 137.673 30.6263C137.395 30.8789 137.063 31.0725 136.676 31.2073C136.288 31.342 135.846 31.4094 135.349 31.4094ZM133.985 27.3046H136.713C136.688 27.0436 136.604 26.8331 136.461 26.6731C136.318 26.5131 136.149 26.3952 135.956 26.3195C135.762 26.2437 135.573 26.2058 135.387 26.2058C135.21 26.2058 135.017 26.2437 134.806 26.3195C134.604 26.3868 134.423 26.5005 134.263 26.6605C134.112 26.8205 134.019 27.0352 133.985 27.3046Z" fill="#D4D4D4"/>
    <path d="M139.589 31.2578V24.9428H141.257V31.2578H139.589ZM140.423 23.9198C140.17 23.9198 139.947 23.8271 139.754 23.6419C139.56 23.4482 139.463 23.2209 139.463 22.9599C139.463 22.6989 139.56 22.4757 139.754 22.2905C139.947 22.0968 140.17 22 140.423 22C140.684 22 140.907 22.0968 141.092 22.2905C141.286 22.4757 141.383 22.6989 141.383 22.9599C141.383 23.2209 141.286 23.4482 141.092 23.6419C140.907 23.8271 140.684 23.9198 140.423 23.9198Z" fill="#D4D4D4"/>
    <path d="M142.794 31.2578V24.9428H144.36L144.436 25.8016C144.638 25.4732 144.895 25.2249 145.206 25.0565C145.526 24.8796 145.888 24.7912 146.292 24.7912C146.789 24.7912 147.214 24.8923 147.568 25.0944C147.922 25.2964 148.191 25.6122 148.376 26.0416C148.562 26.4626 148.65 27.0099 148.642 27.6835V31.2578H146.974V28.0245C146.974 27.5951 146.924 27.2625 146.823 27.0267C146.73 26.791 146.595 26.6226 146.419 26.5215C146.242 26.4121 146.036 26.3574 145.8 26.3574C145.37 26.3489 145.038 26.4794 144.802 26.7489C144.575 27.0183 144.461 27.4183 144.461 27.9487V31.2578H142.794Z" fill="#D4D4D4"/>
    <path d="M152.574 31.4094C151.875 31.4094 151.345 31.2367 150.983 30.8915C150.629 30.5463 150.452 30.0537 150.452 29.4138V26.3574H149.429V24.9428H150.452V22.9725H152.119V24.9428H153.698V26.3574H152.119V29.0475C152.119 29.317 152.178 29.5233 152.296 29.6664C152.414 29.8011 152.587 29.8685 152.814 29.8685C152.898 29.8685 152.991 29.8517 153.092 29.818C153.193 29.7759 153.298 29.7169 153.408 29.6412L153.989 30.8915C153.787 31.0431 153.559 31.1652 153.307 31.2578C153.062 31.3588 152.818 31.4094 152.574 31.4094Z" fill="#D4D4D4"/>
    <path d="M157.797 31.4094C157.174 31.4094 156.623 31.2704 156.143 30.9926C155.663 30.7063 155.284 30.3148 155.006 29.818C154.737 29.3212 154.602 28.7486 154.602 28.1003C154.602 27.452 154.741 26.8794 155.019 26.3826C155.305 25.8858 155.692 25.4985 156.181 25.2206C156.677 24.9344 157.246 24.7912 157.886 24.7912C158.441 24.7912 158.951 24.9386 159.414 25.2333C159.885 25.5196 160.26 25.9448 160.538 26.5089C160.824 27.0646 160.967 27.7424 160.967 28.5423H156.345C156.387 28.9633 156.568 29.3001 156.888 29.5527C157.208 29.7969 157.57 29.919 157.974 29.919C158.319 29.919 158.601 29.8474 158.82 29.7043C159.039 29.5527 159.208 29.3591 159.325 29.1233L160.816 29.7043C160.639 30.0579 160.407 30.3653 160.121 30.6263C159.843 30.8789 159.511 31.0725 159.123 31.2073C158.736 31.342 158.294 31.4094 157.797 31.4094ZM156.433 27.3046H159.161C159.136 27.0436 159.052 26.8331 158.909 26.6731C158.766 26.5131 158.597 26.3952 158.403 26.3195C158.21 26.2437 158.02 26.2058 157.835 26.2058C157.658 26.2058 157.465 26.2437 157.254 26.3195C157.052 26.3868 156.871 26.5005 156.711 26.6605C156.559 26.8205 156.467 27.0352 156.433 27.3046Z" fill="#D4D4D4"/>
    <path d="M167.99 31.4094C167.333 31.4094 166.748 31.2704 166.234 30.9926C165.72 30.7063 165.32 30.3148 165.034 29.818C164.748 29.3128 164.605 28.7402 164.605 28.1003C164.605 27.452 164.748 26.8794 165.034 26.3826C165.32 25.8858 165.716 25.4985 166.221 25.2206C166.727 24.9344 167.308 24.7912 167.964 24.7912C168.596 24.7912 169.173 24.947 169.695 25.2585C170.217 25.5701 170.596 26.0206 170.831 26.61L169.265 27.1657C169.147 26.9215 168.962 26.7278 168.709 26.5847C168.465 26.4331 168.192 26.3574 167.888 26.3574C167.577 26.3574 167.303 26.4331 167.068 26.5847C166.832 26.7278 166.647 26.9299 166.512 27.1909C166.377 27.4519 166.31 27.7551 166.31 28.1003C166.31 28.4455 166.377 28.7486 166.512 29.0097C166.647 29.2623 166.836 29.4643 167.08 29.6159C167.324 29.7675 167.602 29.8432 167.914 29.8432C168.217 29.8432 168.491 29.7632 168.735 29.6033C168.987 29.4433 169.173 29.2328 169.29 28.9718L170.869 29.5275C170.625 30.1253 170.242 30.5884 169.72 30.9168C169.206 31.2452 168.629 31.4094 167.99 31.4094Z" fill="#D4D4D4"/>
    <path d="M173.886 31.4094C173.129 31.4094 172.539 31.241 172.118 30.9042C171.706 30.5673 171.499 30.0916 171.499 29.477C171.499 28.8034 171.723 28.2982 172.169 27.9614C172.623 27.6161 173.259 27.4435 174.076 27.4435H175.566C175.507 27.0562 175.385 26.7615 175.2 26.5594C175.015 26.3489 174.75 26.2437 174.404 26.2437C174.135 26.2437 173.891 26.3026 173.672 26.4205C173.453 26.5384 173.268 26.7194 173.116 26.9636L171.651 26.4584C171.769 26.1889 171.941 25.9279 172.169 25.6753C172.396 25.4143 172.691 25.2038 173.053 25.0438C173.423 24.8754 173.874 24.7912 174.404 24.7912C175.044 24.7912 175.575 24.9133 175.996 25.1575C176.425 25.4017 176.741 25.7469 176.943 26.1932C177.153 26.631 177.254 27.153 177.246 27.7593L177.208 31.2578H175.655L175.629 30.5253C175.469 30.8115 175.242 31.0305 174.947 31.182C174.661 31.3336 174.307 31.4094 173.886 31.4094ZM174.164 30.0201C174.434 30.0201 174.678 29.9569 174.897 29.8306C175.116 29.7043 175.288 29.5401 175.415 29.338C175.541 29.1359 175.604 28.9254 175.604 28.7065V28.6813H174.657C174.11 28.6813 173.731 28.7486 173.52 28.8834C173.31 29.0097 173.204 29.1907 173.204 29.4264C173.204 29.6117 173.289 29.759 173.457 29.8685C173.625 29.9695 173.861 30.0201 174.164 30.0201Z" fill="#D4D4D4"/>
    <path d="M178.575 31.2578V24.9428H180.242V26.1047C180.503 25.709 180.831 25.4143 181.227 25.2206C181.631 25.0186 182.048 24.9175 182.477 24.9175V26.5342C182.09 26.5342 181.724 26.5805 181.379 26.6731C181.042 26.7657 180.768 26.9173 180.558 27.1278C180.347 27.3383 180.242 27.6077 180.242 27.9361V31.2578H178.575Z" fill="#D4D4D4"/>
    <path d="M186.935 31.4094C186.505 31.4094 186.131 31.3209 185.811 31.1441C185.491 30.9589 185.221 30.6979 185.002 30.3611L184.939 31.2578H183.36V22.4168H185.027V25.8016C185.238 25.4732 185.503 25.2249 185.823 25.0565C186.143 24.8796 186.514 24.7912 186.935 24.7912C187.516 24.7912 188.017 24.926 188.438 25.1954C188.867 25.4648 189.2 25.8479 189.435 26.3447C189.671 26.8331 189.789 27.4183 189.789 28.1003C189.789 28.7739 189.671 29.3591 189.435 29.8559C189.2 30.3526 188.867 30.7357 188.438 31.0052C188.017 31.2746 187.516 31.4094 186.935 31.4094ZM186.505 29.8811C186.808 29.8811 187.074 29.8053 187.301 29.6538C187.537 29.5022 187.722 29.2917 187.857 29.0223C187.991 28.7528 188.059 28.4455 188.059 28.1003C188.059 27.7551 187.991 27.4477 187.857 27.1783C187.73 26.9089 187.549 26.7026 187.314 26.5594C187.086 26.4079 186.821 26.3321 186.518 26.3321C186.232 26.3321 185.975 26.4079 185.747 26.5594C185.52 26.711 185.343 26.9215 185.217 27.1909C185.091 27.4519 185.027 27.7551 185.027 28.1003C185.027 28.4455 185.091 28.7528 185.217 29.0223C185.343 29.2917 185.516 29.5022 185.735 29.6538C185.962 29.8053 186.219 29.8811 186.505 29.8811Z" fill="#D4D4D4"/>
    <path d="M193.852 31.4094C193.212 31.4094 192.64 31.2704 192.134 30.9926C191.638 30.7063 191.246 30.3148 190.96 29.818C190.682 29.3212 190.543 28.7486 190.543 28.1003C190.543 27.452 190.682 26.8794 190.96 26.3826C191.238 25.8858 191.625 25.4985 192.122 25.2206C192.619 24.9344 193.187 24.7912 193.827 24.7912C194.475 24.7912 195.048 24.9344 195.545 25.2206C196.041 25.4985 196.429 25.8858 196.707 26.3826C196.984 26.8794 197.123 27.452 197.123 28.1003C197.123 28.7486 196.984 29.3212 196.707 29.818C196.429 30.3148 196.041 30.7063 195.545 30.9926C195.056 31.2704 194.492 31.4094 193.852 31.4094ZM193.852 29.8685C194.164 29.8685 194.437 29.7927 194.673 29.6412C194.909 29.4896 195.09 29.2833 195.216 29.0223C195.351 28.7528 195.418 28.4455 195.418 28.1003C195.418 27.7551 195.351 27.4519 195.216 27.1909C195.081 26.9215 194.892 26.711 194.648 26.5594C194.412 26.4079 194.138 26.3321 193.827 26.3321C193.524 26.3321 193.25 26.4079 193.006 26.5594C192.77 26.711 192.585 26.9215 192.45 27.1909C192.315 27.4519 192.248 27.7551 192.248 28.1003C192.248 28.4455 192.315 28.7528 192.45 29.0223C192.585 29.2833 192.774 29.4896 193.019 29.6412C193.263 29.7927 193.541 29.8685 193.852 29.8685Z" fill="#D4D4D4"/>
    <path d="M198.223 31.2578V24.9428H199.789L199.865 25.8016C200.067 25.4732 200.324 25.2249 200.635 25.0565C200.955 24.8796 201.317 24.7912 201.721 24.7912C202.218 24.7912 202.643 24.8923 202.997 25.0944C203.351 25.2964 203.62 25.6122 203.805 26.0416C203.991 26.4626 204.079 27.0099 204.07 27.6835V31.2578H202.403V28.0245C202.403 27.5951 202.353 27.2625 202.252 27.0267C202.159 26.791 202.024 26.6226 201.848 26.5215C201.671 26.4121 201.464 26.3574 201.229 26.3574C200.799 26.3489 200.467 26.4794 200.231 26.7489C200.004 27.0183 199.89 27.4183 199.89 27.9487V31.2578H198.223Z" fill="#D4D4D4"/>
    <path d="M208.256 31.4094C207.632 31.4094 207.081 31.2704 206.601 30.9926C206.121 30.7063 205.742 30.3148 205.464 29.818C205.195 29.3212 205.06 28.7486 205.06 28.1003C205.06 27.452 205.199 26.8794 205.477 26.3826C205.763 25.8858 206.151 25.4985 206.639 25.2206C207.136 24.9344 207.704 24.7912 208.344 24.7912C208.9 24.7912 209.409 24.9386 209.872 25.2333C210.344 25.5196 210.718 25.9448 210.996 26.5089C211.283 27.0646 211.426 27.7424 211.426 28.5423H206.803C206.845 28.9633 207.026 29.3001 207.346 29.5527C207.666 29.7969 208.028 29.919 208.432 29.919C208.778 29.919 209.06 29.8474 209.279 29.7043C209.497 29.5527 209.666 29.3591 209.784 29.1233L211.274 29.7043C211.097 30.0579 210.866 30.3653 210.579 30.6263C210.302 30.8789 209.969 31.0725 209.582 31.2073C209.194 31.342 208.752 31.4094 208.256 31.4094ZM206.892 27.3046H209.62C209.594 27.0436 209.51 26.8331 209.367 26.6731C209.224 26.5131 209.055 26.3952 208.862 26.3195C208.668 26.2437 208.479 26.2058 208.293 26.2058C208.117 26.2058 207.923 26.2437 207.712 26.3195C207.51 26.3868 207.329 26.5005 207.169 26.6605C207.018 26.8205 206.925 27.0352 206.892 27.3046Z" fill="#D4D4D4"/>
    <path fill-rule="evenodd" clip-rule="evenodd" d="M54.8472 14.387L54.8957 14.394L54.9338 14.4078L54.9754 14.4286L54.9927 14.4494L55.0066 14.4632L55.0169 14.4909L55.0343 14.5117L55.0481 14.581L55.055 14.671L55.0412 14.865L54.9996 15.2044L54.9477 15.6407L54.823 16.6485L54.7745 17.1195L54.733 17.5074L54.7191 17.7741V17.8503L54.7053 17.9195L54.6775 17.9888L54.6429 18.0442L54.6014 18.0927L54.5459 18.1342L54.4767 18.1689L54.3936 18.2035L54.1581 18.2728L53.9087 18.349L53.6386 18.4252L53.3477 18.5013L53.0325 18.5775L52.7 18.6468L52.3399 18.723L51.9589 18.7853L51.5572 18.8546L51.1173 18.91L50.6602 18.9654L50.1753 19.007L49.6559 19.0416L49.1087 19.0693L48.5303 19.0901H47.9208L47.339 19.0762L46.7744 19.0347L46.2411 18.9654L45.7286 18.8685L45.2333 18.7507L44.7623 18.6122L44.3121 18.4459L43.8896 18.2589L43.4775 18.0511L43.0896 17.8295L42.7225 17.5905L42.3831 17.3342L42.0506 17.0641L41.7424 16.7801L41.4584 16.4892L41.1883 16.1844L40.9389 15.8624L40.7034 15.5438L40.4887 15.2113L40.2947 14.8788L40.1112 14.5394L39.9519 14.2L39.8064 13.8572L39.6748 13.5108L39.564 13.1714L39.467 12.8251L39.3839 12.4926L39.3216 12.1567L39.2731 11.8312L39.2315 11.5125L39.2108 11.2009L39.2038 10.903L39.2177 10.3766L39.2523 9.86059L39.3147 9.36188L39.3978 8.87703L39.5017 8.40603L39.6263 7.95235L39.7718 7.50905L39.9346 7.07961L40.1216 6.66056L40.3225 6.26575L40.5441 5.8848L40.7796 5.51769L41.0289 5.16444L41.2991 4.82851L41.5761 4.50297L41.874 4.20513L42.1891 3.91422L42.5078 3.64408L42.8402 3.39473L43.1865 3.15577L43.5433 2.94105L43.9 2.74018L44.2775 2.55317L44.6584 2.39386L45.0463 2.2484L45.4411 2.12373L45.8463 2.0129L46.255 1.92286L46.6636 1.85359L47.0792 1.80511L47.4948 1.7774L47.9208 1.76355H48.281L48.6273 1.7774L48.9597 1.78433L49.2714 1.80511L49.5658 1.82589L49.8429 1.84667L50.1061 1.87437L50.3485 1.90208L50.5771 1.93671L50.7987 1.97134L50.9996 2.00598L51.1935 2.04753L51.5433 2.13065L51.8412 2.21377L52.1044 2.29689L52.3329 2.37308L52.5269 2.44927L52.7 2.51853L52.8559 2.57395L52.991 2.62243L53.0533 2.63628L53.1191 2.65014L53.178 2.65706H53.2438L53.32 2.65014L53.3892 2.64321L53.4516 2.62243L53.5139 2.59473L53.6317 2.53239L53.7355 2.4562L53.8325 2.38693L53.9364 2.31767L53.9849 2.29689L54.0403 2.27611L54.0957 2.26226L54.1581 2.25533L54.1788 2.26226L54.2066 2.26918L54.2273 2.28303L54.255 2.31074L54.2827 2.34537L54.3035 2.39386L54.3174 2.46312L54.3243 2.53931V2.81637L54.3382 3.10728L54.3659 3.40859L54.3936 3.70642L54.4628 4.31595L54.5079 4.60686L54.5459 4.89085L54.6291 5.4138L54.6983 5.84324L54.7468 6.148L54.7711 6.30731V6.34887L54.7399 6.41121L54.7191 6.44584L54.6983 6.47355L54.6706 6.49432L54.6429 6.52203L54.6083 6.54281L54.539 6.57052L54.4628 6.59822L54.3866 6.60515L54.3243 6.61207H54.262L54.2273 6.60515L54.1927 6.5913L54.1581 6.57052L54.1234 6.53588L54.0888 6.4874L54.0611 6.42506L53.9641 6.18263L53.8671 5.95406L53.7633 5.72549L53.6594 5.51077L53.5485 5.29605L53.4377 5.09172L53.32 4.89085L53.2022 4.69691L53.0775 4.51682L52.9425 4.33673L52.6654 4.00426L52.52 3.85188L52.3745 3.70642L52.2152 3.56097L52.0559 3.42936L51.8896 3.30469L51.7165 3.18348L51.5364 3.07265L51.3494 2.97568L51.152 2.87871L50.958 2.79559L50.7502 2.71248L50.5355 2.64321L50.3139 2.58087L50.0853 2.52546L49.6004 2.44234L49.3407 2.41464L49.0844 2.39386L48.8074 2.38001L48.5303 2.37308L48.2533 2.38693L47.9762 2.40771L47.6957 2.44927L47.4151 2.50468L47.1277 2.58087L46.8437 2.67092L46.5597 2.77481L46.2827 2.89949L45.9987 3.04148L45.7286 3.19387L45.448 3.36703L45.1848 3.55404L44.9216 3.75491L44.6653 3.97655L44.416 4.21898L44.1736 4.46833L43.9415 4.73847L43.7233 5.03284L43.5052 5.3376L43.3043 5.65622L43.1104 5.98869L42.9303 6.34887L42.771 6.71944L42.6186 7.10732L42.48 7.50905L42.3623 7.93157L42.2584 8.36793L42.1684 8.82162L42.0991 9.29262L42.0506 9.77747L42.0229 10.2831L42.009 10.8061L42.0229 11.284L42.0506 11.748L42.106 12.1983L42.1753 12.6312L42.2653 13.0468L42.3761 13.4485L42.5008 13.8294L42.6393 14.2L42.7987 14.5533L42.9718 14.8927L43.1588 15.2113L43.3528 15.523L43.5675 15.8139L43.7891 16.0875L44.0281 16.3507L44.2705 16.5931L44.5268 16.8286L44.79 17.0433L45.0602 17.2373L45.3372 17.4243L45.6212 17.5974L45.9156 17.7533L46.2134 17.8918L46.5112 18.0165L46.8091 18.1273L47.1138 18.2174L47.4186 18.3005L47.7338 18.3697L48.0385 18.4182L48.3433 18.4529L48.6481 18.4736L48.9528 18.4806H49.1191L49.2957 18.4736L49.4654 18.4529L49.6489 18.4321L49.829 18.4044L50.0091 18.3697L50.1892 18.3282L50.3762 18.2797L50.5563 18.2243L50.7433 18.162L50.9303 18.0927L51.1104 18.0165L51.3009 17.9334L51.4879 17.8364L51.668 17.7325L51.855 17.6217L52.0351 17.5005L52.2152 17.3758L52.3953 17.2373L52.5684 17.0918L52.7416 16.9394L52.9148 16.7732L53.0845 16.6L53.2472 16.4199L53.41 16.226L53.5693 16.0147L53.7217 15.8L53.8671 15.5784L54.0126 15.3429L54.1511 15.1005L54.2897 14.8442L54.4143 14.574L54.4351 14.5325L54.4905 14.4632L54.5321 14.4355L54.584 14.4147L54.6429 14.4009L54.7122 14.387H54.8472Z" fill="white"/>
    <path fill-rule="evenodd" clip-rule="evenodd" d="M4.76487 4.44756V3.9073L4.77872 3.68565L4.79951 3.48479L4.81336 3.40167L4.83414 3.31855L4.85492 3.24236L4.88262 3.18002L4.91726 3.11076L4.95881 3.05534L5.00037 3.00686L5.05578 2.95837L5.1112 2.91682L5.17353 2.87526L5.24972 2.84755L5.33284 2.81292L5.42288 2.79214L5.51986 2.76443L5.62375 2.75058L5.74151 2.7298L6.01164 2.70902L6.32333 2.69517L6.67658 2.68824L7.09216 2.68132L7.36922 2.68824L7.66013 2.69517L7.94412 2.70902L8.51209 2.75058L8.803 2.78521L9.37097 2.88218L9.64803 2.94452L9.92509 3.02071L10.2021 3.10383L10.4723 3.2008L10.6039 3.25621L10.7424 3.31162L10.874 3.36704L10.9987 3.42937L11.1303 3.49864L11.255 3.5679L11.5043 3.72029L11.6221 3.79648L11.7467 3.87959L11.8714 3.96964L11.9961 4.06661L12.1208 4.17051L12.2455 4.28133L12.3701 4.39908L12.5017 4.52376L12.7511 4.80081L12.8827 4.9532L13.0004 5.1125L13.1251 5.27874L13.2429 5.4519L13.4784 5.82593L13.5892 6.0268L13.7 6.23459L13.797 6.45624L13.9009 6.68481L13.9909 6.92031L14.081 7.16274L14.1641 7.41902L14.2403 7.68222L14.3095 7.95928L14.3719 8.24327L14.4273 8.53418L14.4758 8.83894L14.5173 9.15756L14.552 9.47618L14.5727 9.81557L14.5866 10.155V10.619L14.5658 11.0693L14.5243 11.5126L14.4688 11.9351L14.3857 12.3507L14.2888 12.7455L14.171 13.1333L14.0394 13.5074L13.887 13.8676L13.7208 14.2139L13.5407 14.5463L13.3468 14.865L13.132 15.1697L12.9035 15.4606L12.661 15.7377L12.4117 15.994L12.1416 16.2433L11.8645 16.4719L11.5736 16.6936L11.2688 16.8944L10.9571 17.0814L10.6385 17.2477L10.306 17.407L9.95972 17.5455L9.6134 17.6702L9.25322 17.7741L8.89304 17.871L8.51901 17.9472L8.13806 18.0027L7.7571 18.0442L7.36922 18.0719L6.97442 18.0788H6.69736L6.448 18.065L6.2125 18.0442L5.99085 18.0234L5.78999 17.9888L5.6099 17.9472L5.52678 17.9195L5.45059 17.8988L5.3744 17.8641L5.30514 17.8364L5.23587 17.8018L5.17353 17.7672L5.06271 17.684L5.01423 17.6425L4.93111 17.5455L4.89648 17.497L4.86184 17.4416L4.83414 17.3793L4.81336 17.3239L4.79258 17.2546L4.77872 17.1923L4.7718 17.123L4.76487 17.0468V4.42332V4.44756ZM2.43065 13.3515V13.7533L2.42373 14.1896L2.40295 15.6373L2.37525 16.607L2.36139 17.0641L2.34754 17.1749L2.32676 17.2858L2.29213 17.3897L2.24364 17.4936L2.21593 17.5351L2.1813 17.5836L2.11204 17.6667L2.02892 17.7429L1.93195 17.8191L1.82113 17.8814L1.69645 17.9369L1.55792 17.9853L1.41247 18.0269L1.25316 18.0546L1.07999 18.0754L0.892982 18.0892L0.692114 18.0962H0.57436L0.470468 18.1031L0.387348 18.11L0.311157 18.1239L0.248821 18.1377L0.193408 18.1516L0.151846 18.1724L0.117217 18.2001L0.0895102 18.2278L0.0687316 18.2555L0.0410251 18.3247L0.0340972 18.4009V18.6295L0.0410251 18.6849L0.0618037 18.7472L0.0895102 18.775L0.110289 18.7819L0.158774 18.7957L0.221115 18.8027H0.28345L0.38042 18.7957L0.553582 18.7888L0.844492 18.775L1.28086 18.768L1.9181 18.7611L2.79083 18.7542H4.89994L5.70341 18.7611L6.36835 18.768L6.90861 18.775L7.34498 18.7888L7.69823 18.7957L7.98914 18.8027H8.23849L8.77183 18.7888L9.02811 18.768L9.29132 18.7472L9.5476 18.7195L10.0463 18.6364L10.5312 18.5395L11.0022 18.4148L11.4593 18.2762L11.6809 18.2001L12.1104 18.0338L12.526 17.8537L12.7268 17.7568L12.9208 17.6598L13.1078 17.5628L13.2948 17.4589L13.4749 17.355L13.6481 17.2442L13.9805 17.0226L14.1398 16.9117L14.2922 16.794L14.4377 16.6832L14.7147 16.4477L14.8394 16.3299L14.9918 16.1914L15.1373 16.039L15.2758 15.8866L15.4143 15.7273L15.5459 15.568L15.6775 15.4018L15.8022 15.2355L16.0377 14.8892L16.1485 14.7091L16.2524 14.529L16.3563 14.342L16.4533 14.155L16.6334 13.7671L16.7996 13.3654L16.8689 13.1645L16.9381 12.9567L17.0005 12.742L17.0628 12.5342L17.1182 12.3126L17.1667 12.0978L17.2083 11.8762L17.2498 11.6476L17.2845 11.426L17.3122 11.1974L17.3399 10.9619L17.3676 10.4909L17.3814 10.013L17.3676 9.59739L17.3537 9.3896L17.3122 8.96016L17.2775 8.73851L17.2429 8.52379L17.2013 8.30214L17.1529 8.08049L17.042 7.6372L16.9728 7.41555L16.8204 6.97226L16.7373 6.75061L16.6472 6.53589L16.4394 6.10645L16.3286 5.89866L16.2109 5.69086L16.0862 5.48307L15.9546 5.2822L15.816 5.08826L15.6706 4.90125L15.5182 4.71423L15.3589 4.52722L15.1927 4.35406L15.0195 4.18782L14.8394 4.02159L14.6524 3.86228L14.4585 3.71682L14.2507 3.57137L14.0637 3.44669L13.8836 3.33587L13.6965 3.22504L13.5095 3.12115L13.3294 3.02418L13.1424 2.92721L12.7684 2.76097L12.5814 2.68478L12.1935 2.54625L11.9996 2.48391L11.5978 2.37309L11.39 2.3246L10.9606 2.24149L10.5173 2.17222L10.0463 2.11681L9.80388 2.0891L9.5476 2.07525L9.29132 2.05447L8.75105 2.02677L8.18308 2.00599L7.57355 1.99906H6.63502L6.32333 2.01291L5.98393 2.02677L5.61683 2.04062L5.22894 2.0614L4.81336 2.07525L4.38392 2.0891H3.35533L2.15013 2.0614L1.58909 2.04062L1.08346 2.02677L0.667869 2.01291L0.370031 1.99906H0.189942L0.134534 2.01291L0.113755 2.02677L0.0791209 2.05447L0.0514144 2.09603L0.0306359 2.14452L0.01678 2.193L0.00292938 2.30382V2.38002L0.00985732 2.45621L0.01678 2.51854L0.0375638 2.58088L0.0514144 2.60859L0.065265 2.62937L0.0860488 2.65015L0.113755 2.67093L0.141457 2.68478L0.176091 2.69171L0.217648 2.69863H0.266133L0.563971 2.70556L0.841031 2.71249L1.08346 2.72634L1.3051 2.75404L1.40207 2.7679L1.49905 2.78868L1.58909 2.80946L1.67221 2.83716L1.7484 2.86487L1.81766 2.89257L1.88693 2.92721L1.94926 2.96876L2.00468 3.01032L2.05316 3.05881L2.10165 3.11422L2.1432 3.16963L2.18477 3.23197L2.2194 3.29431L2.27481 3.44669L2.30252 3.52981L2.31637 3.61293L2.33715 3.7099L2.351 3.81379L2.37178 4.02851L2.37871 4.27787L2.38563 4.65882L2.39256 5.019L2.40641 5.35839L2.41334 5.71164L2.42026 6.0926V6.52204L2.42719 7.01382V13.3654L2.43065 13.3515Z" fill="white"/>
    <path fill-rule="evenodd" clip-rule="evenodd" d="M33.2293 13.2061L33.2224 13.116L33.2086 13.026L33.2016 12.9913L33.1878 12.9498L33.167 12.9152L33.1531 12.8805L33.1254 12.8459L33.0977 12.8182L33.07 12.7836L33.0354 12.7558L32.9938 12.7281L32.9453 12.7074L32.8969 12.6797L32.8414 12.6589L32.7133 12.6242L32.5609 12.5896L32.3878 12.5619L32.18 12.5411L31.9514 12.5203L31.6882 12.5134L31.3904 12.5065L31.0648 12.4996H30.5869L30.3964 12.4857L30.2302 12.4788L30.0916 12.4649L29.9739 12.4442L29.8769 12.4234L29.8007 12.4026L29.7453 12.3714L29.6968 12.3403L29.6691 12.3091L29.6483 12.271L29.6345 12.2329L29.6276 12.1948V12.0251L29.6345 11.9662V11.9351L29.6483 11.9074L29.6761 11.8658L29.6968 11.8519L29.7245 11.8381L29.7592 11.8242L29.8007 11.8104L29.9046 11.7965H30.1332L30.2994 11.8035L30.5557 11.8104L30.9436 11.8173L31.4873 11.8242L32.2146 11.8312L33.1531 11.8381H35.4285L36.2562 11.8312L36.8657 11.8242L37.2882 11.8173L37.5584 11.8104L37.7246 11.8035L37.8216 11.7965H37.9463L37.9947 11.8104L38.0155 11.8242L38.0432 11.8519L38.0501 11.8658L38.0675 11.9074L38.0709 11.9662L38.0779 12.0251V12.1048L38.0709 12.1948L38.0675 12.271L38.0605 12.3091L38.0501 12.3403L38.0363 12.3714L38.0155 12.4026L37.9913 12.4234L37.9532 12.4442L37.9116 12.4649L37.8701 12.4788L37.8077 12.4857L37.7454 12.4996H37.5791L37.2536 12.5065L36.9627 12.5203L36.7064 12.5411L36.4848 12.5758L36.3809 12.5965L36.2908 12.6173L36.2042 12.6381L36.1211 12.6658L35.9826 12.7212L35.9272 12.7489L35.8718 12.7836L35.8233 12.8182L35.7817 12.8597L35.7402 12.8944L35.7055 12.9359L35.6778 12.9775L35.6501 13.026L35.6293 13.0675L35.6086 13.116L35.5809 13.2199L35.567 13.3238L35.5601 13.4416V16.8494L35.5739 16.9602L35.6155 17.1057L35.6571 17.1888L35.7125 17.265L35.8233 17.3897L35.8856 17.4451L36.0103 17.542L36.1142 17.6321L36.1558 17.684L36.1869 17.7221L36.2146 17.7741L36.2216 17.8226L36.2146 17.8918L36.2042 17.9472L36.1973 17.968L36.1904 17.9957L36.18 18.0165L36.1073 18.0788L36.038 18.1204L35.941 18.155L35.8164 18.2035L35.6571 18.252L35.4908 18.3074L35.3246 18.3559L35.1445 18.4044L34.7705 18.5013L34.3757 18.5845L33.9566 18.6676L33.5133 18.7438L33.0562 18.8061L32.5852 18.8685L32.0899 18.9169L31.5843 18.9654L31.0648 19.007L29.9877 19.0624L28.8726 19.0901H28.3081L27.7263 19.0762L27.1652 19.0347L26.6284 18.9654L26.1159 18.8685L25.6241 18.7507L25.1531 18.6122L24.6994 18.4459L24.27 18.2589L23.8682 18.0511L23.4803 17.8295L23.1098 17.5905L22.7634 17.3342L22.4379 17.0641L22.1331 16.7801L21.8422 16.4892L21.579 16.1844L21.3193 15.8624L21.0907 15.5438L20.876 15.2113L20.682 14.8788L20.502 14.5394L20.3357 14.2L20.1972 13.8572L20.0656 13.5108L19.9548 13.1714L19.8578 12.8251L19.7712 12.4926L19.7089 12.1567L19.6569 11.8312L19.6188 11.5125L19.5981 11.2009L19.5946 10.903L19.605 10.3766L19.6396 9.86059L19.7054 9.36188L19.7851 8.87703L19.8855 8.40603L20.0102 7.95235L20.1556 7.50905L20.3219 7.07961L20.5089 6.66056L20.7097 6.26575L20.9245 5.8848L21.16 5.51769L21.4197 5.16444L21.6829 4.82851L21.9669 4.50297L22.2647 4.20513L22.5695 3.91422L22.895 3.64408L23.2275 3.39473L23.5773 3.15577L23.9306 2.94105L24.2907 2.74018L24.6648 2.55317L25.0457 2.39386L25.4371 2.2484L25.8319 2.12373L26.2336 2.0129L26.6423 1.92286L27.0544 1.85359L27.47 1.80511L27.8856 1.7774L28.3081 1.76355L28.8587 1.77048L29.3782 1.78433L29.8769 1.81203L30.3548 1.84667L30.8155 1.88823L31.2518 1.95056L31.4665 1.9852L31.6743 2.01983L32.0761 2.10295L32.2735 2.15143L32.4605 2.19992L32.8345 2.31074L33.0146 2.37308L33.1878 2.43542L33.5341 2.57395L33.7003 2.65014L33.8666 2.73325L34.0259 2.81637L34.1886 2.89949L34.348 2.99646L34.5003 3.08997L34.8051 3.29776L34.8397 3.31854L34.8813 3.33586L34.9298 3.36703L34.9852 3.39473L35.0475 3.42244L35.1029 3.44322L35.1584 3.45707H35.2345L35.2761 3.44322L35.3177 3.41551L35.3592 3.38434L35.4562 3.31854L35.5601 3.23196L35.664 3.15231L35.761 3.07958L35.8094 3.05187L35.851 3.03109L35.8926 3.01724L35.9341 3.01031H35.9618L35.9895 3.01724L36.0103 3.02417L36.0311 3.04148L36.0449 3.06226L36.0588 3.08997L36.0692 3.12114L36.0796 3.16616L36.0865 3.29776L36.0934 3.47785L36.1038 3.7272V4.89777L36.1142 5.56618L36.135 6.07181L36.1558 6.44584L36.18 6.72636L36.1973 6.92377L36.2146 7.08654L36.2216 7.22507L36.2146 7.2597L36.2042 7.28741L36.1904 7.30818L36.1696 7.33589L36.1523 7.35667L36.1211 7.37745L36.0934 7.3913L36.0588 7.40515L35.9826 7.43286L35.8995 7.44671L35.8094 7.46057H35.7194L35.6986 7.45364L35.6778 7.43286L35.6501 7.3913L35.6155 7.34282L35.5393 7.19043L35.4493 6.99649L35.3523 6.74368L35.2415 6.45969L35.1306 6.12722L35.0198 5.76705L34.9575 5.59388L34.8882 5.42072L34.8051 5.24756L34.722 5.08133L34.625 4.91163L34.5211 4.75232L34.4068 4.59301L34.2891 4.44063L34.1575 4.28825L34.0189 4.14279L33.8735 4.00426L33.7211 3.86573L33.5618 3.73413L33.3886 3.60253L33.2155 3.48478L33.0285 3.36703L32.8345 3.2562L32.6267 3.14538L32.4155 3.04495L32.1973 2.94798L31.9653 2.86486L31.7297 2.78174L31.4873 2.70555L31.238 2.64321L30.9748 2.58087L30.7046 2.52546L30.4241 2.4839L30.1401 2.44234L29.8492 2.41464L29.5445 2.39386L29.2397 2.38001L28.9211 2.37308L28.6405 2.38693L28.3635 2.40771L28.0795 2.44927L27.8024 2.50468L27.5185 2.58087L27.2345 2.67092L26.947 2.77481L26.663 2.89949L26.386 3.04148L26.1089 3.19387L25.8388 3.36703L25.5756 3.55404L25.3124 3.75491L25.0526 3.97655L24.8033 4.21898L24.5609 4.46833L24.3254 4.73847L24.1037 5.03284L23.8959 5.3376L23.6881 5.65622L23.5011 5.98869L23.321 6.34887L23.1513 6.71944L23.0059 7.10732L22.8673 7.50905L22.7496 7.93157L22.6457 8.36793L22.5556 8.82162L22.4864 9.29262L22.4379 9.77747L22.4033 10.2831L22.3963 10.8061L22.4033 11.284L22.4379 11.748L22.4933 12.1983L22.5626 12.6312L22.6526 13.0468L22.7565 13.4485L22.8881 13.8294L23.0266 14.2L23.1894 14.5533L23.3557 14.8927L23.5427 15.2113L23.7435 15.523L23.9583 15.8139L24.1799 16.0875L24.4154 16.3507L24.6578 16.5931L24.9141 16.8286L25.1808 17.0433L25.4509 17.2373L25.728 17.4243L26.012 17.5974L26.3029 17.7533L26.5938 17.8918L26.8916 18.0165L27.1998 18.1273L27.5046 18.2174L27.8094 18.3005L28.1141 18.3697L28.4258 18.4182L28.7306 18.4529L29.0388 18.4736L29.3436 18.4806H29.773L30.1817 18.4667L30.5696 18.4529L30.9367 18.4182L31.1202 18.4044L31.2865 18.3767L31.4458 18.3559L31.6051 18.3282L31.7575 18.2936L31.896 18.2589L32.0345 18.2174L32.1661 18.1758L32.2908 18.1273L32.4085 18.0719L32.5124 18.0165L32.6198 17.9542L32.7133 17.8918L32.7999 17.8156L32.883 17.736L32.9523 17.6563L33.0146 17.5697L33.07 17.4728L33.1185 17.3758L33.1601 17.2719L33.1878 17.1611L33.2086 17.0433L33.2224 16.9187L33.2293 16.7871V13.2061Z" fill="white"/>
    <path d="M12.1282 21.6147C10.923 21.7706 10.6183 21.9264 9.97064 23.4745C9.48579 24.6104 7.00611 30.3802 6.12645 32.5135H5.53424C4.47449 29.743 2.92989 25.7118 1.90478 23.1628C1.40261 21.8883 1.09784 21.7152 0 21.6147V21.1334H4.56454V21.6147C3.23466 21.7533 3.16193 21.9576 3.41475 22.5948C3.86497 23.852 5.17407 27.2771 6.30654 30.1378C7.25893 27.9178 8.44336 25.1091 9.28839 22.9412C9.68319 21.9438 9.46847 21.7879 7.9966 21.6147V21.1334H12.1282V21.6147Z" fill="#30B354"/>
    <path d="M22.1541 29.5871C22.0467 30.0339 21.5619 31.807 21.3818 32.3265H12.651V31.8451C14.3203 31.7239 14.4484 31.5681 14.4484 30.1585V23.3567C14.4484 21.8225 14.251 21.7394 12.9038 21.6182V21.1368H18.4C20.09 21.1368 20.7896 21.1195 21.0043 21.1022C21.0216 21.5316 21.0944 22.8234 21.1671 23.7377L20.6268 23.8243C20.464 23.239 20.284 22.8788 20.0866 22.5152C19.7991 21.9472 19.387 21.826 18.3065 21.826H16.5991C16.0415 21.826 16.0069 21.8779 16.0069 22.3766V26.1827H18.0017C19.3489 26.1827 19.4389 25.923 19.6537 24.7524H20.2112V28.2988H19.6537C19.4216 27.0589 19.2762 26.8858 17.9844 26.8858H16.0069V30.3109C16.0069 31.5161 16.4017 31.62 17.2987 31.6373H18.9679C20.0623 31.6373 20.2424 31.4815 20.6372 31.0347C20.9801 30.6745 21.3541 29.968 21.6069 29.452L22.1472 29.5906L22.1541 29.5871Z" fill="#30B354"/>
    <path d="M34.0679 32.4651C33.8359 32.4651 33.635 32.4478 33.403 32.4304C32.0904 32.3439 31.3909 32.0183 30.6012 30.9482C29.9363 30.0685 29.2887 28.9845 28.7138 28.1083C28.3536 27.5577 28.1216 27.4538 27.2038 27.4538H26.5735V30.1586C26.5735 31.6235 26.7709 31.7101 28.2081 31.8452V32.3265H23.4116V31.8452C24.9042 31.6893 25.0289 31.62 25.0289 30.1586V23.2875C25.0289 21.8226 24.8315 21.7706 23.4116 21.6182V21.1368H27.9934C29.306 21.1368 30.1856 21.2927 30.8679 21.7221C31.6056 22.1689 32.0904 22.9446 32.0904 23.994C32.0904 25.4763 31.1034 26.4044 29.7735 26.9551C30.0956 27.4884 30.8679 28.6417 31.4082 29.4174C32.0731 30.3283 32.4125 30.7612 32.8281 31.1906C33.3129 31.6893 33.7251 31.8798 34.1407 31.9837L34.0679 32.4651ZM27.4393 26.8685C28.3744 26.8685 28.9666 26.73 29.4168 26.3698C30.1164 25.8711 30.4038 25.1819 30.4038 24.2503C30.4038 22.4078 29.1294 21.736 27.7441 21.736C27.2246 21.736 26.9164 21.8052 26.7917 21.9091C26.6289 22.0304 26.577 22.2035 26.577 22.6503V26.8685H27.4393Z" fill="#30B354"/>
    <path d="M43.7164 23.8382C43.5537 23.2875 43.3389 22.7195 43.1415 22.4078C42.8541 21.9438 42.674 21.8226 41.687 21.8226H39.8896V30.2105C39.8896 31.5542 40.0316 31.7447 41.7389 31.8451V32.3265H36.5094V31.8451C38.1787 31.7413 38.3242 31.5681 38.3242 30.2105V21.8226H36.6895C35.7025 21.8226 35.4151 21.9265 35.1103 22.4425C34.8956 22.7853 34.7501 23.2009 34.5181 23.8382H33.9778C34.0852 22.7888 34.1925 21.7013 34.248 20.7386H34.6601C34.9302 21.1507 35.1276 21.1334 35.6298 21.1334H42.7433C43.2454 21.1334 43.3909 21.0641 43.661 20.7386H44.0939C44.0939 21.549 44.1666 22.7888 44.2567 23.7862L43.7164 23.8382Z" fill="#30B354"/>
    <path d="M55.0549 29.5871C54.9475 30.0339 54.4627 31.807 54.2826 32.3265H45.5518V31.8451C47.2211 31.7239 47.3492 31.5681 47.3492 30.1585V23.3567C47.3492 21.8225 47.1518 21.7394 45.8046 21.6182V21.1368H51.3007C52.9908 21.1368 53.6904 21.1195 53.9051 21.1022C53.9224 21.5316 53.9951 22.8234 54.0679 23.7377L53.5276 23.8243C53.3648 23.239 53.1847 22.8788 52.9873 22.5152C52.6999 21.9472 52.2878 21.826 51.2072 21.826H49.4999C48.9423 21.826 48.9077 21.8779 48.9077 22.3766V26.1827H50.9025C52.2497 26.1827 52.3397 25.923 52.5544 24.7524H53.112V28.2988H52.5544C52.3224 27.0589 52.177 26.8858 50.8852 26.8858H48.9077V30.3109C48.9077 31.5161 49.3025 31.62 50.1994 31.6373H51.8687C52.9631 31.6373 53.1432 31.4815 53.538 31.0347C53.8809 30.6745 54.2549 29.968 54.5077 29.452L55.048 29.5906L55.0549 29.5871Z" fill="#30B354"/>
</svg>
