<svg xmlns="http://www.w3.org/2000/svg" fill="none" viewBox="0 0 220 31"><path fill="#fff" fill-rule="evenodd" d="m53.144 12.262.047.006.04.014.04.02.014.02.014.014.01.027.017.02.013.067.007.088-.013.188-.041.33-.047.423-.06.488-.06.491-.047.458-.041.377-.013.259v.074l-.014.064-.03.07-.033.054-.04.047-.055.04-.067.034-.08.034-.228.067-.242.074-.262.074-.282.074-.302.074-.674.141-.37.06-.389.068-.423.054-.446.054-.47.04-.503.034-.53.027-.56.02h-.592l-.563-.014-.547-.04-.517-.067-.497-.094-.476-.115-.46-.134-.436-.162-.41-.181-.399-.202-.376-.216-.356-.232-.328-.249-.323-.262-.295-.276-.279-.283-.261-.296-.242-.312-.228-.31-.208-.323-.188-.323-.175-.33-.154-.332-.144-.33-.125-.336-.11-.33-.094-.336-.08-.323-.061-.327-.047-.316-.04-.31-.02-.302-.007-.29.013-.51.033-.502.061-.484.08-.471.101-.461.121-.438.141-.43.158-.417.181-.407.195-.384.215-.37.228-.356.241-.347.265-.323.266-.316.288-.29.306-.282.308-.262.323-.243.335-.232.346-.208.349-.195.362-.182.37-.155.375-.141.386-.121.39-.108.395-.087.397-.068.402-.047.406-.027.41-.013h.349l.335.013.326.007.299.02.285.02.268.02.255.028.235.027.222.033.214.034.195.033.191.04.336.082.288.08.255.081.222.074.36.141.147.054.13.047.064.014.06.013.061.007h.06l.074-.007.068-.007.06-.02.06-.027.115-.06.1-.074.094-.068.1-.067.048-.02.053-.02.054-.014.06-.006.02.006.027.007.02.014.03.027.024.033.02.047.014.068.007.074v.269l.013.282.027.293.027.29.034.295.033.296.044.283.036.276.084.508.115.713.02.154v.04l-.017.035-.01.026-.02.034-.02.027-.03.02-.027.027-.034.02-.064.027-.077.027-.074.007-.06.007h-.06l-.034-.007-.034-.014-.033-.02-.034-.033-.034-.048-.026-.06-.094-.236-.094-.222-.1-.222-.102-.208-.107-.209-.107-.198-.115-.195-.114-.189-.12-.175-.131-.175-.269-.323-.141-.148-.14-.14-.155-.142-.154-.128-.162-.124-.167-.115-.175-.107-.181-.095-.191-.094-.188-.08-.202-.081-.208-.068-.215-.06L48.53.74l-.47-.08-.248-.028-.252-.02L47.292.6l-.269-.007-.268.013-.269.02-.268.041-.276.054-.278.074-.275.087-.275.101-.269.121-.275.135-.262.148-.268.172-.259.181-.255.195-.248.216-.242.235-.235.242-.221.263-.215.286-.211.296-.195.31-.188.322-.174.35-.155.356-.147.38-.135.39-.114.411-.1.424-.087.44-.068.458-.047.471-.027.491-.013.508.013.464.027.451.054.438.067.42.087.404.108.39.12.37.135.357.154.346.168.33.184.31.185.302.208.283.218.262.229.259.234.236.249.228.255.209.262.188.271.182.272.168.286.151.288.132.288.124.29.108.295.087.298.08.302.068.296.047.295.034.295.02.299.007h.158l.171-.007.168-.02.174-.02.175-.027.174-.034.175-.04.18-.047.175-.054.181-.06.185-.068.171-.074.185-.08.181-.095.175-.104.18-.104.175-.118.175-.121.174-.135.168-.141.171-.148.165-.162.164-.168.161-.175.155-.188.154-.205.148-.209.14-.215.142-.229.134-.235.134-.25.12-.262.02-.04.055-.067.04-.027.05-.02.058-.014.066-.013zM4.615 2.607v-.525l.013-.215.02-.195.014-.08.02-.081.02-.074.027-.06.034-.068.04-.054.04-.047.054-.047.053-.04.06-.041.075-.027.08-.034.088-.02.093-.027.101-.013.114-.02.262-.02.302-.014.343-.007.402-.006.269.006.282.007.275.014.55.04.282.034.55.094.269.06.268.074.269.081.261.094.128.054.134.054.128.054.12.06.128.068.12.067.122.074.12.074.115.074.12.08.121.088.121.094.12.101.122.108.248.235.242.27.127.147.114.155.121.162.114.168.114.181.114.182.108.195.107.202.094.215.1.222.088.23.087.235.08.249.075.255.067.27.06.275.054.283.047.296.04.31.034.309.02.33.013.33v.45l-.02.437-.04.43-.054.411-.08.404-.095.383-.113.377-.128.363-.148.35-.16.337-.175.323-.188.31-.208.295-.222.283-.234.269-.242.249-.262.242-.269.222-.282.215-.295.195-.302.182-.308.162-.323.154-.335.135-.336.12-.349.102-.349.094-.362.074-.37.054-.369.04-.375.027-.383.007h-.268l-.242-.014-.228-.02-.215-.02-.195-.034-.174-.04-.08-.027-.075-.02-.073-.034-.068-.027-.067-.033-.06-.034-.108-.08-.047-.041-.04-.047-.04-.047-.033-.047-.034-.054-.027-.06-.02-.055-.02-.067-.014-.06-.007-.068-.006-.074V2.584zm-2.259 8.649v.39l-.007.424-.02 1.406-.013.478-.027.908-.013.108-.02.107-.034.101-.047.101-.027.04-.033.048-.067.08-.081.075-.094.073-.107.061-.121.054-.134.047-.141.04-.155.027-.167.02-.182.014-.194.007H.558l-.101.006-.08.007-.074.014-.061.013-.054.014-.04.02-.033.027-.027.027-.02.026-.014.034-.013.034-.007.074v.222l.007.053.013.04.007.021.013.014.014.013.02.007.047.013.06.007h.06l.095-.007.168-.007.281-.013.423-.007.617-.006.847-.007h2.043l.779.006.644.007.524.007.422.013.343.007.282.007h.241l.517-.014.248-.02.255-.02.249-.027.483-.08.47-.095.456-.12.443-.135.215-.074.416-.162.403-.175.195-.094.188-.094.18-.094.182-.101.174-.101.168-.108.322-.215.155-.108.147-.114.142-.108.133-.114.135-.115.12-.114.148-.134.141-.149.134-.148.135-.154.127-.155.128-.162.12-.161.115-.168.114-.168.107-.175.1-.175.101-.182.095-.181.087-.189.087-.188.161-.39.067-.196.067-.201.06-.209.061-.202.054-.215.047-.209.04-.215.04-.222.034-.215.026-.222.027-.23.014-.228.013-.229.014-.464-.014-.404-.013-.201-.02-.209-.02-.208-.034-.216-.033-.208-.04-.216-.048-.215-.053-.215-.054-.215-.067-.216-.148-.43-.08-.216-.088-.208-.201-.417-.108-.202-.113-.202-.121-.202-.128-.195-.134-.188-.141-.182-.148-.182-.154-.181-.161-.169-.168-.161-.175-.161-.18-.155-.188-.141-.202-.142-.181-.12-.175-.109-.181-.107-.181-.101-.175-.094-.18-.094-.363-.162-.182-.074-.375-.135-.188-.06-.39-.108-.201-.047-.416-.08-.43-.068-.456-.054-.235-.027-.248-.013-.249-.02-.523-.027-.55-.02L7.34.229h-.91l-.302.013L5.8.256l-.356.013-.376.02-.403.014-.416.013h-.997L2.085.29 1.54.27 1.05.255.648.242.36.23H.185L.13.242.11.256.077.283.05.323.03.37.016.417.003.525v.074L.01.673l.007.06.02.061.014.027.013.02.02.02.027.02.027.014.034.007.04.006h.047l.288.007.269.007.235.013.214.027.095.014.094.02.087.02.08.027.074.027.067.027.068.034.06.04.053.04.047.047.048.054.04.054.04.06.034.061.053.148.027.08.013.082.02.094.014.1.02.21.007.241.007.37.007.35.013.33.007.343.006.37v.417l.007.478v6.17zm29.841-.141-.007-.088-.013-.087-.007-.034-.014-.04-.02-.034-.013-.034-.027-.033-.027-.027-.027-.034-.033-.027-.04-.027-.047-.02-.048-.027-.053-.023-.121-.03-.148-.034-.168-.027-.204-.02-.222-.02-.255-.007-.288-.01-.316-.004h-.463l-.185-.013-.16-.007-.135-.013-.114-.02-.094-.02-.074-.02-.053-.031-.047-.03-.027-.03-.02-.038-.014-.037-.007-.04v-.162l.007-.06V9.88l.014-.027.013-.02.014-.02.02-.014.027-.013.033-.014.04-.013.101-.014h.221l.165.007.248.007.376.007.524.006.704.007.91.007h2.205l.802-.007.59-.007.41-.006.262-.007.16-.007.095-.007h.124l.044.014.023.013.013.014.01.013.01.014.014.04.007.054.003.06v.074l-.003.088-.007.077-.007.037-.007.03-.013.03-.02.031-.027.02-.033.02-.04.02-.041.014-.064.007-.06.013h-.161l-.316.004-.282.016-.248.02-.215.034-.1.02-.087.02-.084.02-.081.028-.067.023-.064.03-.054.027-.053.034-.05.034-.04.04-.041.034-.034.04-.026.04-.027.048-.02.04-.02.047-.028.101-.013.1-.007.115v3.31l.014.108.013.047.027.094.04.081.054.074.107.121.06.054.121.094.105.088.037.05.03.037.027.05.006.044-.006.068-.01.057-.007.02-.007.027-.01.02-.023.02-.044.04-.067.04-.097.035-.121.047-.155.047-.16.054-.162.047-.174.047-.363.094-.382.08-.403.081-.433.075-.443.06-.457.06-.48.048-.49.047-.503.04-1.043.054-1.08.027h-.548l-.564-.014-.544-.04-.52-.067-.497-.094-.476-.115-.456-.134-.436-.162-.42-.181-.39-.202-.375-.216-.356-.232-.336-.249-.318-.262-.296-.276-.282-.283-.255-.296-.248-.312-.225-.31-.208-.323-.188-.323-.174-.33-.161-.332-.135-.33-.127-.336-.108-.33-.093-.336-.081-.323-.06-.327-.054-.316-.034-.31-.02-.302-.006-.29.013-.51.034-.502.06-.484.08-.471.095-.461.12-.438.141-.43.161-.417.181-.407.195-.384.208-.37.228-.356.252-.347.255-.323.275-.316.289-.29.295-.282.319-.262.322-.243.336-.232.342-.208.35-.195.362-.182.372-.155.376-.141.383-.121.389-.108.396-.087.4-.068.402-.047.403-.027.409-.013.534.007.503.013.483.027.463.034.447.04.422.06.208.034.202.034.39.08.19.048.182.047.362.108.175.06.167.06.168.068.168.067.161.074.161.08.155.082.157.08.155.095.147.087.148.101.148.104.033.02.04.017.047.03.054.027.06.027.054.02.054.014h.074l.04-.013.04-.027.04-.03.095-.065.1-.084.1-.08.099-.068.043-.027.043-.02.038-.013.04-.007h.03l.027.007.016.006.024.014.01.02.017.027.007.034.01.04.006.131.01.175.007.242v1.137l.014.65.02.49.017.364.04.464.017.158.006.135-.006.034-.01.026-.014.02-.017.028-.02.02-.03.02-.024.013-.033.014-.074.027-.084.013-.087.014h-.088l-.02-.007-.02-.02-.026-.04-.034-.048-.074-.148-.087-.188-.094-.246-.108-.275-.107-.323-.107-.35-.06-.168-.068-.169-.08-.168-.08-.161-.095-.165-.1-.155-.108-.155-.114-.148-.13-.148-.135-.141-.14-.135-.149-.134-.154-.128-.168-.128-.168-.114-.181-.114-.188-.112-.201-.104-.202-.097-.214-.095-.225-.08-.229-.081-.234-.074-.242-.06-.255-.061L29.75.74 29.478.7l-.275-.04-.282-.028-.295-.02L28.33.6l-.309-.007-.269.013-.271.02-.275.041-.269.054-.275.074-.276.087-.275.101-.278.121-.269.135-.268.148-.262.172-.255.181-.255.195-.248.216-.245.235-.235.242-.228.263-.215.286-.201.296-.202.31-.18.322-.175.35-.165.356-.138.38-.137.39-.114.411-.1.424-.088.44-.067.458-.047.471-.034.491-.007.508.007.464.034.451.054.438.066.42.088.404.1.39.128.37.137.357.155.346.16.33.182.31.195.302.208.283.215.262.228.259.235.236.248.228.259.209.261.188.269.182.275.168.282.151.282.132.292.124.295.108.295.087.296.08.295.068.302.047.299.034.295.02.295.007h.417l.399-.014.372-.013.36-.034.174-.013.161-.027.154-.02.155-.027.147-.034.135-.034.134-.04.127-.04.121-.047.118-.054.097-.054.104-.064.094-.06.161-.148.067-.081.06-.08.054-.095.047-.094.04-.101.027-.108.02-.114.014-.121.007-.128z" clip-rule="evenodd"/><path fill="#30b354" d="M10.766 25.99c-1.024.131-1.09.232-1.09 1.208v1.389c0 .579.016 1.127.1 1.57-1.023.233-2.36.596-3.749.596C2.28 30.753 0 28.42 0 25.092c0-3.492 2.84-5.578 6.141-5.578 1.685 0 2.924.33 3.434.414.033.612.114 1.621.248 2.664l-.497.101c-.396-1.406-.876-2.001-1.916-2.351-.379-.131-1.057-.215-1.537-.215-2.527 0-4.161 1.739-4.161 4.766 0 2.63 1.352 5.248 4.557 5.248.56 0 1.074-.114 1.403-.282.345-.199.56-.38.56-1.06v-1.356c0-1.208-.13-1.339-1.718-1.456v-.481h4.242v.48zm11.079 4.649c-.215 0-.396-.017-.611-.034-1.205-.084-1.85-.397-2.574-1.423-.611-.844-1.205-1.887-1.735-2.732-.33-.528-.544-.629-1.386-.629h-.577v2.597c0 1.406.18 1.49 1.503 1.622v.464h-4.41v-.464c1.37-.148 1.487-.216 1.487-1.622v-6.603c0-1.406-.181-1.457-1.486-1.605v-.464h4.211c1.205 0 2.014.148 2.641.562.678.43 1.124 1.174 1.124 2.183 0 1.423-.91 2.318-2.13 2.846a61 61 0 0 0 1.503 2.368c.61.878.926 1.292 1.305 1.706.446.48.826.662 1.205.76l-.067.464zm-6.091-5.38c.859 0 1.403-.13 1.815-.48.645-.482.91-1.14.91-2.036 0-1.77-1.171-2.415-2.444-2.415-.48 0-.758.067-.876.165-.147.114-.197.282-.197.713v4.054zm15.303 2.614c-.101.431-.544 2.136-.712 2.631h-8.024v-.464c1.537-.115 1.651-.266 1.651-1.622v-6.536c0-1.473-.181-1.554-1.42-1.672v-.464h5.051c1.55 0 2.195-.017 2.393-.034.017.414.084 1.656.148 2.534l-.497.084a5.3 5.3 0 0 0-.497-1.258c-.265-.546-.644-.663-1.634-.663H25.95c-.514 0-.544.05-.544.528v3.656h1.832c1.239 0 1.323-.248 1.52-1.372h.514v3.408h-.513c-.215-1.191-.346-1.356-1.537-1.356h-1.816v3.293c0 1.158.362 1.259 1.188 1.275h1.537c1.007 0 1.171-.148 1.537-.578.312-.347.661-1.026.893-1.524l.497.131zm9.725 0c-.1.431-.543 2.136-.711 2.631h-8.024v-.464c1.537-.115 1.651-.266 1.651-1.622v-6.536c0-1.473-.181-1.554-1.42-1.672v-.464h5.051c1.55 0 2.195-.017 2.393-.034.017.414.084 1.656.147 2.534l-.496.084a5.3 5.3 0 0 0-.497-1.258c-.265-.546-.644-.663-1.634-.663h-1.567c-.514 0-.544.05-.544.528v3.656h1.832c1.239 0 1.323-.248 1.52-1.372h.514v3.408h-.514c-.214-1.191-.345-1.356-1.536-1.356H35.13v3.293c0 1.158.362 1.259 1.188 1.275h1.537c1.007 0 1.171-.148 1.537-.578.312-.347.661-1.026.893-1.524l.496.131zm12.564-7.659c-1.057.114-1.403.283-1.453 1.043-.017.528-.05 1.224-.05 2.765v6.637h-.628l-7.067-8.655v4.137c0 1.49.05 2.234.084 2.715.033.845.446 1.093 1.634 1.191v.464h-4.01v-.464c1.023-.084 1.42-.33 1.486-1.14.05-.529.084-1.275.084-2.779v-4.222c0-.464-.034-.726-.329-1.093-.312-.414-.661-.515-1.47-.595v-.465h2.477l7 8.326v-4.053c0-1.541-.033-2.251-.084-2.749-.05-.743-.429-.975-1.748-1.06v-.464h4.078v.465zM84.227 0h-24.68v5.57h24.68z"/><path fill="#30b354" fill-rule="evenodd" d="M59.547 7.048h11.326v6.86h13.353v-8.34h11.726v7.6l-13.125 8.03 13.135 8.426H84.428l-6.672-4.713-6.883 4.713H59.547l13.135-8.427-13.135-8.03z" clip-rule="evenodd"/><path fill="#d4d4d4" d="M101.812 13.494V.457h2.552v10.71h5.736v2.327zm13.715.224q-1.416 0-2.533-.615-1.1-.634-1.732-1.732-.615-1.1-.615-2.533 0-1.434.615-2.533a4.4 4.4 0 0 1 1.713-1.714q1.1-.633 2.515-.633 1.434 0 2.533.633a4.37 4.37 0 0 1 1.713 1.714q.615 1.1.615 2.533 0 1.434-.615 2.533a4.5 4.5 0 0 1-1.713 1.732q-1.08.615-2.496.615m0-2.273q.69 0 1.211-.335a2.2 2.2 0 0 0 .801-.912q.298-.596.298-1.36t-.298-1.341a2.26 2.26 0 0 0-.838-.931 2.2 2.2 0 0 0-1.211-.336 2.25 2.25 0 0 0-1.211.336 2.3 2.3 0 0 0-.819.931q-.298.577-.298 1.341t.298 1.36q.297.577.838.912t1.229.335m8.024 2.049-3.166-9.312h2.496l1.937 5.997 1.956-5.997h2.421l1.918 5.904 1.956-5.904h2.496l-3.167 9.312h-2.421L127.984 7.2l-2.011 6.295zm23.184.224q-1.9 0-3.371-.857a6.27 6.27 0 0 1-2.31-2.384q-.837-1.527-.838-3.502 0-1.974.838-3.482a6.14 6.14 0 0 1 2.291-2.384q1.471-.876 3.372-.876 1.34 0 2.495.484 1.155.466 2.012 1.323a5.8 5.8 0 0 1 1.341 1.937l-2.366.875a3.9 3.9 0 0 0-.838-1.192 3.7 3.7 0 0 0-1.192-.8 3.5 3.5 0 0 0-1.452-.299q-1.137 0-2.031.578a3.9 3.9 0 0 0-1.378 1.546q-.484.987-.484 2.29 0 1.305.503 2.31.503.987 1.397 1.565.894.558 2.048.558.802 0 1.453-.298a3.8 3.8 0 0 0 1.174-.856q.521-.54.838-1.248l2.365.856a6.1 6.1 0 0 1-1.341 2.012 6.1 6.1 0 0 1-2.011 1.36 6.4 6.4 0 0 1-2.515.484m10.093 0q-1.677 0-2.608-.745-.913-.745-.913-2.105 0-1.49.987-2.235 1.006-.764 2.813-.764h2.198q-.13-.856-.54-1.303-.41-.465-1.174-.466-.596 0-1.08.26-.484.262-.82.802l-2.16-.745q.26-.597.763-1.155.504-.577 1.304-.931.82-.373 1.993-.373 1.416 0 2.347.54a3.27 3.27 0 0 1 1.397 1.528q.465.967.447 2.31l-.056 5.158h-2.291l-.037-1.08a2.37 2.37 0 0 1-1.006.969q-.633.335-1.564.335m.409-2.049q.597 0 1.081-.28.484-.279.763-.726.28-.447.28-.931v-.037h-1.397q-1.21 0-1.677.298-.465.28-.465.8 0 .41.372.652.373.224 1.043.224m6.192 1.825V4.182h2.459v1.713a3.65 3.65 0 0 1 1.453-1.304 4.1 4.1 0 0 1 1.844-.447v2.384a6.2 6.2 0 0 0-1.621.205q-.744.205-1.21.67-.466.467-.466 1.193v4.898zm12.017.224q-.95 0-1.658-.391a3.5 3.5 0 0 1-1.192-1.155l-.093 1.322h-2.328V.457h2.458v4.991q.466-.726 1.174-1.099.708-.39 1.639-.39 1.284 0 2.216.595.95.596 1.471 1.695.522 1.08.522 2.589 0 1.49-.522 2.589-.521 1.098-1.471 1.695-.932.596-2.216.596m-.634-2.254q.671 0 1.174-.335.521-.336.819-.931.298-.596.298-1.36t-.298-1.36a2.05 2.05 0 0 0-.801-.912 2.06 2.06 0 0 0-1.173-.336q-.633 0-1.136.336a2.2 2.2 0 0 0-.782.931q-.28.577-.28 1.341t.28 1.36q.279.595.763.93.504.336 1.136.336m10.523 2.254q-1.416 0-2.533-.615-1.1-.634-1.732-1.732-.615-1.1-.615-2.533 0-1.434.615-2.533a4.37 4.37 0 0 1 1.713-1.714q1.1-.633 2.515-.633 1.434 0 2.533.633 1.098.615 1.713 1.714.615 1.1.615 2.533 0 1.434-.615 2.533a4.5 4.5 0 0 1-1.713 1.732q-1.08.615-2.496.615m0-2.273q.689 0 1.211-.335.52-.335.8-.912.298-.596.298-1.36t-.298-1.341a2.25 2.25 0 0 0-.838-.931 2.2 2.2 0 0 0-1.21-.336 2.25 2.25 0 0 0-1.211.336 2.3 2.3 0 0 0-.819.931q-.298.577-.298 1.341t.298 1.36q.298.577.838.912t1.229.335m6.133 2.049V4.182h2.31l.112 1.266q.446-.726 1.136-1.099a3.26 3.26 0 0 1 1.602-.39q1.098 0 1.881.446.782.447 1.192 1.397.41.93.391 2.421v5.271h-2.459V8.726q0-.95-.223-1.471-.205-.522-.596-.745a1.7 1.7 0 0 0-.913-.242q-.95-.019-1.471.577-.503.596-.503 1.77v4.88zm-83.603 17.224q-1.992 0-3.538-.857a6.4 6.4 0 0 1-2.403-2.384q-.876-1.527-.875-3.501 0-1.976.875-3.483a6.23 6.23 0 0 1 2.403-2.384q1.546-.876 3.538-.876 1.193 0 2.198.354 1.006.354 1.77.987.782.615 1.303 1.416l-2.086 1.303a3.4 3.4 0 0 0-.838-.894 4.1 4.1 0 0 0-1.117-.614 3.6 3.6 0 0 0-1.23-.224q-1.229 0-2.179.578a3.97 3.97 0 0 0-1.49 1.546q-.54.987-.54 2.29 0 1.285.522 2.291.54 1.006 1.508 1.584.969.558 2.235.558.95 0 1.695-.354a3.1 3.1 0 0 0 1.192-1.024q.447-.652.503-1.527h-3.017V23.51h5.476v1.583q-.038 1.788-.801 3.055a5.1 5.1 0 0 1-2.086 1.918q-1.323.652-3.018.652m11.332 0q-1.378 0-2.44-.615a4.6 4.6 0 0 1-1.676-1.732q-.596-1.1-.596-2.533 0-1.434.615-2.533a4.54 4.54 0 0 1 1.713-1.714q1.1-.633 2.515-.633 1.228 0 2.253.652 1.044.634 1.658 1.881.633 1.23.633 2.999h-6.817q.093.93.801 1.49.708.54 1.602.54.763 0 1.248-.317.484-.335.745-.856l2.198.856a4.6 4.6 0 0 1-1.025 1.36 4.2 4.2 0 0 1-1.471.857q-.856.297-1.956.298m-2.011-6.053h4.023q-.056-.578-.373-.932a1.9 1.9 0 0 0-.745-.521 2.3 2.3 0 0 0-.838-.168 2.6 2.6 0 0 0-.857.168q-.447.15-.8.503-.336.354-.41.95m7.803 5.829v-9.312h2.31l.111 1.266q.447-.726 1.137-1.099a3.25 3.25 0 0 1 1.601-.39q1.1 0 1.881.446.783.447 1.192 1.397.41.93.392 2.421v5.271h-2.459v-4.768q0-.95-.223-1.471-.206-.522-.596-.745a1.7 1.7 0 0 0-.913-.242q-.95-.019-1.471.577-.504.595-.503 1.77v4.88zm10.218-4.488V23.9h5.588v2.105zm6.434 4.488 5.141-13.037h2.719l5.141 13.037h-2.701l-1.117-2.868h-5.364l-1.118 2.868zm4.657-5.122h3.688l-1.844-4.73zm9.594 5.122V17.457h2.552v13.037zm11.955 0v-10.71h-3.912v-2.327h10.356v2.328h-3.893v10.71zm10.613.224q-1.416 0-2.533-.615-1.099-.634-1.733-1.732-.614-1.1-.614-2.533 0-1.434.614-2.533a4.37 4.37 0 0 1 1.714-1.714q1.1-.633 2.514-.633 1.434 0 2.533.633 1.1.615 1.714 1.714.615 1.1.615 2.533 0 1.434-.615 2.533a4.5 4.5 0 0 1-1.714 1.732q-1.08.615-2.495.615m0-2.273q.689 0 1.21-.335.522-.334.801-.912.298-.596.298-1.36t-.298-1.341a2.26 2.26 0 0 0-.838-.931 2.2 2.2 0 0 0-1.211-.336q-.67 0-1.21.336a2.3 2.3 0 0 0-.82.931q-.298.578-.298 1.341 0 .764.298 1.36.298.577.838.912t1.23.335m10.51 2.273q-1.416 0-2.533-.615-1.1-.634-1.732-1.732-.615-1.1-.615-2.533 0-1.434.615-2.533a4.4 4.4 0 0 1 1.713-1.714q1.1-.633 2.515-.633 1.434 0 2.533.633 1.099.615 1.713 1.714.615 1.1.615 2.533 0 1.434-.615 2.533a4.5 4.5 0 0 1-1.713 1.732q-1.08.615-2.496.615m0-2.273q.689 0 1.211-.335a2.2 2.2 0 0 0 .801-.912q.298-.596.298-1.36t-.298-1.341a2.26 2.26 0 0 0-.839-.931 2.2 2.2 0 0 0-1.21-.336 2.25 2.25 0 0 0-1.211.336 2.3 2.3 0 0 0-.819.931q-.298.578-.298 1.341 0 .764.298 1.36.298.577.838.912t1.229.335m6.133 2.049V17.457h2.459v13.037zm4.272 0V17.457h2.459v7.189l3.185-3.464h2.924l-3.52 3.93 3.799 5.382h-2.887l-2.477-3.613-1.024 1.117v2.496zm9.859 0v-9.312h2.459v9.312zm1.23-10.821q-.56 0-.988-.41a1.38 1.38 0 0 1-.428-1.006q0-.576.428-.987.429-.428.988-.428.577 0 .987.428.428.41.428.988 0 .577-.428 1.005-.41.41-.987.41m7.021 11.045q-1.546 0-2.347-.764-.782-.763-.782-2.179v-4.507h-1.509v-2.086h1.509v-2.906h2.458v2.906h2.328v2.086h-2.328v3.967q0 .595.261.913.26.297.764.297a1.3 1.3 0 0 0 .409-.074 2.5 2.5 0 0 0 .466-.26l.857 1.843a3.9 3.9 0 0 1-1.006.54q-.54.224-1.08.224"/></svg>