<svg width="213" height="31" viewBox="0 0 213 31" fill="none"
    xmlns="http://www.w3.org/2000/svg">
    <path fill-rule="evenodd" clip-rule="evenodd" d="M53.1444 12.2616L53.1913 12.2683L53.2318 12.2818L53.2719 12.302L53.2852 12.3222L53.2988 12.3356L53.309 12.3625L53.3257 12.3827L53.3389 12.45L53.3457 12.5375L53.3325 12.7259L53.292 13.0555L53.2451 13.4794L53.1845 13.9672L53.1244 14.4583L53.0775 14.9158L53.037 15.2926L53.0238 15.5516V15.6256L53.0101 15.6895L52.9798 15.7601L52.9466 15.814L52.9061 15.861L52.8523 15.9014L52.7854 15.9351L52.7048 15.9687L52.4766 16.036L52.2349 16.11L51.973 16.184L51.6912 16.258L51.3892 16.332L50.7146 16.4733L50.3458 16.5339L49.9564 16.6011L49.5334 16.6549L49.0869 16.7088L48.6174 16.7491L48.1138 16.7828L47.5837 16.8097L47.0234 16.8299H46.4324L45.8686 16.8164L45.3219 16.776L44.8051 16.7088L44.3083 16.6146L43.8316 16.5002L43.3719 16.3656L42.9356 16.2042L42.5263 16.0225L42.1271 15.8207L41.751 15.6054L41.3954 15.3733L41.0666 15.1243L40.7442 14.8619L40.4491 14.5861L40.1702 14.3035L39.9088 14.0075L39.667 13.6947L39.4389 13.3852L39.2308 13.0622L39.0427 12.7393L38.8683 12.4096L38.7139 12.0766L38.5698 11.7469L38.4453 11.4105L38.3349 11.0809L38.2406 10.7445L38.1604 10.4215L38.0999 10.0952L38.053 9.779L38.0125 9.46954L37.9924 9.16677L37.9856 8.87748L37.9992 8.36614L38.0325 7.86491L38.0931 7.38053L38.1737 6.90957L38.2743 6.44869L38.395 6.01138L38.5361 5.58081L38.6939 5.16367L38.8751 4.75664L39.0696 4.37315L39.2845 4.00309L39.5127 3.64651L39.7544 3.30004L40.0193 2.9771L40.2845 2.6609L40.5732 2.37156L40.8785 2.08901L41.1873 1.82662L41.5096 1.58441L41.8448 1.3523L42.1907 1.14374L42.5399 0.948642L42.9019 0.766982L43.2712 0.612229L43.6473 0.470953L44.0333 0.349845L44.4222 0.242214L44.8183 0.154752L45.2145 0.087461L45.617 0.0403831L46.023 0.0134326L46.4324 0H46.7816L47.1172 0.0134326L47.4426 0.0201704L47.7415 0.0403831L48.0268 0.0605535L48.295 0.0807239L48.55 0.107631L48.785 0.13454L49.0068 0.168185L49.2212 0.20183L49.4161 0.235476L49.6072 0.275859L49.9428 0.356583L50.2315 0.437306L50.4865 0.51803L50.7078 0.592059L51.0673 0.733336L51.2148 0.787152L51.3457 0.834273L51.4093 0.847706L51.4698 0.861181L51.5304 0.867876H51.5905L51.6643 0.861181L51.7317 0.854443L51.7918 0.834273L51.8523 0.807365L51.9666 0.746812L52.0673 0.672783L52.1611 0.605491L52.2617 0.538243L52.3086 0.51803L52.3624 0.49786L52.4161 0.484385L52.4766 0.47769L52.4967 0.484385L52.5235 0.491122L52.5436 0.504598L52.5739 0.531506L52.5973 0.565151L52.6174 0.612229L52.631 0.679521L52.6378 0.753507V1.02263L52.651 1.30523L52.6779 1.59789L52.7048 1.88718L52.7385 2.18321L52.7717 2.47924L52.8157 2.76179L52.8523 3.03765L52.9363 3.54562L53.0506 4.25878L53.0707 4.41349V4.45388L53.0536 4.48752L53.0438 4.51443L53.0238 4.54808L53.0033 4.57498L52.9734 4.59515L52.9466 4.62206L52.9129 4.64227L52.8489 4.66918L52.7717 4.69609L52.698 4.70279L52.6378 4.70952H52.5773L52.5436 4.70279L52.5103 4.68935L52.4766 4.66918L52.443 4.63554L52.4093 4.58842L52.3828 4.52786L52.2886 4.29239L52.1948 4.07039L52.0941 3.84834L51.9935 3.63982L51.886 3.43125L51.7786 3.23274L51.6643 3.03765L51.5504 2.84925L51.4297 2.67433L51.2988 2.49941L51.0302 2.17647L50.889 2.02846L50.7483 1.88718L50.5939 1.7459L50.4396 1.61806L50.2784 1.49358L50.1108 1.37921L49.9359 1.27158L49.7547 1.17738L49.5637 1.08318L49.3756 1.00246L49.1743 0.921734L48.9662 0.854443L48.7513 0.79389L48.53 0.740074L48.0601 0.65935L47.8119 0.6324L47.5603 0.612229L47.2916 0.598797L47.0234 0.592059L46.7548 0.605491L46.4861 0.625705L46.2179 0.666045L45.9424 0.719861L45.6639 0.79389L45.3889 0.881351L45.1138 0.982287L44.8452 1.10335L44.5701 1.23793L44.3083 1.38595L44.0397 1.5575L43.7812 1.73916L43.5262 1.93426L43.2781 2.14956L43.0363 2.38504L42.8013 2.62725L42.58 2.88964L42.3651 3.17556L42.154 3.47159L41.9591 3.78109L41.771 4.10403L41.5966 4.45388L41.4423 4.81046L41.2947 5.19058L41.1604 5.58081L41.0461 5.99121L40.9455 6.41504L40.8585 6.85576L40.7911 7.31324L40.7442 7.78419L40.7173 8.27531L40.7041 8.78328L40.7173 9.24749L40.7442 9.69827L40.7979 10.1356L40.8653 10.5561L40.9523 10.9597L41.0598 11.35L41.1804 11.72L41.3148 12.0766L41.4691 12.4231L41.6371 12.7528L41.8214 13.0622L42.006 13.365L42.2141 13.6476L42.4324 13.9099L42.6606 14.169L42.8955 14.4045L43.1437 14.6332L43.3987 14.8418L43.6606 15.0301L43.9322 15.2118L44.2043 15.38L44.4896 15.5314L44.7783 15.6626L45.0665 15.7871L45.3552 15.8947L45.6507 15.9821L45.9492 16.0629L46.2511 16.1302L46.5467 16.1773L46.8422 16.2109L47.1373 16.2311L47.4358 16.2378H47.5936L47.765 16.2311L47.9326 16.2109L48.107 16.1907L48.2818 16.1638L48.4562 16.1302L48.6306 16.0898L48.8119 16.0427L48.9863 15.9889L49.1675 15.9283L49.3522 15.861L49.5232 15.7871L49.7078 15.7063L49.889 15.6121L50.0639 15.5078L50.2447 15.4036L50.4195 15.2858L50.5939 15.1647L50.7683 15.0301L50.9364 14.8889L51.1074 14.7408L51.272 14.5794L51.4361 14.4112L51.5973 14.2362L51.7517 14.0479L51.9061 13.8427L52.0536 13.6341L52.1948 13.4188L52.3355 13.1901L52.4698 12.9546L52.6041 12.7056L52.7248 12.4433L52.7449 12.4029L52.7986 12.3356L52.8391 12.3087L52.8894 12.2885L52.9466 12.2751L53.0135 12.2616H53.1444Z" fill="white"/>
    <path fill-rule="evenodd" clip-rule="evenodd" d="M4.61465 2.60731V2.0825L4.6283 1.86724L4.64834 1.6721L4.66198 1.59138L4.68203 1.51066L4.70207 1.43663L4.72893 1.37607L4.76263 1.30883L4.80271 1.25497L4.84322 1.20789L4.89695 1.16081L4.95026 1.12043L5.01081 1.08005L5.08458 1.05314L5.16518 1.01949L5.2526 0.999322L5.34641 0.972413L5.44705 0.958939L5.56133 0.938768L5.82316 0.918598L6.12507 0.905123L6.4675 0.898427L6.87006 0.89169L7.1387 0.898427L7.42058 0.905123L7.69563 0.918598L8.24615 0.958939L8.52803 0.992584L9.07812 1.08678L9.34678 1.14734L9.615 1.22137L9.88366 1.30209L10.1455 1.39629L10.273 1.4501L10.4073 1.50392L10.5348 1.55774L10.6555 1.61829L10.783 1.68558L10.9037 1.75287L11.0248 1.82686L11.1455 1.90089L11.2598 1.97487L11.3804 2.0556L11.5011 2.14306L11.6222 2.23726L11.7429 2.33819L11.8636 2.44582L12.1122 2.6813L12.3536 2.95042L12.4811 3.09844L12.5953 3.25319L12.716 3.41464L12.8303 3.58286L12.9442 3.76448L13.0584 3.94614L13.1659 4.14128L13.2729 4.34311L13.3672 4.55837L13.4678 4.78042L13.5548 5.00915L13.6422 5.24463L13.7228 5.49358L13.7966 5.74923L13.864 6.01835L13.9241 6.29421L13.9778 6.57676L14.0247 6.87279L14.0653 7.1823L14.0985 7.49176L14.119 7.82144L14.1322 8.15111V8.60185L14.1122 9.0392L14.0717 9.46977L14.0183 9.88017L13.9377 10.2838L13.8435 10.6673L13.7297 11.0441L13.6022 11.4074L13.4542 11.7572L13.2934 12.0937L13.1186 12.4166L12.9309 12.7261L12.7228 13.0221L12.5011 13.3047L12.2666 13.5738L12.0248 13.8227L11.7629 14.0649L11.4943 14.287L11.2124 14.5022L10.9173 14.6974L10.6154 14.879L10.3067 15.0405L9.98429 15.1952L9.64869 15.3298L9.31308 15.4509L8.96427 15.5518L8.61502 15.646L8.25255 15.72L7.88369 15.7738L7.5144 15.8142L7.1387 15.8411L6.75577 15.8478H6.48755L6.24576 15.8344L6.01761 15.8142L5.80269 15.794L5.60824 15.7604L5.43383 15.72L5.35323 15.6931L5.27946 15.6729L5.20569 15.6393L5.13831 15.6124L5.07136 15.5787L5.01081 15.5451L4.90335 15.4643L4.85644 15.424L4.81635 15.3769L4.77584 15.3298L4.74258 15.2827L4.70889 15.2289L4.68203 15.1683L4.66198 15.1145L4.64152 15.0472L4.6283 14.9867L4.62147 14.9194L4.61465 14.8454V2.58373V2.60731ZM2.35626 11.256V11.6462L2.34944 12.0701L2.3294 13.4762L2.31618 13.9539L2.28931 14.8622L2.27567 14.9699L2.25563 15.0775L2.22194 15.1784L2.17503 15.2793L2.14816 15.3197L2.1149 15.3668L2.04753 15.4475L1.96693 15.5215L1.87312 15.5955L1.76566 15.6561L1.64497 15.7099L1.51065 15.757L1.3695 15.7974L1.21513 15.8243L1.04754 15.8445L0.866309 15.8579L0.671855 15.8646H0.557572L0.456934 15.8714L0.376337 15.8781L0.302566 15.8915L0.24201 15.905L0.188279 15.9185L0.148197 15.9387L0.114508 15.9656L0.0876411 15.9925L0.0676 16.0194L0.0539552 16.053L0.0407333 16.0867L0.0339108 16.1607V16.3827L0.0407333 16.4365L0.0539552 16.4769L0.0607776 16.4971L0.0744225 16.5105L0.0876411 16.524L0.107685 16.5307L0.15502 16.5442L0.215146 16.5509H0.275699L0.369514 16.5442L0.537528 16.5374L0.819401 16.524L1.24199 16.5173L1.85947 16.5105L2.70551 16.5038H4.74898L5.52764 16.5105L6.17198 16.5173L6.69565 16.524L7.11824 16.5374L7.46066 16.5442L7.74253 16.5509H7.98432L8.50116 16.5374L8.74934 16.5173L9.00435 16.4971L9.25253 16.4702L9.73611 16.3894L10.2056 16.2952L10.6623 16.1741L11.1054 16.0396L11.3199 15.9656L11.7361 15.8041L12.1386 15.6292L12.3335 15.535L12.5216 15.4408L12.7028 15.3466L12.884 15.2457L13.0584 15.1448L13.226 15.0371L13.5484 14.8218L13.7028 14.7142L13.8503 14.5998L13.9915 14.4922L14.1254 14.3778L14.2597 14.2634L14.3804 14.149L14.5284 14.0145L14.6691 13.8665L14.8034 13.7184L14.9377 13.5637L15.0652 13.4089L15.1927 13.2475L15.3134 13.086L15.4277 12.9178L15.5416 12.7496L15.649 12.5747L15.7497 12.3998L15.8503 12.2181L15.9445 12.0365L16.0315 11.8481L16.119 11.6597L16.2801 11.2695L16.3471 11.0744L16.4145 10.8725L16.4746 10.664L16.5352 10.4621L16.5889 10.2469L16.6358 10.0383L16.6759 9.82298L16.7164 9.60098L16.7501 9.38568L16.7765 9.16363L16.8034 8.93489L16.817 8.70615L16.8302 8.47742L16.8439 8.01316L16.8302 7.6095L16.817 7.40767L16.797 7.1991L16.7765 6.99053L16.7433 6.77523L16.7096 6.56666L16.6695 6.35139L16.6221 6.13609L16.5688 5.92078L16.5151 5.70552L16.4477 5.49021L16.3002 5.0596L16.2196 4.84434L16.1322 4.63577L15.9309 4.21863L15.8234 4.0168L15.7096 3.81497L15.5889 3.61314L15.4614 3.41801L15.3271 3.22961L15.1859 3.04799L15.0384 2.86633L14.884 2.68467L14.7228 2.51648L14.5552 2.35499L14.3804 2.19355L14.1992 2.03879L14.0115 1.89752L13.8102 1.7562L13.629 1.63513L13.4542 1.52746L13.2729 1.41983L13.0917 1.31889L12.9173 1.22469L12.7361 1.13053L12.3736 0.969045L12.1924 0.895059L11.8167 0.760477L11.6286 0.699923L11.2393 0.592292L11.038 0.545171L10.6218 0.464448L10.1924 0.397156L9.73611 0.34334L9.50115 0.316432L9.25253 0.303L9.00435 0.282787L8.48069 0.255879L7.93059 0.235709L7.33998 0.228971H6.4304L6.12849 0.242446L5.79971 0.255879L5.44364 0.269354L5.06795 0.289525L4.6654 0.303L4.2492 0.316432H3.2522L2.08463 0.289525L1.54093 0.269354L1.05095 0.255879L0.647975 0.242446L0.359705 0.228971H0.18487L0.131139 0.242446L0.111095 0.255879L0.0778353 0.282787L0.0509685 0.32317L0.0305012 0.370248L0.0172793 0.417369L0.00363446 0.525V0.599029L0.0104569 0.673016L0.0172793 0.733569L0.0373237 0.794123L0.0509685 0.82103L0.0641872 0.8412L0.0842315 0.861413L0.111095 0.881584L0.137962 0.895059L0.171651 0.901754L0.211733 0.908492H0.259067L0.547337 0.915229L0.815988 0.921967L1.05095 0.935399L1.26545 0.962308L1.35969 0.975782L1.45351 0.995953L1.54093 1.01617L1.62152 1.04307L1.69529 1.06998L1.76224 1.09689L1.82962 1.13053L1.88975 1.17088L1.94348 1.21126L1.99039 1.25834L2.03772 1.31215L2.0778 1.36601L2.11789 1.42656L2.15158 1.48712L2.20531 1.63513L2.23217 1.71586L2.24539 1.79658L2.26586 1.89078L2.27908 1.99167L2.29912 2.20024L2.30595 2.44246L2.31277 2.81251L2.31959 3.16236L2.33281 3.49203L2.33963 3.83514L2.34646 4.20516V4.62229L2.35285 5.09998V11.2695L2.35626 11.256Z" fill="white"/>
    <path fill-rule="evenodd" clip-rule="evenodd" d="M32.1968 11.1145L32.19 11.027L32.1767 10.9396L32.1699 10.9059L32.1563 10.8656L32.1362 10.8319L32.123 10.7983L32.0961 10.7647L32.0693 10.7377L32.0424 10.7041L32.0087 10.6772L31.9686 10.6503L31.9217 10.6301L31.8744 10.6032L31.8207 10.5796L31.7 10.5493L31.5524 10.5157L31.3844 10.4888L31.1797 10.4686L30.9584 10.4485L30.7034 10.4417L30.4147 10.4316L30.0992 10.4282H29.6361L29.4514 10.4148L29.2906 10.4081L29.1563 10.3946L29.042 10.3744L28.9482 10.3543L28.8744 10.3341L28.8207 10.3038L28.7738 10.2735L28.7469 10.2433L28.7269 10.2062L28.7133 10.1692L28.7064 10.1289V9.9674L28.7133 9.90684V9.87993L28.7269 9.85303L28.7401 9.83286L28.7538 9.81264L28.7738 9.79921L28.8007 9.78574L28.8339 9.7723L28.8744 9.75883L28.9751 9.74539H29.1964L29.361 9.75209L29.6092 9.75883L29.9853 9.76556L30.5085 9.7723L31.2134 9.779L32.123 9.78574H34.3277L35.1298 9.779L35.7204 9.7723L36.1298 9.76556L36.3916 9.75883L36.5528 9.75209L36.6466 9.74539H36.7707L36.8146 9.75883L36.8381 9.7723L36.8513 9.78574L36.8615 9.79921L36.8713 9.81264L36.885 9.85303L36.8918 9.90684L36.8952 9.9674V10.0414L36.8918 10.1289L36.885 10.2062L36.8782 10.2433L36.8713 10.2735L36.8581 10.3038L36.8381 10.3341L36.8112 10.3543L36.7775 10.3744L36.7374 10.3946L36.6969 10.4081L36.6334 10.4148L36.5728 10.4282H36.4116L36.0965 10.4316L35.8142 10.4485L35.566 10.4686L35.3511 10.5023L35.2505 10.5224L35.1635 10.5427L35.0795 10.5628L34.9989 10.5897L34.9319 10.6133L34.868 10.6435L34.8142 10.6705L34.7605 10.7041L34.7102 10.7377L34.6701 10.7781L34.6296 10.8117L34.5963 10.8521L34.5695 10.8925L34.5426 10.9396L34.5226 10.98L34.5021 11.027L34.4752 11.128L34.462 11.2289L34.4552 11.3432V14.6534L34.4688 14.7611L34.482 14.8081L34.5089 14.9023L34.5494 14.9831L34.6027 15.0571L34.7102 15.1782L34.7707 15.232L34.8914 15.3262L34.9955 15.4137L35.0326 15.4641L35.0628 15.5011L35.0897 15.5516L35.0961 15.5953L35.0897 15.6626L35.0795 15.7198L35.0726 15.7399L35.0662 15.7669L35.056 15.7871L35.0326 15.8072L34.9886 15.8476L34.9217 15.8879L34.8245 15.9216L34.7038 15.9687L34.5494 16.0158L34.3882 16.0696L34.227 16.1167L34.0526 16.1638L33.6902 16.258L33.3076 16.3387L32.9047 16.4194L32.4718 16.4935L32.0288 16.554L31.5725 16.6146L31.0928 16.6617L30.6028 16.7088L30.0992 16.7491L29.0557 16.8029L27.9751 16.8299H27.428L26.8642 16.8164L26.3205 16.776L25.8003 16.7088L25.3035 16.6146L24.8272 16.5002L24.3709 16.3656L23.9347 16.2042L23.515 16.0225L23.1257 15.8207L22.75 15.6054L22.394 15.3733L22.0583 15.1243L21.7398 14.8619L21.4443 14.5861L21.1624 14.3035L20.9074 14.0075L20.6592 13.6947L20.4341 13.3852L20.226 13.0622L20.0383 12.7393L19.8639 12.4096L19.7027 12.0766L19.5684 11.7469L19.4409 11.4105L19.3334 11.0809L19.2396 10.7445L19.159 10.4215L19.0985 10.0952L19.0447 9.779L19.0115 9.46954L18.991 9.16677L18.9846 8.87748L18.9978 8.36614L19.0315 7.86491L19.0917 7.38053L19.1722 6.90957L19.2665 6.44869L19.3872 6.01138L19.5283 5.58081L19.6891 5.16367L19.8703 4.75664L20.0652 4.37315L20.2733 4.00309L20.5014 3.64651L20.753 3.30004L21.008 2.9771L21.2831 2.6609L21.5718 2.37156L21.8673 2.08901L22.1859 1.82662L22.5082 1.58441L22.8438 1.3523L23.1863 1.14374L23.5351 0.948642L23.8976 0.766982L24.2703 0.612229L24.6459 0.470953L25.0285 0.349845L25.4178 0.242214L25.8139 0.154752L26.2131 0.087461L26.6156 0.0403831L27.0186 0.0134326L27.428 0L27.9615 0.00673784L28.4651 0.0201704L28.9482 0.0470779L29.4113 0.0807239L29.8578 0.121107L30.2804 0.181661L30.4885 0.215306L30.6898 0.248909L31.0791 0.329675L31.2706 0.376753L31.4518 0.423874L31.8143 0.531506L31.9887 0.592059L32.1563 0.652612L32.3243 0.719861L32.4919 0.787152L32.6531 0.861181L32.8143 0.941904L32.9686 1.02263L33.1264 1.10335L33.2808 1.19755L33.4283 1.28501L33.5759 1.38595L33.7238 1.49021L33.7571 1.51042L33.7976 1.52723L33.8445 1.5575L33.8983 1.58441L33.9584 1.61132L34.0121 1.63153L34.0658 1.64496H34.1396L34.1801 1.63153L34.2202 1.60458L34.2607 1.57435L34.3545 1.51042L34.4552 1.42633L34.5558 1.34557L34.6535 1.27832L34.697 1.25137L34.7405 1.2312L34.7776 1.21776L34.8176 1.21103H34.8479L34.8748 1.21776L34.8914 1.22446L34.9149 1.23793L34.9251 1.2581L34.9417 1.28501L34.9486 1.31866L34.9588 1.35904L34.9652 1.49021L34.9754 1.66513L34.9822 1.90735V3.04439L34.9955 3.69363L35.0155 4.18475L35.0326 4.54808L35.0726 5.01229L35.0897 5.17041L35.0961 5.30495L35.0897 5.3386L35.0795 5.3655L35.0662 5.38567L35.0492 5.41258L35.0292 5.4328L34.9989 5.45297L34.9754 5.46644L34.9417 5.47987L34.868 5.50678L34.784 5.52026L34.697 5.53369H34.6095L34.5895 5.52699L34.5695 5.50678L34.5426 5.46644L34.5089 5.41932L34.4351 5.27131L34.3477 5.08295L34.2539 4.83737L34.1464 4.56151L34.039 4.23857L33.9319 3.88873L33.8714 3.72054L33.804 3.55231L33.7238 3.38413L33.6432 3.22268L33.549 3.05782L33.4484 2.90307L33.3409 2.74836L33.227 2.60034L33.0961 2.45233L32.9618 2.31105L32.8211 2.17647L32.6731 2.04193L32.5187 1.91409L32.3512 1.78624L32.1831 1.67187L32.0019 1.5575L31.8143 1.4465L31.613 1.3422L31.4113 1.24467L31.1968 1.15047L30.9716 1.06975L30.7435 0.988983L30.5085 0.914997L30.2672 0.854443L30.0122 0.79389L29.7503 0.740074L29.4783 0.699691L29.2032 0.65935L28.9214 0.6324L28.6258 0.612229L28.3307 0.598797L28.022 0.592059L27.7534 0.605491L27.4817 0.625705L27.2067 0.666045L26.938 0.719861L26.663 0.79389L26.3875 0.881351L26.1124 0.982287L25.834 1.10335L25.5653 1.23793L25.2971 1.38595L25.0353 1.5575L24.7803 1.73916L24.5253 1.93426L24.2766 2.14956L24.0319 2.38504L23.7969 2.62725L23.5688 2.88964L23.3538 3.17556L23.1526 3.47159L22.9513 3.78109L22.7701 4.10403L22.5957 4.45388L22.431 4.81046L22.2933 5.19058L22.156 5.58081L22.0417 5.99121L21.9411 6.41504L21.8537 6.85576L21.7867 7.31324L21.7398 7.78419L21.7061 8.27531L21.6993 8.78328L21.7061 9.24749L21.7398 9.69827L21.7935 10.1356L21.8605 10.5561L21.9479 10.9597L22.0485 11.35L22.176 11.72L22.3134 12.0766L22.4677 12.4231L22.6289 12.7528L22.8102 13.0622L23.005 13.365L23.2131 13.6476L23.4276 13.9099L23.6558 14.169L23.8907 14.4045L24.1393 14.6332L24.3978 14.8418L24.6592 15.0301L24.9278 15.2118L25.2029 15.38L25.4847 15.5314L25.7666 15.6626L26.0587 15.7871L26.3542 15.8947L26.6493 15.9821L26.9448 16.0629L27.2399 16.1302L27.5423 16.1773L27.8408 16.2109L28.1359 16.2311L28.4314 16.2378H28.8476L29.2467 16.2244L29.6194 16.2109L29.9785 16.1773L30.1529 16.1638L30.3141 16.1369L30.4685 16.1167L30.6228 16.0898L30.7704 16.0562L30.9047 16.0225L31.039 15.9821L31.1665 15.9418L31.2872 15.8947L31.4049 15.8409L31.5021 15.7871L31.6062 15.7231L31.7 15.6626L31.8612 15.5146L31.9281 15.4338L31.9887 15.3531L32.0424 15.2589L32.0893 15.1647L32.1294 15.0638L32.1563 14.9561L32.1767 14.8418L32.19 14.7207L32.1968 14.5928V11.1145Z" fill="white"/>
    <path d="M10.7661 25.99C9.74228 26.1212 9.67533 26.2221 9.67533 27.1976V28.587C9.67533 29.1655 9.69196 29.7139 9.77597 30.1579C8.75253 30.39 7.41694 30.7533 6.0272 30.7533C2.27886 30.7533 0 28.4187 0 25.0918C0 21.6 2.83919 19.5143 6.14148 19.5143C7.82632 19.5143 9.06468 19.844 9.57469 19.9281C9.60796 20.5403 9.68855 21.5495 9.82288 22.5924L9.32608 22.6933C8.93035 21.2872 8.45019 20.6917 7.41012 20.3419C7.03102 20.2107 6.353 20.1266 5.87283 20.1266C3.34622 20.1266 1.7117 21.8657 1.7117 24.8933C1.7117 27.5239 3.06392 30.1411 6.26899 30.1411C6.82932 30.1411 7.34274 30.0267 7.67195 29.8585C8.01736 29.66 8.23228 29.4784 8.23228 28.7989V27.4432C8.23228 26.2355 8.10137 26.1044 6.51419 25.9866V25.5056H10.7559V25.9866L10.7661 25.99Z" fill="#30B354"/>
    <path d="M21.8447 30.6385C21.6298 30.6385 21.4485 30.6217 21.2336 30.6049C20.029 30.5208 19.3846 30.2079 18.6597 29.1819C18.049 28.3376 17.455 27.2948 16.925 26.4504C16.5957 25.9222 16.3813 25.8213 15.5386 25.8213H14.9617V28.4183C14.9617 29.8244 15.1429 29.9085 16.4653 30.0397V30.504H12.0555V30.0397C13.4248 29.8917 13.5421 29.8244 13.5421 28.4183V21.8148C13.5421 20.4087 13.3608 20.3583 12.0555 20.2103V19.746H16.267C17.4716 19.746 18.2806 19.8941 18.9083 20.3078C19.5859 20.7384 20.0324 21.4818 20.0324 22.491C20.0324 23.914 19.1228 24.8088 17.9015 25.3369C18.2 25.8516 18.9083 26.9583 19.4047 27.7052C20.0157 28.5831 20.3313 28.9969 20.7104 29.4107C21.1564 29.8917 21.536 30.0734 21.9151 30.1709L21.8481 30.6351L21.8447 30.6385ZM15.7535 25.2596C16.6128 25.2596 17.1565 25.1284 17.5693 24.7785C18.2136 24.2974 18.4784 23.6381 18.4784 22.7433C18.4784 20.9739 17.3075 20.328 16.0354 20.328C15.5557 20.328 15.2772 20.3953 15.1595 20.4928C15.012 20.6072 14.9617 20.7754 14.9617 21.206V25.2596H15.7535Z" fill="#30B354"/>
    <path d="M31.0565 27.8734C30.9559 28.304 30.5128 30.0095 30.3452 30.504H22.3211V30.0398C23.8584 29.9254 23.9722 29.774 23.9722 28.4183V21.8822C23.9722 20.4088 23.791 20.3281 22.5526 20.2103V19.7461H27.6033C29.1538 19.7461 29.7981 19.7293 29.996 19.7124C30.0131 20.1262 30.08 21.3675 30.144 22.2455L29.6472 22.3296C29.4996 21.7678 29.335 21.418 29.1504 21.0715C28.8851 20.5265 28.506 20.4088 27.5163 20.4088H25.9487C25.4353 20.4088 25.405 20.4592 25.405 20.9369V24.5935H27.2374C28.4758 24.5935 28.5598 24.3446 28.7576 23.221H29.2711V26.6287H28.7576C28.5431 25.4379 28.4122 25.2731 27.2208 25.2731H25.405V28.5664C25.405 29.7236 25.7675 29.8245 26.5931 29.8413H28.1304C29.1372 29.8413 29.3013 29.6933 29.6672 29.2627C29.9794 28.9162 30.3282 28.2367 30.5597 27.7388L31.0565 27.87V27.8734Z" fill="#30B354"/>
    <path d="M40.7824 27.8734C40.6817 28.304 40.2387 30.0095 40.0706 30.504H32.0469V30.0398C33.5838 29.9254 33.698 29.774 33.698 28.4183V21.8822C33.698 20.4088 33.5168 20.3281 32.2784 20.2103V19.7461H37.3291C38.8796 19.7461 39.524 19.7293 39.7218 19.7124C39.7385 20.1262 39.8058 21.3675 39.8694 22.2455L39.3726 22.3296C39.225 21.7678 39.0609 21.418 38.8762 21.0715C38.611 20.5265 38.2319 20.4088 37.2417 20.4088H35.6745C35.1611 20.4088 35.1308 20.4592 35.1308 20.9369V24.5935H36.9632C38.2016 24.5935 38.2856 24.3446 38.4835 23.221H38.9969V26.6287H38.4835C38.2685 25.4379 38.1376 25.2731 36.9466 25.2731H35.1308V28.5664C35.1308 29.7236 35.4933 29.8245 36.3189 29.8413H37.8558C38.8626 29.8413 39.0272 29.6933 39.393 29.2627C39.7052 28.9162 40.054 28.2367 40.2856 27.7388L40.7824 27.87V27.8734Z" fill="#30B354"/>
    <path d="M53.3461 20.2142C52.289 20.3285 51.9432 20.4967 51.8929 21.257C51.8762 21.7851 51.8425 22.4815 51.8425 24.0222V30.6592H51.2153L44.1476 22.0038V26.1414C44.1476 27.6317 44.1979 28.3751 44.2316 28.8562C44.2648 29.7005 44.6776 29.9494 45.8657 30.047V30.5112H41.8555V30.047C42.8789 29.9629 43.2751 29.7173 43.342 28.9066C43.3923 28.3785 43.426 27.6317 43.426 26.128V21.9062C43.426 21.442 43.3923 21.1796 43.0973 20.813C42.7851 20.3992 42.4359 20.2983 41.6273 20.2175V19.7533H44.1041L51.1044 28.0791V24.0255C51.1044 22.4848 51.0707 21.775 51.0204 21.2772C50.9701 20.5337 50.591 20.3016 49.272 20.2175V19.7533H53.3496V20.2175L53.3461 20.2142Z" fill="#30B354"/>
    <path d="M84.2267 0H59.5473V5.5707H84.2267V0Z" fill="#30B354"/>
    <path fill-rule="evenodd" clip-rule="evenodd" d="M59.5471 7.04846H70.8733V13.9076H84.2265V5.56836H95.9523V13.1675L82.8271 21.1973L95.9621 29.624H84.4278L77.7563 24.9111L70.8733 29.624H59.5471L72.6821 21.1973L59.5471 13.1675V7.04846Z" fill="#30B354"/>
    <path d="M101.812 13.4943V0.45663H104.364V11.1661H110.1V13.4943H101.812Z" fill="#D4D4D4"/>
    <path d="M115.527 13.7178C114.583 13.7178 113.739 13.5129 112.994 13.1032C112.261 12.681 111.684 12.1036 111.262 11.371C110.852 10.6384 110.647 9.79408 110.647 8.83798C110.647 7.88189 110.852 7.03754 111.262 6.30495C111.672 5.57236 112.243 5.00118 112.975 4.59143C113.708 4.16926 114.546 3.95817 115.49 3.95817C116.446 3.95817 117.29 4.16926 118.023 4.59143C118.755 5.00118 119.327 5.57236 119.736 6.30495C120.146 7.03754 120.351 7.88189 120.351 8.83798C120.351 9.79408 120.146 10.6384 119.736 11.371C119.327 12.1036 118.755 12.681 118.023 13.1032C117.303 13.5129 116.471 13.7178 115.527 13.7178ZM115.527 11.4455C115.987 11.4455 116.39 11.3338 116.738 11.1103C117.085 10.8868 117.352 10.5825 117.539 10.1976C117.737 9.80028 117.837 9.34707 117.837 8.83798C117.837 8.32889 117.737 7.88189 117.539 7.49696C117.34 7.09963 117.061 6.78921 116.701 6.5657C116.353 6.3422 115.949 6.23045 115.49 6.23045C115.043 6.23045 114.639 6.3422 114.279 6.5657C113.932 6.78921 113.658 7.09963 113.46 7.49696C113.261 7.88189 113.162 8.32889 113.162 8.83798C113.162 9.34707 113.261 9.80028 113.46 10.1976C113.658 10.5825 113.938 10.8868 114.298 11.1103C114.658 11.3338 115.068 11.4455 115.527 11.4455Z" fill="#D4D4D4"/>
    <path d="M123.551 13.4943L120.385 4.18168H122.881L124.818 10.179L126.774 4.18168H129.195L131.113 10.0859L133.069 4.18168H135.565L132.398 13.4943H129.977L127.984 7.19896L125.973 13.4943H123.551Z" fill="#D4D4D4"/>
    <path d="M146.735 13.7178C145.469 13.7178 144.345 13.4322 143.364 12.861C142.383 12.2774 141.613 11.4828 141.054 10.477C140.496 9.45882 140.216 8.29164 140.216 6.97546C140.216 5.65928 140.496 4.4983 141.054 3.49254C141.613 2.47436 142.377 1.67969 143.345 1.10851C144.326 0.524923 145.45 0.233128 146.717 0.233128C147.611 0.233128 148.442 0.394546 149.212 0.717383C149.982 1.0278 150.653 1.4686 151.224 2.03977C151.807 2.59853 152.254 3.24421 152.565 3.9768L150.199 4.85218C149.988 4.39276 149.709 3.99542 149.361 3.66017C149.014 3.3125 148.616 3.04554 148.169 2.85928C147.722 2.66062 147.238 2.56128 146.717 2.56128C145.959 2.56128 145.282 2.75374 144.686 3.13866C144.103 3.51117 143.643 4.02646 143.308 4.68456C142.985 5.34265 142.824 6.10628 142.824 6.97546C142.824 7.84464 142.991 8.61448 143.327 9.28499C143.662 9.94308 144.128 10.4646 144.724 10.8495C145.32 11.222 146.003 11.4083 146.772 11.4083C147.306 11.4083 147.791 11.3089 148.225 11.1103C148.672 10.8992 149.063 10.6136 149.399 10.2535C149.746 9.89341 150.026 9.47745 150.237 9.00561L152.602 9.86237C152.292 10.6198 151.845 11.2903 151.261 11.8739C150.69 12.4575 150.019 12.9107 149.25 13.2335C148.48 13.5564 147.642 13.7178 146.735 13.7178Z" fill="#D4D4D4"/>
    <path d="M156.828 13.7178C155.71 13.7178 154.841 13.4695 154.22 12.9728C153.612 12.4761 153.307 11.7746 153.307 10.8681C153.307 9.87479 153.636 9.12978 154.294 8.6331C154.965 8.12401 155.902 7.86947 157.107 7.86947H159.305C159.218 7.2983 159.038 6.86371 158.765 6.5657C158.491 6.25528 158.1 6.10007 157.591 6.10007C157.194 6.10007 156.834 6.18699 156.511 6.36083C156.188 6.53466 155.915 6.80162 155.691 7.16171L153.531 6.4167C153.705 6.01936 153.959 5.63444 154.294 5.26194C154.63 4.87702 155.064 4.5666 155.598 4.33068C156.145 4.08234 156.809 3.95817 157.591 3.95817C158.535 3.95817 159.317 4.13822 159.938 4.4983C160.571 4.85839 161.037 5.36748 161.335 6.02557C161.645 6.67125 161.794 7.44109 161.782 8.3351L161.726 13.4943H159.435L159.398 12.414C159.162 12.8362 158.827 13.159 158.392 13.3825C157.97 13.606 157.448 13.7178 156.828 13.7178ZM157.237 11.669C157.635 11.669 157.995 11.5759 158.318 11.3896C158.64 11.2034 158.895 10.9613 159.081 10.6633C159.267 10.3652 159.361 10.0548 159.361 9.73199V9.69474H157.964C157.157 9.69474 156.598 9.79408 156.287 9.99274C155.977 10.179 155.822 10.446 155.822 10.7936C155.822 11.0668 155.946 11.2841 156.194 11.4455C156.443 11.5945 156.79 11.669 157.237 11.669Z" fill="#D4D4D4"/>
    <path d="M163.429 13.4943V4.18168H165.888V5.8952C166.273 5.31161 166.757 4.87702 167.341 4.59143C167.937 4.29343 168.551 4.14442 169.185 4.14442V6.52845C168.613 6.52845 168.073 6.59675 167.564 6.73333C167.068 6.86992 166.664 7.09342 166.354 7.40384C166.043 7.71426 165.888 8.1116 165.888 8.59585V13.4943H163.429Z" fill="#D4D4D4"/>
    <path d="M175.446 13.7178C174.812 13.7178 174.26 13.5874 173.788 13.3267C173.316 13.0535 172.919 12.6686 172.596 12.1719L172.503 13.4943H170.175V0.45663H172.633V5.44819C172.944 4.96393 173.335 4.59764 173.807 4.3493C174.279 4.08855 174.825 3.95817 175.446 3.95817C176.302 3.95817 177.041 4.15684 177.662 4.55418C178.295 4.95152 178.786 5.51648 179.133 6.24907C179.481 6.96925 179.655 7.83222 179.655 8.83798C179.655 9.83133 179.481 10.6943 179.133 11.4269C178.786 12.1595 178.295 12.7244 177.662 13.1218C177.041 13.5191 176.302 13.7178 175.446 13.7178ZM174.812 11.4641C175.259 11.4641 175.651 11.3524 175.986 11.1289C176.333 10.9054 176.607 10.595 176.805 10.1976C177.004 9.80028 177.103 9.34707 177.103 8.83798C177.103 8.32889 177.004 7.87568 176.805 7.47834C176.619 7.081 176.352 6.77679 176.004 6.5657C175.669 6.3422 175.278 6.23045 174.831 6.23045C174.409 6.23045 174.03 6.3422 173.695 6.5657C173.36 6.78921 173.099 7.09963 172.913 7.49696C172.726 7.88189 172.633 8.32889 172.633 8.83798C172.633 9.34707 172.726 9.80028 172.913 10.1976C173.099 10.595 173.353 10.9054 173.676 11.1289C174.012 11.3524 174.39 11.4641 174.812 11.4641Z" fill="#D4D4D4"/>
    <path d="M185.335 13.7178C184.391 13.7178 183.547 13.5129 182.802 13.1032C182.069 12.681 181.492 12.1036 181.07 11.371C180.66 10.6384 180.455 9.79408 180.455 8.83798C180.455 7.88189 180.66 7.03754 181.07 6.30495C181.479 5.57236 182.051 5.00118 182.783 4.59143C183.516 4.16926 184.354 3.95817 185.298 3.95817C186.254 3.95817 187.098 4.16926 187.831 4.59143C188.563 5.00118 189.134 5.57236 189.544 6.30495C189.954 7.03754 190.159 7.88189 190.159 8.83798C190.159 9.79408 189.954 10.6384 189.544 11.371C189.134 12.1036 188.563 12.681 187.831 13.1032C187.111 13.5129 186.279 13.7178 185.335 13.7178ZM185.335 11.4455C185.794 11.4455 186.198 11.3338 186.546 11.1103C186.893 10.8868 187.16 10.5825 187.346 10.1976C187.545 9.80028 187.644 9.34707 187.644 8.83798C187.644 8.32889 187.545 7.88189 187.346 7.49696C187.148 7.09963 186.868 6.78921 186.508 6.5657C186.161 6.3422 185.757 6.23045 185.298 6.23045C184.851 6.23045 184.447 6.3422 184.087 6.5657C183.739 6.78921 183.466 7.09963 183.268 7.49696C183.069 7.88189 182.97 8.32889 182.97 8.83798C182.97 9.34707 183.069 9.80028 183.268 10.1976C183.466 10.5825 183.746 10.8868 184.106 11.1103C184.466 11.3338 184.875 11.4455 185.335 11.4455Z" fill="#D4D4D4"/>
    <path d="M191.468 13.4943V4.18168H193.778L193.89 5.44819C194.188 4.96393 194.566 4.59764 195.026 4.3493C195.498 4.08855 196.032 3.95817 196.628 3.95817C197.36 3.95817 197.987 4.10717 198.509 4.40518C199.03 4.70318 199.428 5.16881 199.701 5.80207C199.974 6.42291 200.104 7.23 200.092 8.22335V13.4943H197.633V8.72623C197.633 8.09297 197.559 7.60251 197.41 7.25484C197.273 6.90717 197.075 6.65883 196.814 6.50983C196.553 6.34841 196.249 6.2677 195.901 6.2677C195.268 6.25528 194.777 6.44774 194.43 6.84508C194.095 7.24242 193.927 7.83222 193.927 8.61448V13.4943H191.468Z" fill="#D4D4D4"/>
    <path d="M107.865 30.7178C106.537 30.7178 105.357 30.4322 104.327 29.861C103.308 29.2774 102.507 28.4828 101.924 27.477C101.34 26.4588 101.049 25.2916 101.049 23.9755C101.049 22.6593 101.34 21.4983 101.924 20.4925C102.507 19.4744 103.308 18.6797 104.327 18.1085C105.357 17.5249 106.537 17.2331 107.865 17.2331C108.66 17.2331 109.393 17.3511 110.063 17.587C110.734 17.8229 111.323 18.152 111.833 18.5741C112.354 18.9839 112.789 19.4557 113.136 19.9897L111.05 21.2934C110.839 20.9582 110.56 20.6602 110.212 20.3994C109.877 20.1387 109.504 19.9338 109.095 19.7848C108.685 19.6358 108.275 19.5613 107.865 19.5613C107.046 19.5613 106.319 19.7537 105.686 20.1387C105.053 20.5112 104.556 21.0265 104.196 21.6846C103.836 22.3426 103.656 23.1063 103.656 23.9755C103.656 24.8322 103.83 25.5959 104.178 26.2664C104.538 26.9369 105.041 27.4646 105.686 27.8495C106.332 28.222 107.077 28.4083 107.921 28.4083C108.554 28.4083 109.119 28.2903 109.616 28.0544C110.113 27.806 110.51 27.4646 110.808 27.03C111.106 26.5954 111.274 26.0863 111.311 25.5027H108.294V23.5098H113.77V25.093C113.745 26.285 113.478 27.3032 112.969 28.1475C112.46 28.9794 111.764 29.6189 110.883 30.0659C110.001 30.5005 108.995 30.7178 107.865 30.7178Z" fill="#D4D4D4"/>
    <path d="M119.197 30.7178C118.278 30.7178 117.465 30.5129 116.757 30.1032C116.05 29.681 115.491 29.1036 115.081 28.371C114.684 27.6384 114.485 26.7941 114.485 25.838C114.485 24.8819 114.69 24.0375 115.1 23.305C115.522 22.5724 116.093 22.0012 116.813 21.5914C117.546 21.1693 118.384 20.9582 119.328 20.9582C120.147 20.9582 120.898 21.1755 121.581 21.6101C122.277 22.0322 122.829 22.6593 123.239 23.4912C123.661 24.3107 123.872 25.3103 123.872 26.4899H117.055C117.117 27.1107 117.384 27.6074 117.856 27.9799C118.328 28.34 118.862 28.52 119.458 28.52C119.967 28.52 120.383 28.4145 120.706 28.2034C121.029 27.9799 121.277 27.6943 121.451 27.3466L123.649 28.2034C123.388 28.7249 123.047 29.1781 122.624 29.563C122.215 29.9355 121.724 30.2211 121.153 30.4198C120.582 30.6185 119.93 30.7178 119.197 30.7178ZM117.186 24.6646H121.209C121.172 24.2797 121.047 23.9693 120.836 23.7333C120.625 23.4974 120.377 23.3236 120.091 23.2118C119.806 23.1001 119.526 23.0442 119.253 23.0442C118.992 23.0442 118.707 23.1001 118.396 23.2118C118.098 23.3112 117.831 23.4788 117.596 23.7147C117.372 23.9506 117.235 24.2673 117.186 24.6646Z" fill="#D4D4D4"/>
    <path d="M124.989 30.4943V21.1817H127.299L127.41 22.4482C127.708 21.9639 128.087 21.5976 128.547 21.3493C129.018 21.0885 129.552 20.9582 130.148 20.9582C130.881 20.9582 131.508 21.1072 132.029 21.4052C132.551 21.7032 132.948 22.1688 133.221 22.8021C133.495 23.4229 133.625 24.23 133.613 25.2233V30.4943H131.154V25.7262C131.154 25.093 131.08 24.6025 130.931 24.2548C130.794 23.9072 130.595 23.6588 130.335 23.5098C130.074 23.3484 129.77 23.2677 129.422 23.2677C128.789 23.2553 128.298 23.4477 127.951 23.8451C127.615 24.2424 127.448 24.8322 127.448 25.6145V30.4943H124.989Z" fill="#D4D4D4"/>
    <path d="M134.35 30.4943L139.491 17.4566H142.21L147.351 30.4943H144.65L143.533 27.626H138.169L137.051 30.4943H134.35ZM139.007 25.3724H142.695L140.851 20.6415L139.007 25.3724Z" fill="#D4D4D4"/>
    <path d="M148.601 30.4943V17.4566H151.153V30.4943H148.601Z" fill="#D4D4D4"/>
    <path d="M160.556 30.4943V19.7848H156.644V17.4566H167V19.7848H163.107V30.4943H160.556Z" fill="#D4D4D4"/>
    <path d="M171.169 30.7178C170.225 30.7178 169.381 30.5129 168.636 30.1032C167.903 29.681 167.326 29.1036 166.903 28.371C166.494 27.6384 166.289 26.7941 166.289 25.838C166.289 24.8819 166.494 24.0375 166.903 23.305C167.313 22.5724 167.884 22.0012 168.617 21.5914C169.35 21.1693 170.188 20.9582 171.131 20.9582C172.087 20.9582 172.932 21.1693 173.664 21.5914C174.397 22.0012 174.968 22.5724 175.378 23.305C175.788 24.0375 175.993 24.8819 175.993 25.838C175.993 26.7941 175.788 27.6384 175.378 28.371C174.968 29.1036 174.397 29.681 173.664 30.1032C172.944 30.5129 172.112 30.7178 171.169 30.7178ZM171.169 28.4455C171.628 28.4455 172.032 28.3338 172.379 28.1103C172.727 27.8868 172.994 27.5825 173.18 27.1976C173.379 26.8003 173.478 26.3471 173.478 25.838C173.478 25.3289 173.379 24.8819 173.18 24.497C172.981 24.0996 172.702 23.7892 172.342 23.5657C171.994 23.3422 171.591 23.2304 171.131 23.2304C170.684 23.2304 170.281 23.3422 169.921 23.5657C169.573 23.7892 169.3 24.0996 169.101 24.497C168.903 24.8819 168.803 25.3289 168.803 25.838C168.803 26.3471 168.903 26.8003 169.101 27.1976C169.3 27.5825 169.579 27.8868 169.939 28.1103C170.299 28.3338 170.709 28.4455 171.169 28.4455Z" fill="#D4D4D4"/>
    <path d="M181.679 30.7178C180.735 30.7178 179.891 30.5129 179.146 30.1032C178.413 29.681 177.836 29.1036 177.414 28.371C177.004 27.6384 176.799 26.7941 176.799 25.838C176.799 24.8819 177.004 24.0375 177.414 23.305C177.824 22.5724 178.395 22.0012 179.127 21.5914C179.86 21.1693 180.698 20.9582 181.642 20.9582C182.598 20.9582 183.442 21.1693 184.175 21.5914C184.907 22.0012 185.479 22.5724 185.888 23.305C186.298 24.0375 186.503 24.8819 186.503 25.838C186.503 26.7941 186.298 27.6384 185.888 28.371C185.479 29.1036 184.907 29.681 184.175 30.1032C183.455 30.5129 182.623 30.7178 181.679 30.7178ZM181.679 28.4455C182.138 28.4455 182.542 28.3338 182.89 28.1103C183.237 27.8868 183.504 27.5825 183.691 27.1976C183.889 26.8003 183.989 26.3471 183.989 25.838C183.989 25.3289 183.889 24.8819 183.691 24.497C183.492 24.0996 183.212 23.7892 182.852 23.5657C182.505 23.3422 182.101 23.2304 181.642 23.2304C181.195 23.2304 180.791 23.3422 180.431 23.5657C180.083 23.7892 179.81 24.0996 179.612 24.497C179.413 24.8819 179.314 25.3289 179.314 25.838C179.314 26.3471 179.413 26.8003 179.612 27.1976C179.81 27.5825 180.09 27.8868 180.45 28.1103C180.81 28.3338 181.22 28.4455 181.679 28.4455Z" fill="#D4D4D4"/>
    <path d="M187.812 30.4943V17.4566H190.271V30.4943H187.812Z" fill="#D4D4D4"/>
    <path d="M192.084 30.4943V17.4566H194.543V24.646L197.728 21.1817H200.652L197.132 25.1116L200.931 30.4943H198.044L195.567 26.881L194.543 27.9985V30.4943H192.084Z" fill="#D4D4D4"/>
    <path d="M201.943 30.4943V21.1817H204.402V30.4943H201.943ZM203.173 19.673C202.8 19.673 202.471 19.5364 202.185 19.2633C201.9 18.9777 201.757 18.6424 201.757 18.2575C201.757 17.8726 201.9 17.5435 202.185 17.2704C202.471 16.9848 202.8 16.842 203.173 16.842C203.557 16.842 203.886 16.9848 204.16 17.2704C204.445 17.5435 204.588 17.8726 204.588 18.2575C204.588 18.6424 204.445 18.9777 204.16 19.2633C203.886 19.5364 203.557 19.673 203.173 19.673Z" fill="#D4D4D4"/>
    <path d="M210.194 30.7178C209.163 30.7178 208.381 30.4632 207.847 29.9542C207.325 29.4451 207.065 28.7187 207.065 27.775V23.2677H205.556V21.1817H207.065V18.2761H209.523V21.1817H211.851V23.2677H209.523V27.2349C209.523 27.6322 209.61 27.9364 209.784 28.1475C209.958 28.3462 210.212 28.4455 210.548 28.4455C210.672 28.4455 210.808 28.4207 210.957 28.371C211.106 28.3089 211.262 28.222 211.423 28.1103L212.28 29.9542C211.982 30.1777 211.647 30.3577 211.274 30.4943C210.914 30.6433 210.554 30.7178 210.194 30.7178Z" fill="#D4D4D4"/>
</svg>
